ply
format ascii 1.0
element vertex 508
property float x
property float y
property float z
property float nx
property float ny
property float nz
element face 0
property list uchar int vertex_index
end_header
0.323925 0.0838321 -0.519761 0.836177 0.484736 -0.256591
-0.204674 -0.177598 0.128966 -0.278808 -0.960283 -0.0110974
0.119102 0.168318 0.231389 0.0657788 0.195621 0.978471
0.20781 0.302964 -0.134817 0.439477 0.898157 -0.013213
-0.046259 -0.177596 -0.637271 -0.0636531 -0.997691 -0.0236686
-0.18204 -0.057104 0.258466 -0.327142 0.259293 0.908705
0.118397 0.121602 -0.46797 0.0638846 0.829485 -0.554863
0.014565 0.302964 0.142676 -0.00617267 0.91991 0.392082
-0.0437802 -0.135955 0.835342 -0.00390861 -0.402338 0.915483
0.143996 0.0129348 0.756308 -0.42612 0.904167 0.0300566
0.109458 -0.177596 -0.336744 0.0526833 -0.998597 -0.00541537
-0.189938 -0.177596 -0.620274 -0.460237 -0.877378 -0.13561
0.0255001 0.302964 0.222667 -0.0136292 0.699156 0.71484
0.344846 0.0912177 0.450933 0 0.795018 -0.606585
0.176704 -0.177598 0.186622 0.163743 -0.986436 0.0114921
0.0161946 -0.177596 -0.482875 0.000393067 -1 0.000844001
-0.0563298 -0.062118 0.494253 0.0827273 0.996521 -0.0101331
0.0346633 -0.177596 -0.403229 -0.00113922 -0.999999 0.000581026
-0.310165 0.0545441 0.443908 -0.199237 0.962479 -0.184225
0.211675 -0.0334961 -0.815962 0.886723 -0.214707 -0.409417
-0.0255031 0.156102 0.231389 0.00430924 0.104453 0.99452
0.103519 -0.177598 0.165757 0.0382478 -0.999184 0.0129417
-0.00133438 -0.177598 0.667385 -0.0144362 -0.998176 -0.0586256
-0.031029 -0.177598 0.756298 -0.0270783 -0.92165 0.387077
0.244538 -0.177596 -0.169059 0.424728 -0.905311 -0.00433753
0.056532 0.302964 -0.141815 0.00846575 0.99995 -0.00525768
-0.0428831 -0.0681782 -1.07053 -0.282423 -0.453618 -0.845262
0.303285 0.0177621 -0.598096 0.939753 0.241537 -0.241918
0.267199 0.262115 -0.307231 0.660814 0.670466 -0.337342
0.0925963 0.302964 0.0925158 0.0430362 0.992411 0.115189
-0.156172 0.302964 -0.269272 -0.189973 0.952076 -0.23971
0.354908 0.0794892 0.263791 0.688454 0.299986 0.660333
-0.0952322 -0.177598 0.586988 0.0574943 -0.998286 -0.0109389
0.158111 -0.058067 0.303668 -0.178855 0.653656 0.735354
0.144561 -0.177598 0.403653 0.0455297 -0.998836 -0.0159525
0.222446 -0.144443 -0.66255 0.668156 -0.712584 -0.21399
-0.115077 0.0871564 0.82884 0.410926 0.826899 0.383899
-0.346522 -0.00903314 0.564943 -0.699865 0.698582 -0.148905
-0.0827373 0.302964 -0.042048 -0.0169211 0.999848 -0.00427649
-0.285739 0.21242 -0.163419 -0.854962 0.518398 -0.0174094
-0.0654865 -0.177598 0.1729 0.0133916 -0.999886 0.00701112
0.0767947 0.302964 -0.0664835 0.000695494 0.999984 -0.00563859
-0.212143 0.302964 0.0842696 -0.440535 0.891089 0.109036
-0.285739 0.17159 -0.225742 -0.890007 0.449088 -0.078782
0.202153 0.302964 -0.230119 0.442363 0.884492 -0.148288
-0.081758 0.302964 -0.252854 -0.00616849 0.979441 -0.201636
0.19664 0.0839664 0.831908 -0.18456 0.792395 0.58142
-0.0881176 0.302964 0.153458 -0.0361036 0.916574 0.398232
-0.00920273 0.00101881 0.813128 0.0940264 0.79181 0.603486
0.276169 -0.0349395 -0.64946 0.950192 -0.128342 -0.284013
-0.139461 -0.177596 -0.347294 -0.105446 -0.9943 -0.0157867
0.297657 -0.136537 0.15196 0.679292 -0.733271 0.0296129
-0.285424 0.0161857 0.746901 -0.609747 0.748211 0.261512
0.178759 0.302964 -0.0392685 0.319304 0.947638 0.00516529
0.355937 0.0754037 0.352806 0.753163 0.654237 -0.0686977
-0.209942 0.0939056 -0.745655 -0.617748 0.744731 -0.252512
0.129123 0.302964 -0.262116 0.111508 0.961652 -0.250584
-0.305017 -0.0479795 0.834355 -0.616083 -0.0632067 0.785141
0.190959 -0.0661662 0.690742 -0.297556 0.483966 -0.822944
-0.33663 -0.0463781 0.656485 -0.980284 0.161191 -0.114288
0.355079 0.0455874 -0.126219 0.995379 0.0959255 -0.0042392
0.344115 -0.0194454 0.216548 0.939904 -0.00970039 0.3413
-0.297269 -0.137228 -0.0967912 -0.658726 -0.752303 -0.0109317
-0.0350219 0.30258 -0.313068 0.000186757 0.931475 -0.363804
0.31071 -0.111758 0.0733207 0.74511 -0.666887 0.00851066
0.285737 0.188626 0.125061 0.852416 0.456979 0.254082
0.196729 0.303045 -0.304013 0.308936 0.88756 -0.341753
0.172479 -0.177598 -0.0896069 0.183684 -0.982973 -0.00493583
0.210079 0.242218 -0.382239 0.390515 0.725904 -0.566182
0.271825 -0.177057 0.318237 0.479585 -0.87728 -0.019466
0.346124 0.0907496 -0.260728 0.970974 0.230106 -0.0652818
0.285737 0.125314 0.215856 0.596829 0.301345 0.74363
-0.179297 -0.106097 -0.821181 -0.732149 -0.584335 -0.350014
0.168375 -0.0630505 0.539531 -0.41401 0.908764 -0.0523853
-0.064551 -0.0587395 0.335188 0.053504 0.863095 0.5022
-0.200955 -0.0649074 0.629671 0.340823 0.808601 -0.479588
0.350305 0.0137177 -0.276136 0.997769 -0.0406261 -0.0529793
-0.271559 -0.17744 0.631161 -0.435534 -0.900076 0.0131949
-0.354906 0.0440928 0.0485157 -0.994341 0.10359 0.02354
-0.00658379 0.139659 -0.460132 -0.000108538 0.774819 -0.632184
0.19082 -0.113934 -0.7876 0.706372 -0.630401 -0.321923
0.0787003 -0.0663929 0.701745 -0.23855 0.898582 -0.3683
0.216124 -0.177598 0.421979 0.32334 -0.946256 -0.00709792
0.014491 -0.177598 0.119962 -0.00352528 -0.99997 0.00692205
0.13427 -0.177598 0.0889988 0.0804757 -0.996742 0.0054352
0.16566 -0.0646488 0.617061 -0.457155 0.854013 -0.248339
-0.0445173 0.0109652 0.231387 0.0224453 0.381885 0.923937
0.300345 -0.131709 0.766488 0.714055 -0.581894 0.389262
0.231527 -0.177598 0.773476 0.294119 -0.829628 0.474564
-0.272323 0.294789 0.154893 -0.653636 0.664582 0.362065
0.113084 0.00843391 -1.00907 0.788496 0.135178 -0.600001
-0.190587 -0.173752 -0.695314 -0.545304 -0.808816 -0.220136
0.0192383 -0.0321699 -1.11807 0.0546852 -0.15375 -0.986595
-0.263785 0.227652 -0.348134 -0.601204 0.670483 -0.434749
0.326353 -0.0759605 0.357293 0.981656 0.158399 0.106115
-0.249844 -0.0660487 0.684989 -0.927173 0.0939926 -0.362651
0.195298 -0.0105179 0.835342 -0.0624635 0.312465 0.947873
0.173195 -0.177596 -0.296531 0.2312 -0.972903 -0.00266559
-0.0512246 -0.177598 0.0127374 -0.00135366 -0.999978 0.00651814
-0.0911832 0.0939056 -0.572151 0.0064026 0.974173 -0.22571
-0.128681 0.0865952 -0.986789 -0.661119 0.604693 -0.444149
0.270081 -0.0360077 0.304435 0.78227 0.360403 0.508098
0.0821034 -0.177598 0.623939 -0.0228438 -0.999623 -0.0152247
0.285737 0.165576 -0.0459041 0.922868 0.385103 0.00322273
0.0855065 0.302964 0.167877 0.00732451 0.84902 0.528311
0.285737 0.214103 -0.1064 0.859303 0.511459 -0.00291405
0.224409 0.134407 -0.453709 0.470411 0.744217 -0.474189
0.316212 -0.0978284 -0.288491 0.857507 -0.513371 -0.0336292
-0.34979 0.0225445 -0.31838 -0.997895 0.00600161 -0.0645765
-0.0510845 0.0848732 0.231387 0.02409 0.0595497 0.997935
0.0623763 -0.177596 -0.118721 0.00256318 -0.999996 0.00144675
0.254615 -0.177598 -0.0233572 0.475181 -0.879846 -0.0086436
0.0380997 -0.177596 -0.851677 0.155773 -0.972393 -0.173744
-0.285739 0.135023 -0.150781 -0.954478 0.298078 0.0109695
0.11605 -0.177596 -0.248216 0.0625702 -0.998039 0.00164161
-0.088745 -0.0606037 0.422618 0.087361 0.996167 -0.00431445
-0.00453228 -0.177598 0.506527 -0.00368065 -0.999986 -0.00389256
0.145234 -0.177596 -0.403319 0.13773 -0.990328 -0.0167744
-0.0898274 -0.177598 0.270843 -0.00488237 -0.999277 0.0377057
0.299766 0.02475 0.269615 0.623556 0.428925 0.653606
-0.285739 0.210058 -0.0838392 -0.884527 0.466452 0.00582037
0.0778597 -0.177598 0.270578 -0.000840919 -0.999548 0.0300639
-0.353031 0.0841482 0.588914 -0.346233 0.912043 -0.219774
-0.103211 -0.177596 -0.269043 -0.0464131 -0.998922 -0.000499271
-0.147958 0.0939056 -0.679689 -0.191064 0.976385 -0.100836
0.0399964 -0.177599 -0.960432 0.0702245 -0.900013 -0.430169
0.193301 0.0939056 -0.698649 0.477805 0.86428 -0.157234
0.0592213 0.212147 0.231389 -0.0145335 0.358296 0.933495
-0.102495 0.269215 -0.359652 -0.0795016 0.815846 -0.572779
0.0710678 0.302514 -0.313403 0.0187091 0.924191 -0.381472
-0.329833 -0.0666481 -0.164531 -0.897457 -0.440861 -0.014551
-0.337383 0.07487 -0.462876 -0.894673 0.382946 -0.230027
-0.312724 -0.107623 0.615166 -0.874442 -0.482539 -0.0500766
-0.245722 0.187736 -0.407893 -0.518741 0.667771 -0.533844
-0.233431 0.0939056 -0.569031 -0.489573 0.830054 -0.267073
-0.0899833 -0.0479378 0.231387 0.0442282 0.485114 0.873331
0.355511 0.050505 0.175019 0.938407 0.20104 0.281026
0.338445 -0.0405157 0.602161 0.949293 0.226147 -0.218403
-0.0788517 -0.177598 0.659476 0.0421857 -0.997889 -0.049372
0.352843 0.0262899 0.757647 0.869262 0.488858 0.0734921
-0.332369 -0.0476834 -0.338395 -0.947977 -0.307038 -0.0840609
0.282175 0.281487 -0.230441 0.763047 0.635235 -0.119318
-0.312353 0.0746046 -0.581634 -0.776585 0.574081 -0.259512
0.346551 0.0386332 -0.382848 0.985648 0.124309 -0.114217
-0.304902 -0.0831294 -0.459599 -0.869106 -0.474526 -0.139572
-0.26784 -0.0397631 0.367033 -0.61238 0.784675 0.0963076
-0.343961 0.0312418 -0.397773 -0.98428 0.113346 -0.135444
0.0643717 0.0146729 -1.07838 0.397122 0.150365 -0.905364
0.233463 -0.177596 -0.340637 0.45083 -0.891826 -0.0374004
-0.315686 -0.10122 0.701487 -0.868002 -0.478182 0.133844
-0.217909 -0.105545 0.835342 -0.222408 -0.451561 0.864076
-0.264467 -0.0451628 0.478697 -0.710716 0.685102 -0.159745
-0.273897 -0.17409 0.0595194 -0.557371 -0.830158 -0.0132168
0.341518 -0.029522 0.706001 0.982704 0.185172 -0.00223866
-0.238813 -0.164448 -0.563932 -0.547038 -0.828793 -0.117696
0.0927297 -0.177598 0.343129 -0.0105971 -0.999705 0.0218544
-0.031346 -0.0668403 0.751867 0.158356 0.528266 0.834181
-0.00269833 0.302964 -0.0786116 -0.00221817 0.999991 0.00355662
0.10067 0.302964 0.00569162 0.0425834 0.999092 -0.00165304
0.109042 0.0584806 0.231387 -0.0607929 0.259412 0.963852
0.0827896 -0.0596554 0.378106 -0.0972917 0.97921 0.177994
-0.138748 -0.177598 0.354474 -0.0513582 -0.998419 0.0228272
-0.220709 -0.177596 -0.409619 -0.383838 -0.922418 -0.0425944
-0.194712 -0.177598 0.555489 -0.116722 -0.993016 -0.0171708
0.255682 -0.0310335 0.231387 0.724048 0.120381 0.679163
0.118031 -0.0331796 0.835342 -0.23466 0.359863 0.903013
0.0326797 0.0394399 0.231387 -0.025498 0.299571 0.953733
0.291002 0.0939028 -0.309873 0.947662 0.291492 -0.130265
-0.315921 0.0829325 0.73447 -0.598482 0.798115 -0.0695104
-0.138688 -0.177596 -0.422216 -0.110484 -0.993776 -0.0142123
-0.0400057 -0.177596 -0.379005 -0.00375304 -0.999973 -0.00629254
-0.0859021 0.0939056 -0.907942 -0.378849 0.899236 -0.218743
-0.0411463 0.302964 0.0906048 -0.0074404 0.993392 0.114529
-0.113912 -0.142125 -0.903526 -0.586002 -0.727924 -0.35599
-0.000803484 -0.177598 -0.0677457 0.00374652 -0.999991 0.00216086
0.0363964 -0.0583803 0.318341 -0.0888011 0.813682 0.574487
0.0228605 -0.103627 -1.07225 0.105064 -0.607896 -0.787035
0.2867 -0.118084 -0.471461 0.756427 -0.641124 -0.129533
-0.285739 0.127892 -0.0721847 -0.953218 0.302239 -0.00512786
0.199276 -0.0888739 0.835342 0.181986 -0.434106 0.882288
0.26728 -0.0406341 0.665802 0.773035 0.484472 -0.409517
-0.265506 0.0488977 -0.726946 -0.820911 0.482111 -0.306061
0.305766 0.0410483 0.409586 0.193328 0.967222 -0.164638
-0.132764 -0.177598 0.105172 -0.0638083 -0.997955 -0.00383913
0.338313 -0.0409628 0.423943 0.798642 0.574693 -0.178605
0.0168881 -0.177598 0.822693 -0.0202546 -0.652902 0.757172
0.283423 -0.159773 -0.254768 0.605164 -0.795965 -0.0146947
-0.0580949 -0.177596 -0.452897 -0.0103878 -0.999938 -0.00394685
-0.0737909 -0.177596 -0.809955 -0.301787 -0.937877 -0.171204
-0.222088 0.0903946 0.756308 0.0450539 0.996758 0.066663
0.179228 -0.177598 0.620403 0.131863 -0.991092 -0.0186774
0.317898 0.0829747 0.530378 0.41805 0.861154 -0.28922
-0.0107556 0.0939056 -0.899466 -0.0425814 0.995231 -0.0877669
-0.0962168 0.0818147 0.756281 0.486067 0.858294 -0.16453
0.351397 0.0167467 0.555551 0.723951 0.649181 -0.233367
-0.142794 0.000795406 -0.96056 -0.852828 0.133517 -0.504834
0.319411 -0.0505305 -0.443999 0.953571 -0.265592 -0.141999
-0.350163 0.00951867 0.128797 -0.994889 0.00811231 0.100649
-0.228905 0.302724 -0.288608 -0.41415 0.85308 -0.317386
-0.0755626 -0.0657044 0.668301 0.205506 0.906062 -0.369891
0.0692229 -0.177598 0.520344 -0.0356511 -0.999364 0.000946078
0.123 -0.177596 -0.168617 0.0631239 -0.998005 0.00141129
0.266477 -0.177598 0.634508 0.468263 -0.883527 -0.010433
-0.198824 0.088982 -0.860485 -0.674403 0.662227 -0.326552
-0.285709 0.252993 0.228355 -0.630904 0.510395 0.584343
0.333135 -0.0424233 0.816086 0.80045 -0.0517267 0.597164
-0.354246 0.0823094 0.301646 -0.470989 0.348977 0.810176
-0.313387 -0.106195 0.789051 -0.73553 -0.463085 0.494518
-0.236956 0.0429041 -0.795024 -0.85446 0.386749 -0.346877
-0.126357 0.302964 0.0485105 -0.101878 0.994385 0.0286374
0.270047 -0.113818 0.835245 0.456209 -0.50589 0.732085
0.0810553 0.0939056 -0.62768 -0.0100804 0.997922 -0.0636378
-0.127518 -0.0626081 0.518051 0.192584 0.981241 -0.00877994
-0.273418 -0.0941618 -0.583187 -0.814339 -0.54432 -0.201411
0.150248 0.0870702 -0.951545 0.656142 0.642893 -0.395178
0.102272 0.0780981 0.756307 -0.431782 0.841502 -0.324712
-0.294671 0.0939035 -0.226118 -0.968494 0.244785 -0.0458195
-0.337587 -0.0433146 0.416395 -0.94373 0.280123 -0.175795
0.176433 -0.177598 0.326384 0.135091 -0.99083 0.00232844
-0.00889453 0.0939056 -1.05712 -0.0241953 0.688713 -0.724631
0.0792706 -0.177598 -0.0438434 0.0269423 -0.999636 0.00101818
0.250255 -0.177598 0.100239 0.425936 -0.904751 -0.00214189
-0.219494 0.0065866 0.231387 -0.237358 0.383379 0.89257
0.302782 -0.127251 -0.0690601 0.679227 -0.733919 0.00363537
-0.33367 0.0939035 0.376647 -0.240639 0.940211 -0.241029
0.286482 0.0920519 0.755823 0.273461 0.958991 0.0745359
0.0789295 -0.0419124 0.231387 -0.102983 0.555059 0.825411
0.174285 -0.175283 -0.733654 0.493213 -0.845799 -0.203384
0.226979 -0.0956372 -0.723595 0.800673 -0.524874 -0.288844
0.260881 0.176967 -0.398306 0.633754 0.639309 -0.435476
-0.134996 -0.0722077 -0.933339 -0.78308 -0.428334 -0.450906
0.272782 0.292836 0.230896 0.513156 0.622634 0.59076
0.265233 0.299072 0.0918538 0.605377 0.788072 0.111635
-0.285741 0.11265 -0.35383 -0.85159 0.451303 -0.266682
-0.200003 0.00123789 0.835342 0.0899416 0.468052 0.879112
0.320713 -0.0898433 0.221941 0.88499 -0.446568 0.131796
-0.0314422 -0.177596 -0.879436 -0.177154 -0.961197 -0.211463
0.320602 -0.0900785 -0.188159 0.862192 -0.506415 -0.0129934
-0.00496486 -0.0632289 0.5482 0.0263597 0.999652 -0.000816463
-0.0853316 -0.177596 -0.534885 -0.061731 -0.998074 -0.00614088
0.00693821 0.0939056 -0.793729 0.00424036 0.999976 0.00552669
-0.175909 0.302964 -0.18819 -0.286971 0.953632 -0.0907431
0.320017 -0.0914533 -0.00102592 0.82509 -0.564873 -0.012007
0.353889 0.0832109 0.605991 0.453739 0.834833 -0.311729
-0.0564652 -0.177598 0.0932377 0.00211133 -0.999994 0.00279074
-0.131911 -0.0283673 0.835342 0.242312 0.428019 0.87068
0.246252 -0.0624365 0.509709 0.832916 0.526844 -0.169372
0.230927 0.302964 0.0135088 0.491931 0.870583 0.00943422
0.0457303 -0.177596 -0.221022 0.00804067 -0.999967 -0.000739803
-0.0087034 -0.0571051 0.258518 0.00721124 0.433986 0.900891
-0.11403 0.125413 0.231387 -0.0071363 0.0592659 0.998217
-0.181577 0.213521 0.231389 -0.245745 0.402032 0.882031
-0.0813419 -0.177596 -0.735412 -0.226342 -0.96806 -0.107838
-0.167496 -0.166191 -0.765534 -0.576577 -0.776576 -0.253944
-0.00232427 -0.177598 0.395486 -0.00474724 -0.999989 -0.000376346
-0.0749355 -0.177598 -0.0700811 -0.0260218 -0.999651 0.00455451
-0.215655 0.302964 -0.0975048 -0.452064 0.891912 0.0114782
0.162774 0.0372806 0.835342 -0.336846 0.706988 0.621855
0.122207 -0.0610485 0.443467 -0.215262 0.976252 0.0243586
-0.350791 0.0861306 -0.275028 -0.974707 0.218577 -0.0465828
-0.298831 -0.134437 0.377562 -0.848187 -0.515373 -0.122353
0.254074 0.0939056 -0.54443 0.612791 0.724306 -0.316021
0.0435571 -0.0648504 0.835342 -0.173566 0.247155 0.953304
0.297973 0.0202909 0.627324 0.369274 0.847436 -0.38143
-0.0798659 -0.177598 0.511284 0.0600752 -0.998075 -0.0153786
0.084528 -0.062689 0.521977 -0.11025 0.993904 -0.000796677
0.314669 -0.0881861 -0.370944 0.877495 -0.471665 -0.0868017
-0.195397 -0.0598161 0.385678 -0.21035 0.977446 -0.018751
-0.00425819 0.0939056 -0.552131 0.0098398 0.953129 -0.302404
0.285737 0.117047 0.0619341 0.95344 0.301071 0.0175612
-0.153221 -0.177598 0.481293 -0.0443711 -0.998559 -0.0301832
-0.0023511 -0.0660021 0.682728 0.0705993 0.959139 -0.273985
-0.144054 0.302964 -0.118394 -0.126887 0.991916 -0.00182363
-0.278499 0.172794 0.231389 -0.584234 0.358208 0.728257
-0.159363 -0.177596 -0.156448 -0.10933 -0.994001 0.00290253
-0.285739 0.0945941 0.157643 -0.850956 0.252656 0.460478
0.0284261 -0.177596 -0.692089 0.0510523 -0.998578 -0.0153468
-0.232351 -0.177597 -0.113796 -0.394071 -0.91905 -0.00743282
-0.174456 0.187605 -0.432769 -0.213162 0.76136 -0.612285
-0.234104 -0.105325 -0.691912 -0.767023 -0.577548 -0.27949
0.0749202 -0.0516959 -1.0374 0.534533 -0.389095 -0.750253
0.285737 0.229543 0.0389683 0.810147 0.585677 0.0254024
0.251515 0.30272 -0.0704274 0.667705 0.74437 0.00919693
0.123325 -0.177596 -0.478902 0.108072 -0.993989 -0.0175116
0.178369 0.0117417 -0.903679 0.868042 0.164488 -0.468452
0.348159 -0.00113658 -0.199533 0.996872 -0.0750307 -0.0248512
-0.349835 0.00761504 -0.139493 -0.999252 -0.03843 -0.00421371
-0.289852 0.0424506 0.231387 -0.611288 0.298871 0.732805
0.149968 0.0939056 -0.768199 0.338936 0.931303 -0.133404
0.312236 0.0939048 -0.420551 0.858415 0.431752 -0.276975
0.0738383 0.0939056 -0.761672 0.0349935 0.999279 -0.0147176
-0.297688 0.0196183 0.66825 -0.502908 0.787209 -0.356911
0.264061 0.0939092 -0.647457 0.670318 0.701428 -0.242224
-0.0916642 0.122435 -0.467639 -0.00452805 0.83734 -0.546663
0.153326 -0.177598 0.761669 0.0945009 -0.899144 0.427328
0.219497 0.0928595 -0.795509 0.699269 0.655053 -0.28623
-0.00564523 0.0294397 -1.1529 -0.0354783 0.116082 -0.992606
0.285737 0.107054 0.1375 0.879362 0.313 0.358823
-0.0659389 0.0939056 -0.819397 -0.139314 0.9883 -0.0620801
0.279667 0.286695 -0.141517 0.724814 0.688812 -0.0135279
-0.168829 0.0939056 -0.604883 -0.179333 0.970288 -0.162422
-0.341192 -0.0307963 0.066759 -0.979409 -0.201773 0.00680946
0.161535 0.0939056 -0.543056 0.113252 0.941281 -0.318064
-0.0486069 0.302964 0.217686 -0.0146528 0.787534 0.616097
-0.352344 0.0230276 0.353573 -0.761126 0.648554 0.00802355
0.23407 -0.177598 0.524879 0.383244 -0.922802 -0.039496
0.261547 -0.101209 -0.613968 0.785891 -0.579117 -0.216791
0.223267 0.210204 0.231389 0.386826 0.437086 0.811987
0.152198 -0.0608443 0.756308 -0.524317 0.366478 0.768626
0.18351 -0.174819 0.835342 0.127919 -0.692312 0.71017
-0.0990434 -0.177598 0.430422 0.0397309 -0.999167 -0.00928759
-0.0240363 0.302964 -0.176431 -0.000636183 0.99993 -0.0118021
-0.32026 -0.0908881 0.531735 -0.997457 -0.0587829 -0.0403033
-0.176996 -0.177598 -0.058623 -0.219384 -0.975616 -0.00669087
-0.140327 -0.104264 0.835342 -0.0405183 -0.37913 0.924456
0.164329 0.302964 0.0584275 0.270848 0.961901 0.0372529
0.242214 0.0226243 -0.776575 0.906063 0.225404 -0.35811
0.141841 -0.177598 0.551152 0.0509736 -0.998648 -0.0101578
0.00829683 -0.177598 0.593917 -0.00146637 -0.999843 -0.0176416
-0.239405 -0.177598 0.789509 -0.350461 -0.827856 0.437987
0.130516 0.0939056 -0.857551 0.380796 0.903358 -0.197329
-0.303665 -0.109681 -0.382857 -0.76842 -0.636024 -0.0707411
0.215593 -0.177598 0.260055 0.356937 -0.933779 0.0255536
-0.190275 0.0813883 0.832765 0.207579 0.833572 0.511926
0.165891 -0.0684869 -0.881878 0.820118 -0.354396 -0.449232
0.266621 -0.041742 0.40574 0.589095 0.802777 -0.0922837
-0.349528 0.00592634 0.203853 -0.909856 0.0792533 0.407284
-0.299607 -0.133052 -0.0221473 -0.673799 -0.738781 -0.0140475
-0.177526 -0.177598 0.632279 -0.106517 -0.993892 0.0288461
-0.30787 -0.117493 0.461948 -0.935798 -0.321833 -0.143893
-0.337594 -0.0432926 -0.0859622 -0.95177 -0.306789 0.00365534
0.233077 -0.164217 -0.585964 0.559824 -0.817045 -0.137967
-0.140936 -0.177598 0.181624 -0.0841029 -0.996394 0.0112129
0.327739 -0.0722779 -0.115421 0.886927 -0.461909 -0.000161604
-0.310124 0.0543981 0.531843 -0.176417 0.969584 -0.16966
-0.346076 0.0146639 0.816821 -0.686605 0.38412 0.617272
0.1249 0.207539 -0.418072 0.0900298 0.736162 -0.67079
0.190094 0.302964 0.135352 0.354565 0.871791 0.33803
-0.0487081 -0.177598 0.332561 0.0167069 -0.999815 0.00952209
-0.268011 -0.142356 -0.498693 -0.694675 -0.706058 -0.137505
-0.331091 -0.0631076 -0.00548235 -0.921729 -0.387708 -0.00993474
-0.0174195 -0.0601293 0.400346 -0.00586471 0.996161 0.0873414
-0.256597 0.301892 0.0161589 -0.612149 0.79074 -0.00199914
-0.181811 -0.177598 0.719773 -0.16744 -0.957482 0.234928
0.129476 0.0517706 0.835342 -0.351211 0.739495 0.574281
-0.285739 0.170117 -0.300922 -0.85222 0.47864 -0.211244
0.28229 -0.0139229 0.561613 0.391305 0.891955 -0.226487
0.0869095 0.0939056 -0.549858 0.014013 0.949446 -0.313617
-0.347924 0.0891827 0.80123 -0.494849 0.760902 0.419705
-0.0982927 -0.0640531 0.588197 0.214252 0.95998 -0.180375
-0.300381 -0.131644 -0.202391 -0.697687 -0.716395 -0.00339225
-0.32716 0.00205771 -0.479397 -0.981443 0.0361071 -0.188325
0.337044 -0.0450547 0.509166 0.951517 0.281801 -0.123305
-0.0695183 0.0939056 -0.726721 -0.0243924 0.999688 -0.00546769
-0.104652 0.210937 0.231389 -0.0369612 0.391028 0.919636
-0.218189 -0.177596 -0.217302 -0.338953 -0.940795 0.00385692
-0.106491 0.0253685 -1.02351 -0.722027 0.324653 -0.610965
0.0450675 -0.061386 0.459291 -0.0533431 0.998538 0.00879083
-0.354957 0.0792726 0.220204 -0.814489 0.238403 0.528935
-0.196439 -0.177596 -0.28931 -0.316348 -0.948413 -0.0208844
-0.254429 0.302243 -0.204407 -0.626818 0.775304 -0.0774815
0.263254 0.0831289 -0.728826 0.817598 0.502821 -0.280544
-0.0230459 -0.177596 -0.181389 -0.00233884 -0.999997 0.00114094
0.0532887 0.00103914 0.768134 -0.148316 0.961664 0.230661
-0.356723 0.0690689 0.669393 -0.715979 0.657725 -0.234034
-0.0767469 -0.00877173 0.756308 0.316817 0.948112 0.0266483
0.217652 -0.00844122 0.756308 0.206629 0.915189 0.346026
0.143537 0.302964 -0.176901 0.154176 0.987908 -0.0163857
-0.192868 -0.177598 0.0526102 -0.264965 -0.96417 -0.0130348
-0.0134599 -0.177596 -0.553217 0.00135571 -0.999998 0.00113993
0.345344 -0.0141593 0.0430814 0.993527 -0.113599 0.000199329
0.0780345 -0.177598 0.707148 -0.0133258 -0.996943 0.0769841
-0.0873222 -0.0993373 -0.987508 -0.579546 -0.608887 -0.541648
0.0878008 -0.120099 -0.96871 0.501391 -0.706994 -0.498765
0.0512177 -0.177596 -0.608774 0.0245521 -0.999688 -0.00463853
-0.176392 -0.00305128 0.756308 0.427382 0.856715 0.288762
-0.163202 -0.177596 -0.521479 -0.309791 -0.948548 -0.0654697
0.313218 -0.106549 0.475863 0.961747 -0.245059 -0.122426
-0.0180112 -0.177596 -0.298141 0.00370106 -0.999974 -0.00610911
0.313203 0.0939035 -0.164318 0.974891 0.22215 -0.0153843
0.0717276 -0.177596 -0.532802 0.0325572 -0.999442 -0.007476
-0.222653 -0.0639999 0.754907 -0.339642 -0.498622 0.797508
0.104599 0.089262 -1.01813 0.643514 0.598116 -0.477647
0.0791152 -0.0646775 0.618509 -0.144563 0.974324 -0.172612
-0.311813 0.00301864 -0.554218 -0.956539 0.139097 -0.256291
-0.267841 -0.0397736 0.27642 -0.798117 0.308038 0.517806
-0.130463 0.0939056 -0.778735 -0.34718 0.929579 -0.123894
0.273557 0.0837889 0.832044 0.354234 0.699677 0.62046
0.309787 0.0532745 0.695221 0.561534 0.774696 -0.290733
0.205433 -0.177596 -0.515593 0.419709 -0.903471 -0.0870898
-0.352233 0.0849505 0.11501 -0.969966 0.218172 0.10755
-0.339827 -0.0356139 0.308885 -0.950574 0.270719 0.152054
0.0757311 -0.177598 0.433563 -0.0208228 -0.999759 -0.00696925
-0.00712921 -0.177598 0.269475 -2.32715e-05 -0.999133 0.0416425
0.131391 -0.177609 -0.822619 0.454494 -0.861704 -0.225613
0.350401 0.0832273 0.812435 0.717669 0.58844 0.37241
0.0483375 0.0939056 -0.483162 0.00560848 0.885249 -0.465084
-0.27022 0.0248035 0.835342 -0.346434 0.500301 0.793525
-0.226085 0.0827037 0.231387 -0.249638 0.2662 0.931031
0.123861 -0.177596 -0.588729 0.179265 -0.982418 -0.0521516
0.0881945 -0.161163 0.835342 0.0127526 -0.664671 0.747027
-0.296522 -0.136721 -0.287988 -0.703561 -0.709683 -0.0367659
-0.0693799 0.302964 -0.117953 -0.00565798 0.999982 0.00198606
0.151614 0.302947 0.231389 0.142444 0.712885 0.686662
-0.33641 -0.0465019 -0.256943 -0.948705 -0.31509 -0.026011
-0.231683 -0.0288091 -0.774367 -0.9093 -0.147793 -0.389012
-0.285739 0.129337 0.0892246 -0.953293 0.299749 0.0371875
0.285737 0.153789 -0.248841 0.923867 0.364716 -0.115979
-0.113681 -0.177024 0.835342 -0.0567844 -0.767297 0.638773
0.0747062 0.248293 -0.380575 0.0385589 0.753492 -0.656326
0.136537 0.283144 -0.345724 0.152901 0.847717 -0.507935
-0.0605452 0.0451878 -1.08973 -0.409541 0.3388 -0.847048
0.267934 0.00617486 0.835342 0.400611 0.29985 0.865795
0.263859 -0.172039 -0.408582 0.570414 -0.818337 -0.0703689
-0.00839372 -0.177596 -0.756421 -0.0413594 -0.997697 -0.0537673
0.353097 0.0841115 0.0310337 0.981144 0.192948 0.0113304
-0.259676 -0.1776 -0.342451 -0.461561 -0.886416 -0.0350418
-0.0634936 -0.0565984 0.835342 0.192737 0.260129 0.946142
0.20267 0.0673783 0.756308 -0.237698 0.967644 -0.084646
-0.00270465 0.25313 -0.375738 0.00405198 0.799269 -0.600959
-0.3325 -0.0590019 0.150706 -0.926364 -0.359602 0.111964
0.201969 0.0751775 -0.871003 0.732279 0.569879 -0.372834
-0.354705 0.0418848 -0.207736 -0.991172 0.130199 -0.0250315
0.336396 -0.0471287 0.141115 0.935719 -0.343154 0.0817078
0.0546544 -0.177598 0.0562984 -0.0055953 -0.999977 0.00371546
-0.348631 0.00120552 0.488041 -0.754902 0.642194 -0.133079
-0.263764 -0.177598 0.719315 -0.457912 -0.865135 0.204589
-0.264033 -0.177598 0.434783 -0.471477 -0.881104 -0.0369478
0.339666 -0.0361978 -0.0467041 0.96195 -0.273034 -0.0102301
-0.27126 -0.0339853 0.620821 -0.560378 0.767072 -0.312374
0.072892 -0.177596 -0.770958 0.247286 -0.960921 -0.124425
-0.165298 0.112479 -0.47149 -0.163294 0.875806 -0.454202
-0.162822 0.302964 0.221698 -0.142535 0.771256 0.620361
0.0508762 0.0939056 -0.857614 0.118998 0.990904 -0.06284
-0.0514835 -0.177603 -0.954534 -0.304773 -0.863344 -0.402182
-0.285739 0.208806 0.0821455 -0.869764 0.487506 0.0764742
-0.339207 -0.0377372 0.759875 -0.946186 -0.0244513 0.322697
-0.16097 0.302964 -0.0384015 -0.225596 0.974215 -0.00342411
-0.171795 0.0674174 -0.927698 -0.759573 0.499598 -0.416474
-0.280468 0.0939056 -0.511569 -0.712378 0.620878 -0.327152
0.101526 -0.177596 -0.702711 0.235805 -0.967024 -0.0962271
-0.252552 0.12054 -0.440411 -0.585404 0.687311 -0.430007
-0.16385 -0.0664669 0.705308 0.670063 0.429785 -0.605228
-0.285739 0.181937 0.00355493 -0.870534 0.491988 0.0108959
0.182972 -0.060029 0.395646 -0.154967 0.984549 0.0815442
-0.356363 0.062312 -0.0382982 -0.980843 0.194528 -0.0103024
-0.0373393 0.203598 -0.421181 -0.0143916 0.725572 -0.687996
0.00595286 -0.171035 -1.03124 0.0426789 -0.795959 -0.603844
-0.174822 -0.021081 -0.895902 -0.88134 -0.0324046 -0.47137
0.12273 -0.128103 -0.904076 0.609605 -0.709604 -0.353333
-0.285739 0.103305 0.0161503 -0.966715 0.25522 0.0180051
0.0585102 0.117567 0.231387 -0.0228504 0.0500499 0.998485
-0.282986 0.25916 -0.260998 -0.71437 0.669765 -0.202707
-0.272914 -0.175498 0.318683 -0.521649 -0.853139 -0.00599696
-0.318951 -0.0939035 0.259033 -0.898223 -0.411805 0.153662
0.0536672 0.302964 -0.23951 0.0160351 0.990897 -0.13366
-0.267052 -0.177598 0.183496 -0.500402 -0.865442 0.024658
-0.181735 -0.0614836 0.463868 0.347889 0.931936 -0.102319
-0.271431 -0.177598 0.54737 -0.506865 -0.861873 -0.0161972
-0.121078 -0.177596 -0.650083 -0.296621 -0.949453 -0.102734
0.298884 -0.134341 0.400301 0.848278 -0.528436 -0.0343519
0.310624 -0.111935 0.586904 0.884393 -0.463657 -0.0535805
-0.35018 0.0871632 -0.122903 -0.976686 0.214634 0.0040328
-0.280757 -0.00829727 -0.656989 -0.951098 0.0395334 -0.306349
0.317628 -0.0969624 0.679018 0.922343 -0.381699 -0.0599144
0.179281 -0.177598 -0.0115676 0.196377 -0.980527 -0.00189331
0.267474 0.0104142 -0.707069 0.941344 0.118054 -0.316126
0.196493 -0.177598 0.698943 0.194301 -0.978417 0.0703304
-0.285739 0.174163 0.154014 -0.796215 0.403695 0.450635
0.285445 0.166185 -0.328411 0.834569 0.479287 -0.271624
-0.230773 -0.177598 0.256562 -0.395007 -0.918247 0.0281528
0.175815 -0.0434185 0.231387 -0.0112982 0.325102 0.945612
0.0437274 0.191409 -0.430148 0.0104206 0.722367 -0.691431
0.044724 0.0939056 -0.969592 0.272454 0.916216 -0.293798
-0.127047 -0.177598 0.0095211 -0.0580154 -0.998314 -0.00157811
0.352124 0.0215767 0.481101 0.609639 0.778377 -0.149899
0.00558079 -0.177598 0.195758 0.000186051 -0.999921 0.0125315
-0.279224 0.287534 -0.0605259 -0.69901 0.715089 0.00582198
-0.306117 -0.120917 0.105693 -0.761379 -0.648306 -0.000746351
0.174278 0.114876 0.231387 0.10836 0.150598 0.982639
-0.0535415 0.0939056 -0.994812 -0.398712 0.820035 -0.410574
-0.131652 0.0472185 0.231387 0.0139639 0.259281 0.965701
0.232277 0.0571937 0.231387 0.246505 0.385085 0.889351
0.290592 -0.0799785 -0.538411 0.885367 -0.424362 -0.189847
0.286168 -0.155705 0.243147 0.617314 -0.785742 0.0391385
-0.00951119 0.0939056 -0.640038 0.0204827 0.998511 -0.0505587
-0.210616 -0.177598 0.37633 -0.246753 -0.968923 -0.0173457
-0.138383 -0.0586183 0.329493 0.167467 0.849319 0.500611
0.270261 -0.177598 0.709958 0.498919 -0.854369 0.145375
0.348633 0.00121151 0.34458 0.707362 0.658559 0.256787
0.276975 -0.169682 0.463357 0.518138 -0.854847 -0.0277361
0.319547 0.0077547 -0.523667 0.953997 0.156326 -0.255838
-0.00298451 0.302964 0.0200646 0.000519114 0.999995 -0.00314082
-0.250697 -0.0632982 0.551558 -0.765739 0.623221 -0.158868
-0.167399 0.302964 0.146587 -0.263442 0.898518 0.35109
0.174248 0.0939056 -0.623815 0.266389 0.953391 -0.141709
0.285737 0.189704 -0.182605 0.90577 0.422651 -0.030767
0.351558 0.0856662 0.107397 0.969418 0.228613 0.0892472
0.285737 0.235624 0.185905 0.692748 0.498847 0.520818
0.302268 0.0939035 -0.0362325 0.974656 0.22354 0.00873752
0.131407 -0.0429044 -0.958336 0.822348 -0.212714 -0.527728
-0.176888 0.285129 -0.343739 -0.259495 0.828928 -0.49552
-0.107757 -0.177598 0.742319 -0.0466526 -0.950387 0.307551
0.354725 0.0421783 -0.0432865 0.993399 0.114613 -0.00475443
0.113307 0.0939056 -0.695239 0.0474459 0.998644 -0.0214329
-0.286152 0.087035 -0.651888 -0.748075 0.613492 -0.253003
0.00554254 0.0939056 -0.719865 0.00535502 0.999971 0.00547084
0.031663 0.0867391 -1.11865 0.258087 0.535558 -0.804095
