ply
format ascii 1.0
element vertex 806
property float x
property float y
property float z
element face 1608
property list uchar int vertex_index
end_header
-0.23099 0.699635 -0.136344
0.235635 0.154187 -0.136344
-0.205836 0.767816 -0.136344
-0.180144 0.086006 -0.136344
0.250788 -0.391261 -0.136344
0.227109 0.222368 -0.136344
-0.1806 0.154187 -0.136344
-0.197116 0.788321 -0.136344
-0.265297 -0.807825 -0.136344
0.0074265 -0.818872 -0.136344
-0.181446 -0.391261 -0.136344
0.254032 -0.32308 -0.136344
-0.265297 0.425839 -0.136344
-0.170296 0.835997 -0.136344
0.2494 0.290549 -0.136344
-0.266593 -0.800346 -0.136344
0.0756075 -0.821143 -0.136344
-0.180959 -0.32308 -0.136344
-0.184946 -0.527623 -0.136344
-0.0012947 0.699635 -0.136344
0.143788 -0.822741 -0.136344
-0.178631 -0.459442 -0.136344
-0.272242 -0.732165 -0.136344
-0.180534 -0.254899 -0.136344
0.211969 -0.827867 -0.136344
0.278671 0.35873 -0.136344
-0.0279852 0.767816 -0.136344
0.272219 -0.800346 -0.136344
-0.0579987 0.835997 -0.136344
0.261587 -0.254899 -0.136344
0.28015 -0.778561 -0.136344
-0.265398 0.426911 -0.136344
-0.18176 -0.186718 -0.136344
0.285599 -0.732165 -0.136344
0.269813 0.426911 -0.136344
0.288849 -0.663984 -0.136344
-0.181271 -0.118537 -0.136344
-0.128935 0.855355 -0.136344
-0.181223 0.222368 -0.136344
-0.0607545 0.837403 -0.136344
0.218411 0.495092 -0.136344
-0.18069 -0.0503559 -0.136344
-0.265297 -0.673191 -0.136344
0.211969 0.503883 -0.136344
0.28015 -0.59541 -0.136344
-0.181059 0.0178251 -0.136344
0.249967 -0.527623 -0.136344
0.259596 -0.186718 -0.136344
-0.183644 0.290549 -0.136344
0.246808 -0.459442 -0.136344
0.147148 0.563273 -0.136344
-0.197116 -0.837135 -0.136344
0.280295 -0.595804 -0.136344
0.0756075 0.622178 -0.136344
0.2537 -0.118537 -0.136344
-0.128935 -0.816717 -0.136344
0.0637593 0.631454 -0.136344
-0.0607545 -0.807636 -0.136344
-0.197116 0.344522 -0.136344
0.253264 -0.0503559 -0.136344
-0.208874 0.35873 -0.136344
0.254459 0.0178251 -0.136344
-0.265297 0.475753 -0.136344
0.248627 0.086006 -0.136344
-0.263517 0.495092 -0.136344
-0.257153 0.563273 -0.136344
-0.248076 0.631454 -0.136344
0.0074265 0.690114 -0.136344
-0.261742 -0.663984 -0.136344
0.143788 0.565728 -0.136344
-0.219909 -0.595804 -0.136344
-0.197116 -0.560431 -0.136344
-0.128935 0.086006 -0.153229
-0.128935 -0.527623 -0.153084
0.0074265 -0.391261 -0.168698
-0.265297 0.426911 -0.136404
-0.128935 -0.391261 -0.154214
-0.265297 -0.800346 -0.137449
-0.197116 0.699635 -0.153723
-0.128935 0.154187 -0.153655
0.0074265 0.222368 -0.168471
0.0756075 0.222368 -0.173195
-0.197116 0.767816 -0.141361
-0.128935 0.0178251 -0.153511
-0.128935 -0.459442 -0.152622
-0.265297 -0.732165 -0.143059
-0.128935 -0.32308 -0.154896
-0.128935 0.699635 -0.167474
-0.0607545 -0.527623 -0.165137
0.0074265 0.290549 -0.168671
-0.0607545 0.0178251 -0.163422
-0.0607545 -0.459442 -0.16276
-0.128935 0.222368 -0.153354
0.0756075 -0.391261 -0.171196
0.0074265 -0.527623 -0.172015
0.0756075 0.290549 -0.173391
-0.128935 0.767816 -0.160681
-0.0607545 0.086006 -0.162868
0.0074265 -0.459442 -0.16852
-0.197116 -0.800346 -0.17298
0.143788 0.222368 -0.173253
0.0074265 0.0178251 -0.167898
-0.0607545 -0.391261 -0.16251
-0.128935 0.290549 -0.153033
0.0074265 -0.32308 -0.168018
-0.128935 -0.254899 -0.154469
0.0756075 -0.32308 -0.171168
0.143788 0.290549 -0.174811
-0.0607545 0.154187 -0.162916
0.143788 0.154187 -0.174573
0.143788 -0.391261 -0.173469
-0.0607545 0.222368 -0.162742
0.0074265 0.154187 -0.168138
-0.128935 0.835997 -0.143642
-0.0607545 0.290549 -0.163349
0.211969 0.154187 -0.161075
0.0074265 0.086006 -0.16825
0.211969 0.222368 -0.149945
-0.197116 0.35873 -0.139457
0.211969 0.290549 -0.157356
-0.0607545 0.699635 -0.159534
-0.0607545 0.767816 -0.149955
0.143788 -0.32308 -0.17418
0.0074265 -0.800346 -0.182453
-0.128935 0.35873 -0.152704
-0.0607545 0.835997 -0.1369
0.0074265 0.35873 -0.167733
0.0074265 -0.254899 -0.168033
0.0756075 0.35873 -0.170197
-0.0607545 -0.32308 -0.163211
0.143788 0.35873 -0.174354
-0.128935 -0.800346 -0.16634
-0.197116 0.426911 -0.156057
0.0074265 0.426911 -0.16979
0.0756075 0.154187 -0.170376
0.0756075 -0.254899 -0.171646
0.0756075 -0.800346 -0.183888
0.0756075 0.426911 -0.172393
0.143788 -0.800346 -0.182001
0.143788 -0.254899 -0.171778
-0.128935 0.426911 -0.160264
0.211969 -0.800346 -0.169331
0.143788 0.426911 -0.174648
-0.0607545 -0.254899 -0.163526
-0.0607545 0.35873 -0.163245
0.0074265 -0.732165 -0.185006
0.211969 0.35873 -0.168271
-0.0607545 -0.800346 -0.166191
-0.0607545 0.426911 -0.16603
0.211969 0.426911 -0.165566
0.211969 -0.391261 -0.16477
0.0756075 -0.732165 -0.188257
0.143788 -0.732165 -0.185526
0.0074265 -0.663984 -0.186328
0.0074265 0.495092 -0.175725
0.211969 -0.32308 -0.167152
0.0756075 -0.663984 -0.187306
0.0756075 0.495092 -0.174063
-0.128935 -0.186718 -0.154721
-0.197116 0.495092 -0.166902
-0.128935 -0.118537 -0.15475
0.211969 -0.254899 -0.169422
0.143788 -0.663984 -0.185303
0.143788 0.495092 -0.173102
-0.197116 -0.732165 -0.173957
0.0074265 0.563273 -0.174208
0.211969 -0.732165 -0.170863
0.0756075 0.563273 -0.165857
-0.128935 -0.732165 -0.182134
0.0074265 -0.186718 -0.167993
-0.128935 0.495092 -0.173952
0.143788 0.563273 -0.139129
0.28015 -0.732165 -0.141463
-0.197116 0.563273 -0.16556
0.211969 0.495092 -0.142506
0.0756075 -0.186718 -0.170904
-0.197116 -0.663984 -0.170118
0.0074265 0.631454 -0.160035
0.211969 -0.663984 -0.172952
-0.0607545 -0.186718 -0.163458
-0.128935 -0.663984 -0.18125
0.28015 -0.663984 -0.143905
-0.128935 0.563273 -0.175646
-0.0607545 -0.118537 -0.163345
0.143788 -0.186718 -0.171675
-0.0607545 -0.732165 -0.188212
0.0074265 -0.118537 -0.167756
-0.0607545 0.495092 -0.175606
0.0074265 -0.595804 -0.179657
0.0756075 -0.595804 -0.179714
-0.0607545 -0.663984 -0.187561
-0.0607545 0.563273 -0.177372
0.143788 -0.595804 -0.180164
0.0756075 -0.118537 -0.170972
0.0756075 -0.527623 -0.173911
-0.128935 -0.0503559 -0.153731
0.143788 -0.527623 -0.1746
0.143788 -0.118537 -0.172727
-0.197116 -0.595804 -0.147635
0.211969 -0.595804 -0.170267
-0.197116 0.631454 -0.160601
-0.128935 -0.595804 -0.165061
0.28015 -0.595804 -0.136467
-0.0607545 -0.0503559 -0.163273
0.211969 -0.186718 -0.167108
0.211969 -0.527623 -0.163872
-0.128935 0.631454 -0.170967
0.0074265 -0.0503559 -0.167955
0.0756075 -0.459442 -0.171449
-0.0607545 -0.595804 -0.1746
0.211969 -0.118537 -0.166011
-0.0607545 0.631454 -0.170863
0.143788 -0.459442 -0.171877
0.0756075 -0.0503559 -0.171741
0.211969 -0.459442 -0.164675
0.143788 -0.0503559 -0.173051
0.0756075 0.0178251 -0.171917
0.143788 0.0178251 -0.172337
0.211969 -0.0503559 -0.165463
0.211969 0.0178251 -0.165079
0.0756075 0.086006 -0.171651
0.143788 0.086006 -0.174113
0.211969 0.086006 -0.165737
-0.24777 -0.527623 -0.068163
0.275577 -0.391261 -0.068163
-0.279026 0.699635 -0.068163
0.0401431 0.835997 -0.068163
0.0566084 0.699635 -0.068163
-0.265297 -0.832063 -0.068163
0.0320039 0.767816 -0.068163
-0.306778 -0.800346 -0.068163
-0.24225 0.086006 -0.068163
-0.265297 0.756805 -0.068163
-0.24275 -0.459442 -0.068163
-0.309131 -0.732165 -0.068163
0.25975 0.154187 -0.068163
-0.302274 -0.663984 -0.068163
0.262817 0.222368 -0.068163
-0.243063 -0.391261 -0.068163
0.0583196 0.904178 -0.068163
0.28015 0.258339 -0.068163
-0.197116 -0.817919 -0.068163
-0.262185 0.767816 -0.068163
-0.241351 0.154187 -0.068163
-0.128935 -0.808719 -0.068163
-0.238947 0.835997 -0.068163
0.301257 0.290549 -0.068163
0.279783 -0.32308 -0.068163
-0.0607545 -0.805969 -0.068163
0.0074265 -0.805591 -0.068163
-0.197116 0.904001 -0.068163
0.0756075 -0.805565 -0.068163
0.0756075 0.956298 -0.068163
0.323772 0.35873 -0.068163
-0.196931 0.904178 -0.068163
0.28015 -0.313036 -0.068163
-0.272056 -0.595804 -0.068163
0.143788 -0.807272 -0.068163
-0.265297 0.304787 -0.068163
0.281514 -0.254899 -0.068163
-0.295962 0.35873 -0.068163
0.0799433 0.972358 -0.068163
0.211969 -0.823793 -0.068163
-0.132257 0.972358 -0.068163
0.28015 -0.837158 -0.068163
-0.265297 -0.582883 -0.068163
0.315355 0.426911 -0.068163
-0.308796 0.426911 -0.068163
-0.241698 -0.32308 -0.068163
0.281827 -0.186718 -0.068163
-0.128935 0.977574 -0.068163
0.320246 -0.800346 -0.068163
-0.24288 0.222368 -0.068163
0.28015 0.480245 -0.068163
0.32438 -0.732165 -0.068163
-0.0790507 1.04054 -0.068163
0.263493 0.495092 -0.068163
-0.0607545 1.06103 -0.068163
0.325791 -0.663984 -0.068163
0.211969 0.544958 -0.068163
-0.000304147 1.10872 -0.068163
0.192119 0.563273 -0.068163
-0.242956 -0.254899 -0.068163
0.0074265 1.11256 -0.068163
0.0978449 1.04054 -0.068163
0.143788 0.610942 -0.068163
-0.258786 0.290549 -0.068163
0.122668 0.631454 -0.068163
0.28015 -0.530757 -0.068163
0.0756075 0.679018 -0.068163
0.278912 -0.527623 -0.068163
-0.242402 -0.186718 -0.068163
0.281286 -0.118537 -0.068163
-0.303374 0.495092 -0.068163
-0.241498 -0.118537 -0.068163
0.268841 -0.459442 -0.068163
-0.299416 0.563273 -0.068163
0.0756075 1.09818 -0.068163
0.28015 -0.0411159 -0.068163
0.31098 -0.595804 -0.068163
0.0616686 1.10872 -0.068163
0.275799 0.0178251 -0.068163
-0.242944 -0.0503559 -0.068163
-0.291072 0.631454 -0.068163
0.269785 0.086006 -0.068163
-0.243294 0.0178251 -0.068163
0.280337 -0.0503559 -0.068163
-0.197116 0.086006 -0.126421
-0.265297 0.699635 -0.099628
-0.197116 0.154187 -0.126293
-0.197116 -0.391261 -0.126967
0.0074265 0.835997 -0.106831
-0.265297 0.35873 -0.107321
-0.197116 -0.527623 -0.130157
0.0074265 0.699635 -0.130593
-0.197116 -0.459442 -0.126336
-0.197116 -0.32308 -0.126661
0.28015 -0.254899 -0.0750717
0.0074265 0.767816 -0.110602
-0.197116 0.222368 -0.127377
0.28015 -0.186718 -0.0767589
-0.265297 -0.663984 -0.132623
-0.197116 0.835997 -0.120768
0.28015 -0.800346 -0.130568
-0.197116 -0.254899 -0.126522
0.28015 0.290549 -0.112909
0.28015 -0.118537 -0.0722416
-0.197116 0.290549 -0.129204
-0.128935 0.904178 -0.11333
-0.197116 -0.186718 -0.125802
0.28015 0.35873 -0.135247
0.0074265 0.904178 -0.107288
-0.128935 0.972358 -0.0716885
-0.265297 -0.595804 -0.0872779
0.28015 0.426911 -0.127915
-0.197116 -0.118537 -0.12609
0.28015 -0.0503559 -0.0690417
-0.0607545 0.904178 -0.122451
-0.265297 0.495092 -0.134755
0.0074265 0.972358 -0.111447
-0.0607545 0.972358 -0.113106
-0.197116 -0.0503559 -0.127276
-0.265297 0.563273 -0.128945
-0.197116 0.0178251 -0.127432
0.0756075 0.631454 -0.128194
-0.265297 0.631454 -0.120203
0.0756075 0.972358 -0.07251
-0.0607545 1.04054 -0.0824643
0.0074265 1.04054 -0.10313
0.0074265 1.10872 -0.0713411
0.0756075 1.04054 -0.0829814
0.054027 0.835997 1.8e-05
-0.253046 0.086006 1.8e-05
0.0756075 0.894926 1.8e-05
0.0744654 0.699635 1.8e-05
-0.251755 0.154187 1.8e-05
-0.291548 0.699635 1.8e-05
-0.265297 -0.822832 1.8e-05
-0.254829 -0.527623 1.8e-05
0.267664 0.154187 1.8e-05
-0.254425 -0.459442 1.8e-05
0.2672 0.222368 1.8e-05
-0.254399 -0.391261 1.8e-05
-0.314358 -0.800346 1.8e-05
0.079669 0.904178 1.8e-05
0.0476174 0.767816 1.8e-05
-0.274659 0.767816 1.8e-05
-0.315313 -0.732165 1.8e-05
-0.265297 0.802444 1.8e-05
0.105791 0.972358 1.8e-05
-0.254579 0.835997 1.8e-05
-0.310171 -0.663984 1.8e-05
-0.253418 -0.32308 1.8e-05
0.28015 0.255584 1.8e-05
0.132191 1.04054 1.8e-05
0.0074265 -0.804223 1.8e-05
0.280359 -0.391261 1.8e-05
0.285885 -0.32308 1.8e-05
0.307903 0.290549 1.8e-05
0.288865 -0.254899 1.8e-05
0.0756075 -0.80224 1.8e-05
0.106595 1.10872 1.8e-05
0.288417 -0.186718 1.8e-05
-0.220992 0.904178 1.8e-05
0.143788 -0.802107 1.8e-05
0.288484 -0.118537 1.8e-05
0.0074265 1.14219 1.8e-05
-0.197116 0.932072 1.8e-05
0.330047 0.35873 1.8e-05
0.0756075 1.12626 1.8e-05
0.321004 0.426911 1.8e-05
-0.254308 -0.254899 1.8e-05
0.211969 -0.818314 1.8e-05
-0.158517 0.972358 1.8e-05
-0.197116 -0.809019 1.8e-05
0.28015 -0.828177 1.8e-05
-0.253888 -0.186718 1.8e-05
-0.265297 0.25486 1.8e-05
-0.25329 -0.118537 1.8e-05
0.28015 0.0226325 1.8e-05
0.317966 -0.800346 1.8e-05
-0.128935 1.01462 1.8e-05
-0.128935 -0.806225 1.8e-05
-0.253281 -0.0503559 1.8e-05
0.274629 0.086006 1.8e-05
-0.0607545 -0.804152 1.8e-05
-0.28218 0.290549 1.8e-05
0.28635 -0.0503559 1.8e-05
-0.25282 0.0178251 1.8e-05
0.334916 -0.732165 1.8e-05
-0.109715 1.04054 1.8e-05
0.335002 -0.663984 1.8e-05
-0.279298 -0.595804 1.8e-05
0.280662 0.0178251 1.8e-05
-0.0607545 1.09834 1.8e-05
0.28015 -0.512334 1.8e-05
0.28015 0.489318 1.8e-05
0.274312 -0.459442 1.8e-05
-0.0516101 1.10872 1.8e-05
0.272887 0.495092 1.8e-05
-0.265297 -0.570593 1.8e-05
0.28015 -0.394582 1.8e-05
0.211969 0.557357 1.8e-05
-0.308787 0.35873 1.8e-05
0.206505 0.563273 1.8e-05
0.319737 -0.595804 1.8e-05
-0.313693 0.426911 1.8e-05
0.143788 0.625032 1.8e-05
0.137241 0.631454 1.8e-05
0.286327 -0.527623 1.8e-05
0.0756075 0.698034 1.8e-05
-0.256017 0.222368 1.8e-05
-0.31188 0.495092 1.8e-05
-0.30864 0.563273 1.8e-05
-0.301875 0.631454 1.8e-05
-0.265297 0.767816 -0.0588447
0.0756075 0.904178 -0.0351522
0.28015 -0.391261 -0.00688485
0.28015 -0.32308 -0.0661578
-0.265297 0.290549 -0.0577198
-0.197116 0.904178 -0.0679615
0.0756075 1.10872 -0.058036
0.28015 -0.527623 -0.0616738
0.28015 0.0178251 -0.0167231
-0.241605 0.086006 0.068199
0.027347 0.835997 0.068199
-0.240726 0.154187 0.068199
0.26212 0.154187 0.068199
-0.24314 -0.391261 0.068199
0.258593 0.222368 0.068199
0.275337 -0.391261 0.068199
-0.280165 0.699635 0.068199
-0.242021 -0.32308 0.068199
-0.265297 0.759456 0.068199
0.0074265 -0.804638 0.068199
-0.265297 0.290321 0.068199
0.28015 0.26838 0.068199
-0.265297 -0.83072 0.068199
0.303159 0.290549 0.068199
0.0597884 0.699635 0.068199
-0.263243 0.767816 0.068199
0.27927 -0.32308 0.068199
0.32402 0.35873 0.068199
0.0557053 0.904178 0.068199
0.0756075 -0.813305 0.068199
-0.242437 -0.254899 0.068199
-0.239047 0.835997 0.068199
-0.309967 -0.800346 0.068199
0.0279307 0.767816 0.068199
-0.265427 0.290549 0.068199
0.28015 -0.307259 0.068199
-0.307342 -0.732165 0.068199
0.310477 0.426911 0.068199
-0.299729 -0.663984 0.068199
0.143788 -0.808074 0.068199
-0.197116 -0.812775 0.068199
-0.201302 0.904178 0.068199
0.282002 -0.254899 0.068199
-0.197116 0.909661 0.068199
-0.242009 -0.186718 0.068199
-0.135587 0.972358 0.068199
-0.128935 -0.807712 0.068199
0.28015 0.481048 0.068199
0.0756075 0.953856 0.068199
0.265607 0.495092 0.068199
-0.128935 0.980596 0.068199
-0.241516 -0.118537 0.068199
-0.0795433 1.04054 0.068199
-0.0607545 -0.800802 0.068199
0.211969 0.548138 0.068199
-0.0607545 1.06105 0.068199
-0.241498 -0.0503559 0.068199
-0.269931 -0.595804 0.068199
0.211969 -0.813477 0.068199
0.0811471 0.972358 0.068199
-0.00274431 1.10872 0.068199
0.28015 -0.82717 0.068199
0.282798 -0.186718 0.068199
0.0996019 1.04054 0.068199
0.196114 0.563273 0.068199
-0.265297 -0.588835 0.068199
0.0074265 1.11517 0.068199
-0.242448 0.0178251 0.068199
-0.24238 -0.527623 0.068199
0.0756075 1.10437 0.068199
0.319144 -0.800346 0.068199
0.0706474 1.10872 0.068199
0.143788 0.609246 0.068199
0.323968 -0.732165 0.068199
-0.299025 0.35873 0.068199
-0.242856 -0.459442 0.068199
0.281101 -0.118537 0.068199
0.120576 0.631454 0.068199
-0.30728 0.426911 0.068199
0.326353 -0.663984 0.068199
0.28015 -0.0989938 0.068199
0.0756075 0.677395 0.068199
0.278806 -0.0503559 0.068199
0.28015 -0.52878 0.068199
-0.243541 0.222368 0.068199
0.275329 0.0178251 0.068199
0.27957 -0.527623 0.068199
0.269103 0.086006 0.068199
0.268031 -0.459442 0.068199
-0.303839 0.495092 0.068199
-0.298748 0.563273 0.068199
0.312535 -0.595804 0.068199
-0.29133 0.631454 0.068199
0.0756075 0.904178 0.0288848
0.28015 -0.391261 0.0243155
0.28015 -0.32308 0.0633774
-0.265297 0.767816 0.0626278
0.0756075 1.10872 0.0636633
0.28015 -0.527623 0.0657232
0.28015 -0.0503559 0.0612538
0.28015 0.0178251 0.0272243
0.239485 0.154187 0.13638
0.240964 0.222368 0.13638
-0.180425 -0.391261 0.13638
0.266601 0.290549 0.13638
-0.180399 0.154187 0.13638
-0.18043 0.086006 0.13638
-0.178173 0.222368 0.13638
0.28015 0.323675 0.13638
-0.182089 0.290549 0.13638
-0.231202 0.699635 0.13638
0.0074265 -0.820393 0.13638
-0.197116 0.334178 0.13638
0.24877 -0.391261 0.13638
-0.180971 -0.32308 0.13638
0.0756075 -0.818084 0.13638
-0.265297 -0.766906 0.13638
-0.191033 -0.527623 0.13638
0.143788 -0.818494 0.13638
0.24898 -0.32308 0.13638
-0.181386 -0.254899 0.13638
0.262374 -0.254899 0.13638
-0.180372 -0.186718 0.13638
0.28015 0.365614 0.13638
-0.266984 -0.732165 0.13638
0.269702 0.426911 0.13638
-0.205555 0.767816 0.13638
-0.265297 -0.691467 0.13638
-0.197116 0.786233 0.13638
-0.197116 -0.821048 0.13638
-0.179329 -0.459442 0.13638
0.281309 0.35873 0.13638
-0.181122 -0.118537 0.13638
-0.17061 0.835997 0.13638
0.211969 -0.829174 0.13638
-0.21587 0.35873 0.13638
7.18085e-06 0.699635 0.13638
0.25901 -0.186718 0.13638
0.231401 0.495092 0.13638
-0.181885 -0.0503559 0.13638
0.211969 0.512968 0.13638
-0.180864 0.0178251 0.13638
0.14968 0.563273 0.13638
-0.263236 0.426911 0.13638
0.275404 -0.800346 0.13638
0.0756075 0.619076 0.13638
-0.265297 0.440994 0.13638
-0.0304558 0.767816 0.13638
0.251062 -0.118537 0.13638
0.28015 -0.784465 0.13638
-0.265348 0.495092 0.13638
-0.261659 -0.800346 0.13638
-0.265297 0.495625 0.13638
0.286058 -0.732165 0.13638
0.254947 -0.0503559 0.13638
-0.256396 0.563273 0.13638
0.287102 -0.663984 0.13638
-0.0480093 0.835997 0.13638
-0.24665 0.631454 0.13638
0.28015 -0.614972 0.13638
-0.128935 0.884369 0.13638
-0.128935 -0.820852 0.13638
0.0074265 0.689871 0.13638
-0.0607545 0.872032 0.13638
0.2744 -0.595804 0.13638
0.255062 0.0178251 0.13638
0.0609277 0.631454 0.13638
0.251847 -0.527623 0.13638
-0.0607545 -0.818444 0.13638
0.246321 0.086006 0.13638
0.143788 0.567169 0.13638
0.24861 -0.459442 0.13638
-0.26053 -0.663984 0.13638
-0.2283 -0.595804 0.13638
-0.197116 -0.544445 0.13638
-0.197116 -0.527623 0.132157
-0.197116 0.086006 0.126289
-0.265297 0.290549 0.0683874
-0.197116 0.154187 0.125753
-0.265297 0.699635 0.0997429
0.28015 -0.254899 0.0761209
-0.197116 -0.459442 0.125663
0.0074265 0.835997 0.0906779
0.0074265 0.699635 0.130741
0.0074265 0.904178 0.107483
-0.197116 -0.391261 0.126704
-0.197116 -0.32308 0.12691
0.28015 -0.186718 0.0816949
-0.197116 -0.254899 0.127391
0.0074265 0.972358 0.114356
0.0074265 0.767816 0.0960317
-0.265297 0.35873 0.114201
-0.265297 -0.800346 0.134122
-0.265297 0.426911 0.134851
-0.197116 -0.186718 0.127239
0.28015 0.290549 0.118801
-0.197116 -0.118537 0.127173
-0.197116 0.835997 0.120339
0.28015 -0.800346 0.132128
-0.197116 0.222368 0.124429
0.0756075 0.972358 0.074316
0.28015 0.426911 0.124928
0.28015 -0.118537 0.0736515
-0.265297 -0.663984 0.131538
-0.197116 0.290549 0.128707
-0.197116 -0.0503559 0.127035
0.0074265 1.04054 0.103465
0.28015 -0.595804 0.128727
0.0756075 1.04054 0.0845756
-0.197116 0.904178 0.0757451
-0.197116 0.0178251 0.127345
0.0756075 0.631454 0.126454
0.0074265 1.10872 0.0735536
-0.128935 0.904178 0.126108
-0.265297 0.563273 0.128227
-0.265297 -0.595804 0.0840349
-0.128935 0.972358 0.0755559
-0.265297 0.631454 0.116502
-0.0607545 0.904178 0.129999
-0.0607545 0.972358 0.113832
-0.0607545 1.04054 0.0828316
0.0074265 0.222368 0.168157
0.0074265 -0.391261 0.170465
-0.128935 0.086006 0.154837
-0.128935 -0.391261 0.154527
-0.197116 0.699635 0.153184
0.0756075 -0.391261 0.171286
-0.265297 -0.732165 0.137981
0.0756075 0.222368 0.172692
-0.197116 0.767816 0.140947
-0.128935 -0.32308 0.154294
-0.128935 0.699635 0.166445
-0.128935 -0.254899 0.153124
-0.128935 0.767816 0.160399
-0.128935 0.154187 0.154401
0.0074265 -0.32308 0.168038
-0.128935 0.835997 0.150816
-0.0607545 -0.391261 0.164614
-0.197116 -0.800346 0.170212
0.0074265 0.290549 0.168842
-0.0607545 0.699635 0.160543
-0.0607545 -0.32308 0.164208
0.0756075 0.290549 0.172446
-0.0607545 -0.254899 0.163915
-0.0607545 0.767816 0.151864
-0.128935 0.0178251 0.153755
-0.0607545 0.835997 0.143786
0.0074265 -0.254899 0.168144
-0.128935 0.222368 0.153216
-0.128935 -0.186718 0.153272
-0.128935 -0.800346 0.181472
0.143788 0.222368 0.171487
-0.128935 0.290549 0.153181
-0.0607545 0.0178251 0.163219
0.143788 0.290549 0.17232
-0.0607545 -0.800346 0.182309
0.0756075 -0.32308 0.171035
-0.0607545 0.154187 0.1637
0.0074265 0.154187 0.167553
-0.0607545 0.222368 0.162787
-0.0607545 0.086006 0.163548
0.143788 0.154187 0.174966
0.0074265 -0.800346 0.177022
0.143788 -0.391261 0.172557
0.0756075 0.154187 0.171234
-0.197116 -0.732165 0.172531
-0.128935 -0.118537 0.153212
0.211969 0.154187 0.162284
-0.128935 -0.732165 0.1812
-0.0607545 0.290549 0.162954
0.211969 0.222368 0.160604
0.0074265 0.0178251 0.16985
-0.197116 -0.663984 0.170692
0.211969 0.290549 0.167281
-0.128935 -0.663984 0.182613
-0.0607545 -0.186718 0.164326
-0.0607545 -0.732165 0.185084
0.0074265 0.35873 0.168903
-0.197116 0.35873 0.141025
0.143788 -0.32308 0.173001
0.0756075 0.35873 0.172783
0.0074265 -0.732165 0.184849
0.0074265 -0.186718 0.169878
-0.128935 -0.527623 0.156698
0.0756075 -0.254899 0.171294
0.143788 0.35873 0.175625
-0.0607545 -0.118537 0.163082
-0.128935 -0.459442 0.153206
0.0074265 -0.118537 0.168654
0.0074265 0.426911 0.170701
-0.0607545 -0.663984 0.190272
-0.0607545 -0.527623 0.163894
0.143788 -0.254899 0.171947
-0.128935 0.35873 0.154387
-0.0607545 -0.459442 0.162613
-0.128935 -0.0503559 0.153578
0.0074265 0.086006 0.168682
0.0756075 0.426911 0.175348
0.0074265 -0.663984 0.189583
-0.197116 0.426911 0.157167
0.143788 0.426911 0.175495
0.0074265 -0.527623 0.170362
-0.197116 -0.595804 0.154904
0.211969 0.35873 0.169546
-0.128935 0.426911 0.160848
0.28015 0.35873 0.13718
-0.128935 -0.595804 0.171015
-0.0607545 -0.0503559 0.163322
0.0074265 -0.459442 0.170023
0.0756075 -0.800346 0.159965
-0.0607545 -0.595804 0.177858
0.211969 0.426911 0.168122
0.0074265 -0.595804 0.182674
-0.0607545 0.35873 0.162534
0.0074265 -0.0503559 0.168044
0.211969 -0.391261 0.164586
0.143788 -0.800346 0.163946
0.0074265 0.495092 0.17704
-0.0607545 0.426911 0.16563
0.211969 -0.800346 0.176741
0.211969 -0.32308 0.162253
0.0756075 0.495092 0.178598
0.143788 0.495092 0.175125
-0.265297 0.495092 0.136427
0.0074265 0.563273 0.175046
0.211969 -0.254899 0.170095
0.0756075 -0.732165 0.184128
0.0756075 0.563273 0.166614
0.0756075 -0.186718 0.171639
0.143788 0.563273 0.141639
-0.197116 0.495092 0.166323
0.143788 -0.732165 0.180523
0.211969 0.495092 0.151808
0.143788 -0.186718 0.172126
0.0756075 -0.663984 0.186254
0.0756075 -0.118537 0.171715
0.0074265 0.631454 0.159987
-0.128935 0.495092 0.171364
0.143788 -0.663984 0.18271
0.143788 -0.118537 0.172457
0.211969 -0.732165 0.171268
-0.197116 0.563273 0.165019
0.211969 -0.186718 0.166836
-0.128935 0.563273 0.174786
0.28015 -0.732165 0.141844
0.211969 -0.118537 0.16161
-0.0607545 0.495092 0.175458
0.211969 -0.663984 0.172287
-0.0607545 0.563273 0.177657
0.28015 -0.663984 0.142409
0.0756075 -0.0503559 0.170871
-0.197116 0.631454 0.161009
0.143788 -0.0503559 0.172147
0.0756075 0.0178251 0.17287
0.0756075 -0.595804 0.181178
-0.128935 0.631454 0.17116
0.143788 0.0178251 0.170989
0.143788 -0.595804 0.17867
0.211969 -0.0503559 0.166017
-0.0607545 0.631454 0.171272
0.0756075 -0.527623 0.174092
0.211969 0.0178251 0.166632
0.0756075 0.086006 0.17258
0.143788 -0.527623 0.175935
0.143788 0.086006 0.173832
0.211969 -0.595804 0.172819
0.211969 0.086006 0.164446
0.211969 -0.527623 0.165734
0.0756075 -0.459442 0.172899
0.143788 -0.459442 0.172605
0.211969 -0.459442 0.164785
3 15 77 8
3 85 77 15
3 15 22 85
3 42 85 22
3 77 99 51
3 51 8 77
3 51 131 55
3 99 131 51
3 55 147 57
3 131 147 55
3 57 123 9
3 147 123 57
3 99 77 85
3 85 164 99
3 168 99 164
3 131 99 168
3 42 164 85
3 42 176 164
3 42 68 176
3 180 164 176
3 168 164 180
3 185 131 168
3 147 131 185
3 123 147 185
3 185 145 123
3 190 168 180
3 185 168 190
3 145 185 190
3 190 153 145
3 198 176 68
3 68 70 198
3 201 176 198
3 180 176 201
3 71 198 70
3 71 201 198
3 71 73 201
3 71 18 73
3 209 180 201
3 190 180 209
3 188 190 209
3 153 190 188
3 88 201 73
3 209 201 88
3 94 209 88
3 188 209 94
3 230 8 228
3 15 8 230
3 22 15 230
3 230 234 22
3 234 42 22
3 234 236 42
3 236 321 42
3 8 51 241
3 241 228 8
3 51 55 244
3 244 241 51
3 55 57 248
3 248 244 55
3 57 9 249
3 249 248 57
3 68 42 321
3 256 321 236
3 333 321 256
3 265 333 256
3 70 321 333
3 68 321 70
3 265 223 333
3 223 71 333
3 71 70 333
3 223 313 71
3 18 71 313
3 363 228 357
3 230 228 363
3 234 230 363
3 363 367 234
3 236 234 367
3 367 371 236
3 228 241 394
3 394 357 228
3 241 244 402
3 402 394 241
3 244 248 405
3 405 402 244
3 248 249 375
3 375 405 248
3 412 236 371
3 256 236 412
3 420 256 412
3 265 256 420
3 223 265 420
3 420 358 223
3 467 357 457
3 363 357 467
3 471 363 467
3 367 363 471
3 473 367 471
3 371 367 473
3 457 394 475
3 357 394 457
3 475 402 481
3 394 402 475
3 481 405 488
3 402 405 481
3 488 375 454
3 405 375 488
3 412 371 473
3 473 492 412
3 420 412 492
3 492 500 420
3 503 420 500
3 358 420 503
3 467 457 627
3 551 467 627
3 551 471 467
3 551 559 471
3 559 562 471
3 562 473 471
3 562 638 473
3 564 586 475
3 586 457 475
3 586 627 457
3 475 481 596
3 596 564 475
3 481 488 603
3 603 596 481
3 488 454 546
3 546 603 488
3 551 627 586
3 607 638 562
3 473 638 650
3 650 492 473
3 500 492 650
3 650 638 607
3 607 608 650
3 608 503 650
3 503 500 650
3 608 609 503
3 609 610 503
3 552 610 609
3 559 551 662
3 562 559 662
3 586 564 673
3 673 596 685
3 564 596 673
3 596 603 690
3 690 685 596
3 690 546 697
3 603 546 690
3 700 551 673
3 551 586 673
3 700 662 551
3 673 685 703
3 703 700 673
3 707 562 700
3 562 662 700
3 707 607 562
3 707 703 709
3 700 703 707
3 703 690 711
3 685 690 703
3 690 697 716
3 716 711 690
3 709 711 725
3 703 711 709
3 725 716 733
3 711 716 725
3 607 707 737
3 737 608 607
3 737 709 741
3 707 709 737
3 609 608 737
3 718 609 741
3 609 737 741
3 718 552 609
3 709 725 745
3 745 741 709
3 745 733 747
3 725 733 745
3 718 745 726
3 741 745 718
3 726 747 736
3 745 747 726
3 21 73 18
3 84 73 21
3 76 84 21
3 21 10 76
3 88 73 84
3 84 91 88
3 94 88 91
3 91 98 94
3 91 84 76
3 76 102 91
3 74 91 102
3 98 91 74
3 233 313 223
3 315 313 233
3 21 313 315
3 18 313 21
3 310 315 233
3 233 238 310
3 21 315 310
3 310 10 21
3 233 223 358
3 358 360 233
3 238 233 360
3 360 362 238
3 510 358 503
3 360 358 510
3 448 360 510
3 362 360 448
3 503 610 616
3 616 510 503
3 565 610 552
3 616 610 565
3 448 616 620
3 510 616 448
3 620 616 565
3 565 538 620
3 552 718 722
3 722 565 552
3 538 722 659
3 565 722 538
3 722 726 729
3 718 726 722
3 729 736 743
3 726 736 729
3 659 729 672
3 722 729 659
3 729 743 657
3 657 672 729
3 86 76 10
3 10 17 86
3 105 86 17
3 17 23 105
3 129 76 86
3 102 76 129
3 74 102 129
3 129 104 74
3 143 86 105
3 129 86 143
3 104 129 143
3 143 127 104
3 32 105 23
3 158 105 32
3 36 158 32
3 160 158 36
3 143 105 158
3 158 179 143
3 169 143 179
3 127 143 169
3 179 158 160
3 160 183 179
3 169 179 183
3 183 186 169
3 195 160 36
3 36 41 195
3 83 195 41
3 41 45 83
3 203 160 195
3 183 160 203
3 207 183 203
3 186 183 207
3 90 195 83
3 203 195 90
3 207 203 90
3 90 101 207
3 3 83 45
3 72 83 3
3 268 310 238
3 316 310 268
3 17 310 316
3 10 310 17
3 282 316 268
3 324 316 282
3 23 316 324
3 17 316 23
3 329 324 282
3 282 291 329
3 23 324 329
3 329 32 23
3 294 329 291
3 335 329 294
3 36 329 335
3 32 329 36
3 302 335 294
3 341 335 302
3 36 335 341
3 341 41 36
3 305 341 302
3 343 341 305
3 41 341 343
3 343 45 41
3 231 343 305
3 307 343 231
3 3 343 307
3 45 343 3
3 268 238 362
3 362 372 268
3 282 268 372
3 372 391 282
3 291 282 391
3 391 396 291
3 294 291 396
3 396 398 294
3 302 294 398
3 398 403 302
3 408 302 403
3 305 302 408
3 231 305 408
3 408 352 231
3 452 362 448
3 372 362 452
3 391 372 452
3 452 465 391
3 479 391 465
3 396 391 479
3 398 396 479
3 479 486 398
3 491 398 486
3 403 398 491
3 502 403 491
3 408 403 502
3 444 408 502
3 352 408 444
3 448 620 621
3 621 452 448
3 549 620 538
3 621 620 549
3 465 621 623
3 452 621 465
3 623 621 549
3 549 555 623
3 465 623 629
3 629 479 465
3 557 623 555
3 629 623 557
3 479 629 631
3 631 486 479
3 567 629 557
3 631 629 567
3 486 631 640
3 640 491 486
3 574 631 567
3 640 631 574
3 502 640 645
3 491 640 502
3 576 640 574
3 645 640 576
3 502 645 611
3 611 444 502
3 611 645 576
3 576 541 611
3 549 659 665
3 538 659 549
3 555 665 667
3 549 665 555
3 659 672 676
3 676 665 659
3 672 657 670
3 670 676 672
3 667 676 678
3 665 676 667
3 678 670 682
3 676 670 678
3 555 667 684
3 684 557 555
3 567 684 701
3 557 684 567
3 684 678 710
3 667 678 684
3 710 682 717
3 678 682 710
3 684 710 721
3 721 701 684
3 721 717 723
3 710 717 721
3 574 701 730
3 567 701 574
3 574 730 680
3 680 576 574
3 701 721 742
3 742 730 701
3 721 723 749
3 749 742 721
3 730 742 688
3 688 680 730
3 688 749 706
3 742 749 688
3 576 680 658
3 658 541 576
3 79 72 3
3 3 6 79
3 90 83 72
3 72 97 90
3 116 90 97
3 101 90 116
3 97 72 79
3 79 108 97
3 116 97 108
3 108 112 116
3 9 136 16
3 123 136 9
3 16 138 20
3 136 138 16
3 138 141 24
3 24 20 138
3 24 141 27
3 151 123 145
3 136 123 151
3 152 136 151
3 138 136 152
3 151 145 153
3 153 156 151
3 152 151 156
3 156 162 152
3 166 138 152
3 141 138 166
3 30 166 172
3 30 141 166
3 30 27 141
3 166 152 162
3 162 178 166
3 172 166 178
3 178 181 172
3 30 172 33
3 33 181 35
3 172 181 33
3 156 153 188
3 188 189 156
3 162 156 189
3 189 192 162
3 194 188 94
3 189 188 194
3 196 189 194
3 192 189 196
3 178 162 192
3 192 199 178
3 202 178 199
3 181 178 202
3 205 192 196
3 199 192 205
3 46 199 205
3 46 44 199
3 44 202 199
3 208 94 98
3 194 94 208
3 196 194 208
3 208 212 196
3 208 98 74
3 74 93 208
3 110 208 93
3 212 208 110
3 205 196 212
3 212 214 205
3 46 214 49
3 205 214 46
3 150 212 110
3 214 212 150
3 49 150 4
3 214 150 49
3 181 202 52
3 52 35 181
3 52 202 44
3 243 307 231
3 309 307 243
3 3 307 309
3 309 6 3
3 9 16 251
3 251 249 9
3 251 20 257
3 16 20 251
3 257 24 262
3 20 24 257
3 264 27 323
3 264 262 27
3 262 24 27
3 323 27 30
3 264 323 271
3 274 30 33
3 274 271 30
3 271 323 30
3 33 35 278
3 278 274 33
3 44 46 290
3 290 288 44
3 290 49 295
3 46 49 290
3 295 4 224
3 49 4 295
3 278 52 299
3 35 52 278
3 299 44 288
3 52 44 299
3 355 231 352
3 243 231 355
3 375 251 380
3 249 251 375
3 251 257 384
3 384 380 251
3 257 262 392
3 392 384 257
3 262 264 395
3 395 392 262
3 264 271 400
3 400 395 264
3 400 274 409
3 271 274 400
3 274 278 411
3 411 409 274
3 442 288 290
3 417 415 295
3 415 442 295
3 442 290 295
3 421 417 437
3 417 295 437
3 295 224 437
3 411 299 425
3 278 299 411
3 429 299 442
3 299 288 442
3 429 425 299
3 429 442 415
3 421 437 376
3 355 352 444
3 444 446 355
3 454 380 464
3 375 380 454
3 464 384 474
3 380 384 464
3 384 392 493
3 493 474 384
3 493 395 496
3 392 395 493
3 496 400 505
3 395 400 496
3 400 409 508
3 508 505 400
3 508 411 514
3 409 411 508
3 518 533 521
3 523 415 417
3 523 533 415
3 523 521 533
3 450 523 529
3 523 417 529
3 417 421 529
3 411 425 526
3 526 514 411
3 518 526 533
3 526 429 533
3 526 425 429
3 533 429 415
3 529 421 376
3 444 611 613
3 613 446 444
3 613 611 541
3 541 540 613
3 454 464 550
3 550 546 454
3 464 474 553
3 553 550 464
3 553 493 569
3 474 493 553
3 579 493 633
3 493 496 633
3 579 569 493
3 579 633 584
3 633 496 505
3 588 584 508
3 584 505 508
3 584 633 505
3 508 514 591
3 591 588 508
3 594 642 599
3 602 518 521
3 602 642 518
3 602 599 642
3 521 523 606
3 606 602 521
3 523 450 548
3 548 606 523
3 594 526 642
3 594 514 526
3 594 591 514
3 642 526 518
3 541 658 669
3 669 540 541
3 680 688 695
3 695 658 680
3 688 706 731
3 731 695 688
3 669 695 692
3 658 695 669
3 695 731 693
3 693 692 695
3 697 550 744
3 546 550 697
3 744 553 751
3 550 553 744
3 553 569 754
3 754 751 553
3 754 569 579
3 697 744 761
3 761 716 697
3 744 751 766
3 766 761 744
3 733 761 769
3 716 761 733
3 761 766 773
3 773 769 761
3 751 754 775
3 775 766 751
3 779 775 584
3 775 754 584
3 754 579 584
3 773 775 782
3 766 775 773
3 782 779 784
3 775 779 782
3 779 584 588
3 784 588 591
3 779 588 784
3 733 769 789
3 789 747 733
3 769 773 792
3 792 789 769
3 736 789 795
3 747 789 736
3 789 792 798
3 798 795 789
3 773 782 800
3 800 792 773
3 599 800 594
3 800 782 594
3 782 784 594
3 798 800 802
3 792 800 798
3 800 599 602
3 602 802 800
3 736 795 803
3 803 743 736
3 795 798 804
3 804 803 795
3 743 803 661
3 661 657 743
3 661 804 698
3 803 804 661
3 798 802 805
3 805 804 798
3 802 602 606
3 606 805 802
3 698 805 750
3 804 805 698
3 750 606 548
3 805 606 750
3 784 591 594
3 106 74 104
3 93 74 106
3 122 93 106
3 110 93 122
3 135 104 127
3 106 104 135
3 122 106 135
3 135 139 122
3 150 110 122
3 122 155 150
3 150 155 11
3 11 4 150
3 155 122 139
3 139 161 155
3 11 161 29
3 155 161 11
3 135 127 169
3 169 175 135
3 184 135 175
3 139 135 184
3 193 169 186
3 175 169 193
3 197 175 193
3 184 175 197
3 204 139 184
3 161 139 204
3 161 204 47
3 47 29 161
3 210 184 197
3 204 184 210
3 47 210 54
3 204 210 47
3 213 186 207
3 193 186 213
3 197 193 213
3 213 215 197
3 216 207 101
3 213 207 216
3 215 213 216
3 216 217 215
3 218 197 215
3 210 197 218
3 210 218 59
3 59 54 210
3 218 215 217
3 217 219 218
3 59 219 61
3 218 219 59
3 216 101 116
3 116 220 216
3 221 216 220
3 217 216 221
3 220 116 112
3 112 134 220
3 109 220 134
3 221 220 109
3 222 217 221
3 219 217 222
3 61 222 63
3 219 222 61
3 115 221 109
3 222 221 115
3 63 115 1
3 222 115 63
3 224 11 247
3 4 11 224
3 255 29 317
3 255 11 29
3 255 247 11
3 317 29 47
3 47 320 317
3 326 47 54
3 320 47 326
3 255 317 259
3 317 320 269
3 269 259 317
3 320 326 292
3 292 269 320
3 336 54 59
3 326 54 336
3 301 298 61
3 298 59 61
3 298 336 59
3 301 63 304
3 61 63 301
3 63 1 235
3 235 304 63
3 292 336 306
3 326 336 292
3 306 336 298
3 437 224 247
3 247 438 437
3 438 247 255
3 376 438 377
3 437 438 376
3 379 255 259
3 379 377 255
3 377 438 255
3 379 269 382
3 259 269 379
3 269 292 385
3 385 382 269
3 443 298 301
3 404 443 304
3 443 301 304
3 404 399 443
3 304 235 359
3 359 404 304
3 385 306 407
3 292 306 385
3 413 407 443
3 407 298 443
3 407 306 298
3 413 443 399
3 529 530 461
3 461 450 529
3 461 530 470
3 530 376 377
3 529 376 530
3 477 470 379
3 470 377 379
3 470 530 377
3 477 382 497
3 379 382 477
3 497 385 511
3 382 385 497
3 515 534 517
3 534 535 520
3 520 517 534
3 522 535 404
3 535 399 404
3 522 520 535
3 522 359 447
3 404 359 522
3 515 407 534
3 515 385 407
3 515 511 385
3 534 407 413
3 413 535 534
3 535 413 399
3 450 461 554
3 554 548 450
3 556 470 615
3 556 554 470
3 554 461 470
3 556 622 572
3 615 622 556
3 572 637 583
3 622 637 572
3 615 470 477
3 622 477 497
3 615 477 622
3 622 497 511
3 511 637 622
3 589 515 517
3 589 583 515
3 583 637 515
3 517 520 600
3 600 589 517
3 600 522 604
3 520 522 600
3 522 447 536
3 536 604 522
3 637 511 515
3 670 661 691
3 657 661 670
3 691 698 714
3 661 698 691
3 682 691 719
3 670 691 682
3 691 714 727
3 727 719 691
3 714 750 755
3 698 750 714
3 750 548 554
3 554 755 750
3 714 755 760
3 760 727 714
3 760 554 556
3 755 554 760
3 682 719 763
3 763 717 682
3 719 727 768
3 768 763 719
3 723 763 770
3 717 763 723
3 770 768 774
3 763 768 770
3 768 760 777
3 727 760 768
3 760 556 572
3 572 777 760
3 774 777 780
3 768 777 774
3 777 572 583
3 583 780 777
3 723 770 785
3 785 749 723
3 785 774 787
3 770 774 785
3 706 785 788
3 749 785 706
3 788 787 791
3 785 787 788
3 774 780 793
3 793 787 774
3 793 583 589
3 780 583 793
3 787 793 796
3 796 791 787
3 796 589 600
3 793 589 796
3 731 788 797
3 706 788 731
3 788 791 799
3 799 797 788
3 731 797 699
3 699 693 731
3 699 799 696
3 797 799 699
3 799 796 801
3 791 796 799
3 796 600 604
3 604 801 796
3 696 801 702
3 799 801 696
3 801 604 536
3 536 702 801
3 31 75 12
3 92 79 6
3 6 38 92
3 48 92 38
3 103 92 48
3 111 79 92
3 108 79 111
3 80 108 111
3 112 108 80
3 114 92 103
3 111 92 114
3 80 111 114
3 114 89 80
3 60 118 58
3 48 124 103
3 48 58 124
3 58 118 124
3 60 132 118
3 60 12 132
3 12 75 132
3 124 118 132
3 132 140 124
3 144 103 124
3 114 103 144
3 89 114 144
3 144 126 89
3 144 124 140
3 140 148 144
3 126 144 148
3 148 133 126
3 62 75 31
3 62 132 75
3 62 159 132
3 62 64 159
3 170 132 159
3 140 132 170
3 65 159 64
3 173 159 65
3 182 159 173
3 170 159 182
3 148 140 170
3 170 187 148
3 133 148 187
3 187 154 133
3 191 170 182
3 187 170 191
3 165 187 191
3 154 187 165
3 200 173 65
3 65 66 200
3 206 173 200
3 182 173 206
3 0 200 66
3 78 200 0
3 87 200 78
3 206 200 87
3 191 182 206
3 206 211 191
3 177 191 211
3 165 191 177
3 120 206 87
3 211 206 120
3 19 67 120
3 67 177 120
3 177 211 120
3 260 312 258
3 260 267 312
3 267 12 312
3 267 31 12
3 272 309 243
3 319 309 272
3 6 309 319
3 319 38 6
3 286 319 272
3 327 319 286
3 38 319 327
3 327 48 38
3 286 258 327
3 258 312 327
3 312 58 327
3 312 60 58
3 58 48 327
3 12 60 312
3 267 62 31
3 267 293 62
3 293 338 62
3 296 338 293
3 342 338 296
3 303 342 296
3 345 342 303
3 225 345 303
3 308 345 225
3 64 62 338
3 65 338 342
3 64 338 65
3 66 342 345
3 65 342 66
3 0 345 308
3 66 345 0
3 314 67 19
3 406 439 397
3 406 258 439
3 406 260 258
3 406 423 260
3 267 260 423
3 423 426 267
3 431 243 355
3 272 243 431
3 431 397 272
3 397 439 272
3 439 286 272
3 258 286 439
3 293 267 426
3 426 432 293
3 296 293 432
3 432 433 296
3 303 296 433
3 433 434 303
3 225 303 434
3 434 356 225
3 406 397 455
3 455 469 406
3 509 406 469
3 423 406 509
3 513 423 509
3 426 423 513
3 431 355 446
3 446 519 431
3 455 431 519
3 397 431 455
3 524 426 513
3 432 426 524
3 525 432 524
3 433 432 525
3 527 433 525
3 434 433 527
3 451 434 527
3 356 434 451
3 469 455 612
3 509 612 626
3 469 612 509
3 513 626 628
3 509 626 513
3 519 613 634
3 446 613 519
3 542 613 540
3 634 613 542
3 639 519 634
3 639 455 519
3 639 612 455
3 639 634 542
3 542 544 639
3 547 626 639
3 626 612 639
3 547 570 626
3 547 639 544
3 578 626 570
3 628 626 578
3 581 513 628
3 581 524 513
3 581 585 524
3 585 587 524
3 587 649 524
3 649 525 524
3 525 649 652
3 652 527 525
3 527 652 614
3 614 451 527
3 581 628 578
3 590 649 587
3 652 649 590
3 590 593 652
3 614 652 593
3 593 545 614
3 597 618 571
3 540 669 683
3 683 542 540
3 544 683 687
3 542 683 544
3 683 692 694
3 669 692 683
3 694 693 656
3 692 693 694
3 687 694 704
3 683 694 687
3 704 656 674
3 694 656 704
3 570 547 713
3 728 547 687
3 547 544 687
3 728 713 547
3 578 713 734
3 570 713 578
3 713 728 739
3 739 734 713
3 687 704 748
3 748 728 687
3 748 674 712
3 704 674 748
3 728 748 753
3 753 739 728
3 748 712 724
3 724 753 748
3 585 581 758
3 587 585 758
3 765 581 734
3 581 578 734
3 765 758 581
3 765 739 772
3 734 739 765
3 776 590 765
3 590 587 765
3 587 758 765
3 776 772 778
3 765 772 776
3 739 753 781
3 781 772 739
3 753 724 752
3 752 781 753
3 772 781 783
3 783 778 772
3 783 752 759
3 781 752 783
3 590 776 786
3 786 593 590
3 786 778 790
3 776 778 786
3 593 786 660
3 660 545 593
3 660 790 666
3 786 790 660
3 778 783 794
3 794 790 778
3 794 759 771
3 783 759 794
3 666 794 675
3 790 794 666
3 571 675 597
3 675 771 597
3 675 794 771
3 2 78 0
3 82 78 2
3 96 78 82
3 87 78 96
3 7 82 2
3 7 96 82
3 7 13 96
3 13 113 96
3 121 87 96
3 120 87 121
3 19 121 26
3 120 121 19
3 121 96 113
3 113 125 121
3 121 125 28
3 28 26 121
3 37 113 13
3 39 113 37
3 125 113 39
3 28 125 39
3 81 112 80
3 134 112 81
3 109 134 81
3 81 100 109
3 232 308 225
3 232 2 308
3 2 0 308
3 232 242 2
3 242 7 2
3 242 245 7
3 245 322 7
3 13 7 322
3 318 19 26
3 314 19 318
3 311 26 28
3 318 26 311
3 250 322 245
3 250 328 322
3 328 13 322
3 328 37 13
3 250 254 328
3 263 328 254
3 332 328 263
3 337 37 328
3 39 37 337
3 337 28 39
3 337 311 28
3 337 331 311
3 340 328 332
3 337 328 340
3 331 337 340
3 340 339 331
3 270 332 263
3 270 340 332
3 270 275 340
3 275 347 340
3 348 340 347
3 339 340 348
3 277 347 275
3 277 348 347
3 277 280 348
3 280 349 348
3 283 349 280
3 356 232 225
3 356 366 232
3 366 435 232
3 368 435 366
3 242 232 435
3 368 245 435
3 245 242 435
3 368 370 245
3 370 383 245
3 383 440 245
3 440 250 245
3 254 250 440
3 387 440 383
3 387 254 440
3 387 263 254
3 387 393 263
3 401 263 393
3 270 263 401
3 275 270 401
3 401 410 275
3 414 275 410
3 277 275 414
3 280 277 414
3 414 418 280
3 386 280 418
3 283 280 386
3 451 453 356
3 453 366 356
3 453 531 366
3 368 366 531
3 460 531 453
3 460 466 531
3 466 368 531
3 466 370 368
3 476 370 466
3 383 370 476
3 387 383 476
3 476 478 387
3 480 387 478
3 393 387 480
3 401 393 480
3 480 485 401
3 487 401 485
3 410 401 487
3 414 410 487
3 487 490 414
3 495 414 490
3 418 414 495
3 386 418 495
3 495 501 386
3 453 451 614
3 545 561 614
3 561 453 614
3 561 460 453
3 561 563 460
3 563 466 460
3 563 632 466
3 568 632 563
3 618 625 582
3 582 571 618
3 582 617 592
3 625 617 582
3 466 632 644
3 644 476 466
3 568 644 632
3 568 595 644
3 595 648 644
3 478 476 644
3 651 480 648
3 480 644 648
3 480 478 644
3 653 648 595
3 595 598 653
3 598 619 653
3 598 592 619
3 592 617 619
3 651 653 654
3 648 653 651
3 653 619 624
3 624 654 653
3 485 480 651
3 655 487 654
3 487 485 654
3 485 651 654
3 655 624 641
3 654 624 655
3 490 487 655
3 647 495 641
3 495 490 641
3 490 655 641
3 501 495 647
3 545 660 664
3 664 561 545
3 664 666 668
3 660 666 664
3 563 561 664
3 671 568 668
3 568 563 668
3 563 664 668
3 668 675 679
3 666 675 668
3 675 571 582
3 582 679 675
3 668 679 681
3 681 671 668
3 679 582 592
3 592 681 679
3 595 568 671
3 595 671 681
3 681 598 595
3 681 592 598
3 656 699 663
3 693 699 656
3 699 696 686
3 686 663 699
3 81 80 89
3 89 95 81
3 107 81 95
3 100 81 107
3 117 109 100
3 115 109 117
3 115 117 5
3 5 1 115
3 117 100 107
3 107 119 117
3 5 119 14
3 117 119 5
3 95 89 126
3 126 128 95
3 130 95 128
3 107 95 130
3 137 126 133
3 128 126 137
3 130 128 137
3 137 142 130
3 119 107 130
3 130 146 119
3 14 146 25
3 119 146 14
3 149 130 142
3 146 130 149
3 25 149 34
3 146 149 25
3 137 133 154
3 154 157 137
3 142 137 157
3 157 163 142
3 167 154 165
3 157 154 167
3 171 157 167
3 163 157 171
3 174 142 163
3 149 142 174
3 34 174 40
3 149 174 34
3 50 163 171
3 50 43 163
3 43 174 163
3 40 174 43
3 56 167 177
3 167 165 177
3 56 53 167
3 69 167 53
3 171 167 69
3 56 177 67
3 50 171 69
3 1 5 237
3 237 235 1
3 240 5 325
3 5 14 325
3 240 237 5
3 325 14 25
3 25 330 325
3 334 25 34
3 330 25 334
3 240 325 246
3 246 330 253
3 325 330 246
3 253 334 266
3 330 334 253
3 276 34 40
3 276 273 34
3 273 334 34
3 43 50 281
3 281 279 43
3 276 43 279
3 40 43 276
3 344 53 56
3 287 53 344
3 287 285 53
3 285 69 53
3 227 67 314
3 227 56 67
3 227 289 56
3 289 344 56
3 287 344 289
3 281 69 285
3 50 69 281
3 266 334 273
3 235 237 361
3 361 359 235
3 237 240 373
3 373 361 237
3 373 246 378
3 240 246 373
3 246 253 388
3 388 378 246
3 388 266 390
3 253 266 388
3 273 276 419
3 419 416 273
3 279 281 424
3 424 422 279
3 419 279 422
3 276 279 419
3 285 287 428
3 428 427 285
3 289 227 354
3 354 430 289
3 428 289 430
3 287 289 428
3 424 285 427
3 281 285 424
3 390 273 416
3 266 273 390
3 447 361 449
3 359 361 447
3 449 373 456
3 361 373 449
3 373 378 458
3 458 456 373
3 378 388 462
3 462 458 378
3 462 390 472
3 388 390 462
3 482 419 484
3 416 419 482
3 489 424 499
3 422 424 489
3 419 422 489
3 489 484 419
3 507 428 512
3 427 428 507
3 516 354 459
3 430 354 516
3 428 430 516
3 516 512 428
3 424 427 507
3 507 499 424
3 390 416 482
3 482 472 390
3 447 449 537
3 537 536 447
3 539 537 630
3 537 456 630
3 537 449 456
3 539 630 543
3 558 636 560
3 630 456 458
3 566 543 462
3 543 458 462
3 543 630 458
3 558 472 636
3 558 462 472
3 558 566 462
3 573 482 484
3 573 636 482
3 573 560 636
3 575 499 577
3 489 499 575
3 484 489 575
3 575 573 484
3 580 646 601
3 580 512 646
3 580 507 512
3 580 605 507
3 597 459 618
3 597 516 459
3 597 601 516
3 601 646 516
3 646 512 516
3 499 507 605
3 605 577 499
3 636 472 482
3 656 663 677
3 677 674 656
3 663 686 689
3 689 677 663
3 696 702 705
3 705 686 696
3 702 536 537
3 537 705 702
3 686 705 708
3 708 689 686
3 708 537 539
3 705 537 708
3 712 677 715
3 674 677 712
3 715 689 720
3 677 689 715
3 724 715 732
3 712 715 724
3 715 720 735
3 735 732 715
3 720 708 738
3 689 708 720
3 740 738 543
3 738 708 543
3 708 539 543
3 735 738 746
3 720 738 735
3 560 738 558
3 738 740 558
3 560 746 738
3 740 543 566
3 740 566 558
3 724 732 756
3 756 752 724
3 756 735 757
3 732 735 756
3 759 756 762
3 752 756 759
3 762 757 764
3 756 757 762
3 757 746 767
3 735 746 757
3 746 560 573
3 573 767 746
3 577 757 575
3 757 767 575
3 577 764 757
3 767 573 575
3 601 762 580
3 601 759 762
3 601 771 759
3 580 762 764
3 764 605 580
3 771 601 597
3 764 577 605
3 227 318 229
3 314 318 227
3 229 311 226
3 318 311 229
3 354 229 365
3 227 229 354
3 229 226 351
3 351 365 229
3 459 365 468
3 354 365 459
3 365 351 445
3 445 468 365
3 618 459 468
3 468 625 618
3 625 468 445
3 445 617 625
3 226 331 239
3 311 331 226
3 252 339 346
3 252 239 339
3 239 331 339
3 252 346 261
3 346 339 348
3 348 350 346
3 261 350 284
3 346 350 261
3 300 348 349
3 300 350 348
3 300 297 350
3 284 350 297
3 300 349 283
3 353 351 436
3 351 226 436
3 226 239 436
3 353 436 364
3 436 239 252
3 369 252 261
3 369 436 252
3 369 364 436
3 369 284 374
3 261 284 369
3 441 297 300
3 381 297 441
3 381 284 297
3 381 374 284
3 386 300 283
3 386 389 300
3 389 441 300
3 381 441 389
3 463 445 528
3 445 351 528
3 351 353 528
3 528 353 364
3 463 528 483
3 494 483 369
3 483 528 369
3 528 364 369
3 369 374 498
3 498 494 369
3 504 532 506
3 504 498 532
3 498 381 532
3 498 374 381
3 501 389 386
3 501 506 389
3 506 532 389
3 532 381 389
3 619 445 463
3 617 445 619
3 635 624 483
3 624 463 483
3 624 619 463
3 635 483 494
3 624 635 643
3 643 641 624
3 643 494 498
3 635 494 643
3 506 643 504
3 506 647 643
3 647 641 643
3 643 498 504
3 647 506 501
