ply
format ascii 1.0
element vertex 500
property float x
property float y
property float z
property float nx
property float ny
property float nz
element face 0
property list uchar int vertex_index
end_header
0.0146021 -0.112856 0.167267 -0.0659346 -0.00348332 0.997818
0.318306 0.441346 -0.0119502 0.922047 0.368809 -0.117513
-0.199349 -0.803984 0.0203284 -0.0542989 -0.995913 0.072173
-0.0603922 0.0840494 0.162154 -0.141083 0.0033143 0.989992
0.167361 -0.68531 -0.17695 0.178253 -0.000675453 -0.983985
-0.0509788 -0.0694889 -0.162973 -0.134017 0.00133224 -0.990978
0.0814831 -0.372981 0.169698 -0.0137173 0.00720556 0.99988
-0.152484 0.0310757 0.147293 -0.393241 -0.000597545 0.919435
-0.14954 -0.185757 0.147967 -0.389235 0.000188148 0.921138
0.175638 -0.787887 -0.175957 0.131924 -0.57648 -0.806391
0.269766 0.0857584 -0.0569215 0.961936 0.0722273 -0.263555
-0.235853 -0.223315 -0.087845 -0.830423 -0.000301869 -0.557134
-0.250806 0.13524 -0.023493 -0.988785 -0.0493045 -0.140975
0.233028 0.188075 0.155178 0.5711 -0.0580911 0.818823
-0.25095 -0.208643 0.0206201 -0.995564 0.000743593 0.0940788
0.127361 0.55052 0.167046 0.374483 0.420727 0.826288
0.320431 -0.616603 -0.0774241 0.913542 0.183759 -0.362868
0.212718 -0.38343 0.166214 0.46662 -0.0254048 0.884093
-0.228842 0.546383 -0.156032 -0.453007 0.0171448 -0.891342
-0.301905 0.577212 -0.039319 -0.98345 0.0988587 -0.15183
0.0897235 0.627952 0.119163 0.537873 0.557399 0.632455
0.00762654 0.161003 0.166931 -0.0642604 0.00430472 0.997924
-0.0276834 0.487428 -0.174993 0.00979555 -0.000947067 -0.999952
0.1244 -0.176124 0.170691 0.0875895 0.00736687 0.996129
0.0691495 0.195731 0.169387 -0.0178782 -9.73326e-05 0.99984
0.028446 0.158037 -0.167928 -0.0616546 -0.00306079 -0.998093
-0.23295 -0.388138 -0.0938487 -0.865965 0.00589277 -0.500069
0.0999173 -0.53702 0.172081 0.0254099 0.066458 0.997466
0.285174 -0.144253 0.0288123 0.995012 0.0194106 0.0978501
-0.311014 -0.776214 0.0369304 -0.860989 -0.470542 0.193099
0.291814 -0.810584 -0.134115 0.597781 -0.592037 -0.540509
-0.244171 -0.27722 0.0652728 -0.922638 -0.000273683 0.385667
0.258837 -0.5162 -0.101938 0.768694 0.132984 -0.625639
-0.0605396 -0.137355 -0.162078 -0.149582 0.000552041 -0.988749
0.192996 -0.745134 0.173655 0.247494 -0.347097 0.904583
0.195103 0.355655 -0.168461 0.281516 -0.000781413 -0.959556
0.0754426 0.935948 0.0603886 0.812106 -0.208308 0.545061
-0.000134669 -0.647832 -0.182979 -0.0315783 0.0709772 -0.996978
-0.149517 0.348061 0.148166 -0.245692 -0.111415 0.962924
-0.236646 0.0905451 -0.0866206 -0.827716 -0.00127104 -0.561146
-0.0727413 -0.41684 -0.160613 -0.160106 0.00613951 -0.987081
-0.0700984 0.418729 0.16125 -0.0767728 -0.0626881 0.995076
0.276793 -0.405555 0.0335425 0.991761 -0.0183181 0.126785
-0.251201 -0.0648756 -0.0141482 -0.98664 0.00071971 -0.162914
0.0243266 0.300842 -0.167738 -0.0540379 -0.00342346 -0.998533
-0.134635 -0.310715 0.151396 -0.364481 -0.000710059 0.931211
0.127146 -0.737346 0.180049 0.0847486 -0.340763 0.936322
0.17923 0.0690339 -0.169678 0.337408 0.038411 -0.940574
0.218999 0.146756 -0.165715 0.519257 -0.00618327 -0.854596
0.275731 -0.766501 0.146876 0.544787 -0.413053 0.729791
-0.159287 -0.802439 -0.0427902 0.0899038 -0.994125 -0.0602702
-0.231643 -0.813908 0.0828075 -0.42489 -0.818476 0.386737
-0.250875 -0.561644 0.0482972 -0.925458 0.26587 0.26989
0.323702 -0.697344 0.0584667 0.971498 -0.0406931 0.23353
-0.134852 0.983422 0.0548995 -0.664365 0.60935 0.432795
0.0160944 -0.298873 -0.167321 -0.0655439 0.000257562 -0.99785
0.222509 -0.837205 -0.163887 0.214609 -0.771471 -0.598979
0.27596 -0.00843109 0.0752039 0.944218 0.0524128 0.325124
0.00345011 0.3061 0.166704 -0.0688149 -0.0153594 0.997511
0.2938 0.42355 0.124471 0.776891 0.222757 0.588914
0.104758 0.308821 0.170315 0.0186584 -0.0161146 0.999696
-0.293593 0.626425 0.0630087 -0.923595 0.141855 0.356159
-0.231247 -0.387011 0.096574 -0.854979 0.00421085 0.518646
-0.038466 -0.771892 -0.182205 -0.027758 -0.570878 -0.820566
-0.126959 -0.536432 0.15297 -0.314413 0.137905 0.939216
-0.0237784 0.597371 0.171968 0.15771 0.178498 0.971219
0.25186 -0.274678 0.158304 0.708726 -0.0128815 0.705366
0.0946161 -0.799245 0.0555438 -0.04485 -0.997405 0.0563132
-0.250976 0.212552 0.0194519 -0.989776 -0.134578 0.0472528
0.145283 -0.00247936 -0.170815 0.179231 0.00126148 -0.983806
0.066193 -0.650853 -0.182315 0.0251197 0.0446028 -0.998689
-0.0742364 0.188302 -0.160776 -0.151695 -0.00193946 -0.988425
-0.105643 0.712822 -0.164422 -0.00252327 0.15542 -0.987845
0.244689 -0.565969 0.162284 0.587262 0.137522 0.797628
0.211349 0.29107 -0.166553 0.389832 -0.0759865 -0.917746
0.0936031 0.459116 0.177166 0.0696839 0.0857008 0.993881
0.00456881 0.817935 0.082995 0.714356 0.0789125 0.695319
-0.111318 -0.229988 -0.155639 -0.274896 -0.000432302 -0.961474
-0.00600868 1.0372 0.103881 -0.0704329 0.412602 0.908185
-0.133965 0.45512 0.163875 -0.149962 -0.0738266 0.985931
0.0864915 0.21972 -0.169868 0.0330652 0.00372642 -0.999446
0.254674 0.118123 0.112319 0.840024 0.0398488 0.541085
0.0091341 -0.54083 0.168754 -0.0452024 0.0811103 0.99568
-0.184115 -0.0359479 0.136058 -0.588335 -0.000722548 0.808617
-0.109983 0.127724 -0.155984 -0.275217 0.000809227 -0.961382
-0.00896894 -0.735737 0.182834 0.0162926 -0.299823 0.953856
-0.174537 0.117151 -0.140218 -0.479641 0.0010409 -0.877464
-0.241644 -0.720569 0.157009 -0.560439 -0.124263 0.81882
-0.223064 0.80957 0.110035 -0.666964 0.328451 0.668789
-0.23529 -0.45292 0.0894672 -0.855072 0.0753659 0.513003
-0.0286522 0.864535 0.118126 0.438543 0.0862485 0.894562
-0.248473 0.0603507 0.0442367 -0.955249 -0.00378733 0.295778
-0.0737167 0.235155 0.160861 -0.15475 -0.0037245 0.987947
-0.0723081 -0.485978 0.160603 -0.140048 0.0619172 0.988207
0.215876 0.12436 0.166205 0.475092 0.0261267 0.879548
-0.170289 0.95377 0.00555945 -0.774981 0.628977 0.0615884
-0.139895 -0.802021 0.0891142 -0.0451806 -0.914458 0.40215
0.059433 -0.837331 -0.179649 -0.0549277 -0.845492 -0.531155
0.268974 -0.509114 0.0374898 0.979274 0.16626 0.115671
0.129029 -0.316108 0.170769 0.0969833 -0.00458687 0.995275
-0.267208 0.781968 -0.0275471 -0.937065 0.321692 -0.135736
0.271568 -0.481208 -0.0307742 0.978064 0.149164 -0.145397
0.257019 0.498544 0.0699355 0.73374 0.596088 0.326043
-0.217701 0.706252 0.144549 -0.53069 0.157874 0.832733
0.0264512 -0.158286 -0.167796 -0.0581849 -0.000800072 -0.998306
0.088221 0.0839679 -0.169904 0.0220537 0.00705712 -0.999732
-0.0863114 -0.837194 0.176542 -0.00981838 -0.825863 0.563786
0.172827 -0.802855 0.0782979 -0.00560293 -0.967841 0.2515
-0.296226 0.649578 -0.0261592 -0.985482 0.151808 -0.0760238
-0.116129 -0.0526651 0.155016 -0.298421 -0.00153215 0.954433
0.164848 0.178149 0.170333 0.289102 -0.00448275 0.957288
-0.0944694 0.875371 -0.124258 -0.0740668 0.274755 -0.958657
-0.23561 -0.147501 0.088442 -0.877455 0.00275954 0.479651
-0.20018 0.90875 0.0725527 -0.702445 0.51888 0.48717
0.307606 0.446834 -0.0873185 0.818801 0.344172 -0.459468
-0.0266489 0.865487 -0.117717 0.390829 0.0995897 -0.91506
0.266259 -0.0284894 -0.117964 0.820688 0.0360298 -0.57024
-0.0235788 0.725022 -0.136187 0.421228 0.255178 -0.870317
0.00563311 -0.245432 0.166805 -0.0661682 0.00258179 0.997805
-0.10884 -0.687044 0.180167 -0.154113 0.0545886 0.986544
0.0461707 -0.831739 0.133146 0.0136785 -0.923657 0.382976
0.108345 0.627436 -0.097552 0.633133 0.600762 -0.488086
0.247391 -0.817406 0.0657621 0.37373 -0.875363 0.306701
0.0994192 0.15448 -0.170186 0.0677222 0.00424748 -0.997695
0.0133703 -0.0910017 -0.16721 -0.0610298 -0.000169914 -0.998136
-0.17242 0.106385 0.141016 -0.491492 0.00332205 0.870876
0.0782284 -0.327149 -0.169614 -0.0133121 -0.00192045 -0.99991
0.0416805 0.76694 0.0485386 0.910874 0.213571 0.353123
-0.17012 0.866962 0.126974 -0.452166 0.399158 0.797634
0.23849 0.524683 0.00950579 0.735757 0.676333 0.0351418
-0.297819 -0.836855 -0.0730708 -0.486864 -0.843205 -0.227965
0.0930877 -0.191146 -0.170002 0.000645453 0.0028506 -0.999996
0.260152 0.282131 0.149225 0.651638 -0.152926 0.742955
0.0302087 0.881984 -0.0875689 0.683953 -0.0672969 -0.726416
-0.246529 -0.0722379 0.0549253 -0.94265 0.00126607 0.333779
0.25971 0.173499 0.0639636 0.942085 -0.084054 0.324671
0.219365 -0.730405 -0.168971 0.416407 -0.238818 -0.877252
-0.275874 0.407235 -0.134547 -0.675112 -0.160654 -0.72001
0.320157 0.386767 0.0712807 0.935127 0.105637 0.3382
-0.236487 -0.0112068 0.0866301 -0.842202 0.00204361 0.539158
0.323666 -0.686406 -0.0584612 0.961396 0.0488879 -0.270791
-0.0631222 -0.16022 0.161843 -0.142955 0.000568964 0.989729
-0.179973 -0.370326 -0.137773 -0.569767 -0.00186993 -0.821804
0.323557 0.313423 0.0592834 0.937996 -0.224307 0.264291
0.317679 -0.757827 0.0878948 0.831457 -0.371187 0.4134
0.0985494 -0.624074 0.181254 0.0354697 0.0485815 0.998189
-0.0460624 -0.269424 -0.163374 -0.123871 -0.000931285 -0.992298
-0.218804 -0.810295 0.165268 -0.333899 -0.577537 0.744959
0.159727 0.452076 0.172933 0.25683 0.196809 0.946205
-0.257499 0.754138 0.0892431 -0.821004 0.263806 0.506319
0.211319 -0.383641 -0.166386 0.451112 -0.0285956 -0.892009
-0.0173785 1.12474 0.044229 -0.216969 0.87909 0.424413
0.245673 -0.451477 -0.154279 0.621591 0.0412579 -0.782255
-0.239588 -0.094451 -0.0793256 -0.88121 0.00204621 -0.472721
-0.186381 -0.15386 -0.135054 -0.576822 0.00118748 -0.816869
0.136803 -0.36407 -0.17077 0.151852 -0.00688389 -0.988379
0.0721267 0.894148 -0.0321282 0.892369 -0.221295 -0.393326
0.142193 -0.532164 -0.172387 0.127642 0.0571069 -0.990175
-0.285448 0.327472 0.0731155 -0.894819 -0.262518 0.361087
-0.0883288 -0.79934 0.03985 0.0238883 -0.998822 -0.0422303
-0.18271 0.770483 0.147438 -0.419557 0.235992 0.876516
0.265545 -0.383747 0.106386 0.865961 -0.0340606 0.498951
0.0320986 1.14591 -0.0421916 0.0932697 0.940146 -0.32776
0.285593 -0.316567 0.0022413 0.997906 -0.0567015 0.0311347
-0.294856 -0.779562 -0.107479 -0.739556 -0.430554 -0.517378
0.0266804 0.788422 -0.0886729 0.77619 0.122072 -0.618569
-0.0158565 -0.796322 0.0249442 0.00115097 -0.999204 -0.0398683
0.096603 0.66643 -0.0412817 0.750682 0.612805 -0.246873
-0.25141 -0.512483 -0.00963339 -0.984038 0.176907 -0.0193147
-0.196317 0.299809 0.130322 -0.44597 -0.151391 0.882152
-0.0192199 0.106653 -0.165356 -0.0882519 -0.00165471 -0.996097
-0.229011 0.364553 0.133229 -0.533296 -0.171741 0.828312
-0.0875704 -0.79925 -0.0332078 0.0503639 -0.998474 0.0226619
-0.310302 0.434097 -0.0340954 -0.969623 -0.0954275 -0.225223
-0.0301811 -0.468074 -0.164523 -0.0967092 0.03904 -0.994547
-0.0239888 0.801497 -0.134874 0.410246 0.156845 -0.898386
-0.0761942 0.955331 -0.113343 -0.227322 0.380443 -0.89643
0.31679 -0.62844 0.0911789 0.896519 0.196808 0.396888
-0.134273 -0.074203 -0.151555 -0.353489 2.5679e-05 -0.935439
-0.00744976 0.372849 -0.166103 -0.0618268 -0.0332316 -0.997534
-0.183079 0.410514 0.150925 -0.291762 -0.117964 0.949189
-0.205007 -0.312952 0.123978 -0.635739 -0.000490358 0.771904
0.269089 0.1111 0.0413768 0.982984 0.0602263 0.173539
0.139309 -0.0692485 -0.170778 0.146439 -0.000548268 -0.98922
-0.193837 0.443582 -0.160378 -0.357798 -0.10086 -0.928336
-0.301963 0.559257 0.0503103 -0.957402 0.086773 0.275411
0.238436 -0.828378 -0.0968234 0.282018 -0.906779 -0.313397
-0.0935229 0.473278 -0.168736 -0.0636298 -0.0601097 -0.996162
-0.0691774 -0.541017 -0.160956 -0.128107 0.103376 -0.986358
0.257106 -0.198843 -0.151219 0.739193 0.00198882 -0.67349
-0.22921 0.641004 -0.148061 -0.61378 0.133477 -0.778112
-0.209556 0.0245434 -0.120814 -0.614902 0.00240482 -0.7886
0.159141 -0.454503 -0.170426 0.211545 0.0189449 -0.977185
0.246236 -0.0419763 0.159805 0.639075 0.0284499 0.768618
-0.0756846 0.486157 0.172451 -0.0435208 -0.0365849 0.998382
0.027174 0.721429 -0.0867942 0.724663 0.366428 -0.583604
0.148664 -0.238888 0.170704 0.200573 -0.00503181 0.979666
0.186168 -0.484975 0.169152 0.332495 0.0401261 0.942251
0.0646267 0.98058 -0.0870372 0.616886 0.00220858 -0.78705
0.278445 -0.315741 -0.0702251 0.964443 -0.0425785 -0.26084
0.256157 0.135036 -0.100372 0.839985 0.0105934 -0.542506
-0.153012 -0.837536 0.176328 -0.127572 -0.781163 0.611154
0.0664715 -0.215472 0.169274 -0.0191743 0.00443479 0.999806
0.247569 0.234731 0.10391 0.74182 -0.145247 0.654681
-0.162371 -0.440392 -0.144335 -0.478116 0.0201864 -0.878065
-0.312221 0.375894 0.00845261 -0.98315 -0.182749 0.0043993
-0.308724 -0.837218 -0.00362324 -0.570214 -0.820722 0.0356449
0.196737 -0.803133 0.00875031 0.0373301 -0.999296 0.00363861
0.247552 0.237767 -0.113258 0.747758 -0.128171 -0.651484
0.147493 -0.404093 0.170671 0.216451 0.0028219 0.976289
0.175508 0.566643 0.0940661 0.597749 0.638386 0.484931
-0.248427 0.128026 0.0445962 -0.968109 -0.0285285 0.248901
-0.0547751 0.275191 -0.162728 -0.134555 -0.00667167 -0.990884
0.00270723 -0.220867 -0.166654 -0.0633373 0.000749238 -0.997992
-0.253768 0.724094 -0.109316 -0.721878 0.202805 -0.661636
0.286409 -0.562461 0.0900055 0.891079 0.20218 0.406326
-0.235566 0.176972 0.0884872 -0.846902 -0.0614624 0.528185
0.0489713 1.09629 -0.0871799 0.318053 0.61824 -0.718764
-0.0588603 1.07219 0.060309 -0.499563 0.726146 0.472387
-0.0282333 0.604855 -0.171588 0.162274 0.182375 -0.969746
-0.0245359 -0.837253 -0.182299 -0.0337977 -0.870267 -0.49142
0.274791 0.485249 -0.0398224 0.804017 0.532082 -0.265415
0.00717246 0.0941642 0.166907 -0.0643056 -0.00346234 0.997924
0.3184 -0.837461 -0.0793317 0.659345 -0.714312 -0.23457
-0.150926 0.00836407 -0.147658 -0.363758 0.00237351 -0.931491
-0.167044 0.658202 -0.164853 -0.24557 0.115936 -0.962421
0.203453 -0.505678 -0.167399 0.389038 0.059608 -0.919291
0.0517927 1.13206 0.0750129 0.169477 0.831609 0.52887
0.0749933 0.385743 -0.169569 0.0177242 0.0176849 -0.999686
0.0430886 -0.796837 -0.0295456 -0.0335272 -0.999411 0.00732163
0.193499 0.279992 0.168474 0.264273 -0.0598295 0.96259
0.0895978 0.593608 -0.153191 0.41144 0.430509 -0.803355
-0.310623 0.486037 0.0112353 -0.997406 0.0182314 0.0696282
-0.00570751 0.0238877 0.16619 -0.0703767 -0.00191335 0.997519
-0.0945529 0.778174 -0.158092 0.0920209 0.196682 -0.97614
0.301356 0.342269 0.12295 0.835177 -0.0522823 0.547491
0.251216 0.480849 0.14107 0.612137 0.428985 0.664274
0.000304911 0.662989 -0.153862 0.399312 0.300971 -0.866006
0.0625707 0.996873 0.0912036 0.539577 0.0378739 0.841084
0.00692007 0.228785 0.166894 -0.069059 0.00233699 0.99761
0.164693 0.602437 0.00308944 0.694025 0.719949 0.00126975
-0.0771405 0.408792 -0.160424 -0.0885187 -0.0704769 -0.993578
-0.171457 0.172995 0.141384 -0.491786 -0.0170798 0.870548
0.0401548 -0.0204248 -0.168372 -0.0381055 -0.00145493 -0.999273
0.283222 -0.0181218 0.0058415 0.998944 0.0445082 0.0114259
-0.242309 0.272522 0.072051 -0.823953 -0.223503 0.520718
-0.2507 0.0586589 -0.0250869 -0.989619 0.000263382 -0.143718
0.257006 0.238248 0.0318561 0.946076 -0.263993 0.187744
0.0331534 0.878228 0.0832668 0.735037 -0.131615 0.66513
0.327233 0.371078 0.00513832 0.999878 0.0154263 -0.00241579
0.287119 -0.592403 -0.13884 0.74825 0.143593 -0.647691
-0.0789903 0.638707 0.169642 0.0634277 0.124652 0.990171
-0.198065 -0.607121 0.157323 -0.496625 0.201114 0.844344
-0.306609 -0.715261 0.070305 -0.936671 0.082174 0.340432
-0.23482 -0.773028 -0.159663 -0.411723 -0.468649 -0.78157
0.233718 -0.131262 -0.162588 0.550517 0.0111771 -0.834749
-0.0763886 -0.803925 0.111368 0.00326441 -0.917451 0.397836
-0.107134 -0.477681 -0.156075 -0.286074 0.0495565 -0.956925
-0.231341 0.19002 -0.0963478 -0.784708 -0.0814587 -0.614489
-0.0186025 -0.837307 0.179445 0.0246379 -0.83523 0.549349
-0.0873481 0.843606 0.153566 -0.000705268 0.242359 0.970186
-0.17056 0.581175 -0.16892 -0.296193 0.0518903 -0.953717
-0.257029 0.303081 -0.0791977 -0.778109 -0.233121 -0.583268
0.235903 0.0138423 -0.162355 0.574484 0.0368709 -0.817685
-0.109464 -0.60139 -0.174348 -0.196437 0.131282 -0.971688
0.173123 -0.168283 -0.169895 0.303371 0.00903675 -0.95283
-0.244983 -0.161921 -0.0622468 -0.899898 -7.64943e-05 -0.4361
-0.29705 0.386974 0.102513 -0.803943 -0.17813 0.567403
-0.147686 -0.837432 -0.175691 -0.0756502 -0.768891 -0.634888
-0.236998 -0.0284497 -0.0858217 -0.830615 0.0015272 -0.556845
0.0871151 -0.800056 -0.105082 -0.0320654 -0.925981 -0.376207
0.289988 -0.558505 -0.0457563 0.950938 0.216858 -0.220656
-0.118359 0.251716 -0.154728 -0.243443 -0.0115081 -0.969847
0.0795083 0.0158039 0.16968 -0.0134346 -0.000630867 0.99991
-0.0536337 -0.000364639 -0.162763 -0.145352 0.00153795 -0.989379
0.280815 -0.0788936 0.0572431 0.960729 0.0276124 0.27611
0.26968 0.406042 -0.147039 0.639092 0.155015 -0.753347
0.174528 -0.0893392 0.169885 0.309988 0.00804464 0.950707
0.0235161 1.02996 -0.104542 0.239067 0.358871 -0.902252
0.265088 -0.454994 0.0880152 0.890405 0.0653201 0.450459
-0.25094 -0.00391118 0.0201325 -0.992601 0.00293266 0.121383
0.185648 0.517681 0.160555 0.40729 0.391045 0.825347
-0.293691 0.318318 -0.0216134 -0.937835 -0.274015 -0.21303
-0.0753272 0.0641212 -0.160572 -0.158801 0.00185936 -0.987309
0.181191 -0.83747 0.174044 0.0918771 -0.777221 0.622484
0.0772249 0.685571 0.0445244 0.790931 0.571742 0.218036
0.0108241 -0.0407017 0.167093 -0.0636054 -0.0013753 0.997974
-0.227427 -0.221287 0.102243 -0.807989 0.000353041 0.589198
0.268887 -0.144095 0.115938 0.820295 0.016276 0.571709
-0.1483 0.38861 -0.148462 -0.212154 -0.125626 -0.969128
0.124951 1.09056 0.045905 0.822026 0.445531 0.354647
0.202965 -0.583362 -0.172193 0.350267 0.0914044 -0.932179
-0.307796 0.371644 -0.0642679 -0.907236 -0.216381 -0.360697
-0.199363 0.267527 -0.12798 -0.550184 -0.129708 -0.824908
-0.280286 0.738535 0.0215091 -0.95788 0.258878 0.124294
0.195736 0.463389 -0.166538 0.356844 0.24734 -0.900825
-0.192462 0.802354 -0.136232 -0.50419 0.337009 -0.795121
0.102232 -0.258724 -0.170211 0.0218011 0.000696493 -0.999762
0.277425 0.00775432 -0.0578408 0.958588 0.0644327 -0.277412
0.192663 -0.163207 0.16869 0.398965 0.0091034 0.916921
-0.238767 -0.807195 -0.0378954 -0.454196 -0.879797 -0.140221
-0.187857 -0.681153 0.172113 -0.403574 0.11592 0.907574
0.195459 -0.24541 -0.168383 0.400321 -0.00192687 -0.916373
-0.276155 -0.614189 0.0876078 -0.866876 0.262114 0.424054
0.118491 -0.799739 -0.00746936 -0.0659796 -0.99747 0.026462
-0.197174 -0.104687 0.129078 -0.651134 -0.000852614 0.758963
0.124998 0.231999 0.170734 0.0881631 -0.0156843 0.995983
-0.311185 -0.767342 -0.0345035 -0.897292 -0.401945 -0.182505
-0.21343 0.91651 -0.0284427 -0.806026 0.575263 -0.139264
0.246102 0.0798425 -0.148405 0.69141 0.0625886 -0.719746
0.162489 -0.564468 0.176648 0.195684 0.0611786 0.978757
-0.192399 -0.833436 -0.123951 -0.121223 -0.897538 -0.423947
0.0545825 0.71801 -0.0159262 0.893496 0.44723 -0.0406148
0.293023 0.2766 -0.0244253 0.961208 -0.237538 -0.140196
-0.100602 0.582852 -0.172617 -0.0189694 0.0644701 -0.997739
-0.269514 -0.586699 -0.018334 -0.949641 0.292684 -0.111883
0.274208 -0.63582 0.147944 0.67443 0.118194 0.728817
0.214585 0.411794 0.167741 0.414073 0.166521 0.894882
-0.109434 0.763271 0.160781 0.0247476 0.201587 0.979158
0.267199 0.149146 -0.014952 0.996216 -0.0169909 -0.085232
0.278693 -0.193563 -0.0795465 0.91921 0.00316317 -0.393754
-0.00346805 0.218469 -0.166359 -0.0735856 0.000449831 -0.997289
0.06506 -0.70661 0.182296 0.0489168 -0.153047 0.987007
-0.179561 0.194295 -0.138192 -0.518722 -0.0188266 -0.854736
0.131325 1.08889 -0.0339518 0.849501 0.447006 -0.28024
-0.167082 0.553363 0.170835 -0.240966 0.00319691 0.970528
0.0913798 -0.446852 0.169939 0.0122932 0.0203592 0.999717
0.257491 0.216514 -0.0492035 0.927638 -0.150904 -0.341637
-0.173816 0.867217 -0.124805 -0.512576 0.417875 -0.750098
-0.075181 0.313733 0.160693 -0.133677 -0.0250367 0.990709
0.123372 -0.613917 -0.180214 0.0848271 0.0536432 -0.994951
0.300972 -0.699263 0.122206 0.788894 -0.000462102 0.614529
0.0392514 0.553297 0.173104 0.184384 0.220089 0.957895
0.265487 -0.440243 -0.0907519 0.918946 0.0326956 -0.393026
-0.0471483 1.02912 -0.0971939 -0.272319 0.438538 -0.856462
-0.28487 0.56384 -0.105187 -0.804604 0.069691 -0.589708
-0.229712 0.615789 0.151054 -0.569332 0.110906 0.814593
-0.223159 0.858911 -0.0790191 -0.761949 0.461822 -0.454042
0.0255025 0.0482047 -0.167794 -0.0619228 -0.000684098 -0.998081
0.306966 0.451282 0.0546529 0.856556 0.433175 0.280483
-0.061658 -0.557352 0.166741 -0.113505 0.0959754 0.988891
-0.131222 -0.118331 0.152158 -0.332827 0.00164591 0.942987
0.0792311 1.11871 0.00380766 0.492735 0.869252 0.0401679
-0.0799299 -0.416446 0.15972 -0.185149 0.0170757 0.982562
-0.282536 0.49583 0.12132 -0.753818 -0.0076392 0.657039
-0.0304849 1.12427 -0.0221188 -0.384036 0.903643 -0.189594
-0.216701 0.506474 0.162368 -0.432615 -0.034485 0.900919
-0.186519 -0.604591 -0.160201 -0.450725 0.194788 -0.871151
-0.167443 -0.303773 -0.142784 -0.503312 -0.0028642 -0.8641
-0.0717881 0.155254 0.16101 -0.167082 0.0020968 0.985941
0.286243 -0.222886 -0.0163104 0.99893 -0.00176263 -0.0462229
-0.269925 -0.719354 -0.141165 -0.684874 -0.10156 -0.721549
-0.115325 -0.601482 0.173688 -0.199201 0.137357 0.970285
0.0884115 0.103457 0.16991 -0.00261819 0.00240478 0.999994
-0.0419368 -0.798932 -0.101703 0.0117864 -0.921926 -0.387188
0.171523 0.52516 -0.163528 0.403358 0.405071 -0.8205
-0.279479 0.632077 -0.100717 -0.831587 0.135271 -0.538669
-0.0673591 -0.769051 0.181547 -0.0109447 -0.511751 0.859064
0.167837 0.567383 -0.105762 0.567096 0.579061 -0.585739
0.127574 -0.837407 -0.17815 0.0346527 -0.786808 -0.616224
-0.249978 -0.362511 -0.0311466 -0.991296 0.00102198 -0.131647
0.0982494 0.955018 -0.0187611 0.968132 -0.202897 -0.146809
-0.1398 -0.663683 -0.178138 -0.207502 0.0993465 -0.973177
-0.207434 0.229988 0.122222 -0.623764 -0.0972925 0.775534
0.0233405 0.714139 0.0988892 0.631719 0.365539 0.683603
0.0630864 -0.289636 0.169162 -0.0247069 -0.0042681 0.999686
0.24473 -0.452428 0.15665 0.614839 0.0418545 0.787542
0.163728 0.23658 -0.170319 0.287632 -0.0458641 -0.956642
0.247276 0.0582613 0.150595 0.681854 0.032717 0.730757
0.278182 -0.298001 0.077818 0.930266 -0.0387403 0.364835
0.0252339 0.437491 -0.167757 -0.0031307 0.00744777 -0.999967
-0.248078 -0.341215 0.0467173 -0.957936 -0.00309553 0.286966
-2.25132e-05 -0.35717 0.166489 -0.06926 0.00210439 0.997596
-0.257986 -0.837404 -0.14642 -0.429515 -0.6596 -0.616802
-0.303663 -0.705302 -0.0842945 -0.901013 0.101557 -0.421736
-0.199766 0.715191 -0.150851 -0.424244 0.179006 -0.887679
-0.241669 0.857404 0.0294171 -0.86852 0.440964 0.226328
0.203104 -0.620183 0.172282 0.372093 0.0835618 0.924426
0.291553 0.287972 -0.104758 0.790967 -0.171324 -0.587383
-0.226305 -0.4589 -0.104223 -0.806837 0.0677476 -0.586877
0.316626 -0.582986 0.0140218 0.972706 0.221646 0.0686702
-0.153513 0.505616 -0.174161 -0.163933 -0.0480721 -0.9853
-0.250234 -0.291151 -0.0294052 -0.973174 -0.00036558 -0.23007
-0.2242 0.0694328 0.10648 -0.766449 0.00192684 0.642303
-0.220217 -0.537006 0.112269 -0.714828 0.190406 0.672879
-0.00464626 -0.474872 0.166202 -0.0674319 0.048366 0.996551
0.222035 -0.0582492 -0.165074 0.509897 0.0131735 -0.860134
0.162323 -0.675421 0.177402 0.131171 -0.0135089 0.991268
-0.312746 -0.708286 -0.00187478 -0.996318 0.0828417 0.0220883
-0.303619 0.512893 -0.0638641 -0.944582 0.0391145 -0.325938
0.300595 -0.667525 -0.123572 0.748361 0.0642137 -0.660177
0.11566 0.389847 0.170545 0.0311877 0.00476389 0.999502
-0.254785 -0.594292 -0.104681 -0.732686 0.241875 -0.636135
0.246597 0.499488 -0.10166 0.676385 0.503184 -0.537875
-0.0202001 -0.583953 -0.177549 -0.0584025 0.0828523 -0.994849
0.141757 0.0638354 0.170862 0.13268 0.00865544 0.991121
-0.263898 0.473822 -0.141306 -0.620272 -0.0528765 -0.782602
-0.234526 -0.666073 -0.159827 -0.484676 0.181395 -0.855678
0.0204066 -0.71892 -0.182929 -0.0258987 -0.168531 -0.985356
-0.00744458 0.948665 -0.117553 0.245974 0.112722 -0.9627
0.281236 -0.737444 -0.14283 0.718617 -0.193096 -0.668059
-0.143476 -0.731386 -0.177765 -0.147371 -0.235093 -0.960736
0.308039 0.362343 -0.111239 0.810351 -0.0100428 -0.585858
0.0893033 -0.115312 0.169917 -0.00118743 -0.00195489 0.999997
0.314966 -0.837535 0.0940405 0.65475 -0.669213 0.351364
0.0950341 -0.421229 -0.170027 -0.00713829 0.0132148 -0.999887
0.317756 -0.750493 -0.0878457 0.859645 -0.293409 -0.418235
-0.172684 -0.399 0.140752 -0.529847 0.00881009 0.848047
0.228932 -0.644427 -0.16663 0.430242 0.0820762 -0.898974
0.0644689 -0.483448 -0.169191 -0.0137886 0.0403453 -0.999091
-0.21768 -0.538385 -0.114504 -0.724468 0.197946 -0.660275
0.246267 -0.836259 0.160913 0.316742 -0.742504 0.590222
-0.133914 0.983579 -0.0565123 -0.647051 0.609342 -0.458287
-0.15094 -0.540114 -0.147471 -0.380387 0.145128 -0.913369
-0.0699211 -0.661477 -0.18173 -0.0940486 0.0602507 -0.993743
-0.0739148 -0.3448 -0.160542 -0.15675 -0.00177505 -0.987637
-0.0749153 0.0173188 0.160603 -0.159584 -0.000919897 0.987184
0.133413 0.427313 -0.172727 0.139529 0.085558 -0.986515
0.227828 0.346467 0.164266 0.410689 -0.0426865 0.910776
-0.108078 -0.243977 0.156075 -0.23493 0.000402434 0.972012
-0.27194 0.681437 0.0963439 -0.829139 0.195028 0.52392
-0.163504 0.63238 0.167072 -0.28226 0.0907421 0.955037
-0.251193 -0.139715 0.0146945 -0.999091 0.00178481 0.0425871
-0.137794 0.262969 0.150925 -0.306547 -0.0592798 0.950008
0.325194 0.329364 -0.0499263 0.935094 -0.150375 -0.320917
-0.14125 0.701386 0.16421 -0.14686 0.155604 0.976842
0.252307 -0.197608 0.158153 0.688526 -0.00883888 0.725158
0.123834 -0.823471 0.127382 0.0198598 -0.885692 0.463848
-0.266105 0.562599 0.130757 -0.7085 0.0672934 0.702495
-0.296983 -0.775721 0.102491 -0.751561 -0.410505 0.516374
0.0581652 1.06496 0.0910783 0.341632 0.393538 0.853473
-0.253995 -0.643334 0.150524 -0.65208 0.228947 0.722755
0.327599 -0.781923 0.00461665 0.829278 -0.557331 0.0409858
0.0424329 0.787697 -0.0220442 0.972631 0.162207 -0.166365
-0.139289 -0.770315 0.178151 -0.168366 -0.501615 0.848549
-0.100137 0.564396 0.173852 -0.0527078 0.0235118 0.998333
0.110373 -0.0481575 0.170417 0.0546651 -0.00642001 0.998484
0.0035171 -0.798174 0.0946237 0.0266891 -0.976918 0.211942
-0.242478 0.793832 -0.0921849 -0.772672 0.334303 -0.539648
0.116872 1.01164 0.02391 0.979734 -0.0133758 0.199858
0.0139436 0.552694 -0.174059 0.158586 0.177523 -0.971255
-0.0114452 -0.60254 0.182876 -0.0472271 0.0792659 0.995734
0.0856379 -0.125125 -0.169829 -0.00905048 0.000141872 -0.999959
0.0220645 -0.810851 -0.118641 -0.0175548 -0.926427 -0.376064
-0.0883463 0.337893 -0.159119 -0.127135 -0.0513865 -0.990554
-0.301064 -0.636853 0.0157114 -0.956273 0.28087 0.0815713
-0.113883 -0.809631 -0.113385 -0.0296249 -0.901935 -0.430854
0.00088837 0.658246 0.156211 0.352104 0.321622 0.878966
-0.272254 -0.837298 0.134741 -0.513956 -0.709034 0.482825
0.254613 -0.291396 -0.157314 0.663309 -0.0195757 -0.748089
0.287316 -0.834051 -0.00827011 0.533086 -0.846028 0.00745789
-0.120817 1.02681 -0.00204169 -0.72789 0.669183 -0.149569
-0.0773808 0.650242 -0.168973 0.115003 0.147746 -0.982316
-0.25692 0.42867 0.148 -0.623811 -0.127112 0.771169
0.280201 -0.221646 0.0743773 0.955459 -0.0121563 0.294875
0.0477223 -0.775494 0.182618 0.0231032 -0.643511 0.765088
0.129627 0.624876 0.0625715 0.655461 0.659862 0.367359
0.0939019 0.321036 -0.170061 0.039149 -0.0171567 -0.999086
0.252412 -0.510644 0.124798 0.772457 0.13057 0.621499
-0.308783 0.430264 0.0514297 -0.96197 -0.0909369 0.257575
0.172532 0.00281663 0.17002 0.332878 0.00696435 0.942944
0.276616 0.0523498 0.00752121 0.995666 0.0771415 0.0519549
0.00814866 -0.667374 0.183015 0.00312154 0.00524401 0.999981
-0.0538655 -0.0815149 0.162715 -0.135626 -7.8743e-05 0.99076
0.00739075 -0.384307 -0.166926 -0.0719352 0.00498956 -0.997397
0.168856 -0.802564 -0.0672188 0.0208755 -0.97821 -0.206566
-0.0666787 1.07274 -0.049666 -0.5741 0.704357 -0.417481
0.0471537 0.841348 0.0294806 0.963212 -0.107292 0.246397
0.00674908 0.389914 0.166879 -0.0607364 -0.0401897 0.997344
-0.194772 -0.0572407 -0.130446 -0.607912 0.000831911 -0.794004
0.279259 -0.11365 -0.0703469 0.948874 0.0257686 -0.314602
0.0635191 -0.770489 -0.182353 -0.00946221 -0.535303 -0.844607
0.244046 -0.696696 0.162534 0.47391 -0.0419522 0.879573
-0.163827 0.321668 -0.143881 -0.342152 -0.125432 -0.931235
0.273705 -0.257 -0.103717 0.871951 -0.0135883 -0.489405
0.0137807 0.46579 0.171855 0.00376959 0.0327246 0.999457
0.0957796 1.04692 -0.0718453 0.780945 0.224498 -0.58286
-0.15985 -0.473079 0.144924 -0.444751 0.0659728 0.893221
0.196338 -0.31507 0.168224 0.408378 -0.0169906 0.912655
-0.050506 -0.289835 0.162985 -0.119819 0.000346491 0.992796
-0.225182 0.358492 -0.131017 -0.550975 -0.179029 -0.815092
-0.0369272 0.715035 0.148027 0.352635 0.220872 0.909321
0.00204227 0.958792 0.115735 0.300591 0.101084 0.948381
-0.181469 -0.235652 -0.137141 -0.545687 -0.000529225 -0.837989
0.276499 -0.388019 -0.0496754 0.977269 -0.0340437 -0.20925
0.268131 0.0575896 0.0822903 0.941293 0.0718486 0.329856
-0.248127 0.234906 -0.0453549 -0.902443 -0.187684 -0.387778
-0.0757042 1.01406 0.0901177 -0.399021 0.524816 0.751898
-0.306661 -0.837536 0.068155 -0.523064 -0.804191 0.282279
0.262638 -0.366674 -0.120944 0.796128 -0.0397106 -0.603824
0.0477977 -0.548265 -0.172496 -0.0168548 0.0701863 -0.997391
0.0896078 0.515775 -0.173198 0.208771 0.225046 -0.951719
-0.0379114 0.795277 0.140687 0.368422 0.149386 0.917578
-0.10483 0.947932 0.104683 -0.337016 0.438152 0.833332
-0.149515 0.922798 -0.0858985 -0.550501 0.504362 -0.665258
-0.178986 -0.249049 0.138173 -0.535228 0.0014276 0.844706
-0.231482 -0.313703 -0.0961674 -0.824033 -0.00233927 -0.566538
-0.28209 0.711329 -0.0482596 -0.941173 0.215751 -0.260085
-0.301067 -0.641304 -0.0555531 -0.928068 0.267578 -0.259019
0.203515 0.555336 -0.0502108 0.681111 0.686681 -0.254082
