ply
format ascii 1.0
element vertex 500
property float x
property float y
property float z
property float nx
property float ny
property float nz
element face 0
property list uchar int vertex_index
end_header
0.343187 0.811296 0.206817 -0.570373 0.729494 -0.377508
0.29537 0.707092 0.177284 -0.828171 0.482052 -0.285934
0.324267 0.864015 0.299953 -0.50617 0.820783 0.264778
0.412369 0.496472 0.210088 0.576967 -0.382245 0.721802
0.552445 -0.4773 -0.220977 0.817394 -0.295835 -0.494316
0.61469 -0.0182315 -0.115738 0.51936 0.245304 -0.818591
0.210152 -0.138371 0.065585 0.0508214 0.10401 0.993277
0.274456 -0.805226 -0.00350579 0.311666 -0.737559 0.599059
0.36711 0.122876 -0.149764 0.599523 0.342798 -0.72323
0.0502836 0.93896 0.190713 0.184337 0.657106 -0.730911
0.33459 -0.515835 0.130861 0.207879 -0.105616 0.972436
0.147265 -0.262923 -0.35622 0.0187988 0.256642 -0.966324
0.131631 0.862715 0.222731 0.964885 0.179418 -0.191849
-0.00156731 0.236271 0.0985573 0.192668 -0.123919 0.973408
-0.175998 -0.745613 -0.48532 -0.133032 -0.456443 -0.879751
-0.181002 -0.487026 -0.398179 -0.216793 0.404436 -0.8885
0.0359256 0.626249 0.019694 0.328461 0.384216 -0.862839
0.474609 0.543296 0.15423 0.976739 -0.160897 0.141751
0.0212635 0.0337019 0.0794493 0.107134 -0.119238 0.987069
-0.0696377 -0.247841 -0.338402 -0.173712 0.277873 -0.944781
-0.263621 -0.283423 0.104386 0.214808 -0.106204 0.970865
-0.30445 -0.192384 0.125872 0.205565 -0.142867 0.968159
0.336902 -0.723947 0.042586 0.374043 -0.596809 0.709867
0.253217 -0.01315 -0.277626 0.252599 0.369821 -0.894106
-0.663543 0.327665 0.251844 -0.814146 -0.306018 0.493476
-0.26757 -0.58368 0.101265 0.0489279 -0.109458 0.992786
0.00485116 0.420816 -0.0826247 0.033491 0.405619 -0.913429
-0.306488 0.88783 0.288771 -0.233565 0.970587 -0.0583778
0.622589 0.191231 -0.0206038 0.30451 0.803524 -0.511492
-0.0408323 -0.799058 0.0247079 0.0284382 -0.596936 0.801785
0.0127372 0.50663 0.208359 0.295863 -0.361356 0.884244
0.29343 0.756607 0.257448 -0.936823 0.324434 0.130786
-0.331233 -0.48885 0.108548 -0.00496896 -0.111313 0.993773
-0.649116 0.285096 0.0817593 -0.821408 0.197011 -0.535235
-0.0616228 0.902418 0.30801 -0.785506 0.360937 0.502697
0.334014 0.0553577 -0.216579 0.453824 0.360074 -0.815101
0.231482 0.231526 -0.175669 0.0418571 0.517493 -0.854663
0.358586 0.0928794 0.0477735 0.248944 -0.0156984 0.968391
-0.215927 -0.0697486 0.12529 0.253531 -0.145861 0.956267
-0.00463027 -0.8681 -0.18069 -0.026216 -0.98771 -0.154084
-0.203058 -0.723429 0.0731344 0.0336904 -0.309807 0.950202
0.125734 0.575794 0.128908 0.915883 0.311372 0.253387
-0.139667 -0.557607 -0.446549 -0.145227 0.358039 -0.922343
0.368711 -0.519891 -0.352081 0.453719 -0.103098 -0.885161
-0.413905 -0.637237 -0.357645 -0.691603 0.0736118 -0.718517
0.212088 -0.183232 -0.33094 0.108936 0.297631 -0.948445
0.397468 0.316705 -0.0703504 0.687118 0.242167 -0.684999
-0.606677 -0.270071 0.00420849 -0.993431 -0.0694397 0.090958
-0.384247 0.408039 0.166424 -0.890599 0.354638 0.28472
0.101163 -0.63844 -0.461909 0.23448 0.00743702 -0.972092
0.317621 -0.172674 0.0548824 0.0410999 0.191467 0.980638
-0.39668 -0.809921 -0.0191368 -0.497722 -0.668604 0.552487
-0.38156 0.505294 0.13785 -0.922942 0.217916 -0.317318
-0.341001 0.084057 0.152208 0.0517105 -0.0018817 0.99866
0.101163 0.428013 0.132229 0.338371 -0.099514 0.935736
0.352577 -0.607473 -0.341153 0.543893 -0.1901 -0.817339
0.358917 0.00771585 0.0202525 0.158639 0.124874 0.979408
-0.092415 -0.725354 0.055237 0.0258905 -0.30357 0.952457
0.356649 -0.270618 0.0667807 0.0929377 0.163952 0.982081
-0.14706 -0.217409 0.0739293 0.203702 -0.0889457 0.974984
0.291648 0.506166 -0.0172457 -0.256904 0.577625 -0.774822
0.45046 0.446511 0.135341 0.922177 -0.227598 0.312713
-0.677644 0.299902 0.168233 -0.996914 -0.0652423 -0.0436621
-0.486018 0.274629 0.0762593 -0.221075 0.867111 -0.446367
-0.564746 0.0415899 -0.0427915 -0.697369 0.2037 -0.687155
-0.301192 0.164436 -0.0862386 -0.396196 0.460642 -0.794253
0.396338 0.0384306 -0.102073 0.630516 0.477925 -0.611586
0.127221 0.153467 0.0938322 0.0275598 -0.069801 0.99718
-0.106981 -0.533078 0.0628754 0.0518332 -0.000776182 0.998655
-0.106003 0.515398 0.0355011 -0.319982 0.418417 -0.850023
0.14414 -0.205911 0.0799833 -0.047657 0.128541 0.990558
0.0128805 0.413626 0.190187 0.184504 -0.335646 0.923742
0.0982055 -0.339258 -0.37881 0.00715067 0.252645 -0.967533
-0.636434 0.121743 0.130588 -0.946523 -0.180453 0.267452
0.234322 -0.751803 -0.407329 0.443699 -0.428842 -0.786909
-0.0238238 0.732953 0.297664 -0.110849 -0.128358 0.985513
-0.185574 0.257986 0.150092 0.202206 -0.156739 0.966719
0.396475 0.114211 -0.0337412 0.906989 0.412404 -0.0854004
-0.324422 -0.863278 -0.0252893 -0.294211 -0.831865 0.470574
-0.185332 0.380669 0.190783 0.174533 -0.267953 0.947491
0.262979 -0.457902 -0.390886 0.245058 0.0895675 -0.965362
-0.553195 0.541374 0.339867 0.381658 0.765211 0.51845
-0.294332 -0.0904253 -0.211236 -0.399356 0.332683 -0.854305
-0.108189 -0.833341 -0.264799 -0.0391059 -0.946315 -0.320873
-0.609965 0.384494 0.306164 -0.166539 0.143092 0.975597
-0.211486 0.817844 0.31887 0.0056644 0.82626 0.563261
0.395354 0.650546 0.292399 0.110978 -0.450268 0.88597
-0.00146918 -0.441845 0.061808 -0.110472 0.0436081 0.992922
0.5035 -0.394182 -0.292953 0.613956 -0.0092721 -0.789286
0.232913 -0.872392 -0.223233 0.295649 -0.92979 -0.219278
-0.371274 0.804152 0.267177 -0.661341 0.74999 0.0119436
0.396941 0.180475 0.0261841 0.833008 0.0686086 0.54899
0.502523 -0.131261 -0.162163 0.501664 0.385594 -0.774371
-0.696057 0.448103 0.231027 -0.74976 0.657629 0.073376
-0.278405 -0.798161 0.0423024 -0.171826 -0.581143 0.795455
0.027363 0.537004 -0.019292 0.214095 0.409288 -0.886931
-0.114937 0.351876 -0.0565507 -0.253149 0.461093 -0.850476
0.417591 -0.76839 -0.168366 0.708748 -0.696197 -0.113955
-0.221253 0.461886 0.245008 0.0996834 -0.360683 0.927346
-0.13989 -0.448953 0.0677171 0.10748 0.00852925 0.994171
-0.0726394 0.799398 0.245996 -0.669433 0.627266 0.39799
0.250132 0.543508 0.0650977 -0.4597 0.776238 -0.431429
0.0883326 -0.180569 -0.339074 -0.0328268 0.281655 -0.958954
-0.210846 0.15054 -0.116707 -0.371371 0.48319 -0.792849
-0.425022 -0.515406 0.103201 -0.325206 -0.219225 0.919881
-0.228858 -0.472223 0.0896886 0.150666 -0.0279448 0.98819
-0.380114 0.143145 -0.0162273 -0.35083 0.464823 -0.812932
0.559653 0.136104 0.153812 -0.289427 0.367308 0.883921
-0.623361 0.2064 0.0297412 -0.825875 0.140074 -0.546177
-0.265664 0.26757 0.20094 -0.00901458 -0.222574 0.974874
-0.0278294 -0.0499073 0.0679139 0.135345 -0.139505 0.980928
-0.445298 -0.0386234 0.166647 -0.12295 -0.0475771 0.991272
0.0410073 -0.498787 -0.42615 0.0641971 0.3028 -0.95089
-0.0899904 -0.477248 -0.418647 -0.105047 0.384338 -0.917196
0.0486378 0.260229 -0.114545 -0.0207042 0.526282 -0.850058
0.10524 -0.00464542 -0.284147 0.00583795 0.385424 -0.922721
-0.618958 0.366525 0.10408 -0.487802 0.598866 -0.635145
-0.0795998 -0.369733 -0.377027 -0.141758 0.328929 -0.933654
0.279515 -0.268579 0.111443 0.0266597 0.220956 0.974919
-0.538808 0.360558 0.248439 0.598918 0.198755 0.775754
0.189327 -0.528766 0.128608 -0.118621 -0.0619285 0.991007
0.432976 0.74906 0.159475 0.443586 0.52327 -0.727613
-0.37545 -0.737928 0.0504806 -0.401001 -0.462112 0.790981
-0.00291613 -0.734177 -0.50198 0.0736769 -0.393256 -0.916472
-0.30477 0.676929 0.160777 -0.561802 0.374089 -0.737859
0.491572 0.782871 0.231868 0.873519 0.456519 -0.168981
-0.450372 -0.691705 0.0282436 -0.628156 -0.428674 0.649353
-0.468653 -0.383357 -0.2269 -0.658822 0.198198 -0.725721
0.537814 -0.589886 -0.0423199 0.818141 -0.472075 0.328313
0.34462 0.222608 -0.147472 0.496666 0.352265 -0.793241
-0.34696 -0.687062 -0.441689 -0.503006 -0.097948 -0.858715
0.039784 -0.20982 0.0585491 -0.0596299 0.0513543 0.996899
-0.602845 0.11347 -0.00471953 -0.853443 0.0854182 -0.514138
0.294592 0.139991 -0.210423 0.292551 0.410784 -0.863522
0.417384 -0.209248 0.0379084 0.0889052 0.10533 0.990455
-0.537338 -0.571442 -0.144558 -0.971918 -0.157359 -0.174966
0.173762 0.161603 -0.202154 0.0306356 0.511026 -0.859019
0.351059 -0.690167 -0.304235 0.633421 -0.389811 -0.66845
0.120068 -0.368148 0.0984392 -0.177237 0.124802 0.976223
-0.57707 -0.0991073 0.121365 -0.790462 -0.0916872 0.605609
-0.0347202 0.933112 0.221772 -0.686195 0.598995 -0.412724
-0.352515 0.939044 0.34998 -0.465515 0.882346 0.0690101
-0.333298 -0.860346 -0.162852 -0.31554 -0.947432 -0.0529827
-0.287986 0.176053 0.155661 0.0136509 -0.0801616 0.996688
-0.11571 0.394275 0.100068 -0.219199 0.117857 0.968536
-0.0419681 0.156956 -0.200887 -0.102576 0.51876 -0.848744
0.0698769 -0.846177 -0.255378 -0.0222826 -0.951009 -0.308359
0.0920901 0.407289 0.000172035 0.415441 0.530612 -0.738823
-0.0384282 -0.562868 -0.453657 0.016676 0.324446 -0.945757
-0.519733 0.0932077 0.164078 -0.384856 -0.123514 0.914675
-0.349244 -0.827281 -0.255181 -0.360621 -0.866788 -0.344429
-0.292314 0.364555 0.231352 -0.258965 -0.256333 0.931252
-0.462929 -0.794153 -0.120452 -0.761266 -0.635707 0.127873
0.636379 -0.272418 -0.0115257 0.844674 -0.176252 0.505432
-0.277135 0.719525 0.37569 -0.133259 0.162489 0.97767
-0.247706 -0.149748 -0.259577 -0.349352 0.283629 -0.893033
-0.395787 -0.180766 0.154287 0.0078449 -0.143506 0.989618
-0.245321 0.0402737 -0.189816 -0.389568 0.412606 -0.823403
-0.0913088 0.223659 0.102605 0.230283 -0.125318 0.965021
0.0692459 0.335716 -0.0688112 0.0826426 0.484537 -0.870858
0.185818 0.266033 -0.104445 -0.0174722 0.53189 -0.846633
0.248457 -0.837576 -0.309894 0.383975 -0.785962 -0.484589
0.058246 -0.798967 0.0298022 0.00444165 -0.605766 0.79563
0.349388 -0.3374 -0.3641 0.294075 0.170971 -0.940366
0.263159 -0.578801 0.126882 0.0784935 -0.197577 0.97714
-0.407537 -0.754005 -0.408227 -0.606306 -0.393086 -0.691286
-0.502879 -0.0398416 -0.0876335 -0.621102 0.264714 -0.737671
0.379014 0.417936 0.183047 0.486837 -0.383779 0.784668
-0.393511 0.851281 0.360297 -0.678197 0.636022 0.368137
-0.154793 -0.784912 -0.395987 -0.0870285 -0.814313 -0.573864
0.252842 -0.104358 -0.296666 0.236667 0.351714 -0.905696
0.525669 -0.0334678 -0.122502 0.445772 0.379915 -0.810526
-0.365093 0.224969 0.127954 -0.310238 0.187828 0.931919
0.42846 0.277923 0.0274084 0.967443 -0.138191 0.21203
0.638117 0.271213 0.0180178 0.22912 0.928647 -0.291752
-0.0550718 0.592962 0.0149559 -0.173946 0.42652 -0.887594
0.0457388 0.774859 0.0966094 0.295779 0.457554 -0.838546
-0.00785025 0.842472 0.349799 -0.247048 -0.0805571 0.965649
0.347223 0.686129 0.103132 -0.289793 0.630479 -0.720081
0.474727 0.776855 0.348949 0.677278 0.17641 0.714265
0.445985 -0.229552 -0.282007 0.448012 0.365224 -0.816025
0.477826 0.00214587 0.0668982 -0.365457 0.0529509 0.929321
0.489017 -0.376415 0.0726761 0.421464 -0.0465052 0.905652
0.557718 0.0296229 0.151701 -0.130499 -0.192518 0.972577
-0.252689 0.534846 0.290761 0.0430759 -0.419465 0.906749
0.110805 -0.125329 0.0565685 -0.00230222 0.0066704 0.999975
0.633889 0.100859 -0.0514638 0.552895 0.313582 -0.771993
0.0178119 -0.635408 0.0748285 -0.103434 -0.136094 0.985282
-0.368809 0.374822 0.0577821 -0.694315 0.516568 -0.501082
0.430281 0.469097 0.0109144 0.745199 0.250857 -0.617858
0.46311 -0.712912 -0.0854556 0.765505 -0.627388 0.142779
0.634985 -0.381543 -0.0724113 0.962021 -0.220684 0.160667
0.332276 0.25625 0.130999 0.281574 -0.335112 0.89912
-0.240617 -0.891111 -0.0850037 -0.0921647 -0.965043 0.245354
0.442645 -0.488905 0.100772 0.437347 -0.136362 0.888894
0.0443986 0.589191 0.24166 0.457615 -0.365365 0.810615
0.431949 -0.308508 -0.32828 0.423017 0.191495 -0.885656
-0.504236 -0.472163 -0.213265 -0.814165 0.0738751 -0.575915
-0.601587 0.441032 0.159836 -0.113478 0.909282 -0.400412
-0.0966231 -0.122093 -0.301614 -0.210502 0.276767 -0.937597
-0.0812425 0.0779773 -0.244386 -0.182931 0.44897 -0.874621
0.129228 0.717073 0.163178 0.961626 0.124649 -0.244414
-0.0997834 -0.363875 0.0620319 0.0662218 0.0128125 0.997723
0.348157 -0.837938 -0.163428 0.567764 -0.821264 -0.0562993
0.527721 -0.575559 -0.182888 0.82533 -0.443257 -0.349791
-0.271405 -0.737466 -0.480662 -0.309566 -0.420201 -0.852994
-0.575943 0.248772 0.216741 -0.266802 -0.305848 0.913933
0.3278 0.311883 -0.127482 0.260459 0.432297 -0.863296
0.268183 -0.860961 -0.102306 0.337483 -0.914145 0.224598
-0.313992 0.345277 -0.0129514 -0.439534 0.469224 -0.765924
-0.495593 -0.287477 0.128755 -0.458907 -0.1873 0.868518
-0.494877 -0.694297 -0.0568479 -0.851135 -0.429995 0.30112
-0.302213 -0.406059 -0.327815 -0.365361 0.347346 -0.863633
0.612655 -0.423124 -0.174536 0.920162 -0.213291 -0.328344
-0.211998 0.614834 0.291209 0.171301 -0.3523 0.920077
-0.309058 0.75731 0.209716 -0.546386 0.700448 -0.459167
0.324062 -0.077307 0.0113162 0.0506285 0.0680461 0.996397
-0.302814 0.249716 -0.0551245 -0.362049 0.440428 -0.82155
0.0167211 -0.303487 0.0591227 -0.0899608 0.0526838 0.994551
0.483769 0.711719 0.28785 0.899605 -0.159721 0.406448
-0.293057 0.595088 0.113277 -0.536236 0.374683 -0.756349
0.150379 -0.794547 -0.40695 0.257793 -0.657178 -0.70828
0.38592 -0.0208787 -0.171284 0.499051 0.391352 -0.77317
0.3829 0.566466 0.0218792 0.294487 0.495766 -0.817003
-0.445899 -0.180471 -0.170921 -0.555167 0.272612 -0.785794
-0.389104 -0.32963 0.124973 0.00161369 -0.148101 0.988971
0.439234 0.659131 0.108629 0.663807 0.359892 -0.655621
0.475814 -0.651666 -0.192897 0.788835 -0.496918 -0.36168
0.324793 0.343992 0.167828 0.192608 -0.37636 0.906232
0.587855 -0.36228 0.0194435 0.749501 -0.175965 0.638188
0.188473 -0.643596 0.111663 -0.0221903 -0.283419 0.958739
0.207631 -0.360472 -0.37846 0.0879468 0.199135 -0.976018
-0.372992 0.697019 0.226061 -0.895505 0.224183 -0.384464
-0.410396 -0.260334 -0.217946 -0.495055 0.273925 -0.824552
0.0500984 -0.868239 -0.0325099 0.0230248 -0.89234 0.450776
0.295488 0.463954 0.18659 -0.406022 -0.139796 0.903107
-0.0470896 0.333693 -0.114966 -0.0601253 0.463177 -0.884224
0.62983 -0.330712 -0.14864 0.952116 -0.0775691 -0.295733
-0.142095 0.0341854 0.131946 0.243941 -0.116763 0.962735
0.108135 0.666356 0.0911786 0.831287 0.213069 -0.513385
-0.376844 -0.603429 0.0983112 -0.246014 -0.247111 0.937237
-0.625215 0.0416113 0.0909104 -0.974071 -0.0855759 0.209434
0.71943 0.111695 0.136818 0.809753 0.212094 0.547098
0.238117 -0.376606 0.126839 -0.00110756 0.171087 0.985255
-0.00614398 -0.545761 0.0663471 -0.112848 -0.0244855 0.99331
-0.0765253 0.311463 0.126207 0.243033 -0.224066 0.943785
-0.25082 -0.548323 -0.413391 -0.303342 0.38914 -0.869801
0.214238 0.0706384 0.095188 0.108164 -0.124144 0.986351
0.220737 0.325694 0.124399 -0.152527 -0.185177 0.970796
0.172261 0.271816 0.0320435 -0.311015 0.319786 0.89499
0.0567515 0.892321 0.388185 0.262902 0.0390007 0.964034
0.258631 0.590577 0.161103 -0.832427 0.486552 0.265203
0.0490668 0.781059 0.316411 0.463 -0.292297 0.836776
0.0854319 1.08345 0.316216 0.399833 0.916112 0.0295356
0.538559 -0.165584 0.0895577 0.211235 -0.160798 0.964118
-0.183078 -0.868796 -0.157151 -0.0462726 -0.992556 -0.112658
-0.0219245 0.834568 0.147784 -0.216626 0.603216 -0.767596
-0.0815237 0.660968 0.0961602 -0.331994 0.435562 -0.836699
-0.409708 -0.800089 -0.329344 -0.637637 -0.558367 -0.530702
0.490311 0.130592 0.00294335 -0.0639003 0.997042 -0.042711
-0.0726804 0.7444 0.146507 -0.434145 0.692896 -0.575685
-0.56339 -0.00922007 0.133326 -0.732027 -0.0769886 0.676911
-0.222234 -0.165236 0.102682 0.261004 -0.144474 0.954465
-0.39153 -0.417448 -0.289578 -0.525193 0.285231 -0.801758
-0.00817259 1.07705 0.324109 -0.350106 0.914389 0.203271
0.531195 -0.481002 0.0350523 0.671101 -0.251554 0.697383
-0.179214 0.10224 -0.189559 -0.303545 0.458384 -0.835311
0.434322 -0.0606681 0.01913 -0.140764 0.0798646 0.986817
0.499318 0.107599 0.0904217 -0.603252 0.389305 0.696081
-0.0937033 -0.86938 -0.164941 -0.0282419 -0.995896 -0.0859831
-0.452098 0.137111 0.124568 -0.0975967 0.140752 0.985223
0.00719589 -0.635502 -0.481064 0.0930673 0.081782 -0.992295
0.651163 0.0292298 0.161067 0.452062 -0.22099 0.864178
0.0858856 -0.761851 -0.468621 0.170062 -0.493625 -0.852885
-0.353463 0.764519 0.38717 -0.458576 0.275 0.845035
-0.423629 -0.841695 -0.205406 -0.631629 -0.757115 -0.166798
0.108808 -0.0880978 -0.317272 0.00852305 0.321908 -0.946733
0.0237887 0.0739968 -0.23406 -0.0766714 0.466704 -0.881084
0.0307378 -0.271911 -0.356264 -0.0727965 0.26702 -0.960938
-0.363374 -0.16297 -0.208487 -0.427153 0.307262 -0.850371
-0.0513298 -0.23325 0.052973 0.0590936 -0.0175618 0.998098
0.484142 -0.50393 -0.276303 0.663007 -0.254531 -0.704014
-0.315582 0.626582 0.330975 -0.515544 -0.310273 0.798714
-0.174228 0.469294 0.15982 0.254345 -0.12798 0.958608
0.69364 -0.0689311 0.0215584 0.941393 -0.28004 0.188032
-0.546245 -0.354578 -0.148914 -0.839439 0.0887011 -0.536166
-0.675718 0.450026 0.341211 -0.325712 0.336352 0.883617
-0.0989594 0.574377 0.16256 -0.585742 -0.261172 0.767265
-0.130182 0.319748 0.0472514 -0.450084 0.835179 -0.31607
-0.337482 0.0765132 -0.10986 -0.39676 0.43338 -0.809174
0.656714 -0.18326 0.00987438 0.874251 -0.241824 0.420959
0.451308 0.913487 0.393714 0.314275 0.820464 0.477567
0.359618 -0.243434 -0.340053 0.297071 0.306479 -0.904334
-0.318649 0.473221 0.262993 -0.529926 -0.307096 0.790487
0.105574 0.0665537 0.0952999 0.0869682 -0.0805458 0.99295
0.396309 -0.604139 0.0848411 0.43477 -0.340222 0.833801
-0.257941 0.944437 0.344057 0.378479 0.918441 0.114977
0.425176 0.348247 0.121311 0.818715 -0.325692 0.472896
0.274886 0.000797744 0.0620903 0.16439 -0.0715391 0.983798
-0.16639 -0.618527 0.079092 0.0788019 -0.0977252 0.992089
-0.623969 0.512375 0.214183 -0.140525 0.988301 0.0592773
-0.486903 -0.290422 -0.182697 -0.643934 0.216915 -0.733687
-0.688271 0.526744 0.275477 -0.484016 0.809566 0.33216
-0.376929 0.607903 0.180804 -0.9306 0.15353 -0.332284
-0.28014 -0.262112 -0.27781 -0.353469 0.30753 -0.883451
-0.222605 -0.38155 0.0849957 0.192508 -0.0311903 0.9808
0.588358 -0.482485 -0.0393067 0.867126 -0.324003 0.378304
-0.176485 -0.401321 -0.354955 -0.228585 0.368029 -0.901279
-0.551599 0.258027 0.0118188 -0.401652 0.398287 -0.824647
-0.542711 0.477567 0.229756 0.325805 0.864557 0.382612
0.425377 -0.581146 -0.288285 0.62425 -0.279872 -0.729372
0.477606 -0.585939 0.0364664 0.644227 -0.374868 0.666668
0.0938089 0.242922 -0.0349581 0.0981533 0.894203 -0.436769
-0.585447 0.459547 0.355762 0.244272 0.404728 0.881207
0.369802 -0.794014 -0.0543516 0.561159 -0.767354 0.31027
0.0284868 -0.791045 -0.402165 0.0486224 -0.748261 -0.66162
-0.122888 -0.898632 -0.078725 -0.00957372 -0.98698 0.160559
-0.213739 0.509669 0.0847183 -0.344684 0.442229 -0.828026
0.41235 -0.700266 -0.236275 0.737725 -0.500597 -0.452951
0.0983603 -0.580593 0.105337 -0.168438 -0.0854598 0.982001
0.00379266 1.01684 0.25926 -0.219996 0.968251 -0.118706
0.52569 -0.275234 0.0620357 0.44662 -0.085829 0.890597
0.0728844 -0.0415739 0.0693429 0.0469007 -0.101908 0.993688
-0.408197 0.0131411 -0.107563 -0.426694 0.371744 -0.824463
0.16208 -0.714725 -0.458039 0.3239 -0.300679 -0.89704
0.455738 0.540162 0.0671805 0.873846 0.182381 -0.4507
0.0757387 0.849413 0.153766 0.505207 0.436132 -0.744684
0.210283 -0.7265 0.0769373 0.095166 -0.501827 0.859717
-0.0787063 -0.63676 0.0604871 -0.00391927 -0.104279 0.99454
0.504083 -0.300723 -0.271477 0.588805 0.19631 -0.784073
0.399013 0.723472 0.352466 0.120006 -0.123098 0.985112
0.435663 0.368378 0.00739913 0.928554 0.0413132 -0.368891
0.104528 -0.819926 -0.334784 0.0992384 -0.868741 -0.485222
0.427885 -0.14918 -0.227103 0.450548 0.423386 -0.785971
0.54641 -0.22697 -0.211149 0.655258 0.279028 -0.701983
-0.181677 -0.812739 -0.31376 -0.0700026 -0.930643 -0.359171
-0.48932 -0.789313 -0.24626 -0.80192 -0.522884 -0.288992
-0.18998 0.426125 0.0608396 -0.366396 0.546008 -0.753412
0.119933 0.977437 0.246397 0.726972 0.63394 -0.26388
0.313731 0.609096 0.060647 -0.317834 0.632517 -0.706331
-0.332844 -0.0029078 -0.152828 -0.426605 0.394249 -0.813988
-0.0614921 -0.00462685 -0.274902 -0.16257 0.37735 -0.91169
-0.158793 0.00108804 -0.25231 -0.289862 0.371054 -0.882213
-0.495045 -0.164506 0.159888 -0.38619 -0.122503 0.914248
-0.0663997 0.478016 -0.0396497 -0.16601 0.403914 -0.899608
-0.663693 0.541442 0.381501 -0.427784 0.595802 0.679721
0.4884 0.666973 0.193679 0.98881 0.0526267 -0.139589
-0.47974 -0.696854 -0.271136 -0.879044 -0.210737 -0.427635
-0.225661 -0.338727 -0.313584 -0.292137 0.330426 -0.897482
-0.213012 0.29007 -0.0290981 -0.365569 0.439874 -0.820287
-0.0876871 -0.134978 0.0627601 0.170055 -0.116741 0.978495
-0.0731989 0.488811 0.182205 0.157592 -0.360757 0.919249
-0.0108124 0.709693 0.0640688 0.0424485 0.466894 -0.883294
-0.154983 0.154285 0.136297 0.215187 -0.101011 0.971335
-0.165706 -0.249567 -0.310796 -0.255883 0.288428 -0.922677
-0.607621 -0.104547 0.000576971 -0.978424 0.0569866 -0.198594
0.317309 0.788022 0.34778 -0.634173 0.334054 0.697304
0.10829 0.478932 0.0575662 0.655165 0.633326 -0.411894
-0.560743 -0.476678 -0.126826 -0.956384 -0.0861517 -0.279118
-0.408099 -0.0642038 -0.155991 -0.46862 0.346819 -0.812473
0.660675 -0.0680943 0.10592 0.715089 -0.370164 0.59298
-0.189349 0.543962 0.228445 0.179638 -0.389627 0.903284
-0.308702 -0.492292 -0.367923 -0.394307 0.380551 -0.836483
-0.294638 -0.863334 -0.158891 -0.168655 -0.983173 -0.0701908
0.658424 -0.159484 -0.0829586 0.964629 -0.0520677 -0.258417
-0.120906 -0.845459 -0.0032258 0.0128171 -0.759144 0.650796
-0.263954 -0.647379 -0.465454 -0.337174 0.0496306 -0.940133
0.676435 0.0093183 -0.0512261 0.880611 0.0166222 -0.473549
0.0859012 -0.479412 0.09924 -0.213413 0.0237475 0.976673
0.621786 -0.235115 -0.151139 0.881609 0.123172 -0.455626
0.426366 -0.682491 0.0195169 0.594573 -0.564779 0.572283
-0.0552578 1.00058 0.339982 -0.705686 0.592112 0.389114
-0.528533 -0.396608 0.089359 -0.658619 -0.223069 0.718653
-0.259761 -0.825238 -0.26946 -0.088781 -0.934438 -0.344881
0.603718 -0.141192 -0.151308 0.738302 0.208151 -0.641548
0.575328 -0.350298 -0.235827 0.750778 0.0143516 -0.660398
-0.255555 0.00744759 0.154399 0.154373 -0.0612678 0.986111
0.123342 0.73886 0.253706 0.864033 -0.221757 0.451962
0.0454507 1.0542 0.409225 0.0498497 0.73959 0.671209
0.167511 -0.576641 -0.422403 0.271122 0.134199 -0.953144
-0.224455 0.682286 0.200932 -0.103133 0.936538 -0.335052
-0.12876 -0.0605901 0.0938486 0.234541 -0.160904 0.958697
-0.41074 -0.546939 -0.324628 -0.643081 0.245658 -0.725326
-0.385698 0.718097 0.314597 -0.936849 0.00331547 0.349719
-0.206277 0.578338 0.141273 -0.305549 0.407876 -0.860394
-0.567909 -0.499922 -0.0372542 -0.966003 -0.220688 0.134669
0.179362 0.0546943 -0.268431 0.0817222 0.422314 -0.902758
-0.177627 -0.093446 -0.26955 -0.298356 0.295599 -0.907527
-0.50089 -0.653702 -0.193787 -0.944067 -0.187879 -0.270998
0.646452 0.15975 0.177097 0.346713 0.477083 0.807578
0.222265 -0.651343 -0.418739 0.406944 -0.103143 -0.907611
-0.48727 0.220952 0.153913 -0.0193249 0.184694 0.982606
0.259753 -0.464085 0.139379 0.0233133 0.0281731 0.999331
0.429182 0.577102 0.247134 0.504948 -0.446076 0.738947
-0.039174 -0.876466 -0.037206 0.0237403 -0.887705 0.4598
0.280417 -0.576107 -0.394746 0.405701 -0.0274478 -0.913593
0.259997 0.365112 -0.0927554 -0.0349198 0.502129 -0.864088
0.12047 0.872454 0.319099 0.840803 -0.040667 0.539812
0.189698 -0.798026 0.02613 0.140838 -0.698925 0.701191
0.234137 0.226176 0.0959871 -0.00999556 -0.183223 0.98302
0.455101 0.0309874 -0.0199211 -0.0334178 0.964726 0.261127
-0.0863574 -0.767446 -0.452224 -0.0243798 -0.643605 -0.76497
0.0653187 0.151645 -0.170412 -0.0273695 0.546277 -0.837158
0.115865 0.651845 0.229671 0.833684 -0.249215 0.49281
0.222328 0.425854 0.124693 -0.42728 0.12104 0.895981
-0.443989 -0.407825 0.117081 -0.295966 -0.196504 0.934767
-0.434862 0.047403 0.137572 -0.100742 -0.00284384 0.994908
0.00256936 -0.727986 0.0599837 -0.0323686 -0.345565 0.937836
-0.540791 -0.591113 -0.0455077 -0.920917 -0.301915 0.246493
0.706186 0.159032 0.0338935 0.813584 0.580605 -0.0312801
0.560227 0.0521428 -0.0910537 0.270439 0.431294 -0.860725
-0.266025 0.808665 0.419606 0.112337 0.408929 0.905626
0.613853 0.266591 0.115284 0.000335776 0.920693 0.390288
-0.64651 0.203365 0.167228 -0.877436 -0.320294 0.357095
-0.0604881 -0.808875 -0.340308 -0.0369458 -0.913595 -0.404944
-0.17778 -0.304004 0.0773868 0.189558 -0.0421766 0.980963
-0.232951 0.0973839 0.152635 0.133168 -0.0640192 0.989024
-0.492504 0.174925 -0.00497116 -0.407316 0.390955 -0.825377
-0.246583 -0.77948 -0.403237 -0.204895 -0.723466 -0.659253
0.0155851 0.130558 0.0930217 0.144201 -0.0597523 0.987743
-0.325444 -0.392173 0.108682 0.102128 -0.0891851 0.990765
-0.381681 0.322608 0.136022 -0.698641 0.338644 0.630255
-0.528945 -0.49321 0.0488281 -0.752887 -0.273857 0.598467
-0.374194 0.14184 0.0813643 -0.306417 0.451112 0.838216
0.18617 -0.0374899 0.0686829 0.0841563 -0.0522805 0.99508
0.159921 -0.478841 -0.398017 0.141221 0.206825 -0.968132
-0.208434 -0.862072 -0.00151951 -0.0409716 -0.828484 0.558511
-0.612927 -0.0148451 0.0179232 -0.972489 0.047707 -0.228013
0.0791086 0.251539 0.0572183 0.173556 -0.0452494 0.983784
-0.597817 -0.205918 0.086162 -0.900748 -0.0987589 0.422966
0.426244 0.862379 0.24648 0.305528 0.948302 -0.085878
-0.444298 0.0627804 -0.0405074 -0.452285 0.349615 -0.820492
-0.584315 -0.385266 0.0111976 -0.946598 -0.163585 0.277835
-0.130084 0.17155 -0.161987 -0.226396 0.502439 -0.834446
0.701205 0.287253 0.0899749 0.540978 0.825641 0.16019
0.174216 -0.292551 0.101933 -0.0790332 0.181659 0.98018
-0.208215 0.726826 0.276391 0.169305 0.682746 0.710769
-0.316578 -0.672549 0.088368 -0.162189 -0.303819 0.938823
0.342655 -0.795475 -0.252706 0.59095 -0.710831 -0.381441
0.143416 -0.87283 -0.19982 0.108064 -0.982534 -0.151492
0.171186 -0.890845 -0.115895 0.142346 -0.977332 0.156715
0.214969 0.420568 0.00233609 -0.382251 0.723444 -0.574902
-0.356276 -0.0959918 0.164923 0.112002 -0.0932382 0.989324
-0.0740142 0.095253 0.119248 0.207576 -0.0950579 0.973589
0.044201 -0.410241 -0.400395 0.00107801 0.29382 -0.95586
0.192492 0.338652 -0.0298912 -0.212808 0.655712 -0.724399
-0.347276 -0.329708 -0.276445 -0.428148 0.309317 -0.849124
0.424835 -0.449407 -0.339565 0.46237 -0.0509961 -0.88522
-0.39746 -0.865946 -0.12368 -0.528802 -0.837525 0.137552
-0.0722202 0.252237 -0.14192 -0.121963 0.501772 -0.856359
0.396197 0.824264 0.408805 0.0435841 0.374065 0.926378
0.116077 0.192402 -0.108048 -0.019039 0.568013 -0.822799
-0.14567 0.245643 -0.0780074 -0.288304 0.47627 -0.830692
0.493376 0.860992 0.313407 0.719577 0.66308 0.206239
0.140014 -0.851181 -0.0302468 0.0837961 -0.869915 0.486031
0.710127 0.0254692 0.0316933 0.990397 -0.135262 0.028593
0.364424 0.935305 0.361507 -0.32126 0.880432 0.348757
-0.615399 0.60815 0.319993 -0.188577 0.85062 0.4908
0.336128 -0.03554 -0.24653 0.450197 0.385905 -0.805233
0.304046 0.659338 0.263965 -0.865187 -0.0297949 0.500563
-0.355264 -0.00431749 0.174805 0.0767883 -0.00554165 0.997032
-0.309685 0.888957 0.446145 0.0556417 0.596799 0.800459
-0.371508 0.249909 0.0217782 -0.544226 0.546019 -0.636931
-0.386581 0.529898 0.230585 -0.924169 -0.136802 0.356647
0.39762 0.224789 -0.0720897 0.898133 0.1118 -0.425273
-0.0815907 0.643684 0.216972 -0.122006 -0.0489949 0.991319
-0.532347 0.373296 0.124735 -0.0945731 0.879136 -0.467092
-0.34266 -0.597769 -0.399957 -0.526603 0.224848 -0.819837
0.302089 0.165332 0.0883385 0.284706 -0.247608 0.926084
0.237737 -0.273194 -0.363571 0.12377 0.247726 -0.960892
0.0812215 -0.89045 -0.137336 0.0257886 -0.999597 0.0118933
-0.28384 0.458503 0.032319 -0.425203 0.41659 -0.803527
-0.49219 -0.579021 0.0512761 -0.668456 -0.310684 0.675752
0.0961487 -0.692124 0.0854331 -0.0774673 -0.356236 0.931179
0.29468 -0.763129 -0.33346 0.537021 -0.540673 -0.64752
0.00949931 -0.0664029 -0.294827 -0.0895943 0.315438 -0.944707
0.341375 0.543303 0.242709 -0.273066 -0.327624 0.904488
0.138088 1.00863 0.334336 0.746836 0.566264 0.348684
-0.0955758 -0.699436 -0.510984 -0.023804 -0.186519 -0.982163
0.342631 0.421421 -0.063581 0.265902 0.433552 -0.861005
0.737934 0.20391 0.112674 0.798119 0.502914 0.331789
0.440763 -0.0764272 -0.114463 0.427036 0.55379 -0.714812
0.0130064 0.316616 0.145365 0.194219 -0.228207 0.954044
0.40038 -0.386368 0.104268 0.261869 0.0582685 0.963343
0.00716287 0.967517 0.410741 -0.208371 0.32752 0.921581
-0.177246 -0.655423 -0.487153 -0.160282 -0.000735039 -0.987071
0.313497 -0.646911 0.0972537 0.270974 -0.388178 0.880847
0.528649 0.200907 0.0525428 -0.137988 0.975489 0.171407
0.514471 -0.642139 -0.112259 0.836411 -0.548098 -0.00221568
-0.572828 -0.315065 0.0772041 -0.832263 -0.164398 0.529445
0.550894 -0.0733355 0.109747 0.0421624 -0.249729 0.967397
-0.327866 -0.790246 -0.363266 -0.353448 -0.704101 -0.615887
0.167453 -0.442386 0.119386 -0.137089 0.0516243 0.989213
-0.570061 -0.258098 -0.0920765 -0.892965 0.085871 -0.441858
0.00313464 -0.151413 -0.321197 -0.105414 0.279968 -0.954204
0.0972612 0.338341 0.0869527 0.260732 -0.0209308 0.965184
0.313433 -0.168313 -0.323728 0.300878 0.360752 -0.882797
0.593958 -0.504263 -0.12678 0.930628 -0.357757 -0.077086
-0.56045 -0.163766 -0.0791346 -0.857646 0.123021 -0.499309
-0.485843 -0.562088 -0.241333 -0.847901 0.0524222 -0.527557
