ply
format ascii 1.0
element vertex 500
property float x
property float y
property float z
property float nx
property float ny
property float nz
element face 0
property list uchar int vertex_index
end_header
-0.155606 -0.769263 -0.461537 0.104425 -0.45332 -0.88521
0.501535 0.535275 -0.202017 0.736428 0.0937148 -0.669994
0.0529289 -0.726698 -0.360998 0.722857 -0.235656 -0.649572
-0.264447 0.111872 0.337538 -0.79404 -0.316445 0.519003
-0.545201 -0.414309 -0.138247 -0.930587 0.295171 0.216522
-0.371428 0.0609002 -0.196965 -0.630691 -0.742899 -0.224344
0.611306 0.589899 -0.0814304 0.908311 -0.0984634 -0.406542
-0.0520687 -0.300141 -0.195044 0.370171 0.900612 -0.227754
0.3886 0.374193 -0.361094 0.594163 0.0560216 -0.802391
-0.291518 -0.23774 -0.255485 0.147209 0.989018 0.0131172
-0.0779597 -0.397704 0.256262 -0.661099 0.297769 0.688681
-0.558692 -0.465383 -0.263359 -0.99096 -0.0765991 -0.110143
-0.465869 -0.792953 0.0158972 -0.841511 -0.48249 0.243027
0.462591 0.186511 0.454288 0.733081 -0.16573 0.65964
-0.158013 -0.950338 -0.0841094 -0.0243025 -0.999406 0.0244455
0.489781 0.157334 -0.208985 0.766912 -0.374147 -0.521402
-0.293 -0.478221 -0.513735 -0.0812897 0.0796294 -0.993504
-0.568272 -0.271137 -0.308807 -0.941952 0.310813 0.126971
0.276638 0.315297 0.5243 0.457891 0.248622 0.853536
-0.511484 0.662371 0.017265 -0.662229 0.542564 0.516795
-0.25561 0.671898 0.262469 -0.702227 0.565416 0.432645
0.20527 -0.93666 -0.168331 0.518212 -0.7134 -0.471717
0.32071 0.681008 0.41653 0.422797 0.542718 0.725741
-0.200087 -0.525971 0.180736 -0.382783 0.286866 0.878172
-0.500814 0.682868 -0.155666 -0.533925 0.664087 -0.523366
-0.0326894 -0.170615 0.0714367 -0.961451 -0.235629 -0.141741
0.182523 0.274756 0.630004 0.253859 0.159229 0.954045
-0.380808 -0.289913 -0.0206561 -0.342147 0.818473 0.461561
-0.193121 -0.945456 0.238106 -0.308324 -0.788341 0.532404
-0.201037 -0.0257603 0.287618 -0.693153 -0.631328 0.347798
0.36167 -0.324504 0.211869 0.965642 0.0330542 0.257766
0.0705829 0.294241 -0.463593 -0.0288323 -0.123051 -0.991981
-0.101742 0.320134 0.479817 -0.624013 0.0548323 0.779488
0.479639 0.719184 0.0969745 0.572756 0.406534 0.711815
-0.0307499 -0.885216 -0.337671 0.356276 -0.723047 -0.591836
0.24299 -0.0263496 -0.252474 0.275229 -0.749176 -0.602482
-0.40018 -0.832716 -0.304324 -0.652195 -0.594431 -0.470418
0.109604 0.54999 -0.433492 0.0563714 0.354407 -0.93339
0.567764 0.176288 0.234746 0.923847 -0.291597 0.247946
-0.0379137 0.727255 -0.299635 -0.237758 0.723902 -0.647639
0.388477 -0.0788991 0.0670492 0.791861 -0.591685 -0.151214
0.000697465 0.111538 -0.386242 -0.176417 -0.53898 -0.823637
0.291144 -0.393616 0.363232 0.645888 -0.0221682 0.76311
-0.463493 0.298005 -0.14954 -0.90393 -0.357257 -0.235111
-0.266463 0.222982 0.340861 -0.778707 -0.167042 0.604741
0.273404 -0.0395392 0.435961 0.416543 -0.637966 0.647681
0.157698 -0.673143 0.278881 0.455505 -0.411498 0.78942
0.32662 -0.216203 0.0673321 0.931553 -0.212808 -0.294824
0.229448 -0.120161 0.333901 0.476673 -0.452098 0.753917
-0.321531 -0.844974 -0.378354 -0.391938 -0.644078 -0.656923
-0.55835 -0.516406 -0.0988213 -0.982254 0.0862641 0.166543
-0.0229704 -0.119607 0.302262 -0.603743 -0.586539 0.539876
0.438795 0.987027 0.0885641 -0.00435236 0.900868 0.434072
-0.27731 0.50281 -0.30676 -0.41249 0.287406 -0.864436
0.184008 -0.94988 -0.0086735 0.437349 -0.898041 0.047409
-0.442074 0.585371 0.0161978 -0.643039 0.340084 0.686181
-0.444071 -0.455769 -0.480852 -0.495283 -0.174822 -0.85096
-0.446387 0.747393 0.0172575 -0.404361 0.82421 0.396446
0.124824 -0.41282 -0.174642 0.660251 0.427467 -0.617528
-0.274581 -0.576508 -0.511646 -0.194594 -0.150715 -0.969236
0.31027 0.393896 0.464805 0.468047 0.237042 0.851318
0.332715 -0.82062 -0.0302028 0.965837 -0.230064 -0.119289
-0.0332448 0.0717365 0.575001 -0.418802 -0.403567 0.813473
-0.504077 0.753348 -0.0776488 -0.451782 0.887771 -0.0880614
-0.341965 0.300376 0.29184 -0.82208 -0.100393 0.560451
0.676219 0.891114 0.0316093 0.881967 0.426888 0.199751
0.591021 0.496627 -0.0525847 0.946614 -0.0906689 -0.309356
0.0749108 -0.346476 0.398693 -0.249879 0.119669 0.960854
0.0873502 -0.62504 -0.354214 0.817156 -0.020369 -0.576057
0.385202 0.112111 -0.296925 0.578055 -0.461347 -0.673061
0.365251 0.00660095 0.419716 0.574498 -0.612757 0.542661
-0.270451 -0.943026 -0.0412069 -0.231985 -0.969961 0.0732072
-0.42135 -0.270728 -0.156838 -0.412756 0.824672 0.386716
0.0327763 -0.0587914 -0.218547 -0.171168 -0.806872 -0.565384
-0.173958 -0.946312 0.138077 -0.185886 -0.950544 0.248823
0.100307 -0.908334 0.311718 0.433881 -0.532199 0.726988
0.467805 -0.00968062 0.0673355 0.778255 -0.622859 -0.0797852
0.107146 -0.949012 0.0969285 0.268426 -0.938084 0.218966
0.0121079 0.500793 -0.445071 -0.136633 0.262754 -0.95514
0.529271 0.264409 -0.191414 0.856379 -0.164035 -0.489599
0.288831 0.761796 -0.225956 0.157772 0.676497 -0.719347
0.251034 -0.591587 0.293497 0.642284 -0.421848 0.639934
-0.0105822 -0.303608 -0.105107 0.125069 0.812349 -0.569602
-0.570801 -0.172665 -0.345413 -0.877074 0.454883 0.154347
-0.0237671 -0.245423 0.153803 -0.953471 0.0415979 0.298601
0.434299 0.528937 -0.283885 0.623021 0.207709 -0.754123
0.238167 0.61279 0.486653 0.293806 0.384941 0.874928
0.304747 -0.369925 -0.0314573 0.785557 0.0714808 -0.614647
-0.0222445 0.00315673 -0.284298 -0.209337 -0.744289 -0.634202
0.205074 -0.819212 0.144908 0.736843 -0.465426 0.490348
-0.408416 -0.186518 -0.354381 -0.0547904 0.9897 -0.132257
0.358005 0.575001 0.446293 0.491003 0.326489 0.807664
-0.435915 0.14546 -0.232707 -0.835953 -0.473547 -0.277373
-0.187941 0.0794369 0.428853 -0.704556 -0.34956 0.617582
0.341961 -0.489801 0.00929196 0.907527 -0.0949318 -0.409124
-0.339322 -0.0254379 -0.33875 0.219203 -0.592655 -0.775055
-0.520492 -0.245921 -0.500739 -0.527585 0.188173 -0.828399
0.0895842 -0.52888 -0.314998 0.821378 0.195798 -0.535725
-0.541486 0.530561 0.0234221 -0.871791 0.0381022 0.488395
-0.506773 0.457132 -0.2048 -0.78307 -0.0918935 -0.615107
0.459284 0.415987 -0.293963 0.708775 0.0710376 -0.701849
0.191446 0.621379 -0.38231 0.219321 0.474849 -0.852301
-0.0457452 -0.322422 -0.305551 0.509052 0.780174 -0.363585
0.584234 0.185984 0.0438214 0.95014 -0.300816 -0.0821185
-0.604016 0.527525 -0.0718631 -0.998645 -0.0345041 0.0389605
0.145046 -0.0266099 -0.283779 0.0523857 -0.757251 -0.651019
-0.415584 -0.88232 -0.213435 -0.672931 -0.707993 -0.214266
-0.237711 -0.9453 -0.145966 -0.137111 -0.989081 -0.0540311
0.534133 0.438802 -0.181212 0.834871 0.00940533 -0.550365
-0.547924 -0.576229 -0.210695 -0.979805 -0.167811 -0.108731
-0.0259516 0.851746 0.133019 -0.264646 0.957282 0.116505
-0.123936 -0.835797 0.288318 -0.275828 -0.244813 0.929508
-0.0533415 -0.476731 0.319353 -0.592387 0.0739389 0.802254
-0.38365 0.31885 0.19314 -0.879329 -0.122751 0.460123
0.219746 0.0256524 0.540687 0.259644 -0.588428 0.765727
0.601996 0.45951 0.0711534 0.997992 -0.00700861 0.0629489
0.456091 0.995881 -0.0164432 -0.0103281 0.997455 -0.0705404
-0.501311 -0.357667 -0.0716894 -0.745883 0.549299 0.376734
-0.116112 -0.527191 0.25265 -0.534225 0.124987 0.836052
0.549303 0.652732 0.114727 0.846844 0.201725 0.492099
-0.560969 0.435169 -0.108863 -0.963252 -0.228721 -0.140827
-0.608972 0.61438 0.00907875 -0.883993 0.199416 0.422835
0.557934 0.345746 -0.144632 0.906538 -0.0793328 -0.414602
-0.0205639 0.260667 -0.444379 -0.22089 -0.199432 -0.954691
-0.310592 -0.748483 -0.441712 -0.374634 -0.442676 -0.81467
-0.0912287 0.65348 -0.343864 -0.325261 0.57004 -0.754493
-0.147789 0.799497 0.146727 -0.454871 0.873531 0.173307
0.56172 0.217108 -0.10618 0.912447 -0.24614 -0.326888
0.304102 0.12873 -0.359655 0.434268 -0.434334 -0.789155
-0.276702 0.0267854 0.0930861 -0.737423 -0.672388 0.0640522
0.117605 0.0976274 0.577821 -0.0102172 -0.434908 0.900417
0.0508439 -0.254919 0.349336 -0.440037 -0.0637195 0.895716
0.0673721 -0.127197 -0.0994651 -0.205534 -0.673871 -0.709686
-0.0868394 -0.915789 0.102796 -0.0386705 -0.997319 0.0621174
0.112594 0.651421 0.488463 0.0224628 0.483863 0.874856
-0.323537 0.386659 -0.303707 -0.473366 0.102853 -0.87484
0.400939 0.44869 0.416168 0.576062 0.217926 0.78782
0.195665 -0.606234 -0.130672 0.813758 0.03149 -0.58035
0.592419 0.284012 -0.0176161 0.970888 -0.143084 -0.192102
-0.380725 -0.397869 0.108558 -0.41206 0.572632 0.70873
-0.0152461 -0.00976579 0.505933 -0.348845 -0.605852 0.715018
0.273307 -0.632415 -0.0315008 0.916372 -0.105504 -0.386175
0.349333 -0.12045 0.175184 0.880815 -0.430694 0.196641
0.347828 0.574634 -0.332432 0.478682 0.348967 -0.805658
-0.554488 -0.380121 -0.406404 -0.908402 -0.109411 -0.403528
0.299731 -0.624593 0.0714215 0.961255 -0.275261 -0.0148647
-0.397629 0.184443 -0.049896 -0.82557 -0.54729 0.137509
-0.159012 0.0429991 -0.255821 -0.284429 -0.765282 -0.577445
0.234325 -0.693179 -0.0977935 0.864554 0.0223302 -0.502043
0.443335 0.0891752 0.422674 0.706485 -0.444786 0.550494
0.15947 0.820063 0.311037 0.101891 0.849735 0.51727
0.155239 -0.240114 0.379239 0.082687 -0.0866435 0.992802
-0.148966 0.69192 0.377946 -0.491974 0.597691 0.63303
0.527129 0.0689003 0.192206 0.835065 -0.529238 0.150244
-0.367019 -0.663289 0.187072 -0.473602 0.0265875 0.880338
0.386555 0.909845 0.125473 0.0986646 0.861648 0.497824
0.433549 -0.00584319 0.282283 0.725498 -0.614251 0.310401
-0.0559924 0.695643 0.429515 -0.314326 0.593058 0.74127
0.043425 -0.538512 -0.417283 0.745798 0.152492 -0.648485
0.078458 -0.949785 0.00254661 0.0909019 -0.994754 0.0469197
-0.291982 -0.600393 0.198786 -0.346278 0.157009 0.9249
-0.571112 0.411579 0.0185405 -0.911947 -0.192878 0.362146
0.0113696 -0.442565 -0.404711 0.658128 0.421769 -0.623682
-0.506082 -0.042133 -0.322394 -0.465893 0.820817 0.330457
-0.301244 0.0864366 0.224852 -0.821173 -0.481022 0.307071
0.658527 0.672611 0.0804377 0.92994 0.0840135 0.357986
-0.383007 -0.76364 0.158978 -0.663313 -0.237014 0.709817
-0.465354 0.38644 0.0606165 -0.877902 -0.145188 0.456299
0.459628 0.310229 -0.295922 0.726708 -0.0791074 -0.682376
0.145031 0.867632 -0.0464773 -0.13182 0.963576 -0.232692
-0.0110787 -0.286472 -0.000775688 -0.551784 0.746937 -0.370971
-0.49234 -0.359503 -0.491927 -0.485693 -0.0261443 -0.873738
0.275642 0.866565 -0.0576233 -0.147572 0.935164 -0.322011
-0.141975 -0.00862707 0.413472 -0.595256 -0.578034 0.558164
0.126179 -0.118103 0.367134 0.0165292 -0.512153 0.858735
-0.264319 -0.260258 -0.0564102 -0.0813062 0.937572 0.338153
-0.365552 0.450107 0.233447 -0.867817 0.147596 0.474456
0.332283 0.252831 -0.386318 0.503352 -0.188583 -0.843251
0.260671 -0.706228 0.108346 0.92628 -0.297512 0.231283
0.573623 0.462815 0.223738 0.905118 0.169232 0.390028
-0.110288 0.823089 0.056149 -0.366557 0.930395 -0.00119682
-0.11454 -0.0790441 0.312583 -0.624954 -0.674036 0.393839
-0.0690952 0.354302 -0.439963 -0.301664 -0.0252888 -0.953079
0.271232 0.321284 -0.425119 0.382152 -0.0550525 -0.922458
0.441739 -0.0174664 -0.0301708 0.710337 -0.659816 -0.24508
-0.0813716 0.0728252 -0.328172 -0.265745 -0.626128 -0.733037
-0.218572 -0.806556 0.271962 -0.413196 -0.118958 0.902839
0.144653 0.224162 -0.447509 0.116523 -0.274988 -0.954361
0.17651 -0.503773 -0.158845 0.764842 0.141119 -0.628571
-0.450008 0.0384173 -0.29501 -0.783623 -0.522904 -0.33542
0.334795 -0.223904 0.200159 0.964429 -0.12845 0.231035
-0.379975 0.466627 -0.27713 -0.504942 0.159825 -0.848227
-0.0553474 0.402425 0.516746 -0.463229 0.190746 0.865468
0.524221 0.634818 -0.175965 0.655152 0.109151 -0.747571
-0.042171 -0.60133 0.317889 -0.405784 -0.102278 0.908228
-0.0356898 0.783043 0.337607 -0.275319 0.796681 0.53805
-0.519543 -0.334087 -0.216721 -0.862084 0.428922 0.269884
-0.470858 -0.805939 -0.137721 -0.839931 -0.538733 -0.0654362
0.204646 -0.724908 0.192433 0.75435 -0.365815 0.545101
-0.0798741 0.169103 -0.394084 -0.285205 -0.405922 -0.868266
0.149649 0.124176 -0.406111 0.105997 -0.474114 -0.87406
0.0258573 -0.63653 -0.435718 0.667448 -0.109694 -0.736533
-0.378421 -0.935096 -0.133085 -0.544001 -0.837924 -0.0441243
-0.296685 0.665024 0.169819 -0.716711 0.573763 0.396385
-0.414967 -0.209497 -0.454128 0.0477099 0.641111 -0.765964
-0.510343 -0.0758465 -0.41459 -0.294778 0.929498 -0.221671
-0.00767778 -0.363718 0.339344 -0.587891 0.141006 0.796556
0.0805209 -0.83399 -0.304384 0.597608 -0.481655 -0.640993
0.0313833 0.660399 -0.3781 -0.0988011 0.568398 -0.8168
0.575141 0.271829 0.265418 0.932307 -0.0924868 0.349641
0.316922 0.0370457 -0.2845 0.425461 -0.638232 -0.641594
-0.399274 -0.101143 -0.421825 0.326415 0.891344 -0.314579
-0.49011 0.291265 0.0568823 -0.882731 -0.35679 0.305756
0.382703 -0.396054 0.135936 0.999687 -0.0189646 -0.0163238
-0.0306682 -0.16 0.209272 -0.853021 -0.388454 0.348509
-0.248526 -0.385517 -0.48724 0.146965 0.410861 -0.899774
0.528049 0.959793 -0.0915885 0.254932 0.832981 -0.491073
-0.316942 0.08478 -0.0363634 -0.711629 -0.699348 0.0670515
0.0117001 0.633252 0.490464 -0.165096 0.447034 0.87915
0.18488 -0.440244 0.41456 0.232362 -0.0996068 0.967516
0.251698 0.204629 0.61558 0.383462 -0.0176474 0.923388
-0.250294 0.00411518 0.205731 -0.747485 -0.633866 0.198696
0.55793 0.858207 0.067815 0.653237 0.582286 0.483967
0.679514 0.763668 0.0262604 0.966403 0.124397 0.224922
-0.0258236 -0.738175 0.285703 -0.111717 -0.0533704 0.992306
-0.194727 0.778068 0.0188215 -0.41776 0.908545 -0.00463809
-0.383546 0.278739 -0.327093 -0.587051 -0.0653314 -0.806909
-0.0404499 -0.79764 -0.40011 0.433173 -0.502283 -0.74838
-0.0180169 -0.914025 -0.00605752 -0.00689589 -0.999765 0.0205324
-0.0307661 -0.510955 -0.475146 0.53452 0.198588 -0.821493
-0.170315 -0.0508387 -0.00110213 -0.590877 -0.794529 -0.139956
0.599255 0.258106 0.114082 0.984891 -0.167093 0.0454854
-0.0474047 0.804776 -0.160665 -0.271997 0.887234 -0.372605
-0.270492 0.727833 -0.0764589 -0.284447 0.928567 -0.23844
0.337195 0.915404 0.0383376 -0.159879 0.978989 0.12657
-0.282502 -0.944615 0.0847733 -0.341445 -0.907794 0.24357
-0.246033 0.432996 0.407119 -0.674576 0.0569111 0.736008
0.617438 0.70715 -0.111929 0.811779 0.0226258 -0.583527
-0.44077 -0.863339 -0.0628409 -0.732928 -0.677303 0.0638487
0.207674 -0.419981 -0.117438 0.652781 0.260811 -0.711234
-0.137412 0.460094 -0.402416 -0.395097 0.161027 -0.904416
-0.547258 -0.616028 -0.0553876 -0.972078 -0.136498 0.190872
0.279828 -0.738522 -0.0017911 0.985942 -0.136799 -0.0959443
-0.487988 -0.148165 -0.491129 -0.201747 0.505067 -0.83917
0.161286 -0.833899 -0.19155 0.642037 -0.401773 -0.652968
-0.598309 0.728024 -0.0427021 -0.774843 0.613433 0.152701
-0.154968 -0.437777 0.194287 -0.517133 0.392485 0.760611
-0.179756 -0.480221 -0.51649 0.140779 0.19501 -0.970645
0.440402 0.206226 -0.290916 0.689173 -0.285713 -0.665889
-0.168428 -0.632665 0.191267 -0.367448 0.14055 0.919363
-0.416126 0.562769 -0.245621 -0.439527 0.304024 -0.845213
-0.107106 0.185759 0.537035 -0.619122 -0.132574 0.774023
0.111389 -0.635229 -0.222295 0.832809 0.0144032 -0.553373
0.00812654 -0.950108 0.325241 0.131534 -0.68018 0.721148
-0.139517 -0.0861055 0.21657 -0.684142 -0.710116 0.166389
0.0973304 -0.948073 0.195604 0.35326 -0.846796 0.397673
-0.251196 0.111615 -0.281763 -0.30391 -0.656573 -0.690327
0.478306 0.669679 0.183822 0.670116 0.443173 0.595434
0.371079 -0.488006 0.103255 0.975895 -0.181017 -0.121913
0.117617 0.876731 0.0879502 -0.1111 0.991261 0.071128
0.265022 0.421947 -0.424487 0.389701 0.139225 -0.910357
-0.392344 0.649985 -0.202256 -0.331816 0.568445 -0.75284
0.141527 -0.866804 0.233039 0.559448 -0.548422 0.621491
0.512241 0.557606 0.302779 0.760763 0.343311 0.550797
-0.35123 0.133167 -0.123351 -0.727407 -0.681513 0.0801198
-0.381366 -0.0283254 -0.242446 -0.521685 -0.821597 0.229833
0.0625048 0.828813 -0.172846 -0.121819 0.902436 -0.413242
0.252609 -0.950869 -0.078455 0.587322 -0.773554 -0.23805
-0.0413031 -0.950062 0.20283 0.0379337 -0.939383 0.340765
-0.0999597 -0.30837 0.077102 -0.637634 0.698348 0.325166
-0.0295045 -0.127894 -0.0373379 -0.590205 -0.566175 -0.575417
-0.325653 0.0738873 -0.340738 -0.342491 -0.600339 -0.722699
0.212709 0.115587 0.598552 0.275637 -0.320286 0.906334
-0.570018 -0.367937 -0.295629 -0.996203 0.0870614 -0.000544565
-0.481506 -0.719898 -0.26853 -0.849345 -0.402896 -0.34101
0.593749 0.36258 0.178554 0.973777 -0.00663733 0.227409
-0.475695 0.242908 -0.252839 -0.858603 -0.225077 -0.460589
0.0408815 0.852279 0.216682 -0.156374 0.942723 0.294653
-0.0896395 -0.916135 0.336497 -0.0884265 -0.50955 0.855885
0.240764 0.218212 -0.421445 0.304997 -0.272197 -0.912626
0.29151 0.873045 0.121245 0.0323598 0.938132 0.344763
-0.131685 0.777026 0.264212 -0.449389 0.801926 0.393653
-0.391381 -0.901285 0.0212843 -0.615693 -0.761048 0.204275
-0.0868776 -0.666345 0.258825 -0.379182 0.062737 0.923193
-0.266175 0.735815 0.074829 -0.530738 0.816208 0.228302
0.552526 0.407288 0.301539 0.848758 0.120808 0.514797
0.0974744 -0.949726 -0.173882 0.309359 -0.851032 -0.424313
0.458637 0.533765 0.388058 0.651652 0.304253 0.694824
-0.383938 -0.5289 0.169081 -0.464669 0.247337 0.85024
0.199441 -0.535569 0.375902 0.391808 -0.305045 0.868006
0.142461 0.859767 0.214491 0.000585015 0.948508 0.316752
0.0875361 0.0497193 -0.359664 -0.0274965 -0.65121 -0.758399
0.0270175 0.459522 0.536683 -0.208231 0.290838 0.933838
-0.222157 -0.665999 -0.502102 -0.0762965 -0.284368 -0.955674
-0.0227631 0.854859 0.0146557 -0.259302 0.962125 -0.0841359
0.240078 0.847814 0.216309 0.140521 0.902662 0.406761
0.537506 0.737456 -0.173779 0.510891 0.223653 -0.830042
-0.121871 0.805126 -0.0478259 -0.354355 0.916837 -0.183965
0.363755 0.290695 0.483638 0.574425 0.142487 0.80606
0.27048 0.494023 0.484579 0.362825 0.258429 0.895306
-0.601956 0.628585 -0.0925388 -0.920478 0.365931 -0.13717
0.213125 0.736251 -0.286752 0.164202 0.673334 -0.720874
-0.305116 0.579311 0.287959 -0.799567 0.360061 0.480675
0.440904 0.0647031 -0.193921 0.666932 -0.567608 -0.482724
-0.368229 -0.397004 -0.504088 -0.128621 0.140109 -0.981746
0.554214 0.13627 -0.0429189 0.883038 -0.403433 -0.239762
-0.157352 0.452057 0.466927 -0.549894 0.145249 0.822508
-0.197013 -0.0496978 0.136591 -0.669233 -0.740598 0.0603422
0.28205 0.796993 0.297818 0.324032 0.772014 0.546807
0.281579 0.669889 -0.312221 0.322842 0.514301 -0.794523
0.529657 0.206158 0.360246 0.833214 -0.164912 0.527786
0.576277 0.157484 0.137199 0.927635 -0.366134 0.0737549
0.0393396 -0.948443 -0.254545 0.322093 -0.830478 -0.454492
0.481946 0.0514717 -0.0994344 0.747093 -0.580931 -0.323064
-0.0384052 -0.302288 0.237966 -0.816422 0.179525 0.54884
0.24784 -0.22445 0.335968 0.561709 -0.106044 0.820511
-0.143944 -0.263947 -0.18183 0.243506 0.969066 -0.0402068
0.446218 0.312136 0.4333 0.669214 0.11598 0.733963
0.342194 0.483931 -0.373232 0.509961 0.227888 -0.829462
0.0503984 0.167484 0.626917 -0.23052 -0.211135 0.949886
0.170243 -0.217824 -0.0525405 0.316896 -0.222028 -0.922107
0.663198 0.827927 -0.0494934 0.906033 0.327881 -0.267578
-0.219245 0.528804 0.421606 -0.611734 0.207434 0.763383
0.444604 -0.0260675 0.172524 0.778191 -0.613164 0.135825
-0.102037 -0.0344181 -0.181477 -0.341156 -0.823082 -0.454036
-0.216332 0.582871 -0.311951 -0.412082 0.459088 -0.787036
-0.442402 -0.596126 -0.419247 -0.682455 -0.333106 -0.650612
0.0951008 -0.747132 -0.250827 0.741635 -0.197059 -0.641206
0.656225 0.656573 -0.025171 0.995839 -0.0510813 -0.0754718
0.544287 0.871681 -0.142299 0.415128 0.494505 -0.763632
-0.510065 -0.716746 -0.171659 -0.928043 -0.358899 -0.0996386
-0.150211 0.593217 0.448053 -0.480825 0.367747 0.795971
0.322821 -0.488014 0.3078 0.764284 -0.212319 0.608926
0.566573 1.0443 0.020696 0.349467 0.934026 0.0739431
0.624685 0.947449 -0.0511125 0.676389 0.694919 -0.244102
-0.138004 -0.274228 -0.280059 0.339981 0.91244 -0.227739
-0.316496 -0.815937 0.214451 -0.538559 -0.286778 0.792283
0.523883 0.117503 0.299701 0.847524 -0.383324 0.367105
-0.415073 -0.00597659 -0.406437 0.0944057 0.685359 -0.72206
0.204178 -0.935982 0.0930764 0.517884 -0.769739 0.373226
-0.0322762 0.217825 0.61209 -0.462603 -0.0496909 0.885172
-0.0673402 -0.719024 -0.464136 0.352335 -0.341832 -0.871212
0.397954 0.930659 -0.0746756 -0.105209 0.91362 -0.39272
-0.264713 -0.452605 0.158742 -0.330476 0.441429 0.834222
-0.0552932 0.826759 0.224079 -0.319152 0.900445 0.295534
0.15735 -0.0805285 -0.191136 0.0820534 -0.791372 -0.605803
-0.152339 -0.948075 -0.289299 0.0351875 -0.921734 -0.386223
-0.380943 0.676306 0.0578877 -0.54434 0.693361 0.47217
0.404383 0.639798 0.382827 0.578984 0.459496 0.673529
-0.0687308 -0.363038 -0.401632 0.486931 0.666784 -0.564178
-0.577611 -0.242225 -0.418032 -0.923182 0.227839 -0.309556
0.187223 -0.1235 -0.10513 0.212882 -0.666737 -0.714243
0.283712 -0.858425 0.0623072 0.872301 -0.430802 0.231302
0.127654 -0.609728 0.348318 0.227471 -0.380373 0.896422
-0.525183 -0.456258 0.00438685 -0.86326 0.287232 0.415067
-0.414198 -0.299156 -0.494672 -0.0375873 0.269284 -0.962327
-0.0762856 -0.61865 -0.498262 0.390914 -0.094234 -0.915591
0.36636 -0.484399 0.20929 0.940971 -0.215037 0.261406
0.152665 -0.725922 -0.16279 0.789743 -0.0240091 -0.612968
0.218631 0.726014 0.421701 0.23668 0.635113 0.735265
0.365306 -0.916884 -0.0640086 0.874788 -0.454569 -0.167667
0.0425654 -0.560825 0.376439 -0.2093 -0.218366 0.953158
-0.302857 0.374358 0.349181 -0.765184 -0.0294254 0.643139
-0.262007 -0.948752 -0.243517 -0.186112 -0.938925 -0.289451
0.34245 0.121606 0.542974 0.536754 -0.292741 0.791327
-0.512649 0.571253 -0.199143 -0.667411 0.199818 -0.717381
0.1392 0.793765 -0.239836 0.00492513 0.819594 -0.572924
-0.10381 -0.0774462 -0.0833465 -0.480755 -0.796463 -0.366771
-0.452281 -0.4751 0.11188 -0.621248 0.353917 0.699138
-0.212589 0.670125 -0.241495 -0.368426 0.67267 -0.641699
0.332865 0.806045 0.211044 0.33076 0.769767 0.545946
-0.444096 -0.61203 0.145418 -0.644473 0.0470058 0.763181
0.318842 -0.0625343 0.347065 0.625261 -0.573219 0.529593
0.396051 0.717884 0.292511 0.560855 0.596502 0.574132
0.170586 0.363866 0.582643 0.18716 0.291661 0.938033
-0.241254 0.611213 0.360317 -0.658953 0.42624 0.619758
0.217439 0.514608 -0.420812 0.279015 0.278294 -0.919077
0.00830295 -0.947686 0.101053 0.121852 -0.98667 0.107864
-0.44676 0.355742 -0.229665 -0.739037 -0.0928837 -0.667231
-0.342593 0.20925 0.253175 -0.838742 -0.266111 0.475076
0.0536561 0.725979 0.431246 -0.0968664 0.64427 0.758639
-0.135577 -0.919846 0.0129364 -0.0386638 -0.998937 0.0251041
-0.418277 0.208964 -0.150421 -0.896196 -0.433159 -0.0959463
0.220663 -0.331911 -0.0751073 0.540993 0.221819 -0.811248
-0.24119 -0.818745 -0.428862 -0.160713 -0.585686 -0.794445
0.124688 0.438837 -0.459822 0.0826233 0.139523 -0.986766
-0.381504 -0.549535 -0.480727 -0.443563 -0.228929 -0.866512
-0.143004 -0.729879 0.209327 -0.336498 0.139172 0.931343
0.165864 -0.0723778 0.443858 0.127667 -0.642308 0.75574
-0.410379 0.176448 -0.334286 -0.59675 -0.193259 -0.778807
-0.0511019 -0.945352 -0.169657 0.113248 -0.97922 -0.168234
-0.290868 0.195264 -0.315923 -0.41357 -0.214048 -0.884954
-0.214595 0.740786 0.204476 -0.586105 0.742462 0.324392
0.0751172 -0.236828 -0.0361181 -0.172024 0.0740387 -0.982307
-0.40739 0.717523 -0.130071 -0.289413 0.852161 -0.43596
0.280134 -0.491427 -0.0690553 0.80963 0.0200461 -0.586598
-0.186165 0.736655 -0.158147 -0.343292 0.841212 -0.417747
0.0454105 -0.666716 0.323065 0.0260603 -0.250854 0.967674
0.433207 0.876265 -0.149019 0.0428776 0.671202 -0.740033
0.0889853 0.280741 0.658055 -0.0789949 0.131846 0.988118
-0.463673 -0.725998 0.0942368 -0.799471 -0.240814 0.550323
-0.205462 -0.297875 0.0251487 -0.203086 0.897474 0.391531
-0.51114 -0.626748 -0.292925 -0.88835 -0.307577 -0.340926
0.0481677 0.190066 -0.436041 -0.0902926 -0.34239 -0.935209
0.414062 0.802259 0.108203 0.28947 0.704103 0.648418
-0.417763 0.214347 0.0562893 -0.858195 -0.45404 0.239476
-0.267392 -0.891419 0.282622 -0.445187 -0.382864 0.809459
-0.275631 -0.301654 -0.414548 0.326437 0.689064 -0.647016
-0.36365 -0.265225 -0.391932 0.308297 0.753207 -0.581061
-0.237414 0.00994965 -0.0399822 -0.605946 -0.789026 -0.101328
-0.514418 0.32687 -0.0332131 -0.916693 -0.369703 0.151638
0.284538 -0.12749 -0.0436741 0.58868 -0.5774 -0.565743
0.491287 0.437218 0.38062 0.69806 0.197916 0.688144
-0.232966 0.388643 -0.357625 -0.413748 0.0949982 -0.905421
-0.200223 0.0129088 -0.163599 -0.432518 -0.856704 -0.281046
-0.508986 -0.620961 0.0683697 -0.852468 -0.0621469 0.519072
-0.364724 0.740283 -0.035983 -0.347824 0.937452 0.0142395
-0.432546 0.474575 0.0324215 -0.81252 -0.0125847 0.582797
0.00894538 0.846567 -0.0814645 -0.207766 0.94987 -0.233623
0.633004 0.552058 0.0277919 0.998162 -0.0387377 0.046615
0.0818129 -0.773118 0.289926 0.354144 -0.311161 0.881908
-0.14689 -0.860827 -0.402288 0.0956878 -0.687439 -0.719911
-0.0306345 0.58126 -0.40964 -0.214938 0.407573 -0.887517
-0.0918144 -0.432356 -0.47437 0.40754 0.388694 -0.826334
-0.459887 -0.393358 0.0484458 -0.610725 0.539144 0.579947
0.375637 0.792156 -0.189772 0.178433 0.575851 -0.797846
0.220087 0.401845 0.502963 0.359333 0.307607 0.881055
-0.14254 -0.265741 -0.0695974 -0.210992 0.977482 -0.00327084
-0.248819 -0.732512 0.210884 -0.39372 0.0605063 0.917237
0.12418 0.441639 0.536738 0.0852406 0.333607 0.938851
-0.172332 -0.582596 -0.522172 0.0908331 -0.108608 -0.989926
0.34704 -0.328754 0.0464786 0.941379 0.0369952 -0.335316
-0.302231 -0.233394 -0.155259 -0.03167 0.973002 0.228614
0.339988 0.226408 0.555722 0.540083 0.0119688 0.841527
-0.185485 -0.28977 -0.37031 0.365501 0.81412 -0.451239
0.0488371 0.772554 -0.27182 -0.112124 0.794772 -0.596462
-0.396579 -0.841235 0.0999349 -0.699741 -0.565116 0.437043
0.587286 0.76546 0.0787836 0.831922 0.254201 0.493242
0.274562 -0.240313 -0.0136213 0.734476 -0.149975 -0.661856
0.0614138 0.371617 0.62734 -0.119612 0.282155 0.951883
-0.359896 0.577709 0.0714918 -0.696677 0.378972 0.609115
0.317371 -0.30172 0.298166 0.787091 0.0627987 0.613632
0.343857 -0.0639486 -0.0957705 0.563741 -0.698876 -0.440191
0.533286 0.319799 0.358328 0.822727 0.0421083 0.566874
-0.0505363 0.307621 0.568979 -0.461555 0.13203 0.877232
-0.349935 0.555822 0.169293 -0.836197 0.320686 0.444899
0.138328 0.701683 -0.341486 0.0894236 0.646365 -0.75777
0.290504 -0.161821 0.268129 0.788705 -0.268674 0.552955
0.403391 0.621053 -0.264518 0.501968 0.324978 -0.801509
-0.410213 -0.110381 -0.287318 0.0581124 0.948488 0.311438
0.083504 -0.0291419 0.516703 -0.0826467 -0.66371 0.74341
-0.38227 0.448754 0.13586 -0.845373 0.12611 0.519077
-0.367715 -0.651542 -0.451109 -0.512713 -0.344507 -0.78641
-0.164731 0.194383 0.421313 -0.723232 -0.147297 0.674714
0.0556736 0.817222 0.310179 -0.112341 0.855091 0.506162
-0.203315 0.218591 -0.354065 -0.299055 -0.253142 -0.920046
0.0323061 -0.3883 -0.296766 0.658626 0.598112 -0.456588
-0.304188 0.683288 -0.163102 -0.268122 0.766885 -0.583093
-0.339661 0.112429 0.064597 -0.799874 -0.581897 0.146962
0.32242 -0.57715 0.176965 0.896815 -0.360456 0.256503
-0.457272 -0.235194 -0.280997 -0.444158 0.810038 0.382834
-0.35202 -0.923001 -0.280153 -0.481055 -0.810035 -0.335305
0.352897 -0.0152751 -0.186799 0.504033 -0.69632 -0.510969
-0.153833 0.317105 -0.40364 -0.380932 -0.0794645 -0.921182
0.315344 0.034609 0.500547 0.448751 -0.561817 0.694971
-0.127865 0.56614 -0.377032 -0.378804 0.403946 -0.832668
-0.299449 0.585159 -0.25696 -0.380711 0.458033 -0.803284
-0.159708 -0.35715 -0.447049 0.329721 0.617103 -0.71447
0.539424 0.0791832 0.072346 0.852787 -0.51906 -0.0577057
-0.180811 -0.355901 0.112766 -0.394591 0.695432 0.60056
0.233893 -0.787309 -0.140745 0.821434 -0.114562 -0.558678
-0.271681 0.294472 -0.328544 -0.40815 -0.0307384 -0.912397
-0.295911 -0.333099 0.070113 -0.259784 0.752061 0.605736
0.58505 0.385085 -0.051634 0.959666 -0.0818984 -0.268949
-0.378154 0.224644 0.156194 -0.873575 -0.333055 0.354882
-0.0317731 -0.822353 0.355019 -0.0472396 -0.216545 0.975129
0.0279725 -0.0973264 0.38657 -0.329207 -0.643506 0.69103
-0.322104 0.469904 0.328195 -0.807104 0.130075 0.575902
0.312351 -0.925639 -0.151675 0.746424 -0.430982 -0.507056
-0.114473 -0.105381 0.117528 -0.753772 -0.656638 0.0255834
0.174379 0.323793 -0.458052 0.168173 -0.0530446 -0.984329
-0.513546 -0.722896 -0.0340007 -0.929186 -0.32996 0.166554
-0.314617 -0.930155 0.190401 -0.45499 -0.737989 0.498353
0.219329 0.877252 0.052121 -0.10119 0.993583 0.0505295
0.0935236 0.542938 0.527914 0.00401726 0.367432 0.930042
0.436298 0.711106 -0.211099 0.369574 0.375016 -0.850164
-0.39387 -0.742983 -0.381839 -0.652609 -0.438419 -0.617972
0.621683 0.552593 0.126288 0.943698 0.106789 0.313097
-0.177147 0.295339 0.412563 -0.68789 -0.0258193 0.725356
0.599678 0.359228 0.0495406 0.995317 -0.0838283 -0.0481262
0.54979 0.967511 0.0833987 0.337264 0.79451 0.504982
-0.259749 -0.930897 -0.345418 -0.181156 -0.833704 -0.521651
0.0301178 -0.460515 0.388307 -0.31012 -0.0364691 0.949998
0.092462 -0.333278 -0.118559 0.405017 0.511957 -0.757536
0.209998 0.0546405 -0.351603 0.225232 -0.605106 -0.763621
-0.114429 0.738865 -0.232295 -0.336512 0.780502 -0.526855
0.0328688 0.399258 -0.462663 -0.110675 0.0710203 -0.991316
-0.108257 0.0432159 0.498912 -0.573646 -0.435888 0.693492
0.0420971 -0.354104 -0.205447 0.548381 0.695985 -0.463556
-0.504098 -0.491679 -0.405963 -0.80829 -0.2571 -0.529685
