ply
format ascii 1.0
element vertex 500
property float x
property float y
property float z
property float nx
property float ny
property float nz
element face 0
property list uchar int vertex_index
end_header
-0.716441 -0.229363 -0.0991377 -0.992876 0.0437668 -0.110827
0.41129 -0.138231 0.521132 0.566454 0.0817138 0.820032
-0.689098 0.128912 0.136004 -0.972302 0.0471393 0.228927
-0.195805 -0.509981 0.474822 -0.384402 -0.724154 0.57257
0.299373 0.551731 0.423462 0.361187 0.778783 0.512875
0.500947 0.554509 -0.337001 0.531813 0.778979 -0.332214
0.152368 0.00249752 0.487605 0.676941 -0.0151298 0.735881
-0.179751 0.606462 -0.607203 -0.165914 0.849727 -0.500436
-0.271373 0.302039 0.441255 -0.644217 -0.208868 0.73577
0.0295186 -0.0781551 0.651551 0.44246 0.101911 0.890979
0.513367 -0.776569 -0.436941 0.268439 -0.931779 -0.244393
0.627529 0.24856 -0.404503 0.864592 -0.11361 -0.489463
0.237464 0.309124 0.611008 0.72591 -0.0800702 0.683113
-0.780903 0.620003 -0.056425 -0.932141 0.360695 -0.0318225
0.502348 -0.542051 -0.606558 0.63184 -0.280139 -0.722704
0.596019 0.28553 0.330062 0.789668 -0.154622 0.593731
-0.0562514 0.263995 0.506012 -0.83618 -0.0865521 0.541583
0.0432201 0.394294 0.506825 0.675058 0.140782 0.724208
0.110943 -0.111535 1.07811 0.529954 -0.266726 0.804988
-0.523098 0.137391 -0.299205 -0.871985 -0.0570132 -0.486201
0.770494 -0.589148 -0.0854812 0.929706 -0.368249 -0.00633727
-0.223318 -0.655082 -0.591192 -0.170225 -0.907903 -0.38306
-0.567474 0.609165 0.0192015 -0.491859 0.86876 0.0577083
-0.346024 -0.26176 0.56351 -0.603773 0.114294 0.78892
0.60397 0.434607 0.318026 0.80995 -0.125704 0.57287
-0.521499 -0.234206 -0.301803 -0.914188 0.0309266 -0.404109
-0.32602 -0.512479 0.407665 -0.402669 -0.697895 0.592284
0.541169 0.66695 -0.244835 0.370469 0.917261 -0.146234
-0.505182 -0.613061 0.208556 -0.406517 -0.860962 0.305758
0.396165 0.288779 0.531963 0.613285 -0.158662 0.773762
0.428944 -0.0777469 -0.44056 0.713349 0.0307894 -0.700132
0.142858 -0.33586 0.745731 0.697793 -0.176173 0.694296
0.398076 -0.741909 0.344635 0.161265 -0.956772 0.242037
-0.127895 -0.577923 0.693609 -0.413874 -0.563409 0.715038
0.18632 -0.45717 0.626628 0.538268 -0.178804 0.823588
0.484406 0.513541 0.238657 0.528047 0.697255 0.48477
-0.499263 -0.0821532 -0.34516 -0.807613 -0.064588 -0.586165
0.554798 0.495118 -0.196596 0.836379 0.478842 -0.266797
0.74373 -0.736061 -0.0447808 0.680663 -0.732595 0.00160551
0.401279 0.636684 0.343021 0.272932 0.899103 0.342232
0.712885 0.196524 -0.0931732 0.99626 -0.0859662 -0.0087331
0.305904 -0.677341 0.652575 0.391562 -0.605916 0.692492
0.157496 0.0288108 -0.61285 0.225814 -0.0394287 -0.973372
0.753312 -0.692253 0.115309 0.778568 -0.603406 0.172433
0.00575446 -0.204399 -0.778529 0.0997381 0.174732 -0.979551
-0.22437 0.30369 0.616502 -0.77018 -0.0901115 0.631429
0.701351 -0.221725 -0.198489 0.969374 0.112546 -0.218284
-0.208015 -0.652813 0.470471 -0.226851 -0.909561 0.348193
0.164406 -0.600752 0.48421 0.171484 -0.875948 0.450898
-0.559683 -0.336138 0.064098 -0.982041 0.132917 0.1339
0.613129 0.777999 -0.313219 0.384873 0.906012 -0.176112
-0.432548 0.231546 0.507941 -0.5939 -0.174691 0.785344
-0.564835 0.0912468 -0.163594 -0.993689 -0.0381314 -0.105487
0.555389 0.0973472 0.386015 0.710139 -0.0152504 0.703897
-0.540591 -0.728065 0.126399 -0.296054 -0.943497 0.148881
-0.435718 -0.521998 0.309367 -0.514583 -0.692287 0.505908
0.549015 -0.601731 0.0926879 0.471379 -0.870634 0.140705
-0.337306 -0.106679 0.568426 -0.645061 0.156246 0.747986
-0.139908 0.678167 -0.829538 -0.0913292 0.601357 -0.793743
0.443054 0.102042 -0.42326 0.770157 -0.0729247 -0.633672
0.712244 -0.234417 -0.0144881 0.996825 0.062926 0.0487909
-0.000385212 0.778009 -0.724934 0.0409284 0.9218 -0.385499
0.326167 0.245912 -0.699818 0.361971 -0.0765843 -0.929038
0.00231554 -0.571835 -0.826159 -0.0502448 -0.254091 -0.965874
0.117219 -0.774272 -0.661265 0.0849372 -0.951406 -0.295995
-0.164613 0.303197 -0.612252 -0.142818 -0.132477 -0.980843
-0.59578 -0.633212 -0.572669 -0.720287 -0.399191 -0.567304
-0.573092 0.0171684 -0.0378517 -0.999398 -0.0182992 0.02948
0.257238 -0.240375 -0.730515 0.315193 0.272889 -0.908947
-0.284814 -0.0239441 -0.720548 -0.485592 -0.00985388 -0.87413
-0.31863 -0.382724 -0.539725 -0.613991 0.215943 -0.759199
0.710953 -0.469545 0.00766216 0.992285 0.0539901 0.111604
-0.178823 -0.778293 -0.68432 -0.130273 -0.928383 -0.348043
-0.274688 0.410546 -0.566141 -0.458787 -0.171526 -0.871833
-0.139663 -0.102645 0.966067 -0.72231 -0.2562 0.642363
0.603111 -0.102302 0.319759 0.819729 0.0139038 0.572583
-0.541804 -0.0113556 0.125094 -0.956179 0.037424 0.290382
-0.734399 -0.533724 -0.0614338 -0.979444 -0.198911 -0.0335295
-0.675216 -0.693211 -0.446171 -0.718149 -0.597003 -0.35756
-0.421945 -0.470097 -0.452018 -0.766672 -0.105177 -0.633366
0.396872 0.11315 0.531277 0.566865 -0.0277201 0.823344
-0.606714 -0.527352 -0.464665 -0.842872 -0.110412 -0.526665
0.662212 -0.03259 -0.331637 0.914166 0.0438125 -0.402966
-0.397032 -0.775707 -0.524301 -0.19322 -0.947056 -0.256418
-0.413229 -0.0393966 -0.648743 -0.673666 0.0126969 -0.738927
0.679427 0.299086 0.156065 0.931394 -0.148935 0.332151
0.304473 0.11459 -0.546881 0.446803 -0.0469785 -0.893398
-0.158871 -0.0148307 0.634679 -0.899046 0.0546667 0.434428
-0.0747479 -0.207448 1.08161 -0.287994 -0.37961 0.879179
-0.467437 -0.314926 0.480186 -0.629811 0.0626049 0.774222
-0.0107298 0.132691 1.13214 -0.0178933 0.0999521 0.994831
-0.702448 0.100479 -0.206626 -0.981974 -0.0668497 -0.1768
0.570646 -0.532878 -0.0746784 0.665494 -0.746256 -0.0148316
-0.14382 0.244541 0.930432 -0.747784 0.340035 0.570258
0.635634 0.157214 0.261998 0.890644 -0.0266605 0.453919
0.137627 0.305659 0.752708 0.741421 0.273349 0.612842
0.483814 0.287939 -0.589243 0.656752 -0.117178 -0.744947
0.74635 0.590463 0.133307 0.925379 0.310845 0.216906
-0.343013 0.171099 0.395831 -0.594542 -0.0790676 0.800168
-0.53436 0.424679 0.146325 -0.910958 -0.207462 0.356531
0.327086 0.428861 -0.699202 0.390201 -0.152739 -0.907972
0.0320164 0.101377 0.507469 0.594374 -0.123128 0.794707
0.17278 -0.204868 -0.608767 0.311619 0.170392 -0.934805
-0.522476 -0.638842 -0.299635 -0.430563 -0.888274 -0.159956
0.559381 -0.396083 0.0517493 0.961722 0.158088 0.223826
-0.344275 0.568561 -0.521646 -0.363572 0.815744 -0.449863
-0.47149 -0.337912 -0.389472 -0.823093 0.172037 -0.541221
0.426529 -0.344904 0.51036 0.623251 0.162265 0.765002
0.610928 -0.776659 -0.323189 0.360485 -0.903678 -0.231119
0.568433 0.743109 -0.020402 0.268066 0.963398 0.00207728
-0.48128 -0.774814 0.319148 -0.242828 -0.937383 0.249696
-0.430669 0.487196 -0.441851 -0.671943 0.487504 -0.557523
0.438495 -0.30189 -0.627749 0.542044 0.198592 -0.816548
-0.0644921 -0.43795 0.861884 -0.270067 -0.491641 0.82786
0.0107652 0.262484 1.07455 0.0198768 0.461299 0.887022
-0.0309445 -0.778297 -0.69841 -0.0553852 -0.929168 -0.365485
0.213082 -0.480772 -0.745889 0.315988 0.0595509 -0.946892
0.324597 -0.261668 0.406686 0.625486 0.129076 0.769484
-0.515132 0.0123004 -0.561567 -0.727457 -0.0758364 -0.68195
0.163019 0.0102713 0.632811 0.862891 -0.0620289 0.501569
0.0849785 0.0275981 0.894792 0.57742 -0.189634 0.794119
-0.430315 0.735691 -0.679012 -0.399114 0.756772 -0.517691
0.559044 0.0484579 0.0505872 0.976748 0.0158203 0.213805
0.555331 0.33034 -0.194323 0.963547 -0.0947713 -0.250192
0.295238 0.330534 -0.552486 0.40512 -0.114477 -0.907068
-0.56635 -0.241376 0.37627 -0.788531 0.0767057 0.610192
-0.566911 0.268742 -0.152208 -0.994577 -0.0586546 -0.0858852
-0.712072 -0.143668 0.0199211 -0.998899 0.0319649 0.0343439
-0.239752 0.471274 -0.738313 -0.299829 -0.0618506 -0.951986
0.0959534 -0.435736 0.500441 0.543766 -0.112524 0.831659
0.491416 0.691986 0.535911 0.422942 0.651519 0.629795
0.674204 -0.698672 -0.43165 0.586024 -0.678183 -0.443445
0.300965 -0.435431 0.422236 0.561672 0.0296224 0.82683
0.00706433 -0.0357693 1.15123 0.0230052 -0.200058 0.979514
0.340539 -0.231854 -0.522165 0.455543 0.142709 -0.8787
0.262957 0.533037 0.618175 0.535165 0.33936 0.773584
0.0829085 0.779454 0.582238 0.0529169 0.933705 0.354112
0.361266 0.0960917 -0.68006 0.410624 -0.0574491 -0.909993
-0.314271 -0.53679 -0.542786 -0.353499 -0.737965 -0.574844
0.333443 -0.607604 0.400369 0.233239 -0.872877 0.428586
-0.432566 -0.210059 -0.439876 -0.789442 0.0964107 -0.606207
0.551931 0.613331 0.0819735 0.43319 0.891285 0.134005
-0.112491 -0.67834 -0.831875 -0.218388 -0.580797 -0.784208
0.502838 0.775062 0.269377 0.221025 0.950691 0.217567
0.600306 -0.295336 0.324105 0.82466 0.111737 0.554482
0.601231 0.511302 -0.446862 0.802884 0.13291 -0.581131
0.610113 -0.488921 0.30716 0.850906 0.0798528 0.519213
0.747883 0.730619 -0.0968955 0.654069 0.749206 -0.104327
-0.339264 0.776328 0.514579 -0.214999 0.903823 0.369971
-0.568917 -0.6372 -0.140298 -0.475653 -0.876904 -0.069234
0.548988 -0.61302 -0.21897 0.441318 -0.881802 -0.166325
0.521739 -0.488032 0.424182 0.682909 -0.0165723 0.730315
-0.564943 -0.486915 -0.16395 -0.898622 -0.386661 -0.207297
-0.274847 0.291624 -0.724575 -0.33816 -0.152872 -0.928589
0.42518 -0.370001 0.318387 0.724492 0.187933 0.663169
-0.530836 0.628182 -0.280211 -0.424767 0.885554 -0.188062
-0.236721 -0.383926 -0.739569 -0.33989 0.106501 -0.934415
0.334738 -0.0532398 -0.695191 0.364547 -0.0421197 -0.930232
-0.176656 0.0680281 -0.757193 -0.179146 -0.0483592 -0.982633
0.147855 0.356309 -0.61561 0.180064 -0.21141 -0.960668
0.748781 0.682937 -0.264109 0.796269 0.527698 -0.295789
-0.693232 0.730418 0.224193 -0.579304 0.754599 0.308199
-0.709739 0.498602 -0.160016 -0.986934 0.0671077 -0.146484
0.710013 0.522816 -0.167058 0.975558 0.114553 -0.187519
0.145973 0.778283 -0.688422 0.0977115 0.935434 -0.339729
0.683228 -0.424584 -0.271029 0.948914 0.117011 -0.293038
0.271917 -0.349283 -0.565933 0.398855 0.248847 -0.882604
0.127172 -0.116042 0.932354 0.74652 -0.247527 0.617608
0.0746707 0.514641 -0.773948 0.176444 -0.00335849 -0.984305
0.007723 0.643632 -0.635471 0.037295 0.893569 -0.447374
-0.513538 0.221661 -0.563317 -0.696636 -0.149046 -0.701772
0.705041 0.605712 -0.390434 0.834013 0.322256 -0.447854
-0.248577 -0.574665 -0.787536 -0.313123 -0.302296 -0.900317
0.373658 0.448946 0.545988 0.595641 -0.0273794 0.802784
-0.431107 0.651189 -0.441474 -0.350956 0.89574 -0.272909
0.13878 0.178355 0.9791 0.72992 0.244536 0.638293
-0.129742 -0.287249 0.953094 -0.617842 -0.359372 0.699373
-0.71626 0.14473 -0.0349797 -0.996947 -0.00261249 0.0780386
0.544134 -0.752918 0.419363 0.390747 -0.814721 0.428424
-0.504007 -0.424394 0.210626 -0.877889 0.0337641 0.477671
0.712821 -0.0874204 -0.100194 0.996962 0.01128 -0.0770654
0.727 0.743219 0.0527877 0.593005 0.803321 0.0549611
0.217729 -0.122754 0.617642 0.802985 0.0807591 0.590502
-0.570913 -0.149336 -0.00710154 -0.999254 0.0382398 0.00548061
-0.40339 -0.741078 0.555662 -0.345219 -0.77088 0.53532
-0.582623 0.114153 -0.481056 -0.758736 -0.105282 -0.642834
-0.418269 0.0706865 -0.455969 -0.7295 -0.0811735 -0.679147
0.648562 0.015616 0.235785 0.896736 0.00716051 0.442508
0.0860539 0.370952 -0.773324 0.163243 -0.218151 -0.962165
0.114026 0.187281 -0.769373 0.134996 -0.0258324 -0.990509
0.304371 -0.661581 -0.547211 0.232899 -0.917259 -0.323102
0.0587357 0.483013 -0.632136 0.144648 0.286619 -0.947062
-0.454359 0.204032 -0.41356 -0.722541 -0.152979 -0.67419
-0.330005 0.627749 0.405514 -0.251896 0.865078 0.433807
-0.285884 -0.776099 0.481607 -0.193696 -0.939149 0.283693
-0.0873502 0.189662 0.803139 -0.686674 0.290705 0.666311
0.330094 0.595055 -0.529844 0.335026 0.833755 -0.438874
0.48382 -0.171618 -0.589123 0.63457 0.10723 -0.765391
0.338644 -0.426361 -0.69313 0.473142 0.165854 -0.865234
0.458635 -0.581385 0.276882 0.431146 -0.828428 0.35752
-0.75486 0.714142 -0.177636 -0.735672 0.655793 -0.169478
0.408763 -0.36332 -0.462411 0.677219 0.190697 -0.710639
-0.506209 -0.493404 -0.333035 -0.820278 -0.437992 -0.367841
-0.669736 0.543405 0.255086 -0.856226 0.207847 0.472944
-0.094292 0.249127 0.657701 -0.864229 0.0345526 0.501911
0.216204 0.0702739 -0.744912 0.219491 -0.06926 -0.973153
-0.380989 -0.0743109 -0.492023 -0.739013 0.0363982 -0.672708
-0.0352001 0.189305 -0.778522 0.0779099 -0.0440501 -0.995987
-0.717616 0.536027 0.0904633 -0.97637 0.0663143 0.205681
-0.682774 -0.0672122 -0.283029 -0.942887 -0.106146 -0.315748
-0.000149069 0.0684204 0.652702 -0.138791 -0.0552101 0.988782
-0.582972 0.769236 -0.172957 -0.274183 0.958692 -0.0757193
-0.591953 0.691846 -0.568333 -0.631839 0.598205 -0.492879
0.378007 0.766349 -0.512156 0.200629 0.956609 -0.211297
-0.0372468 -0.404425 -0.634803 0.00146674 0.196701 -0.980462
-0.429736 0.262819 0.316336 -0.668831 -0.117092 0.734135
0.504532 0.778186 -0.431752 0.269442 0.940435 -0.207321
-0.624933 -0.106791 -0.415232 -0.840454 -0.0585956 -0.538706
-0.656566 0.768023 -0.323287 -0.461456 0.868063 -0.183096
0.190249 0.732418 0.475148 0.151595 0.946342 0.285406
-0.201548 0.529417 0.472592 -0.344962 0.771633 0.5344
-0.440775 0.0146499 0.501612 -0.506869 0.131273 0.851969
-0.00437295 -0.587916 0.50882 -0.051306 -0.904666 0.423022
0.483167 0.692841 -0.667242 0.515839 0.611817 -0.599658
0.552811 0.2688 0.0787609 0.959544 -0.0995518 0.263373
-0.502344 0.770084 -0.372766 -0.254849 0.957694 -0.133693
-0.15801 -0.097707 -0.761308 -0.119956 0.0889956 -0.988782
-0.620359 -0.297378 -0.423314 -0.871722 0.136636 -0.470564
-0.713828 -0.744161 0.122108 -0.565331 -0.807852 0.166663
0.603151 0.775984 -0.16827 0.326622 0.941879 -0.0786251
0.42164 0.566362 -0.695578 0.569015 0.218714 -0.792708
0.513837 -0.0495202 0.432963 0.638924 0.0394611 0.768257
0.69201 -0.539308 0.195323 0.935795 -0.157934 0.315189
0.598541 0.572037 0.409931 0.655536 0.315098 0.686284
0.561313 -0.108779 -0.167031 0.966796 0.0415037 -0.252157
-0.0715106 -0.419231 0.505 -0.620622 -0.218135 0.753157
0.606158 0.698505 -0.537476 0.61891 0.628014 -0.471751
-0.632435 0.423515 -0.401357 -0.8789 -0.0677315 -0.472173
-0.436234 -0.583316 0.571986 -0.500023 -0.435911 0.748304
0.152292 0.636193 0.705152 0.291237 0.599267 0.745694
0.562545 0.441668 0.0328025 0.969459 -0.193741 0.150377
-0.343423 -0.770723 -0.667203 -0.238434 -0.864095 -0.443271
0.284659 -0.00386341 0.431844 0.587151 0.041809 0.808397
0.0327054 0.208106 -0.634789 0.134768 -0.0463734 -0.989791
0.656328 0.116987 -0.344332 0.896292 -0.0827078 -0.435683
-0.528949 -0.155263 0.158998 -0.947861 0.0400865 0.316152
0.616794 -0.605618 -0.534793 0.664163 -0.454926 -0.593237
0.336478 0.325253 0.398632 0.615534 -0.172777 0.768938
0.0215489 -0.307936 1.04152 0.145221 -0.461767 0.875032
0.700055 0.0958072 -0.202814 0.963049 -0.0995039 -0.250271
-0.50012 0.338096 -0.344793 -0.862148 -0.157111 -0.481681
-0.508097 0.604523 -0.655402 -0.632315 0.343904 -0.694196
0.679914 -0.681435 0.314255 0.681457 -0.602117 0.416019
-0.665872 0.59857 -0.467125 -0.829193 0.317262 -0.4602
-0.676488 -0.492706 -0.299524 -0.943918 -0.0218197 -0.329459
0.694739 0.148372 0.101248 0.96926 -0.0329889 0.243818
0.387105 0.78074 0.464936 0.217169 0.929177 0.299111
-0.458771 0.403772 0.280607 -0.726646 -0.205448 0.655574
0.550721 -0.0660491 -0.518175 0.748335 0.0233327 -0.66291
0.41477 -0.605026 -0.456536 0.358033 -0.867006 -0.346574
0.713245 0.0549535 -0.0420611 0.999185 -0.0291911 0.027872
-0.607615 -0.771776 0.247343 -0.387172 -0.877759 0.282199
-0.300829 0.667676 -0.78575 -0.312409 0.544265 -0.778573
0.555079 -0.437519 -0.196878 0.963826 0.147157 -0.222227
0.610784 -0.610868 0.420348 0.69856 -0.357679 0.619742
-0.683197 -0.343522 -0.281105 -0.936136 0.137537 -0.323625
0.231911 0.495727 -0.586108 0.329285 0.415377 -0.847958
0.682115 0.433383 -0.275006 0.943554 -0.0829849 -0.320655
-0.459117 0.396811 0.486567 -0.591928 -0.201108 0.780498
0.486176 -0.268077 0.236039 0.834695 0.0647164 0.546897
-0.51827 -0.779283 -0.444543 -0.307702 -0.93065 -0.198017
-0.304745 0.135659 -0.548787 -0.617677 -0.0828056 -0.78206
0.0897755 0.235567 0.501263 0.781942 -0.140484 0.607315
-0.419366 0.573285 0.576427 -0.505874 0.328072 0.797784
0.568092 -0.104617 -0.00800314 0.997681 0.0465217 0.0496737
-0.181385 -0.305883 0.629144 -0.740822 -0.0207412 0.671382
0.01989 0.640617 -0.846019 0.0805709 0.474663 -0.876472
0.509396 0.10789 0.193725 0.863143 0.028144 0.504174
-0.338092 0.44724 0.399512 -0.557888 0.2498 0.79143
-0.0811287 0.582637 0.706066 -0.279773 0.587708 0.759162
-0.714387 0.412178 -0.00256894 -0.985065 -0.133301 0.10899
0.0687261 -0.457832 0.807235 0.293337 -0.411473 0.862927
0.395932 -0.564868 -0.709476 0.540637 -0.341829 -0.768677
0.527415 0.00222615 -0.282196 0.903439 -0.00371011 -0.4287
-0.0129167 0.349225 -0.635705 0.123822 -0.19206 -0.97354
-0.368313 0.553894 -0.723151 -0.492079 0.203805 -0.846358
-0.0235235 -0.241888 -0.635706 0.0677998 0.185253 -0.980349
-0.437447 0.0914452 0.307372 -0.671074 0.0398472 0.740319
-0.47704 -0.649162 -0.686075 -0.510386 -0.44315 -0.73697
-0.431869 0.6707 0.313974 -0.257499 0.905737 0.336651
-0.253804 0.160931 0.606037 -0.813996 -0.0552517 0.578236
-0.562912 -0.176871 -0.175694 -0.957941 0.00191433 -0.286959
0.228639 -0.15439 0.460634 0.582791 0.0977265 0.806724
0.450027 0.246015 0.288444 0.730731 -0.0853552 0.677309
-0.607388 -0.712455 0.399228 -0.532658 -0.662407 0.526776
0.253419 0.215497 0.449326 0.619094 -0.137306 0.77322
-0.638474 -0.0933182 0.26263 -0.887379 0.0532899 0.45795
-0.598342 0.582007 0.417416 -0.6495 0.303891 0.696993
-0.578065 -0.778336 -0.303321 -0.330205 -0.939416 -0.0919887
0.515389 -0.0420339 0.181432 0.887988 -0.0340924 0.458601
0.150031 0.641263 -0.615022 0.131307 0.885191 -0.446314
0.617422 -0.774948 -0.128299 0.318816 -0.94695 -0.0405263
0.509344 -0.512292 -0.320857 0.592102 -0.708131 -0.384663
0.506102 0.271793 0.441006 0.629059 -0.140864 0.764488
-0.621624 0.0667224 0.293449 -0.82995 0.0583024 0.554783
0.172145 0.187699 -0.608512 0.241222 -0.0791321 -0.967238
-0.571189 -0.459092 -0.00930848 -0.997292 -0.0634639 0.0371584
0.694757 -0.337866 0.101166 0.956692 0.13647 0.25713
0.0107817 0.0355843 -0.635345 0.15607 0.0238532 -0.987458
-0.101649 0.123525 -0.626716 0.0183188 -0.0221306 -0.999587
0.0217281 0.375767 0.978756 0.0710373 0.642671 0.762842
-0.359995 0.152571 -0.68248 -0.529815 -0.0831889 -0.844023
-0.0741289 0.763217 0.509843 -0.0868034 0.960783 0.263366
-0.632062 0.222506 0.27511 -0.850123 -0.0614585 0.522985
0.13796 0.302338 0.895799 0.700368 0.392048 0.596475
-0.543829 0.132122 0.119083 -0.956506 0.0486411 0.28763
0.101192 -0.206437 0.808738 0.615414 -0.240386 0.750653
0.133877 -0.591356 0.702357 0.294785 -0.568682 0.767921
0.591324 0.779338 0.140966 0.289511 0.944399 0.155865
0.708126 0.709653 0.220394 0.629206 0.71475 0.305338
-0.184314 -0.368969 -0.605667 -0.329996 0.154384 -0.931272
0.509796 0.221667 -0.320876 0.874671 -0.117216 -0.470332
0.431214 -0.725033 -0.680718 0.395827 -0.769555 -0.501105
-0.0911044 -0.768618 0.523469 -0.10176 -0.953864 0.282468
-0.166649 -0.512188 -0.611288 -0.23504 -0.661378 -0.712275
0.571181 0.364642 -0.49243 0.763979 -0.104298 -0.636756
0.235816 -0.779909 0.542075 0.144722 -0.930575 0.336282
-0.11357 0.450578 -0.624762 -0.094342 -0.116965 -0.988645
-0.543115 0.775584 0.223909 -0.255685 0.939573 0.227655
-0.0435843 -0.200676 0.736549 -0.435597 -0.234297 0.869115
-0.655942 0.778997 -0.0485631 -0.390351 0.920534 -0.0155927
0.217727 0.758048 0.624338 0.223854 0.851745 0.47373
0.066542 -0.725312 -0.813595 0.00238638 -0.731868 -0.681443
0.56578 -0.722055 0.00987221 0.290094 -0.956536 0.0297359
-0.297969 -0.214966 -0.714718 -0.453046 0.0685069 -0.888851
-0.534929 0.27857 0.144832 -0.917874 -0.0703935 0.390579
-0.535088 0.699933 0.492187 -0.415057 0.662832 0.623203
-0.0487485 -0.39163 -0.777079 -0.0501334 0.165686 -0.984903
-0.251999 0.734169 0.642222 -0.34132 0.783798 0.518808
-0.0740491 -0.0724755 0.504242 -0.835789 0.0836633 0.542639
-0.202325 -0.360507 0.472499 -0.605854 0.0316086 0.794948
0.509654 0.386824 -0.321086 0.862818 -0.112227 -0.492899
-0.57021 0.558544 -0.124214 -0.570526 0.815796 -0.0947423
-0.608233 -0.775598 -0.143479 -0.318657 -0.947143 -0.0371236
-0.53243 0.468 -0.276222 -0.915359 0.217179 -0.339045
-0.676698 0.336786 0.174777 -0.931955 -0.134734 0.336609
-0.265367 -0.637836 0.675245 -0.456357 -0.515473 0.725276
-0.641108 -0.274232 0.257581 -0.907176 0.0617217 0.4162
0.549699 -0.779466 0.276713 0.306897 -0.926886 0.216095
-0.715586 0.294337 -0.104051 -0.996962 -0.0770783 0.0111877
0.442306 -0.107896 0.29756 0.696479 0.0296909 0.716963
-0.540217 0.435125 -0.53473 -0.743523 -0.116706 -0.658448
-0.570641 0.293138 -0.00317265 -0.989281 -0.0847166 0.118938
0.0615233 -0.134451 0.505247 0.765567 0.086124 0.637566
0.0114179 0.465228 0.838284 0.0205937 0.533473 0.845566
-0.54154 -0.376638 -0.252444 -0.918379 0.194058 -0.344851
-0.479182 0.781574 -0.514677 -0.310771 0.917432 -0.248474
0.315363 -0.407697 0.577773 0.618633 0.0857722 0.780984
-0.0453121 0.00938529 -0.777543 0.0812842 0.069622 -0.994256
0.0939514 -0.344712 -0.627672 0.244742 0.265243 -0.932603
-0.196418 0.024863 0.474516 -0.736422 0.0726342 0.672613
-0.419509 -0.649559 -0.454402 -0.314417 -0.906628 -0.281367
0.0589622 0.149795 0.825442 0.519428 0.324525 0.790493
-0.372062 0.299865 -0.499526 -0.643818 -0.21521 -0.734291
0.202174 -0.31622 0.471052 0.609144 0.158496 0.777061
0.679991 0.559131 0.263924 0.841947 0.229486 0.488326
0.432199 0.640208 -0.436964 0.361036 0.884353 -0.295927
0.102034 -0.621668 -0.62626 0.10436 -0.875313 -0.47216
-0.313496 -0.261015 0.416227 -0.550183 0.146647 0.822066
0.512129 -0.403836 0.188776 0.887011 0.144211 0.438651
-0.43173 -0.195441 -0.635076 -0.663654 0.0904239 -0.742554
-0.533739 -0.367909 -0.541942 -0.74824 0.225931 -0.623773
-0.571054 0.464686 -0.00574802 -0.983104 -0.1436 0.113519
-0.706997 0.548505 -0.323171 -0.908356 0.21921 -0.35614
-0.355961 -0.00207567 0.386265 -0.509034 0.141983 0.848955
0.557455 0.153959 -0.185599 0.956249 -0.102838 -0.273883
0.268534 -0.0603372 -0.568079 0.33053 -0.0320405 -0.943251
0.268885 -0.776597 -0.639367 0.203058 -0.935466 -0.28926
-0.165932 -0.204192 -0.61159 -0.298406 0.0848046 -0.950664
0.710375 0.380543 0.00655526 0.985767 -0.139639 0.0936165
-0.448984 0.336368 -0.621709 -0.614124 -0.224206 -0.756692
-0.299861 0.596523 0.653806 -0.508217 0.445146 0.737265
0.518484 0.375595 0.175467 0.873072 -0.203819 0.442948
-0.320204 -0.197343 -0.538596 -0.628675 0.0781191 -0.773734
-0.143199 -0.306009 0.804924 -0.681386 -0.314245 0.661032
0.205163 0.37361 0.470781 0.644152 -0.157025 0.748606
-0.000910577 -0.50445 0.686833 -0.022908 -0.525134 0.850711
-0.203102 -0.454882 0.622978 -0.59042 -0.274595 0.758948
0.0570165 -0.775126 0.541516 0.00406057 -0.954973 0.296665
-0.598098 0.745557 0.366384 -0.411222 0.784768 0.46372
-0.744725 -0.693754 -0.281125 -0.752803 -0.619442 -0.222663
0.363032 0.449394 -0.504877 0.611987 -0.0670724 -0.788018
0.677573 0.445439 0.161955 0.938755 -0.155525 0.307492
0.51024 -0.15523 -0.319253 0.89291 0.093589 -0.440402
0.0600432 -0.108294 -0.632478 0.222765 0.0645659 -0.972732
0.479591 0.532247 0.486506 0.599964 0.237951 0.763821
-0.155184 0.775548 -0.724883 -0.0837469 0.902165 -0.423185
-0.128123 -0.271223 -0.767797 -0.114303 0.134209 -0.984339
-0.765395 -0.596545 0.0754948 -0.937662 -0.300315 0.174929
0.0977097 -0.216009 0.645025 0.864148 0.0242364 0.502654
-0.778841 -0.655169 -0.137394 -0.86898 -0.479316 -0.123002
-0.370072 -0.544125 -0.710574 -0.437454 -0.26579 -0.859063
-0.565489 -0.601462 0.0334661 -0.523446 -0.847554 0.0875022
0.312602 -0.00624825 0.579611 0.622985 0.0390325 0.781259
0.682588 0.267917 -0.273549 0.93147 -0.113839 -0.345549
-0.0540472 -0.74421 0.669 -0.123742 -0.834165 0.537455
0.245836 -0.265222 0.608078 0.7075 0.0996958 0.699646
0.513893 -0.311317 -0.31131 0.895611 0.166214 -0.412617
-0.114961 0.407908 0.497187 -0.677456 -0.0673692 0.732472
0.127292 0.183875 0.640489 0.89323 -0.0591865 0.445687
-0.727333 -0.749841 -0.0232393 -0.581403 -0.813484 0.0146128
-0.120444 0.438218 0.705577 -0.486314 0.336416 0.806426
-0.192569 -0.163051 0.626646 -0.827023 0.0863489 0.555496
0.567307 -0.259712 0.00107102 0.987523 0.0715421 0.140285
0.698233 -0.0630227 0.0870015 0.979473 0.0209375 0.200485
0.531471 -0.412945 -0.541178 0.724224 0.0750193 -0.685472
-0.610862 -0.417081 0.311875 -0.847135 0.00932252 0.531296
0.0458521 -0.293943 0.506859 0.772271 0.158137 0.615296
-0.110596 -0.0660387 -0.62538 -0.0838107 0.0806727 -0.993211
0.269366 0.159562 0.598808 0.756464 -0.12728 0.641531
-0.716132 -0.00639797 -0.0246962 -0.996949 -0.0609757 0.0487311
0.70958 0.337858 -0.138352 0.987383 -0.12755 -0.0938384
0.0701137 -0.389266 0.933073 0.330236 -0.518704 0.7886
-0.483051 -0.478971 0.465504 -0.626828 -0.18054 0.757953
-0.389308 -0.655184 0.357679 -0.26587 -0.895335 0.357334
-0.573792 -0.277874 -0.0732526 -0.988952 0.118044 -0.0896616
0.0119945 0.71389 0.697704 -0.0397914 0.786724 0.616021
0.730761 -0.595056 -0.319067 0.882841 -0.304693 -0.357426
0.495458 0.117347 -0.578663 0.678805 -0.03918 -0.733272
0.663955 -0.193472 0.199222 0.924892 0.0437897 0.377699
-0.520359 0.608648 0.178868 -0.436489 0.85277 0.286812
0.570023 0.177614 -0.0394127 0.996325 -0.0757437 0.0399936
-0.10525 -0.21486 0.4994 -0.766098 0.107191 0.633723
-0.429746 -0.325341 0.316336 -0.766091 0.0522837 0.640602
0.712021 -0.361037 -0.116454 0.986791 0.14485 -0.0725413
-0.252174 -0.132917 0.45105 -0.611017 0.178477 0.771235
0.427476 0.397897 0.31519 0.684575 -0.160135 0.711136
-0.0903903 0.540854 -0.798907 -0.0375005 0.173886 -0.984051
0.305045 0.664517 -0.780662 0.330229 0.526379 -0.783501
-0.0788743 -0.651388 -0.630903 -0.094196 -0.908678 -0.406733
-0.698706 -0.311353 0.0972996 -0.981822 0.119983 0.147069
-0.0300396 -0.0891337 0.853248 -0.256772 -0.300244 0.918652
0.0993167 -0.390887 -0.771816 0.165557 0.212204 -0.9631
-0.477631 -0.155803 0.470853 -0.621285 0.167945 0.765375
-0.531415 0.114715 0.417456 -0.632162 -0.0019816 0.774834
0.0170403 0.588186 0.50838 -0.0186541 0.89595 0.443763
0.255747 -0.517214 -0.574564 0.405403 -0.651152 -0.641599
0.104202 -0.0981781 -0.771007 0.248198 0.0563145 -0.967071
0.570133 0.586302 -0.0841576 0.508517 0.859132 -0.0574711
0.148512 0.525326 0.48896 0.276155 0.80368 0.527103
-0.367907 -0.356588 -0.678143 -0.504397 0.173552 -0.845851
-0.594807 0.776663 0.0877437 -0.287336 0.949564 0.125565
-0.245044 0.472387 0.609101 -0.606476 0.143575 0.782031
-0.53908 -0.156418 -0.535674 -0.765779 0.0408322 -0.641806
-0.258037 -0.0347203 -0.575069 -0.520118 0.00761009 -0.85406
0.658732 -0.245587 -0.340494 0.920981 0.143116 -0.36237
0.39372 -0.774811 0.490666 0.195705 -0.890031 0.411758
0.582048 -0.221629 -0.477398 0.814241 0.161439 -0.557628
-0.664972 -0.519031 0.207745 -0.890322 -0.226955 0.394739
-0.694576 -0.0353058 0.113734 -0.984941 0.00335228 0.172857
-0.654514 -0.579905 0.342065 -0.73948 -0.379933 0.555716
0.300312 -0.663641 -0.783107 0.408932 -0.586687 -0.69898
-0.56119 -0.0638608 0.38245 -0.724456 0.0923652 0.683104
-0.199429 0.172716 0.473472 -0.70975 -0.0945699 0.698077
-0.580334 0.351005 0.357754 -0.772792 -0.148636 0.617008
0.516424 -0.234217 0.4302 0.676898 0.0834172 0.731335
0.167168 -0.610544 -0.824055 0.204866 -0.39568 -0.895247
0.619467 -0.454242 -0.419389 0.850898 -0.00295629 -0.525323
0.361282 0.145506 0.378853 0.626087 -0.0427615 0.77858
-0.101379 0.388486 0.89685 -0.516643 0.536957 0.666901
0.0784764 0.502376 0.646349 0.237751 0.470396 0.849825
-0.650932 0.0549517 -0.364283 -0.885624 -0.0697466 -0.459135
0.29602 0.777512 -0.628836 0.194221 0.929652 -0.313091
0.120448 0.0679264 1.07457 0.672098 -0.00776831 0.740422
-0.485289 -0.527625 -0.605331 -0.667815 -0.165605 -0.725671
-0.116804 0.0600292 0.923047 -0.763551 -0.0204964 0.645423
0.501963 0.509573 -0.570857 0.698041 0.135422 -0.703136
0.426529 -0.557916 0.561738 0.497669 -0.272762 0.823363
-0.615286 0.256389 -0.431067 -0.835055 -0.150014 -0.52932
-0.194718 0.677839 0.475254 -0.185734 0.920094 0.344863
-0.698035 0.366941 -0.22734 -0.98087 -0.0908655 -0.172154
-0.71713 -0.37804 -0.0437295 -0.988031 0.151093 -0.0310785
-0.35997 -0.444272 0.555717 -0.57995 -0.08737 0.809954
0.619757 -0.779028 0.140446 0.351807 -0.929644 0.109517
-0.291207 0.780434 -0.64665 -0.174242 0.928523 -0.327848
-0.128583 0.133827 1.04953 -0.663291 0.177185 0.727084
0.245989 0.535863 -0.755164 0.317401 0.0301082 -0.947813
-0.431078 -0.113554 0.314856 -0.669602 0.119771 0.732999
0.423877 0.322768 -0.446089 0.714756 -0.108259 -0.690944
0.10492 -0.736669 0.674873 0.106327 -0.819097 0.563715
0.38684 0.635243 0.616758 0.535147 0.47645 0.697576
0.738872 -0.724736 -0.196724 0.64692 -0.752036 -0.126235
-0.740826 0.7279 0.0693578 -0.675017 0.727206 0.124593
0.168116 0.654816 -0.825737 0.215845 0.479122 -0.850796
0.642609 0.706362 0.354071 0.507071 0.708142 0.491339
0.771416 0.593306 -0.0121486 0.956929 0.288966 0.0280173
-0.134866 0.33358 -0.766698 -0.0985493 -0.177396 -0.979193
-0.567398 0.413401 -0.148356 -0.980639 -0.181938 -0.0724259
-0.676797 0.210165 -0.299838 -0.941519 -0.0642318 -0.330781
0.565401 -0.26516 -0.144205 0.980178 0.134285 -0.145664
