ply
format ascii 1.0
element vertex 500
property float x
property float y
property float z
property float nx
property float ny
property float nz
element face 0
property list uchar int vertex_index
end_header
-0.395859 -0.35866 -0.445699 0.0197805 -0.388115 -0.921399
0.277407 -0.182219 0.0992203 -0.0946013 0.668984 0.737232
0.397169 0.0513702 0.150074 0.47597 -0.730916 0.489096
-0.106117 -0.313611 0.32296 0.47629 0.687161 0.548596
-0.0956932 -0.907496 0.125554 -0.411265 -0.794791 -0.446283
-0.330776 -0.414066 0.234167 -0.844022 -0.468307 -0.26137
0.254183 -0.109508 -0.196091 -0.967172 -0.0681671 -0.244809
-0.470085 0.445857 0.313793 -0.592471 0.150513 0.791406
-0.468811 0.190489 -0.333684 -0.66427 -0.0301622 -0.746884
-0.116703 0.573731 -0.306996 -0.0676962 0.145566 -0.98703
-0.0740665 -0.252918 -0.163423 0.504525 0.428048 -0.74982
-0.287499 -0.152278 -0.434215 0.421099 0.326408 -0.846247
0.208615 0.468736 0.269022 -0.0564753 -0.134237 0.989339
-0.0806899 -0.58191 0.0325358 -0.482762 -0.477946 -0.733832
0.395381 -0.412466 0.260286 0.887211 -0.388861 -0.24828
0.272452 -0.468922 0.318684 0.365122 -0.92457 0.108884
0.455939 0.6649 0.218899 0.669737 0.699122 0.250362
0.523396 0.578996 0.321503 0.695744 0.417341 0.584608
0.470059 0.569515 -0.187185 0.832015 0.521027 -0.190479
-0.406856 0.643954 -0.211784 -0.714768 0.617344 -0.328623
-0.2788 -0.387738 0.148268 -0.83183 -0.521409 -0.190242
-0.470784 0.112129 -0.193746 -0.945577 -0.00200048 -0.325393
0.0669345 -0.518158 0.0657913 0.643526 -0.560089 -0.521704
0.111818 0.0589239 -0.207935 -0.406313 -0.889191 -0.210354
-0.489979 -0.250188 -0.383945 -0.639741 0.190457 -0.74462
0.211534 -0.305552 0.465242 -0.330232 0.426063 0.842269
-0.0521397 -0.253343 -0.0504031 0.304437 0.835804 -0.456891
-0.0325756 -0.619788 -0.114541 -0.0587799 -0.444157 -0.894019
-0.526153 0.243812 -0.263181 -0.86535 -0.0278432 -0.500393
0.0669445 -0.740233 0.214668 0.963508 -0.26705 0.0183719
0.608753 0.349758 0.299384 0.819655 -0.035802 0.571738
-0.386869 -0.354943 0.377732 -0.989782 0.0606922 0.12903
0.0671551 -0.69528 0.327046 0.732446 -0.114502 0.671127
0.506952 0.194238 -0.164844 0.979138 -0.19295 -0.0637115
-0.522846 0.330792 -0.216131 -0.918499 0.0760841 -0.388036
-0.193594 0.749709 -0.0152463 -0.359069 0.93327 -0.00879959
0.562721 -0.320499 -0.21624 0.874256 -0.24142 -0.42118
0.273436 0.300368 0.256173 -0.0822104 -0.0147612 0.996506
0.214286 -0.263229 -0.220237 -0.918731 -0.155295 -0.363067
0.296736 -0.133984 -0.378818 -0.419187 0.156788 -0.894259
0.12897 -0.479389 0.142126 0.724525 -0.622682 -0.295518
0.746829 -0.360804 -0.161253 0.93778 -0.196267 -0.286441
-0.0248427 0.214376 0.256725 -0.00711408 -0.139137 0.990248
0.225934 0.579642 0.296947 0.0241737 0.0353232 0.999084
-0.179716 0.668486 0.324435 -0.12828 0.329718 0.935324
-0.397008 0.0918557 0.302774 -0.323161 -0.597046 0.734236
-0.203818 -0.459326 0.207268 -0.68276 -0.69982 -0.20998
-0.2878 -0.0604075 -0.309341 0.336615 0.0600237 -0.939727
0.380753 -0.306195 0.436623 0.747389 0.248937 0.615987
0.424547 0.559252 0.32318 0.42369 0.306173 0.852493
-0.526851 -0.218971 -0.2873 -0.78578 0.33589 -0.519353
-0.751812 -0.234619 -0.0438314 -0.932003 0.21813 0.289465
0.183702 -0.23836 0.194745 -0.188387 0.936831 0.294717
-0.170537 0.0378645 -0.322362 0.354716 -0.484211 -0.799823
0.32239 -0.494374 -0.200158 -0.468068 -0.8656 0.177901
-0.409626 0.53211 0.319508 -0.39501 0.246695 0.884934
-0.121416 -0.530734 0.127132 -0.829091 -0.468434 -0.305249
-0.198862 -0.234682 -0.27203 0.872263 -0.118864 -0.474371
-0.119482 -0.387213 0.391568 0.517651 0.0972446 0.850048
0.449527 -0.10677 0.0375707 0.665408 0.0746044 0.742742
0.389354 -0.473456 0.425161 0.64087 -0.65678 0.397398
-0.323483 0.693518 -0.189984 -0.598341 0.749467 -0.28335
0.416096 -0.293617 -0.043274 0.302602 -0.55142 0.777411
-0.477313 0.189914 -0.0746974 -0.993532 -0.11254 0.0151121
0.458919 0.0287776 -0.297646 0.788384 -0.0735098 -0.610775
0.296981 0.712427 -0.0463341 0.44742 0.893778 -0.0312437
-0.199232 0.513247 -0.303567 -0.0720688 0.0668797 -0.995155
-0.0184597 0.351472 0.255988 -0.00809425 -0.0495017 0.998741
-0.0673776 -0.350329 -0.160009 0.15507 -0.229559 -0.960862
0.46623 0.11956 -0.00502621 0.952354 -0.299656 0.0568149
-0.0600032 0.590062 0.295477 0.0338489 -0.121031 0.992071
0.494676 0.228147 -0.070236 0.978404 -0.206702 -0.000197891
-0.169624 -0.406035 0.100949 -0.711605 -0.638053 -0.294119
-0.410241 0.640722 0.315029 -0.545527 0.497775 0.674255
-0.467749 0.0907358 -0.0982509 -0.998894 -0.0295262 0.0366012
0.500583 -0.315578 0.00179336 0.382612 -0.369984 0.846593
-0.124799 0.50284 0.272249 0.0460347 -0.182163 0.98219
-0.144324 0.787328 0.231803 -0.199102 0.900634 0.386285
0.367456 0.476875 0.289116 0.091575 0.000587469 0.995798
-0.277578 -0.258663 -0.334128 0.788354 -0.0758339 -0.61053
0.275532 -0.234094 0.488905 -0.0593982 0.740173 0.669788
0.379453 0.342669 0.263278 -0.0132614 -0.0578222 0.998239
0.169014 0.73816 -0.324601 0.117975 0.665556 -0.736965
0.344011 -0.240604 0.308452 0.536326 0.842406 0.0520235
-0.154776 0.184142 -0.349255 0.0131591 -0.0858705 -0.996219
0.0528994 0.783889 0.0928519 0.0558735 0.998336 0.0142839
0.203534 0.146075 0.284688 -0.0886593 -0.317565 0.944083
-0.35857 -0.467474 -0.38906 0.388462 -0.78141 -0.48836
-0.0850722 0.784043 -0.0262329 -0.134037 0.990935 -0.00908774
0.446574 -0.485092 -0.398058 0.249075 -0.718064 -0.649882
-0.498157 0.246245 -0.157834 -0.980554 -0.056898 -0.187819
-0.180119 -0.38515 0.493006 0.365276 -0.139549 0.92038
0.455409 0.419457 0.2935 0.439899 0.0833008 0.894175
-0.0679656 -0.41709 0.303323 0.186564 0.165958 0.968324
0.515407 0.112011 -0.26016 0.922055 -0.174963 -0.345257
0.357199 -0.406741 -0.0897558 -0.104059 -0.91729 0.384384
0.334585 -0.285083 0.549245 0.246341 0.341459 0.90704
-0.00667621 -0.776754 0.000443536 0.190398 -0.2953 -0.936241
-0.167965 -0.483641 0.381371 0.0799749 -0.690398 0.718996
-0.261914 0.46208 0.273505 0.0736098 -0.132261 0.988478
0.113596 0.15383 -0.371401 -0.118427 -0.282255 -0.952002
-0.347597 0.289067 0.265781 -0.069037 -0.132503 0.988775
-0.082909 0.0667383 -0.160481 0.31787 -0.946885 -0.048659
-0.571992 -0.193086 0.0246922 -0.588727 0.240227 0.77181
-0.231508 -0.121693 -0.25563 0.864753 -0.0599625 -0.498605
-0.0689483 -0.983625 0.0700736 -0.250102 -0.907237 -0.338186
-0.0867916 0.0847597 -0.016285 0.268572 -0.963154 0.0142757
0.484933 0.414817 -0.340821 0.589851 0.155055 -0.792486
-0.957621 -0.343752 -0.0292088 -0.997004 0 0.0773514
0.343175 -0.310577 0.155391 0.976702 -0.105349 0.18696
0.397023 0.631747 -0.0254914 0.6832 0.727213 -0.0663211
0.40279 -0.262715 -0.479565 0.250034 0.183354 -0.950718
-0.00438758 0.456127 0.26526 0.0116942 -0.139446 0.990161
0.0898942 0.410354 -0.322973 -0.0423535 0.0649043 -0.996992
-0.494917 -0.244786 0.069069 -0.443449 -0.184212 0.877165
-0.0700767 0.0691111 0.0879466 0.1372 -0.988614 0.0617949
0.564458 0.239518 0.297653 0.725228 -0.232522 0.648057
0.433444 -0.225244 0.0634356 0.572203 -0.00513174 0.820096
0.301262 0.133392 0.283154 0.0220389 -0.387217 0.921725
-0.472224 -0.358455 -0.0632042 -0.199538 -0.783464 0.58853
0.281051 -0.0215151 -0.0346098 -0.644846 -0.492137 0.584786
-0.682551 -0.225016 -0.198493 -0.884965 0.187673 -0.426164
-0.137178 0.287356 0.249786 0.0487839 -0.018037 0.998646
-0.410773 -0.06228 -0.317997 -0.495064 0.34014 -0.79951
0.547035 -0.169385 -0.0899051 0.86646 0.443 0.230211
0.495481 -0.424268 -0.174111 0.399986 -0.908892 0.118015
0.125365 -0.2293 -0.244709 -0.812112 -0.0692879 -0.579373
0.115577 0.77757 -0.135475 0.153506 0.977049 -0.147688
0.555908 0.348559 -0.31831 0.832865 0.0553622 -0.550701
0.519674 0.513448 -0.254171 0.85088 0.368745 -0.374208
-0.663708 -0.202771 -0.0992135 -0.971184 0.22875 0.0668883
-0.373597 0.683501 0.209688 -0.626578 0.716844 0.305834
-0.114601 -0.628256 0.15162 -0.924355 -0.252117 -0.286364
0.326051 0.579588 0.313188 0.164842 0.209523 0.963809
0.120675 -0.275842 -0.148348 -0.577545 0.1157 -0.808118
0.133971 -0.223621 -0.0191119 -0.518034 0.83784 -0.172234
-0.516892 0.329495 0.313676 -0.734674 -0.120884 0.667564
-0.334313 -0.252745 0.389769 -0.654071 0.699197 0.288642
-0.392852 0.606962 0.0294325 -0.760989 0.64591 -0.0607857
0.448425 -0.33889 -0.423064 0.391174 -0.0908725 -0.915819
0.43641 -0.541816 -0.239789 0.144072 -0.986936 0.0721182
-0.408397 0.101047 0.203829 -0.520573 -0.628984 0.577394
0.13479 0.628786 0.305779 0.031802 0.120373 0.992219
0.333166 -0.331416 -0.481091 -0.245429 -0.058752 -0.967633
-0.467015 0.483433 -0.110406 -0.932148 0.350573 -0.0905438
-0.0418416 -0.876749 -0.0906918 0.0694636 -0.355264 -0.932182
-0.56275 0.40027 0.228525 -0.957185 0.123752 0.261691
0.536572 0.31094 0.0402871 0.9832 -0.0833176 -0.162408
0.34876 -0.552714 -0.286526 -0.31095 -0.948388 -0.062215
0.487172 -0.342139 -0.299833 0.804689 -0.220946 -0.551052
-0.150896 0.40416 0.255941 0.0510803 -0.117637 0.991742
-0.287015 0.267091 -0.311449 -0.109353 0.127445 -0.985799
-0.0463276 0.791413 0.191604 -0.0429079 0.957868 0.283987
0.0362523 -0.848776 0.275826 0.495224 -0.74314 0.449995
0.19829 0.026763 0.217468 -0.163858 -0.825664 0.539843
0.153349 0.77914 0.206306 0.174319 0.930061 0.32342
-0.576225 -0.285561 -0.228645 -0.878336 -0.0863414 -0.470183
-0.452908 -0.153366 -0.338203 -0.620184 0.430325 -0.655891
-0.40118 0.294061 -0.310689 -0.482091 0.0654912 -0.87367
-0.456625 -0.504201 -0.24414 -0.131598 -0.990911 0.027872
0.715501 -0.267266 -0.0202637 0.808348 0.226067 0.543569
-0.519549 0.179657 0.284317 -0.680566 -0.441736 0.58455
-0.505628 0.389046 0.0884075 -0.98627 0.122658 -0.110572
-0.520522 -0.355105 -0.275999 -0.834383 -0.418877 -0.358255
0.555169 0.345605 -0.220427 0.966105 0.0431114 -0.254525
-0.232819 0.763827 -0.25542 -0.341091 0.790901 -0.508067
0.378059 0.458732 -0.322283 0.274378 0.143762 -0.950815
-0.773725 -0.276172 -0.227675 -0.769639 0.13374 -0.624315
-0.325227 -0.422495 -0.18938 0.357993 -0.929683 0.0867739
-0.330214 -0.416186 0.546603 -0.392296 -0.310902 0.865704
0.217525 -0.261238 0.288013 -0.110621 0.96361 0.243347
-0.112535 -0.67659 0.236659 -0.955716 -0.0859074 0.281472
0.299276 0.729956 -0.236151 0.396233 0.830406 -0.391696
-0.0873953 0.139812 0.278084 0.0504857 -0.385229 0.921439
0.222492 0.0159958 -0.217911 -0.742358 -0.606132 -0.285498
0.0556714 0.796538 0.238016 0.0831417 0.902575 0.422429
0.449688 0.0717837 -0.089653 0.984798 -0.153817 0.0806995
-0.304335 -0.230612 0.144294 -0.548192 0.497251 0.672479
0.378844 0.637745 -0.339804 0.410485 0.480173 -0.775201
0.461517 0.550427 -0.0321662 0.835242 0.543299 -0.0848347
-0.441045 0.252026 0.307362 -0.425582 -0.270463 0.863556
0.368393 0.701884 0.141953 0.54846 0.836021 0.0161389
-0.260117 -0.345664 0.550686 0.000471306 0.0955853 0.995421
0.339256 0.222014 0.261076 0.0129794 -0.108058 0.99406
0.421042 -0.415643 -0.477321 0.214528 -0.38916 -0.895842
-0.241638 0.0416241 0.179056 0.0547843 -0.831002 0.553565
0.272333 -0.233297 0.378455 -0.00685097 0.926287 0.376756
-0.463289 0.463712 -0.00492741 -0.94076 0.329663 -0.0793287
-0.119032 0.047465 0.172159 0.119269 -0.917028 0.380572
0.367399 -0.143149 0.0780613 0.204125 0.128901 0.970421
-0.337706 -0.233263 0.256054 -0.718614 0.679275 0.148928
-0.192419 -0.172658 0.0816638 0.422759 0.808373 0.409643
0.0545604 -0.47135 -0.0327625 0.337302 -0.664149 -0.667183
0.453205 -0.389216 -0.0858636 0.0836435 -0.828027 0.554414
0.143475 -0.428163 0.398149 -0.455698 -0.259444 0.851486
-0.173479 0.0506581 -0.123971 0.620806 -0.783379 0.0302841
0.475835 0.192795 -0.352942 0.60274 -0.0957655 -0.79217
-0.413 -0.0428539 0.0695748 -0.536433 -0.108066 0.836995
0.923218 -0.409343 -0.0173416 0.499344 -0.666303 0.553801
-0.240968 0.732381 -0.123727 -0.445823 0.887675 -0.115217
0.633792 -0.223991 -0.0841783 0.868288 0.402829 0.289491
0.568124 0.16368 0.202528 0.842891 -0.466155 0.268764
-0.00182627 0.452934 -0.313814 -0.0625751 0.05115 -0.996729
0.835378 -0.366021 -0.010801 0.726228 -0.356727 0.587655
0.74431 -0.366324 -0.0531336 0.856643 -0.347964 0.380897
-0.210367 -0.2369 0.263915 -0.016411 0.969107 0.246093
0.010948 -0.505648 0.326781 0.169293 -0.107229 0.979715
-0.199866 -0.155482 -0.143763 0.97188 0.174628 -0.157969
0.0522907 -0.83612 0.37302 0.594395 -0.432888 0.677719
0.839578 -0.413001 -0.0986186 0.857428 -0.498175 0.128988
0.400598 -0.024368 0.0679471 0.54598 -0.483403 0.684272
0.26471 0.756652 0.201233 0.350469 0.905555 0.239043
-0.315902 -0.322644 -0.247124 0.789039 -0.564206 -0.243081
-0.177448 -0.374183 0.00508853 -0.502413 -0.793672 -0.343024
-0.249956 0.685125 -0.312927 -0.32445 0.54687 -0.771793
-0.0711808 -0.975132 0.234568 -0.179024 -0.980491 0.0811678
0.565152 0.224505 -0.286119 0.923074 -0.1429 -0.35709
-0.401642 0.593319 -0.0897818 -0.795143 0.605571 -0.0321044
0.124553 -0.338322 0.317418 -0.468763 0.523499 0.711485
0.0864896 0.184682 0.265701 -0.0748691 -0.292748 0.953254
-0.121404 0.291474 -0.31787 -0.0458056 0.116307 -0.992157
0.394128 0.636955 -0.139555 0.683345 0.729212 -0.0359106
0.146435 0.768827 0.0646075 0.214059 0.976413 -0.0282275
0.263332 -0.105769 -0.0974032 -0.988629 0.0726149 0.131679
0.40082 -0.349581 0.345908 0.997107 0.0112229 0.0751776
0.0958788 0.154564 -0.0186669 -0.208459 -0.977804 -0.0210773
-0.0375255 -0.968503 -0.0215614 0.099606 -0.801041 -0.590265
-0.380111 -0.504874 -0.177232 0.201707 -0.961947 0.184317
0.538094 0.45123 0.0805979 0.951853 0.270415 -0.144401
-0.408368 0.524999 -0.31276 -0.54716 0.284664 -0.787136
-0.20438 0.562422 0.29695 -0.0197804 -0.0713361 0.997256
-0.341519 -0.288017 0.0721106 -0.629641 -0.43879 0.641105
0.247007 0.0533372 0.298595 -0.0558522 -0.620936 0.781869
-0.492755 0.37806 -0.118218 -0.980858 0.134396 -0.14091
0.831594 -0.393272 -0.198257 0.772391 -0.26933 -0.575216
0.667444 -0.320807 -0.207478 0.894767 -0.127211 -0.428029
0.11552 -0.558883 0.203169 0.864499 -0.502609 -0.00500411
0.0474923 0.762358 -0.315676 0.0136615 0.702985 -0.711073
0.801638 -0.29683 -0.10219 0.99719 -0.0199696 0.072204
0.18974 0.211366 -0.348899 -0.0421128 -0.00882422 -0.999074
0.394377 -0.401432 0.531404 0.621728 -0.257768 0.739601
0.610461 0.402437 0.214763 0.959282 0.101468 0.263593
0.927856 -0.389113 -0.147015 1 0 0
-0.273568 -0.0371556 0.013039 0.552671 -0.325618 0.767155
-0.325796 0.67926 0.0749663 -0.606327 0.793629 -0.0501989
0.278226 -0.121904 0.016713 -0.661468 0.202532 0.722109
-0.52144 0.408246 -0.28886 -0.783723 0.185858 -0.592651
0.442429 0.154082 0.291018 0.375593 -0.402995 0.834581
-0.214552 -0.498855 0.296261 -0.560606 -0.819335 0.120044
0.059868 -0.259444 0.0370393 -0.130812 0.989255 0.0652967
0.104759 -0.289279 0.222714 -0.243036 0.899357 0.363441
0.219555 0.0232062 -0.320087 -0.437991 -0.369052 -0.819734
-0.461576 0.0908471 0.0164511 -0.945468 -0.19124 0.263662
0.209202 -0.410033 0.47573 -0.298052 -0.255541 0.919708
-0.232206 0.337562 0.252215 0.0920751 -0.0326124 0.995218
-0.434207 -0.279084 -0.0105832 -0.411516 -0.464068 0.784408
0.411 0.669978 0.321118 0.455199 0.562181 0.690469
0.0145395 -0.791622 0.110942 0.329565 -0.618495 -0.713338
-0.42917 -0.474156 -0.458659 -0.0617341 -0.666216 -0.7432
-0.0321442 -0.87456 0.419111 0.0516894 -0.479237 0.876162
0.448243 -0.128298 -0.271351 0.720115 0.300527 -0.625394
0.371712 -0.552052 -0.3839 -0.10628 -0.887453 -0.448477
0.231852 0.751878 0.108892 0.31982 0.947008 -0.0298558
-0.140192 -0.235695 0.188402 0.237159 0.928305 0.286366
-0.444019 -0.515661 -0.367641 -0.160796 -0.895416 -0.415181
0.273483 0.277981 -0.329469 0.00867868 0.109696 -0.993927
0.296863 0.540404 -0.321022 0.146765 0.227064 -0.962757
0.527194 -0.194064 -0.216177 0.815126 0.399569 -0.419421
0.463068 -0.0635946 -0.188187 0.954367 0.205311 -0.216867
-0.219709 0.114413 -0.380812 0.0933829 -0.154647 -0.983547
-0.206014 0.756712 0.0941976 -0.349031 0.936573 -0.0317476
-0.0564131 -0.770878 -0.0897076 -0.246051 -0.0511448 -0.967907
-0.397285 -0.210679 0.0947141 -0.526101 0.0330083 0.849781
0.201132 0.634817 -0.322286 0.0701504 0.379549 -0.922508
0.280903 0.706255 -0.331623 0.260752 0.614854 -0.744287
-0.460102 0.0140967 -0.185107 -0.943883 0.159563 -0.28918
0.0153349 0.0799783 -0.184547 -0.0129899 -0.990167 -0.139288
-0.38319 -0.446936 0.443325 -0.781696 -0.523611 0.338795
-0.397402 0.401985 -0.305829 -0.483177 0.185007 -0.855752
-0.285816 0.695896 -0.043325 -0.530594 0.847621 0.00273091
0.267292 0.403242 -0.317856 -0.00404065 0.0498405 -0.998749
-0.253247 0.0568059 0.296124 -0.0609835 -0.628024 0.775801
0.404501 -0.204002 -0.400483 0.204148 0.280767 -0.937813
0.0768661 -0.38078 -0.117944 0.215993 -0.420152 -0.881373
0.0211259 0.786032 -0.0239852 0.0219482 0.999729 -0.00771674
0.169278 0.0561344 0.0344824 -0.437619 -0.898418 0.036542
-0.122645 -0.885893 0.383118 -0.513136 -0.511553 0.689206
-0.0520292 -0.26994 0.10828 0.19806 0.952634 0.230782
0.127315 0.0544008 0.146 -0.237814 -0.941285 0.23964
-0.122403 -0.774657 0.256635 -0.91755 -0.310661 0.248178
0.522373 0.294247 -0.142344 0.997269 -0.0673146 -0.0303857
-0.29489 -0.247999 0.492078 -0.347009 0.614427 0.708565
-0.529352 0.517469 0.261591 -0.852723 0.36419 0.374473
-0.00460599 -0.909915 0.0843928 0.23749 -0.788037 -0.567976
0.224398 0.124992 -0.379885 -0.140886 -0.188037 -0.972005
0.298726 0.0181779 0.222764 0.0111328 -0.794632 0.606989
0.0519844 0.0749871 -0.336118 -0.143293 -0.635895 -0.758356
-0.242113 0.359009 -0.301985 -0.0549426 0.0946781 -0.993991
-0.097164 0.476865 -0.30874 -0.0375645 0.0354145 -0.998666
0.338689 -0.476909 -0.476478 -0.289171 -0.522524 -0.80209
0.120327 -0.50501 0.342171 0.202272 -0.439615 0.875114
-0.423863 0.353224 0.293475 -0.384966 -0.0558624 0.921239
-0.844539 -0.289065 -0.0228957 -0.878141 -0.0396946 0.476752
0.192738 -0.376201 0.032441 0.461286 -0.832788 -0.306069
-0.0654795 0.806325 -0.270243 -0.0812768 0.846012 -0.526933
-0.35754 0.436943 0.284304 -0.0869049 -0.00650901 0.996195
0.138744 0.0710347 0.288976 -0.138455 -0.592615 0.793497
0.0287262 -0.69227 0.0822446 0.53973 -0.300351 -0.786435
-0.687041 -0.336942 -0.143741 -0.939723 -0.334472 -0.0710561
0.0185985 -0.304325 -0.154368 0.0812358 0.274408 -0.958176
-0.351478 -0.336219 -0.338106 0.419613 -0.479481 -0.770729
-0.486487 0.296227 -0.0433404 -0.999576 -0.0214159 -0.0197425
-0.588035 -0.176503 -0.185156 -0.765041 0.525207 -0.372652
0.651517 -0.343455 -0.032914 0.801594 -0.301683 0.516173
-0.0324297 0.630053 -0.312202 -0.0404219 0.241401 -0.969583
-0.107243 0.781352 0.103683 -0.158752 0.987207 -0.0148506
-0.527569 0.285105 0.141334 -0.984637 -0.163468 0.0613884
-0.822728 -0.260975 -0.135051 -0.993586 0.0551377 -0.0987303
0.224695 -0.160933 -0.305913 -0.837351 -0.0236024 -0.546156
0.540595 0.216792 0.121406 0.9397 -0.340511 -0.0318703
0.335513 -0.381789 -0.321078 -0.357988 -0.673508 -0.646708
-0.414214 -0.174127 -0.439423 -0.16846 0.374354 -0.911855
0.167065 0.763291 -0.0460531 0.255234 0.966496 -0.0272291
0.275297 -0.331189 -0.114101 -0.518934 -0.850038 -0.0902425
0.0774511 -0.642272 0.167799 0.941976 -0.278915 -0.186783
0.0981004 0.770791 0.322906 0.105361 0.618843 0.778416
0.113632 -0.427974 0.0602338 0.622672 -0.675801 -0.394426
-0.571488 -0.386196 -0.100566 -0.460514 -0.838408 0.291545
0.471306 0.608524 -0.285489 0.708072 0.513132 -0.485107
-0.0128586 0.222759 -0.340552 -0.0289174 -0.123509 -0.991922
-0.120236 -0.226335 0.0388414 0.427612 0.887815 0.170099
0.581273 -0.222548 0.000175724 0.660903 0.260002 0.703993
0.319301 0.165212 -0.365741 0.0506333 -0.0509388 -0.997417
-0.559339 0.259999 0.231662 -0.905179 -0.260948 0.335496
-0.0616752 0.794189 0.320917 -0.0344367 0.761794 0.646903
0.282657 -0.067085 -0.294003 -0.528641 -0.118374 -0.840551
0.0578142 0.581015 -0.307916 -0.0360502 0.131166 -0.990705
0.12697 0.288541 -0.338371 -0.0333266 0.0862222 -0.995718
0.355888 -0.300019 0.0403137 0.529627 -0.544167 0.650675
0.17601 -0.33744 -0.0935358 -0.43268 -0.62623 -0.648555
-0.00804856 -0.523024 -0.133459 0.0830045 -0.637338 -0.766101
0.300454 -0.422023 0.218965 0.71457 -0.621798 -0.320558
0.496616 0.57425 0.119966 0.830451 0.554596 -0.0526697
0.0234005 -0.608945 0.0188957 0.313521 -0.462238 -0.829482
-0.0582646 0.0612766 -0.264277 0.174392 -0.840949 -0.512243
0.284019 0.404071 0.259724 -0.0826339 -0.080195 0.993348
0.312189 -0.350339 -0.220298 -0.756785 -0.652986 -0.02974
0.542757 0.456583 0.323868 0.620225 0.184656 0.76238
0.480142 -0.0816213 -0.0889249 0.946298 0.282083 0.15795
-0.242235 0.762652 0.238815 -0.411116 0.849859 0.329732
0.383277 0.676276 -0.247506 0.559819 0.693526 -0.453459
-0.129207 0.738549 -0.314533 -0.148672 0.686189 -0.712068
-0.196139 0.147127 0.27323 0.0617928 -0.396395 0.915998
-0.235106 -0.457018 0.455472 -0.0142194 -0.621591 0.783213
0.0940551 0.287377 0.256172 -0.0267401 0.00534423 0.999628
-0.34563 0.690575 -0.288434 -0.538208 0.613119 -0.578288
-0.310694 0.145031 0.29846 -0.119206 -0.440851 0.88963
0.233724 0.0105669 -0.115492 -0.826717 -0.557093 0.0786545
-0.119622 0.783912 -0.117698 -0.192464 0.975525 -0.106345
-0.497892 -0.446983 -0.317086 -0.472543 -0.809162 -0.349227
0.491017 0.0809896 0.237785 0.62607 -0.62527 0.465911
-0.179285 -0.363411 -0.09387 0.0219287 -0.799221 -0.600637
-0.281587 0.571105 -0.312181 -0.307886 0.274434 -0.910984
-0.0897431 -0.517005 0.32606 -0.235734 -0.341137 0.909975
-0.0627771 -0.678255 0.326201 -0.24978 -0.0225829 0.968039
0.547409 0.541865 0.200479 0.855465 0.455514 0.246346
-0.262207 0.234013 0.256239 0.0231306 -0.168703 0.985396
0.191201 -0.186818 -0.103199 -0.926454 0.311676 -0.211047
0.0446563 -0.256438 -0.0716828 -0.0453012 0.821759 -0.568032
0.0520117 0.0587437 0.209294 -0.0970915 -0.870452 0.482583
0.18038 0.343664 0.256181 -0.0539223 -0.0400403 0.997742
-0.235526 -0.00624793 -0.242649 0.672521 -0.400137 -0.62258
0.490362 0.131306 0.15208 0.812064 -0.539536 0.22238
0.397284 -0.0581492 -0.331104 0.443281 0.109726 -0.889641
0.297668 -0.285973 -0.390314 -0.605588 0.0345948 -0.795026
0.385694 -0.306765 0.248801 0.960116 0.228292 -0.161429
0.201671 0.768058 0.311986 0.166883 0.710715 0.683399
-0.291966 0.172441 -0.34304 -0.126696 -0.020752 -0.991724
0.501869 -0.245104 -0.297491 0.761173 0.233167 -0.605185
-0.320236 -0.49661 -0.282923 0.514818 -0.852273 -0.0927005
-0.284245 0.451286 -0.300357 -0.145915 0.0800381 -0.986054
0.476075 -0.441204 -0.313326 0.444818 -0.777918 -0.443825
0.0444563 -0.281114 0.136144 -0.0141036 0.959808 0.280303
0.293226 -0.37337 0.0249973 0.368355 -0.925789 0.0850253
-0.131834 -0.789568 0.361498 -0.672436 -0.216154 0.707889
0.071259 0.077975 0.0367066 -0.15259 -0.987779 -0.0317654
0.463836 0.0575092 -0.187767 0.984909 -0.111957 -0.131982
0.241963 0.674763 0.325214 0.141369 0.370626 0.91796
0.0843288 0.406284 0.256626 -0.0239908 -0.095732 0.995118
-0.923015 -0.29749 -0.154575 -0.953786 0.153521 -0.25831
-0.103732 -0.861492 0.214106 -0.66393 -0.747306 0.0270171
-0.234504 -0.230568 0.359345 0.0260306 0.952689 0.302831
-0.165226 -0.28311 0.40418 0.49896 0.645746 0.577971
-0.408786 0.619974 0.134032 -0.757491 0.652834 -0.0038874
-0.742826 -0.343769 -0.0415008 -0.781672 -0.510116 0.358846
0.283326 -0.226885 0.188162 0.395866 0.834051 0.384252
0.615282 -0.23892 -0.189588 0.855294 0.320267 -0.40731
-0.181851 0.0513359 0.0374966 0.500335 -0.844827 0.189558
-0.0915112 -0.746366 0.120488 -0.572303 -0.386668 -0.723158
-0.139882 -0.212731 -0.0652781 0.709194 0.651047 -0.270522
-0.225719 -0.173222 -0.35591 0.790385 0.0627223 -0.609392
0.407831 0.0609989 0.298407 0.324931 -0.609093 0.723482
0.280704 -0.290688 -0.293892 -0.876128 -0.145001 -0.459754
0.519366 0.3545 -0.0633451 0.996076 0.0540308 -0.070088
-0.298818 0.0334122 0.090729 -0.0636329 -0.753036 0.654895
-0.0847859 -0.870268 0.00522706 -0.238246 -0.51126 -0.825743
-0.499743 -0.400754 -0.439445 -0.546232 -0.360154 -0.756254
-0.4975 0.462 -0.202158 -0.896664 0.267171 -0.353007
-0.0800366 -0.508026 -0.0503471 -0.241461 -0.62524 -0.74214
-0.482823 -0.0871352 -0.203167 -0.855052 0.388068 -0.343933
-0.00411455 -0.770127 0.422065 0.240773 -0.122537 0.962815
-0.0722602 -0.702701 -0.0141987 -0.312914 -0.251902 -0.915768
0.0159898 0.119334 0.289791 -0.0156986 -0.456436 0.889618
-0.150221 -0.574445 0.267643 -0.807554 -0.503942 0.306429
0.381889 0.235332 -0.333156 0.261958 0.0263152 -0.96472
0.0312289 0.624966 0.30419 0.0284155 0.0467935 0.9985
-0.220558 -0.136943 -0.031491 0.846657 0.390974 0.360985
-0.0247865 0.113566 -0.0922939 0.0326998 -0.999305 0.0179141
-0.453084 0.559675 -0.174412 -0.833427 0.491923 -0.251816
0.190074 -0.471463 0.230272 0.495179 -0.868252 0.0306084
-0.00646251 -0.633396 0.400254 0.119083 0.0737162 0.990144
-0.243228 -0.0677409 -0.148292 0.982539 -0.184961 -0.0201549
-0.326993 -0.347454 -0.005897 -0.299515 -0.90129 0.312998
-0.476429 0.00879044 -0.0349607 -0.952377 0.135387 0.27322
-0.973516 -0.384995 -0.123752 0.205378 0.83495 -0.510567
-0.344612 -0.463508 0.34388 -0.725072 -0.685586 0.0651306
-0.303063 0.0573405 -0.363719 -0.0354625 -0.0478482 -0.998225
-0.177138 -0.252036 -0.178075 0.8216 -0.0486095 -0.567987
-0.460063 -0.129158 0.057328 -0.56546 0.161747 0.80876
-0.397948 0.0940213 -0.352035 -0.465404 0.0107855 -0.885033
0.219171 -0.411856 0.158463 0.625899 -0.716712 -0.307529
0.588433 0.319685 0.14914 0.995612 -0.0814247 0.046107
-0.399991 0.0799164 0.103897 -0.683382 -0.553449 0.476113
-0.463274 0.166193 0.151108 -0.84035 -0.464722 0.279007
0.334203 0.742607 0.294578 0.348207 0.733894 0.583225
0.330007 0.700086 0.0518595 0.509831 0.855078 -0.0944115
-0.239281 0.0269803 -0.0525029 0.774471 -0.584965 0.240853
0.450665 -0.00888838 -0.0152424 0.909506 -0.125004 0.396451
-0.1279 0.0458682 0.269947 0.0753181 -0.666385 0.741794
0.0977128 0.671116 -0.327054 0.0222428 0.421731 -0.906448
0.278265 -0.200246 -0.450346 -0.527815 0.222398 -0.819726
-0.481035 0.210395 0.0610631 -0.970289 -0.241792 0.00876169
-0.458783 -0.443693 -0.14765 -0.144704 -0.947499 0.285142
-0.00906909 -0.928662 0.319021 0.197917 -0.844646 0.497395
0.320057 0.702059 -0.142046 0.509457 0.856176 -0.0861121
-0.146871 0.388397 -0.307139 -0.0440173 0.0715772 -0.996463
0.13468 0.534492 0.276225 -0.0309975 -0.171436 0.984708
-0.516389 0.466402 0.157039 -0.945325 0.31482 0.0851437
-0.386933 -0.334714 0.252807 -0.983434 -0.0243687 -0.179619
-0.293878 0.725533 0.162606 -0.515641 0.851803 0.0924486
0.25279 0.0300574 0.0838357 -0.357471 -0.864292 0.353855
-0.00415871 0.188877 -0.0220526 0.0261988 -0.999226 -0.029353
-0.301052 0.549319 0.305115 -0.162912 0.0999015 0.98157
-0.066804 -0.443669 -0.122921 -0.136103 -0.618372 -0.77401
-0.459911 0.601489 0.237521 -0.748995 0.549705 0.369906
0.28539 -0.375084 0.555714 0.0922823 -0.10855 0.989798
-0.971212 -0.357247 -0.220059 0.77383 0.631155 -0.0532008
0.421529 -0.477622 -0.133255 -0.0863799 -0.90642 0.413451
-0.266782 0.720698 0.32627 -0.336897 0.548736 0.765107
-0.393218 -0.265805 -0.498171 0.0230062 0.115216 -0.993074
0.351253 0.0652278 -0.382705 0.150967 -0.110088 -0.98239
0.357355 0.363094 -0.31975 0.108582 0.0890582 -0.99009
0.464905 0.269403 0.281555 0.414769 -0.202825 0.887034
-0.515062 -0.0881828 -0.0268623 -0.831649 0.380351 0.40459
-0.306698 -0.249154 -0.440946 0.496232 0.0684741 -0.865486
-0.0632018 0.69575 0.331995 -0.0197943 0.346675 0.937776
-0.0258389 0.347941 -0.330044 -0.0596929 0.101398 -0.993053
-0.198908 -0.288898 0.499975 0.345493 0.520832 0.78062
0.165472 0.479034 -0.315205 -0.0245023 0.0350882 -0.999084
-0.291753 -0.110524 0.0830982 0.198468 0.12475 0.972136
-0.645224 -0.32845 -0.0236124 -0.640335 -0.423853 0.640562
0.421788 0.63734 0.0751381 0.692394 0.711713 -0.118558
-0.466296 0.519262 0.0887927 -0.889486 0.441872 -0.116465
0.455849 0.300296 -0.33438 0.553654 0.0636482 -0.830311
-0.485352 -0.297938 -0.475613 -0.486028 0.05655 -0.872112
0.288766 -0.4686 0.415758 0.190569 -0.821931 0.536762
0.0560332 -0.401352 0.255411 0.153325 0.282357 0.946977
0.508408 0.203307 0.0248306 0.953196 -0.285421 -0.0997598
0.103484 0.0806477 -0.0875975 -0.300231 -0.952734 0.0464748
-0.551001 -0.304932 0.0123507 -0.394377 -0.364205 0.843695
0.445137 0.0993977 -0.375389 0.485598 -0.144758 -0.862113
0.0521067 -0.594425 0.320824 0.518282 -0.216792 0.827276
0.00610401 -0.876886 0.186279 0.427812 -0.88489 -0.184248
-0.572028 -0.145567 -0.0825105 -0.805123 0.562506 0.188052
0.144579 -0.220807 0.0786369 -0.321927 0.918585 0.229271
0.523176 0.439695 -0.167931 0.960073 0.247554 -0.130292
-0.0667009 -0.299605 0.218297 0.255257 0.872709 0.416201
-0.157594 0.765917 0.327032 -0.172959 0.623078 0.762797
-0.033468 0.107843 -0.370156 0.0435075 -0.475395 -0.878696
-0.35937 -0.317619 0.468105 -0.695564 0.219939 0.683972
0.190378 0.764132 -0.199491 0.246799 0.914985 -0.319206
0.00783792 0.790159 -0.154442 0.00645241 0.977653 -0.210124
0.499993 0.468932 -0.0761633 0.938544 0.333803 -0.0878086
0.446283 0.526269 -0.34331 0.488553 0.284655 -0.824795
-0.104166 -0.445254 0.0246597 -0.462625 -0.714209 -0.525247
0.550649 -0.383946 -0.0662442 0.367819 -0.764718 0.529071
-0.833789 -0.36497 -0.0854264 -0.808411 -0.564702 0.166084
-0.441501 0.0499666 -0.27418 -0.726243 0.0728411 -0.683568
-0.257645 -0.306395 -0.146616 0.640875 -0.701877 -0.310885
-0.380509 -0.410756 -0.0989846 0.0536181 -0.921345 0.38503
