ply
format ascii 1.0
element vertex 718
property float x
property float y
property float z
property float nx
property float ny
property float nz
element face 0
property list uchar int vertex_index
end_header
0 0.012393 -0.125026 0.00326473 0.444047 -0.895997
-0.009932 0.012393 -0.124047 -0.207641 0.435647 -0.875841
-0.019864 0.012393 -0.123069 -0.357739 0.433238 -0.827241
-0.029592 0.012393 -0.121072 -0.442585 0.422576 -0.790916
-0.039142 0.012393 -0.118175 -0.504582 0.402286 -0.763913
-0.048645 0.012393 -0.115165 -0.543523 0.396575 -0.739805
-0.057447 0.012393 -0.110461 -0.563149 0.409721 -0.717629
-0.066248 0.012393 -0.105757 -0.597984 0.385359 -0.70279
-0.074404 0.012393 -0.100086 -0.621792 0.373871 -0.688183
-0.082118 0.012393 -0.093755 -0.63899 0.384688 -0.666113
-0.08966 0.012393 -0.087251 -0.649452 0.399149 -0.647219
-0.095991 0.012393 -0.079536 -0.664504 0.400162 -0.631114
-0.102322 0.012393 -0.071822 -0.685782 0.3895 -0.614811
-0.107586 0.012393 -0.063394 -0.701831 0.397858 -0.590882
-0.11229 0.012393 -0.054593 -0.724927 0.401301 -0.559855
-0.116656 0.012393 -0.045652 -0.750327 0.389116 -0.534414
-0.119552 0.012393 -0.036101 -0.768124 0.398044 -0.501545
-0.12245 0.012393 -0.026552 -0.803057 0.420131 -0.422599
-0.123967 0.012393 -0.016727 -0.829277 0.434203 -0.351805
-0.124946 0.012393 -0.006795 -0.880308 0.436652 -0.185451
-0.125435 0.012393 0.003137 -0.896096 0.428478 0.115837
-0.124457 0.012393 0.013068 -0.860225 0.419706 0.289585
-0.123478 0.012393 0.022999 -0.813528 0.417958 0.40433
-0.121001 0.012393 0.032633 -0.780757 0.420624 0.462054
-0.118105 0.012393 0.042183 -0.762859 0.404519 0.504391
-0.114643 0.012393 0.051499 -0.72785 0.40622 0.552467
-0.109938 0.012393 0.0603 -0.71676 0.407885 0.565583
-0.105233 0.012393 0.069101 -0.698254 0.384496 0.603824
-0.099157 0.012393 0.076986 -0.688147 0.372671 0.622551
-0.092826 0.012393 0.084701 -0.668943 0.370122 0.644612
-0.085976 0.012393 0.091896 -0.647522 0.382697 0.658982
-0.078262 0.012393 0.098227 -0.633136 0.378134 0.675391
-0.070547 0.012393 0.104557 -0.613112 0.383849 0.690474
-0.061848 0.012393 0.109415 -0.590782 0.392876 0.704716
-0.053046 0.012393 0.11412 -0.558607 0.396935 0.728287
-0.043917 0.012393 0.118034 -0.525476 0.385829 0.758295
-0.034367 0.012393 0.12093 -0.499209 0.408672 0.764053
-0.024817 0.012393 0.123826 -0.414922 0.423427 0.805325
-0.014897 0.012393 0.124865 -0.329076 0.448943 0.830758
-0.004966 0.012393 0.125843 -0.155271 0.437461 0.885731
0.004965 0.012393 0.125843 0.161491 0.439695 0.883509
0.014897 0.012393 0.124865 0.335485 0.44726 0.829101
0.024817 0.012393 0.123827 0.417127 0.421995 0.804938
0.034368 0.012393 0.12093 0.494819 0.410632 0.765856
0.043917 0.012393 0.118034 0.516745 0.409708 0.75174
0.053046 0.012393 0.11412 0.558757 0.403125 0.724763
0.061848 0.012393 0.109416 0.585954 0.394084 0.708065
0.070547 0.012393 0.104558 0.610368 0.384739 0.692407
0.078262 0.012393 0.098227 0.630374 0.381036 0.676343
0.085975 0.012393 0.091896 0.645329 0.388542 0.657712
0.092826 0.012393 0.084701 0.66507 0.380774 0.642411
0.099157 0.012393 0.076986 0.687273 0.375241 0.621973
0.105234 0.012393 0.069101 0.694118 0.398312 0.599623
0.109938 0.012393 0.0603 0.715286 0.405399 0.569226
0.114642 0.012393 0.051499 0.73429 0.39278 0.553662
0.118105 0.012393 0.042183 0.765143 0.392957 0.51004
0.121001 0.012393 0.032633 0.777925 0.430817 0.457415
0.123478 0.012393 0.023 0.816265 0.413066 0.403841
0.124457 0.012393 0.013068 0.868992 0.407029 0.281391
0.125435 0.012393 0.003137 0.888604 0.442134 0.122071
0.124946 0.012393 -0.006795 0.877187 0.440507 -0.19104
0.123967 0.012393 -0.016727 0.825389 0.437581 -0.35673
0.12245 0.012393 -0.026552 0.802144 0.425222 -0.419227
0.119552 0.012393 -0.036101 0.76718 0.398027 -0.503001
0.116656 0.012393 -0.045652 0.750247 0.388825 -0.534738
0.11229 0.012393 -0.054593 0.72358 0.402723 -0.560577
0.107586 0.012393 -0.063394 0.697527 0.41263 -0.585826
0.102322 0.012393 -0.071822 0.686116 0.379616 -0.620594
0.095991 0.012393 -0.079536 0.666077 0.390657 -0.635396
0.08966 0.012393 -0.087251 0.653509 0.376761 -0.656489
0.082118 0.012393 -0.093755 0.636312 0.385693 -0.668092
0.074404 0.012393 -0.100086 0.620145 0.373023 -0.690126
0.066248 0.012393 -0.105756 0.597537 0.395595 -0.697462
0.057447 0.012393 -0.110461 0.55976 0.407071 -0.721777
0.048645 0.012393 -0.115165 0.537704 0.405111 -0.739432
0.039142 0.012393 -0.118175 0.499963 0.40012 -0.768076
0.029592 0.012393 -0.121072 0.438448 0.425932 -0.79142
0.019864 0.012393 -0.123069 0.356022 0.443596 -0.822479
0.009932 0.012393 -0.124047 0.215739 0.42864 -0.87734
0 -0.175698 -0.225563 -0.00609735 -0.0176385 -0.999826
-0.009946 -0.175698 -0.224584 -0.110993 -0.0219709 -0.993578
-0.019891 -0.175698 -0.223604 -0.18272 -0.00923105 -0.983122
-0.029836 -0.175698 -0.222625 -0.259059 -0.0263026 -0.965503
-0.039781 -0.175698 -0.221644 -0.282586 -0.0361582 -0.95856
-0.049512 -0.175698 -0.219584 -0.343011 -0.0200022 -0.939118
-0.059075 -0.175698 -0.216683 -0.390088 -0.0340727 -0.920147
-0.068638 -0.175698 -0.213783 -0.424037 -0.0210809 -0.9054
-0.078201 -0.175698 -0.210881 -0.446351 -0.0173619 -0.89469
-0.087671 -0.175698 -0.207755 -0.484224 0.00154319 -0.874943
-0.096484 -0.175698 -0.203043 -0.501739 -0.0336324 -0.864365
-0.105297 -0.175698 -0.198332 -0.54291 -0.0386576 -0.8389
-0.114111 -0.175698 -0.193621 -0.56652 -0.0227188 -0.823735
-0.122925 -0.175698 -0.188911 -0.602623 -0.0378445 -0.797129
-0.13099 -0.175698 -0.18308 -0.607705 -0.0472985 -0.792753
-0.138716 -0.175698 -0.17674 -0.638532 -0.0434969 -0.768365
-0.14644 -0.175698 -0.170401 -0.666576 -0.0555824 -0.743362
-0.154166 -0.175698 -0.164061 -0.69239 -0.0515767 -0.719678
-0.161544 -0.175698 -0.157375 -0.714116 -0.0520833 -0.698087
-0.167885 -0.175698 -0.14965 -0.735496 -0.0597007 -0.674894
-0.174224 -0.175698 -0.141925 -0.748211 -0.0431202 -0.662058
-0.180564 -0.175698 -0.134199 -0.776672 -0.0597447 -0.627065
-0.186903 -0.175698 -0.126474 -0.793459 -0.0380112 -0.607435
-0.191919 -0.175698 -0.117864 -0.813032 -0.0253901 -0.581666
-0.19663 -0.175698 -0.109051 -0.827654 -0.0481433 -0.55917
-0.201341 -0.175698 -0.100238 -0.848844 -0.0473326 -0.526521
-0.206052 -0.175698 -0.091424 -0.865988 -0.0162507 -0.499801
-0.210084 -0.175698 -0.082329 -0.885081 -0.0300149 -0.464469
-0.212985 -0.175698 -0.072767 -0.899184 -0.014237 -0.437339
-0.215887 -0.175698 -0.063203 -0.912916 -0.00629896 -0.408099
-0.218787 -0.175698 -0.05364 -0.927758 -0.0499983 -0.369819
-0.221688 -0.175698 -0.044077 -0.946331 -0.0137588 -0.322907
-0.222788 -0.175698 -0.034155 -0.960357 -0.036732 -0.276343
-0.223767 -0.175698 -0.024211 -0.973819 -0.00718426 -0.227212
-0.224747 -0.175698 -0.014265 -0.987329 -0.000869346 -0.158682
-0.225726 -0.175698 -0.004319 -0.998226 -0.00618077 -0.0592138
-0.225726 -0.175698 0.005626 -0.998089 -0.00669847 0.061426
-0.224747 -0.175698 0.015572 -0.987263 -0.00098241 0.159096
-0.223767 -0.175698 0.025516 -0.973694 -0.00793189 0.227722
-0.222788 -0.175698 0.035462 -0.960526 -0.0384026 0.275526
-0.221688 -0.175698 0.045384 -0.94679 -0.0160904 0.321449
-0.218787 -0.175698 0.054946 -0.929309 -0.049293 0.365999
-0.215887 -0.175698 0.06451 -0.911759 -0.025621 0.409925
-0.212985 -0.175698 0.074073 -0.90176 -0.00900433 0.432144
-0.210084 -0.175698 0.083636 -0.886782 -0.0255919 0.461478
-0.206052 -0.175698 0.092731 -0.866707 -0.027324 0.498069
-0.201342 -0.175698 0.101544 -0.849926 -0.0452619 0.524954
-0.19663 -0.175698 0.110358 -0.827165 -0.046056 0.560069
-0.191919 -0.175698 0.119171 -0.814284 -0.0197069 0.580132
-0.186903 -0.175698 0.12778 -0.795663 -0.0521736 0.603489
-0.180564 -0.175698 0.135506 -0.778415 -0.0598295 0.624892
-0.174224 -0.175698 0.143231 -0.749633 -0.0454566 0.660291
-0.167885 -0.175698 0.150956 -0.735219 -0.0539643 0.675678
-0.161544 -0.175698 0.158682 -0.715735 -0.0530283 0.696355
-0.154166 -0.175698 0.165367 -0.691693 -0.0543583 0.720143
-0.14644 -0.175698 0.171707 -0.66757 -0.0565023 0.7424
-0.138716 -0.175698 0.178046 -0.637363 -0.0483413 0.769045
-0.13099 -0.175698 0.184387 -0.604638 -0.0507877 0.79488
-0.122925 -0.175698 0.190217 -0.602463 -0.0459167 0.796825
-0.114112 -0.175698 0.194929 -0.567428 -0.0288567 0.822917
-0.105297 -0.175698 0.199639 -0.543768 -0.0420999 0.838179
-0.096484 -0.175698 0.20435 -0.501399 -0.0454024 0.864024
-0.087671 -0.175698 0.20906 -0.482981 -0.000671365 0.875631
-0.078201 -0.175698 0.212188 -0.44597 -0.0201256 0.894822
-0.068638 -0.175698 0.215089 -0.417483 -0.0209813 0.908442
-0.059075 -0.175698 0.21799 -0.389304 -0.0381388 0.920319
-0.049512 -0.175698 0.220891 -0.347934 -0.0238482 0.937216
-0.039782 -0.175698 0.222951 -0.278985 -0.0408632 0.959426
-0.029836 -0.175698 0.22393 -0.252108 -0.0306432 0.967214
-0.019891 -0.175698 0.224911 -0.183158 -0.0108907 0.983023
-0.009946 -0.175698 0.22589 -0.104439 -0.0176955 0.994374
0 -0.175698 0.22687 0.00616908 -0.0200983 0.999779
0.009945 -0.175698 0.22589 0.108839 -0.0198354 0.993861
0.019891 -0.175698 0.224911 0.177565 -0.00552743 0.984093
0.029836 -0.175698 0.223931 0.257887 -0.0249417 0.965853
0.039781 -0.175698 0.222951 0.28125 -0.0360532 0.958957
0.049512 -0.175698 0.220891 0.348303 -0.0220606 0.937122
0.059075 -0.175698 0.217991 0.388415 -0.0288505 0.921033
0.068638 -0.175698 0.215089 0.424954 -0.027592 0.904794
0.078202 -0.175698 0.212188 0.44759 -0.0223324 0.89396
0.087671 -0.175698 0.209061 0.483317 0.0142981 0.875328
0.096484 -0.175698 0.20435 0.501293 -0.0315121 0.864704
0.105298 -0.175698 0.199639 0.539549 -0.0489721 0.840529
0.114111 -0.175698 0.194929 0.564722 -0.0237553 0.824939
0.122924 -0.175698 0.190217 0.602632 -0.0377432 0.797126
0.13099 -0.175698 0.184387 0.612874 -0.0609778 0.787825
0.138715 -0.175698 0.178046 0.641386 -0.0431669 0.766003
0.14644 -0.175698 0.171707 0.667553 -0.0533179 0.742651
0.154165 -0.175698 0.165367 0.693076 -0.0491848 0.719185
0.161545 -0.175698 0.158681 0.714242 -0.0493303 0.698158
0.167884 -0.175698 0.150956 0.735989 -0.059258 0.674395
0.174224 -0.175698 0.143231 0.749288 -0.0421085 0.660904
0.180564 -0.175698 0.135506 0.776653 -0.0473224 0.628149
0.186903 -0.175698 0.12778 0.794647 -0.0360306 0.606001
0.191919 -0.175698 0.119171 0.814116 -0.0233623 0.580233
0.19663 -0.175698 0.110358 0.830351 -0.0446936 0.555445
0.201342 -0.175698 0.101545 0.852348 -0.0415524 0.521321
0.206052 -0.175698 0.092731 0.867812 -0.0160704 0.496633
0.210084 -0.175698 0.083636 0.885929 -0.0273366 0.463015
0.212985 -0.175698 0.074074 0.898999 -0.015579 0.437673
0.215886 -0.175698 0.06451 0.913644 -0.00512641 0.406483
0.218787 -0.175698 0.054946 0.928243 -0.0488016 0.368759
0.221688 -0.175698 0.045384 0.945824 -0.0130589 0.324417
0.222788 -0.175698 0.035462 0.959905 -0.0344406 0.278201
0.223767 -0.175698 0.025517 0.974057 -0.000646486 0.226303
0.224747 -0.175698 0.015572 0.987676 -0.00862883 0.156275
0.225726 -0.175698 0.005626 0.997864 -0.0147003 0.0636559
0.225726 -0.175698 -0.004319 0.997819 -0.0159456 -0.0640621
0.224747 -0.175698 -0.014265 0.98762 -0.00951204 -0.156579
0.223767 -0.175698 -0.02421 0.974109 -0.00155513 -0.226072
0.222788 -0.175698 -0.034155 0.959908 -0.0366454 -0.277909
0.221688 -0.175698 -0.044077 0.946104 -0.0154417 -0.323494
0.218787 -0.175698 -0.05364 0.92909 -0.0489509 -0.3666
0.215887 -0.175698 -0.063203 0.912762 -0.0124792 -0.408301
0.212985 -0.175698 -0.072766 0.900588 -0.0108669 -0.434537
0.210084 -0.175698 -0.082329 0.886635 -0.0223888 -0.461928
0.206052 -0.175698 -0.091424 0.867209 -0.0278961 -0.497163
0.201342 -0.175698 -0.100237 0.851437 -0.0421773 -0.522759
0.19663 -0.175698 -0.109051 0.827997 -0.0424973 -0.559119
0.191919 -0.175698 -0.117864 0.813063 -0.0239269 -0.581684
0.186903 -0.175698 -0.126474 0.793674 -0.0382732 -0.607138
0.180564 -0.175698 -0.134199 0.776304 -0.0489979 -0.628452
0.174224 -0.175698 -0.141924 0.74829 -0.0433054 -0.661957
0.167884 -0.175698 -0.14965 0.7345 -0.0598106 -0.675968
0.161545 -0.175698 -0.157374 0.713591 -0.0504077 -0.698747
0.154165 -0.175698 -0.164061 0.690195 -0.05256 -0.721712
0.14644 -0.175698 -0.170401 0.666568 -0.0555305 -0.743373
0.138716 -0.175698 -0.17674 0.638709 -0.0484448 -0.767921
0.13099 -0.175698 -0.18308 0.606893 -0.0526779 -0.793036
0.122925 -0.175698 -0.188911 0.601327 -0.0393421 -0.798034
0.114112 -0.175698 -0.193622 0.566506 -0.0223936 -0.823754
0.105298 -0.175698 -0.198332 0.540448 -0.0496525 -0.839911
0.096484 -0.175698 -0.203043 0.501759 -0.0331916 -0.86437
0.087671 -0.175698 -0.207754 0.482787 0.00238197 -0.875735
0.078202 -0.175698 -0.210881 0.446416 -0.0169787 -0.894664
0.068638 -0.175698 -0.213783 0.41686 -0.0182878 -0.908787
0.059075 -0.175698 -0.216683 0.390511 -0.0332066 -0.919999
0.049512 -0.175698 -0.219584 0.348957 -0.0190785 -0.936944
0.039781 -0.175698 -0.221644 0.280466 -0.0352924 -0.959215
0.029836 -0.175698 -0.222625 0.254315 -0.0247259 -0.966805
0.019891 -0.175698 -0.223604 0.179721 -0.00646998 -0.983696
0.009946 -0.175698 -0.224584 0.10486 -0.0139748 -0.994389
0 0.367221 -0.125026 0.00829916 0.625114 -0.78049
-0.009932 0.367221 -0.124047 -0.106286 0.552449 -0.826743
-0.019864 0.367221 -0.123069 -0.167464 0.554334 -0.815273
-0.029592 0.367221 -0.121072 -0.259557 0.528028 -0.808589
-0.039142 0.367221 -0.118175 -0.351097 0.510065 -0.785216
-0.048645 0.367221 -0.115165 -0.436462 0.485261 -0.757643
-0.057447 0.367221 -0.110461 -0.498969 0.44547 -0.743362
-0.066248 0.367221 -0.105757 -0.565212 0.406072 -0.718081
-0.074404 0.367221 -0.100086 -0.589387 0.405856 -0.698502
-0.082118 0.367221 -0.093755 -0.636146 0.396656 -0.661803
-0.08966 0.367221 -0.087251 -0.64203 0.43266 -0.632932
-0.095991 0.367221 -0.079536 -0.668857 0.417066 -0.615375
-0.102322 0.367221 -0.071822 -0.702311 0.414269 -0.578913
-0.107586 0.367221 -0.063394 -0.735907 0.414735 -0.535198
-0.11229 0.367221 -0.054593 -0.756171 0.443457 -0.481198
-0.116656 0.367221 -0.045652 -0.771619 0.488378 -0.407542
-0.119552 0.367221 -0.036101 -0.798412 0.510304 -0.319576
-0.12245 0.367221 -0.026552 -0.794838 0.557453 -0.239747
-0.123967 0.367221 -0.016727 -0.778126 0.609384 -0.152222
-0.124946 0.367221 -0.006795 -0.820224 0.564208 -0.0943515
-0.125435 0.367221 0.003137 -0.782714 0.621519 0.0327543
-0.124457 0.367221 0.013068 -0.789387 0.602559 0.117429
-0.123478 0.367221 0.022999 -0.823635 0.525015 0.21444
-0.121001 0.367221 0.032633 -0.801355 0.517709 0.299679
-0.118105 0.367221 0.042183 -0.757029 0.555328 0.344263
-0.114643 0.367221 0.051499 -0.749322 0.481366 0.454757
-0.109938 0.367221 0.0603 -0.741138 0.436426 0.510144
-0.105233 0.367221 0.069101 -0.700761 0.434955 0.565463
-0.099157 0.367221 0.076986 -0.692495 0.418136 0.587889
-0.092826 0.367221 0.084701 -0.653042 0.434684 0.62015
-0.085976 0.367221 0.091896 -0.630465 0.4087 0.659908
-0.078262 0.367221 0.098227 -0.596137 0.410552 0.689977
-0.070547 0.367221 0.104557 -0.570665 0.432551 0.698026
-0.061848 0.367221 0.109415 -0.492889 0.489384 0.71942
-0.053046 0.367221 0.11412 -0.498327 0.417371 0.759915
-0.043917 0.367221 0.118034 -0.402106 0.515123 0.756941
-0.034367 0.367221 0.12093 -0.322847 0.486492 0.811847
-0.024817 0.367221 0.123826 -0.229298 0.543517 0.807472
-0.014897 0.367221 0.124865 -0.152531 0.581016 0.799472
-0.004966 0.367221 0.125843 -0.0559917 0.619146 0.783277
0.004965 0.367221 0.125843 0.0472631 0.608106 0.792447
0.014897 0.367221 0.124865 0.159818 0.551705 0.818584
0.024817 0.367221 0.123827 0.233126 0.532011 0.814013
0.034368 0.367221 0.12093 0.325832 0.496779 0.80439
0.043917 0.367221 0.118034 0.397256 0.532707 0.747269
0.053046 0.367221 0.11412 0.505766 0.390498 0.769228
0.061848 0.367221 0.109416 0.507788 0.455336 0.731314
0.070547 0.367221 0.104558 0.5738 0.423567 0.70096
0.078262 0.367221 0.098227 0.59716 0.424101 0.680836
0.085975 0.367221 0.091896 0.634155 0.430761 0.6421
0.092826 0.367221 0.084701 0.65545 0.40726 0.636023
0.099157 0.367221 0.076986 0.69269 0.418217 0.587602
0.105234 0.367221 0.069101 0.696186 0.440266 0.567002
0.109938 0.367221 0.0603 0.730439 0.462808 0.502263
0.114642 0.367221 0.051499 0.756886 0.458209 0.466013
0.118105 0.367221 0.042183 0.75067 0.560723 0.349407
0.121001 0.367221 0.032633 0.799622 0.520188 0.300016
0.123478 0.367221 0.023 0.778545 0.599211 0.186586
0.124457 0.367221 0.013068 0.803739 0.582015 0.123537
0.125435 0.367221 0.003137 0.817848 0.573062 0.0521986
0.124946 0.367221 -0.006795 0.812192 0.575638 -0.0947833
0.123967 0.367221 -0.016727 0.821546 0.544164 -0.170139
0.12245 0.367221 -0.026552 0.809329 0.530406 -0.2523
0.119552 0.367221 -0.036101 0.793568 0.518711 -0.3181
0.116656 0.367221 -0.045652 0.777613 0.47699 -0.409633
0.11229 0.367221 -0.054593 0.76403 0.425869 -0.484659
0.107586 0.367221 -0.063394 0.740029 0.418932 -0.526167
0.102322 0.367221 -0.071822 0.694527 0.438993 -0.570015
0.095991 0.367221 -0.079536 0.687004 0.394472 -0.61026
0.08966 0.367221 -0.087251 0.653554 0.414492 -0.633296
0.082118 0.367221 -0.093755 0.612884 0.436556 -0.658629
0.074404 0.367221 -0.100086 0.592063 0.406506 -0.695855
0.066248 0.367221 -0.105756 0.560846 0.434303 -0.704863
0.057447 0.367221 -0.110461 0.50116 0.440376 -0.744921
0.048645 0.367221 -0.115165 0.448527 0.457132 -0.76802
0.039142 0.367221 -0.118175 0.350963 0.500091 -0.791665
0.029592 0.367221 -0.121072 0.277139 0.512107 -0.812982
0.019864 0.367221 -0.123069 0.160323 0.582106 -0.79715
0.009932 0.367221 -0.124047 0.104331 0.619757 -0.777828
0 0.006033 -0.132777 0.00666561 0.589901 -0.807448
0 -0.000328 -0.140526 0.00637586 0.669218 -0.743039
0 -0.006688 -0.148277 -4.903e-05 0.693813 -0.720155
0 -0.013048 -0.156028 -0.000159343 0.672171 -0.740396
0 -0.02021 -0.162976 -0.00130098 0.659366 -0.751821
0 -0.027961 -0.169336 0.00196554 0.640723 -0.76777
0 -0.035712 -0.175696 -0.00482765 0.620037 -0.784558
0 -0.043461 -0.182056 0.00344455 0.595085 -0.803656
0 -0.05138 -0.188165 -7.0427e-05 0.588684 -0.808363
0 -0.060222 -0.192891 0.0012282 0.570597 -0.82123
0 -0.069065 -0.197618 4.461e-05 0.531938 -0.846783
0 -0.077907 -0.202344 -0.0001336 0.514429 -0.857533
0 -0.086749 -0.20707 0.000330368 0.499553 -0.866283
0 -0.096141 -0.21047 0.000199452 0.457583 -0.889167
0 -0.105735 -0.21338 0.00173217 0.434931 -0.900462
0 -0.11533 -0.216291 -0.000175014 0.404962 -0.914333
0 -0.124924 -0.219201 0.00671433 0.358607 -0.933465
0 -0.134636 -0.221518 -0.00503748 0.283187 -0.959051
0 -0.144614 -0.222502 0.00345287 0.253914 -0.967221
0 -0.154592 -0.223484 0.00186188 0.215239 -0.97656
0 -0.16457 -0.224467 -0.00344928 0.119916 -0.992778
0 -0.174547 -0.22545 0.00655557 0.0238596 -0.999694
0 -0.184525 -0.224694 -0.00661324 -0.100815 -0.994883
0 -0.194503 -0.223711 -0.00216917 -0.176346 -0.984326
0 -0.204481 -0.222728 0.00390081 -0.252486 -0.967593
0 -0.214458 -0.221745 -0.0006408 -0.289571 -0.957156
0 -0.224259 -0.219872 -0.00066129 -0.341555 -0.939861
0 -0.233854 -0.216962 -0.000426643 -0.392282 -0.919845
0 -0.243448 -0.214052 0.00458877 -0.422276 -0.906456
0 -0.253042 -0.211141 -0.000196834 -0.450882 -0.892583
0 -0.262608 -0.208161 -0.000111258 -0.488153 -0.872758
0 -0.27145 -0.203435 -0.000137886 -0.518134 -0.8553
0 -0.280292 -0.198708 -0.00128055 -0.553899 -0.832583
0 -0.289134 -0.193982 3.71333e-05 -0.575048 -0.81812
0 -0.297977 -0.189256 -0.000187422 -0.612611 -0.790384
0 -0.306146 -0.183524 5.22088e-06 -0.627157 -0.778893
0 -0.313897 -0.177164 0.00106214 -0.657337 -0.753596
0 -0.321648 -0.170804 -7.42952e-05 -0.683513 -0.729938
0 -0.329398 -0.164443 -0.00241609 -0.701715 -0.712453
0 -0.336881 -0.157816 -0.00195936 -0.72445 -0.689325
0 -0.343241 -0.150065 1.61035e-05 -0.742044 -0.670351
0 -0.349602 -0.142315 0.000142096 -0.754544 -0.65625
0 -0.355962 -0.134565 0.00137518 -0.782944 -0.62209
0 -0.362322 -0.126814 0.000166936 -0.796975 -0.604013
0 -0.367426 -0.118224 0.00017618 -0.816752 -0.576989
0 -0.372152 -0.109381 5.10688e-05 -0.831218 -0.555946
0 -0.376878 -0.100539 -0.000970653 -0.845277 -0.534328
0 -0.381605 -0.091697 0.000355527 -0.862932 -0.50532
0 -0.385703 -0.082595 0.00232348 -0.883495 -0.468435
0 -0.388613 -0.073 0.00389569 -0.89414 -0.447771
0 -0.391523 -0.063406 0.000967308 -0.906661 -0.421859
0 -0.394434 -0.053812 -0.0106261 -0.924107 -0.381986
0 -0.397343 -0.044217 0.00523269 -0.940966 -0.338461
0 -0.398475 -0.034268 0.00734386 -0.953654 -0.300815
0 -0.399457 -0.024291 -0.00170564 -0.967901 -0.251325
0 -0.40044 -0.014313 -0.00379226 -0.986576 -0.163256
0 -0.401423 -0.004335 -0.00437402 -0.9979 -0.0646274
0 -0.401423 0.005642 -0.00523771 -0.997888 0.0647392
0 -0.40044 0.01562 -0.00483755 -0.986693 0.162521
0 -0.399457 0.025597 -0.00256467 -0.967858 0.251486
0 -0.398475 0.035575 -0.004616 -0.953632 0.300939
0 -0.397343 0.045524 -0.00544748 -0.940948 0.338507
0 -0.394434 0.055118 0.0101073 -0.924205 0.381763
0 -0.391523 0.064713 -0.00221227 -0.906895 0.42135
0 -0.388613 0.074307 -0.00709139 -0.893256 0.449492
0 -0.385703 0.083901 -0.000486599 -0.883857 0.467758
0 -0.381605 0.093004 -0.0156 -0.865754 0.500226
0 -0.376878 0.101846 -0.00387096 -0.847442 0.530874
0 -0.372152 0.110688 0.00435124 -0.831038 0.556198
0 -0.367426 0.11953 -0.000700512 -0.817634 0.575737
0 -0.362322 0.128121 -0.00172128 -0.797981 0.602681
0 -0.355962 0.135871 -0.00788884 -0.785053 0.619378
0 -0.349602 0.143622 -0.0064901 -0.755809 0.65476
0 -0.343241 0.151372 0.00489099 -0.743471 0.66875
0 -0.336881 0.159122 0.00871049 -0.725141 0.688545
0 -0.329398 0.16575 -0.00372027 -0.70271 0.711466
0 -0.321648 0.172111 -0.00474066 -0.682783 0.730606
0 -0.313897 0.178471 -0.00170562 -0.657613 0.753354
0 -0.306146 0.184831 -0.00224536 -0.627241 0.778822
0 -0.297977 0.190562 -0.00168393 -0.613104 0.79
0 -0.289134 0.195289 -0.00401934 -0.576093 0.817374
0 -0.280292 0.200015 -0.00328544 -0.555753 0.831341
0 -0.27145 0.204741 0.0093747 -0.517828 0.855434
0 -0.262608 0.209468 -0.00124822 -0.487133 0.873327
0 -0.253042 0.212448 -0.00328746 -0.449145 0.893453
0 -0.243448 0.215358 0.000402188 -0.420481 0.907301
0 -0.233854 0.218269 -0.024038 -0.381648 0.923995
0 -0.224259 0.221179 0.0135236 -0.345481 0.938328
0 -0.214458 0.223052 -0.0199287 -0.279754 0.959865
0 -0.204481 0.224035 -0.00467323 -0.25189 0.967744
0 -0.194503 0.225018 0.000541199 -0.176521 0.984297
0 -0.184525 0.226 0.00369439 -0.100314 0.994949
0 -0.174547 0.226757 -0.0052526 0.0216872 0.999751
0 -0.16457 0.225773 0.00402943 0.119183 0.992864
0 -0.154592 0.224791 0.00140611 0.212539 0.977152
0 -0.144614 0.223808 -0.000612496 0.252974 0.967473
0 -0.134636 0.222825 0.00822489 0.284481 0.958646
0 -0.124924 0.220508 -0.00434522 0.359546 0.933117
0 -0.11533 0.217597 0.0024358 0.405939 0.913897
0 -0.105735 0.214687 0.00204844 0.436945 0.899486
0 -0.096141 0.211777 0.00154954 0.458221 0.888837
0 -0.086749 0.208377 0.00152228 0.500408 0.865788
0 -0.077907 0.203651 0.00101759 0.515245 0.857043
0 -0.069065 0.198924 0.0189808 0.537296 0.84318
0 -0.060222 0.194198 0.00183477 0.568495 0.822685
0 -0.05138 0.189472 0.00131626 0.589674 0.80764
0 -0.043461 0.183363 -0.000866395 0.594467 0.80412
0 -0.035711 0.177003 0.00619081 0.621641 0.783278
0 -0.027961 0.170643 0.00155888 0.643597 0.765363
0 -0.02021 0.164283 0.00352055 0.661749 0.749717
0 -0.013048 0.157335 0.000526885 0.674425 0.738343
0 -0.006688 0.149584 0.0015884 0.696412 0.717641
0 -0.000328 0.141833 0.00168157 0.675348 0.737497
0 0.006033 0.134083 0.00534859 0.610251 0.79219
0 0.012393 0.126333 0.00189168 0.437039 0.899441
0 0.022531 0.126333 0.0180871 0.217828 0.97582
0 0.032669 0.126333 0.0223098 0.0476487 0.998615
0 0.042807 0.126333 0.0116062 -0.000355939 0.999933
0 0.052945 0.126333 0.0062969 -0.016029 0.999852
0 0.063083 0.126333 0.00893084 -0.0433657 0.999019
0 0.073221 0.126333 -0.0199315 -0.0509237 0.998504
0 0.083358 0.126333 0.0196002 -0.0484554 0.998633
0 0.093496 0.126333 0.0325581 -0.0518746 0.998123
0 0.103634 0.126333 0.0192089 -0.0480459 0.99866
0 0.113772 0.126333 0.00576994 -0.0428353 0.999065
0 0.123911 0.126333 0.00183193 -0.0432679 0.999062
0 0.134049 0.126333 0.0072048 -0.0361764 0.999319
0 0.144187 0.126333 0.0104804 -0.0316408 0.999444
0 0.154324 0.126333 -0.00446207 -0.0298215 0.999545
0 0.164462 0.126333 -0.00688388 -0.0238232 0.999692
0 0.1746 0.126333 0.0175922 -0.0214768 0.999615
0 0.184738 0.126333 -0.00817927 -0.0174323 0.999815
0 0.194876 0.126333 0.00856516 -0.0167505 0.999823
0 0.205014 0.126333 -0.000993183 -0.0158953 0.999873
0 0.215152 0.126333 -0.0172188 -0.0173887 0.999701
0 0.225289 0.126333 0.0182791 -0.0177147 0.999676
0 0.235427 0.126333 -0.00138169 -0.0203694 0.999792
0 0.245565 0.126333 -0.00828811 -0.0234846 0.99969
0 0.255703 0.126333 -0.000582927 -0.0288764 0.999583
0 0.265841 0.126333 -0.0196333 -0.031908 0.999298
0 0.275979 0.126333 0.0244761 -0.0346365 0.9991
0 0.286118 0.126333 0.0206199 -0.0439119 0.998823
0 0.296256 0.126333 -0.000621231 -0.0520556 0.998644
0 0.306393 0.126333 -0.000403704 -0.0514519 0.998675
0 0.316531 0.126333 -0.0133105 -0.0673355 0.997642
0 0.326669 0.126333 -0.00568386 -0.0602188 0.998169
0 0.336807 0.126333 -0.0156516 -0.0503049 0.998611
0 0.346945 0.126333 -0.00516013 0.00729872 0.99996
0 0.357083 0.126333 0.00238398 0.248671 0.968585
0 0.367221 0.126333 0.00161615 0.60128 0.799037
0 0.367221 0.116278 0.000989242 0.899787 0.436329
0 0.367221 0.106224 -0.00511471 0.995964 0.0896103
0 0.367221 0.096169 -0.00323978 0.998448 -0.0556009
0 0.367221 0.086115 0.0015604 0.99775 -0.0670284
0 0.367221 0.076061 -0.00307246 0.996474 -0.0838423
0 0.367221 0.066007 0.00067725 0.996381 -0.084999
0 0.367221 0.055952 -0.00447437 0.996743 -0.0805138
0 0.367221 0.045898 -0.000387437 0.997854 -0.065472
0 0.367221 0.035843 -0.000376703 0.998256 -0.0590343
0 0.367221 0.025789 -0.00126086 0.999034 -0.0439277
0 0.367221 0.015735 -0.00143784 0.999904 -0.0138033
0 0.367221 0.005681 -0.00100736 0.999996 -0.00261147
0 0.367221 -0.004374 -0.000996419 0.999986 0.00510339
0 0.367221 -0.014428 -0.00147614 0.999876 0.0156711
0 0.367221 -0.024483 -0.000398683 0.998808 0.04881
0 0.367221 -0.034537 -0.000659291 0.997874 0.0651765
0 0.367221 -0.044591 -0.000565471 0.997205 0.0747102
0 0.367221 -0.054645 -0.00507632 0.996491 0.0835499
0 0.367221 -0.0647 0.00039686 0.996131 0.0878787
0 0.367221 -0.074754 -0.0068903 0.996346 0.0851265
0 0.367221 -0.084809 -0.0059254 0.997544 0.0697901
0 0.367221 -0.094862 -0.00205887 0.999449 0.0331313
0 0.367221 -0.104917 -0.000678168 0.986538 -0.163529
0 0.367221 -0.114971 -0.00726051 0.863078 -0.505018
0 0.357083 -0.125026 0.00274935 0.31156 -0.950222
0 0.346945 -0.125026 0.000432493 0.0669501 -0.997756
0 0.336807 -0.125026 0.0140388 -0.0436904 -0.998946
0 0.326669 -0.125026 0.00502621 -0.0631284 -0.997993
0 0.316531 -0.125026 -0.01309 -0.0705276 -0.997424
0 0.306393 -0.125026 0.0126665 -0.0569871 -0.998295
0 0.296256 -0.125026 0.0154076 -0.0551397 -0.99836
0 0.286118 -0.125026 -0.00669973 -0.0467461 -0.998884
0 0.275979 -0.125026 -0.0109135 -0.0369246 -0.999258
0 0.265841 -0.125026 0.00287277 -0.0353359 -0.999371
0 0.255703 -0.125026 0.00106755 -0.0318527 -0.999492
0 0.245565 -0.125026 0.018595 -0.0259813 -0.999489
0 0.235427 -0.125026 0.00151826 -0.0221445 -0.999754
0 0.225289 -0.125026 -0.00863912 -0.0187934 -0.999786
0 0.215152 -0.125026 0.00939318 -0.0183919 -0.999787
0 0.205014 -0.125026 0.00122455 -0.0162801 -0.999867
0 0.194876 -0.125026 -0.00774952 -0.0169589 -0.999826
0 0.184738 -0.125026 0.000506004 -0.0173625 -0.999849
0 0.1746 -0.125026 0.0008077 -0.0201832 -0.999796
0 0.164462 -0.125026 0.000858225 -0.0224724 -0.999747
0 0.154324 -0.125026 -0.00732078 -0.0269501 -0.99961
0 0.144187 -0.125026 -0.00148992 -0.0292916 -0.99957
0 0.134049 -0.125026 0.0147654 -0.0333995 -0.999333
0 0.123911 -0.125026 0.000163088 -0.040356 -0.999185
0 0.113772 -0.125026 0.00872643 -0.0397098 -0.999173
0 0.103634 -0.125026 -0.0230362 -0.0439095 -0.99877
0 0.093496 -0.125026 -0.0159686 -0.0480424 -0.998718
0 0.083358 -0.125026 0.0236974 -0.0484242 -0.998546
0 0.073221 -0.125026 0.0302362 -0.0458704 -0.99849
0 0.063083 -0.125026 0.00554247 -0.0350127 -0.999371
0 0.052945 -0.125026 0.01913 -0.015722 -0.999693
0 0.042807 -0.125026 0.0083576 0.0213393 -0.999737
0 0.032669 -0.125026 0.0152111 0.0604667 -0.998054
0 0.022531 -0.125026 0.00469021 0.26446 -0.964385
-0.125679 0.012393 0.000653 -0.894257 0.447184 -0.0182167
-0.125679 0.022531 0.000653 -0.974648 0.223404 0.0122993
-0.125679 0.032669 0.000653 -0.998724 0.0504275 -0.00283987
-0.125679 0.042807 0.000653 -0.999999 0.000709137 0.000820127
-0.125679 0.052945 0.000653 -0.999107 -0.0234253 -0.035175
-0.125679 0.063083 0.000653 -0.999309 -0.0371702 -0.000377178
-0.125679 0.073221 0.000653 -0.998825 -0.0484544 -0.000158184
-0.125679 0.083358 0.000653 -0.998877 -0.0470054 -0.00590481
-0.125679 0.093496 0.000653 -0.998699 -0.0509888 -0.000962374
-0.125679 0.103634 0.000653 -0.99888 -0.0472847 -0.00140198
-0.125679 0.113772 0.000653 -0.999152 -0.0411815 0.000174525
-0.125679 0.123911 0.000653 -0.999167 -0.0407777 -0.00163668
-0.125679 0.134049 0.000653 -0.999198 -0.0341071 -0.0209922
-0.125679 0.144187 0.000653 -0.999443 -0.0313867 -0.0113322
-0.125679 0.154324 0.000653 -0.999651 -0.0262474 -0.00292983
-0.125679 0.164462 0.000653 -0.999694 -0.0223314 -0.0106047
-0.125679 0.1746 0.000653 -0.99981 -0.0194309 -0.0012588
-0.125679 0.184738 0.000653 -0.999861 -0.0164535 -0.00266647
-0.125679 0.194876 0.000653 -0.999787 -0.0158729 0.0131928
-0.125679 0.205014 0.000653 -0.999884 -0.0148021 -0.00363592
-0.125679 0.215152 0.000653 -0.999661 -0.017373 -0.0194081
-0.125679 0.225289 0.000653 -0.999816 -0.0177663 0.0072605
-0.125679 0.235427 0.000653 -0.999756 -0.0218868 -0.0028541
-0.125679 0.245565 0.000653 -0.9995 -0.0240604 -0.0204911
-0.125679 0.255703 0.000653 -0.999551 -0.0298348 -0.00278632
-0.125679 0.265841 0.000653 -0.999438 -0.0330406 -0.00563338
-0.125679 0.275979 0.000653 -0.999254 -0.037683 0.00845926
-0.125679 0.286118 0.000653 -0.998863 -0.0475134 -0.00377087
-0.125679 0.296256 0.000653 -0.998272 -0.0561645 -0.0172877
-0.125679 0.306393 0.000653 -0.998555 -0.0535988 -0.00377948
-0.125679 0.316531 0.000653 -0.997496 -0.0698187 0.011312
-0.125679 0.326669 0.000653 -0.998067 -0.0621099 -0.0019397
-0.125679 0.336807 0.000653 -0.998763 -0.0462131 -0.0183627
-0.125679 0.346945 0.000653 -0.999937 0.00990323 0.00532609
-0.125679 0.357083 0.000653 -0.959192 0.282698 -0.00568379
-0.125679 0.367221 0.000653 -0.795638 0.605654 0.0119692
-0.115624 0.367221 0.000653 -0.45135 0.892259 -0.0125364
-0.105571 0.367221 0.000653 -0.0957216 0.995407 -0.00169812
-0.095516 0.367221 0.000653 0.0536153 0.998559 0.00208665
-0.085462 0.367221 0.000653 0.0704866 0.997509 0.00275882
-0.075407 0.367221 0.000653 0.0819616 0.996633 0.00243953
-0.065353 0.367221 0.000653 0.0819768 0.996631 0.002616
-0.055299 0.367221 0.000653 0.078335 0.996927 0.00018049
-0.045245 0.367221 0.000653 0.0668199 0.99775 0.00552981
-0.03519 0.367221 0.000653 0.0604628 0.998167 0.00242983
-0.025136 0.367221 0.000653 0.0404525 0.999179 0.00202202
-0.015081 0.367221 0.000653 0.01394 0.999902 0.00103512
-0.005027 0.367221 0.000653 0.00280782 0.999996 0.00082761
0.005027 0.367221 0.000653 -0.00334463 0.999994 0.00079212
0.015081 0.367221 0.000653 -0.0144376 0.999895 0.00125173
0.025136 0.367221 0.000653 -0.0479189 0.998849 0.00212396
0.03519 0.367221 0.000653 -0.0579043 0.998319 0.00268664
0.045245 0.367221 0.000653 -0.0675432 0.9977 0.00578521
0.055299 0.367221 0.000653 -0.0818351 0.996639 0.00364625
0.065353 0.367221 0.000653 -0.0859307 0.996296 0.00327518
0.075407 0.367221 0.000653 -0.0838366 0.996451 0.00754857
0.085462 0.367221 0.000653 -0.0702463 0.997524 0.00324089
0.095516 0.367221 0.000653 -0.0543934 0.998514 0.00345957
0.105571 0.367221 0.000653 0.0935262 0.995614 0.00249126
0.115624 0.367221 0.000653 0.443068 0.89647 -0.00562422
0.125679 0.367221 0.000653 0.752189 0.658947 -0.000250118
0.125679 0.357083 0.000653 0.972099 0.234537 -0.00393951
0.125679 0.346945 0.000653 0.999951 0.00913195 0.00376725
0.125679 0.336807 0.000653 0.998477 -0.0544401 0.00898509
0.125679 0.326669 0.000653 0.998021 -0.0628373 -0.00242284
0.125679 0.316531 0.000653 0.997515 -0.0687917 -0.0152217
0.125679 0.306393 0.000653 0.998471 -0.0545409 0.00894214
0.125679 0.296256 0.000653 0.998594 -0.0528998 -0.00333487
0.125679 0.286118 0.000653 0.998891 -0.0443421 -0.0158296
0.125679 0.275979 0.000653 0.999025 -0.0350691 -0.026826
0.125679 0.265841 0.000653 0.999448 -0.0332095 0.0009849
0.125679 0.255703 0.000653 0.999547 -0.0300919 -0.00107776
0.125679 0.245565 0.000653 0.999375 -0.0244823 0.0254913
0.125679 0.235427 0.000653 0.999797 -0.0201439 0.000394018
0.125679 0.225289 0.000653 0.999649 -0.0184983 -0.0189519
0.125679 0.215152 0.000653 0.999803 -0.0183872 0.00752915
0.125679 0.205014 0.000653 0.999853 -0.0171052 -0.000644935
0.125679 0.194876 0.000653 0.999854 -0.0169469 -0.00218669
0.125679 0.184738 0.000653 0.999822 -0.0174873 0.00708818
0.125679 0.1746 0.000653 0.999597 -0.0225873 -0.0171897
0.125679 0.164462 0.000653 0.999713 -0.0239195 -0.00145287
0.125679 0.154324 0.000653 0.999544 -0.0299105 -0.00425691
0.125679 0.144187 0.000653 0.999518 -0.0307319 -0.0044413
0.125679 0.134049 0.000653 0.999339 -0.03611 0.00423341
0.125679 0.123911 0.000653 0.999119 -0.0418098 -0.00375159
0.125679 0.113772 0.000653 0.999073 -0.0409937 -0.0131346
0.125679 0.103634 0.000653 0.998812 -0.0456648 0.0169888
0.125679 0.093496 0.000653 0.998706 -0.0508013 -0.00248765
0.125679 0.083358 0.000653 0.998841 -0.0480477 0.00280828
0.125679 0.073221 0.000653 0.998979 -0.0450847 0.00271227
0.125679 0.063083 0.000653 0.9993 -0.0371916 0.00392862
0.125679 0.052945 0.000653 0.999828 -0.0139075 0.0122864
0.125679 0.042807 0.000653 0.999974 0.000965595 0.00715821
0.125679 0.032669 0.000653 0.998951 0.0445735 0.01045
0.125679 0.022531 0.000653 0.971259 0.238008 0.00284543
0.125679 0.012393 0.000653 0.893414 0.449101 -0.0109179
0.13343 0.006033 0.000653 0.797234 0.603644 0.00565484
0.14118 -0.000328 0.000653 0.735899 0.677058 0.00671641
0.14893 -0.006688 0.000653 0.719085 0.693855 0.038501
0.156681 -0.013048 0.000653 0.738291 0.673724 0.031971
0.16363 -0.02021 0.000653 0.751729 0.659469 0.00210832
0.16999 -0.027961 0.000653 0.766135 0.642678 0.00140826
0.17635 -0.035712 0.000653 0.788677 0.614807 0.00106521
0.18271 -0.043461 0.000653 0.800608 0.599187 0.00135567
0.188819 -0.05138 0.000653 0.807805 0.58945 0.000915807
0.193545 -0.060222 0.000653 0.820453 0.571714 -0.001067
0.198271 -0.069065 0.000653 0.843398 0.536996 -0.0177699
0.202997 -0.077907 0.000653 0.857236 0.514924 0.000205057
0.207724 -0.086749 0.000653 0.865267 0.501311 0.000825154
0.211123 -0.096141 0.000653 0.889282 0.457359 0.000445249
0.214034 -0.105735 0.000653 0.900803 0.434228 0.0003701
0.216944 -0.11533 0.000653 0.914922 0.403631 0.000537014
0.219854 -0.124924 0.000653 0.935411 0.353562 0.000434547
0.222172 -0.134636 0.000653 0.955968 0.293451 -0.00354144
0.223155 -0.144614 0.000653 0.96604 0.25839 0.00144543
0.224138 -0.154592 0.000653 0.976731 0.214467 0.00024754
0.22512 -0.16457 0.000653 0.991797 0.127821 0.000286625
0.226103 -0.174547 0.000653 0.999849 0.0173834 -0.000265673
0.225347 -0.184525 0.000653 0.994589 -0.103882 -0.00094691
0.224365 -0.194503 0.000653 0.984975 -0.172693 -0.00137688
0.223381 -0.204481 0.000653 0.968194 -0.250196 -0.00124986
0.222399 -0.214458 0.000653 0.959722 -0.280347 -0.0184343
0.220526 -0.224259 0.000653 0.936685 -0.34984 0.0152603
0.217615 -0.233854 0.000653 0.927393 -0.374086 -0.00136826
0.214705 -0.243448 0.000653 0.908675 -0.417503 -0.000937442
0.211795 -0.253042 0.000653 0.892884 -0.450284 -0.00155787
0.208814 -0.262608 0.000653 0.873094 -0.487551 -0.00111531
0.204088 -0.27145 0.000653 0.855396 -0.517975 -0.000666183
0.199362 -0.280292 0.000653 0.831095 -0.55612 -0.0033593
0.194635 -0.289134 0.000653 0.81715 -0.576413 -0.00379623
0.189909 -0.297977 0.000653 0.790316 -0.612698 -0.000955027
0.184177 -0.306146 0.000653 0.780121 -0.625627 -0.0011095
0.177817 -0.313897 0.000653 0.753812 -0.657089 -0.00152519
0.171457 -0.321648 0.000653 0.730845 -0.682543 -0.00119147
0.165096 -0.329398 0.000653 0.713818 -0.700331 -0.000706691
0.158469 -0.336881 0.000653 0.690394 -0.723392 -0.00773694
0.150718 -0.343241 0.000653 0.669849 -0.742458 -0.00766469
0.142969 -0.349602 0.000653 0.65539 -0.755284 0.00313017
0.135218 -0.355962 0.000653 0.620996 -0.783809 0.0026757
0.127467 -0.362322 0.000653 0.603195 -0.797593 -0.00132535
0.118877 -0.367426 0.000653 0.576378 -0.817183 -0.000436111
0.110035 -0.372152 0.000653 0.556861 -0.830535 -0.0108132
0.101193 -0.376878 0.000653 0.530372 -0.847731 0.00766046
0.09235 -0.381605 0.000653 0.501052 -0.865305 0.0139248
0.083248 -0.385703 0.000653 0.466831 -0.884345 -0.00129559
0.073653 -0.388613 0.000653 0.448916 -0.893573 -0.00120107
0.06406 -0.391523 0.000653 0.420359 -0.907357 -0.00126802
0.054465 -0.394434 0.000653 0.382157 -0.924038 0.0104882
0.044871 -0.397343 0.000653 0.335516 -0.94202 -0.00514085
0.034922 -0.398475 0.000653 0.299304 -0.954141 -0.00563664
0.024944 -0.399457 0.000653 0.254906 -0.966966 -0.00054516
0.014966 -0.40044 0.000653 0.160846 -0.986979 -0.000307107
0.004988 -0.401423 0.000653 0.0623549 -0.998054 -0.000197804
-0.004988 -0.401423 0.000653 -0.0670395 -0.99775 0.000657916
-0.014966 -0.40044 0.000653 -0.164014 -0.986458 0.000371749
-0.024944 -0.399457 0.000653 -0.247759 -0.968822 0.0003671
-0.034922 -0.398475 0.000653 -0.303445 -0.952848 0.00123722
-0.044871 -0.397343 0.000653 -0.341088 -0.940031 0.000544982
-0.054465 -0.394434 0.000653 -0.381742 -0.924269 0.000706397
-0.06406 -0.391523 0.000653 -0.423345 -0.905967 0.00174857
-0.073653 -0.388613 0.000653 -0.448667 -0.893646 0.00972554
-0.083248 -0.385703 0.000653 -0.469599 -0.882879 0.00134166
-0.09235 -0.381605 0.000653 -0.49651 -0.86803 0.00099368
-0.101193 -0.376878 0.000653 -0.531597 -0.846995 -0.00210689
-0.110035 -0.372152 0.000653 -0.558226 -0.829682 0.00325151
-0.118877 -0.367426 0.000653 -0.576294 -0.817242 0.000333446
-0.127467 -0.362322 0.000653 -0.603273 -0.797534 0.000602193
-0.135218 -0.355962 0.000653 -0.620285 -0.784374 0.00174798
-0.142969 -0.349602 0.000653 -0.655206 -0.755449 0.00118359
-0.150718 -0.343241 0.000653 -0.668766 -0.743473 0.000693763
-0.158469 -0.336881 0.000653 -0.687216 -0.72644 -0.00438057
-0.165096 -0.329398 0.000653 -0.709993 -0.704209 0.000879659
-0.171457 -0.321648 0.000653 -0.73025 -0.683091 -0.0110616
-0.177817 -0.313897 0.000653 -0.753198 -0.657792 0.00125015
-0.184177 -0.306146 0.000653 -0.780228 -0.625495 0.000792077
-0.189909 -0.297977 0.000653 -0.78972 -0.613468 0.000676701
-0.194635 -0.289134 0.000653 -0.817393 -0.576068 0.00373878
-0.199362 -0.280292 0.000653 -0.832532 -0.553965 0.00355509
-0.204088 -0.27145 0.000653 -0.855584 -0.517664 0.00108645
-0.208814 -0.262608 0.000653 -0.874332 -0.485325 0.00167816
-0.211795 -0.253042 0.000653 -0.89277 -0.450506 0.0025018
-0.214705 -0.243448 0.000653 -0.904567 -0.426329 0.00167645
-0.217615 -0.233854 0.000653 -0.923279 -0.383409 0.0235379
-0.220526 -0.224259 0.000653 -0.938266 -0.345609 -0.0145596
-0.222399 -0.214458 0.000653 -0.958036 -0.285978 0.0195908
-0.223381 -0.204481 0.000653 -0.966891 -0.255185 0.00177979
-0.224365 -0.194503 0.000653 -0.984917 -0.173022 0.00141095
-0.225347 -0.184525 0.000653 -0.994499 -0.104736 0.00154648
-0.226103 -0.174547 0.000653 -0.999821 0.0188913 0.001268
-0.22512 -0.16457 0.000653 -0.992509 0.122169 0.00035702
-0.224138 -0.154592 0.000653 -0.97759 0.210507 0.00222752
-0.223155 -0.144614 0.000653 -0.967712 0.252056 0.000570674
-0.222172 -0.134636 0.000653 -0.962151 0.272516 0.000768889
-0.219854 -0.124924 0.000653 -0.932469 0.36125 -4.94699e-05
-0.216944 -0.11533 0.000653 -0.913386 0.407094 -0.000363204
-0.214034 -0.105735 0.000653 -0.899786 0.436331 -0.000378944
-0.211123 -0.096141 0.000653 -0.889168 0.457582 -0.000218263
-0.207724 -0.086749 0.000653 -0.865416 0.501055 -7.89368e-05
-0.202997 -0.077907 0.000653 -0.857 0.515316 -0.000241269
-0.198271 -0.069065 0.000653 -0.840423 0.541931 -0.000340695
-0.193545 -0.060222 0.000653 -0.822727 0.568429 -0.00285492
-0.188819 -0.05138 0.000653 -0.807685 0.589614 0.000148963
-0.18271 -0.043461 0.000653 -0.807599 0.589731 0.000804954
-0.17635 -0.035711 0.000653 -0.779369 0.626564 0.000820352
-0.16999 -0.027961 0.000653 -0.765617 0.643295 0.00129693
-0.163629 -0.02021 0.000653 -0.749188 0.66235 0.00298202
-0.156681 -0.013048 0.000653 -0.737312 0.674819 0.0314648
-0.14893 -0.006688 0.000653 -0.718739 0.694125 0.040061
-0.14118 -0.000328 0.000653 -0.738076 0.674704 0.00424889
-0.13343 0.006033 0.000653 -0.792696 0.609547 0.00923545
