ply
format ascii 1.0
element vertex 718
property float x
property float y
property float z
end_header
0.000000 0.012393 -0.125026
-0.009932 0.012393 -0.124047
-0.019864 0.012393 -0.123069
-0.029592 0.012393 -0.121072
-0.039142 0.012393 -0.118175
-0.048645 0.012393 -0.115165
-0.057447 0.012393 -0.110461
-0.066248 0.012393 -0.105757
-0.074404 0.012393 -0.100086
-0.082118 0.012393 -0.093755
-0.089660 0.012393 -0.087251
-0.095991 0.012393 -0.079536
-0.102322 0.012393 -0.071822
-0.107586 0.012393 -0.063394
-0.112290 0.012393 -0.054593
-0.116656 0.012393 -0.045652
-0.119552 0.012393 -0.036101
-0.122450 0.012393 -0.026552
-0.123967 0.012393 -0.016727
-0.124946 0.012393 -0.006795
-0.125435 0.012393 0.003137
-0.124457 0.012393 0.013068
-0.123478 0.012393 0.022999
-0.121001 0.012393 0.032633
-0.118105 0.012393 0.042183
-0.114643 0.012393 0.051499
-0.109938 0.012393 0.060300
-0.105233 0.012393 0.069101
-0.099157 0.012393 0.076986
-0.092826 0.012393 0.084701
-0.085976 0.012393 0.091896
-0.078262 0.012393 0.098227
-0.070547 0.012393 0.104557
-0.061848 0.012393 0.109415
-0.053046 0.012393 0.114120
-0.043917 0.012393 0.118034
-0.034367 0.012393 0.120930
-0.024817 0.012393 0.123826
-0.014897 0.012393 0.124865
-0.004966 0.012393 0.125843
0.004965 0.012393 0.125843
0.014897 0.012393 0.124865
0.024817 0.012393 0.123827
0.034368 0.012393 0.120930
0.043917 0.012393 0.118034
0.053046 0.012393 0.114120
0.061848 0.012393 0.109416
0.070547 0.012393 0.104558
0.078262 0.012393 0.098227
0.085975 0.012393 0.091896
0.092826 0.012393 0.084701
0.099157 0.012393 0.076986
0.105234 0.012393 0.069101
0.109938 0.012393 0.060300
0.114642 0.012393 0.051499
0.118105 0.012393 0.042183
0.121001 0.012393 0.032633
0.123478 0.012393 0.023000
0.124457 0.012393 0.013068
0.125435 0.012393 0.003137
0.124946 0.012393 -0.006795
0.123967 0.012393 -0.016727
0.122450 0.012393 -0.026552
0.119552 0.012393 -0.036101
0.116656 0.012393 -0.045652
0.112290 0.012393 -0.054593
0.107586 0.012393 -0.063394
0.102322 0.012393 -0.071822
0.095991 0.012393 -0.079536
0.089660 0.012393 -0.087251
0.082118 0.012393 -0.093755
0.074404 0.012393 -0.100086
0.066248 0.012393 -0.105756
0.057447 0.012393 -0.110461
0.048645 0.012393 -0.115165
0.039142 0.012393 -0.118175
0.029592 0.012393 -0.121072
0.019864 0.012393 -0.123069
0.009932 0.012393 -0.124047
0.000000 -0.175698 -0.225563
-0.009946 -0.175698 -0.224584
-0.019891 -0.175698 -0.223604
-0.029836 -0.175698 -0.222625
-0.039781 -0.175698 -0.221644
-0.049512 -0.175698 -0.219584
-0.059075 -0.175698 -0.216683
-0.068638 -0.175698 -0.213783
-0.078201 -0.175698 -0.210881
-0.087671 -0.175698 -0.207755
-0.096484 -0.175698 -0.203043
-0.105297 -0.175698 -0.198332
-0.114111 -0.175698 -0.193621
-0.122925 -0.175698 -0.188911
-0.130990 -0.175698 -0.183080
-0.138716 -0.175698 -0.176740
-0.146440 -0.175698 -0.170401
-0.154166 -0.175698 -0.164061
-0.161544 -0.175698 -0.157375
-0.167885 -0.175698 -0.149650
-0.174224 -0.175698 -0.141925
-0.180564 -0.175698 -0.134199
-0.186903 -0.175698 -0.126474
-0.191919 -0.175698 -0.117864
-0.196630 -0.175698 -0.109051
-0.201341 -0.175698 -0.100238
-0.206052 -0.175698 -0.091424
-0.210084 -0.175698 -0.082329
-0.212985 -0.175698 -0.072767
-0.215887 -0.175698 -0.063203
-0.218787 -0.175698 -0.053640
-0.221688 -0.175698 -0.044077
-0.222788 -0.175698 -0.034155
-0.223767 -0.175698 -0.024211
-0.224747 -0.175698 -0.014265
-0.225726 -0.175698 -0.004319
-0.225726 -0.175698 0.005626
-0.224747 -0.175698 0.015572
-0.223767 -0.175698 0.025516
-0.222788 -0.175698 0.035462
-0.221688 -0.175698 0.045384
-0.218787 -0.175698 0.054946
-0.215887 -0.175698 0.064510
-0.212985 -0.175698 0.074073
-0.210084 -0.175698 0.083636
-0.206052 -0.175698 0.092731
-0.201342 -0.175698 0.101544
-0.196630 -0.175698 0.110358
-0.191919 -0.175698 0.119171
-0.186903 -0.175698 0.127780
-0.180564 -0.175698 0.135506
-0.174224 -0.175698 0.143231
-0.167885 -0.175698 0.150956
-0.161544 -0.175698 0.158682
-0.154166 -0.175698 0.165367
-0.146440 -0.175698 0.171707
-0.138716 -0.175698 0.178046
-0.130990 -0.175698 0.184387
-0.122925 -0.175698 0.190217
-0.114112 -0.175698 0.194929
-0.105297 -0.175698 0.199639
-0.096484 -0.175698 0.204350
-0.087671 -0.175698 0.209060
-0.078201 -0.175698 0.212188
-0.068638 -0.175698 0.215089
-0.059075 -0.175698 0.217990
-0.049512 -0.175698 0.220891
-0.039782 -0.175698 0.222951
-0.029836 -0.175698 0.223930
-0.019891 -0.175698 0.224911
-0.009946 -0.175698 0.225890
0.000000 -0.175698 0.226870
0.009945 -0.175698 0.225890
0.019891 -0.175698 0.224911
0.029836 -0.175698 0.223931
0.039781 -0.175698 0.222951
0.049512 -0.175698 0.220891
0.059075 -0.175698 0.217991
0.068638 -0.175698 0.215089
0.078202 -0.175698 0.212188
0.087671 -0.175698 0.209061
0.096484 -0.175698 0.204350
0.105298 -0.175698 0.199639
0.114111 -0.175698 0.194929
0.122924 -0.175698 0.190217
0.130990 -0.175698 0.184387
0.138715 -0.175698 0.178046
0.146440 -0.175698 0.171707
0.154165 -0.175698 0.165367
0.161545 -0.175698 0.158681
0.167884 -0.175698 0.150956
0.174224 -0.175698 0.143231
0.180564 -0.175698 0.135506
0.186903 -0.175698 0.127780
0.191919 -0.175698 0.119171
0.196630 -0.175698 0.110358
0.201342 -0.175698 0.101545
0.206052 -0.175698 0.092731
0.210084 -0.175698 0.083636
0.212985 -0.175698 0.074074
0.215886 -0.175698 0.064510
0.218787 -0.175698 0.054946
0.221688 -0.175698 0.045384
0.222788 -0.175698 0.035462
0.223767 -0.175698 0.025517
0.224747 -0.175698 0.015572
0.225726 -0.175698 0.005626
0.225726 -0.175698 -0.004319
0.224747 -0.175698 -0.014265
0.223767 -0.175698 -0.024210
0.222788 -0.175698 -0.034155
0.221688 -0.175698 -0.044077
0.218787 -0.175698 -0.053640
0.215887 -0.175698 -0.063203
0.212985 -0.175698 -0.072766
0.210084 -0.175698 -0.082329
0.206052 -0.175698 -0.091424
0.201342 -0.175698 -0.100237
0.196630 -0.175698 -0.109051
0.191919 -0.175698 -0.117864
0.186903 -0.175698 -0.126474
0.180564 -0.175698 -0.134199
0.174224 -0.175698 -0.141924
0.167884 -0.175698 -0.149650
0.161545 -0.175698 -0.157374
0.154165 -0.175698 -0.164061
0.146440 -0.175698 -0.170401
0.138716 -0.175698 -0.176740
0.130990 -0.175698 -0.183080
0.122925 -0.175698 -0.188911
0.114112 -0.175698 -0.193622
0.105298 -0.175698 -0.198332
0.096484 -0.175698 -0.203043
0.087671 -0.175698 -0.207754
0.078202 -0.175698 -0.210881
0.068638 -0.175698 -0.213783
0.059075 -0.175698 -0.216683
0.049512 -0.175698 -0.219584
0.039781 -0.175698 -0.221644
0.029836 -0.175698 -0.222625
0.019891 -0.175698 -0.223604
0.009946 -0.175698 -0.224584
0.000000 0.367221 -0.125026
-0.009932 0.367221 -0.124047
-0.019864 0.367221 -0.123069
-0.029592 0.367221 -0.121072
-0.039142 0.367221 -0.118175
-0.048645 0.367221 -0.115165
-0.057447 0.367221 -0.110461
-0.066248 0.367221 -0.105757
-0.074404 0.367221 -0.100086
-0.082118 0.367221 -0.093755
-0.089660 0.367221 -0.087251
-0.095991 0.367221 -0.079536
-0.102322 0.367221 -0.071822
-0.107586 0.367221 -0.063394
-0.112290 0.367221 -0.054593
-0.116656 0.367221 -0.045652
-0.119552 0.367221 -0.036101
-0.122450 0.367221 -0.026552
-0.123967 0.367221 -0.016727
-0.124946 0.367221 -0.006795
-0.125435 0.367221 0.003137
-0.124457 0.367221 0.013068
-0.123478 0.367221 0.022999
-0.121001 0.367221 0.032633
-0.118105 0.367221 0.042183
-0.114643 0.367221 0.051499
-0.109938 0.367221 0.060300
-0.105233 0.367221 0.069101
-0.099157 0.367221 0.076986
-0.092826 0.367221 0.084701
-0.085976 0.367221 0.091896
-0.078262 0.367221 0.098227
-0.070547 0.367221 0.104557
-0.061848 0.367221 0.109415
-0.053046 0.367221 0.114120
-0.043917 0.367221 0.118034
-0.034367 0.367221 0.120930
-0.024817 0.367221 0.123826
-0.014897 0.367221 0.124865
-0.004966 0.367221 0.125843
0.004965 0.367221 0.125843
0.014897 0.367221 0.124865
0.024817 0.367221 0.123827
0.034368 0.367221 0.120930
0.043917 0.367221 0.118034
0.053046 0.367221 0.114120
0.061848 0.367221 0.109416
0.070547 0.367221 0.104558
0.078262 0.367221 0.098227
0.085975 0.367221 0.091896
0.092826 0.367221 0.084701
0.099157 0.367221 0.076986
0.105234 0.367221 0.069101
0.109938 0.367221 0.060300
0.114642 0.367221 0.051499
0.118105 0.367221 0.042183
0.121001 0.367221 0.032633
0.123478 0.367221 0.023000
0.124457 0.367221 0.013068
0.125435 0.367221 0.003137
0.124946 0.367221 -0.006795
0.123967 0.367221 -0.016727
0.122450 0.367221 -0.026552
0.119552 0.367221 -0.036101
0.116656 0.367221 -0.045652
0.112290 0.367221 -0.054593
0.107586 0.367221 -0.063394
0.102322 0.367221 -0.071822
0.095991 0.367221 -0.079536
0.089660 0.367221 -0.087251
0.082118 0.367221 -0.093755
0.074404 0.367221 -0.100086
0.066248 0.367221 -0.105756
0.057447 0.367221 -0.110461
0.048645 0.367221 -0.115165
0.039142 0.367221 -0.118175
0.029592 0.367221 -0.121072
0.019864 0.367221 -0.123069
0.009932 0.367221 -0.124047
0.000000 0.006033 -0.132777
0.000000 -0.000328 -0.140526
0.000000 -0.006688 -0.148277
0.000000 -0.013048 -0.156028
0.000000 -0.020210 -0.162976
0.000000 -0.027961 -0.169336
0.000000 -0.035712 -0.175696
0.000000 -0.043461 -0.182056
0.000000 -0.051380 -0.188165
0.000000 -0.060222 -0.192891
0.000000 -0.069065 -0.197618
0.000000 -0.077907 -0.202344
0.000000 -0.086749 -0.207070
0.000000 -0.096141 -0.210470
0.000000 -0.105735 -0.213380
0.000000 -0.115330 -0.216291
0.000000 -0.124924 -0.219201
0.000000 -0.134636 -0.221518
0.000000 -0.144614 -0.222502
0.000000 -0.154592 -0.223484
0.000000 -0.164570 -0.224467
0.000000 -0.174547 -0.225450
0.000000 -0.184525 -0.224694
0.000000 -0.194503 -0.223711
0.000000 -0.204481 -0.222728
0.000000 -0.214458 -0.221745
0.000000 -0.224259 -0.219872
0.000000 -0.233854 -0.216962
0.000000 -0.243448 -0.214052
0.000000 -0.253042 -0.211141
0.000000 -0.262608 -0.208161
0.000000 -0.271450 -0.203435
0.000000 -0.280292 -0.198708
0.000000 -0.289134 -0.193982
0.000000 -0.297977 -0.189256
0.000000 -0.306146 -0.183524
0.000000 -0.313897 -0.177164
0.000000 -0.321648 -0.170804
0.000000 -0.329398 -0.164443
0.000000 -0.336881 -0.157816
0.000000 -0.343241 -0.150065
0.000000 -0.349602 -0.142315
0.000000 -0.355962 -0.134565
0.000000 -0.362322 -0.126814
0.000000 -0.367426 -0.118224
0.000000 -0.372152 -0.109381
0.000000 -0.376878 -0.100539
0.000000 -0.381605 -0.091697
0.000000 -0.385703 -0.082595
0.000000 -0.388613 -0.073000
0.000000 -0.391523 -0.063406
0.000000 -0.394434 -0.053812
0.000000 -0.397343 -0.044217
0.000000 -0.398475 -0.034268
0.000000 -0.399457 -0.024291
0.000000 -0.400440 -0.014313
0.000000 -0.401423 -0.004335
0.000000 -0.401423 0.005642
0.000000 -0.400440 0.015620
0.000000 -0.399457 0.025597
0.000000 -0.398475 0.035575
0.000000 -0.397343 0.045524
0.000000 -0.394434 0.055118
0.000000 -0.391523 0.064713
0.000000 -0.388613 0.074307
0.000000 -0.385703 0.083901
0.000000 -0.381605 0.093004
0.000000 -0.376878 0.101846
0.000000 -0.372152 0.110688
0.000000 -0.367426 0.119530
0.000000 -0.362322 0.128121
0.000000 -0.355962 0.135871
0.000000 -0.349602 0.143622
0.000000 -0.343241 0.151372
0.000000 -0.336881 0.159122
0.000000 -0.329398 0.165750
0.000000 -0.321648 0.172111
0.000000 -0.313897 0.178471
0.000000 -0.306146 0.184831
0.000000 -0.297977 0.190562
0.000000 -0.289134 0.195289
0.000000 -0.280292 0.200015
0.000000 -0.271450 0.204741
0.000000 -0.262608 0.209468
0.000000 -0.253042 0.212448
0.000000 -0.243448 0.215358
0.000000 -0.233854 0.218269
0.000000 -0.224259 0.221179
0.000000 -0.214458 0.223052
0.000000 -0.204481 0.224035
0.000000 -0.194503 0.225018
0.000000 -0.184525 0.226000
0.000000 -0.174547 0.226757
0.000000 -0.164570 0.225773
0.000000 -0.154592 0.224791
0.000000 -0.144614 0.223808
0.000000 -0.134636 0.222825
0.000000 -0.124924 0.220508
0.000000 -0.115330 0.217597
0.000000 -0.105735 0.214687
0.000000 -0.096141 0.211777
0.000000 -0.086749 0.208377
0.000000 -0.077907 0.203651
0.000000 -0.069065 0.198924
0.000000 -0.060222 0.194198
0.000000 -0.051380 0.189472
0.000000 -0.043461 0.183363
0.000000 -0.035711 0.177003
0.000000 -0.027961 0.170643
0.000000 -0.020210 0.164283
0.000000 -0.013048 0.157335
0.000000 -0.006688 0.149584
0.000000 -0.000328 0.141833
0.000000 0.006033 0.134083
0.000000 0.012393 0.126333
0.000000 0.022531 0.126333
0.000000 0.032669 0.126333
0.000000 0.042807 0.126333
0.000000 0.052945 0.126333
0.000000 0.063083 0.126333
0.000000 0.073221 0.126333
0.000000 0.083358 0.126333
0.000000 0.093496 0.126333
0.000000 0.103634 0.126333
0.000000 0.113772 0.126333
0.000000 0.123911 0.126333
0.000000 0.134049 0.126333
0.000000 0.144187 0.126333
0.000000 0.154324 0.126333
0.000000 0.164462 0.126333
0.000000 0.174600 0.126333
0.000000 0.184738 0.126333
0.000000 0.194876 0.126333
0.000000 0.205014 0.126333
0.000000 0.215152 0.126333
0.000000 0.225289 0.126333
0.000000 0.235427 0.126333
0.000000 0.245565 0.126333
0.000000 0.255703 0.126333
0.000000 0.265841 0.126333
0.000000 0.275979 0.126333
0.000000 0.286118 0.126333
0.000000 0.296256 0.126333
0.000000 0.306393 0.126333
0.000000 0.316531 0.126333
0.000000 0.326669 0.126333
0.000000 0.336807 0.126333
0.000000 0.346945 0.126333
0.000000 0.357083 0.126333
0.000000 0.367221 0.126333
0.000000 0.367221 0.116278
0.000000 0.367221 0.106224
0.000000 0.367221 0.096169
0.000000 0.367221 0.086115
0.000000 0.367221 0.076061
0.000000 0.367221 0.066007
0.000000 0.367221 0.055952
0.000000 0.367221 0.045898
0.000000 0.367221 0.035843
0.000000 0.367221 0.025789
0.000000 0.367221 0.015735
0.000000 0.367221 0.005681
0.000000 0.367221 -0.004374
0.000000 0.367221 -0.014428
0.000000 0.367221 -0.024483
0.000000 0.367221 -0.034537
0.000000 0.367221 -0.044591
0.000000 0.367221 -0.054645
0.000000 0.367221 -0.064700
0.000000 0.367221 -0.074754
0.000000 0.367221 -0.084809
0.000000 0.367221 -0.094862
0.000000 0.367221 -0.104917
0.000000 0.367221 -0.114971
0.000000 0.357083 -0.125026
0.000000 0.346945 -0.125026
0.000000 0.336807 -0.125026
0.000000 0.326669 -0.125026
0.000000 0.316531 -0.125026
0.000000 0.306393 -0.125026
0.000000 0.296256 -0.125026
0.000000 0.286118 -0.125026
0.000000 0.275979 -0.125026
0.000000 0.265841 -0.125026
0.000000 0.255703 -0.125026
0.000000 0.245565 -0.125026
0.000000 0.235427 -0.125026
0.000000 0.225289 -0.125026
0.000000 0.215152 -0.125026
0.000000 0.205014 -0.125026
0.000000 0.194876 -0.125026
0.000000 0.184738 -0.125026
0.000000 0.174600 -0.125026
0.000000 0.164462 -0.125026
0.000000 0.154324 -0.125026
0.000000 0.144187 -0.125026
0.000000 0.134049 -0.125026
0.000000 0.123911 -0.125026
0.000000 0.113772 -0.125026
0.000000 0.103634 -0.125026
0.000000 0.093496 -0.125026
0.000000 0.083358 -0.125026
0.000000 0.073221 -0.125026
0.000000 0.063083 -0.125026
0.000000 0.052945 -0.125026
0.000000 0.042807 -0.125026
0.000000 0.032669 -0.125026
0.000000 0.022531 -0.125026
-0.125679 0.012393 0.000653
-0.125679 0.022531 0.000653
-0.125679 0.032669 0.000653
-0.125679 0.042807 0.000653
-0.125679 0.052945 0.000653
-0.125679 0.063083 0.000653
-0.125679 0.073221 0.000653
-0.125679 0.083358 0.000653
-0.125679 0.093496 0.000653
-0.125679 0.103634 0.000653
-0.125679 0.113772 0.000653
-0.125679 0.123911 0.000653
-0.125679 0.134049 0.000653
-0.125679 0.144187 0.000653
-0.125679 0.154324 0.000653
-0.125679 0.164462 0.000653
-0.125679 0.174600 0.000653
-0.125679 0.184738 0.000653
-0.125679 0.194876 0.000653
-0.125679 0.205014 0.000653
-0.125679 0.215152 0.000653
-0.125679 0.225289 0.000653
-0.125679 0.235427 0.000653
-0.125679 0.245565 0.000653
-0.125679 0.255703 0.000653
-0.125679 0.265841 0.000653
-0.125679 0.275979 0.000653
-0.125679 0.286118 0.000653
-0.125679 0.296256 0.000653
-0.125679 0.306393 0.000653
-0.125679 0.316531 0.000653
-0.125679 0.326669 0.000653
-0.125679 0.336807 0.000653
-0.125679 0.346945 0.000653
-0.125679 0.357083 0.000653
-0.125679 0.367221 0.000653
-0.115624 0.367221 0.000653
-0.105571 0.367221 0.000653
-0.095516 0.367221 0.000653
-0.085462 0.367221 0.000653
-0.075407 0.367221 0.000653
-0.065353 0.367221 0.000653
-0.055299 0.367221 0.000653
-0.045245 0.367221 0.000653
-0.035190 0.367221 0.000653
-0.025136 0.367221 0.000653
-0.015081 0.367221 0.000653
-0.005027 0.367221 0.000653
0.005027 0.367221 0.000653
0.015081 0.367221 0.000653
0.025136 0.367221 0.000653
0.035190 0.367221 0.000653
0.045245 0.367221 0.000653
0.055299 0.367221 0.000653
0.065353 0.367221 0.000653
0.075407 0.367221 0.000653
0.085462 0.367221 0.000653
0.095516 0.367221 0.000653
0.105571 0.367221 0.000653
0.115624 0.367221 0.000653
0.125679 0.367221 0.000653
0.125679 0.357083 0.000653
0.125679 0.346945 0.000653
0.125679 0.336807 0.000653
0.125679 0.326669 0.000653
0.125679 0.316531 0.000653
0.125679 0.306393 0.000653
0.125679 0.296256 0.000653
0.125679 0.286118 0.000653
0.125679 0.275979 0.000653
0.125679 0.265841 0.000653
0.125679 0.255703 0.000653
0.125679 0.245565 0.000653
0.125679 0.235427 0.000653
0.125679 0.225289 0.000653
0.125679 0.215152 0.000653
0.125679 0.205014 0.000653
0.125679 0.194876 0.000653
0.125679 0.184738 0.000653
0.125679 0.174600 0.000653
0.125679 0.164462 0.000653
0.125679 0.154324 0.000653
0.125679 0.144187 0.000653
0.125679 0.134049 0.000653
0.125679 0.123911 0.000653
0.125679 0.113772 0.000653
0.125679 0.103634 0.000653
0.125679 0.093496 0.000653
0.125679 0.083358 0.000653
0.125679 0.073221 0.000653
0.125679 0.063083 0.000653
0.125679 0.052945 0.000653
0.125679 0.042807 0.000653
0.125679 0.032669 0.000653
0.125679 0.022531 0.000653
0.125679 0.012393 0.000653
0.133430 0.006033 0.000653
0.141180 -0.000328 0.000653
0.148930 -0.006688 0.000653
0.156681 -0.013048 0.000653
0.163630 -0.020210 0.000653
0.169990 -0.027961 0.000653
0.176350 -0.035712 0.000653
0.182710 -0.043461 0.000653
0.188819 -0.051380 0.000653
0.193545 -0.060222 0.000653
0.198271 -0.069065 0.000653
0.202997 -0.077907 0.000653
0.207724 -0.086749 0.000653
0.211123 -0.096141 0.000653
0.214034 -0.105735 0.000653
0.216944 -0.115330 0.000653
0.219854 -0.124924 0.000653
0.222172 -0.134636 0.000653
0.223155 -0.144614 0.000653
0.224138 -0.154592 0.000653
0.225120 -0.164570 0.000653
0.226103 -0.174547 0.000653
0.225347 -0.184525 0.000653
0.224365 -0.194503 0.000653
0.223381 -0.204481 0.000653
0.222399 -0.214458 0.000653
0.220526 -0.224259 0.000653
0.217615 -0.233854 0.000653
0.214705 -0.243448 0.000653
0.211795 -0.253042 0.000653
0.208814 -0.262608 0.000653
0.204088 -0.271450 0.000653
0.199362 -0.280292 0.000653
0.194635 -0.289134 0.000653
0.189909 -0.297977 0.000653
0.184177 -0.306146 0.000653
0.177817 -0.313897 0.000653
0.171457 -0.321648 0.000653
0.165096 -0.329398 0.000653
0.158469 -0.336881 0.000653
0.150718 -0.343241 0.000653
0.142969 -0.349602 0.000653
0.135218 -0.355962 0.000653
0.127467 -0.362322 0.000653
0.118877 -0.367426 0.000653
0.110035 -0.372152 0.000653
0.101193 -0.376878 0.000653
0.092350 -0.381605 0.000653
0.083248 -0.385703 0.000653
0.073653 -0.388613 0.000653
0.064060 -0.391523 0.000653
0.054465 -0.394434 0.000653
0.044871 -0.397343 0.000653
0.034922 -0.398475 0.000653
0.024944 -0.399457 0.000653
0.014966 -0.400440 0.000653
0.004988 -0.401423 0.000653
-0.004988 -0.401423 0.000653
-0.014966 -0.400440 0.000653
-0.024944 -0.399457 0.000653
-0.034922 -0.398475 0.000653
-0.044871 -0.397343 0.000653
-0.054465 -0.394434 0.000653
-0.064060 -0.391523 0.000653
-0.073653 -0.388613 0.000653
-0.083248 -0.385703 0.000653
-0.092350 -0.381605 0.000653
-0.101193 -0.376878 0.000653
-0.110035 -0.372152 0.000653
-0.118877 -0.367426 0.000653
-0.127467 -0.362322 0.000653
-0.135218 -0.355962 0.000653
-0.142969 -0.349602 0.000653
-0.150718 -0.343241 0.000653
-0.158469 -0.336881 0.000653
-0.165096 -0.329398 0.000653
-0.171457 -0.321648 0.000653
-0.177817 -0.313897 0.000653
-0.184177 -0.306146 0.000653
-0.189909 -0.297977 0.000653
-0.194635 -0.289134 0.000653
-0.199362 -0.280292 0.000653
-0.204088 -0.271450 0.000653
-0.208814 -0.262608 0.000653
-0.211795 -0.253042 0.000653
-0.214705 -0.243448 0.000653
-0.217615 -0.233854 0.000653
-0.220526 -0.224259 0.000653
-0.222399 -0.214458 0.000653
-0.223381 -0.204481 0.000653
-0.224365 -0.194503 0.000653
-0.225347 -0.184525 0.000653
-0.226103 -0.174547 0.000653
-0.225120 -0.164570 0.000653
-0.224138 -0.154592 0.000653
-0.223155 -0.144614 0.000653
-0.222172 -0.134636 0.000653
-0.219854 -0.124924 0.000653
-0.216944 -0.115330 0.000653
-0.214034 -0.105735 0.000653
-0.211123 -0.096141 0.000653
-0.207724 -0.086749 0.000653
-0.202997 -0.077907 0.000653
-0.198271 -0.069065 0.000653
-0.193545 -0.060222 0.000653
-0.188819 -0.051380 0.000653
-0.182710 -0.043461 0.000653
-0.176350 -0.035711 0.000653
-0.169990 -0.027961 0.000653
-0.163629 -0.020210 0.000653
-0.156681 -0.013048 0.000653
-0.148930 -0.006688 0.000653
-0.141180 -0.000328 0.000653
-0.133430 0.006033 0.000653
