ply
format ascii 1.0
element vertex 800
property float x
property float y
property float z
property float nx
property float ny
property float nz
end_header
0.403648 -0.22932 -0.405098 -0.921194 0.388693 0.0178999 
0.0892313 -0.247988 0.812297 -0.126033 0.650322 -0.749131 
0.392518 0.150135 -0.634628 0.892941 -0.127558 -0.431724 
0.438341 0.272 -0.7042 -0.565946 -0.713657 0.412793 
0.419291 0.117091 0.172153 0.982735 -0.184903 0.00648389 
0.425155 -0.159833 -0.407467 -0.976853 0.213805 0.00673094 
-0.241083 0.0724834 0.869093 -0.423547 -0.416328 0.804536 
0.368054 -0.292641 -0.392575 -0.846846 0.531821 0.00427259 
0.509256 0.229082 -0.501489 -0.974661 0.145845 0.169605 
-0.430292 0.18644 0.774633 0.627343 0.762825 -0.156646 
-0.115882 0.280715 -0.864469 -0.0327718 -0.893872 -0.447123 
0.353498 -0.128719 0.52262 0.826566 -0.550133 0.11892 
0.140674 0.101772 0.919691 0.192031 -0.427752 0.883262 
-0.419354 -0.179242 -0.466817 0.961353 0.272624 0.0384204 
-0.157011 -0.287971 -0.810678 0.27573 0.480406 0.832576 
-0.114662 0.202856 -0.902716 0.239712 0.243002 0.93994 
-0.464248 0.113152 -0.420119 0.99607 0.0783184 0.0413598 
0.0424475 0.131717 0.94815 0.0646219 -0.498373 0.864551 
0.431821 -0.128801 -0.29696 -0.978652 0.204463 -0.0208433 
-0.4062 0.0344098 -0.274451 -0.975018 -0.221698 0.0137518 
-0.394709 0.140231 0.705829 -0.939305 -0.268259 0.213876 
-0.302578 -0.185452 -0.539005 -0.564406 -0.822551 -0.0696786 
-0.452486 0.0183452 0.112869 0.988227 0.126571 0.0859523 
0.175956 -0.227589 0.140672 0.153281 -0.988182 -0.000731953 
0.241131 -0.214592 0.238152 0.274299 -0.961596 0.00970581 
-0.413422 0.0795875 -0.343644 -0.987318 -0.151948 -0.0459969 
-0.0177272 -0.213796 -0.710749 0.00244683 -0.957494 -0.288442 
0.0690964 0.278738 -0.860903 0.0863603 -0.816101 -0.57142 
-0.214781 -0.00391205 0.906534 0.321448 0.370648 -0.871373 
-0.00364498 -0.234283 -0.343732 0.00113674 -0.999997 -0.00201331 
-0.447632 -0.0219572 -0.22831 0.994212 0.107326 0.00492151 
-0.393475 -0.251764 0.16434 0.895594 0.444511 -0.0179295 
0.45245 0.0175986 -0.392076 -0.985463 0.167862 -0.0261551 
-0.496047 0.19906 0.580754 0.915528 0.366928 -0.164842 
-0.355083 -0.12126 0.543063 -0.843427 -0.527123 0.103786 
-0.0776714 -0.233761 -0.180487 -0.0341679 -0.999414 0.00199387 
-0.302386 0.127039 0.855882 -0.622911 -0.344273 0.702466 
0.036946 -0.195838 0.678061 0.00498371 -0.928842 0.370443 
0.381112 -0.273783 0.305755 -0.868026 0.496394 0.0111399 
0.141486 -0.230919 0.35311 0.0844304 -0.996421 -0.00409415 
0.44324 -0.0516117 -0.45457 -0.999989 -1.22463e-16 0.00469277 
0.270796 -0.0312719 -0.81376 -0.519279 -6.35934e-17 0.854605 
-0.0988375 -0.233185 -0.422038 -0.0407537 -0.999155 0.00534751 
0.064246 -0.234007 0.0728179 0.0252225 -0.999678 -0.00259778 
0.357584 0.16234 0.809961 0.799213 -0.201317 0.56633 
-0.347847 -0.145885 -0.0294974 -0.806445 -0.591098 0.0158051 
0.419549 -0.176219 -0.483983 -0.964437 0.260385 0.0454066 
-0.383821 -0.0696633 -0.432699 -0.959352 -0.281121 -0.0248016 
-0.354049 -0.136721 -0.263946 -0.831758 -0.555125 0.00386119 
-0.00731095 -0.234248 0.383498 -0.00425881 -0.999971 0.00625539 
0.0445416 -0.0134788 -0.885685 -0.141612 -1.73425e-17 0.989922 
0.412722 0.0746695 0.326679 0.981179 -0.193099 0.000139702 
-0.423025 0.142262 0.182972 -0.994412 -0.101695 -0.0283351 
-0.400602 -0.234911 0.405724 0.922535 0.385699 -0.0128203 
-0.243229 -0.21354 0.424157 -0.278136 -0.960391 0.017034 
0.1788 -0.131711 0.757589 0.215276 -0.724421 0.654883 
0.386139 -0.0627903 -0.141555 0.960964 -0.276522 0.00913128 
-0.309375 -0.0778535 0.724706 -0.71864 -0.445234 0.534156 
-0.0838006 -0.29544 -0.82442 0.161969 0.451283 0.877559 
0.306766 -0.185878 -0.385847 0.556837 -0.830506 -0.0138788 
0.375872 0.0680797 0.711549 0.917169 -0.25182 0.308849 
0.239182 0.153493 0.911077 0.49043 -0.354555 0.796096 
0.061963 -0.234031 -0.241019 0.0184496 -0.99983 -0.00048178 
0.00654496 -0.233273 0.452767 0.0024276 -0.999519 0.0309329 
0.427144 0.0307139 0.681642 -0.939405 0.188132 -0.286573 
0.449241 -0.00877315 0.173344 -0.990093 0.140373 -0.00330312 
0.331535 -0.0666547 0.807999 -0.652595 0.295505 -0.697708 
-0.188935 0.118333 -0.856248 -0.10576 -1.29519e-17 0.994392 
-0.207118 -0.198326 0.625913 -0.213047 -0.937433 0.275372 
-0.0645532 -0.0467314 0.921764 0.098569 0.379163 -0.920065 
0.429283 0.184984 0.0592323 0.998977 -0.041049 -0.0189704 
-0.412737 -0.0752412 0.661178 0.922639 0.226894 -0.311858 
0.469814 0.279904 0.688971 0.0558829 -0.997806 0.0355001 
-0.101248 -0.221452 -0.663027 -0.0761085 -0.978813 -0.190085 
0.251635 -0.0337017 0.878052 -0.39062 0.382255 -0.837435 
-0.185033 -0.226283 -0.229259 -0.153959 -0.988056 0.0064585 
0.423505 -0.166504 0.178927 -0.972138 0.233886 -0.0156427 
-0.0182282 -0.227273 -0.64115 -0.00288977 -0.990054 -0.140658 
0.512527 0.201752 -0.374152 -0.940356 0.338511 0.0337691 
-0.340894 -0.0167908 -0.686699 -0.845425 -0.174189 -0.50489 
0.150105 -0.230239 0.25481 0.10739 -0.994211 -0.00356178 
-0.335671 -0.28807 0.624365 0.718435 0.609139 -0.335858 
0.421748 0.133487 -0.120861 0.993994 -0.100666 -0.0429195 
-0.344803 -0.15011 0.0445843 -0.782833 -0.622222 -0.00353289 
-0.33476 0.227436 0.876786 -0.691296 -0.471056 0.54792 
-0.110719 -0.120615 0.884212 0.132903 0.395774 -0.90868 
-0.276972 -0.190686 0.563622 -0.431429 -0.889025 0.153308 
-0.246177 -0.213123 -0.0892555 -0.2991 -0.954213 -0.00419406 
0.446774 0.265139 0.137745 0.748966 -0.662129 -0.0251938 
-0.472843 0.280404 0.315118 -0.464756 -0.885193 0.0208402 
0.391708 -0.0421525 0.330625 0.975681 -0.219095 0.00665463 
-0.431322 -0.131317 -0.111338 0.980573 0.196017 -0.007301 
0.0548727 -0.233231 -0.546695 0.0111857 -0.998988 -0.0435574 
0.193926 0.251246 -0.8826 -0.36141 -4.42599e-17 0.932407 
-0.389604 -0.0499244 -0.284954 -0.971487 -0.237067 -0.00344129 
-0.00372286 -0.151578 -0.881224 -0.0144492 0.080974 0.996611 
-0.447135 -0.0259724 -0.0161461 0.987339 0.158001 0.0140764 
-0.269393 -0.0344061 -0.757216 -0.499159 -0.516489 -0.695758 
-0.251978 -0.211371 0.191265 -0.309655 -0.950699 0.016868 
0.241419 -0.100061 0.854582 -0.376839 0.358439 -0.854116 
0.0381448 -0.16274 -0.798928 0.0494613 -0.641597 -0.765446 
-0.512515 0.201431 -0.226913 0.95717 0.28712 -0.0372405 
0.435616 -0.10778 0.0937711 -0.987231 0.158163 0.0189774 
0.420183 0.123143 -0.319955 0.985708 -0.164338 -0.0370502 
-0.361122 -0.29643 -0.521059 0.833939 0.54555 0.0831914 
-0.409778 0.0574691 0.421233 -0.98601 -0.166616 -0.00486776 
-0.10211 0.280781 1.04984 -0.119564 -0.936988 0.328266 
-0.413606 -0.173171 0.546199 0.954916 0.272805 -0.117104 
0.217225 -0.205756 -0.651538 0.277697 -0.932429 -0.231216 
-0.467192 0.134868 -0.125909 0.940229 0.340341 0.0117474 
0.428057 0.186058 0.780397 -0.659176 0.751356 0.0308495 
-0.188996 -0.0893404 -0.794016 -0.474429 -0.262166 -0.840349 
0.429852 0.189075 -0.403411 0.996372 -0.0768943 0.036482 
-0.348063 -0.145712 0.331054 -0.80524 -0.592949 -0.000540636 
-0.424991 -0.160299 0.149061 0.976916 0.2135 0.00726777 
0.297684 -0.159205 -0.780715 -0.600909 0.115022 0.790998 
0.421862 0.145556 -0.47895 0.987741 -0.142099 -0.0646161 
0.148225 -0.207203 0.831033 -0.20183 0.533613 -0.821293 
-0.24998 -0.212023 0.326958 -0.299047 -0.954198 0.00874055 
-0.0181877 0.162875 0.964718 -0.0521203 -0.439022 0.896963 
-0.320376 -0.175701 -0.196841 -0.654332 -0.756204 -0.00233201 
-0.450194 0.132414 0.657972 0.951765 0.242781 -0.187616 
0.33155 -0.0106619 0.746072 0.760839 -0.366163 0.535769 
-0.307024 0.0452003 0.877516 0.593408 0.315035 -0.740689 
-0.386249 -0.00245887 0.766793 0.870653 0.191317 -0.453168 
0.405894 -0.100119 -0.646531 -0.937368 -1.14794e-16 0.34834 
0.297029 0.254741 1.01345 -0.361078 -0.153028 -0.919894 
-0.433026 0.211399 0.323863 -0.98491 -0.172867 0.00834915 
0.103473 0.191127 -0.83379 0.17563 -0.00822077 -0.984422 
0.0595429 0.0497128 -0.839754 0.0327956 0.118994 -0.992353 
0.180451 0.120412 -0.812269 0.303192 -0.0578436 -0.951172 
0.486268 0.226955 0.737455 -0.79032 0.562824 -0.242123 
-0.47355 0.183643 -0.433054 0.872403 0.488214 0.0236564 
-0.0168771 -0.150077 0.759298 -0.0050134 -0.782488 0.622645 
-0.370038 -0.0289282 -0.621619 -0.92737 -0.193903 -0.31998 
-0.433805 0.200412 0.875277 0.769458 0.518838 -0.372481 
0.284661 -0.176187 -0.647428 0.576451 -0.760102 -0.299915 
-0.327701 -0.169144 0.113786 -0.695125 -0.718876 -0.00436283 
0.0389985 0.265686 1.08 -0.0720621 -0.781473 -0.619764 
-0.409151 0.0525165 -0.0451199 -0.990166 -0.13873 -0.0180431 
0.477222 0.281153 0.283754 0.182128 -0.983271 0.00275319 
-0.104591 -0.108443 -0.816902 -0.205392 -0.348489 -0.914532 
0.392583 -0.241769 0.511696 -0.884545 0.458422 -0.0861872 
-0.0222856 -0.234283 -0.114309 -0.00724057 -0.999972 -0.00186898 
-0.0445646 -0.148333 -0.808767 -0.080494 -0.551074 -0.830565 
0.450157 0.207833 0.844615 -0.753937 0.609758 -0.244488 
0.374978 -0.0627554 -0.57259 0.950364 -0.267362 -0.159139 
0.163325 -0.204545 -0.700803 0.199628 -0.922675 -0.329877 
-0.485882 0.20274 -0.624625 0.747021 0.56519 0.350029 
-0.282097 0.28064 -0.814608 -0.235301 -0.838778 -0.491003 
-0.0682184 0.196999 1.05301 0.0695824 0.792226 -0.606248 
0.166378 -0.22863 0.0664888 0.125454 -0.99208 -0.0062783 
0.394116 0.200042 -0.731431 -0.538488 0.51239 0.668944 
0.457131 0.0560592 0.202942 -0.996105 0.0876246 0.00984522 
-0.407441 0.0417756 0.167948 -0.981368 -0.191624 -0.0140095 
0.413028 0.0766903 -0.0775024 0.975076 -0.220189 0.0272559 
0.285901 -0.197851 0.371895 0.471746 -0.881729 0.00313368 
0.434625 0.222272 -0.139157 0.966562 -0.255825 -0.0176619 
0.312934 -0.179998 -0.504973 0.61176 -0.791005 -0.00773351 
-0.457176 0.0565182 -0.210783 0.981879 0.189481 -0.0032307 
0.43293 -0.0822049 0.546107 -0.979249 0.177473 -0.0978486 
0.203871 -0.223137 0.394449 0.185159 -0.982579 0.0159347 
-0.421141 0.129732 -0.248838 -0.999991 1.22464e-16 0.00422638 
-0.235465 -0.0494935 -0.832506 0.335729 0.23021 0.913395 
-0.51108 0.223732 0.508768 0.972969 0.229366 -0.0268693 
0.0849471 -0.233607 0.00118961 0.0354807 -0.999369 -0.00166933 
-0.348928 -0.144166 -0.415879 -0.805362 -0.592755 0.00575475 
0.450508 0.00264534 0.341284 -0.996838 -1.22077e-16 0.0794607 
-0.471862 0.169384 0.00864128 0.79159 0.463808 -0.39783 
-0.255104 -0.210276 -0.163346 -0.329604 -0.944116 -0.00255824 
0.0148031 -0.0459511 0.924718 -0.0273952 0.386531 -0.92187 
0.0214887 -0.234284 0.185909 0.00537421 -0.999983 -0.00203793 
0.446617 -0.0299011 0.264331 -0.992657 0.120843 -0.00545377 
-0.479702 0.28088 -0.108136 -0.0668392 -0.996787 0.044148 
0.379613 -0.0831919 -0.308868 0.946731 -0.321923 -0.00808775 
-0.0434066 0.236937 1.00071 -0.0533661 -0.532517 0.844736 
0.282921 0.127405 -0.813879 -0.320703 0.0914611 0.942754 
-0.411945 -0.206353 0.249376 0.94826 0.317493 -0.00130794 
0.367367 -0.293593 -0.188443 -0.836764 0.547177 0.0205945 
0.373435 -0.130055 -0.702804 -0.838954 0.13704 0.526665 
-0.42454 -0.162309 -0.379017 0.980482 0.196459 -0.00763792 
-0.347266 -0.0498911 -0.751216 0.77155 -0.0947822 0.629068 
0.378227 -0.0874532 0.276963 0.937913 -0.346796 -0.0072127 
-0.0130497 -0.234284 0.10694 -0.00810407 -0.999961 0.00349194 
-0.438215 0.243471 0.0905772 -0.903884 -0.41543 0.10204 
-0.405848 0.032018 0.349734 -0.999997 1.22464e-16 0.00239661 
-0.261573 0.090519 -0.7728 -0.249063 -0.11054 -0.962158 
-0.398455 -0.234898 -0.509256 0.925013 0.372488 0.074856 
0.244855 0.0432183 0.851374 0.43228 -0.408161 0.804076 
-0.0260289 -0.0234476 0.865786 -0.0338862 -0.542607 0.839303 
0.376609 -0.280847 -0.11371 -0.846114 0.53296 -0.00666684 
0.373117 -0.097549 0.45946 0.920504 -0.390222 0.0199782 
0.512558 0.230397 0.133465 -0.998998 -1.22342e-16 -0.044755 
0.055092 -0.215866 -0.699791 0.0131994 -0.966304 -0.257063 
-0.472433 0.280333 -0.331834 -0.339755 -0.940513 0.000963269 
0.366815 0.254851 0.852538 0.642755 -0.66311 0.383603 
0.385013 -0.0663479 -0.409897 0.95649 -0.291423 -0.0141378 
-0.191723 -0.153702 0.848872 0.288545 0.437121 -0.851861 
0.25321 -0.210954 -0.0906433 0.316823 -0.948387 0.0136111 
0.263648 -0.287677 0.714922 -0.454695 0.630644 -0.62892 
0.0514515 -0.249907 -0.854932 -0.101661 0.413033 0.905024 
-0.10126 -0.233098 0.265372 -0.0466743 -0.998869 -0.00905635 
0.0770351 0.0486635 0.960042 -0.104347 0.390617 -0.91462 
0.066894 -0.174021 -0.873455 -0.128242 0.117927 0.984707 
-0.332477 0.280765 0.947004 -0.243741 -0.900028 0.361304 
0.176426 -0.227522 -0.00301392 0.140068 -0.990135 -0.00363549 
-0.00615696 -0.234283 -0.416109 -0.00386597 -0.99999 -0.00208417 
0.202929 -0.27418 0.761946 -0.261961 0.641904 -0.720649 
0.00503456 -0.271022 0.797221 0.0162364 0.664711 -0.746925 
0.242558 -0.160587 0.689953 0.348902 -0.808183 0.474454 
0.326152 0.0695023 0.800988 0.726802 -0.315282 0.61021 
-0.341894 -0.148822 0.755782 0.715559 0.337662 -0.611522 
0.283228 0.202699 -0.765872 0.528326 -0.0861455 -0.84466 
0.369978 -0.103319 -0.488194 0.920632 -0.388448 -0.0393139 
0.42003 0.122019 0.02972 0.973388 -0.228486 0.017586 
0.247768 -0.212674 0.312892 0.300691 -0.953519 -0.0196365 
-0.389674 -0.0498328 -0.0595356 -0.963768 -0.266514 -0.011049 
0.416563 -0.192363 -0.212856 -0.96524 0.261358 0.00187539 
-0.365315 -0.295803 0.246507 0.854484 0.519312 -0.0131119 
-0.38986 -0.259181 0.0832972 0.88796 0.459476 0.0202215 
0.42461 -0.057933 0.627161 -0.950248 0.206734 -0.233 
-0.230024 -0.190691 -0.818838 0.48866 0.13535 0.861912 
0.50092 0.273468 0.363914 -0.591285 -0.799971 -0.102124 
-0.0796875 -0.195903 -0.750524 -0.0913288 -0.867796 -0.488457 
0.340632 -0.155165 -0.303979 0.76429 -0.644736 0.0132824 
0.395236 -0.236268 -0.540358 -0.909528 0.397403 0.12178 
0.212632 -0.169569 -0.831868 -0.421016 0.0913408 0.902442 
0.510236 0.254503 0.199518 -0.953785 -0.294362 0.0603777 
-0.173118 -0.227897 0.327273 -0.139667 -0.990192 0.00363421 
0.318304 0.049279 -0.785702 -0.655502 0.0685097 0.75208 
0.103992 -0.0996892 0.804392 0.106562 -0.652414 0.750334 
-0.449708 0.277608 0.653934 -0.68139 -0.71738 0.145167 
0.0936626 -0.233374 -0.0717498 0.0414957 -0.999137 0.00156154 
-0.04615 -0.225208 -0.864107 0.123436 0.307776 0.943418 
-0.342205 -0.240909 -0.699319 0.795935 0.350212 0.493801 
-0.345811 -0.293009 -0.618944 0.812837 0.529083 0.243652 
0.51256 0.204164 -0.131531 -0.928672 0.360902 0.0855448 
0.423648 0.146207 0.34089 0.996215 -0.0825903 -0.0270886 
0.0992878 0.280091 1.04137 0.0911779 -0.961179 0.260426 
0.25209 -0.211347 -0.00481551 0.306892 -0.951743 -0.00154836 
-0.385366 -0.266815 -0.145296 0.871656 0.490039 0.00880432 
-0.326208 -0.109009 -0.66787 -0.804158 -0.364199 -0.469776 
-0.409608 -0.21362 -0.190881 0.947625 0.319328 -0.00610679 
0.378543 -0.277512 0.383123 -0.874084 0.485427 -0.0183781 
0.261499 -0.185813 0.615918 0.396882 -0.877873 0.267998 
0.407772 0.0435762 0.146844 0.98626 -0.165198 -0.00062569 
-0.42264 0.142253 0.450018 -1 1.22465e-16 0.000668158 
0.356722 -0.294347 -0.569772 -0.831897 0.529077 0.167405 
0.482488 0.280421 -0.442902 0.100533 -0.994728 -0.0202559 
0.120657 -0.232243 -0.151729 0.0618936 -0.998069 0.00533006 
-0.336283 -0.0848169 0.794767 0.663426 0.326742 -0.673131 
0.451158 0.049594 -0.527158 -0.988651 0.0987999 0.113168 
0.455964 0.280951 -0.610864 0.0664898 -0.99708 0.0375494 
-0.438802 -0.0845796 0.409416 0.987733 0.153883 -0.0265134 
0.266054 -0.205427 0.458868 0.364429 -0.930515 0.0365076 
-0.365813 -0.295327 -0.211886 0.852867 0.521867 0.0164965 
-0.380823 -0.0482192 0.567102 -0.958273 -0.254521 0.130121 
-0.295082 -0.143642 0.667897 -0.564553 -0.70854 0.423381 
0.355528 -0.205881 -0.700911 -0.829868 0.259639 0.49387 
-0.394072 -0.0312696 -0.359377 -0.97506 -0.221713 0.0100479 
-0.27363 -0.281341 -0.747957 0.582596 0.472992 0.660954 
-0.411294 -0.208655 -0.105745 0.94615 0.323729 0.000131127 
0.0903092 -0.233492 -0.431042 0.0464135 -0.998905 0.00591571 
-0.0865705 -0.0721125 0.828437 -0.082082 -0.606034 0.791193 
-0.378009 -0.0163609 0.629786 -0.930637 -0.252476 0.264899 
-0.254862 0.207153 1.03661 0.329931 0.785257 -0.523943 
0.416797 -0.191554 -0.0683474 -0.963803 0.266579 0.00440139 
0.463376 0.279901 0.604152 0.414068 -0.910156 0.0127735 
0.41525 -0.134075 0.597788 -0.958222 0.207257 -0.197116 
0.454342 0.0331323 -0.0366344 -0.989506 0.142075 -0.0263043 
0.44754 0.170668 0.70714 -0.743245 0.533973 -0.403064 
-0.419172 -0.112995 0.601383 0.963283 0.189758 -0.18994 
-0.457177 0.0565566 0.0312433 0.987534 0.0747764 -0.138512 
-0.438347 0.280125 0.761707 -0.423435 -0.904019 0.0587599 
0.213591 0.0914415 0.947648 -0.295671 0.298945 -0.90731 
0.0901937 0.197532 1.05905 -0.0769511 0.73609 -0.672495 
-0.43561 0.229437 0.0172949 -0.965809 -0.246785 -0.0794315 
-0.265097 -0.246803 0.755601 0.436743 0.595737 -0.674057 
-0.307935 0.0460232 0.807121 -0.60329 -0.372203 0.705341 
-0.426444 0.184691 -0.496109 -0.982815 -0.148344 -0.109859 
-0.254216 -0.210588 -0.238273 -0.321106 -0.947042 0.00148224 
0.250936 -0.0272554 0.807704 0.455419 -0.476436 0.752065 
-0.155502 -0.0586764 0.825703 -0.233198 -0.572276 0.786205 
0.4493 -0.00852624 -0.234381 -0.999416 -1.22393e-16 0.0341649 
0.124088 -0.0413316 -0.872736 -0.167397 -2.05002e-17 0.98589 
0.177291 -0.227398 -0.0987408 0.129774 -0.991491 0.0102292 
-0.49224 0.199129 -0.54846 0.842363 0.534622 0.0678507 
-0.400266 0.254345 -0.6527 -0.615529 -0.645541 -0.452107 
-0.512515 0.222148 0.262447 0.984274 0.175842 -0.0168412 
-0.388919 0.251912 0.806315 -0.751819 -0.583375 0.307315 
0.499816 0.219855 0.659924 -0.840523 0.539841 -0.0457496 
0.510076 0.205225 0.53374 -0.847279 0.475833 -0.23601 
0.106407 0.117514 -0.827017 0.0961345 -0.0162376 -0.995236 
-0.0623849 -0.234026 0.201417 -0.0281298 -0.999604 0.000279516 
-0.450122 0.00566506 0.446468 0.992667 0.112553 -0.0440974 
8.42617e-05 0.264343 -0.907798 0.0828528 -0.671536 0.736325 
-0.47334 0.280582 0.47005 -0.414654 -0.909949 0.00747699 
0.261536 -0.208025 -0.434664 0.358426 -0.933558 0.00113313 
-0.299654 -0.190382 -0.389267 -0.524034 -0.851694 -0.00243561 
0.471909 0.169462 0.193718 -0.83849 0.527057 -0.13837 
-0.401029 0.0473624 0.570222 -0.975721 -0.191048 0.107091 
-0.0404362 0.201785 -0.91138 0.0694539 0.259922 0.963129 
0.512539 0.19926 0.367708 -0.95258 0.279346 0.120652 
0.466063 0.125963 -0.0663234 -0.914253 0.404779 -0.0171797 
0.419117 0.11818 0.443342 0.981029 -0.186115 0.0542552 
-0.37606 -0.164456 -0.685833 0.863667 0.221536 0.45277 
-0.418641 0.268628 0.889395 0.511012 -0.831237 -0.218887 
0.364727 -0.29651 0.239081 -0.84091 0.54076 0.0211733 
0.401402 -0.0327243 0.71986 -0.918617 0.183238 -0.350096 
-0.0659451 -0.214911 0.838815 0.0536629 0.572007 -0.818492 
-0.269832 -0.137563 -0.720079 -0.589843 -0.451904 -0.669229 
-0.457715 0.0709102 0.476064 0.980335 0.183535 0.0725196 
-0.17603 -0.150445 -0.850061 0.35336 0.0996683 0.930163 
-0.37806 -0.278787 -0.0755641 0.867025 0.49814 -0.0111788 
0.00240803 -0.234284 0.269351 0.00303144 -0.999994 -0.00160707 
0.299207 -0.0931506 -0.715286 0.692739 -0.251649 -0.675859 
-0.330306 0.219341 0.994092 0.48216 0.722962 -0.494821 
-0.189402 0.00444026 -0.805458 -0.35371 4.3317e-17 -0.935355 
-0.416614 0.0999987 -0.172759 -0.989034 -0.146352 0.0198165 
-0.166477 -0.220588 -0.838839 0.280758 0.271695 0.92052 
0.364547 0.163807 0.879843 -0.422821 0.620562 -0.660398 
-0.368949 -0.108356 0.433528 -0.883257 -0.467983 0.0291386 
-0.0934019 -0.0167435 -0.879359 0.235162 0.00488029 0.971944 
-0.42925 0.185048 0.242787 -0.991606 -0.129228 -0.00423868 
-0.271696 0.222756 -0.773974 -0.411601 -5.04066e-17 -0.911364 
0.343916 -0.282069 -0.648504 -0.801255 0.510685 0.311755 
-0.138401 0.0637281 -0.824361 -0.2471 -3.0261e-17 -0.96899 
0.322998 0.280725 -0.789606 0.0432706 -0.998781 0.0237551 
0.501031 0.273404 -0.374487 -0.488046 -0.872033 -0.0370015 
-0.391623 -0.0423761 0.197323 -0.972155 -0.233962 -0.0132471 
-0.00332843 0.209628 1.08626 0.00468385 0.707031 -0.707167 
-0.509539 0.25725 -0.27601 0.890114 -0.45518 -0.0225542 
0.0782201 -0.23348 0.415707 0.0343104 -0.999337 0.0122042 
-0.429925 -0.137932 0.0536425 0.982553 0.185554 -0.0126265 
0.445004 -0.0433697 -0.0643759 -0.997635 -1.22175e-16 -0.0687284 
0.445158 -0.0422012 -0.315053 -0.999663 -1.22423e-16 0.0259635 
0.0112196 -0.234283 -0.0524146 0.00580472 -0.999982 0.00137414 
-0.233974 -0.216647 -0.394312 -0.261658 -0.965154 -0.00349012 
0.402883 -0.231201 0.0699195 -0.928369 0.371655 0.00174814 
-0.437431 -0.0962701 -0.0259769 0.989802 0.142422 0.00268713 
-0.0178356 -0.234283 -0.270874 -0.00719947 -0.999959 0.00546411 
0.0900717 -0.213148 0.618397 0.0443767 -0.97287 0.227055 
0.342869 0.113354 -0.770501 -0.682165 0.173178 0.710395 
0.36032 -0.126558 -0.173748 0.860065 -0.509939 -0.015842 
0.479263 0.280948 -0.147155 0.218109 -0.975709 0.0204925 
-0.178135 0.0556522 0.943679 0.26764 0.331149 -0.904825 
-0.0935442 -0.164844 -0.870585 0.195455 0.169354 0.96598 
-0.383708 0.225721 0.946984 0.54966 0.545293 -0.632874 
0.399629 -0.00431335 -0.105172 0.982653 -0.185345 0.0064124 
0.437126 0.238198 0.327143 0.936321 -0.349476 -0.0341967 
-0.315672 -0.179448 -0.0825853 -0.60878 -0.793254 -0.0116387 
-0.246528 -0.129594 0.728124 -0.404815 -0.685752 0.604871 
-0.388839 -0.0530413 -0.141487 -0.971915 -0.233652 0.0280694 
-0.00599248 -0.177346 0.864167 -0.00874574 0.501752 -0.864968 
-0.354268 -0.294108 0.545487 0.798247 0.582755 -0.152311 
-0.0966536 -0.220393 0.58157 -0.0495023 -0.984162 0.170218 
0.430116 0.190908 0.402583 0.998012 -0.0559807 0.0289405 
0.000590101 -0.234283 0.0258483 -0.00123262 -0.999998 -0.00144077 
-0.438515 -0.089499 -0.3211 0.982264 0.187462 0.00384714 
-0.198895 -0.0832744 0.879181 0.32559 0.358559 -0.874886 
0.143927 -0.0855711 -0.812435 0.367766 -0.227742 -0.9016 
-0.360362 0.175325 0.812734 -0.786806 -0.193155 0.586197 
0.426197 -0.155184 0.254546 -0.970013 0.242992 0.005533 
-0.0889124 0.127256 -0.82699 -1.07077e-16 5.94321e-17 -1 
-0.0703125 -0.233797 -0.498469 -0.0223246 -0.999599 -0.0174088 
-0.328897 0.202951 -0.822724 -7.8664e-17 -9.38593e-17 -1 
-0.364705 0.0893358 0.752543 -0.912929 1.11802e-16 0.408118 
0.202734 0.0429872 -0.849623 -0.40051 4.90484e-17 0.916292 
0.354515 -0.192722 0.709071 -0.759319 0.400899 -0.512557 
-0.455059 0.0645455 -0.503686 0.987487 0.130307 0.0888229 
0.444876 0.0178103 0.570235 -0.998632 -1.22297e-16 -0.0522821 
0.0242021 -0.234258 -0.479437 -0.00203237 -0.99994 -0.0107206 
0.245739 -0.213265 -0.362294 0.299357 -0.954032 -0.0144277 
-0.404011 -0.2277 0.320489 0.925391 0.379014 0.000193786 
-0.188303 -0.225815 0.246948 -0.160916 -0.986965 -0.00233415 
0.0457 0.163468 1.01354 -0.0606963 0.71782 -0.693578 
-0.407898 -0.208685 0.484643 0.946421 0.318302 -0.0545012 
0.431143 -0.128077 0.426074 -0.981706 0.190371 -0.00352388 
0.421596 -0.155528 0.510866 -0.977274 0.198298 -0.0749288 
-0.294896 -0.0393528 0.849953 0.554813 0.33736 -0.760507 
-0.40384 0.101755 -0.69871 0.93104 -0.0381695 0.362914 
-0.386631 -0.132799 0.693379 0.892824 0.240261 -0.380972 
0.149178 -0.00237656 -0.819915 0.338047 -0.0566143 -0.939425 
-0.404943 0.0317693 -0.458744 -0.980695 -0.19365 -0.027149 
-0.166149 -0.22865 0.0966454 -0.119947 -0.992762 -0.0059899 
-0.397643 0.0855769 0.64382 -0.953134 -0.194762 0.231522 
-0.414752 -0.172717 -0.549778 0.955868 0.256805 0.142717 
-0.48079 0.19902 0.661187 0.8396 0.523121 -0.146346 
0.492166 0.278447 0.0849516 -0.47602 -0.87941 0.00654206 
0.42035 0.12422 -0.23361 0.994409 -0.0754463 0.0738759 
0.420201 0.123125 0.262178 0.989576 -0.143717 -0.00921503 
-0.337209 0.18662 -0.722576 -0.911636 0.302502 -0.27823 
-0.167481 -0.172578 -0.757798 -0.308684 -0.708167 -0.634991 
-0.486677 0.279896 -0.185702 0.203038 -0.979079 -0.01343 
-0.300467 -0.189979 0.281807 -0.536602 -0.843551 -0.0218843 
0.421501 -0.174845 0.109206 -0.965997 0.258386 0.00930644 
0.366006 -0.29513 0.167897 -0.828609 0.559574 -0.0168455 
0.353969 -0.137026 0.387182 0.81613 -0.577732 0.0125742 
0.32321 -0.173508 0.15512 0.67516 -0.73764 -0.00672532 
-0.0223628 -0.23327 -0.553114 -0.000730417 -0.999291 -0.0376377 
0.406685 -0.221537 0.239473 -0.937858 0.34699 -0.00449133 
-0.40565 -0.127371 -0.634057 0.938939 0.152814 0.308289 
0.437448 -0.0964394 -0.370944 -0.988318 0.152393 0.00213917 
0.132539 -0.230479 -0.542934 0.0826025 -0.99572 -0.041444 
0.340417 -0.0593378 0.694826 0.814189 -0.381001 0.438104 
-0.512508 0.211002 0.348407 0.952471 0.303038 0.0310954 
-0.307672 -0.185349 0.377866 -0.573407 -0.819051 0.0189907 
-0.170363 -0.0472928 -0.859392 0.267931 0.115367 0.956506 
0.427512 0.17943 0.483546 0.99917 -0.0367042 -0.0176473 
0.127505 0.0681384 -0.873031 -0.220091 -2.69534e-17 0.975479 
0.388124 -0.194378 0.634445 -0.891859 0.363358 -0.269367 
-0.141727 0.245923 0.992192 -0.182981 -0.627881 0.756494 
0.40354 0.0177692 0.0475059 0.992846 -0.118097 0.0175788 
-0.34023 -0.134662 -0.745677 0.757049 0.14923 0.636088 
-0.426137 0.179495 0.522092 -0.995054 -0.0967213 0.0226336 
-0.0633078 -0.234016 0.332579 -0.0185354 -0.999828 0.00040999 
0.210864 -0.221949 -0.28826 0.195277 -0.980708 0.00886709 
-0.373032 0.108654 0.841554 0.701645 0.450597 -0.551957 
0.0528706 -0.234127 -0.13037 0.0162089 -0.999868 -0.000528809 
0.383795 -0.268493 -0.460885 -0.869959 0.493124 0.000576479 
-0.450965 0.00600193 0.210487 0.992058 0.104183 -0.0704693 
-0.288866 -0.209606 -0.774207 0.605299 0.290535 0.741082 
-0.424557 0.235693 -0.566802 -0.864352 -0.427924 -0.264152 
-0.2987 -0.175621 -0.614904 -0.609959 -0.760549 -0.22252 
-0.446719 -0.0279184 0.364273 0.989415 0.14511 -0.000260141 
0.00799862 -0.0759783 -0.886562 -0.084146 0.0551998 0.994923 
-0.435921 -0.105703 -0.236944 0.982279 0.187101 0.0109982 
-0.449988 -0.0016535 0.298937 0.996485 0.0787541 0.0285661 
-0.173253 -0.227255 0.43279 -0.135843 -0.990489 0.0218638 
0.437953 0.242056 -0.21482 0.89635 -0.43876 -0.0636185 
0.379478 -0.00438342 0.636883 0.942628 -0.250291 0.220924 
0.25424 -0.297377 -0.749462 -0.539849 0.505329 0.673205 
-0.223563 0.280528 1.01168 -0.176544 -0.857422 0.483384 
0.00171984 0.0501441 -0.887688 -0.024434 -0.0537126 0.998257 
0.467079 0.187441 0.592726 -0.730407 0.665347 -0.154331 
0.440743 0.252543 -0.315642 0.811791 -0.580919 0.0593997 
0.364413 -0.296924 -0.270501 -0.846925 0.531525 -0.0140901 
-0.0256514 -0.210619 0.632561 -0.0121791 -0.961878 0.273208 
-0.335195 0.0859439 -0.712458 -0.89212 -0.240962 -0.382177 
0.188135 -0.212556 0.578142 0.160182 -0.97138 0.175394 
0.430247 0.19171 -0.068655 0.99325 -0.11564 0.00904309 
-0.51096 0.230173 -0.473551 0.89476 0.438248 -0.0856892 
-0.0383826 0.00641956 -0.841642 1.09133e-16 -5.55655e-17 -1 
0.380404 0.0797715 -0.639955 0.897773 -0.154627 -0.412424 
-0.0123577 -0.285081 -0.838994 0.0416279 0.469838 0.88177 
0.220799 -0.214931 0.512543 0.219292 -0.972259 0.0813864 
0.454104 0.0311941 -0.137637 -0.999803 0.019064 0.00547096 
-0.21932 0.144316 0.91576 -0.423071 -0.376593 0.824129 
0.293307 -0.187914 -0.572561 0.535045 -0.835496 -0.125196 
0.512559 0.221678 0.264098 -0.923362 0.38049 0.0512878 
-0.437296 0.239187 -0.382601 -0.92876 -0.370348 -0.0157028 
0.187355 -0.165328 -0.755348 0.358914 -0.634785 -0.684273 
-0.348878 -0.127906 -0.574709 -0.850714 -0.494833 -0.177275 
-0.15235 -0.211554 0.827332 0.219319 0.53263 -0.817438 
-0.0493014 0.240843 -0.841646 -0.0588617 -0.403003 -0.913304 
-0.431717 -0.12829 0.302521 0.978395 0.206733 0.0023342 
-0.137987 0.197643 -0.826182 -0.16837 -2.06194e-17 -0.985724 
-0.425743 0.160797 -0.380986 -0.994018 -0.104071 -0.0331192 
0.434504 -0.11405 -0.0840198 -0.980787 0.195081 -0.000202048 
0.369911 -0.107639 0.141062 0.90396 -0.427601 0.00357795 
0.141416 -0.0488191 0.835797 0.192388 -0.539004 0.820038 
0.471894 0.169314 -0.256452 -0.816127 0.565464 -0.119109 
-0.459148 0.241171 0.824132 0.949534 0.0271232 -0.312488 
-0.418699 0.113513 0.00712958 -0.974689 -0.209852 -0.0770971 
0.0580063 -0.234073 0.339039 0.0173577 -0.999836 -0.00524598 
-0.473864 0.28058 0.141205 -0.300866 -0.953534 -0.0158901 
-0.241679 -0.191687 -0.671584 -0.377484 -0.865036 -0.330483 
0.111682 -0.190923 0.684713 0.0773149 -0.908828 0.409944 
0.409094 0.0520333 -0.250815 0.982897 -0.183654 -0.0136258 
0.414017 -0.20075 -0.291326 -0.951598 0.306763 -0.0188966 
-0.394758 -0.0705497 -0.680781 0.884938 0.0929331 0.456342 
-0.432846 -0.122937 -0.0927816 0.981953 0.188991 -0.00706026 
0.0219613 0.109458 -0.826988 -0.0361244 0.0978764 -0.994543 
0.074375 -0.227716 -0.628566 0.0249999 -0.992428 -0.120257 
0.0720355 -0.0891523 -0.828686 0.113281 -0.232681 -0.965933 
0.389395 -0.189977 -0.640153 -0.904864 0.289355 0.312241 
0.105617 0.109467 0.98276 -0.0809194 0.436465 -0.896075 
-0.512509 0.234223 0.0997543 0.980634 0.178907 0.0796789 
0.413288 0.125539 0.584199 0.965008 -0.170777 0.198985 
-0.0139594 0.123424 -0.88738 -0.0170814 0.170466 0.985215 
-0.387815 -0.233732 0.570736 0.890955 0.416597 -0.18068 
-0.417794 0.11745 -0.475117 -0.996744 1.22066e-16 -0.0806318 
0.33217 -0.125119 -0.637885 0.812127 -0.48322 -0.32703 
0.244253 0.184833 0.97677 -0.238198 0.726349 -0.644731 
-0.181538 -0.111304 0.776726 -0.242397 -0.645439 0.724329 
-0.425049 0.156016 0.368172 -0.999502 1.22404e-16 0.0315458 
-0.43317 0.00237201 -0.600001 0.959702 0.136966 0.245383 
-0.420327 -0.179085 -0.256922 0.970222 0.242133 -0.00646731 
0.16832 0.145389 0.986432 -0.354837 0.554866 -0.752472 
0.0875035 -0.233552 -0.35882 0.0406884 -0.99916 -0.00494471 
-0.454817 0.037367 -0.387315 0.989856 0.142072 -0.00041342 
-0.512296 0.237006 -0.386907 0.968242 0.242478 0.0609272 
0.434751 -0.091135 -0.512191 -0.983775 0.133568 0.119775 
0.365627 -0.116633 0.0489031 0.880897 -0.472896 -0.0197497 
0.447429 0.0986865 -0.588066 -0.979659 0.0375232 0.197131 
-0.175345 -0.227646 -0.455814 -0.144902 -0.989432 0.00534018 
0.0597724 -0.15311 0.753354 0.041624 -0.789873 0.611856 
-0.375359 -0.0945998 0.0108235 -0.928105 -0.371887 -0.0179284 
-0.399176 0.0352714 -0.542333 -0.979377 -0.137275 -0.148242 
-0.429031 -0.141877 0.220516 0.97749 0.21098 0.000699123 
-0.366627 -0.294069 0.37426 0.841816 0.539743 -0.00484882 
-0.448053 -0.0185539 -0.309197 0.993819 0.111013 8.71581e-05 
0.0951806 -0.121939 0.885895 -0.114342 0.417495 -0.901456 
0.186728 -0.226047 -0.445713 0.154657 -0.987935 0.00815971 
-0.383171 0.0596664 -0.625624 -0.921585 -0.068767 -0.382036 
0.51256 0.218304 0.0470813 -0.999883 -1.2245e-16 -0.0153116 
-0.0879644 -0.233541 0.130869 -0.0336964 -0.999423 0.004264 
0.459972 0.0867071 -0.465897 -0.993493 -1.21668e-16 0.113894 
-0.300015 -0.190214 -0.00263422 -0.536817 -0.843682 0.00526573 
0.115174 -0.232546 -0.29323 0.0638442 -0.997959 -0.00163226 
0.404828 0.0345342 0.48268 0.984234 -0.17564 0.0208604 
-0.22704 -0.218323 0.036003 -0.236507 -0.971612 0.00586267 
-0.437728 0.0257076 0.629033 0.964051 0.179986 -0.195476 
0.37751 0.0144254 -0.723573 -0.743639 0.0972689 0.661468 
0.450773 0.00384265 0.0976039 -0.98819 0.153235 0.000637292 
-0.436832 -0.0918083 -0.474122 0.988726 0.136102 0.0624232 
-0.0935938 0.193147 0.973865 -0.186458 -0.425443 0.885569 
-0.341893 0.162718 0.902931 0.365478 0.555605 -0.746813 
-0.192698 0.204698 -0.884183 -0.0427045 -5.22979e-18 0.999088 
-0.358947 0.0270027 -0.747155 0.493277 0.358996 0.792338 
0.0107022 -0.234283 -0.189515 0.00360279 -0.999993 -0.000361716 
0.465401 0.120928 -0.176961 -0.932033 0.354454 0.0753451 
0.191362 0.197158 1.03127 -0.309136 0.72819 -0.611697 
0.368939 -0.288383 0.454666 -0.856399 0.513815 -0.0507437 
-0.156897 -0.229649 -0.379172 -0.100372 -0.994948 0.00174377 
-0.205623 -0.222914 -0.296235 -0.197731 -0.980256 -0.000717761 
0.479769 0.280549 0.533739 0.107185 -0.992592 0.057214 
-0.438243 0.23777 -0.722442 0.87095 0.237935 0.429923 
0.239593 -0.0881099 0.771282 0.408024 -0.566719 0.715784 
-0.387246 0.206053 -0.778719 0.522874 0.444317 0.727451 
0.241903 -0.213683 -0.507544 0.28818 -0.957251 -0.024972 
0.389014 -0.052442 -0.239446 0.964086 -0.26536 0.0110643 
0.512558 0.201599 -0.304004 -0.90646 0.406418 -0.114694 
0.103905 -0.0405278 0.91981 -0.125741 0.365802 -0.922159 
0.458008 0.0629147 -0.336877 -0.970682 0.239212 -0.0235602 
0.42272 -0.169931 0.0166922 -0.964891 0.26265 0.000770853 
0.406541 0.0359405 0.249894 0.985264 -0.167613 -0.0340712 
0.249565 -0.212159 -0.222615 0.299488 -0.954077 -0.00668027 
0.167417 -0.133889 0.865889 -0.252585 0.429448 -0.86705 
-0.163747 -0.181153 0.692051 -0.159278 -0.88407 0.439375 
-0.447238 -0.0251452 -0.108319 0.994493 0.10078 -0.0287506 
-0.445907 -0.0129033 -0.500453 0.988746 0.125537 0.0813786 
0.325915 -0.170801 -0.114775 0.66945 -0.742847 -0.00392401 
-0.469736 0.280855 -0.524379 -0.465539 -0.884337 -0.0349446 
-0.407506 0.0100023 -0.673804 0.900445 0.151013 0.407913 
0.51256 0.199378 -0.0355635 -0.939768 0.341199 -0.0204841 
0.0928178 -0.233404 0.203954 0.0370809 -0.999312 -0.000173284 
0.347169 -0.134957 -0.560842 0.846632 -0.512388 -0.143777 
-0.45967 0.28055 -0.609431 -0.323434 -0.945549 -0.0364371 
0.212774 -0.217722 -0.574938 0.225852 -0.971218 -0.0756718 
-0.512515 0.223824 -0.143373 0.980722 0.193971 -0.0236703 
-0.465122 0.119126 -0.310135 0.942558 0.332846 0.0282568 
0.402573 0.221702 0.925036 -0.576697 0.604972 -0.549026 
-0.174943 -0.217102 0.562416 -0.132747 -0.979718 0.150104 
-0.425716 0.0719848 0.714597 0.921929 0.224567 -0.31562 
0.400874 -0.120388 0.665706 -0.940242 0.193106 -0.280456 
-0.331968 0.130546 -0.781017 -0.608891 -0.577085 -0.544265 
0.406992 0.0391135 0.398622 0.979444 -0.201717 -0.000556864 
-0.404402 0.0233 -0.16159 -0.983964 -0.178361 0.00168549 
-0.133869 -0.228206 0.497673 -0.0754177 -0.994221 0.0763968 
0.23816 0.0373201 -0.783522 0.534628 -0.0740567 -0.841837 
-0.383795 -0.0749896 0.734095 0.887914 0.224547 -0.401481 
-0.403872 -0.228684 -0.307064 0.920007 0.391903 -0.000434772 
0.442239 0.269507 -0.542533 0.668227 -0.728587 -0.150444 
-0.0859882 -0.233583 -0.345288 -0.0395462 -0.999211 -0.00376243 
0.442698 0.258225 0.448434 0.810479 -0.585759 0.0032746 
0.403223 0.106281 0.79177 -0.964733 0.172165 -0.199121 
0.441852 0.102547 0.674216 -0.946624 0.1129 -0.30192 
0.281559 0.096027 0.916974 -0.553211 0.275887 -0.786031 
-0.412669 -0.204594 0.0200338 0.946601 0.322403 -0.00168144 
0.407234 -0.220489 -0.135897 -0.940298 0.340329 0.00400086 
0.364453 -0.296883 -0.043985 -0.823917 0.566482 -0.0160873 
0.316562 -0.266364 -0.71519 -0.69291 0.462836 0.552864 
0.471864 0.16919 0.289444 -0.865619 0.458981 0.200098 
-0.194295 -0.28057 0.758819 0.269113 0.635582 -0.723611 
0.43487 -0.11204 -0.212733 -0.972906 0.230705 0.0151536 
-0.300519 -0.188646 0.463933 -0.56039 -0.82732 0.0387844 
-0.365063 -0.296158 0.0284387 0.850262 0.526336 0.00491486 
-0.25802 -0.117497 -0.814904 0.448313 0.140637 0.882744 
0.267532 -0.101312 -0.810848 -0.519141 0.100208 0.848794 
0.393515 0.0241992 0.766927 -0.876962 0.233041 -0.420273 
-0.402305 -0.232537 -0.401067 0.91816 0.396181 0.00486737 
-0.393706 -0.0332824 0.111249 -0.97358 -0.227481 0.0198662 
-0.259123 0.163518 -0.828206 -4.38264e-17 -1.14354e-16 -1 
0.440045 -0.0228436 -0.547255 -0.982498 0.1245 0.138552 
0.335532 0.241884 -0.730717 0.661248 -0.254701 -0.705605 
0.482881 0.280437 -0.0728872 0.0693151 -0.99758 0.00544779 
0.439825 0.250181 0.219437 0.855762 -0.517107 -0.0164611 
0.431413 -0.130046 0.320354 -0.973755 0.227465 -0.00779067 
-0.0914402 -0.201627 0.659047 -0.0371949 -0.945494 0.323507 
-0.419019 0.115579 0.116646 -0.988336 -0.134702 0.0710481 
-0.0808847 -0.233692 -0.0583381 -0.0275824 -0.999584 0.00848132 
0.286597 -0.111699 0.716685 0.565907 -0.582374 0.583601 
-0.443374 0.0791271 -0.595074 0.976575 0.0138074 0.214733 
0.41926 0.117386 -0.40986 0.975092 -0.221779 -0.00323753 
-0.476567 0.281051 0.385139 -0.37124 -0.928362 -0.0180345 
0.14338 -0.190732 -0.854077 -0.287418 0.172856 0.942079 
0.37022 -0.259691 0.586542 -0.849907 0.480786 -0.215643 
0.0858595 0.201757 -0.907088 -0.191701 0.311364 0.930754 
-0.417991 0.00248371 0.694923 0.922923 0.182878 -0.338774 
-0.446358 -0.0315747 -0.417741 0.994036 0.108106 0.0143445 
0.512159 0.238286 0.427192 -0.959414 -0.281014 -0.0235864 
-0.130575 -0.267325 0.789168 0.141461 0.653677 -0.743434 
-0.401648 0.0205604 0.501027 -0.98141 -0.180757 0.0645041 
0.428461 0.179248 0.130792 0.997849 -0.020533 0.0622607 
0.392323 -0.0396371 0.11299 0.973588 -0.226964 0.0247656 
-0.286783 -0.197346 -0.316359 -0.461556 -0.887111 0.000524028 
-0.463176 0.105222 0.399133 0.942668 0.330323 -0.0475808 
-0.0671417 -0.23357 0.42528 -0.0220951 -0.999533 0.0211071 
0.36211 -0.104983 0.754063 -0.776866 0.299116 -0.554085 
0.121233 -0.294092 0.76239 -0.151255 0.627797 -0.76354 
-0.135348 0.00698572 0.870683 -0.201838 -0.444057 0.872969 
-0.387211 -0.207192 -0.630426 0.913242 0.285063 0.291081 
-0.429041 0.188291 -0.67234 0.729189 0.553705 0.402112 
-0.456993 0.0550416 -0.0979827 0.986515 0.13866 0.086956 
-0.419436 0.118348 0.286276 -0.998435 1.22273e-16 -0.0559251 
-0.442484 -0.0197582 0.541856 0.981502 0.183784 -0.0536386 
-0.471565 0.167229 0.100671 0.809362 0.461869 0.362781 
-0.43308 0.211777 -0.131904 -0.992187 -0.124656 -0.00513241 
0.316734 -0.17861 -0.193538 0.626401 -0.77945 -0.00889726 
-0.28295 0.169357 0.950166 0.54726 0.630697 -0.550206 
0.0871964 -0.225659 0.548575 0.0458585 -0.989312 0.138412 
0.391141 0.260313 -0.770829 -0.702105 -0.285995 0.652117 
-0.505628 0.199062 0.163799 0.933594 0.344951 0.097012 
0.396183 0.0643301 0.628283 0.963148 -0.176738 0.202753 
0.243063 -0.214034 0.0777374 0.274657 -0.961542 -0.00112385 
0.251123 0.256612 0.959571 0.321671 -0.702831 0.634473 
-0.281338 0.104316 0.920806 0.547276 0.254302 -0.797383 
-0.44787 0.266606 -0.242965 -0.744561 -0.667425 0.0131357 
0.40023 -0.23769 0.146335 -0.912296 0.40952 -0.00312318 
0.30443 0.168006 0.935686 -0.492978 0.653697 -0.574154 
0.344575 -0.0494669 -0.754085 -0.715963 0.0306302 0.697466 
0.322395 -0.174286 0.315358 0.648899 -0.760875 4.36611e-05 
0.343187 -0.152195 -0.342107 0.777286 -0.629136 -0.00361317 
0.0197864 -0.22238 0.578558 0.015342 -0.984381 0.17538 
-0.0671439 0.110046 0.987542 0.0770937 0.456672 -0.886289 
-0.458115 0.0644878 0.253432 0.953809 0.29796 -0.0383163 
0.468506 0.279647 -0.00273852 0.348151 -0.937078 0.0259958 
0.456811 0.203198 -0.691652 -0.788786 0.35688 0.500453 
0.423801 0.28094 0.81793 0.335943 -0.936943 0.0963347 
-0.0314647 0.1734 -0.82699 -0.00109828 -0.0671809 -0.99774 
-0.387842 -0.056732 -0.21334 -0.966462 -0.255372 -0.0271426 
0.402067 0.00928689 -0.179658 0.980259 -0.196093 0.0252908 
0.391629 -0.0425251 0.221601 0.969415 -0.245201 -0.0105187 
0.206807 -0.222702 -0.162927 0.200126 -0.979714 -0.0104529 
0.252065 0.28107 -0.82402 -0.00137933 -0.986057 -0.1664 
0.096186 0.186373 0.970128 0.206135 -0.39306 0.896109 
-0.506509 0.199052 -0.32187 0.916859 0.385154 0.105009 
0.391682 -0.255627 -0.330079 -0.882999 0.469319 -0.00727772 
0.324849 -0.171866 -0.0122752 0.670965 -0.741317 0.0159491 
0.355485 0.131177 -0.694884 0.758094 -0.172798 -0.628836 
0.151456 -0.230132 -0.229444 0.103508 -0.994591 -0.00861144 
0.421071 -0.119573 -0.580335 -0.969825 0.17216 0.172627 
0.184738 -0.191169 0.660138 0.178512 -0.915084 0.361601 
-0.361714 -0.120197 -0.493481 -0.886343 -0.461371 -0.0391457 
-0.337304 -0.126917 0.610707 -0.805888 -0.54095 0.240661 
-0.238569 -0.00161179 0.82983 -0.407532 -0.454488 0.79206 
0.0650032 -0.18783 0.855434 -0.0734582 0.484242 -0.871845 
-0.379019 -0.0851843 0.348818 -0.935555 -0.353056 0.00944623 
0.25824 -0.151335 -0.719782 0.548978 -0.592013 -0.590037 
-0.485763 0.228009 0.739691 0.852951 0.476943 -0.212133 
0.423368 0.198534 -0.543589 0.994484 0.0471343 -0.0937002 
0.425505 0.00192685 -0.627012 -0.954352 -1.16874e-16 0.298686 
0.351124 0.222679 0.977858 -0.458107 0.621633 -0.635383 
-0.422703 0.201408 0.614225 -0.974735 -0.179318 0.133183 
0.257025 0.191473 -0.830477 -0.214251 0.403411 0.889582 
-0.0698184 -0.233929 0.0184852 -0.0281202 -0.999603 -0.00153071 
0.282132 -0.199711 -0.290541 0.445856 -0.894901 0.0191048 
-0.429735 0.188434 -0.299126 -0.996238 -0.0811069 0.0305073 
-0.006839 0.0673701 0.916733 0.0208312 -0.437457 0.898998 
0.411906 -0.206148 0.331946 -0.952466 0.304578 0.00641999 
-0.369562 -0.290506 -0.31905 0.845187 0.534437 -0.00610465 
-0.441287 -0.0704276 0.153926 0.984652 0.173661 0.0173776 
0.315363 -0.155648 0.778984 -0.624739 0.380212 -0.682012 
0.340193 0.0924129 0.870479 -0.61465 0.18872 -0.765892 
0.438726 -0.0881518 0.190735 -0.988323 0.151692 0.0143939 
-0.175194 0.198559 1.05888 0.133962 0.832803 -0.537115 
0.49931 0.239657 -0.57378 -0.967712 0.159293 0.195345 
-0.0328121 -0.115463 0.894311 0.0369357 0.393723 -0.918487 
0.328729 -0.115487 0.654234 0.761962 -0.548485 0.344352 
0.230345 0.267098 1.0409 -0.370152 -0.556524 -0.74382 
0.428119 -0.146804 -0.151858 -0.974575 0.224034 0.00356154 
0.18018 0.00422155 0.921574 -0.268477 0.384341 -0.883291 
0.452118 0.195048 -0.614977 -0.661928 0.749119 0.0259127 
-0.504666 0.268201 0.0134539 0.79859 -0.599635 -0.0518834 
-0.23956 -0.214712 -0.484412 -0.276589 -0.960929 -0.0106629 
-0.512515 0.215074 -0.0360874 0.943489 0.322111 -0.0779282 
-0.28947 -0.292176 0.687094 0.563112 0.632532 -0.531797 
0.368933 -0.0788527 0.579556 0.922283 -0.343217 0.177752 
-0.0627826 -0.284648 0.780658 0.0557699 0.642719 -0.764069 
0.447582 -0.014071 0.453564 -0.98681 0.147267 -0.0672207 
-0.0918471 0.0786903 0.916682 -0.198136 -0.416281 0.887385 
0.397885 0.231608 -0.646859 0.883012 -0.192095 -0.428241 
0.206775 -0.0812858 -0.844243 -0.445883 0.0422047 0.894096 
0.167525 0.267868 1.00277 0.19531 -0.803785 0.561947 
0.458029 0.0792901 0.500777 -0.931743 0.226845 -0.283541 
-0.0385112 -0.227736 0.538848 -0.0262394 -0.993268 0.11283 
-0.14167 0.114168 0.978404 0.334019 0.381409 -0.861951 
-0.383664 -0.0570272 -0.518802 -0.959766 -0.267394 -0.0857366 
-0.430484 -0.122604 0.479804 0.986289 0.152047 -0.0641579 
0.312839 -0.181766 0.0730949 0.609438 -0.792829 -0.00264954 
-0.444163 -0.0494011 0.0510446 0.98903 0.147711 -0.000859326 
0.356791 -0.13228 -0.39135 0.835616 -0.549179 -0.0122121 
-0.433213 0.213244 0.421669 -0.976791 -0.214125 0.00537276 
-0.373284 -0.223079 0.640523 0.841338 0.441729 -0.311491 
-0.168782 -0.205167 -0.695605 -0.205657 -0.928674 -0.308659 
-0.253123 -0.0673258 0.779314 -0.429014 -0.538063 0.725559 
-0.0108896 -0.0851957 0.823431 -0.0138178 -0.628184 0.777942 
0.395234 -0.0265576 -0.00745588 0.971903 -0.230814 -0.0461468 
0.31602 0.25751 0.915138 0.469415 -0.701102 0.536755 
-0.152423 -0.227085 -0.578404 -0.125044 -0.987369 -0.0972952 
-0.371374 -0.104318 0.166168 -0.919329 -0.393485 0.00184719 
0.389055 -0.0518855 0.408141 0.971765 -0.235854 0.00671516 
-0.473589 0.280581 -0.428963 -0.44534 -0.895356 0.00312527 
-0.320537 -0.175711 0.186955 -0.649135 -0.760484 0.0169746 
-0.110468 0.0046368 0.937324 0.121359 0.389983 -0.91279 
0.389989 -0.0367182 0.506346 0.971293 -0.225627 0.0753774 
-0.122106 -0.232161 -0.120957 -0.0707464 -0.997378 -0.015259 
0.457578 0.0594554 0.03137 -0.979427 0.197609 0.0408976 
-0.428541 -0.087197 -0.567102 0.97149 0.128128 0.199474 
-0.186694 0.168086 0.991513 0.151209 0.844987 -0.512965 
0.102663 -0.29128 -0.824119 -0.205265 0.466305 0.86048 
-0.475732 0.281052 0.540267 -0.280007 -0.959984 0.00521946 
0.358922 -0.129004 -0.0665826 0.876645 -0.480901 0.0151148 
0.175981 0.183434 -0.861531 -0.41824 0.328424 0.846884 
0.119464 -0.125997 -0.869687 -0.214914 -2.63194e-17 0.976633 
-0.227504 0.218153 0.949315 -0.350292 -0.511007 0.784964 
0.486537 0.279921 -0.256334 -0.0935015 -0.995397 -0.0210255 
0.403571 0.01822 -0.316193 0.985309 -0.167188 -0.0348622 
-0.401462 0.00583916 0.0368758 -0.982821 -0.183363 -0.0210214 
0.439086 -0.0861856 -0.00330548 -0.999692 -1.22427e-16 -0.0248376 
-0.256856 -0.112229 0.841187 0.426523 0.366757 -0.826781 
0.322587 -0.174128 0.227717 0.650634 -0.759392 -0.000408657 
0.186117 -0.293463 -0.794548 -0.365543 0.490788 0.790889 
0.421783 0.26993 0.742149 0.636772 -0.748615 0.184654 
-0.218027 0.280103 -0.847553 -0.230594 -0.928297 -0.291704 
0.341246 0.00701653 0.831085 -0.657825 0.352783 -0.665441 
-0.151147 -0.230153 0.0198299 -0.101325 -0.994853 -0.00089492 
-0.204853 0.213793 -0.80544 -0.29566 -3.62079e-17 -0.955293 
0.227835 -0.190197 0.815246 -0.352875 0.475127 -0.806061 
-0.394887 -0.0270755 0.414761 -0.977541 -0.208862 0.0281161 
0.399985 -0.238393 -0.016608 -0.9093 0.416091 -0.00641848 
-0.358244 -0.130221 0.259095 -0.841753 -0.539677 -0.0141448 
-0.294275 0.025704 -0.801552 -1.22193e-16 8.14813e-18 -1 
0.352447 -0.0417574 -0.658092 0.865365 -0.1258 -0.485095 
0.330333 -0.165391 0.459308 0.697543 -0.715512 0.0384334 
0.424619 0.236549 0.647498 0.892364 -0.415076 0.177196 
-0.409839 0.220709 0.712845 -0.940227 -0.206678 0.27066 
-0.162386 -0.229056 -0.0589356 -0.114477 -0.993405 0.00650222 
0.342876 0.211595 -0.81404 -0.569502 -6.97439e-17 0.82199 
0.146561 -0.227833 0.488 0.101593 -0.993238 0.0561865 
-0.414043 0.120271 0.567202 -0.979135 -0.178533 0.0970567 
-0.483772 0.280305 0.221191 0.0091051 -0.999839 -0.0154606 
0.395564 0.0504958 -0.577373 0.97154 -0.137923 -0.192579 
-0.421308 0.130807 -0.0727019 -0.982669 -0.18493 -0.0127701 
0.33975 -0.254293 0.671919 -0.72294 0.523144 -0.451308 
0.266186 -0.232501 0.766446 -0.437129 0.560138 -0.703679 
-0.391401 -0.04324 0.272247 -0.975019 -0.221905 -0.00984203 
0.398989 0.00320843 -0.487586 0.982082 -0.17843 -0.0606391 
-0.358377 -0.129771 -0.139525 -0.844683 -0.53522 0.0070926 
-0.343598 -0.151575 -0.335238 -0.780535 -0.625086 0.00572493 
0.284069 -0.190104 0.544406 0.468845 -0.873103 0.133697 
-0.436636 0.236108 0.189504 -0.939316 -0.335407 -0.072025 
-0.429148 -0.141689 -0.172912 0.977425 0.211163 0.00707212 
0.0685936 -0.0357019 0.855299 0.0770539 -0.531372 0.843627 
-0.0323291 0.278496 1.06736 -0.0599361 -0.998143 -0.0108559 
0.170396 -0.228195 -0.348447 0.119331 -0.992847 -0.00378953 
0.463188 0.103906 0.0970852 -0.994885 -1.21838e-16 -0.101015 
-0.36623 -0.292038 0.455951 0.826433 0.560767 -0.0504802 
0.122187 0.0340448 0.888294 0.173177 -0.466409 0.867451 
-0.247104 -0.188185 0.807252 0.394188 0.461333 -0.794851 
0.408069 -0.213613 0.444729 -0.93641 0.350337 -0.0199836 
0.246703 -0.212982 0.157804 0.287726 -0.957692 -0.00625064 
-0.453118 0.14961 -0.591248 0.874169 0.424975 0.235001 
0.434303 0.229158 -0.470456 0.966134 -0.243418 -0.0856361 
-0.0408938 -0.0644304 -0.836886 -0.03177 -0.136402 -0.990144 
-0.307264 -0.0178389 0.770202 -0.693572 -0.396927 0.601172 
-0.0861717 0.0585152 -0.880993 0.167294 0.0327713 0.985362 
-0.424834 -0.159076 0.39406 0.970194 0.242325 -0.00132434 
-0.230154 -0.212783 0.512039 -0.251035 -0.963529 0.0926978 
-0.304135 -0.187086 -0.468754 -0.554741 -0.831943 -0.011583 
-0.365875 -0.295238 -0.413684 0.838668 0.544638 -0.00248725 
0.0307578 0.236699 1.00128 0.0757379 -0.539285 0.83871 
-0.0985615 -0.233195 -0.261035 -0.0402408 -0.999189 0.00110072 
-0.241951 -0.209588 -0.577747 -0.304754 -0.947436 -0.0974215 
-0.0854662 -0.132482 0.77557 -0.0715569 -0.723333 0.686781 
-0.512382 0.211407 0.423184 0.942196 0.331666 -0.0475977 
-0.337529 0.270812 -0.743288 -0.621433 -0.634611 -0.459445 
0.153166 0.245067 -0.823653 0.313749 -0.293927 -0.902867 
0.0643916 0.129102 -0.884008 -0.0969826 0.173966 0.979964 
0.364875 -0.296412 0.0374495 -0.820903 0.570928 0.0126359 
-0.432506 0.207765 -0.0603955 -0.993553 -0.0957869 0.0606348 
0.278204 -0.226935 -0.776531 -0.566644 0.355458 0.743347 
-0.456971 0.274972 -0.0382662 -0.613306 -0.789747 0.0124723 
-0.430958 0.196967 -0.223818 -0.998222 -0.0473194 -0.0362434 
-0.132635 -0.23158 0.199234 -0.0732727 -0.997305 0.0037118 
-0.34182 -0.214157 0.710313 0.710475 0.471909 -0.522041 
0.11247 -0.18903 -0.755699 0.169645 -0.803831 -0.570155 
-0.24456 -0.213589 0.110152 -0.2981 -0.954513 -0.00636799 
0.512462 0.23553 -0.194652 -0.999277 -1.22376e-16 0.0380289 
