ply
format ascii 1.0
element vertex 800
property float x
property float y
property float z
property float nx
property float ny
property float nz
end_header
0.403648 -0.22932 -0.405098 -0.924325 0.381332 0.0144535 
0.0892313 -0.247988 0.812297 -0.109114 0.643538 -0.757596 
0.392518 0.150135 -0.634628 0.912816 0.018601 -0.407947 
0.438341 0.272 -0.7042 -0.599801 -0.657806 0.455555 
0.419291 0.117091 0.172153 0.970978 -0.239081 0.0064918 
0.425155 -0.159833 -0.407467 -0.977004 0.212036 0.0224663 
-0.241083 0.0724834 0.869093 -0.447815 -0.407008 0.79612 
0.368054 -0.292641 -0.392575 -0.843587 0.536935 0.00780937 
0.509256 0.229082 -0.501489 0.301607 0.790877 0.532491 
-0.430292 0.18644 0.774633 0.519072 0.832562 -0.193402 
-0.115882 0.280715 -0.864469 -0.0650942 -0.97239 -0.224099 
0.353498 -0.128719 0.52262 0.831163 -0.544236 0.113906 
0.140674 0.101772 0.919691 0.170364 -0.411441 0.895373 
-0.419354 -0.179242 -0.466817 0.96094 0.274902 0.0319931 
-0.157011 -0.287971 -0.810678 0.288369 0.495255 0.819491 
-0.114662 0.202856 -0.902716 0.190272 0.181812 0.964749 
-0.464248 0.113152 -0.420119 0.996711 0.00547592 0.0808526 
0.0424475 0.131717 0.94815 0.132432 -0.496878 0.857656 
0.431821 -0.128801 -0.29696 -0.98054 0.196092 -0.00949891 
-0.4062 0.0344098 -0.274451 -0.969328 -0.232488 0.0796969 
-0.394709 0.140231 0.705829 -0.962536 -0.239352 0.127415 
-0.302578 -0.185452 -0.539005 -0.571807 -0.817499 -0.0687925 
-0.452486 0.0183452 0.112869 0.968249 0.240904 0.0667795 
0.175956 -0.227589 0.140672 0.148954 -0.988844 -0.000588566 
0.241131 -0.214592 0.238152 0.291198 -0.956639 0.00670481 
-0.413422 0.0795875 -0.343644 -0.9903 -0.0995609 -0.09692 
-0.0177272 -0.213796 -0.710749 0.00590685 -0.956198 -0.292663 
0.0690964 0.278738 -0.860903 0.0464123 -0.88928 -0.455002 
-0.214781 -0.00391205 0.906534 0.299742 0.367033 -0.880592 
-0.00364498 -0.234283 -0.343732 0.00201012 -0.999997 -0.00153954 
-0.447632 -0.0219572 -0.22831 0.991911 0.12621 0.0135567 
-0.393475 -0.251764 0.16434 0.894051 0.447865 -0.00948852 
0.45245 0.0175986 -0.392076 -0.981846 0.189252 -0.0127615 
-0.496047 0.19906 0.580754 0.957484 0.171964 -0.231629 
-0.355083 -0.12126 0.543063 -0.830777 -0.543511 0.120025 
-0.0776714 -0.233761 -0.180487 -0.0329141 -0.999457 0.00139689 
-0.302386 0.127039 0.855882 -0.578179 -0.344224 0.739742 
0.036946 -0.195838 0.678061 0.0056334 -0.927468 0.37386 
0.381112 -0.273783 0.305755 -0.869002 0.494778 0.00552892 
0.141486 -0.230919 0.35311 0.0825421 -0.996576 -0.00488958 
0.44324 -0.0516117 -0.45457 -0.988092 0.152937 -0.0168699 
0.270796 -0.0312719 -0.81376 -0.524416 0.0973701 0.845876 
-0.0988375 -0.233185 -0.422038 -0.038348 -0.999254 0.0044709 
0.064246 -0.234007 0.0728179 0.0250196 -0.999674 -0.00516537 
0.357584 0.16234 0.809961 0.84771 -0.07474 0.525169 
-0.347847 -0.145885 -0.0294974 -0.813128 -0.581953 0.0123635 
0.419549 -0.176219 -0.483983 -0.965747 0.25455 0.0503602 
-0.383821 -0.0696633 -0.432699 -0.965927 -0.253443 -0.0524547 
-0.354049 -0.136721 -0.263946 -0.846841 -0.531828 0.00442311 
-0.00731095 -0.234248 0.383498 -0.00435693 -0.999951 0.00892246 
0.0445416 -0.0134788 -0.885685 -0.0991772 0.0169171 0.994926 
0.412722 0.0746695 0.326679 0.973812 -0.227099 0.0108115 
-0.423025 0.142262 0.182972 -0.990634 -0.132673 -0.0322899 
-0.400602 -0.234911 0.405724 0.926685 0.375365 -0.0188783 
-0.243229 -0.21354 0.424157 -0.280596 -0.959585 0.0215143 
0.1788 -0.131711 0.757589 0.212155 -0.727238 0.652775 
0.386139 -0.0627903 -0.141555 0.960733 -0.277449 -0.00379987 
-0.309375 -0.0778535 0.724706 -0.731685 -0.437175 0.522986 
-0.0838006 -0.29544 -0.82442 0.156658 0.476914 0.864877 
0.306766 -0.185878 -0.385847 0.551433 -0.834151 -0.0106623 
0.375872 0.0680797 0.711549 0.915584 -0.211618 0.34194 
0.239182 0.153493 0.911077 0.556466 -0.236394 0.796532 
0.061963 -0.234031 -0.241019 0.0179492 -0.999838 -0.00115627 
0.00654496 -0.233273 0.452767 0.0030224 -0.99962 0.0273845 
0.427144 0.0307139 0.681642 -0.951858 0.180326 -0.247888 
0.449241 -0.00877315 0.173344 -0.985166 0.167352 -0.0379582 
0.331535 -0.0666547 0.807999 -0.644744 0.311051 -0.698249 
-0.188935 0.118333 -0.856248 -0.393597 -0.437906 -0.808282 
-0.207118 -0.198326 0.625913 -0.229747 -0.932844 0.277522 
-0.0645532 -0.0467314 0.921764 0.112991 0.387199 -0.915046 
0.429283 0.184984 0.0592323 0.997559 0.051559 -0.0470907 
-0.412737 -0.0752412 0.661178 0.912843 0.247875 -0.324461 
0.469814 0.279904 0.688971 -0.189149 -0.981268 -0.0365472 
-0.101248 -0.221452 -0.663027 -0.071476 -0.979599 -0.18782 
0.251635 -0.0337017 0.878052 -0.362079 0.400014 -0.841955 
-0.185033 -0.226283 -0.229259 -0.152112 -0.988349 0.00531637 
0.423505 -0.166504 0.178927 -0.973207 0.229006 -0.0206231 
-0.0182282 -0.227273 -0.64115 -0.0117515 -0.99096 -0.13364 
0.512527 0.201752 -0.374152 -0.901299 0.42794 -0.0672921 
-0.340894 -0.0167908 -0.686699 -0.836585 -0.435325 -0.332592 
0.150105 -0.230239 0.25481 0.0984671 -0.995133 -0.00369324 
-0.335671 -0.28807 0.624365 0.70611 0.629095 -0.325036 
0.421748 0.133487 -0.120861 0.985579 -0.122513 -0.116722 
-0.344803 -0.15011 0.0445843 -0.780796 -0.624759 -0.00579433 
-0.33476 0.227436 0.876786 -0.594067 -0.401503 0.697051 
-0.110719 -0.120615 0.884212 0.133499 0.410988 -0.901813 
-0.276972 -0.190686 0.563622 -0.449045 -0.878413 0.163552 
-0.246177 -0.213123 -0.0892555 -0.30439 -0.952541 -0.00358272 
0.446774 0.265139 0.137745 0.742674 -0.664867 -0.0799144 
-0.472843 0.280404 0.315118 -0.18059 -0.981044 0.0702903 
0.391708 -0.0421525 0.330625 0.984182 -0.17328 -0.0368729 
-0.431322 -0.131317 -0.111338 0.979824 0.198541 -0.0229349 
0.0548727 -0.233231 -0.546695 0.0118223 -0.999021 -0.0426218 
0.193926 0.251246 -0.8826 -0.354828 0.000935245 0.934931 
-0.389604 -0.0499244 -0.284954 -0.968821 -0.245599 -0.0326769 
-0.00372286 -0.151578 -0.881224 0.0100185 0.0738631 0.997218 
-0.447135 -0.0259724 -0.0161461 0.989283 0.145443 0.0128814 
-0.269393 -0.0344061 -0.757216 -0.672813 -0.58622 -0.451297 
-0.251978 -0.211371 0.191265 -0.313443 -0.949475 0.0158045 
0.241419 -0.100061 0.854582 -0.388828 0.368076 -0.84459 
0.0381448 -0.16274 -0.798928 0.0665002 -0.629539 -0.774118 
-0.512515 0.201431 -0.226913 0.962732 0.268984 -0.0281913 
0.435616 -0.10778 0.0937711 -0.984627 0.171814 0.0314658 
0.420183 0.123143 -0.319955 0.981609 -0.1842 -0.0501455 
-0.361122 -0.29643 -0.521059 0.823407 0.562414 0.0754433 
-0.409778 0.0574691 0.421233 -0.985305 -0.13898 0.0992862 
-0.10211 0.280781 1.04984 -0.147418 -0.973051 0.177312 
-0.413606 -0.173171 0.546199 0.95398 0.282281 -0.101192 
0.217225 -0.205756 -0.651538 0.294756 -0.924806 -0.240527 
-0.467192 0.134868 -0.125909 0.917705 0.380705 -0.113497 
0.428057 0.186058 0.780397 -0.681408 0.730781 -0.0405309 
-0.188996 -0.0893404 -0.794016 -0.422306 -0.750811 -0.507879 
0.429852 0.189075 -0.403411 0.997312 -0.0475675 0.0557389 
-0.348063 -0.145712 0.331054 -0.806611 -0.591066 0.00436351 
-0.424991 -0.160299 0.149061 0.97483 0.222691 0.0107321 
0.297684 -0.159205 -0.780715 -0.591043 0.0815122 0.802511 
0.421862 0.145556 -0.47895 0.952574 -0.303951 0.014738 
0.148225 -0.207203 0.831033 -0.193204 0.518398 -0.833028 
-0.24998 -0.212023 0.326958 -0.301272 -0.953473 0.0111237 
-0.0181877 0.162875 0.964718 -0.0891817 -0.43199 0.897458 
-0.320376 -0.175701 -0.196841 -0.667551 -0.744514 -0.00864229 
-0.450194 0.132414 0.657972 0.946506 0.279665 -0.160979 
0.33155 -0.0106619 0.746072 0.761166 -0.338385 0.553282 
-0.307024 0.0452003 0.877516 0.543307 0.349622 -0.763271 
-0.386249 -0.00245887 0.766793 0.864719 0.24507 -0.438408 
0.405894 -0.100119 -0.646531 -0.926418 0.171298 0.335271 
0.297029 0.254741 1.01345 -0.381384 -0.805595 -0.45339 
-0.433026 0.211399 0.323863 -0.989652 -0.139939 0.0317265 
0.103473 0.191127 -0.83379 0.114962 0.0507875 -0.992071 
0.0595429 0.0497128 -0.839754 0.00901081 0.0842342 -0.996405 
0.180451 0.120412 -0.812269 0.344639 -0.0694885 -0.93616 
0.486268 0.226955 0.737455 -0.861913 0.466492 -0.198726 
-0.47355 0.183643 -0.433054 0.757228 0.652367 0.0319963 
-0.0168771 -0.150077 0.759298 -0.00292483 -0.784416 0.620229 
-0.370038 -0.0289282 -0.621619 -0.922125 -0.137033 -0.361812 
-0.433805 0.200412 0.875277 0.771555 0.495208 -0.399339 
0.284661 -0.176187 -0.647428 0.55829 -0.753561 -0.347071 
-0.327701 -0.169144 0.113786 -0.69294 -0.720995 0.0003675 
0.0389985 0.265686 1.08 -0.0919367 -0.56021 -0.823233 
-0.409151 0.0525165 -0.0451199 -0.988116 -0.141756 -0.0594381 
0.477222 0.281153 0.283754 0.0915294 -0.994592 0.0490898 
-0.104591 -0.108443 -0.816902 -0.139068 -0.550729 -0.823017 
0.392583 -0.241769 0.511696 -0.884488 0.458264 -0.0876101 
-0.0222856 -0.234283 -0.114309 -0.00588287 -0.999982 -0.0013474 
-0.0445646 -0.148333 -0.808767 -0.11622 -0.547683 -0.828575 
0.450157 0.207833 0.844615 -0.703368 0.647981 -0.292223 
0.374978 -0.0627554 -0.57259 0.956126 -0.233953 -0.176322 
0.163325 -0.204545 -0.700803 0.204476 -0.917599 -0.340885 
-0.485882 0.20274 -0.624625 0.779829 0.523624 0.343052 
-0.282097 0.28064 -0.814608 -0.221991 -0.895345 -0.386105 
-0.0682184 0.196999 1.05301 0.111429 0.663849 -0.739519 
0.166378 -0.22863 0.0664888 0.122614 -0.992397 -0.0107152 
0.394116 0.200042 -0.731431 -0.57792 0.439864 0.687407 
0.457131 0.0560592 0.202942 -0.993472 0.110051 0.0300496 
-0.407441 0.0417756 0.167948 -0.990344 -0.138137 -0.0117346 
0.413028 0.0766903 -0.0775024 0.968809 -0.226298 0.100982 
0.285901 -0.197851 0.371895 0.470275 -0.882505 -0.00512055 
0.434625 0.222272 -0.139157 0.982623 -0.185586 0.0030717 
0.312934 -0.179998 -0.504973 0.622595 -0.782536 0.00345107 
-0.457176 0.0565182 -0.210783 0.976301 0.213676 0.034332 
0.43293 -0.0822049 0.546107 -0.977228 0.17215 -0.124054 
0.203871 -0.223137 0.394449 0.179919 -0.983555 0.0157935 
-0.421141 0.129732 -0.248838 -0.984082 -0.177688 0.00320884 
-0.235465 -0.0494935 -0.832506 -0.356462 0.348292 -0.866964 
-0.51108 0.223732 0.508768 0.986334 -0.159426 -0.0415829 
0.0849471 -0.233607 0.00118961 0.0353673 -0.999373 -0.00163201 
-0.348928 -0.144166 -0.415879 -0.814447 -0.579834 0.021638 
0.450508 0.00264534 0.341284 -0.977467 0.207743 0.0374221 
-0.471862 0.169384 0.00864128 0.783272 0.542239 -0.304076 
-0.255104 -0.210276 -0.163346 -0.335123 -0.942171 -0.00235538 
0.0148031 -0.0459511 0.924718 -0.0390738 0.366472 -0.929608 
0.0214887 -0.234284 0.185909 0.00547736 -0.999979 -0.00346952 
0.446617 -0.0299011 0.264331 -0.990561 0.136827 -0.00821319 
-0.479702 0.28088 -0.108136 0.0567423 -0.997673 0.0378092 
0.379613 -0.0831919 -0.308868 0.951484 -0.307695 -0.00147766 
-0.0434066 0.236937 1.00071 -0.0277687 -0.477926 0.877961 
0.282921 0.127405 -0.813879 -0.376634 0.0626998 0.924238 
-0.411945 -0.206353 0.249376 0.949818 0.31279 -0.00300117 
0.367367 -0.293593 -0.188443 -0.832027 0.554405 0.0191385 
0.373435 -0.130055 -0.702804 -0.845594 0.139167 0.515368 
-0.42454 -0.162309 -0.379017 0.980433 0.196785 -0.00524036 
-0.347266 -0.0498911 -0.751216 0.768255 -0.100947 0.632135 
0.378227 -0.0874532 0.276963 0.940368 -0.340158 -0.000101629 
-0.0130497 -0.234284 0.10694 -0.0108045 -0.999933 0.00423226 
-0.438215 0.243471 0.0905772 -0.904161 -0.413878 0.105816 
-0.405848 0.032018 0.349734 -0.956093 -0.287165 -0.0585062 
-0.261573 0.090519 -0.7728 -0.4069 -0.143145 -0.902187 
-0.398455 -0.234898 -0.509256 0.928555 0.36455 0.0699174 
0.244855 0.0432183 0.851374 0.377071 -0.392686 0.838818 
-0.0260289 -0.0234476 0.865786 -0.0603684 -0.512249 0.856713 
0.376609 -0.280847 -0.11371 -0.84356 0.537014 -0.00467199 
0.373117 -0.097549 0.45946 0.919263 -0.393644 -0.000807245 
0.512558 0.230397 0.133465 -0.995744 0.0845083 -0.0367728 
0.055092 -0.215866 -0.699791 0.00992651 -0.966199 -0.257604 
-0.472433 0.280333 -0.331834 -0.151967 -0.987414 0.0438214 
0.366815 0.254851 0.852538 0.565504 -0.772921 0.287747 
0.385013 -0.0663479 -0.409897 0.961264 -0.275335 -0.0127292 
-0.191723 -0.153702 0.848872 0.285915 0.42895 -0.856887 
0.25321 -0.210954 -0.0906433 0.320242 -0.947135 0.0195059 
0.263648 -0.287677 0.714922 -0.439717 0.656625 -0.612774 
0.0514515 -0.249907 -0.854932 -0.0977104 0.409107 0.90724 
-0.10126 -0.233098 0.265372 -0.047032 -0.998848 -0.00947265 
0.0770351 0.0486635 0.960042 -0.0964789 0.421377 -0.901739 
0.066894 -0.174021 -0.873455 -0.160154 0.130804 0.978387 
-0.332477 0.280765 0.947004 -0.017519 -0.998031 0.0602188 
0.176426 -0.227522 -0.00301392 0.135239 -0.990813 -0.000119094 
-0.00615696 -0.234283 -0.416109 -0.00426259 -0.999986 -0.00311114 
0.202929 -0.27418 0.761946 -0.264533 0.65885 -0.70423 
0.00503456 -0.271022 0.797221 0.00141478 0.683629 -0.729828 
0.242558 -0.160587 0.689953 0.344997 -0.814706 0.466081 
0.326152 0.0695023 0.800988 0.699941 -0.36881 0.611606 
-0.341894 -0.148822 0.755782 0.731423 0.337665 -0.592455 
0.283228 0.202699 -0.765872 0.503893 -0.0440793 -0.862641 
0.369978 -0.103319 -0.488194 0.930531 -0.365305 -0.0257667 
0.42003 0.122019 0.02972 0.961621 -0.27177 0.0377564 
0.247768 -0.212674 0.312892 0.308634 -0.950876 -0.0240823 
-0.389674 -0.0498328 -0.0595356 -0.971963 -0.233965 0.0233993 
0.416563 -0.192363 -0.212856 -0.963765 0.266625 0.00818724 
-0.365315 -0.295803 0.246507 0.848961 0.528273 -0.0138885 
-0.38986 -0.259181 0.0832972 0.887136 0.461338 0.0125188 
0.42461 -0.057933 0.627161 -0.96168 0.192753 -0.194982 
-0.230024 -0.190691 -0.818838 0.496512 0.155027 0.854074 
0.50092 0.273468 0.363914 -0.588927 -0.800254 -0.112952 
-0.0796875 -0.195903 -0.750524 -0.0951665 -0.850112 -0.517931 
0.340632 -0.155165 -0.303979 0.775472 -0.631231 0.0138184 
0.395236 -0.236268 -0.540358 -0.914055 0.390554 0.109417 
0.212632 -0.169569 -0.831868 -0.404805 0.098169 0.909118 
0.510236 0.254503 0.199518 -0.933597 -0.354945 0.049096 
-0.173118 -0.227897 0.327273 -0.134919 -0.990852 0.00289417 
0.318304 0.049279 -0.785702 -0.617083 0.0538541 0.785053 
0.103992 -0.0996892 0.804392 0.0940275 -0.642505 0.760491 
-0.449708 0.277608 0.653934 -0.536053 -0.837005 0.109867 
0.0936626 -0.233374 -0.0717498 0.0399484 -0.999199 0.00219858 
-0.04615 -0.225208 -0.864107 0.102977 0.282307 0.953781 
-0.342205 -0.240909 -0.699319 0.793197 0.365874 0.4868 
-0.345811 -0.293009 -0.618944 0.798149 0.546934 0.252629 
0.51256 0.204164 -0.131531 -0.953587 0.293616 0.0667971 
0.423648 0.146207 0.34089 0.995233 -0.0959282 0.0175929 
0.0992878 0.280091 1.04137 -0.0194084 -0.9838 0.178216 
0.25209 -0.211347 -0.00481551 0.310176 -0.95066 -0.00603254 
-0.385366 -0.266815 -0.145296 0.871843 0.489783 0.0016903 
-0.326208 -0.109009 -0.66787 -0.803977 -0.310592 -0.507103 
-0.409608 -0.21362 -0.190881 0.948643 0.316332 -0.00310514 
0.378543 -0.277512 0.383123 -0.870564 0.491787 -0.0162176 
0.261499 -0.185813 0.615918 0.40835 -0.871739 0.27078 
0.407772 0.0435762 0.146844 0.988592 -0.146741 0.0339457 
-0.42264 0.142253 0.450018 -0.973956 -0.226687 -0.00473161 
0.356722 -0.294347 -0.569772 -0.818729 0.551614 0.159391 
0.482488 0.280421 -0.442902 0.339125 -0.940537 0.0196053 
0.120657 -0.232243 -0.151729 0.0609364 -0.998128 0.00525025 
-0.336283 -0.0848169 0.794767 0.671813 0.31485 -0.670475 
0.451158 0.049594 -0.527158 -0.989269 0.103131 0.103493 
0.455964 0.280951 -0.610864 0.373693 -0.918037 -0.132521 
-0.438802 -0.0845796 0.409416 0.985849 0.160063 -0.0498166 
0.266054 -0.205427 0.458868 0.370484 -0.927921 0.0412766 
-0.365813 -0.295327 -0.211886 0.850823 0.525201 0.0162567 
-0.380823 -0.0482192 0.567102 -0.965854 -0.237622 0.10326 
-0.295082 -0.143642 0.667897 -0.553298 -0.711354 0.433402 
0.355528 -0.205881 -0.700911 -0.831417 0.251633 0.495405 
-0.394072 -0.0312696 -0.359377 -0.983445 -0.181029 0.00797629 
-0.27363 -0.281341 -0.747957 0.573967 0.49002 0.656081 
-0.411294 -0.208655 -0.105745 0.943259 0.332024 0.00473566 
0.0903092 -0.233492 -0.431042 0.0436923 -0.999031 0.00526227 
-0.0865705 -0.0721125 0.828437 -0.0827384 -0.594378 0.799918 
-0.378009 -0.0163609 0.629786 -0.927115 -0.235352 0.291663 
-0.254862 0.207153 1.03661 0.347378 0.788658 -0.507295 
0.416797 -0.191554 -0.0683474 -0.963806 0.266602 0.000693711 
0.463376 0.279901 0.604152 0.379726 -0.92232 0.0716516 
0.41525 -0.134075 0.597788 -0.95577 0.223704 -0.190946 
0.454342 0.0331323 -0.0366344 -0.990482 0.136741 -0.015758 
0.44754 0.170668 0.70714 -0.716692 0.588604 -0.374029 
-0.419172 -0.112995 0.601383 0.960193 0.192794 -0.202137 
-0.457177 0.0565566 0.0312433 0.987488 0.0680376 -0.14226 
-0.438347 0.280125 0.761707 -0.342825 -0.938602 0.0386958 
0.213591 0.0914415 0.947648 -0.32036 0.33744 -0.885158 
0.0901937 0.197532 1.05905 -0.112221 0.713032 -0.692092 
-0.43561 0.229437 0.0172949 -0.950561 -0.300706 -0.0775186 
-0.265097 -0.246803 0.755601 0.438628 0.591809 -0.67629 
-0.307935 0.0460232 0.807121 -0.6096 -0.324522 0.723238 
-0.426444 0.184691 -0.496109 -0.9926 0.0512707 -0.110079 
-0.254216 -0.210588 -0.238273 -0.325097 -0.945668 0.00500489 
0.250936 -0.0272554 0.807704 0.431619 -0.471864 0.768797 
-0.155502 -0.0586764 0.825703 -0.244011 -0.566497 0.787109 
0.4493 -0.00852624 -0.234381 -0.994075 0.10862 -0.00405758 
0.124088 -0.0413316 -0.872736 -0.167629 0.0199395 0.985649 
0.177291 -0.227398 -0.0987408 0.12332 -0.992315 0.0101724 
-0.49224 0.199129 -0.54846 0.907303 0.408773 0.0985128 
-0.400266 0.254345 -0.6527 -0.653326 -0.6116 -0.446217 
-0.512515 0.222148 0.262447 0.998588 0.0427246 0.0315594 
-0.388919 0.251912 0.806315 -0.786262 -0.533263 0.312127 
0.499816 0.219855 0.659924 -0.960609 0.241681 -0.137189 
0.510076 0.205225 0.53374 -0.986777 0.0723954 -0.145018 
0.106407 0.117514 -0.827017 0.0802205 -0.0985745 -0.991891 
-0.0623849 -0.234026 0.201417 -0.0263478 -0.999651 -0.0018323 
-0.450122 0.00566506 0.446468 0.987577 0.148401 -0.0516676 
8.42617e-05 0.264343 -0.907798 0.0585884 -0.663374 0.74599 
-0.47334 0.280582 0.47005 0.515783 -0.853902 0.0694255 
0.261536 -0.208025 -0.434664 0.362242 -0.932084 -0.000887518 
-0.299654 -0.190382 -0.389267 -0.515379 -0.856962 -0.000480391 
0.471909 0.169462 0.193718 -0.807748 0.58343 -0.0845721 
-0.401029 0.0473624 0.570222 -0.968089 -0.202127 0.148151 
-0.0404362 0.201785 -0.91138 0.0923058 0.2416 0.965976 
0.512539 0.19926 0.367708 -0.953887 0.267315 0.136536 
0.466063 0.125963 -0.0663234 -0.897727 0.429504 0.0980433 
0.419117 0.11818 0.443342 0.990829 -0.119522 0.063023 
-0.37606 -0.164456 -0.685833 0.876602 0.22021 0.427874 
-0.418641 0.268628 0.889395 0.60469 -0.697852 -0.383865 
0.364727 -0.29651 0.239081 -0.84046 0.541413 0.0223517 
0.401402 -0.0327243 0.71986 -0.914915 0.179874 -0.361352 
-0.0659451 -0.214911 0.838815 0.0622492 0.558212 -0.82736 
-0.269832 -0.137563 -0.720079 -0.598835 -0.414072 -0.685523 
-0.457715 0.0709102 0.476064 0.967031 0.254586 -0.00610635 
-0.17603 -0.150445 -0.850061 0.309977 0.165842 0.936168 
-0.37806 -0.278787 -0.0755641 0.859811 0.510611 -0.00105926 
0.00240803 -0.234284 0.269351 0.0043739 -0.99999 0.000399917 
0.299207 -0.0931506 -0.715286 0.710128 -0.232828 -0.664462 
-0.330306 0.219341 0.994092 0.5501 0.515665 -0.656871 
-0.189402 0.00444026 -0.805458 -0.269684 0.245217 -0.931203 
-0.416614 0.0999987 -0.172759 -0.988547 -0.149358 -0.0216024 
-0.166477 -0.220588 -0.838839 0.311931 0.264396 0.912575 
0.364547 0.163807 0.879843 -0.489443 0.650367 -0.58092 
-0.368949 -0.108356 0.433528 -0.890748 -0.453723 0.0265236 
-0.0934019 -0.0167435 -0.879359 0.111133 0.152898 0.981973 
-0.42925 0.185048 0.242787 -0.992471 -0.120197 0.0235538 
-0.271696 0.222756 -0.773974 -0.356039 0.36777 -0.859058 
0.343916 -0.282069 -0.648504 -0.787009 0.528725 0.317909 
-0.138401 0.0637281 -0.824361 -0.102359 -0.246943 -0.963609 
0.322998 0.280725 -0.789606 0.0468837 -0.99784 -0.0460164 
0.501031 0.273404 -0.374487 -0.439577 -0.891866 -0.106524 
-0.391623 -0.0423761 0.197323 -0.967548 -0.252591 0.00700113 
-0.00332843 0.209628 1.08626 0.0515299 0.590305 -0.805534 
-0.509539 0.25725 -0.27601 0.8915 -0.452995 -0.00473834 
0.0782201 -0.23348 0.415707 0.0338561 -0.999364 0.0112104 
-0.429925 -0.137932 0.0536425 0.98168 0.188992 -0.0242078 
0.445004 -0.0433697 -0.0643759 -0.98631 0.161399 -0.0338117 
0.445158 -0.0422012 -0.315053 -0.984123 0.164205 0.0673723 
0.0112196 -0.234283 -0.0524146 0.00522753 -0.999986 0.00107494 
-0.233974 -0.216647 -0.394312 -0.263194 -0.964741 -0.00205335 
0.402883 -0.231201 0.0699195 -0.930586 0.366073 -0.000168224 
-0.437431 -0.0962701 -0.0259769 0.987198 0.159246 0.00897302 
-0.0178356 -0.234283 -0.270874 -0.0087594 -0.999952 0.00444912 
0.0900717 -0.213148 0.618397 0.0458994 -0.972832 0.226916 
0.342869 0.113354 -0.770501 -0.666512 0.105305 0.738019 
0.36032 -0.126558 -0.173748 0.863451 -0.503286 -0.0339773 
0.479263 0.280948 -0.147155 0.0163536 -0.997559 0.0678801 
-0.178135 0.0556522 0.943679 0.262475 0.33357 -0.905449 
-0.0935442 -0.164844 -0.870585 0.171789 0.180517 0.968453 
-0.383708 0.225721 0.946984 0.642287 0.329464 -0.692041 
0.399629 -0.00431335 -0.105172 0.988516 -0.151118 0.000335304 
0.437126 0.238198 0.327143 0.950923 -0.302105 -0.0669121 
-0.315672 -0.179448 -0.0825853 -0.607519 -0.794135 -0.0164233 
-0.246528 -0.129594 0.728124 -0.419834 -0.679334 0.601868 
-0.388839 -0.0530413 -0.141487 -0.970766 -0.235735 0.0451812 
-0.00599248 -0.177346 0.864167 -0.00553534 0.497652 -0.867359 
-0.354268 -0.294108 0.545487 0.792252 0.590453 -0.153956 
-0.0966536 -0.220393 0.58157 -0.0524056 -0.984288 0.168614 
0.430116 0.190908 0.402583 0.992337 -0.111449 0.0533459 
0.000590101 -0.234283 0.0258483 -0.00255109 -0.999997 -0.000561506 
-0.438515 -0.089499 -0.3211 0.980221 0.196364 0.02465 
-0.198895 -0.0832744 0.879181 0.340239 0.369794 -0.864575 
0.143927 -0.0855711 -0.812435 0.398463 -0.243806 -0.884187 
-0.360362 0.175325 0.812734 -0.805337 -0.208053 0.55511 
0.426197 -0.155184 0.254546 -0.970496 0.240962 0.00868172 
-0.0889124 0.127256 -0.82699 0.157869 -0.00574958 -0.987443 
-0.0703125 -0.233797 -0.498469 -0.022963 -0.999622 -0.0151472 
-0.328897 0.202951 -0.822724 0.0885417 0.21634 -0.972295 
-0.364705 0.0893358 0.752543 -0.867857 -0.369938 0.331618 
0.202734 0.0429872 -0.849623 -0.408807 0.000521242 0.912621 
0.354515 -0.192722 0.709071 -0.768459 0.389872 -0.507415 
-0.455059 0.0645455 -0.503686 0.976797 0.191124 0.0966416 
0.444876 0.0178103 0.570235 -0.958973 0.276844 -0.061056 
0.0242021 -0.234258 -0.479437 -0.00016512 -0.999949 -0.0101072 
0.245739 -0.213265 -0.362294 0.303785 -0.952643 -0.0136754 
-0.404011 -0.2277 0.320489 0.926547 0.376179 0.00087097 
-0.188303 -0.225815 0.246948 -0.157834 -0.987465 -0.000932251 
0.0457 0.163468 1.01354 -0.0797794 0.77227 -0.630266 
-0.407898 -0.208685 0.484643 0.952292 0.300349 -0.0541322 
0.431143 -0.128077 0.426074 -0.978921 0.204237 0.00029038 
0.421596 -0.155528 0.510866 -0.978672 0.194883 -0.0649773 
-0.294896 -0.0393528 0.849953 0.563025 0.319837 -0.762042 
-0.40384 0.101755 -0.69871 0.979641 -0.0316619 0.198244 
-0.386631 -0.132799 0.693379 0.886563 0.244603 -0.392652 
0.149178 -0.00237656 -0.819915 0.301746 0.00233692 -0.953385 
-0.404943 0.0317693 -0.458744 -0.985041 -0.170096 -0.0275932 
-0.166149 -0.22865 0.0966454 -0.1125 -0.993596 -0.0104958 
-0.397643 0.0855769 0.64382 -0.939878 -0.233621 0.249099 
-0.414752 -0.172717 -0.549778 0.954517 0.261888 0.14252 
-0.48079 0.19902 0.661187 0.883807 0.455452 -0.106999 
0.492166 0.278447 0.0849516 -0.533675 -0.844661 0.0416986 
0.42035 0.12422 -0.23361 0.994615 0.0330902 0.0982121 
0.420201 0.123125 0.262178 0.987514 -0.155892 -0.0226655 
-0.337209 0.18662 -0.722576 -0.93402 0.263322 -0.24139 
-0.167481 -0.172578 -0.757798 -0.30998 -0.639475 -0.703551 
-0.486677 0.279896 -0.185702 0.342221 -0.939175 -0.0289091 
-0.300467 -0.189979 0.281807 -0.531784 -0.846562 -0.0231926 
0.421501 -0.174845 0.109206 -0.963345 0.267976 0.0124475 
0.366006 -0.29513 0.167897 -0.824854 0.565019 -0.019209 
0.353969 -0.137026 0.387182 0.831125 -0.55608 0.00260355 
0.32321 -0.173508 0.15512 0.669803 -0.742438 -0.0122635 
-0.0223628 -0.23327 -0.553114 -0.00280414 -0.999324 -0.0366578 
0.406685 -0.221537 0.239473 -0.93958 0.342274 -0.00618597 
-0.40565 -0.127371 -0.634057 0.935021 0.131989 0.329112 
0.437448 -0.0964394 -0.370944 -0.990153 0.135704 -0.03436 
0.132539 -0.230479 -0.542934 0.0793866 -0.995983 -0.0414124 
0.340417 -0.0593378 0.694826 0.820593 -0.376862 0.429654 
-0.512508 0.211002 0.348407 0.99207 0.121311 -0.0328873 
-0.307672 -0.185349 0.377866 -0.581936 -0.812763 0.0276925 
-0.170363 -0.0472928 -0.859392 -0.489079 0.535713 -0.688341 
0.427512 0.17943 0.483546 0.989739 -0.110646 -0.0904161 
0.127505 0.0681384 -0.873031 -0.198856 0.0546177 0.978506 
0.388124 -0.194378 0.634445 -0.89507 0.35397 -0.27121 
-0.141727 0.245923 0.992192 -0.197414 -0.601574 0.774039 
0.40354 0.0177692 0.0475059 0.997351 -0.0708162 0.0166153 
-0.34023 -0.134662 -0.745677 0.739553 0.113082 0.663531 
-0.426137 0.179495 0.522092 -0.998795 -0.0126852 0.04741 
-0.0633078 -0.234016 0.332579 -0.0195824 -0.999806 0.00198912 
0.210864 -0.221949 -0.28826 0.191393 -0.981497 0.00566859 
-0.373032 0.108654 0.841554 0.706304 0.41406 -0.574185 
0.0528706 -0.234127 -0.13037 0.0147912 -0.99989 -0.000942353 
0.383795 -0.268493 -0.460885 -0.864479 0.502616 0.00728958 
-0.450965 0.00600193 0.210487 0.992265 0.123391 -0.0136289 
-0.288866 -0.209606 -0.774207 0.589874 0.268897 0.761409 
-0.424557 0.235693 -0.566802 -0.930682 -0.321138 -0.17522 
-0.2987 -0.175621 -0.614904 -0.6132 -0.752292 -0.240919 
-0.446719 -0.0279184 0.364273 0.981254 0.189063 0.0373503 
0.00799862 -0.0759783 -0.886562 -0.0730388 0.0612354 0.995447 
-0.435921 -0.105703 -0.236944 0.982437 0.18659 -0.00144038 
-0.449988 -0.0016535 0.298937 0.993781 0.108735 -0.0239941 
-0.173253 -0.227255 0.43279 -0.132553 -0.990925 0.0222844 
0.437953 0.242056 -0.21482 0.896052 -0.436689 -0.0799583 
0.379478 -0.00438342 0.636883 0.942932 -0.260146 0.207854 
0.25424 -0.297377 -0.749462 -0.5368 0.52387 0.661367 
-0.223563 0.280528 1.01168 -0.116744 -0.918942 0.376719 
0.00171984 0.0501441 -0.887688 -0.026689 -0.0512425 0.99833 
0.467079 0.187441 0.592726 0.658704 -0.710417 0.247823 
0.440743 0.252543 -0.315642 0.829987 -0.556128 0.0429334 
0.364413 -0.296924 -0.270501 -0.843268 0.537289 -0.0148342 
-0.0256514 -0.210619 0.632561 -0.016613 -0.961814 0.2732 
-0.335195 0.0859439 -0.712458 -0.92489 0.16221 -0.343898 
0.188135 -0.212556 0.578142 0.166846 -0.97083 0.172197 
0.430247 0.19171 -0.068655 0.991863 -0.0615468 0.111447 
-0.51096 0.230173 -0.473551 0.962988 0.26946 -0.00673712 
-0.0383826 0.00641956 -0.841642 -0.201536 0.11544 -0.972655 
0.380404 0.0797715 -0.639955 0.875949 -0.188081 -0.444228 
-0.0123577 -0.285081 -0.838994 0.037374 0.480791 0.876038 
0.220799 -0.214931 0.512543 0.22145 -0.971816 0.080831 
0.454104 0.0311941 -0.137637 -0.995062 -0.0935338 0.0331974 
-0.21932 0.144316 0.91576 -0.415063 -0.443899 0.794151 
0.293307 -0.187914 -0.572561 0.5379 -0.83546 -0.11256 
0.512559 0.221678 0.264098 -0.94738 0.319512 0.0195928 
-0.437296 0.239187 -0.382601 -0.945835 -0.304702 -0.112042 
0.187355 -0.165328 -0.755348 0.344931 -0.607035 -0.715912 
-0.348878 -0.127906 -0.574709 -0.858307 -0.480588 -0.179847 
-0.15235 -0.211554 0.827332 0.215481 0.520309 -0.826345 
-0.0493014 0.240843 -0.841646 -0.0558163 -0.412495 -0.909248 
-0.431717 -0.12829 0.302521 0.974595 0.223726 0.0105794 
-0.137987 0.197643 -0.826182 0.260424 0.335514 -0.905323 
-0.425743 0.160797 -0.380986 -0.988934 -0.147309 -0.0176085 
0.434504 -0.11405 -0.0840198 -0.987757 0.155611 0.01103 
0.369911 -0.107639 0.141062 0.906451 -0.422249 -0.00717961 
0.141416 -0.0488191 0.835797 0.202609 -0.538644 0.817809 
0.471894 0.169314 -0.256452 -0.773142 0.626927 -0.0959914 
-0.459148 0.241171 0.824132 0.944544 -0.0845595 -0.317312 
-0.418699 0.113513 0.00712958 -0.973353 -0.226665 -0.0347245 
0.0580063 -0.234073 0.339039 0.0153738 -0.99986 -0.00667561 
-0.473864 0.28058 0.141205 -0.143255 -0.989414 0.0231816 
-0.241679 -0.191687 -0.671584 -0.406737 -0.847562 -0.340888 
0.111682 -0.190923 0.684713 0.0796037 -0.904068 0.41991 
0.409094 0.0520333 -0.250815 0.971581 -0.233018 -0.0416277 
0.414017 -0.20075 -0.291326 -0.949787 0.311975 -0.0240021 
-0.394758 -0.0705497 -0.680781 0.891709 0.133665 0.432422 
-0.432846 -0.122937 -0.0927816 0.98977 0.142657 -0.0019718 
0.0219613 0.109458 -0.826988 -0.062961 0.0919324 -0.993773 
0.074375 -0.227716 -0.628566 0.0203681 -0.993385 -0.113013 
0.0720355 -0.0891523 -0.828686 0.118016 -0.165627 -0.979102 
0.389395 -0.189977 -0.640153 -0.912585 0.266611 0.31001 
0.105617 0.109467 0.98276 -0.112682 0.402784 -0.908333 
-0.512509 0.234223 0.0997543 0.993012 0.114405 0.0289622 
0.413288 0.125539 0.584199 0.936294 -0.296768 0.187836 
-0.0139594 0.123424 -0.88738 0.00329449 0.210592 0.977568 
-0.387815 -0.233732 0.570736 0.893638 0.412839 -0.175996 
-0.417794 0.11745 -0.475117 -0.966549 -0.239466 -0.0918607 
0.33217 -0.125119 -0.637885 0.819914 -0.436749 -0.370124 
0.244253 0.184833 0.97677 -0.270858 0.738576 -0.617367 
-0.181538 -0.111304 0.776726 -0.23372 -0.655679 0.717956 
-0.425049 0.156016 0.368172 -0.990254 -0.137133 0.0243413 
-0.43317 0.00237201 -0.600001 0.958788 0.137255 0.248769 
-0.420327 -0.179085 -0.256922 0.968623 0.248371 -0.00900821 
0.16832 0.145389 0.986432 -0.295708 0.590663 -0.750782 
0.0875035 -0.233552 -0.35882 0.0383463 -0.999259 -0.0032077 
-0.454817 0.037367 -0.387315 0.982003 0.186718 -0.0284036 
-0.512296 0.237006 -0.386907 0.998547 0.0366532 0.0395022 
0.434751 -0.091135 -0.512191 -0.984704 0.121584 0.124801 
0.365627 -0.116633 0.0489031 0.896286 -0.44345 -0.00488919 
0.447429 0.0986865 -0.588066 -0.978774 -0.181651 0.0948954 
-0.175345 -0.227646 -0.455814 -0.142473 -0.989789 0.00430019 
0.0597724 -0.15311 0.753354 0.0382317 -0.790168 0.611696 
-0.375359 -0.0945998 0.0108235 -0.936922 -0.348521 -0.0266561 
-0.399176 0.0352714 -0.542333 -0.987389 -0.0647666 -0.144459 
-0.429031 -0.141877 0.220516 0.973094 0.230398 -0.00223772 
-0.366627 -0.294069 0.37426 0.8333 0.552786 -0.00621854 
-0.448053 -0.0185539 -0.309197 0.993024 0.111128 0.0394195 
0.0951806 -0.121939 0.885895 -0.122361 0.430465 -0.894275 
0.186728 -0.226047 -0.445713 0.155548 -0.987757 0.0119075 
-0.383171 0.0596664 -0.625624 -0.945459 -0.0406499 -0.323194 
0.51256 0.218304 0.0470813 -0.992433 0.121019 -0.0207719 
-0.0879644 -0.233541 0.130869 -0.0320956 -0.999477 0.00396826 
0.459972 0.0867071 -0.465897 -0.953622 0.287302 0.089789 
-0.300015 -0.190214 -0.00263422 -0.536614 -0.843675 0.0160739 
0.115174 -0.232546 -0.29323 0.0614419 -0.998108 -0.00214029 
0.404828 0.0345342 0.48268 0.975618 -0.189432 0.110842 
-0.22704 -0.218323 0.036003 -0.238981 -0.970989 0.00831655 
-0.437728 0.0257076 0.629033 0.952589 0.228736 -0.200631 
0.37751 0.0144254 -0.723573 -0.807316 0.138839 0.573555 
0.450773 0.00384265 0.0976039 -0.993838 0.107619 -0.0265273 
-0.436832 -0.0918083 -0.474122 0.989521 0.121859 0.0774505 
-0.0935938 0.193147 0.973865 -0.18971 -0.46314 0.865743 
-0.341893 0.162718 0.902931 0.42644 0.660957 -0.617483 
-0.192698 0.204698 -0.884183 -0.70802 -0.31464 -0.632226 
-0.358947 0.0270027 -0.747155 -0.704259 0.650056 -0.285389 
0.0107022 -0.234283 -0.189515 0.00481047 -0.999988 -0.000165702 
0.465401 0.120928 -0.176961 -0.906227 0.404751 0.122185 
0.191362 0.197158 1.03127 -0.23126 0.764455 -0.60177 
0.368939 -0.288383 0.454666 -0.852008 0.520897 -0.0524358 
-0.156897 -0.229649 -0.379172 -0.0990553 -0.995074 0.00395951 
-0.205623 -0.222914 -0.296235 -0.191624 -0.981468 -0.000858821 
0.479769 0.280549 0.533739 -0.00777496 -0.999955 0.00538322 
-0.438243 0.23777 -0.722442 0.849527 0.232791 0.473405 
0.239593 -0.0881099 0.771282 0.409475 -0.561027 0.71943 
-0.387246 0.206053 -0.778719 0.588908 0.320294 0.742023 
0.241903 -0.213683 -0.507544 0.286937 -0.957629 -0.0247786 
0.389014 -0.052442 -0.239446 0.969998 -0.243071 -0.00456122 
0.512558 0.201599 -0.304004 -0.907752 0.412519 -0.0762541 
0.103905 -0.0405278 0.91981 -0.115304 0.362129 -0.924969 
0.458008 0.0629147 -0.336877 -0.968176 0.250201 -0.00589839 
0.42272 -0.169931 0.0166922 -0.968384 0.249282 0.00959036 
0.406541 0.0359405 0.249894 0.988136 -0.138307 -0.0667695 
0.249565 -0.212159 -0.222615 0.296748 -0.954951 -0.00289659 
0.167417 -0.133889 0.865889 -0.243189 0.462059 -0.852854 
-0.163747 -0.181153 0.692051 -0.16013 -0.87987 0.447423 
-0.447238 -0.0251452 -0.108319 0.990453 0.107373 -0.0864553 
-0.445907 -0.0129033 -0.500453 0.98657 0.138936 0.0858826 
0.325915 -0.170801 -0.114775 0.667263 -0.744822 -0.000128645 
-0.469736 0.280855 -0.524379 -0.113275 -0.991989 0.0559153 
-0.407506 0.0100023 -0.673804 0.894385 0.121075 0.430601 
0.51256 0.199378 -0.0355635 -0.961314 0.275434 -0.0032366 
0.0928178 -0.233404 0.203954 0.0373824 -0.999301 0.000445679 
0.347169 -0.134957 -0.560842 0.842614 -0.516504 -0.152399 
-0.45967 0.28055 -0.609431 -0.026748 -0.998795 -0.0411438 
0.212774 -0.217722 -0.574938 0.227243 -0.971376 -0.0692069 
-0.512515 0.223824 -0.143373 0.987746 0.153004 -0.0307815 
-0.465122 0.119126 -0.310135 0.936184 0.347889 -0.0503366 
0.402573 0.221702 0.925036 -0.651871 0.495139 -0.574371 
-0.174943 -0.217102 0.562416 -0.129581 -0.980383 0.148521 
-0.425716 0.0719848 0.714597 0.935725 0.200112 -0.290472 
0.400874 -0.120388 0.665706 -0.937837 0.203408 -0.281223 
-0.331968 0.130546 -0.781017 -0.621646 -0.600205 -0.503299 
0.406992 0.0391135 0.398622 0.973274 -0.224698 -0.0474303 
-0.404402 0.0233 -0.16159 -0.987484 -0.156625 0.0185209 
-0.133869 -0.228206 0.497673 -0.0737152 -0.994695 0.0717493 
0.23816 0.0373201 -0.783522 0.531301 -0.0855991 -0.842848 
-0.383795 -0.0749896 0.734095 0.891273 0.211971 -0.400874 
-0.403872 -0.228684 -0.307064 0.923885 0.382669 -0.00132515 
0.442239 0.269507 -0.542533 0.376468 -0.89177 -0.251034 
-0.0859882 -0.233583 -0.345288 -0.0389559 -0.99924 -0.00123836 
0.442698 0.258225 0.448434 0.834697 -0.549149 0.0414258 
0.403223 0.106281 0.79177 -0.923874 0.220496 -0.312791 
0.441852 0.102547 0.674216 -0.907773 0.171089 -0.382983 
0.281559 0.096027 0.916974 -0.500851 0.290026 -0.815496 
-0.412669 -0.204594 0.0200338 0.94692 0.321321 -0.00970963 
0.407234 -0.220489 -0.135897 -0.941485 0.337039 0.00330824 
0.364453 -0.296883 -0.043985 -0.822154 0.569062 -0.0152179 
0.316562 -0.266364 -0.71519 -0.693383 0.47046 0.54579 
0.471864 0.16919 0.289444 -0.827579 0.552095 0.101509 
-0.194295 -0.28057 0.758819 0.256118 0.659722 -0.70652 
0.43487 -0.11204 -0.212733 -0.973865 0.227014 0.00720339 
-0.300519 -0.188646 0.463933 -0.564631 -0.824766 0.03087 
-0.365063 -0.296158 0.0284387 0.844444 0.535619 0.00514836 
-0.25802 -0.117497 -0.814904 0.530747 0.102566 0.841301 
0.267532 -0.101312 -0.810848 -0.564181 0.0849411 0.82127 
0.393515 0.0241992 0.766927 -0.841897 0.260348 -0.472682 
-0.402305 -0.232537 -0.401067 0.92417 0.381943 0.00532216 
-0.393706 -0.0332824 0.111249 -0.973197 -0.229886 -0.00632113 
-0.259123 0.163518 -0.828206 -0.311236 0.0502498 -0.949003 
0.440045 -0.0228436 -0.547255 -0.98624 0.0880712 0.13991 
0.335532 0.241884 -0.730717 0.648766 -0.285956 -0.705217 
0.482881 0.280437 -0.0728872 -0.147359 -0.988478 -0.0345996 
0.439825 0.250181 0.219437 0.828103 -0.560325 0.0167514 
0.431413 -0.130046 0.320354 -0.97003 0.24298 -0.00170691 
-0.0914402 -0.201627 0.659047 -0.0371018 -0.944886 0.325291 
-0.419019 0.115579 0.116646 -0.982999 -0.171982 0.064298 
-0.0808847 -0.233692 -0.0583381 -0.0252338 -0.999645 0.00850569 
0.286597 -0.111699 0.716685 0.566262 -0.569152 0.596166 
-0.443374 0.0791271 -0.595074 0.963588 -0.016378 0.266888 
0.41926 0.117386 -0.40986 0.974504 -0.222379 -0.0298121 
-0.476567 0.281051 0.385139 0.247764 -0.964877 -0.0873273 
0.14338 -0.190732 -0.854077 -0.282066 0.134663 0.949897 
0.37022 -0.259691 0.586542 -0.839713 0.497285 -0.218153 
0.0858595 0.201757 -0.907088 -0.169174 0.306248 0.936799 
-0.417991 0.00248371 0.694923 0.917443 0.200158 -0.343854 
-0.446358 -0.0315747 -0.417741 0.993847 0.108916 0.0201513 
0.512159 0.238286 0.427192 -0.944431 -0.325043 -0.0489512 
-0.130575 -0.267325 0.789168 0.143286 0.671041 -0.727443 
-0.401648 0.0205604 0.501027 -0.976548 -0.210707 0.0442299 
0.428461 0.179248 0.130792 0.997694 0.025748 0.0628054 
0.392323 -0.0396371 0.11299 0.970867 -0.239129 -0.0152967 
-0.286783 -0.197346 -0.316359 -0.463724 -0.885979 0.00122547 
-0.463176 0.105222 0.399133 0.891906 0.441578 0.0975289 
-0.0671417 -0.23357 0.42528 -0.0217054 -0.999603 0.0179411 
0.36211 -0.104983 0.754063 -0.775435 0.293326 -0.55916 
0.121233 -0.294092 0.76239 -0.141981 0.661468 -0.736412 
-0.135348 0.00698572 0.870683 -0.163885 -0.421283 0.891999 
-0.387211 -0.207192 -0.630426 0.918927 0.265717 0.291492 
-0.429041 0.188291 -0.67234 0.721774 0.55672 0.411224 
-0.456993 0.0550416 -0.0979827 0.98947 0.0893779 0.113844 
-0.419436 0.118348 0.286276 -0.969439 -0.230656 -0.0835808 
-0.442484 -0.0197582 0.541856 0.979737 0.193101 -0.0531741 
-0.471565 0.167229 0.100671 0.787408 0.543464 0.290923 
-0.43308 0.211777 -0.131904 -0.99833 -0.0556493 -0.015526 
0.316734 -0.17861 -0.193538 0.632361 -0.774337 -0.0228642 
-0.28295 0.169357 0.950166 0.331072 0.763511 -0.554475 
0.0871964 -0.225659 0.548575 0.0458341 -0.990338 0.130884 
0.391141 0.260313 -0.770829 -0.724319 -0.270097 0.634357 
-0.505628 0.199062 0.163799 0.955565 0.281043 0.0889427 
0.396183 0.0643301 0.628283 0.976546 -0.157555 0.146744 
0.243063 -0.214034 0.0777374 0.270006 -0.962859 -0.000105082 
0.251123 0.256612 0.959571 0.149734 -0.899911 0.409562 
-0.281338 0.104316 0.920806 0.507183 0.233189 -0.829692 
-0.44787 0.266606 -0.242965 -0.757825 -0.651807 0.0291557 
0.40023 -0.23769 0.146335 -0.915644 0.401988 -0.00114635 
0.30443 0.168006 0.935686 -0.408929 0.640386 -0.65014 
0.344575 -0.0494669 -0.754085 -0.706599 0.0642882 0.704688 
0.322395 -0.174286 0.315358 0.658801 -0.752316 0.00150801 
0.343187 -0.152195 -0.342107 0.775083 -0.631851 0.00329542 
0.0197864 -0.22238 0.578558 0.0144581 -0.985116 0.171283 
-0.0671439 0.110046 0.987542 0.121415 0.506651 -0.853559 
-0.458115 0.0644878 0.253432 0.960222 0.278381 0.0218543 
0.468506 0.279647 -0.00273852 -0.00537731 -0.999973 -0.0049824 
0.456811 0.203198 -0.691652 -0.721371 0.356087 0.593992 
0.423801 0.28094 0.81793 0.212333 -0.976509 0.0366653 
-0.0314647 0.1734 -0.82699 0.00440169 -0.0768862 -0.99703 
-0.387842 -0.056732 -0.21334 -0.965364 -0.259006 -0.0314367 
0.402067 0.00928689 -0.179658 0.984391 -0.163027 0.0663009 
0.391629 -0.0425251 0.221601 0.969093 -0.246658 -0.00422148 
0.206807 -0.222702 -0.162927 0.200553 -0.97956 -0.0155045 
0.252065 0.28107 -0.82402 0.00098455 -0.993193 -0.116475 
0.096186 0.186373 0.970128 0.252385 -0.356892 0.899405 
-0.506509 0.199052 -0.32187 0.933143 0.355908 0.0507245 
0.391682 -0.255627 -0.330079 -0.885166 0.465184 -0.00924004 
0.324849 -0.171866 -0.0122752 0.677221 -0.735705 0.010514 
0.355485 0.131177 -0.694884 0.764446 -0.10353 -0.63632 
0.151456 -0.230132 -0.229444 0.100289 -0.994922 -0.00848558 
0.421071 -0.119573 -0.580335 -0.966156 0.197869 0.165501 
0.184738 -0.191169 0.660138 0.18215 -0.914625 0.360947 
-0.361714 -0.120197 -0.493481 -0.883477 -0.467241 -0.0339645 
-0.337304 -0.126917 0.610707 -0.831723 -0.503902 0.233067 
-0.238569 -0.00161179 0.82983 -0.412808 -0.467273 0.781822 
0.0650032 -0.18783 0.855434 -0.078549 0.482792 -0.872205 
-0.379019 -0.0851843 0.348818 -0.942346 -0.334301 0.0151017 
0.25824 -0.151335 -0.719782 0.565559 -0.596179 -0.569836 
-0.485763 0.228009 0.739691 0.885714 0.421495 -0.194556 
0.423368 0.198534 -0.543589 -0.845428 0.467697 -0.257898 
0.425505 0.00192685 -0.627012 -0.929942 0.125745 0.345536 
0.351124 0.222679 0.977858 -0.531792 0.534927 -0.656544 
-0.422703 0.201408 0.614225 -0.979398 -0.155251 0.12914 
0.257025 0.191473 -0.830477 -0.274987 0.376515 0.884657 
-0.0698184 -0.233929 0.0184852 -0.0268397 -0.999639 -0.00123943 
0.282132 -0.199711 -0.290541 0.446503 -0.89455 0.0203919 
-0.429735 0.188434 -0.299126 -0.996834 -0.0785783 -0.0121196 
-0.006839 0.0673701 0.916733 0.0157307 -0.448327 0.893731 
0.411906 -0.206148 0.331946 -0.95235 0.304789 0.0115824 
-0.369562 -0.290506 -0.31905 0.836939 0.547274 -0.00496556 
-0.441287 -0.0704276 0.153926 0.990931 0.132351 0.0231972 
0.315363 -0.155648 0.778984 -0.615573 0.379257 -0.690821 
0.340193 0.0924129 0.870479 -0.681971 0.20379 -0.702414 
0.438726 -0.0881518 0.190735 -0.98946 0.143533 0.019168 
-0.175194 0.198559 1.05888 0.141726 0.777325 -0.612927 
0.49931 0.239657 -0.57378 0.204112 0.932598 -0.297657 
-0.0328121 -0.115463 0.894311 0.0558524 0.400053 -0.914789 
0.328729 -0.115487 0.654234 0.778937 -0.538379 0.321566 
0.230345 0.267098 1.0409 -0.222669 -0.910057 -0.349592 
0.428119 -0.146804 -0.151858 -0.979018 0.203767 0.00181986 
0.18018 0.00422155 0.921574 -0.293009 0.378092 -0.878175 
0.452118 0.195048 -0.614977 -0.685042 0.470497 -0.556193 
-0.504666 0.268201 0.0134539 0.773569 -0.63078 -0.0608869 
-0.23956 -0.214712 -0.484412 -0.273644 -0.961793 -0.00852424 
-0.512515 0.215074 -0.0360874 0.942484 0.331126 -0.0456031 
-0.28947 -0.292176 0.687094 0.547561 0.651353 -0.525277 
0.368933 -0.0788527 0.579556 0.919233 -0.343222 0.192898 
-0.0627826 -0.284648 0.780658 0.0556447 0.671321 -0.739075 
0.447582 -0.014071 0.453564 -0.994598 0.102886 -0.0137669 
-0.0918471 0.0786903 0.916682 -0.18654 -0.40896 0.893283 
0.397885 0.231608 -0.646859 0.90873 -0.282576 -0.307183 
0.206775 -0.0812858 -0.844243 -0.446858 0.0053057 0.894589 
0.167525 0.267868 1.00277 0.0923612 -0.912851 0.397708 
0.458029 0.0792901 0.500777 -0.924897 0.377203 0.0477796 
-0.0385112 -0.227736 0.538848 -0.0270793 -0.99362 0.10948 
-0.14167 0.114168 0.978404 0.347031 0.441519 -0.827424 
-0.383664 -0.0570272 -0.518802 -0.961703 -0.256522 -0.0965603 
-0.430484 -0.122604 0.479804 0.985648 0.156095 -0.0642818 
0.312839 -0.181766 0.0730949 0.611981 -0.790744 0.0142638 
-0.444163 -0.0494011 0.0510446 0.980521 0.195253 0.0213146 
0.356791 -0.13228 -0.39135 0.840958 -0.540232 -0.0306336 
-0.433213 0.213244 0.421669 -0.999654 -0.00804004 0.0250583 
-0.373284 -0.223079 0.640523 0.846565 0.426338 -0.318691 
-0.168782 -0.205167 -0.695605 -0.194264 -0.931341 -0.308002 
-0.253123 -0.0673258 0.779314 -0.437129 -0.527884 0.728188 
-0.0108896 -0.0851957 0.823431 -0.00548894 -0.629487 0.776992 
0.395234 -0.0265576 -0.00745588 0.971529 -0.230121 -0.0563516 
0.31602 0.25751 0.915138 0.37736 -0.857824 0.348908 
-0.152423 -0.227085 -0.578404 -0.121712 -0.988982 -0.0842653 
-0.371374 -0.104318 0.166168 -0.926475 -0.37603 0.015675 
0.389055 -0.0518855 0.408141 0.970963 -0.235088 0.0443213 
-0.473589 0.280581 -0.428963 -0.0897107 -0.994659 -0.051037 
-0.320537 -0.175711 0.186955 -0.648591 -0.760969 0.0160016 
-0.110468 0.0046368 0.937324 0.102011 0.380414 -0.919173 
0.389989 -0.0367182 0.506346 0.973741 -0.22178 0.0513964 
-0.122106 -0.232161 -0.120957 -0.0680196 -0.997582 -0.0142515 
0.457578 0.0594554 0.03137 -0.981119 0.193161 -0.00973626 
-0.428541 -0.087197 -0.567102 0.963998 0.13422 0.229548 
-0.186694 0.168086 0.991513 0.22451 0.879907 -0.418759 
0.102663 -0.29128 -0.824119 -0.201789 0.479874 0.853816 
-0.475732 0.281052 0.540267 0.490673 -0.870756 -0.0319945 
0.358922 -0.129004 -0.0665826 0.877347 -0.479405 0.0208034 
0.175981 0.183434 -0.861531 -0.386586 0.340094 0.857256 
0.119464 -0.125997 -0.869687 -0.233343 0.137763 0.962586 
-0.227504 0.218153 0.949315 -0.443818 -0.414117 0.794691 
0.486537 0.279921 -0.256334 -0.115301 -0.992561 -0.0390895 
0.403571 0.01822 -0.316193 0.987247 -0.147556 -0.0597465 
-0.401462 0.00583916 0.0368758 -0.991189 -0.12971 0.0268163 
0.439086 -0.0861856 -0.00330548 -0.975551 0.21931 0.0142973 
-0.256856 -0.112229 0.841187 0.40631 0.374527 -0.833452 
0.322587 -0.174128 0.227717 0.657802 -0.75319 0.00153968 
0.186117 -0.293463 -0.794548 -0.358173 0.504602 0.78555 
0.421783 0.26993 0.742149 0.551675 -0.824245 0.127573 
-0.218027 0.280103 -0.847553 -0.00528058 -0.922983 0.384804 
0.341246 0.00701653 0.831085 -0.651051 0.344411 -0.676397 
-0.151147 -0.230153 0.0198299 -0.101621 -0.994822 -0.00178231 
-0.204853 0.213793 -0.80544 -0.341104 0.523084 -0.781045 
0.227835 -0.190197 0.815246 -0.367138 0.461467 -0.807625 
-0.394887 -0.0270755 0.414761 -0.980858 -0.194355 -0.0120019 
0.399985 -0.238393 -0.016608 -0.912712 0.408528 -0.00789853 
-0.358244 -0.130221 0.259095 -0.857302 -0.51394 -0.029975 
-0.294275 0.025704 -0.801552 -0.180545 0.185532 -0.96591 
0.352447 -0.0417574 -0.658092 0.870767 -0.172697 -0.460369 
0.330333 -0.165391 0.459308 0.699939 -0.713058 0.0404143 
0.424619 0.236549 0.647498 0.861265 -0.288029 0.418642 
-0.409839 0.220709 0.712845 -0.93615 -0.187385 0.297506 
-0.162386 -0.229056 -0.0589356 -0.111818 -0.993677 0.0100989 
0.342876 0.211595 -0.81404 -0.556938 0.360548 0.748214 
0.146561 -0.227833 0.488 0.0992272 -0.993673 0.0526024 
-0.414043 0.120271 0.567202 -0.977001 -0.17809 0.117277 
-0.483772 0.280305 0.221191 0.264089 -0.964285 -0.0202644 
0.395564 0.0504958 -0.577373 0.989223 -0.0923871 -0.113592 
-0.421308 0.130807 -0.0727019 -0.980749 -0.191928 -0.0359969 
0.33975 -0.254293 0.671919 -0.724897 0.532399 -0.437122 
0.266186 -0.232501 0.766446 -0.436884 0.547282 -0.713874 
-0.391401 -0.04324 0.272247 -0.989295 -0.14577 -0.00685125 
0.398989 0.00320843 -0.487586 0.976397 -0.201347 -0.0781515 
-0.358377 -0.129771 -0.139525 -0.855241 -0.518219 0.00346381 
-0.343598 -0.151575 -0.335238 -0.802574 -0.596551 0.00151469 
0.284069 -0.190104 0.544406 0.475668 -0.869076 0.135817 
-0.436636 0.236108 0.189504 -0.974238 -0.222478 -0.0369309 
-0.429148 -0.141689 -0.172912 0.981625 0.190383 0.0129266 
0.0685936 -0.0357019 0.855299 0.0713806 -0.532294 0.843545 
-0.0323291 0.278496 1.06736 0.159004 -0.886275 -0.43501 
0.170396 -0.228195 -0.348447 0.117769 -0.993039 -0.00194202 
0.463188 0.103906 0.0970852 -0.975624 0.217304 -0.0306031 
-0.36623 -0.292038 0.455951 0.822722 0.566479 -0.0472238 
0.122187 0.0340448 0.888294 0.194815 -0.448525 0.87228 
-0.247104 -0.188185 0.807252 0.397532 0.454632 -0.797044 
0.408069 -0.213613 0.444729 -0.938082 0.345515 -0.0249244 
0.246703 -0.212982 0.157804 0.29969 -0.954033 -0.00254552 
-0.453118 0.14961 -0.591248 0.821739 0.460758 0.335331 
0.434303 0.229158 -0.470456 0.935203 -0.341748 0.0927575 
-0.0408938 -0.0644304 -0.836886 0.0156371 -0.15805 -0.987307 
-0.307264 -0.0178389 0.770202 -0.724995 -0.373631 0.578603 
-0.0861717 0.0585152 -0.880993 -0.0846068 0.0509438 0.995111 
-0.424834 -0.159076 0.39406 0.967696 0.251708 -0.0144288 
-0.230154 -0.212783 0.512039 -0.246371 -0.965696 0.082049 
-0.304135 -0.187086 -0.468754 -0.556865 -0.830507 -0.0126534 
-0.365875 -0.295238 -0.413684 0.83085 0.55649 -0.00274706 
0.0307578 0.236699 1.00128 0.0718736 -0.474922 0.877088 
-0.0985615 -0.233195 -0.261035 -0.0369583 -0.999317 0.000532002 
-0.241951 -0.209588 -0.577747 -0.305449 -0.948014 -0.0892761 
-0.0854662 -0.132482 0.77557 -0.0824353 -0.732158 0.676128 
-0.512382 0.211407 0.423184 0.999687 0.00510784 0.0244751 
-0.337529 0.270812 -0.743288 -0.615068 -0.602558 -0.508543 
0.153166 0.245067 -0.823653 0.329115 -0.334369 -0.883108 
0.0643916 0.129102 -0.884008 -0.1116 0.170635 0.978994 
0.364875 -0.296412 0.0374495 -0.818194 0.574753 0.0147451 
-0.432506 0.207765 -0.0603955 -0.99577 -0.0499885 0.077099 
0.278204 -0.226935 -0.776531 -0.558626 0.342193 0.75554 
-0.456971 0.274972 -0.0382662 -0.559356 -0.828007 -0.0390671 
-0.430958 0.196967 -0.223818 -0.999923 -0.010033 -0.00730414 
-0.132635 -0.23158 0.199234 -0.0727125 -0.997345 0.00406259 
-0.34182 -0.214157 0.710313 0.723228 0.44965 -0.524172 
0.11247 -0.18903 -0.755699 0.178039 -0.789234 -0.587718 
-0.24456 -0.213589 0.110152 -0.313093 -0.949678 -0.00919014 
0.512462 0.23553 -0.194652 -0.999893 -0.0104893 0.0102335 
