ply
format ascii 1.0
element vertex 508
property float x
property float y
property float z
property float nx
property float ny
property float nz
end_header
0.323925 0.0838321 -0.519761 0.746514 0.62285 -0.234042 
-0.204674 -0.177598 0.128966 0.0436555 -0.997427 -0.0568721 
0.119102 0.168318 0.231389 -0.0515382 -0.042027 0.997786 
0.20781 0.302964 -0.134817 -0.0460888 0.99818 -0.0388846 
-0.046259 -0.177596 -0.637271 -0.0198431 -0.999781 -0.00667573 
-0.18204 -0.057104 0.258466 0.135033 0.824098 0.550116 
0.118397 0.121602 -0.46797 -0.129695 0.714527 -0.687481 
0.014565 0.302964 0.142676 0.0505428 0.995256 -0.0831261 
-0.0437802 -0.135955 0.835342 0.0131762 -0.157482 0.987434 
0.143996 0.0129348 0.756308 0.0914794 -0.180754 -0.979265 
0.109458 -0.177596 -0.336744 -0.00750516 -0.999967 -0.00310787 
-0.189938 -0.177596 -0.620274 -0.230728 -0.971173 -0.0598903 
0.0255001 0.302964 0.222667 0.125125 0.81992 0.558637 
0.344846 0.0912177 0.450933 0.0242304 0.994938 -0.0975236 
0.176704 -0.177598 0.186622 -0.0256974 -0.995395 0.0923468 
0.0161946 -0.177596 -0.482875 0.0067001 -0.999977 -0.00112325 
-0.0563298 -0.062118 0.494253 0.014856 0.999838 0.010209 
0.0346633 -0.177596 -0.403229 0.012311 -0.9999 -0.00699643 
-0.310165 0.0545441 0.443908 0.78906 0.586944 0.181333 
0.211675 -0.0334961 -0.815962 0.881603 -0.298887 -0.365298 
-0.0255031 0.156102 0.231389 -0.000489284 -0.0257512 0.999668 
0.103519 -0.177598 0.165757 0.00381893 -0.999395 0.0345693 
-0.00133438 -0.177598 0.667385 -0.00571456 -0.999978 -0.00333092 
-0.031029 -0.177598 0.756298 -0.0800276 -0.985104 -0.152202 
0.244538 -0.177596 -0.169059 0.312719 -0.948133 0.0570168 
0.056532 0.302964 -0.141815 0.00624627 0.999975 -0.00324097 
-0.0428831 -0.0681782 -1.07053 -0.616674 -0.427148 -0.661254 
0.303285 0.0177621 -0.598096 0.963617 -0.0876374 -0.252511 
0.267199 0.262115 -0.307231 0.769546 0.524449 -0.364353 
0.0925963 0.302964 0.0925158 0.0115441 0.999333 0.0346516 
-0.156172 0.302964 -0.269272 0.106533 0.992184 -0.064968 
0.354908 0.0794892 0.263791 0.792064 0.609322 -0.0368866 
-0.0952322 -0.177598 0.586988 -0.0353182 -0.999369 -0.00366421 
0.158111 -0.058067 0.303668 -0.0290542 0.999484 -0.0136834 
0.144561 -0.177598 0.403653 0.00729563 -0.999933 -0.00903636 
0.222446 -0.144443 -0.66255 0.747178 -0.624427 -0.227631 
-0.115077 0.0871564 0.82884 0.177403 0.430019 0.885218 
-0.346522 -0.00903314 0.564943 -0.840587 -0.522531 -0.142742 
-0.0827373 0.302964 -0.042048 -0.0352373 0.999379 0.00011185 
-0.285739 0.21242 -0.163419 -0.997514 -0.0646189 0.0281175 
-0.0654865 -0.177598 0.1729 -0.012107 -0.998987 0.0433453 
0.0767947 0.302964 -0.0664835 0.0312527 0.999501 -0.00458834 
-0.212143 0.302964 0.0842696 -0.0617709 0.998038 0.010236 
-0.285739 0.17159 -0.225742 -0.990265 -0.0809453 0.113241 
0.202153 0.302964 -0.230119 -0.0175828 0.99953 0.0251219 
-0.081758 0.302964 -0.252854 -0.0868726 0.996126 -0.0136754 
0.19664 0.0839664 0.831908 0.0398683 0.322454 0.945745 
-0.0881176 0.302964 0.153458 -0.0773638 0.996284 -0.0378511 
-0.00920273 0.00101881 0.813128 0.0714356 0.596213 0.799642 
0.276169 -0.0349395 -0.64946 0.909081 -0.265588 -0.320991 
-0.139461 -0.177596 -0.347294 0.070633 -0.997459 0.00925638 
0.297657 -0.136537 0.15196 0.796818 -0.604214 0.00277462 
-0.285424 0.0161857 0.746901 0.738323 -0.0343331 -0.673573 
0.178759 0.302964 -0.0392685 -0.0709674 0.997462 0.0058279 
0.355937 0.0754037 0.352806 0.7196 0.694087 -0.020449 
-0.209942 0.0939056 -0.745655 -0.245245 0.961635 -0.122938 
0.129123 0.302964 -0.262116 0.00153505 0.999025 0.0441213 
-0.305017 -0.0479795 0.834355 -0.382553 -0.0819599 0.920291 
0.190959 -0.0661662 0.690742 -0.292885 0.955599 -0.0323837 
-0.33663 -0.0463781 0.656485 -0.849063 -0.524059 0.0667436 
0.355079 0.0455874 -0.126219 0.904904 0.425586 0.0049808 
0.344115 -0.0194454 0.216548 0.915222 -0.375328 0.146621 
-0.297269 -0.137228 -0.0967912 -0.783473 -0.621399 0.0057617 
-0.0350219 0.30258 -0.313068 -0.0604826 0.932237 -0.356757 
0.31071 -0.111758 0.0733207 0.904421 -0.426594 -0.0062915 
0.285737 0.188626 0.125061 0.965186 -0.258341 0.0409307 
0.196729 0.303045 -0.304013 0.11631 0.976704 -0.180338 
0.172479 -0.177598 -0.0896069 -0.0120381 -0.999726 0.0200892 
0.210079 0.242218 -0.382239 0.293858 0.612641 -0.733702 
0.271825 -0.177057 0.318237 0.422006 -0.906585 -0.00376603 
0.346124 0.0907496 -0.260728 0.71651 0.652342 -0.247108 
0.285737 0.125314 0.215856 0.571356 0.800673 0.18021 
-0.179297 -0.106097 -0.821181 -0.785904 -0.427254 -0.447 
0.168375 -0.0630505 0.539531 0.0464439 0.997238 -0.0579659 
-0.064551 -0.0587395 0.335188 0.0594858 0.99448 -0.0864404 
-0.200955 -0.0649074 0.629671 0.141202 0.98738 0.0717155 
0.350305 0.0137177 -0.276136 0.991547 -0.0893255 -0.0941011 
-0.271559 -0.17744 0.631161 -0.511533 -0.858986 0.0218328 
-0.354906 0.0440928 0.0485157 -0.952789 0.285384 -0.103676 
-0.00658379 0.139659 -0.460132 0.128383 0.508553 -0.851405 
0.19082 -0.113934 -0.7876 0.872144 -0.333719 -0.357765 
0.0787003 -0.0663929 0.701745 0.122374 0.948932 -0.290781 
0.216124 -0.177598 0.421979 -0.00137461 -0.999926 -0.0121224 
0.014491 -0.177598 0.119962 0.0108425 -0.999922 -0.00616324 
0.13427 -0.177598 0.0889988 -0.071454 -0.997119 -0.025454 
0.16566 -0.0646488 0.617061 -0.085202 0.990291 0.109836 
-0.0445173 0.0109652 0.231387 -0.0380868 -0.0362295 0.998617 
0.300345 -0.131709 0.766488 0.837907 -0.53036 0.12896 
0.231527 -0.177598 0.773476 0.176373 -0.980136 0.090697 
-0.272323 0.294789 0.154893 -0.657991 0.750357 -0.0633378 
0.113084 0.00843391 -1.00907 0.725129 -0.295796 -0.621846 
-0.190587 -0.173752 -0.695314 -0.455909 -0.883294 -0.109265 
0.0192383 -0.0321699 -1.11807 0.32526 -0.577961 -0.748443 
-0.263785 0.227652 -0.348134 -0.861236 0.33573 -0.38152 
0.326353 -0.0759605 0.357293 0.978842 -0.204495 -0.0071269 
-0.249844 -0.0660487 0.684989 0.348781 0.92288 0.163233 
0.195298 -0.0105179 0.835342 -0.0412864 -0.0592863 0.997387 
0.173195 -0.177596 -0.296531 -0.0142279 -0.999896 0.00239457 
-0.0512246 -0.177598 0.0127374 -0.00112872 -0.999982 0.00591374 
-0.0911832 0.0939056 -0.572151 -0.0523759 0.998617 -0.00460538 
-0.128681 0.0865952 -0.986789 -0.52122 0.699303 -0.489189 
0.270081 -0.0360077 0.304435 -0.414777 0.89674 -0.154331 
0.0821034 -0.177598 0.623939 0.0283767 -0.998709 0.0421397 
0.285737 0.165576 -0.0459041 0.996839 0.0730016 0.0313363 
0.0855065 0.302964 0.167877 0.0267786 0.999632 0.00436037 
0.285737 0.214103 -0.1064 0.998348 -0.00424411 0.0572996 
0.224409 0.134407 -0.453709 0.192326 0.754662 -0.627293 
0.316212 -0.0978284 -0.288491 0.925923 -0.370132 -0.0752851 
-0.34979 0.0225445 -0.31838 -0.973915 -0.0963694 -0.205434 
-0.0510845 0.0848732 0.231387 -0.00399722 0.035972 0.999345 
0.0623763 -0.177596 -0.118721 0.00883633 -0.999949 -0.00491153 
0.254615 -0.177598 -0.0233572 0.346718 -0.937335 -0.0345016 
0.0380997 -0.177596 -0.851677 0.0121411 -0.999494 -0.0293995 
-0.285739 0.135023 -0.150781 -0.90938 0.396203 -0.126695 
0.11605 -0.177596 -0.248216 -0.0104406 -0.999846 -0.0141331 
-0.088745 -0.0606037 0.422618 0.0142972 0.997686 0.0664765 
-0.00453228 -0.177598 0.506527 0.00356542 -0.999991 0.00228217 
0.145234 -0.177596 -0.403319 -0.0611364 -0.998118 -0.00483916 
-0.0898274 -0.177598 0.270843 0.00342191 -0.99998 -0.00540671 
0.299766 0.02475 0.269615 -0.874764 -0.326051 0.35844 
-0.285739 0.210058 -0.0838392 -0.989378 -0.125497 -0.0733586 
0.0778597 -0.177598 0.270578 0.0203444 -0.999792 0.00120348 
-0.353031 0.0841482 0.588914 -0.0526724 0.996495 0.0649941 
-0.103211 -0.177596 -0.269043 0.0119715 -0.999892 0.00847597 
-0.147958 0.0939056 -0.679689 0.0403974 0.999176 -0.00388268 
0.0399964 -0.177599 -0.960432 0.462229 -0.88393 -0.070791 
0.193301 0.0939056 -0.698649 -0.0688856 0.997424 0.0200208 
0.0592213 0.212147 0.231389 0.0476582 -0.0778505 0.995825 
-0.102495 0.269215 -0.359652 0.0203683 0.813627 -0.581031 
0.0710678 0.302514 -0.313403 0.0197355 0.934825 -0.354559 
-0.329833 -0.0666481 -0.164531 -0.947197 -0.320314 0.0147456 
-0.337383 0.07487 -0.462876 -0.804242 0.580294 -0.128273 
-0.312724 -0.107623 0.615166 -0.970684 -0.239857 0.015512 
-0.245722 0.187736 -0.407893 -0.654768 0.320329 -0.684593 
-0.233431 0.0939056 -0.569031 0.0403241 0.997582 0.0566056 
-0.0899833 -0.0479378 0.231387 -0.0125624 0.4438 0.896038 
0.355511 0.050505 0.175019 0.964553 0.26346 0.0150215 
0.338445 -0.0405157 0.602161 0.93391 -0.357497 -0.00286636 
-0.0788517 -0.177598 0.659476 -0.0394024 -0.998675 0.0331073 
0.352843 0.0262899 0.757647 0.99779 -0.0592953 -0.0300001 
-0.332369 -0.0476834 -0.338395 -0.960411 -0.268718 -0.0734861 
0.282175 0.281487 -0.230441 0.821631 0.554144 -0.133592 
-0.312353 0.0746046 -0.581634 -0.791244 0.608178 -0.0636516 
0.346551 0.0386332 -0.382848 0.930301 0.366517 0.0143263 
-0.304902 -0.0831294 -0.459599 -0.930451 -0.335765 -0.146707 
-0.26784 -0.0397631 0.367033 0.569068 0.803822 -0.173299 
-0.343961 0.0312418 -0.397773 -0.996009 0.0836026 0.0312373 
0.0643717 0.0146729 -1.07838 0.899246 -0.145336 -0.412594 
0.233463 -0.177596 -0.340637 0.184797 -0.979917 0.0749164 
-0.315686 -0.10122 0.701487 -0.990636 -0.136438 0.00492894 
-0.217909 -0.105545 0.835342 0.05177 0.0567811 0.997044 
-0.264467 -0.0451628 0.478697 0.60098 0.758849 0.250939 
-0.273897 -0.17409 0.0595194 -0.528528 -0.848801 -0.0139995 
0.341518 -0.029522 0.706001 0.946761 -0.317089 -0.0556592 
-0.238813 -0.164448 -0.563932 -0.558745 -0.822971 -0.102584 
0.0927297 -0.177598 0.343129 0.0233651 -0.9997 -0.00733505 
-0.031346 -0.0668403 0.751867 0.0334436 0.840046 -0.541484 
-0.00269833 0.302964 -0.0786116 -0.00400889 0.99998 -0.00483509 
0.10067 0.302964 0.00569162 0.0470325 0.998893 -0.000788263 
0.109042 0.0584806 0.231387 0.094661 -0.0941201 0.99105 
0.0827896 -0.0596554 0.378106 0.0253122 0.999052 0.0354074 
-0.138748 -0.177598 0.354474 -0.044078 -0.998952 -0.0123043 
-0.220709 -0.177596 -0.409619 -0.166314 -0.974302 -0.151906 
-0.194712 -0.177598 0.555489 0.156211 -0.987721 0.00234146 
0.255682 -0.0310335 0.231387 -0.278578 0.636628 0.719096 
0.118031 -0.0331796 0.835342 0.0480439 0.0899895 0.994783 
0.0326797 0.0394399 0.231387 0.0384872 -0.0552707 0.997729 
0.291002 0.0939028 -0.309873 0.823322 0.50749 -0.254154 
-0.315921 0.0829325 0.73447 0.339004 0.725139 -0.599374 
-0.138688 -0.177596 -0.422216 0.0479058 -0.998215 -0.0356623 
-0.0400057 -0.177596 -0.379005 0.00273267 -0.999991 -0.00327361 
-0.0859021 0.0939056 -0.907942 0.0609224 0.997911 0.0214978 
-0.0411463 0.302964 0.0906048 0.00398201 0.999987 -0.00311692 
-0.113912 -0.142125 -0.903526 -0.682288 -0.65901 -0.316526 
-0.000803484 -0.177598 -0.0677457 -0.00540611 -0.999985 -0.000815491 
0.0363964 -0.0583803 0.318341 -0.0247624 0.998767 -0.0430359 
0.0228605 -0.103627 -1.07225 0.325454 -0.398793 -0.857347 
0.2867 -0.118084 -0.471461 0.862848 -0.470182 -0.185533 
-0.285739 0.127892 -0.0721847 -0.884854 0.44906 0.12401 
0.199276 -0.0888739 0.835342 -0.013792 0.225794 0.974077 
0.26728 -0.0406341 0.665802 -0.588189 0.794863 -0.149086 
-0.265506 0.0488977 -0.726946 -0.869412 0.196605 -0.453287 
0.305766 0.0410483 0.409586 -0.942608 0.333876 -0.00406721 
-0.132764 -0.177598 0.105172 -0.0161414 -0.99987 -0.000552365 
0.338313 -0.0409628 0.423943 0.965265 -0.261073 0.010187 
0.0168881 -0.177598 0.822693 -0.0644351 -0.798995 0.597876 
0.283423 -0.159773 -0.254768 0.648296 -0.7606 -0.0346411 
-0.0580949 -0.177596 -0.452897 -0.00952087 -0.999952 -0.00208805 
-0.0737909 -0.177596 -0.809955 -0.0993336 -0.99343 -0.0568296 
-0.222088 0.0903946 0.756308 -0.0259102 0.274181 -0.961329 
0.179228 -0.177598 0.620403 -0.117414 -0.992784 0.0243842 
0.317898 0.0829747 0.530378 -0.636598 0.770118 0.0407627 
-0.0107556 0.0939056 -0.899466 -0.00856741 0.99986 -0.0143641 
-0.0962168 0.0818147 0.756281 0.319401 0.346133 -0.882142 
0.351397 0.0167467 0.555551 0.912418 -0.368505 -0.178036 
-0.142794 0.000795406 -0.96056 -0.818802 -0.272237 -0.50542 
0.319411 -0.0505305 -0.443999 0.927099 -0.317133 -0.199783 
-0.350163 0.00951867 0.128797 -0.974138 -0.222869 0.0372041 
-0.228905 0.302724 -0.288608 -0.234194 0.936718 -0.260216 
-0.0755626 -0.0657044 0.668301 0.0469301 0.998281 -0.0350976 
0.0692229 -0.177598 0.520344 -0.00169792 -0.999994 0.00296146 
0.123 -0.177596 -0.168617 -0.0283203 -0.99953 0.0117029 
0.266477 -0.177598 0.634508 0.427371 -0.899447 -0.091376 
-0.198824 0.088982 -0.860485 -0.621025 0.742523 -0.250972 
-0.285709 0.252993 0.228355 -0.772739 0.324282 0.545633 
0.333135 -0.0424233 0.816086 0.798739 -0.227565 0.556983 
-0.354246 0.0823094 0.301646 -0.757145 0.644148 -0.10865 
-0.313387 -0.106195 0.789051 -0.93147 -0.344374 0.117343 
-0.236956 0.0429041 -0.795024 -0.951091 0.115302 -0.286585 
-0.126357 0.302964 0.0485105 -0.00972876 0.999102 0.0412415 
0.270047 -0.113818 0.835245 0.331239 -0.245485 0.911053 
0.0810553 0.0939056 -0.62768 -0.0220617 0.999756 -0.000487501 
-0.127518 -0.0626081 0.518051 -0.0310823 0.998998 0.0321925 
-0.273418 -0.0941618 -0.583187 -0.914552 -0.294955 -0.276758 
0.150248 0.0870702 -0.951545 0.603996 0.745355 -0.282195 
0.102272 0.0780981 0.756307 -0.242903 0.210346 -0.94697 
-0.294671 0.0939035 -0.226118 -0.760752 0.635097 0.133823 
-0.337587 -0.0433146 0.416395 -0.983482 -0.179574 0.0227085 
0.176433 -0.177598 0.326384 -0.085511 -0.996335 -0.00227696 
-0.00889453 0.0939056 -1.05712 -0.0900345 0.995407 -0.0325251 
0.0792706 -0.177598 -0.0438434 0.0219636 -0.999756 0.00250663 
0.250255 -0.177598 0.100239 0.348861 -0.936373 0.0387569 
-0.219494 0.0065866 0.231387 0.0286653 0.203338 0.978689 
0.302782 -0.127251 -0.0690601 0.848636 -0.52733 -0.0417185 
-0.33367 0.0939035 0.376647 0.0559531 0.980476 0.188511 
0.286482 0.0920519 0.755823 -0.167242 0.713802 -0.680086 
0.0789295 -0.0419124 0.231387 0.102626 0.557654 0.823705 
0.174285 -0.175283 -0.733654 0.447833 -0.88438 -0.131594 
0.226979 -0.0956372 -0.723595 0.871245 -0.323307 -0.369329 
0.260881 0.176967 -0.398306 0.66437 0.466364 -0.584052 
-0.134996 -0.0722077 -0.933339 -0.816359 -0.290811 -0.498985 
0.272782 0.292836 0.230896 0.743237 0.273035 0.610779 
0.265233 0.299072 0.0918538 0.561214 0.809901 -0.170585 
-0.285741 0.11265 -0.35383 -0.792298 0.592724 -0.144712 
-0.200003 0.00123789 0.835342 -0.107189 -0.148844 0.983034 
0.320713 -0.0898433 0.221941 0.965652 -0.25885 0.0226326 
-0.0314422 -0.177596 -0.879436 -0.0983899 -0.994021 0.0473565 
0.320602 -0.0900785 -0.188159 0.922369 -0.386074 0.0134811 
-0.00496486 -0.0632289 0.5482 0.00276133 0.999919 -0.0124441 
-0.0853316 -0.177596 -0.534885 0.00994588 -0.999812 0.0166475 
0.00693821 0.0939056 -0.793729 -0.00464427 0.999988 -0.00147794 
-0.175909 0.302964 -0.18819 0.0609487 0.997057 0.0465041 
0.320017 -0.0914533 -0.00102592 0.931374 -0.363843 0.0126381 
0.353889 0.0832109 0.605991 0.247643 0.945279 0.212416 
-0.0564652 -0.177598 0.0932377 0.000960375 -0.999965 0.00835657 
-0.131911 -0.0283673 0.835342 -0.0447129 -0.134442 0.989912 
0.246252 -0.0624365 0.509709 -0.461837 0.885899 -0.0434685 
0.230927 0.302964 0.0135088 0.223734 0.974601 -0.00974557 
0.0457303 -0.177596 -0.221022 0.000926888 -0.999976 -0.0068378 
-0.0087034 -0.0571051 0.258518 -0.0881173 0.87544 0.475227 
-0.11403 0.125413 0.231387 0.0220989 0.0586177 0.998036 
-0.181577 0.213521 0.231389 0.19454 -0.0654421 0.978709 
-0.0813419 -0.177596 -0.735412 0.0270734 -0.99954 0.0136538 
-0.167496 -0.166191 -0.765534 -0.44219 -0.827895 -0.345048 
-0.00232427 -0.177598 0.395486 -0.0105522 -0.999862 0.0128351 
-0.0749355 -0.177598 -0.0700811 -0.00542952 -0.999985 0.000697183 
-0.215655 0.302964 -0.0975048 -0.0502027 0.996639 -0.0647296 
0.162774 0.0372806 0.835342 -0.0044828 -0.0282606 0.999591 
0.122207 -0.0610485 0.443467 0.0215546 0.999444 0.0254223 
-0.350791 0.0861306 -0.275028 -0.713061 0.691148 0.117725 
-0.298831 -0.134437 0.377562 -0.852847 -0.516595 0.0760398 
0.254074 0.0939056 -0.54443 0.0286389 0.976605 -0.213126 
0.0435571 -0.0648504 0.835342 -0.103008 0.277464 0.955198 
0.297973 0.0202909 0.627324 -0.934175 0.338798 0.111954 
-0.0798659 -0.177598 0.511284 -0.0213081 -0.999725 -0.00976219 
0.084528 -0.062689 0.521977 -0.0104517 0.999943 0.00237456 
0.314669 -0.0881861 -0.370944 0.932819 -0.355668 -0.0578767 
-0.195397 -0.0598161 0.385678 0.0837991 0.994341 -0.0652908 
-0.00425819 0.0939056 -0.552131 0.0839106 0.996421 0.0101896 
0.285737 0.117047 0.0619341 0.77389 0.614997 0.151237 
-0.153221 -0.177598 0.481293 0.0696717 -0.9959 0.0576939 
-0.0023511 -0.0660021 0.682728 -0.0748517 0.996513 0.0368577 
-0.144054 0.302964 -0.118394 -0.0057084 0.999749 -0.0216774 
-0.278499 0.172794 0.231389 -0.785403 -0.241386 0.569977 
-0.159363 -0.177596 -0.156448 0.0296138 -0.999554 -0.00379787 
-0.285739 0.0945941 0.157643 -0.58328 0.746154 0.320996 
0.0284261 -0.177596 -0.692089 0.0159698 -0.999845 -0.00743589 
-0.232351 -0.177597 -0.113796 -0.206651 -0.978322 0.0134643 
-0.174456 0.187605 -0.432769 -0.0659566 0.423913 -0.903298 
-0.234104 -0.105325 -0.691912 -0.903651 -0.333249 -0.268999 
0.0749202 -0.0516959 -1.0374 0.822218 -0.193159 -0.535395 
0.285737 0.229543 0.0389683 0.992174 0.0828266 -0.0934329 
0.251515 0.30272 -0.0704274 0.399374 0.914587 0.0634952 
0.123325 -0.177596 -0.478902 -0.0533212 -0.99818 0.028155 
0.178369 0.0117417 -0.903679 0.834009 -0.257181 -0.488147 
0.348159 -0.00113658 -0.199533 0.987782 -0.149755 -0.0431188 
-0.349835 0.00761504 -0.139493 -0.984809 -0.171503 -0.0271809 
-0.289852 0.0424506 0.231387 0.499363 0.333565 0.799607 
0.149968 0.0939056 -0.768199 -0.099446 0.993937 0.0469071 
0.312236 0.0939048 -0.420551 0.777515 0.626648 0.0527474 
0.0738383 0.0939056 -0.761672 0.0342669 0.999338 -0.0122287 
-0.297688 0.0196183 0.66825 0.948145 0.29115 0.127486 
0.264061 0.0939092 -0.647457 0.41254 0.910705 -0.0206792 
-0.0916642 0.122435 -0.467639 -0.0941814 0.683394 -0.72395 
0.153326 -0.177598 0.761669 0.00523597 -0.988778 -0.149302 
0.219497 0.0928595 -0.795509 0.451606 0.872231 -0.187789 
-0.00564523 0.0294397 -1.1529 -0.288745 -0.132651 -0.948172 
0.285737 0.107054 0.1375 0.629417 0.776074 -0.0392826 
-0.0659389 0.0939056 -0.819397 0.000131831 0.999999 -0.00142722 
0.279667 0.286695 -0.141517 0.828551 0.55695 0.0575341 
-0.168829 0.0939056 -0.604883 0.0114321 0.998385 0.0556401 
-0.341192 -0.0307963 0.066759 -0.947902 -0.318134 0.0165088 
0.161535 0.0939056 -0.543056 -0.00154407 0.991114 -0.133003 
-0.0486069 0.302964 0.217686 -0.138818 0.857205 0.495912 
-0.352344 0.0230276 0.353573 -0.939728 -0.340831 -0.0273181 
0.23407 -0.177598 0.524879 0.137307 -0.990184 0.0261367 
0.261547 -0.101209 -0.613968 0.888903 -0.365306 -0.276413 
0.223267 0.210204 0.231389 0.26999 -0.271303 0.923851 
0.152198 -0.0608443 0.756308 0.0879752 0.791458 -0.604859 
0.18351 -0.174819 0.835342 0.0742578 -0.737243 0.671534 
-0.0990434 -0.177598 0.430422 0.00635097 -0.999803 0.018803 
-0.0240363 0.302964 -0.176431 -0.00160112 0.999705 0.0242261 
-0.32026 -0.0908881 0.531735 -0.987385 -0.157915 0.0115751 
-0.176996 -0.177598 -0.058623 0.00676942 -0.999652 0.0255106 
-0.140327 -0.104264 0.835342 -0.0949048 0.187938 0.977585 
0.164329 0.302964 0.0584275 -0.0291269 0.998835 0.0384752 
0.242214 0.0226243 -0.776575 0.905038 -0.219589 -0.364262 
0.141841 -0.177598 0.551152 -0.0195903 -0.999469 0.0260204 
0.00829683 -0.177598 0.593917 0.00918071 -0.99993 0.00741701 
-0.239405 -0.177598 0.789509 -0.270197 -0.916644 0.294548 
0.130516 0.0939056 -0.857551 -0.00719457 0.999942 0.00802379 
-0.303665 -0.109681 -0.382857 -0.904677 -0.400699 -0.14491 
0.215593 -0.177598 0.260055 -0.0149723 -0.996427 -0.0831204 
-0.190275 0.0813883 0.832765 -0.0329107 0.299651 0.953481 
0.165891 -0.0684869 -0.881878 0.848147 -0.264515 -0.458997 
0.266621 -0.041742 0.40574 -0.631136 0.771087 0.0842151 
-0.349528 0.00592634 0.203853 -0.951911 -0.302516 0.0484811 
-0.299607 -0.133052 -0.0221473 -0.82326 -0.5659 -0.0447238 
-0.177526 -0.177598 0.632279 0.145965 -0.98893 0.0266761 
-0.30787 -0.117493 0.461948 -0.912759 -0.407141 -0.0332663 
-0.337594 -0.0432926 -0.0859622 -0.948806 -0.31539 -0.017197 
0.233077 -0.164217 -0.585964 0.591844 -0.78888 -0.165496 
-0.140936 -0.177598 0.181624 0.0390667 -0.998944 0.0241813 
0.327739 -0.0722779 -0.115421 0.923463 -0.383687 0.00100387 
-0.310124 0.0543981 0.531843 0.829533 0.547823 -0.108462 
-0.346076 0.0146639 0.816821 -0.605557 -0.222375 0.764101 
0.1249 0.207539 -0.418072 0.0185 0.558018 -0.829623 
0.190094 0.302964 0.135352 -0.116992 0.988802 -0.0926489 
-0.0487081 -0.177598 0.332561 0.00735589 -0.999731 -0.0220038 
-0.268011 -0.142356 -0.498693 -0.739766 -0.667743 -0.0828615 
-0.331091 -0.0631076 -0.00548235 -0.945911 -0.324398 -0.00427636 
-0.0174195 -0.0601293 0.400346 0.00260562 0.998237 0.059302 
-0.256597 0.301892 0.0161589 -0.422362 0.896645 0.132808 
-0.181811 -0.177598 0.719773 0.0903413 -0.98024 -0.175979 
0.129476 0.0517706 0.835342 -0.0646117 0.0576212 0.996246 
-0.285739 0.170117 -0.300922 -0.981025 0.0849827 -0.174262 
0.28229 -0.0139229 0.561613 -0.910944 0.411835 -0.0239267 
0.0869095 0.0939056 -0.549858 -0.0741038 0.996537 0.0377074 
-0.347924 0.0891827 0.80123 -0.477395 0.75205 0.454439 
-0.0982927 -0.0640531 0.588197 -0.0144366 0.999311 0.0342061 
-0.300381 -0.131644 -0.202391 -0.807234 -0.590224 0.0030656 
-0.32716 0.00205771 -0.479397 -0.920676 -0.296151 -0.254264 
0.337044 -0.0450547 0.509166 0.973906 -0.226367 -0.0162742 
-0.0695183 0.0939056 -0.726721 -0.00729499 0.999967 0.00362697 
-0.104652 0.210937 0.231389 -0.0348963 -0.0447151 0.99839 
-0.218189 -0.177596 -0.217302 -0.128966 -0.991649 0.000727203 
-0.106491 0.0253685 -1.02351 -0.785393 -0.0540213 -0.616636 
0.0450675 -0.061386 0.459291 -0.0085383 0.999147 0.0404129 
-0.354957 0.0792726 0.220204 -0.715756 0.698047 -0.0205667 
-0.196439 -0.177596 -0.28931 -0.00321368 -0.998147 0.06077 
-0.254429 0.302243 -0.204407 -0.444291 0.893 0.0718109 
0.263254 0.0831289 -0.728826 0.695266 0.668813 -0.263238 
-0.0230459 -0.177596 -0.181389 -0.006865 -0.999976 -0.00131631 
0.0532887 0.00103914 0.768134 -0.297792 0.359338 -0.884419 
-0.356723 0.0690689 0.669393 -0.14724 0.986939 0.0653564 
-0.0767469 -0.00877173 0.756308 0.438276 0.155768 -0.88524 
0.217652 -0.00844122 0.756308 -0.497605 0.163509 -0.851853 
0.143537 0.302964 -0.176901 0.0116502 0.999906 0.00719277 
-0.192868 -0.177598 0.0526102 0.0555101 -0.998451 0.00364418 
-0.0134599 -0.177596 -0.553217 0.00057114 -0.999939 0.011032 
0.345344 -0.0141593 0.0430814 0.951224 -0.308263 -0.0121524 
0.0780345 -0.177598 0.707148 0.118459 -0.982139 -0.146186 
-0.0873222 -0.0993373 -0.987508 -0.800166 -0.334665 -0.497728 
0.0878008 -0.120099 -0.96871 0.805593 -0.450005 -0.385377 
0.0512177 -0.177596 -0.608774 0.0168844 -0.999845 0.00498388 
-0.176392 -0.00305128 0.756308 -0.368846 -0.0423565 -0.928525 
-0.163202 -0.177596 -0.521479 -0.00814732 -0.999426 0.0328867 
0.313218 -0.106549 0.475863 0.941614 -0.336691 -0.00173334 
-0.0180112 -0.177596 -0.298141 0.00923328 -0.99995 0.00378808 
0.313203 0.0939035 -0.164318 0.797397 0.597068 0.0875647 
0.0717276 -0.177596 -0.532802 -0.000783308 -0.999984 0.00567989 
-0.222653 -0.0639999 0.754907 0.0674763 0.834993 -0.546108 
0.104599 0.089262 -1.01813 0.440262 0.798413 -0.410738 
0.0791152 -0.0646775 0.618509 0.0575843 0.995173 0.0794609 
-0.311813 0.00301864 -0.554218 -0.944824 -0.289863 -0.152603 
-0.267841 -0.0397736 0.27642 0.454216 0.839794 0.297379 
-0.130463 0.0939056 -0.778735 0.0419844 0.9981 0.045098 
0.273557 0.0837889 0.832044 -0.122893 0.388531 0.913204 
0.309787 0.0532745 0.695221 -0.518963 0.777665 -0.354845 
0.205433 -0.177596 -0.515593 0.210905 -0.977412 -0.0136034 
-0.352233 0.0849505 0.11501 -0.668979 0.742653 -0.0305693 
-0.339827 -0.0356139 0.308885 -0.991769 -0.122337 -0.0377829 
0.0757311 -0.177598 0.433563 -0.00306882 -0.999994 0.00152899 
-0.00712921 -0.177598 0.269475 -0.0184632 -0.999672 0.0177689 
0.131391 -0.177609 -0.822619 0.252861 -0.960527 -0.115969 
0.350401 0.0832273 0.812435 0.869133 0.303634 0.390402 
0.0483375 0.0939056 -0.483162 0.00121142 0.865078 -0.501636 
-0.27022 0.0248035 0.835342 0.0540259 -0.0301802 0.998083 
-0.226085 0.0827037 0.231387 -0.186336 -0.0897302 0.97838 
0.123861 -0.177596 -0.588729 -0.0539244 -0.998533 -0.00481508 
0.0881945 -0.161163 0.835342 0.0137223 -0.591309 0.806328 
-0.296522 -0.136721 -0.287988 -0.804254 -0.590483 0.0671205 
-0.0693799 0.302964 -0.117953 -0.0154237 0.999863 -0.00597004 
0.151614 0.302947 0.231389 -0.287572 0.736363 0.612431 
-0.33641 -0.0465019 -0.256943 -0.950229 -0.311303 -0.0124377 
-0.231683 -0.0288091 -0.774367 -0.897009 -0.26147 -0.356381 
-0.285739 0.129337 0.0892246 -0.928676 0.37067 -0.0128239 
0.285737 0.153789 -0.248841 0.97042 0.230766 -0.0709438 
-0.113681 -0.177024 0.835342 0.0575596 -0.620343 0.782216 
0.0747062 0.248293 -0.380575 -0.0252154 0.714112 -0.699577 
0.136537 0.283144 -0.345724 -0.030341 0.831099 -0.555296 
-0.0605452 0.0451878 -1.08973 -0.837223 0.254525 -0.484019 
0.267934 0.00617486 0.835342 -0.0532606 -0.0386604 0.997832 
0.263859 -0.172039 -0.408582 0.520258 -0.85207 -0.0575092 
-0.00839372 -0.177596 -0.756421 0.0130395 -0.999645 0.02324 
0.353097 0.0841115 0.0310337 0.72964 0.665315 -0.158053 
-0.259676 -0.1776 -0.342451 -0.385841 -0.922525 -0.00868743 
-0.0634936 -0.0565984 0.835342 0.0275464 0.137114 0.990172 
0.20267 0.0673783 0.756308 -0.0190528 0.140559 -0.989889 
-0.00270465 0.25313 -0.375738 0.00520421 0.733411 -0.679765 
-0.3325 -0.0590019 0.150706 -0.95947 -0.281385 0.015483 
0.201969 0.0751775 -0.871003 0.708158 0.538667 -0.456454 
-0.354705 0.0418848 -0.207736 -0.95651 0.275964 0.0945079 
0.336396 -0.0471287 0.141115 0.949271 -0.314402 -0.00601313 
0.0546544 -0.177598 0.0562984 0.0233772 -0.999299 0.0292556 
-0.348631 0.00120552 0.488041 -0.902743 -0.429968 -0.0135492 
-0.263764 -0.177598 0.719315 -0.35973 -0.933004 0.0098707 
-0.264033 -0.177598 0.434783 -0.448789 -0.891103 -0.067256 
0.339666 -0.0361978 -0.0467041 0.946708 -0.321054 0.0258701 
-0.27126 -0.0339853 0.620821 0.78863 0.61458 0.0188126 
0.072892 -0.177596 -0.770958 -0.0602274 -0.996571 0.0567389 
-0.165298 0.112479 -0.47149 -0.0270546 0.786919 -0.616463 
-0.162822 0.302964 0.221698 0.162053 0.780984 0.60316 
0.0508762 0.0939056 -0.857614 0.0134732 0.999886 0.00681456 
-0.0514835 -0.177603 -0.954534 -0.440525 -0.894074 -0.0810554 
-0.285739 0.208806 0.0821455 -0.996796 -0.0620112 -0.0505172 
-0.339207 -0.0377372 0.759875 -0.81143 -0.571089 -0.124256 
-0.16097 0.302964 -0.0384015 0.0490349 0.998635 -0.0180092 
-0.171795 0.0674174 -0.927698 -0.815706 0.338445 -0.469126 
-0.280468 0.0939056 -0.511569 -0.230041 0.962506 -0.143745 
0.101526 -0.177596 -0.702711 -0.0817784 -0.996146 0.0317178 
-0.252552 0.12054 -0.440411 -0.378867 0.806934 -0.453119 
-0.16385 -0.0664669 0.705308 -0.256948 0.928338 -0.268636 
-0.285739 0.181937 0.00355493 -0.985932 -0.156563 0.058533 
0.182972 -0.060029 0.395646 -0.0620953 0.995112 0.0767893 
-0.356363 0.062312 -0.0382982 -0.811719 0.556718 0.176572 
-0.0373393 0.203598 -0.421181 -0.0216701 0.593076 -0.804855 
0.00595286 -0.171035 -1.03124 0.103091 -0.782421 -0.614157 
-0.174822 -0.021081 -0.895902 -0.809765 -0.318781 -0.492605 
0.12273 -0.128103 -0.904076 0.666743 -0.527333 -0.526662 
-0.285739 0.103305 0.0161503 -0.849183 0.527517 -0.0247895 
0.0585102 0.117567 0.231387 0.00986744 0.0653359 0.997815 
-0.282986 0.25916 -0.260998 -0.932284 0.328498 -0.151445 
-0.272914 -0.175498 0.318683 -0.515984 -0.854811 0.0553112 
-0.318951 -0.0939035 0.259033 -0.956877 -0.288559 -0.0334728 
0.0536672 0.302964 -0.23951 0.0159096 0.997891 0.062932 
-0.267052 -0.177598 0.183496 -0.404229 -0.914657 -0.00129347 
-0.181735 -0.0614836 0.463868 0.037765 0.994109 0.101595 
-0.271431 -0.177598 0.54737 -0.452701 -0.891174 -0.0295067 
-0.121078 -0.177596 -0.650083 0.0539809 -0.998542 0.00016446 
0.298884 -0.134341 0.400301 0.847177 -0.53083 0.0225996 
0.310624 -0.111935 0.586904 0.932193 -0.361922 -0.00539849 
-0.35018 0.0871632 -0.122903 -0.731919 0.668566 -0.131583 
-0.280757 -0.00829727 -0.656989 -0.878135 -0.361968 -0.312821 
0.317628 -0.0969624 0.679018 0.960786 -0.275491 -0.0315445 
0.179281 -0.177598 -0.0115676 -0.0740622 -0.997083 -0.0184719 
0.267474 0.0104142 -0.707069 0.898856 -0.282909 -0.334694 
0.196493 -0.177598 0.698943 -0.21262 -0.977087 0.00966109 
-0.285739 0.174163 0.154014 -0.967978 -0.245024 -0.0546035 
0.285445 0.166185 -0.328411 0.998584 0.0268987 -0.0459065 
-0.230773 -0.177598 0.256562 -0.0272716 -0.999466 0.0180081 
0.175815 -0.0434185 0.231387 -0.0300518 0.705156 0.708415 
0.0437274 0.191409 -0.430148 0.0306317 0.51581 -0.856155 
0.044724 0.0939056 -0.969592 -0.0555026 0.998389 -0.0117954 
-0.127047 -0.177598 0.0095211 -0.0152796 -0.99988 0.00255834 
0.352124 0.0215767 0.481101 0.923845 -0.366609 0.110038 
0.00558079 -0.177598 0.195758 -0.00770993 -0.999956 0.00528655 
-0.279224 0.287534 -0.0605259 -0.798186 0.594896 -0.0948627 
-0.306117 -0.120917 0.105693 -0.903323 -0.428885 0.00812426 
0.174278 0.114876 0.231387 -0.0514032 -0.0275127 0.998299 
-0.0535415 0.0939056 -0.994812 -0.0302238 0.991059 -0.129959 
-0.131652 0.0472185 0.231387 -0.00525411 -0.0370828 0.999298 
0.232277 0.0571937 0.231387 -0.280624 -0.294272 0.913594 
0.290592 -0.0799785 -0.538411 0.93152 -0.305197 -0.197799 
0.286168 -0.155705 0.243147 0.636589 -0.761049 -0.124732 
-0.00951119 0.0939056 -0.640038 0.0161193 0.999786 -0.0129927 
-0.210616 -0.177598 0.37633 0.0517259 -0.997265 -0.0527885 
-0.138383 -0.0586183 0.329493 -0.0979108 0.9921 -0.0784344 
0.270261 -0.177598 0.709958 0.455443 -0.885581 0.0911999 
0.348633 0.00121151 0.34458 0.884021 -0.452117 -0.11873 
0.276975 -0.169682 0.463357 0.577867 -0.815892 -0.0197555 
0.319547 0.0077547 -0.523667 0.932408 -0.267974 -0.242497 
-0.00298451 0.302964 0.0200646 -0.00432178 0.999242 0.0386814 
-0.250697 -0.0632982 0.551558 0.413786 0.907593 -0.0711052 
-0.167399 0.302964 0.146587 0.114524 0.987568 -0.107674 
0.174248 0.0939056 -0.623815 -0.0125909 0.999852 0.0116912 
0.285737 0.189704 -0.182605 0.999903 -0.00904748 -0.010596 
0.351558 0.0856662 0.107397 0.603761 0.780796 0.160717 
0.285737 0.235624 0.185905 0.934824 -0.224766 0.274925 
0.302268 0.0939035 -0.0362325 0.803538 0.592952 -0.0522963 
0.131407 -0.0429044 -0.958336 0.807986 -0.288732 -0.513607 
-0.176888 0.285129 -0.343739 -0.000696761 0.87348 -0.48686 
-0.107757 -0.177598 0.742319 0.0530164 -0.970865 -0.233687 
0.354725 0.0421783 -0.0432865 0.934998 0.348619 -0.0651405 
0.113307 0.0939056 -0.695239 0.0284773 0.999248 -0.0263113 
-0.286152 0.087035 -0.651888 -0.615428 0.749153 -0.244987 
0.00554254 0.0939056 -0.719865 -0.00728546 0.999952 0.00648168 
0.031663 0.0867391 -1.11865 0.262988 0.920013 -0.290538 
