ply
format ascii 1.0
element vertex 508
property float x
property float y
property float z
property float nx
property float ny
property float nz
end_header
0.323925 0.0838321 -0.519761 0.742387 0.627174 -0.235616 
-0.204674 -0.177598 0.128966 0.04087 -0.997573 -0.0563641 
0.119102 0.168318 0.231389 -0.0573512 -0.0372039 0.997661 
0.20781 0.302964 -0.134817 -0.0488265 0.998169 -0.0356949 
-0.046259 -0.177596 -0.637271 -0.0176984 -0.999814 -0.0076654 
-0.18204 -0.057104 0.258466 0.154246 0.830296 0.535552 
0.118397 0.121602 -0.46797 -0.129274 0.716002 -0.686024 
0.014565 0.302964 0.142676 0.0505209 0.994926 -0.0870047 
-0.0437802 -0.135955 0.835342 -0.0079534 -0.1889 0.981964 
0.143996 0.0129348 0.756308 0.0354121 -0.130735 -0.990785 
0.109458 -0.177596 -0.336744 -0.00809132 -0.999962 -0.00327169 
-0.189938 -0.177596 -0.620274 -0.227874 -0.971954 -0.0581288 
0.0255001 0.302964 0.222667 0.127001 0.817929 0.561126 
0.344846 0.0912177 0.450933 -0.00931312 0.993091 -0.116979 
0.176704 -0.177598 0.186622 -0.0139387 -0.994196 0.10668 
0.0161946 -0.177596 -0.482875 0.00636286 -0.999978 -0.00173572 
-0.0563298 -0.062118 0.494253 0.0111731 0.999795 0.0168607 
0.0346633 -0.177596 -0.403229 0.0129617 -0.999893 -0.00679788 
-0.310165 0.0545441 0.443908 0.720997 0.645544 0.251866 
0.211675 -0.0334961 -0.815962 0.882249 -0.299945 -0.362863 
-0.0255031 0.156102 0.231389 -0.00174824 -0.0235884 0.99972 
0.103519 -0.177598 0.165757 -0.00445507 -0.999321 0.0365858 
-0.00133438 -0.177598 0.667385 -0.0397248 -0.99868 0.0325591 
-0.031029 -0.177598 0.756298 -0.12197 -0.961282 -0.247104 
0.244538 -0.177596 -0.169059 0.313892 -0.947773 0.0565471 
0.056532 0.302964 -0.141815 0.00448249 0.999982 -0.00389231 
-0.0428831 -0.0681782 -1.07053 -0.614764 -0.426352 -0.663543 
0.303285 0.0177621 -0.598096 0.963625 -0.0922502 -0.250834 
0.267199 0.262115 -0.307231 0.769652 0.524386 -0.364218 
0.0925963 0.302964 0.0925158 0.0121343 0.999264 0.0363917 
-0.156172 0.302964 -0.269272 0.104809 0.992205 -0.0674059 
0.354908 0.0794892 0.263791 0.737889 0.674799 -0.0129239 
-0.0952322 -0.177598 0.586988 -0.045692 -0.998793 -0.0180018 
0.158111 -0.058067 0.303668 0.0332593 0.998387 -0.046006 
0.144561 -0.177598 0.403653 0.00400366 -0.999973 -0.00622428 
0.222446 -0.144443 -0.66255 0.748649 -0.623325 -0.225811 
-0.115077 0.0871564 0.82884 0.144567 0.351212 0.925068 
-0.346522 -0.00903314 0.564943 -0.902311 -0.420208 -0.0962296 
-0.0827373 0.302964 -0.042048 -0.0348939 0.999391 0.000452354 
-0.285739 0.21242 -0.163419 -0.997493 -0.0636662 0.0309075 
-0.0654865 -0.177598 0.1729 -0.0124466 -0.999126 0.0399001 
0.0767947 0.302964 -0.0664835 0.0302503 0.999531 -0.00482423 
-0.212143 0.302964 0.0842696 -0.0695965 0.997468 0.0146072 
-0.285739 0.17159 -0.225742 -0.990241 -0.0830405 0.111922 
0.202153 0.302964 -0.230119 -0.0209914 0.999529 0.0223981 
-0.081758 0.302964 -0.252854 -0.0840543 0.996355 -0.0145521 
0.19664 0.0839664 0.831908 0.0408349 0.308505 0.950346 
-0.0881176 0.302964 0.153458 -0.0825505 0.995842 -0.0385152 
-0.00920273 0.00101881 0.813128 0.0345551 0.553292 0.83227 
0.276169 -0.0349395 -0.64946 0.908378 -0.267568 -0.321336 
-0.139461 -0.177596 -0.347294 0.0674945 -0.997683 0.00860277 
0.297657 -0.136537 0.15196 0.796739 -0.604278 0.00744709 
-0.285424 0.0161857 0.746901 0.740747 -0.0480053 -0.670067 
0.178759 0.302964 -0.0392685 -0.0733788 0.997303 0.00163612 
0.355937 0.0754037 0.352806 0.621351 0.782772 -0.0344972 
-0.209942 0.0939056 -0.745655 -0.248557 0.960576 -0.124552 
0.129123 0.302964 -0.262116 0.00298274 0.999026 0.0440143 
-0.305017 -0.0479795 0.834355 -0.376213 -0.0885358 0.922293 
0.190959 -0.0661662 0.690742 -0.302193 0.953026 -0.0205249 
-0.33663 -0.0463781 0.656485 -0.866292 -0.494201 0.0728284 
0.355079 0.0455874 -0.126219 0.903588 0.428399 0.00170628 
0.344115 -0.0194454 0.216548 0.912369 -0.395156 0.10693 
-0.297269 -0.137228 -0.0967912 -0.784436 -0.620188 0.00517728 
-0.0350219 0.30258 -0.313068 -0.0608582 0.932774 -0.355287 
0.31071 -0.111758 0.0733207 0.904421 -0.426632 -0.00273103 
0.285737 0.188626 0.125061 0.966078 -0.255654 0.0365334 
0.196729 0.303045 -0.304013 0.114642 0.976513 -0.182425 
0.172479 -0.177598 -0.0896069 -0.0114979 -0.999726 0.0203933 
0.210079 0.242218 -0.382239 0.291588 0.6146 -0.732969 
0.271825 -0.177057 0.318237 0.422375 -0.906412 -0.00413313 
0.346124 0.0907496 -0.260728 0.719792 0.647793 -0.249526 
0.285737 0.125314 0.215856 0.552454 0.785155 0.279866 
-0.179297 -0.106097 -0.821181 -0.785713 -0.42848 -0.446161 
0.168375 -0.0630505 0.539531 0.029134 0.997674 -0.0616293 
-0.064551 -0.0587395 0.335188 0.047147 0.995435 -0.0829875 
-0.200955 -0.0649074 0.629671 0.137818 0.988088 0.0684784 
0.350305 0.0137177 -0.276136 0.990747 -0.0950055 -0.0969248 
-0.271559 -0.17744 0.631161 -0.515047 -0.856935 0.0197434 
-0.354906 0.0440928 0.0485157 -0.955184 0.279501 -0.0974794 
-0.00658379 0.139659 -0.460132 0.126913 0.510536 -0.850439 
0.19082 -0.113934 -0.7876 0.873104 -0.333581 -0.355546 
0.0787003 -0.0663929 0.701745 0.164314 0.941669 -0.2937 
0.216124 -0.177598 0.421979 0.002384 -0.999923 -0.0121875 
0.014491 -0.177598 0.119962 0.0108821 -0.999915 -0.00720731 
0.13427 -0.177598 0.0889988 -0.0696185 -0.997213 -0.0268174 
0.16566 -0.0646488 0.617061 -0.100086 0.990131 0.0980965 
-0.0445173 0.0109652 0.231387 -0.0445191 5.45202e-18 0.999009 
0.300345 -0.131709 0.766488 0.836396 -0.533092 0.127498 
0.231527 -0.177598 0.773476 0.173969 -0.980951 0.0864348 
-0.272323 0.294789 0.154893 -0.656228 0.750837 -0.0748942 
0.113084 0.00843391 -1.00907 0.723564 -0.292796 -0.625081 
-0.190587 -0.173752 -0.695314 -0.45325 -0.884451 -0.110959 
0.0192383 -0.0321699 -1.11807 0.32973 -0.578813 -0.745824 
-0.263785 0.227652 -0.348134 -0.862331 0.335552 -0.379197 
0.326353 -0.0759605 0.357293 0.971573 -0.236705 -0.00401661 
-0.249844 -0.0660487 0.684989 0.336349 0.92677 0.167233 
0.195298 -0.0105179 0.835342 -0.041001 -0.0746091 0.99637 
0.173195 -0.177596 -0.296531 -0.0138026 -0.999899 0.00339545 
-0.0512246 -0.177598 0.0127374 -0.00165851 -0.999981 0.00585737 
-0.0911832 0.0939056 -0.572151 -0.0514311 0.998671 -0.00336432 
-0.128681 0.0865952 -0.986789 -0.522203 0.701069 -0.485599 
0.270081 -0.0360077 0.304435 -0.562952 0.801077 -0.203374 
0.0821034 -0.177598 0.623939 0.0422152 -0.998236 0.0417579 
0.285737 0.165576 -0.0459041 0.996837 0.0726026 0.0323344 
0.0855065 0.302964 0.167877 0.0294576 0.999564 0.00196161 
0.285737 0.214103 -0.1064 0.998261 -0.00461993 0.0587638 
0.224409 0.134407 -0.453709 0.190638 0.756951 -0.625046 
0.316212 -0.0978284 -0.288491 0.925833 -0.370164 -0.0762406 
-0.34979 0.0225445 -0.31838 -0.971141 -0.105551 -0.213878 
-0.0510845 0.0848732 0.231387 -0.00531646 0.0281345 0.99959 
0.0623763 -0.177596 -0.118721 0.00847974 -0.999956 -0.00413399 
0.254615 -0.177598 -0.0233572 0.346633 -0.937376 -0.0342168 
0.0380997 -0.177596 -0.851677 0.0139973 -0.999371 -0.0325973 
-0.285739 0.135023 -0.150781 -0.9117 0.392057 -0.122856 
0.11605 -0.177596 -0.248216 -0.00990484 -0.999865 -0.0130837 
-0.088745 -0.0606037 0.422618 0.0226952 0.997854 0.0614116 
-0.00453228 -0.177598 0.506527 0.00533007 -0.999982 0.00271339 
0.145234 -0.177596 -0.403319 -0.0600044 -0.99818 -0.00598009 
-0.0898274 -0.177598 0.270843 0.00208671 -0.999987 -0.00454953 
0.299766 0.02475 0.269615 -0.86548 1.05991e-16 0.500943 
-0.285739 0.210058 -0.0838392 -0.989731 -0.123653 -0.0717069 
0.0778597 -0.177598 0.270578 0.0229651 -0.999728 -0.00396906 
-0.353031 0.0841482 0.588914 -0.138339 0.990186 0.0198733 
-0.103211 -0.177596 -0.269043 0.0117504 -0.999899 0.00799407 
-0.147958 0.0939056 -0.679689 0.0415645 0.999135 -0.000868114 
0.0399964 -0.177599 -0.960432 0.465872 -0.882321 -0.0668866 
0.193301 0.0939056 -0.698649 -0.0657722 0.997638 0.0198325 
0.0592213 0.212147 0.231389 0.050792 -0.0763809 0.995784 
-0.102495 0.269215 -0.359652 0.0226938 0.814216 -0.580118 
0.0710678 0.302514 -0.313403 0.0193032 0.936007 -0.351451 
-0.329833 -0.0666481 -0.164531 -0.946621 -0.322041 0.0140704 
-0.337383 0.07487 -0.462876 -0.804327 0.576948 -0.142089 
-0.312724 -0.107623 0.615166 -0.966497 -0.256606 0.00605032 
-0.245722 0.187736 -0.407893 -0.655788 0.321877 -0.682889 
-0.233431 0.0939056 -0.569031 0.0399399 0.99772 0.0543964 
-0.0899833 -0.0479378 0.231387 -0.0462004 0.436589 0.898474 
0.355511 0.050505 0.175019 0.961221 0.275758 0.00335482 
0.338445 -0.0405157 0.602161 0.942286 -0.334741 0.0066835 
-0.0788517 -0.177598 0.659476 -0.0214665 -0.995632 0.0908648 
0.352843 0.0262899 0.757647 0.982392 -0.185995 -0.0176583 
-0.332369 -0.0476834 -0.338395 -0.961511 -0.261154 -0.0854136 
0.282175 0.281487 -0.230441 0.822053 0.553065 -0.135457 
-0.312353 0.0746046 -0.581634 -0.790008 0.609934 -0.0622006 
0.346551 0.0386332 -0.382848 0.931092 0.36447 0.0151265 
-0.304902 -0.0831294 -0.459599 -0.932183 -0.331443 -0.145531 
-0.26784 -0.0397631 0.367033 0.595066 0.77993 -0.193923 
-0.343961 0.0312418 -0.397773 -0.999578 -1.22413e-16 0.0290422 
0.0643717 0.0146729 -1.07838 0.897192 -0.144586 -0.417303 
0.233463 -0.177596 -0.340637 0.184258 -0.980017 0.0749442 
-0.315686 -0.10122 0.701487 -0.989242 -0.146103 0.0073368 
-0.217909 -0.105545 0.835342 0.0322324 0.0480858 0.998323 
-0.264467 -0.0451628 0.478697 0.651999 0.722921 0.228654 
-0.273897 -0.17409 0.0595194 -0.528127 -0.849061 -0.0133458 
0.341518 -0.029522 0.706001 0.965384 -0.247269 -0.0830167 
-0.238813 -0.164448 -0.563932 -0.558158 -0.823572 -0.100945 
0.0927297 -0.177598 0.343129 0.0215016 -0.999753 -0.00569853 
-0.031346 -0.0668403 0.751867 -0.206403 -2.5277e-17 -0.978467 
-0.00269833 0.302964 -0.0786116 -0.00455232 0.99997 -0.00627711 
0.10067 0.302964 0.00569162 0.0458817 0.998944 -0.00241344 
0.109042 0.0584806 0.231387 0.0620765 7.60217e-18 0.998071 
0.0827896 -0.0596554 0.378106 0.0164608 0.998808 0.0459576 
-0.138748 -0.177598 0.354474 -0.0357637 -0.999291 -0.0117865 
-0.220709 -0.177596 -0.409619 -0.167125 -0.974057 -0.152586 
-0.194712 -0.177598 0.555489 0.153664 -0.988122 0.0011816 
0.255682 -0.0310335 0.231387 -0.39138 -4.79303e-17 0.920229 
0.118031 -0.0331796 0.835342 0.0619655 -7.58858e-18 0.998078 
0.0326797 0.0394399 0.231387 0.0284532 -0.0523291 0.998224 
0.291002 0.0939028 -0.309873 0.826041 0.500886 -0.258399 
-0.315921 0.0829325 0.73447 0.304117 0.74812 -0.58977 
-0.138688 -0.177596 -0.422216 0.0467388 -0.998295 -0.034954 
-0.0400057 -0.177596 -0.379005 0.00100565 -0.999994 -0.00332359 
-0.0859021 0.0939056 -0.907942 0.0589414 0.998043 0.020889 
-0.0411463 0.302964 0.0906048 0.00152153 0.999985 -0.00517602 
-0.113912 -0.142125 -0.903526 -0.680151 -0.661794 -0.315315 
-0.000803484 -0.177598 -0.0677457 -0.00480042 -0.999988 -0.000870799 
0.0363964 -0.0583803 0.318341 -0.0268943 0.998476 -0.048183 
0.0228605 -0.103627 -1.07225 0.321343 -0.395573 -0.860384 
0.2867 -0.118084 -0.471461 0.863178 -0.469749 -0.185092 
-0.285739 0.127892 -0.0721847 -0.887106 0.444859 0.123058 
0.199276 -0.0888739 0.835342 -0.0234735 0.226486 0.973731 
0.26728 -0.0406341 0.665802 -0.535125 0.84099 -0.0798496 
-0.265506 0.0488977 -0.726946 -0.86942 0.193103 -0.454775 
0.305766 0.0410483 0.409586 -0.930694 0.365663 -0.00999269 
-0.132764 -0.177598 0.105172 -0.0152384 -0.999883 -0.00111599 
0.338313 -0.0409628 0.423943 0.964351 -0.26459 0.00429646 
0.0168881 -0.177598 0.822693 -0.0628513 -0.784064 0.617489 
0.283423 -0.159773 -0.254768 0.646521 -0.762173 -0.0331945 
-0.0580949 -0.177596 -0.452897 -0.00924049 -0.999954 -0.00251464 
-0.0737909 -0.177596 -0.809955 -0.100166 -0.993297 -0.0576871 
-0.222088 0.0903946 0.756308 -0.00873498 0.204746 -0.978776 
0.179228 -0.177598 0.620403 -0.123791 -0.992018 0.0240171 
0.317898 0.0829747 0.530378 -0.627057 0.778157 0.0356451 
-0.0107556 0.0939056 -0.899466 -0.00641102 0.999929 -0.0100741 
-0.0962168 0.0818147 0.756281 0.237803 0.248869 -0.93889 
0.351397 0.0167467 0.555551 0.9264 -0.33669 -0.168592 
-0.142794 0.000795406 -0.96056 -0.818031 -0.273957 -0.50574 
0.319411 -0.0505305 -0.443999 0.925971 -0.319898 -0.200609 
-0.350163 0.00951867 0.128797 -0.972418 -0.232924 0.0122283 
-0.228905 0.302724 -0.288608 -0.235396 0.936202 -0.260989 
-0.0755626 -0.0657044 0.668301 0.0672622 0.993756 0.0890256 
0.0692229 -0.177598 0.520344 -0.00262973 -0.999996 0.00129893 
0.123 -0.177596 -0.168617 -0.0279808 -0.999544 0.0113162 
0.266477 -0.177598 0.634508 0.436613 -0.894803 -0.0932534 
-0.198824 0.088982 -0.860485 -0.619759 0.742581 -0.253913 
-0.285709 0.252993 0.228355 -0.760902 0.317188 0.566057 
0.333135 -0.0424233 0.816086 0.812239 -0.21422 0.542567 
-0.354246 0.0823094 0.301646 -0.793648 0.599531 -0.103372 
-0.313387 -0.106195 0.789051 -0.929456 -0.348363 0.121466 
-0.236956 0.0429041 -0.795024 -0.951451 0.114149 -0.285852 
-0.126357 0.302964 0.0485105 -0.00448429 0.999191 0.0399755 
0.270047 -0.113818 0.835245 0.339783 -0.243525 0.908429 
0.0810553 0.0939056 -0.62768 -0.0228178 0.999739 0.000566859 
-0.127518 -0.0626081 0.518051 -0.0258531 0.99892 0.0385939 
-0.273418 -0.0941618 -0.583187 -0.913903 -0.297108 -0.276603 
0.150248 0.0870702 -0.951545 0.602516 0.747517 -0.279631 
0.102272 0.0780981 0.756307 1.91118e-17 -1.20964e-16 -1 
-0.294671 0.0939035 -0.226118 -0.76094 0.63401 0.137845 
-0.337587 -0.0433146 0.416395 -0.977013 -0.212219 -0.0201991 
0.176433 -0.177598 0.326384 -0.0821177 -0.9966 -0.00664467 
-0.00889453 0.0939056 -1.05712 -0.0913252 0.995359 -0.0303441 
0.0792706 -0.177598 -0.0438434 0.0207263 -0.999785 0.000256557 
0.250255 -0.177598 0.100239 0.353081 -0.934825 0.037893 
-0.219494 0.0065866 0.231387 0.00737158 0.199749 0.979819 
0.302782 -0.127251 -0.0690601 0.848427 -0.527504 -0.0437151 
-0.33367 0.0939035 0.376647 0.0349856 0.977194 0.209444 
0.286482 0.0920519 0.755823 -0.341097 0.68724 -0.641369 
0.0789295 -0.0419124 0.231387 0.054087 0.518951 0.853091 
0.174285 -0.175283 -0.733654 0.447914 -0.88469 -0.129216 
0.226979 -0.0956372 -0.723595 0.872164 -0.322071 -0.368238 
0.260881 0.176967 -0.398306 0.66479 0.465407 -0.584338 
-0.134996 -0.0722077 -0.933339 -0.815801 -0.28962 -0.500588 
0.272782 0.292836 0.230896 0.743059 0.247151 0.621916 
0.265233 0.299072 0.0918538 0.558653 0.811163 -0.172976 
-0.285741 0.11265 -0.35383 -0.791848 0.593402 -0.144396 
-0.200003 0.00123789 0.835342 -0.104746 -0.115418 0.987779 
0.320713 -0.0898433 0.221941 0.958324 -0.283877 0.032094 
-0.0314422 -0.177596 -0.879436 -0.0970283 -0.994247 0.0453613 
0.320602 -0.0900785 -0.188159 0.923008 -0.38445 0.0159128 
-0.00496486 -0.0632289 0.5482 -0.000855174 0.999921 -0.0125247 
-0.0853316 -0.177596 -0.534885 0.0107182 -0.999814 0.016038 
0.00693821 0.0939056 -0.793729 -0.0048748 0.999987 -0.00179692 
-0.175909 0.302964 -0.18819 0.0604409 0.997077 0.04673 
0.320017 -0.0914533 -0.00102592 0.931704 -0.363031 0.0116273 
0.353889 0.0832109 0.605991 0.393922 0.917374 0.0570149 
-0.0564652 -0.177598 0.0932377 0.00127353 -0.999989 0.00451116 
-0.131911 -0.0283673 0.835342 -0.024099 -0.123111 0.9921 
0.246252 -0.0624365 0.509709 -0.455265 0.888553 -0.056636 
0.230927 0.302964 0.0135088 0.228644 0.973483 -0.00733378 
0.0457303 -0.177596 -0.221022 0.000601803 -0.999985 -0.00535176 
-0.0087034 -0.0571051 0.258518 -0.0629252 0.874701 0.480561 
-0.11403 0.125413 0.231387 0.0200398 0.0403637 0.998984 
-0.181577 0.213521 0.231389 0.179445 2.19757e-17 0.983768 
-0.0813419 -0.177596 -0.735412 0.0263332 -0.999578 0.0122665 
-0.167496 -0.166191 -0.765534 -0.441091 -0.828359 -0.34534 
-0.00232427 -0.177598 0.395486 -0.00711779 -0.999907 0.0116694 
-0.0749355 -0.177598 -0.0700811 -0.00480638 -0.999987 0.00180541 
-0.215655 0.302964 -0.0975048 -0.0523072 0.99649 -0.0653651 
0.162774 0.0372806 0.835342 -0.0140388 -0.0185831 0.999729 
0.122207 -0.0610485 0.443467 0.0178988 0.999487 0.0265409 
-0.350791 0.0861306 -0.275028 -0.71539 0.68903 0.115996 
-0.298831 -0.134437 0.377562 -0.863981 -0.498153 0.07335 
0.254074 0.0939056 -0.54443 0.0300169 0.976667 -0.212651 
0.0435571 -0.0648504 0.835342 -0.0306336 0.178763 0.983415 
0.297973 0.0202909 0.627324 -0.926412 0.2988 0.229084 
-0.0798659 -0.177598 0.511284 -0.0255741 -0.999629 -0.0093576 
0.084528 -0.062689 0.521977 -0.00345297 0.99998 0.00532951 
0.314669 -0.0881861 -0.370944 0.93153 -0.358693 -0.059932 
-0.195397 -0.0598161 0.385678 0.0742686 0.993515 -0.0860978 
-0.00425819 0.0939056 -0.552131 0.0849783 0.99635 0.00812711 
0.285737 0.117047 0.0619341 0.77377 0.61569 0.149018 
-0.153221 -0.177598 0.481293 0.0676112 -0.996108 0.05654 
-0.0023511 -0.0660021 0.682728 -0.156503 0.982883 0.0972013 
-0.144054 0.302964 -0.118394 -0.00453353 0.999786 -0.0201872 
-0.278499 0.172794 0.231389 -0.761518 -0.187553 0.620415 
-0.159363 -0.177596 -0.156448 0.0307112 -0.999522 -0.00359413 
-0.285739 0.0945941 0.157643 -0.575877 0.782629 0.23634 
0.0284261 -0.177596 -0.692089 0.0148753 -0.999864 -0.00711821 
-0.232351 -0.177597 -0.113796 -0.206575 -0.978325 0.014362 
-0.174456 0.187605 -0.432769 -0.0648218 0.424019 -0.90333 
-0.234104 -0.105325 -0.691912 -0.904223 -0.333689 -0.266519 
0.0749202 -0.0516959 -1.0374 0.820559 -0.194917 -0.5373 
0.285737 0.229543 0.0389683 0.991873 0.0851175 -0.0945683 
0.251515 0.30272 -0.0704274 0.402056 0.913364 0.0641642 
0.123325 -0.177596 -0.478902 -0.0515067 -0.998295 0.0274438 
0.178369 0.0117417 -0.903679 0.834421 -0.258324 -0.486837 
0.348159 -0.00113658 -0.199533 0.986787 -0.156326 -0.0425881 
-0.349835 0.00761504 -0.139493 -0.985137 -0.169852 -0.0255931 
-0.289852 0.0424506 0.231387 0.495266 -6.06526e-17 0.868741 
0.149968 0.0939056 -0.768199 -0.0956926 0.994385 0.0451744 
0.312236 0.0939048 -0.420551 0.776426 0.62783 0.054702 
0.0738383 0.0939056 -0.761672 0.0309729 0.999476 -0.00936929 
-0.297688 0.0196183 0.66825 0.955683 0.262443 0.133393 
0.264061 0.0939092 -0.647457 0.408548 0.91252 -0.0198844 
-0.0916642 0.122435 -0.467639 -0.0942986 0.683214 -0.724103 
0.153326 -0.177598 0.761669 0.0100631 -0.988627 -0.150051 
0.219497 0.0928595 -0.795509 0.449008 0.873275 -0.189161 
-0.00564523 0.0294397 -1.1529 -0.288196 -0.12941 -0.948787 
0.285737 0.107054 0.1375 0.624409 0.779686 -0.0469303 
-0.0659389 0.0939056 -0.819397 0.00132024 0.999999 -0.00108041 
0.279667 0.286695 -0.141517 0.830594 0.553686 0.059547 
-0.168829 0.0939056 -0.604883 0.0110601 0.99841 0.0552661 
-0.341192 -0.0307963 0.066759 -0.948322 -0.316546 0.0220219 
0.161535 0.0939056 -0.543056 -0.000457155 0.991092 -0.133177 
-0.0486069 0.302964 0.217686 -0.141674 0.8554 0.498215 
-0.352344 0.0230276 0.353573 -0.950497 -0.308415 -0.0378835 
0.23407 -0.177598 0.524879 0.140636 -0.989814 0.0221092 
0.261547 -0.101209 -0.613968 0.887589 -0.367429 -0.277816 
0.223267 0.210204 0.231389 0.275177 -0.2682 0.923226 
0.152198 -0.0608443 0.756308 0.0641294 0.778862 -0.623908 
0.18351 -0.174819 0.835342 0.0727726 -0.73412 0.675109 
-0.0990434 -0.177598 0.430422 0.00622215 -0.999825 0.0176293 
-0.0240363 0.302964 -0.176431 -0.00117425 0.999717 0.0237436 
-0.32026 -0.0908881 0.531735 -0.976631 -0.212945 0.0290907 
-0.176996 -0.177598 -0.058623 0.00582164 -0.999634 0.0264004 
-0.140327 -0.104264 0.835342 -0.0633642 0.179213 0.981768 
0.164329 0.302964 0.0584275 -0.0280449 0.998759 0.0411472 
0.242214 0.0226243 -0.776575 0.905375 -0.219954 -0.363202 
0.141841 -0.177598 0.551152 -0.0179154 -0.999526 0.0250248 
0.00829683 -0.177598 0.593917 0.0109393 -0.99992 -0.00642741 
-0.239405 -0.177598 0.789509 -0.286113 -0.910946 0.297182 
0.130516 0.0939056 -0.857551 -0.00479025 0.999963 0.00716722 
-0.303665 -0.109681 -0.382857 -0.904983 -0.399616 -0.145992 
0.215593 -0.177598 0.260055 -0.0167098 -0.995874 -0.0891942 
-0.190275 0.0813883 0.832765 -0.019482 0.253149 0.967231 
0.165891 -0.0684869 -0.881878 0.846543 -0.266275 -0.460936 
0.266621 -0.041742 0.40574 -0.652505 0.752032 0.0931917 
-0.349528 0.00592634 0.203853 -0.93333 -0.345882 0.0962312 
-0.299607 -0.133052 -0.0221473 -0.825127 -0.563259 -0.0436347 
-0.177526 -0.177598 0.632279 0.137454 -0.990206 0.024468 
-0.30787 -0.117493 0.461948 -0.914328 -0.40255 -0.0442472 
-0.337594 -0.0432926 -0.0859622 -0.948253 -0.317107 -0.0161173 
0.233077 -0.164217 -0.585964 0.590728 -0.789088 -0.168466 
-0.140936 -0.177598 0.181624 0.0365299 -0.999064 0.0231597 
0.327739 -0.0722779 -0.115421 0.922999 -0.384802 -0.000140669 
-0.310124 0.0543981 0.531843 0.781744 0.597986 -0.176888 
-0.346076 0.0146639 0.816821 -0.637235 -0.22048 0.738458 
0.1249 0.207539 -0.418072 0.0179165 0.558702 -0.829175 
0.190094 0.302964 0.135352 -0.115492 0.98859 -0.0967059 
-0.0487081 -0.177598 0.332561 0.0063096 -0.999755 -0.0212104 
-0.268011 -0.142356 -0.498693 -0.738308 -0.669513 -0.0815766 
-0.331091 -0.0631076 -0.00548235 -0.944866 -0.327428 -0.00442729 
-0.0174195 -0.0601293 0.400346 0.00776756 0.998451 0.0550977 
-0.256597 0.301892 0.0161589 -0.428918 0.893245 0.134697 
-0.181811 -0.177598 0.719773 0.0836147 -0.978263 -0.189765 
0.129476 0.0517706 0.835342 -0.0448879 0.0523932 0.997617 
-0.285739 0.170117 -0.300922 -0.98089 0.0873905 -0.17383 
0.28229 -0.0139229 0.561613 -0.91059 0.408827 -0.0607172 
0.0869095 0.0939056 -0.549858 -0.0737449 0.996647 0.0354522 
-0.347924 0.0891827 0.80123 -0.540535 0.737493 0.404878 
-0.0982927 -0.0640531 0.588197 -0.0303465 0.999526 0.00516976 
-0.300381 -0.131644 -0.202391 -0.806652 -0.591023 0.00185496 
-0.32716 0.00205771 -0.479397 -0.92142 -0.302996 -0.243266 
0.337044 -0.0450547 0.509166 0.973615 -0.227418 -0.0188375 
-0.0695183 0.0939056 -0.726721 -0.00722832 0.999965 0.00432673 
-0.104652 0.210937 0.231389 -0.0319241 -0.0351607 0.998872 
-0.218189 -0.177596 -0.217302 -0.131029 -0.991376 -0.00231208 
-0.106491 0.0253685 -1.02351 -0.784191 -0.0569678 -0.6179 
0.0450675 -0.061386 0.459291 -0.00586638 0.999444 0.0328304 
-0.354957 0.0792726 0.220204 -0.766509 0.642195 0.00698762 
-0.196439 -0.177596 -0.28931 -0.00399458 -0.998189 0.0600303 
-0.254429 0.302243 -0.204407 -0.444253 0.893361 0.0674241 
0.263254 0.0831289 -0.728826 0.693957 0.669775 -0.264243 
-0.0230459 -0.177596 -0.181389 -0.00531295 -0.999986 -0.000237896 
0.0532887 0.00103914 0.768134 -0.126968 0.396618 -0.909161 
-0.356723 0.0690689 0.669393 -0.244672 0.966325 0.0796937 
-0.0767469 -0.00877173 0.756308 0.146641 0.141415 -0.979029 
0.217652 -0.00844122 0.756308 -0.42735 0.165786 -0.888756 
0.143537 0.302964 -0.176901 0.0117164 0.999917 0.00537677 
-0.192868 -0.177598 0.0526102 0.0544347 -0.998516 0.00187334 
-0.0134599 -0.177596 -0.553217 0.000647587 -0.999934 0.0114431 
0.345344 -0.0141593 0.0430814 0.949695 -0.312942 -0.0121037 
0.0780345 -0.177598 0.707148 0.102373 -0.981615 -0.161096 
-0.0873222 -0.0993373 -0.987508 -0.801059 -0.335984 -0.495397 
0.0878008 -0.120099 -0.96871 0.804019 -0.454837 -0.382984 
0.0512177 -0.177596 -0.608774 0.0155001 -0.999873 0.00369862 
-0.176392 -0.00305128 0.756308 -0.307078 3.76063e-17 -0.951684 
-0.163202 -0.177596 -0.521479 -0.00968223 -0.999456 0.0315224 
0.313218 -0.106549 0.475863 0.94045 -0.339925 -0.0023418 
-0.0180112 -0.177596 -0.298141 0.00734606 -0.999967 0.00333608 
0.313203 0.0939035 -0.164318 0.798968 0.594905 0.0879712 
0.0717276 -0.177596 -0.532802 -0.00201853 -0.999978 0.00624333 
-0.222653 -0.0639999 0.754907 0.0542148 0.832898 -0.550764 
0.104599 0.089262 -1.01813 0.434795 0.80076 -0.411992 
0.0791152 -0.0646775 0.618509 0.0831606 0.992324 0.0915269 
-0.311813 0.00301864 -0.554218 -0.94331 -0.295298 -0.151543 
-0.267841 -0.0397736 0.27642 0.425325 0.854907 0.297039 
-0.130463 0.0939056 -0.778735 0.0429046 0.998108 0.0440454 
0.273557 0.0837889 0.832044 -0.126427 0.403107 0.906378 
0.309787 0.0532745 0.695221 -0.928293 -1.13683e-16 -0.37185 
0.205433 -0.177596 -0.515593 0.209371 -0.977731 -0.0143273 
-0.352233 0.0849505 0.11501 -0.665987 0.745032 -0.0372684 
-0.339827 -0.0356139 0.308885 -0.989158 -0.131123 -0.066134 
0.0757311 -0.177598 0.433563 -0.00586572 -0.999981 0.00192604 
-0.00712921 -0.177598 0.269475 -0.0184829 -0.999686 0.0169107 
0.131391 -0.177609 -0.822619 0.253948 -0.959334 -0.123243 
0.350401 0.0832273 0.812435 0.834735 0.279213 0.474613 
0.0483375 0.0939056 -0.483162 0.00339044 0.864886 -0.501957 
-0.27022 0.0248035 0.835342 0.0734355 -0.0491795 0.996087 
-0.226085 0.0827037 0.231387 -0.0981051 -0.0967105 0.990466 
0.123861 -0.177596 -0.588729 -0.0510444 -0.998676 -0.00638515 
0.0881945 -0.161163 0.835342 0.00532623 -0.552576 0.833446 
-0.296522 -0.136721 -0.287988 -0.805126 -0.589414 0.0660529 
-0.0693799 0.302964 -0.117953 -0.0136459 0.999895 -0.0049744 
0.151614 0.302947 0.231389 -0.286418 0.730623 0.619802 
-0.33641 -0.0465019 -0.256943 -0.949079 -0.31477 -0.0129757 
-0.231683 -0.0288091 -0.774367 -0.897782 -0.261346 -0.354522 
-0.285739 0.129337 0.0892246 -0.937573 0.347375 0.0169401 
0.285737 0.153789 -0.248841 0.969005 0.235207 -0.0755398 
-0.113681 -0.177024 0.835342 0.0731601 -0.594069 0.80108 
0.0747062 0.248293 -0.380575 -0.0245191 0.711985 -0.701767 
0.136537 0.283144 -0.345724 -0.0308113 0.831121 -0.555238 
-0.0605452 0.0451878 -1.08973 -0.837625 0.250246 -0.485553 
0.267934 0.00617486 0.835342 -0.0423353 -0.0456229 0.998061 
0.263859 -0.172039 -0.408582 0.520508 -0.85186 -0.0583653 
-0.00839372 -0.177596 -0.756421 0.0151231 -0.999608 0.0235511 
0.353097 0.0841115 0.0310337 0.729759 0.665008 -0.158795 
-0.259676 -0.1776 -0.342451 -0.386838 -0.922112 -0.00815953 
-0.0634936 -0.0565984 0.835342 -0.0296009 0.101083 0.994438 
0.20267 0.0673783 0.756308 -0.0251524 0.134853 -0.990546 
-0.00270465 0.25313 -0.375738 0.00552203 0.730937 -0.682422 
-0.3325 -0.0590019 0.150706 -0.959259 -0.281655 0.0222052 
0.201969 0.0751775 -0.871003 0.711001 0.538108 -0.452678 
-0.354705 0.0418848 -0.207736 -0.956216 0.274445 0.101638 
0.336396 -0.0471287 0.141115 0.940626 -0.339354 -0.00788417 
0.0546544 -0.177598 0.0562984 0.0196651 -0.999435 0.027245 
-0.348631 0.00120552 0.488041 -0.999981 1.22462e-16 -0.00620934 
-0.263764 -0.177598 0.719315 -0.361541 -0.932268 0.0127999 
-0.264033 -0.177598 0.434783 -0.444998 -0.893497 -0.0603242 
0.339666 -0.0361978 -0.0467041 0.945699 -0.323839 0.0279588 
-0.27126 -0.0339853 0.620821 0.785651 0.618289 0.0217027 
0.072892 -0.177596 -0.770958 -0.0563537 -0.996917 0.054605 
-0.165298 0.112479 -0.47149 -0.0256574 0.786094 -0.617574 
-0.162822 0.302964 0.221698 0.152992 0.774608 0.613658 
0.0508762 0.0939056 -0.857614 0.0102781 0.999925 0.0067184 
-0.0514835 -0.177603 -0.954534 -0.437291 -0.895529 -0.0824862 
-0.285739 0.208806 0.0821455 -0.998896 1.2233e-16 -0.0469663 
-0.339207 -0.0377372 0.759875 -0.825722 -0.549485 -0.127473 
-0.16097 0.302964 -0.0384015 0.0508742 0.998514 -0.0195237 
-0.171795 0.0674174 -0.927698 -0.816625 0.336848 -0.468676 
-0.280468 0.0939056 -0.511569 -0.232769 0.962012 -0.142656 
0.101526 -0.177596 -0.702711 -0.0795798 -0.996312 0.0320754 
-0.252552 0.12054 -0.440411 -0.378522 0.805863 -0.455309 
-0.16385 -0.0664669 0.705308 -0.193169 0.947933 -0.253196 
-0.285739 0.181937 0.00355493 -0.988155 -0.146361 0.0461257 
0.182972 -0.060029 0.395646 -0.0497398 0.99689 0.0611265 
-0.356363 0.062312 -0.0382982 -0.814985 0.553427 0.17181 
-0.0373393 0.203598 -0.421181 -0.0220293 0.590261 -0.806911 
0.00595286 -0.171035 -1.03124 0.100793 -0.784421 -0.611984 
-0.174822 -0.021081 -0.895902 -0.809761 -0.320224 -0.491674 
0.12273 -0.128103 -0.904076 0.664681 -0.52743 -0.529166 
-0.285739 0.103305 0.0161503 -0.854969 0.51821 -0.0220553 
0.0585102 0.117567 0.231387 0.0172055 0.0514735 0.998526 
-0.282986 0.25916 -0.260998 -0.931547 0.329603 -0.153562 
-0.272914 -0.175498 0.318683 -0.516547 -0.855505 0.0359252 
-0.318951 -0.0939035 0.259033 -0.963027 -0.26833 -0.024051 
0.0536672 0.302964 -0.23951 0.016187 0.997863 0.0633041 
-0.267052 -0.177598 0.183496 -0.398543 -0.917136 -0.004995 
-0.181735 -0.0614836 0.463868 0.0262841 0.992121 0.122494 
-0.271431 -0.177598 0.54737 -0.457148 -0.888981 -0.0269842 
-0.121078 -0.177596 -0.650083 0.0537421 -0.998555 -0.000316839 
0.298884 -0.134341 0.400301 0.84637 -0.532406 0.0141794 
0.310624 -0.111935 0.586904 0.927608 -0.373431 -0.00963868 
-0.35018 0.0871632 -0.122903 -0.736655 0.663556 -0.130506 
-0.280757 -0.00829727 -0.656989 -0.877961 -0.362553 -0.312634 
0.317628 -0.0969624 0.679018 0.95899 -0.281867 -0.0298224 
0.179281 -0.177598 -0.0115676 -0.072862 -0.997175 -0.0182726 
0.267474 0.0104142 -0.707069 0.896684 -0.286376 -0.337559 
0.196493 -0.177598 0.698943 -0.204317 -0.978766 0.01648 
-0.285739 0.174163 0.154014 -0.966124 -0.248863 -0.0683497 
0.285445 0.166185 -0.328411 0.998432 0.0312248 -0.0464513 
-0.230773 -0.177598 0.256562 -0.0304326 -0.999416 0.0155671 
0.175815 -0.0434185 0.231387 0.0941324 0.542452 0.834797 
0.0437274 0.191409 -0.430148 0.0278255 0.516622 -0.855761 
0.044724 0.0939056 -0.969592 -0.052338 0.998554 -0.0122752 
-0.127047 -0.177598 0.0095211 -0.0134742 -0.999908 0.00180184 
0.352124 0.0215767 0.481101 0.924571 -0.364871 0.109713 
0.00558079 -0.177598 0.195758 -0.00354225 -0.999985 0.00426656 
-0.279224 0.287534 -0.0605259 -0.799279 0.593787 -0.0925752 
-0.306117 -0.120917 0.105693 -0.903911 -0.427686 0.00547951 
0.174278 0.114876 0.231387 -0.00510279 -0.026139 0.999645 
-0.0535415 0.0939056 -0.994812 -0.0314688 0.99103 -0.129885 
-0.131652 0.0472185 0.231387 -0.00531197 -0.0333226 0.999431 
0.232277 0.0571937 0.231387 -0.241387 2.95614e-17 0.970429 
0.290592 -0.0799785 -0.538411 0.931111 -0.306892 -0.197104 
0.286168 -0.155705 0.243147 0.642459 -0.755072 -0.130817 
-0.00951119 0.0939056 -0.640038 0.016008 0.999804 -0.0116288 
-0.210616 -0.177598 0.37633 0.0477638 -0.997291 -0.0559392 
-0.138383 -0.0586183 0.329493 -0.0968805 0.990927 -0.09315 
0.270261 -0.177598 0.709958 0.459637 -0.883486 0.0904767 
0.348633 0.00121151 0.34458 0.889558 -0.445512 -0.101021 
0.276975 -0.169682 0.463357 0.573727 -0.818813 -0.0195378 
0.319547 0.0077547 -0.523667 0.931182 -0.271972 -0.242756 
-0.00298451 0.302964 0.0200646 -0.00590763 0.999298 0.0369987 
-0.250697 -0.0632982 0.551558 0.421736 0.904612 -0.0617756 
-0.167399 0.302964 0.146587 0.11051 0.988269 -0.105417 
0.174248 0.0939056 -0.623815 -0.012648 0.999819 0.0142024 
0.285737 0.189704 -0.182605 0.999886 -0.00504563 -0.0142517 
0.351558 0.0856662 0.107397 0.607652 0.77723 0.163317 
0.285737 0.235624 0.185905 0.931916 -0.224003 0.285227 
0.302268 0.0939035 -0.0362325 0.806271 0.589133 -0.0533736 
0.131407 -0.0429044 -0.958336 0.80863 -0.294926 -0.509054 
-0.176888 0.285129 -0.343739 0.000411917 0.873671 -0.486516 
-0.107757 -0.177598 0.742319 0.119108 -0.951865 -0.282431 
0.354725 0.0421783 -0.0432865 0.933509 0.352643 -0.0648352 
0.113307 0.0939056 -0.695239 0.0249217 0.999437 -0.0224558 
-0.286152 0.087035 -0.651888 -0.616284 0.748786 -0.243953 
0.00554254 0.0939056 -0.719865 -0.00574409 0.999964 0.00623849 
0.031663 0.0867391 -1.11865 0.265648 0.918054 -0.294291 
