ply
format ascii 1.0
element vertex 500
property float x
property float y
property float z
property float nx
property float ny
property float nz
end_header
0.0146021 -0.112856 0.167267 0.0502434 -0.00354231 -0.998731 
0.318306 0.441346 -0.0119502 -0.876766 -0.480646 -0.0161756 
-0.199349 -0.803984 0.0203284 -0.140393 0.990095 -0.00152407 
-0.0603922 0.0840494 0.162154 0.0805361 -0.00111038 -0.996751 
0.167361 -0.68531 -0.17695 -0.104171 0.0321447 0.99404 
-0.0509788 -0.0694889 -0.162973 0.0771535 -0.000935323 0.997019 
0.0814831 -0.372981 0.169698 0.0281399 -0.00105271 -0.999603 
-0.152484 0.0310757 0.147293 0.296729 0.00969141 -0.954913 
-0.14954 -0.185757 0.147967 0.28074 0.00171669 -0.959782 
0.175638 -0.787887 -0.175957 -0.144451 -0.0643624 0.987417 
0.269766 0.0857584 -0.0569215 -0.987797 -0.105681 0.114405 
-0.235853 -0.223315 -0.087845 0.871886 -0.00696711 0.489659 
-0.250806 0.13524 -0.023493 0.996184 0.005801 0.0870817 
0.233028 0.188075 0.155178 -0.712943 -0.0338994 -0.700402 
-0.25095 -0.208643 0.0206201 0.996957 -0.00809828 -0.0775311 
0.127361 0.55052 0.167046 -0.29527 -0.48959 -0.820437 
0.320431 -0.616603 -0.0774241 -0.947753 -0.247941 0.200722 
0.212718 -0.38343 0.166214 -0.286453 -0.0716468 -0.955412 
-0.228842 0.546383 -0.156032 0.420628 -0.0490316 0.905907 
-0.301905 0.577212 -0.039319 0.987024 -0.0877909 0.134449 
0.0897235 0.627952 0.119163 -0.525486 -0.63727 -0.563695 
0.00762654 0.161003 0.166931 0.0536621 -0.00114213 -0.998558 
-0.0276834 0.487428 -0.174993 0.0148151 0.0948943 0.995377 
0.1244 -0.176124 0.170691 -0.00386478 -0.00126871 -0.999992 
0.0691495 0.195731 0.169387 0.0299923 0.011022 -0.999489 
0.028446 0.158037 -0.167928 0.0424549 0.00235835 0.999096 
-0.23295 -0.388138 -0.0938487 0.851346 -0.0214434 0.524166 
0.0999173 -0.53702 0.172081 0.0394964 -0.0964449 -0.994554 
0.285174 -0.144253 0.0288123 -0.997946 -0.00705009 -0.0636673 
-0.311014 -0.776214 0.0369304 0.988633 -0.119872 -0.090746 
0.291814 -0.810584 -0.134115 -0.66692 0.350666 0.657458 
-0.244171 -0.27722 0.0652728 0.95219 0.0148292 -0.305147 
0.258837 -0.5162 -0.101938 -0.943508 -0.180986 0.277555 
-0.0605396 -0.137355 -0.162078 0.086436 -0.000813683 0.996257 
0.192996 -0.745134 0.173655 -0.104442 -0.18502 -0.977169 
0.195103 0.355655 -0.168461 -0.12914 -0.0236847 0.991344 
0.0754426 0.935948 0.0603886 -0.814408 0.29111 -0.501991 
-0.000134669 -0.647832 -0.182979 0.00650126 -0.0130829 0.999893 
-0.149517 0.348061 0.148166 0.178134 0.0425183 -0.983087 
-0.236646 0.0905451 -0.0866206 0.897492 0.00191687 0.441026 
-0.0727413 -0.41684 -0.160613 0.0933011 -0.00780298 0.995607 
-0.0700984 0.418729 0.16125 0.0652421 0.113345 -0.991411 
0.276793 -0.405555 0.0335425 -0.991051 0.101136 -0.0871221 
-0.251201 -0.0648756 -0.0141482 0.999051 -0.0013996 0.043529 
0.0243266 0.300842 -0.167738 0.0396575 -0.00210192 0.999211 
-0.134635 -0.310715 0.151396 0.227404 -0.013468 -0.973707 
0.127146 -0.737346 0.180049 -0.0480478 -0.040177 -0.998037 
0.17923 0.0690339 -0.169678 -0.0547757 0.020271 0.998293 
0.218999 0.146756 -0.165715 -0.526468 -0.0728412 0.847069 
0.275731 -0.766501 0.146876 -0.63012 -0.114472 -0.768013 
-0.159287 -0.802439 -0.0427902 -0.0352286 0.99059 -0.132251 
-0.231643 -0.813908 0.0828075 -0.473512 0.840458 0.263472 
-0.250875 -0.561644 0.0482972 0.915596 -0.367489 -0.163208 
0.323702 -0.697344 0.0584667 -0.979763 0.0934086 -0.17703 
-0.134852 0.983422 0.0548995 0.714996 -0.548764 -0.433173 
0.0160944 -0.298873 -0.167321 0.0500725 0.00115861 0.998745 
0.222509 -0.837205 -0.163887 -0.10979 0.893893 0.434629 
0.27596 -0.00843109 0.0752039 -0.989521 -0.0725872 -0.124814 
0.00345011 0.3061 0.166704 0.0609802 -0.00595517 -0.998121 
0.2938 0.42355 0.124471 -0.79971 -0.214047 -0.560934 
0.104758 0.308821 0.170315 0.00769896 -0.00511862 -0.999957 
-0.293593 0.626425 0.0630087 0.958842 -0.102088 -0.264954 
-0.231247 -0.387011 0.096574 0.833564 -0.0263959 -0.551792 
-0.038466 -0.771892 -0.182205 0.300299 -0.357452 0.884335 
-0.126959 -0.536432 0.15297 0.19136 -0.145519 -0.970673 
-0.0237784 0.597371 0.171968 -0.0724694 -0.0944553 -0.992888 
0.25186 -0.274678 0.158304 -0.620253 0.125385 -0.774316 
0.0946161 -0.799245 0.0555438 -0.00956101 0.985099 0.171725 
-0.250976 0.212552 0.0194519 0.993029 0.0653877 -0.0980697 
0.145283 -0.00247936 -0.170815 0.00410446 -0.00473796 0.99998 
0.066193 -0.650853 -0.182315 -0.015905 -0.00667858 0.999851 
-0.0742364 0.188302 -0.160776 0.0992578 0.00768393 0.995032 
-0.105643 0.712822 -0.164422 -0.0613957 -0.0687366 0.995744 
0.244689 -0.565969 0.162284 -0.501171 -0.115289 -0.857634 
0.211349 0.29107 -0.166553 -0.289581 0.0667508 0.954823 
0.0936031 0.459116 0.177166 -0.0159754 0.0794025 -0.996715 
0.00456881 0.817935 0.082995 -0.760717 0.01801 -0.648834 
-0.111318 -0.229988 -0.155639 0.161229 -0.00702331 0.986892 
-0.00600868 1.0372 0.103881 0.0808219 -0.264868 -0.960892 
-0.133965 0.45512 0.163875 0.0607988 0.180232 -0.981743 
0.0864915 0.21972 -0.169868 0.0292201 0.00867627 0.999535 
0.254674 0.118123 0.112319 -0.944127 -0.091056 -0.316755 
0.0091341 -0.54083 0.168754 0.0258458 -0.164089 -0.986107 
-0.184115 -0.0359479 0.136058 0.451207 -0.00632617 -0.892397 
-0.109983 0.127724 -0.155984 0.154897 0.00554963 0.987915 
-0.00896894 -0.735737 0.182834 0.0745964 -0.0822593 -0.993815 
-0.174537 0.117151 -0.140218 0.384189 0.00560495 0.923237 
-0.241644 -0.720569 0.157009 0.443237 0.00747153 -0.896373 
-0.223064 0.80957 0.110035 0.706004 -0.276342 -0.652069 
-0.23529 -0.45292 0.0894672 0.876965 0.0468522 -0.478264 
-0.0286522 0.864535 0.118126 -0.537517 -0.000157596 -0.843253 
-0.248473 0.0603507 0.0442367 0.98646 0.000255917 -0.164 
-0.0737167 0.235155 0.160861 0.0950226 0.00591051 -0.995458 
-0.0723081 -0.485978 0.160603 0.120072 0.00410256 -0.992757 
0.215876 0.12436 0.166205 -0.425016 -0.0365403 -0.904448 
-0.170289 0.95377 0.00555945 0.705922 -0.708112 -0.0158607 
-0.139895 -0.802021 0.0891142 -0.107795 0.933137 0.342982 
0.059433 -0.837331 -0.179649 -0.00858476 0.983266 0.181975 
0.268974 -0.509114 0.0374898 -0.966656 -0.23173 -0.108987 
0.129029 -0.316108 0.170769 -0.0095397 0.00388549 -0.999947 
-0.267208 0.781968 -0.0275471 0.952759 -0.277781 0.122831 
0.271568 -0.481208 -0.0307742 -0.998132 -0.027089 0.0547549 
0.257019 0.498544 0.0699355 -0.660867 -0.738556 -0.133379 
-0.217701 0.706252 0.144549 0.470756 -0.16055 -0.867533 
0.0264512 -0.158286 -0.167796 0.0487329 -0.00288647 0.998808 
0.088221 0.0839679 -0.169904 0.0218137 0.000958746 0.999762 
-0.0863114 -0.837194 0.176542 -0.0344565 0.986524 -0.159946 
0.172827 -0.802855 0.0782979 0.0926575 0.952446 0.290277 
-0.296226 0.649578 -0.0261592 0.985039 -0.136481 0.105219 
-0.116129 -0.0526651 0.155016 0.165083 0.00930888 -0.986236 
0.164848 0.178149 0.170333 -0.00836771 -0.0381424 -0.999237 
-0.0944694 0.875371 -0.124258 -0.0206745 -0.330706 0.943507 
-0.23561 -0.147501 0.088442 0.881129 -0.00678529 -0.472827 
-0.20018 0.90875 0.0725527 0.67565 -0.595082 -0.435172 
0.307606 0.446834 -0.0873185 -0.77459 -0.54642 0.318491 
-0.0266489 0.865487 -0.117717 -0.309962 -0.128482 0.942028 
0.266259 -0.0284894 -0.117964 -0.928944 0.0123052 0.370016 
-0.0235788 0.725022 -0.136187 -0.525807 -0.190325 0.829038 
0.00563311 -0.245432 0.166805 0.0499165 -0.00253256 -0.99875 
-0.10884 -0.687044 0.180167 0.0660946 0.0725105 -0.995175 
0.0461707 -0.831739 0.133146 -0.0135457 0.969736 0.243781 
0.108345 0.627436 -0.097552 -0.624382 -0.65533 0.425077 
0.247391 -0.817406 0.0657621 0.357763 0.903138 0.237375 
0.0994192 0.15448 -0.170186 0.0388349 0.00218121 0.999243 
0.0133703 -0.0910017 -0.16721 0.0529283 -0.00236004 0.998596 
-0.17242 0.106385 0.141016 0.391235 -0.0102164 -0.920234 
0.0782284 -0.327149 -0.169614 0.030291 -0.00166919 0.99954 
0.0416805 0.76694 0.0485386 -0.905607 -0.207865 -0.369687 
-0.17012 0.866962 0.126974 0.424947 -0.389129 -0.817312 
0.23849 0.524683 0.00950579 -0.716631 -0.696865 -0.0286299 
-0.297819 -0.836855 -0.0730708 0.65631 0.747901 0.0995063 
0.0930877 -0.191146 -0.170002 0.00694551 8.90265e-05 0.999976 
0.260152 0.282131 0.149225 -0.619318 0.318343 -0.717707 
0.0302087 0.881984 -0.0875689 -0.650558 0.15927 0.742568 
-0.246529 -0.0722379 0.0549253 0.971208 0.00299415 -0.238213 
0.25971 0.173499 0.0639636 -0.969196 -0.20191 -0.141037 
0.219365 -0.730405 -0.168971 -0.174544 -0.0489797 0.98343 
-0.275874 0.407235 -0.134547 0.575731 0.222325 0.786833 
0.320157 0.386767 0.0712807 -0.969357 -0.126874 -0.210359 
-0.236487 -0.0112068 0.0866301 0.890292 0.0117807 -0.455239 
0.323666 -0.686406 -0.0584612 -0.98142 0.0716837 0.177981 
-0.0631222 -0.16022 0.161843 0.0920428 -0.00300287 -0.995751 
-0.179973 -0.370326 -0.137773 0.431472 -0.0025265 0.902123 
0.323557 0.313423 0.0592834 -0.92321 0.366258 -0.116354 
0.317679 -0.757827 0.0878948 -0.948545 -0.20405 -0.242126 
0.0985494 -0.624074 0.181254 -0.0399144 -0.0341797 -0.998618 
-0.0460624 -0.269424 -0.163374 0.0806473 2.90736e-05 0.996743 
-0.218804 -0.810295 0.165268 0.381527 0.338392 -0.860191 
0.159727 0.452076 0.172933 -0.0661295 0.0626434 -0.995843 
-0.257499 0.754138 0.0892431 0.84725 -0.257155 -0.4648 
0.211319 -0.383641 -0.166386 -0.266299 -0.00776666 0.963859 
-0.0173785 1.12474 0.044229 0.56598 -0.740896 -0.36158 
0.245673 -0.451477 -0.154279 -0.726209 0.0451166 0.685992 
-0.239588 -0.094451 -0.0793256 0.917737 0.00498322 0.397158 
-0.186381 -0.15386 -0.135054 0.490223 -0.00501846 0.871583 
0.136803 -0.36407 -0.17077 0.00197204 -0.00340284 0.999992 
0.0721267 0.894148 -0.0321282 -0.899144 0.353598 0.257892 
0.142193 -0.532164 -0.172387 -0.0192262 -0.07397 0.997075 
-0.285448 0.327472 0.0731155 0.758343 0.506761 -0.410011 
-0.0883288 -0.79934 0.03985 -0.0210692 0.99824 -0.0554408 
-0.18271 0.770483 0.147438 0.361965 -0.164237 -0.91761 
0.265545 -0.383747 0.106386 -0.954454 0.0218535 -0.297555 
0.0320986 1.14591 -0.0421916 -0.167749 -0.963774 0.207365 
0.285593 -0.316567 0.0022413 -0.99924 0.0388636 -0.00294048 
-0.294856 -0.779562 -0.107479 0.888966 -0.0520505 0.455006 
0.0266804 0.788422 -0.0886729 -0.875897 0.0395575 0.480873 
-0.0158565 -0.796322 0.0249442 -0.0352265 0.998664 -0.0378057 
0.096603 0.66643 -0.0412817 -0.684387 -0.700995 0.200549 
-0.25141 -0.512483 -0.00963339 0.998082 -0.0533096 -0.0314687 
-0.196317 0.299809 0.130322 0.467604 0.102942 -0.877923 
-0.0192199 0.106653 -0.165356 0.0665736 0.00238448 0.997779 
-0.229011 0.364553 0.133229 0.284204 0.324266 -0.902264 
-0.0875704 -0.79925 -0.0332078 -0.0593555 0.997512 0.0380279 
-0.310302 0.434097 -0.0340954 0.996599 -0.0593646 0.057155 
-0.0301811 -0.468074 -0.164523 0.0955386 0.00844735 0.99539 
-0.0239888 0.801497 -0.134874 -0.442773 -0.156888 0.882802 
-0.0761942 0.955331 -0.113343 0.289442 -0.205491 0.934878 
0.31679 -0.62844 0.0911789 -0.909631 -0.172621 -0.377854 
-0.134273 -0.074203 -0.151555 0.227665 -0.00387752 0.973732 
-0.00744976 0.372849 -0.166103 0.044327 -0.00183849 0.999015 
-0.183079 0.410514 0.150925 0.0467139 0.201316 -0.978412 
-0.205007 -0.312952 0.123978 0.608213 -0.00269361 -0.793769 
0.269089 0.1111 0.0413768 -0.992362 -0.0623951 -0.106412 
0.139309 -0.0692485 -0.170778 0.00553823 0.00113842 0.999984 
-0.193837 0.443582 -0.160378 0.0892909 0.191316 0.977459 
-0.301963 0.559257 0.0503103 0.978731 -0.0885461 -0.185057 
0.238436 -0.828378 -0.0968234 0.196251 0.956578 -0.215509 
-0.0935229 0.473278 -0.168736 0.0343251 0.174878 0.983992 
-0.0691774 -0.541017 -0.160956 0.125719 -0.178229 0.975925 
0.257106 -0.198843 -0.151219 -0.743075 -0.0180361 0.668965 
-0.22921 0.641004 -0.148061 0.463135 -0.107798 0.879708 
-0.209556 0.0245434 -0.120814 0.630453 0.00471583 0.776213 
0.159141 -0.454503 -0.170426 0.00248924 0.00487851 0.999985 
0.246236 -0.0419763 0.159805 -0.586018 0.0223527 -0.80999 
-0.0756846 0.486157 0.172451 0.0384433 0.113273 -0.99282 
0.027174 0.721429 -0.0867942 -0.81775 -0.290952 0.49662 
0.148664 -0.238888 0.170704 0.00757655 -0.00723051 -0.999945 
0.186168 -0.484975 0.169152 -0.0794369 0.0113356 -0.996775 
0.0646267 0.98058 -0.0870372 -0.60495 0.136331 0.784506 
0.278445 -0.315741 -0.0702251 -0.987233 0.0300026 0.156434 
0.256157 0.135036 -0.100372 -0.960978 -0.162524 0.223848 
-0.153012 -0.837536 0.176328 0.0946669 0.931602 -0.350936 
0.0664715 -0.215472 0.169274 0.0378371 0.00305699 -0.999279 
0.247569 0.234731 0.10391 -0.943009 0.304811 -0.133506 
-0.162371 -0.440392 -0.144335 0.335149 0.0195464 0.941962 
-0.312221 0.375894 0.00845261 0.992597 0.118088 -0.0284036 
-0.308724 -0.837218 -0.00362324 0.6285 0.772551 0.0902878 
0.196737 -0.803133 0.00875031 0.165452 0.984119 -0.0643059 
0.247552 0.237767 -0.113258 -0.824983 0.366508 0.430203 
0.147493 -0.404093 0.170671 0.0113515 -0.00331158 -0.99993 
0.175508 0.566643 0.0940661 -0.642073 -0.709003 -0.291644 
-0.248427 0.128026 0.0445962 0.984677 -0.00163462 -0.174379 
-0.0547751 0.275191 -0.162728 0.0866986 0.00906347 0.996193 
0.00270723 -0.220867 -0.166654 0.0563513 -0.00518215 0.998398 
-0.253768 0.724094 -0.109316 0.777689 -0.219281 0.589166 
0.286409 -0.562461 0.0900055 -0.838934 -0.467082 -0.279327 
-0.235566 0.176972 0.0884872 0.886457 -0.00925865 -0.462719 
0.0489713 1.09629 -0.0871799 -0.271743 -0.340907 0.899965 
-0.0588603 1.07219 0.060309 0.600049 -0.572274 -0.558967 
-0.0282333 0.604855 -0.171588 -0.0549708 -0.0970565 0.99376 
-0.0245359 -0.837253 -0.182299 0.157467 0.978759 0.131285 
0.274791 0.485249 -0.0398224 -0.680317 -0.728453 0.0807763 
0.00717246 0.0941642 0.166907 0.0537898 0.0035352 -0.998546 
0.3184 -0.837461 -0.0793317 -0.49388 0.84646 0.19897 
-0.150926 0.00836407 -0.147658 0.280724 0.000165559 0.959788 
-0.167044 0.658202 -0.164853 0.158459 -0.0614261 0.985453 
0.203453 -0.505678 -0.167399 -0.228196 0.0337623 0.97303 
0.0517927 1.13206 0.0750129 -0.199286 -0.733526 -0.649788 
0.0749933 0.385743 -0.169569 0.0604028 0.0114598 0.998108 
0.0430886 -0.796837 -0.0295456 -0.00145333 0.999766 0.0215631 
0.193499 0.279992 0.168474 -0.108056 0.0337386 -0.993572 
0.0895978 0.593608 -0.153191 -0.386064 -0.513307 0.766466 
-0.310623 0.486037 0.0112353 0.999114 -0.0236394 -0.0348123 
-0.00570751 0.0238877 0.16619 0.0578883 0.000372604 -0.998323 
-0.0945529 0.778174 -0.158092 -0.133717 -0.168033 0.97667 
0.301356 0.342269 0.12295 -0.785366 0.0738262 -0.614613 
0.251216 0.480849 0.14107 -0.616543 -0.550297 -0.56307 
0.000304911 0.662989 -0.153862 -0.352909 -0.387073 0.851839 
0.0625707 0.996873 0.0912036 -0.547433 0.0642686 -0.834378 
0.00692007 0.228785 0.166894 0.0564718 0.00604765 -0.998386 
0.164693 0.602437 0.00308944 -0.725916 -0.687524 -0.0188914 
-0.0771405 0.408792 -0.160424 0.124332 0.0794788 0.989052 
-0.171457 0.172995 0.141384 0.389585 0.0306439 -0.920481 
0.0401548 -0.0204248 -0.168372 0.0456564 -0.000478188 0.998957 
0.283222 -0.0181218 0.0058415 -0.997115 -0.0711672 -0.0264057 
-0.242309 0.272522 0.072051 0.827114 0.314282 -0.46595 
-0.2507 0.0586589 -0.0250869 0.995725 0.00763413 0.0920503 
0.257006 0.238248 0.0318561 -0.916665 0.379136 -0.126413 
0.0331534 0.878228 0.0832668 -0.661491 0.339926 -0.668491 
0.327233 0.371078 0.00513832 -0.998555 -0.00454664 -0.0535399 
0.287119 -0.592403 -0.13884 -0.721743 -0.251544 0.644835 
-0.0789903 0.638707 0.169642 -0.0223268 -0.0914001 -0.995564 
-0.198065 -0.607121 0.157323 0.273208 -0.343631 -0.898485 
-0.306609 -0.715261 0.070305 0.9756 0.0113245 -0.219264 
-0.23482 -0.773028 -0.159663 0.438271 -0.0790425 0.895361 
0.233718 -0.131262 -0.162588 -0.450382 -0.0437923 0.891762 
-0.0763886 -0.803925 0.111368 -0.0444508 0.904228 0.424729 
-0.107134 -0.477681 -0.156075 0.154937 0.0412895 0.987061 
-0.231341 0.19002 -0.0963478 0.851838 -0.0135836 0.523629 
-0.0186025 -0.837307 0.179445 -0.0336138 0.96672 -0.25362 
-0.0873481 0.843606 0.153566 -0.181676 -0.242648 -0.952951 
-0.17056 0.581175 -0.16892 0.141126 -0.079876 0.986764 
-0.257029 0.303081 -0.0791977 0.724227 0.411884 0.553034 
0.235903 0.0138423 -0.162355 -0.524117 -0.00931186 0.851595 
-0.109464 -0.60139 -0.174348 0.10677 -0.224492 0.968609 
0.173123 -0.168283 -0.169895 -0.0186776 0.0323656 0.999302 
-0.244983 -0.161921 -0.0622468 0.957802 -0.0111417 0.287213 
-0.29705 0.386974 0.102513 0.834919 0.209912 -0.50877 
-0.147686 -0.837432 -0.175691 -0.0741121 0.993975 0.0807539 
-0.236998 -0.0284497 -0.0858217 0.891972 0.0121134 0.451929 
0.0871151 -0.800056 -0.105082 0.00484022 0.925952 -0.377611 
0.289988 -0.558505 -0.0457563 -0.850309 -0.503973 0.151611 
-0.118359 0.251716 -0.154728 0.178477 -0.00738941 0.983916 
0.0795083 0.0158039 0.16968 0.0269856 -0.000295846 -0.999636 
-0.0536337 -0.000364639 -0.162763 0.0796437 0.00115292 0.996823 
0.280815 -0.0788936 0.0572431 -0.989811 -0.0263096 -0.139933 
0.26968 0.406042 -0.147039 -0.524719 -0.11327 0.843706 
0.174528 -0.0893392 0.169885 -0.0499405 0.0278212 -0.998365 
0.0235161 1.02996 -0.104542 -0.173179 -0.139292 0.974991 
0.265088 -0.454994 0.0880152 -0.988132 0.0979684 -0.118313 
-0.25094 -0.00391118 0.0201325 0.997723 0.00304578 -0.067369 
0.185648 0.517681 0.160555 -0.419917 -0.498944 -0.758106 
-0.293691 0.318318 -0.0216134 0.886868 0.444745 0.125168 
-0.0753272 0.0641212 -0.160572 0.104373 -0.00464477 0.994527 
0.181191 -0.83747 0.174044 0.124521 0.943579 -0.306843 
0.0772249 0.685571 0.0445244 -0.760261 -0.608401 -0.227709 
0.0108241 -0.0407017 0.167093 0.051743 0.00100797 -0.99866 
-0.227427 -0.221287 0.102243 0.804384 0.00845474 -0.59405 
0.268887 -0.144095 0.115938 -0.919063 -0.0680667 -0.388189 
-0.1483 0.38861 -0.148462 0.0793969 0.141838 0.986701 
0.124951 1.09056 0.045905 -0.836531 -0.29337 -0.462764 
0.202965 -0.583362 -0.172193 -0.190114 -0.0554059 0.980197 
-0.307796 0.371644 -0.0642679 0.934013 0.261938 0.242915 
-0.199363 0.267527 -0.12798 0.546079 0.0339075 0.837047 
-0.280286 0.738535 0.0215091 0.965685 -0.24618 -0.0827482 
0.195736 0.463389 -0.166538 -0.300173 -0.0797049 0.950549 
-0.192462 0.802354 -0.136232 0.486443 -0.219102 0.845794 
0.102232 -0.258724 -0.170211 0.0046775 -0.01187 0.999919 
0.277425 0.00775432 -0.0578408 -0.990899 -0.0734522 0.112802 
0.192663 -0.163207 0.16869 -0.0862176 -0.0663163 -0.994067 
-0.238767 -0.807195 -0.0378954 -0.361637 0.914859 -0.179585 
-0.187857 -0.681153 0.172113 0.149571 -0.0131762 -0.988663 
0.195459 -0.24541 -0.168383 -0.0513475 -0.0324709 0.998153 
-0.276155 -0.614189 0.0876078 0.834865 -0.494454 -0.241901 
0.118491 -0.799739 -0.00746936 0.0257699 0.999664 -0.00272829 
-0.197174 -0.104687 0.129078 0.546483 -0.00233223 -0.837467 
0.124998 0.231999 0.170734 -0.0092568 0.0165468 -0.99982 
-0.311185 -0.767342 -0.0345035 0.997413 -0.0420155 0.0583325 
-0.21343 0.91651 -0.0284427 0.718354 -0.659238 0.2222 
0.246102 0.0798425 -0.148405 -0.724727 -0.0900851 0.683122 
0.162489 -0.564468 0.176648 -0.0511907 -0.0435451 -0.997739 
-0.192399 -0.833436 -0.123951 -0.19858 0.947719 -0.249791 
0.0545825 0.71801 -0.0159262 -0.869668 -0.466113 0.162529 
0.293023 0.2766 -0.0244253 -0.78608 0.616306 -0.0473865 
-0.100602 0.582852 -0.172617 0.0202101 -0.0493521 0.998577 
-0.269514 -0.586699 -0.018334 0.885407 -0.464317 -0.0215428 
0.274208 -0.63582 0.147944 -0.581367 -0.048883 -0.812172 
0.214585 0.411794 0.167741 -0.146302 0.0213905 -0.989009 
-0.109434 0.763271 0.160781 -0.0471464 -0.0445032 -0.997896 
0.267199 0.149146 -0.014952 -0.988055 -0.139677 0.0650948 
0.278693 -0.193563 -0.0795465 -0.991037 -0.00589579 0.13346 
-0.00346805 0.218469 -0.166359 0.0587837 0.00423994 0.998262 
0.06506 -0.70661 0.182296 -0.0304889 0.0119823 -0.999463 
-0.179561 0.194295 -0.138192 0.414561 -7.03431e-05 0.910022 
0.131325 1.08889 -0.0339518 -0.838011 -0.365303 0.405328 
-0.167082 0.553363 0.170835 0.112993 -0.00952256 -0.99355 
0.0913798 -0.446852 0.169939 0.0250856 6.07894e-05 -0.999685 
0.257491 0.216514 -0.0492035 -0.974602 0.201167 0.0984056 
-0.173816 0.867217 -0.124805 0.370608 -0.498078 0.783944 
-0.075181 0.313733 0.160693 0.108242 -0.0209722 -0.993903 
0.123372 -0.613917 -0.180214 -0.038552 -0.0448362 0.99825 
0.300972 -0.699263 0.122206 -0.811224 0.0569633 -0.581954 
0.0392514 0.553297 0.173104 -0.0335718 -0.156392 -0.987124 
0.265487 -0.440243 -0.0907519 -0.982312 0.0791212 0.169715 
-0.0471483 1.02912 -0.0971939 0.352878 -0.391782 0.849696 
-0.28487 0.56384 -0.105187 0.868768 -0.0798704 0.488736 
-0.229712 0.615789 0.151054 0.457711 -0.111838 -0.882039 
-0.223159 0.858911 -0.0790191 0.783297 -0.406293 0.470501 
0.0255025 0.0482047 -0.167794 0.0461131 0.00160225 0.998935 
0.306966 0.451282 0.0546529 -0.835865 -0.527878 -0.150583 
-0.061658 -0.557352 0.166741 0.113651 -0.219319 -0.969011 
-0.131222 -0.118331 0.152158 0.204389 -0.00246826 -0.978887 
0.0792311 1.11871 0.00380766 -0.429288 -0.903155 0.00480621 
-0.0799299 -0.416446 0.15972 0.103627 -0.00598254 -0.994598 
-0.282536 0.49583 0.12132 0.801397 -0.119389 -0.586097 
-0.0304849 1.12427 -0.0221188 0.620897 -0.768947 0.152339 
-0.216701 0.506474 0.162368 0.241811 0.00569131 -0.970307 
-0.186519 -0.604591 -0.160201 0.305854 -0.329489 0.893247 
-0.167443 -0.303773 -0.142784 0.362965 -0.0103934 0.931745 
-0.0717881 0.155254 0.16101 0.08564 0.00452177 -0.996316 
0.286243 -0.222886 -0.0163104 -0.998155 -0.00856972 0.0601035 
-0.269925 -0.719354 -0.141165 0.672195 0.0186415 0.74014 
-0.115325 -0.601482 0.173688 0.131187 -0.235084 -0.963081 
0.0884115 0.103457 0.16991 0.033158 0.0060827 -0.999432 
-0.0419368 -0.798932 -0.101703 0.0815812 0.950854 -0.298698 
0.171523 0.52516 -0.163528 -0.398484 -0.482704 0.779877 
-0.279479 0.632077 -0.100717 0.868589 -0.13061 0.47801 
-0.0673591 -0.769051 0.181547 0.139336 -0.262002 -0.954956 
0.167837 0.567383 -0.105762 -0.598451 -0.725883 0.339042 
0.127574 -0.837407 -0.17815 -0.0704546 0.948566 0.30864 
-0.249978 -0.362511 -0.0311466 0.991731 -0.03104 0.124526 
0.0982494 0.955018 -0.0187611 -0.928748 0.337859 0.152574 
-0.1398 -0.663683 -0.178138 0.0592669 -0.00686029 0.998219 
-0.207434 0.229988 0.122222 0.658846 -0.0183228 -0.752055 
0.0233405 0.714139 0.0988892 -0.701766 -0.384999 -0.599417 
0.0630864 -0.289636 0.169162 0.0367249 -0.00579638 -0.999309 
0.24473 -0.452428 0.15665 -0.710007 0.0723462 -0.700469 
0.163728 0.23658 -0.170319 -0.098645 0.014191 0.995021 
0.247276 0.0582613 0.150595 -0.756252 -0.11795 -0.643561 
0.278182 -0.298001 0.077818 -0.983813 0.0697479 -0.165066 
0.0252339 0.437491 -0.167757 0.0216063 0.0808779 0.99649 
-0.248078 -0.341215 0.0467173 0.980244 -0.0212167 -0.196651 
-2.25132e-05 -0.35717 0.166489 0.0586259 -0.00623514 -0.998261 
-0.257986 -0.837404 -0.14642 0.419053 0.671643 0.610975 
-0.303663 -0.705302 -0.0842945 0.951715 -0.0194492 0.306365 
-0.199766 0.715191 -0.150851 0.372819 -0.133906 0.918191 
-0.241669 0.857404 0.0294171 0.923913 -0.347344 -0.160427 
0.203104 -0.620183 0.172282 -0.168143 0.0324527 -0.985228 
0.291553 0.287972 -0.104758 -0.776787 0.480616 0.406952 
-0.226305 -0.4589 -0.104223 0.767357 0.0237986 0.640778 
0.316626 -0.582986 0.0140218 -0.892497 -0.450966 -0.00889971 
-0.153513 0.505616 -0.174161 0.0604688 0.100666 0.993081 
-0.250234 -0.291151 -0.0294052 0.994169 0.00996095 0.107368 
-0.2242 0.0694328 0.10648 0.770581 -0.00137724 -0.637341 
-0.220217 -0.537006 0.112269 0.742601 -0.222023 -0.631863 
-0.00464626 -0.474872 0.166202 0.0428615 0.00817175 -0.999048 
0.222035 -0.0582492 -0.165074 -0.36719 0.0114411 0.930076 
0.162323 -0.675421 0.177402 -0.11447 0.015134 -0.993311 
-0.312746 -0.708286 -0.00187478 0.999532 0.0241559 -0.0187804 
-0.303619 0.512893 -0.0638641 0.974643 -0.0757661 0.210547 
0.300595 -0.667525 -0.123572 -0.800953 0.079344 0.593446 
0.11566 0.389847 0.170545 -0.0163359 0.0279105 -0.999477 
-0.254785 -0.594292 -0.104681 0.735197 -0.444738 0.511559 
0.246597 0.499488 -0.10166 -0.669696 -0.673273 0.313386 
-0.0202001 -0.583953 -0.177549 0.054039 -0.156371 0.986219 
0.141757 0.0638354 0.170862 0.0114717 0.0181703 -0.999769 
-0.263898 0.473822 -0.141306 0.56484 -0.106378 0.818315 
-0.234526 -0.666073 -0.159827 0.461717 -0.188268 0.866818 
0.0204066 -0.71892 -0.182929 0.0164335 -0.0440149 0.998896 
-0.00744458 0.948665 -0.117553 -0.211286 0.0220349 0.977176 
0.281236 -0.737444 -0.14283 -0.64129 -0.0981314 0.760997 
-0.143476 -0.731386 -0.177765 -0.0390935 -0.096157 0.994598 
0.308039 0.362343 -0.111239 -0.818941 0.0760518 0.568816 
0.0893033 -0.115312 0.169917 0.0252047 -0.00556888 -0.999667 
0.314966 -0.837535 0.0940405 -0.481232 0.873918 -0.0684388 
0.0950341 -0.421229 -0.170027 0.0213296 0.00111265 0.999772 
0.317756 -0.750493 -0.0878457 -0.93628 -0.153807 0.315791 
-0.172684 -0.399 0.140752 0.390097 -0.0135902 -0.920674 
0.228932 -0.644427 -0.16663 -0.258713 0.0137241 0.965857 
0.0644689 -0.483448 -0.169191 0.0287149 -0.0181468 0.999423 
-0.21768 -0.538385 -0.114504 0.652028 -0.208607 0.728933 
0.246267 -0.836259 0.160913 -0.320533 0.812595 -0.486773 
-0.133914 0.983579 -0.0565123 0.730891 -0.494777 0.4701 
-0.15094 -0.540114 -0.147471 0.270503 -0.193958 0.942979 
-0.0699211 -0.661477 -0.18173 0.037825 0.0418288 0.998409 
-0.0739148 -0.3448 -0.160542 0.0906113 0.00490116 0.995874 
-0.0749153 0.0173188 0.160603 0.0969358 0.00824483 -0.995256 
0.133413 0.427313 -0.172727 -0.0128519 0.0322675 0.999397 
0.227828 0.346467 0.164266 -0.210938 -0.0189968 -0.977315 
-0.108078 -0.243977 0.156075 0.158313 0.00547266 -0.987374 
-0.27194 0.681437 0.0963439 0.855808 -0.163098 -0.490909 
-0.163504 0.63238 0.167072 0.126972 -0.0796497 -0.988703 
-0.251193 -0.139715 0.0146945 0.998227 0.00122546 -0.0595141 
-0.137794 0.262969 0.150925 0.232212 -0.00816797 -0.972631 
0.325194 0.329364 -0.0499263 -0.956708 0.271587 0.104647 
-0.14125 0.701386 0.16421 0.0822044 -0.0725931 -0.993968 
0.252307 -0.197608 0.158153 -0.623579 -0.130519 -0.770788 
0.123834 -0.823471 0.127382 0.0279402 0.960083 0.278316 
-0.266105 0.562599 0.130757 0.719674 -0.0924859 -0.688125 
-0.296983 -0.775721 0.102491 0.909472 -0.120876 -0.397806 
0.0581652 1.06496 0.0910783 -0.302414 -0.0855122 -0.949333 
-0.253995 -0.643334 0.150524 0.580254 -0.264884 -0.770157 
0.327599 -0.781923 0.00461665 -0.995539 0.0525549 -0.0783614 
0.0424329 0.787697 -0.0220442 -0.994343 0.0303285 0.101797 
-0.139289 -0.770315 0.178151 -0.020289 -0.277318 -0.960564 
-0.100137 0.564396 0.173852 0.0267885 -0.0197935 -0.999445 
0.110373 -0.0481575 0.170417 0.0141689 -0.000580973 -0.999899 
0.0035171 -0.798174 0.0946237 0.174537 0.906275 0.38497 
-0.242478 0.793832 -0.0921849 0.810671 -0.291666 0.507684 
0.116872 1.01164 0.02391 -0.908429 0.339912 -0.243346 
0.0139436 0.552694 -0.174059 -0.0583747 -0.0708057 0.995781 
-0.0114452 -0.60254 0.182876 0.0188941 -0.135431 -0.990607 
0.0856379 -0.125125 -0.169829 0.0248171 -0.00159226 0.999691 
0.0220645 -0.810851 -0.118641 -0.0206245 0.88614 -0.462958 
-0.0883463 0.337893 -0.159119 0.151004 -0.0243326 0.988234 
-0.301064 -0.636853 0.0157114 0.912618 -0.404456 -0.0595305 
-0.113883 -0.809631 -0.113385 -0.219293 0.940151 -0.26082 
0.00088837 0.658246 0.156211 -0.340111 -0.349519 -0.873018 
-0.272254 -0.837298 0.134741 0.496354 0.516042 -0.698093 
0.254613 -0.291396 -0.157314 -0.686602 0.02276 0.726678 
0.287316 -0.834051 -0.00827011 0.111407 0.982473 -0.149451 
-0.120817 1.02681 -0.00204169 0.811468 -0.584392 0.00254376 
-0.0773808 0.650242 -0.168973 -0.0441369 -0.099994 0.994009 
-0.25692 0.42867 0.148 0.411219 0.145802 -0.8998 
0.280201 -0.221646 0.0743773 -0.991819 -0.00807323 -0.127394 
0.0477223 -0.775494 0.182618 -0.125349 0.0630901 -0.990105 
0.129627 0.624876 0.0625715 -0.678463 -0.686402 -0.261801 
0.0939019 0.321036 -0.170061 0.046163 -0.000177707 0.998934 
0.252412 -0.510644 0.124798 -0.913397 -0.116293 -0.390104 
-0.308783 0.430264 0.0514297 0.99354 -0.0557865 -0.0988223 
0.172532 0.00281663 0.17002 -0.0249685 0.00847644 -0.999652 
0.276616 0.0523498 0.00752121 -0.995486 -0.08916 -0.0325439 
0.00814866 -0.667374 0.183015 0.0152282 0.0252807 -0.999564 
-0.0538655 -0.0815149 0.162715 0.0893677 0.00162081 -0.995997 
0.00739075 -0.384307 -0.166926 0.0597322 -0.00711342 0.998189 
0.168856 -0.802564 -0.0672188 0.205407 0.966478 -0.154041 
-0.0666787 1.07274 -0.049666 0.658787 -0.589245 0.467749 
0.0471537 0.841348 0.0294806 -0.90728 0.298359 -0.296352 
0.00674908 0.389914 0.166879 0.084785 0.0269583 -0.996035 
-0.194772 -0.0572407 -0.130446 0.518692 -8.63773e-05 0.854961 
0.279259 -0.11365 -0.0703469 -0.985283 -0.0121151 0.170502 
0.0635191 -0.770489 -0.182353 -0.0966501 -0.182819 0.978384 
0.244046 -0.696696 0.162534 -0.320545 0.0173951 -0.947074 
-0.163827 0.321668 -0.143881 0.264137 0.0188696 0.9643 
0.273705 -0.257 -0.103717 -0.981971 0.00256668 0.189014 
0.0137807 0.46579 0.171855 0.0726766 0.0932071 -0.992991 
0.0957796 1.04692 -0.0718453 -0.584806 0.0603531 0.808925 
-0.15985 -0.473079 0.144924 0.312708 0.0238114 -0.949551 
0.196338 -0.31507 0.168224 -0.110453 0.0691385 -0.991474 
-0.050506 -0.289835 0.162985 0.0853248 -0.00133573 -0.996352 
-0.225182 0.358492 -0.131017 0.280526 0.350593 0.893526 
-0.0369272 0.715035 0.148027 -0.407264 -0.218133 -0.886879 
0.00204227 0.958792 0.115735 -0.22187 -0.0199211 -0.974873 
-0.181469 -0.235652 -0.137141 0.430615 0.00220898 0.902533 
0.276499 -0.388019 -0.0496754 -0.98705 0.0937902 0.130138 
0.268131 0.0575896 0.0822903 -0.98505 -0.10677 -0.13519 
-0.248127 0.234906 -0.0453549 0.962864 0.1446 0.228001 
-0.0757042 1.01406 0.0901177 0.475605 -0.41081 -0.77784 
-0.306661 -0.837536 0.068155 0.731641 0.666065 -0.145117 
0.262638 -0.366674 -0.120944 -0.917593 0.105842 0.383172 
0.0477977 -0.548265 -0.172496 0.00927936 -0.117406 0.993041 
0.0896078 0.515775 -0.173198 0.000500018 -0.0819519 0.996636 
-0.0379114 0.795277 0.140687 -0.61707 -0.126215 -0.77672 
-0.10483 0.947932 0.104683 0.348214 -0.426339 -0.834854 
-0.149515 0.922798 -0.0858985 0.450101 -0.555974 0.698786 
-0.178986 -0.249049 0.138173 0.401899 -0.00274354 -0.91568 
-0.231482 -0.313703 -0.0961674 0.845603 0.00162169 0.53381 
-0.28209 0.711329 -0.0482596 0.9568 -0.207783 0.203371 
-0.301067 -0.641304 -0.0555531 0.925565 -0.338769 0.16901 
0.203515 0.555336 -0.0502108 -0.688391 -0.706863 0.162675 
