ply
format ascii 1.0
element vertex 500
property float x
property float y
property float z
property float nx
property float ny
property float nz
end_header
0.343187 0.811296 0.206817 0.422863 -0.632014 0.649419 
0.29537 0.707092 0.177284 0.843472 -0.403534 0.354565 
0.324267 0.864015 0.299953 0.795817 -0.501531 0.339327 
0.412369 0.496472 0.210088 -0.403151 0.477852 -0.780466 
0.552445 -0.4773 -0.220977 -0.696254 0.374198 0.612541 
0.61469 -0.0182315 -0.115738 -0.352669 -0.301555 0.885827 
0.210152 -0.138371 0.065585 -0.0591225 -0.237039 -0.9697 
0.274456 -0.805226 -0.00350579 -0.269619 0.743569 -0.611892 
0.36711 0.122876 -0.149764 -0.84406 -0.155819 0.513111 
0.0502836 0.93896 0.190713 -0.137234 -0.49187 0.859785 
0.33459 -0.515835 0.130861 -0.175733 0.143855 -0.97387 
0.147265 -0.262923 -0.35622 0.00255704 -0.250021 0.968237 
0.131631 0.862715 0.222731 -0.928719 -0.093782 0.358728 
-0.00156731 0.236271 0.0985573 -0.180722 0.289202 -0.940054 
-0.175998 -0.745613 -0.48532 0.0374125 0.647614 0.76105 
-0.181002 -0.487026 -0.398179 0.238522 -0.460782 0.854861 
0.0359256 0.626249 0.019694 -0.300899 -0.374717 0.876953 
0.474609 0.543296 0.15423 -0.974063 0.181642 -0.134934 
0.0212635 0.0337019 0.0794493 -0.0486175 0.190483 -0.980486 
-0.0696377 -0.247841 -0.338402 0.193533 -0.26918 0.943444 
-0.263621 -0.283423 0.104386 -0.268395 0.0805181 -0.959938 
-0.30445 -0.192384 0.125872 -0.303546 0.179272 -0.9358 
0.336902 -0.723947 0.042586 -0.359233 0.566671 -0.741509 
0.253217 -0.01315 -0.277626 -0.247152 -0.197108 0.948717 
-0.663543 0.327665 0.251844 0.592094 0.533025 -0.604408 
-0.26757 -0.58368 0.101265 -0.124397 0.0435029 -0.991278 
0.00485116 0.420816 -0.0826247 -0.252783 -0.383742 0.888168 
-0.306488 0.88783 0.288771 0.0734288 -0.554496 0.828941 
0.622589 0.191231 -0.0206038 -0.125814 -0.350453 0.928092 
-0.0408323 -0.799058 0.0247079 0.0170943 0.499143 -0.866351 
0.0127372 0.50663 0.208359 -0.0453516 0.270655 -0.961607 
0.29343 0.756607 0.257448 0.992618 -0.11769 -0.0292907 
-0.331233 -0.48885 0.108548 -0.0983584 0.00867216 -0.995113 
-0.649116 0.285096 0.0817593 0.804872 -0.173245 0.567598 
-0.0616228 0.902418 0.30801 0.988278 0.0526944 -0.143282 
0.334014 0.0553577 -0.216579 -0.651594 -0.27327 0.707636 
0.231482 0.231526 -0.175669 0.306342 -0.537908 0.785372 
0.358586 0.0928794 0.0477735 -0.632529 0.212954 -0.744686 
-0.215927 -0.0697486 0.12529 -0.34567 0.258468 -0.902057 
-0.00463027 -0.8681 -0.18069 0.0843044 0.933812 0.34769 
-0.203058 -0.723429 0.0731344 -0.116749 0.258887 -0.958826 
0.125734 0.575794 0.128908 -0.990009 0.140064 0.0162242 
-0.139667 -0.557607 -0.446549 0.154451 -0.446179 0.881515 
0.368711 -0.519891 -0.352081 -0.494856 0.195783 0.846632 
-0.413905 -0.637237 -0.357645 0.71871 -0.344769 0.603813 
0.212088 -0.183232 -0.33094 -0.028683 -0.336281 0.941325 
0.397468 0.316705 -0.0703504 -0.765843 -0.160914 0.622569 
-0.606677 -0.270071 0.00420849 0.99363 0.107644 0.0333488 
-0.384247 0.408039 0.166424 0.959364 0.141158 -0.244326 
0.101163 -0.63844 -0.461909 -0.246748 -0.328253 0.911792 
0.317621 -0.172674 0.0548824 -0.381291 -0.367372 -0.848325 
-0.39668 -0.809921 -0.0191368 0.576022 0.582443 -0.57355 
-0.38156 0.505294 0.13785 0.910575 -0.1732 0.375307 
-0.341001 0.084057 0.152208 0.306595 -0.387464 -0.869408 
0.101163 0.428013 0.132229 -0.817914 0.143557 -0.557142 
0.352577 -0.607473 -0.341153 -0.631859 0.252114 0.732934 
0.358917 0.00771585 0.0202525 -0.545822 0.245051 -0.801267 
-0.092415 -0.725354 0.055237 -0.0778213 0.206085 -0.975435 
0.356649 -0.270618 0.0667807 -0.37499 -0.347898 -0.859273 
-0.14706 -0.217409 0.0739293 -0.268399 0.0464367 -0.962188 
0.291648 0.506166 -0.0172457 0.346668 -0.515477 0.783648 
0.45046 0.446511 0.135341 -0.864143 0.289749 -0.411464 
-0.677644 0.299902 0.168233 0.978024 0.207279 0.0224753 
-0.486018 0.274629 0.0762593 -0.758784 -0.562639 0.328153 
-0.564746 0.0415899 -0.0427915 0.437372 -0.176335 0.881823 
-0.301192 0.164436 -0.0862386 0.374507 -0.354719 0.856691 
0.396338 0.0384306 -0.102073 -0.946768 -0.207301 0.246286 
0.127221 0.153467 0.0938322 0.0456867 -0.372103 -0.927067 
-0.106981 -0.533078 0.0628754 -0.147422 -0.0372278 -0.988373 
-0.106003 0.515398 0.0355011 0.852855 -0.261149 0.452149 
0.14414 -0.205911 0.0799833 0.188546 -0.222485 -0.956531 
0.0128805 0.413626 0.190187 -0.13773 0.266493 -0.953946 
0.0982055 -0.339258 -0.37881 -0.0316182 -0.259395 0.965254 
-0.636434 0.121743 0.130588 0.835526 0.310625 -0.45322 
0.234322 -0.751803 -0.407329 -0.590755 0.326683 0.737758 
-0.0238238 0.732953 0.297664 0.336941 0.279557 -0.899065 
-0.185574 0.257986 0.150092 -0.746918 0.0244072 -0.664468 
0.396475 0.114211 -0.0337412 -0.998185 0.0523356 -0.029791 
-0.324422 -0.863278 -0.0252893 0.286225 0.827194 -0.483554 
-0.185332 0.380669 0.190783 -0.83848 0.193623 -0.509374 
0.262979 -0.457902 -0.390886 -0.10792 -0.10614 0.988477 
-0.553195 0.541374 0.339867 -0.847831 -0.194226 -0.493415 
-0.294332 -0.0904253 -0.211236 0.425576 -0.339315 0.838898 
-0.108189 -0.833341 -0.264799 0.0374625 0.94901 0.313012 
-0.609965 0.384494 0.306164 -0.140028 0.58907 -0.795857 
-0.211486 0.817844 0.31887 -0.985242 1.20657e-16 0.17117 
0.395354 0.650546 0.292399 -0.0664423 0.532888 -0.843573 
-0.00146918 -0.441845 0.061808 0.228411 -0.0542342 -0.972053 
0.5035 -0.394182 -0.292953 -0.602983 0.0392641 0.796787 
0.232913 -0.872392 -0.223233 -0.0559593 0.967722 0.245731 
-0.371274 0.804152 0.267177 0.703404 -0.322059 0.633641 
0.396941 0.180475 0.0261841 -0.892117 0.291397 -0.345276 
0.502523 -0.131261 -0.162163 -0.00816399 -0.590211 0.807208 
-0.696057 0.448103 0.231027 0.919544 -0.168283 0.355133 
-0.278405 -0.798161 0.0423024 0.0926149 0.49665 -0.862995 
0.027363 0.537004 -0.019292 -0.397062 -0.349211 0.84876 
-0.114937 0.351876 -0.0565507 0.787306 -0.362063 0.499058 
0.417591 -0.76839 -0.168366 -0.77942 0.560947 0.279003 
-0.221253 0.461886 0.245008 -0.592472 0.236078 -0.770224 
-0.13989 -0.448953 0.0677171 -0.190211 2.32941e-17 -0.981743 
-0.0726394 0.799398 0.245996 0.973549 -0.128681 -0.188796 
0.250132 0.543508 0.0650977 0.797278 -0.509397 0.323824 
0.0883326 -0.180569 -0.339074 0.0342509 -0.222757 0.974272 
-0.210846 0.15054 -0.116707 0.319082 -0.589624 0.741978 
-0.425022 -0.515406 0.103201 0.224838 0.165077 -0.960311 
-0.228858 -0.472223 0.0896886 -0.223145 -0.0594736 -0.972969 
-0.380114 0.143145 -0.0162273 0.72727 -0.446517 0.52125 
0.559653 0.136104 0.153812 0.53725 -0.141223 -0.831516 
-0.623361 0.2064 0.0297412 0.708933 -0.147893 0.689595 
-0.265664 0.26757 0.20094 -0.0578315 0.355581 -0.932854 
-0.0278294 -0.0499073 0.0679139 -0.14981 0.24052 -0.959013 
-0.445298 -0.0386234 0.166647 0.135747 -0.124762 -0.982857 
0.0410073 -0.498787 -0.42615 -0.129105 -0.292313 0.947568 
-0.0899904 -0.477248 -0.418647 0.165565 -0.382437 0.909027 
0.0486378 0.260229 -0.114545 -0.67146 -0.263267 0.692699 
0.10524 -0.00464542 -0.284147 0.113531 -0.399493 0.909679 
-0.618958 0.366525 0.10408 0.286535 -0.583659 0.759763 
-0.0795998 -0.369733 -0.377027 0.249469 -0.350154 0.902861 
0.279515 -0.268579 0.111443 -0.193596 -0.274981 -0.941757 
-0.538808 0.360558 0.248439 -0.73833 0.308229 -0.599887 
0.189327 -0.528766 0.128608 0.172468 0.0218321 -0.984773 
0.432976 0.74906 0.159475 -0.389208 -0.491906 0.77881 
-0.37545 -0.737928 0.0504806 0.364642 0.45227 -0.813934 
-0.00291613 -0.734177 -0.50198 -0.0680821 0.391382 0.917706 
-0.30477 0.676929 0.160777 0.123526 -0.49918 0.857648 
0.491572 0.782871 0.231868 -0.8571 -0.272903 0.436924 
-0.450372 -0.691705 0.0282436 0.641154 0.450348 -0.621376 
-0.468653 -0.383357 -0.2269 0.577403 -0.238515 0.780844 
0.537814 -0.589886 -0.0423199 -0.811706 0.476225 -0.338146 
0.34462 0.222608 -0.147472 -0.650697 -0.197039 0.733327 
-0.34696 -0.687062 -0.441689 0.508519 -0.259928 0.820881 
0.039784 -0.20982 0.0585491 0.158723 -0.0822406 -0.983892 
-0.602845 0.11347 -0.00471953 0.630746 -0.115285 0.767378 
0.294592 0.139991 -0.210423 -0.436846 -0.339665 0.832943 
0.417384 -0.209248 0.0379084 0.107221 -0.186316 -0.976622 
-0.537338 -0.571442 -0.144558 0.919402 0.225356 0.322358 
0.173762 0.161603 -0.202154 0.348792 -0.648386 0.676713 
0.351059 -0.690167 -0.304235 -0.694328 0.32709 0.641031 
0.120068 -0.368148 0.0984392 0.298232 -0.12289 -0.94655 
-0.57707 -0.0991073 0.121365 0.676954 -0.00389748 -0.736015 
-0.0347202 0.933112 0.221772 0.705027 -0.438963 0.556999 
-0.352515 0.939044 0.34998 0.548412 -0.708816 0.443649 
-0.333298 -0.860346 -0.162852 0.0203779 0.948324 0.316649 
-0.287986 0.176053 0.155661 0.284033 0.259144 -0.92313 
-0.11571 0.394275 0.100068 0.933335 0.266886 -0.240122 
-0.0419681 0.156956 -0.200887 -0.0694791 -0.515111 0.854303 
0.0698769 -0.846177 -0.255378 0.0876809 0.928863 0.359898 
0.0920901 0.407289 0.000172035 -0.827146 -0.208028 0.522067 
-0.0384282 -0.562868 -0.453657 -0.0556123 -0.391311 0.918577 
-0.519733 0.0932077 0.164078 -0.205527 0.176232 -0.962653 
-0.349244 -0.827281 -0.255181 -0.00919016 0.950879 0.309426 
-0.292314 0.364555 0.231352 0.152141 0.306622 -0.939594 
-0.462929 -0.794153 -0.120452 0.842388 0.461878 -0.277579 
0.636379 -0.272418 -0.0115257 -0.892574 0.229957 -0.387854 
-0.277135 0.719525 0.37569 -0.27199 0.45434 -0.848291 
-0.247706 -0.149748 -0.259577 0.377938 -0.294835 0.87763 
-0.395787 -0.180766 0.154287 -0.185279 0.203144 -0.96146 
-0.245321 0.0402737 -0.189816 0.502379 -0.415618 0.758206 
-0.0913088 0.223659 0.102605 -0.0612321 7.49877e-18 -0.998124 
0.0692459 0.335716 -0.0688112 -0.806015 -0.142367 0.574519 
0.185818 0.266033 -0.104445 0.732615 -0.490684 0.471704 
0.248457 -0.837576 -0.309894 -0.335131 0.80987 0.481453 
0.058246 -0.798967 0.0298022 0.0165967 0.569496 -0.821826 
0.349388 -0.3374 -0.3641 -0.200633 -0.136685 0.970084 
0.263159 -0.578801 0.126882 -0.0514301 0.209907 -0.976368 
-0.407537 -0.754005 -0.408227 0.647961 0.258448 0.716485 
-0.502879 -0.0398416 -0.0876335 0.439307 -0.296011 0.848167 
0.379014 0.417936 0.183047 -0.277318 0.348812 -0.895223 
-0.393511 0.851281 0.360297 0.995795 -0.068374 -0.0609639 
-0.154793 -0.784912 -0.395987 0.037041 0.954204 0.296856 
0.252842 -0.104358 -0.296666 -0.156214 -0.328299 0.931567 
0.525669 -0.0334678 -0.122502 0.269332 -0.315468 0.909912 
-0.365093 0.224969 0.127954 0.731 0.396753 -0.555181 
0.42846 0.277923 0.0274084 -0.970011 0.24296 -0.00692514 
0.638117 0.271213 0.0180178 -0.0201149 -0.667065 0.744728 
-0.0550718 0.592962 0.0149559 0.549301 -0.415919 0.724762 
0.0457388 0.774859 0.0966094 -0.234025 -0.489888 0.839787 
-0.00785025 0.842472 0.349799 0.333967 0.507724 -0.794155 
0.347223 0.686129 0.103132 0.277378 -0.581233 0.765003 
0.474727 0.776855 0.348949 -0.714631 0.371639 -0.592611 
0.445985 -0.229552 -0.282007 -0.57123 -0.432427 0.697641 
0.477826 0.00214587 0.0668982 0.798407 -0.000937494 -0.602117 
0.489017 -0.376415 0.0726761 -0.357234 -0.0789565 -0.930672 
0.557718 0.0296229 0.151701 0.461641 0.207361 -0.86249 
-0.252689 0.534846 0.290761 -0.322734 0.357223 -0.87649 
0.110805 -0.125329 0.0565685 0.105441 -0.055291 -0.992887 
0.633889 0.100859 -0.0514638 -0.414283 -0.369838 0.831618 
0.0178119 -0.635408 0.0748285 0.259148 0.0476721 -0.96466 
-0.368809 0.374822 0.0577821 0.860981 -0.215616 0.460675 
0.430281 0.469097 0.0109144 -0.738957 -0.168957 0.652223 
0.46311 -0.712912 -0.0854556 -0.793239 0.595436 -0.12739 
0.634985 -0.381543 -0.0724113 -0.96641 0.192604 -0.170165 
0.332276 0.25625 0.130999 -0.113057 0.475324 -0.872517 
-0.240617 -0.891111 -0.0850037 0.0791975 0.989563 0.120385 
0.442645 -0.488905 0.100772 -0.472578 0.0992308 -0.875684 
0.0443986 0.589191 0.24166 -0.183386 0.453286 -0.872297 
0.431949 -0.308508 -0.32828 -0.505757 -0.260064 0.822543 
-0.504236 -0.472163 -0.213265 0.750202 -0.0599921 0.658482 
-0.601587 0.441032 0.159836 -0.031839 -0.622832 0.781707 
-0.0966231 -0.122093 -0.301614 0.18148 -0.246268 0.952059 
-0.0812425 0.0779773 -0.244386 0.0917871 -0.430744 0.897795 
0.129228 0.717073 0.163178 -0.94916 -0.144291 0.279779 
-0.0997834 -0.363875 0.0620319 -0.123492 0.000531116 -0.992345 
0.348157 -0.837938 -0.163428 -0.56088 0.825074 0.068307 
0.527721 -0.575559 -0.182888 -0.764568 0.446416 0.464918 
-0.271405 -0.737466 -0.480662 0.248227 0.467582 0.848381 
-0.575943 0.248772 0.216741 -0.186819 0.399382 -0.897548 
0.3278 0.311883 -0.127482 -0.337704 -0.411447 0.846562 
0.268183 -0.860961 -0.102306 -0.303781 0.908441 -0.287147 
-0.313992 0.345277 -0.0129514 0.297995 -0.388951 0.871731 
-0.495593 -0.287477 0.128755 0.23562 0.236393 -0.942657 
-0.494877 -0.694297 -0.0568479 0.876318 0.420832 -0.234451 
-0.302213 -0.406059 -0.327815 0.260279 -0.434605 0.862191 
0.612655 -0.423124 -0.174536 -0.878107 0.250842 0.407438 
-0.211998 0.614834 0.291209 -0.774163 0.161576 -0.612018 
-0.309058 0.75731 0.209716 0.127757 -0.479687 0.868089 
0.324062 -0.077307 0.0113162 -0.470407 -0.0343197 -0.881782 
-0.302814 0.249716 -0.0551245 0.303742 -0.346883 0.887363 
0.0167211 -0.303487 0.0591227 0.185243 -0.0660871 -0.980468 
0.483769 0.711719 0.28785 -0.809042 0.393584 -0.436511 
-0.293057 0.595088 0.113277 0.0819549 -0.504052 0.859776 
0.150379 -0.794547 -0.40695 -0.0784152 0.863841 0.497624 
0.38592 -0.0208787 -0.171284 -0.912544 -0.175953 0.369193 
0.3829 0.566466 0.0218792 -0.246571 -0.506114 0.826469 
-0.445899 -0.180471 -0.170921 0.486091 -0.247566 0.838109 
-0.389104 -0.32963 0.124973 -0.114676 0.13701 -0.983909 
0.439234 0.659131 0.108629 -0.591519 -0.392752 0.704167 
0.475814 -0.651666 -0.192897 -0.742365 0.454856 0.491936 
0.324793 0.343992 0.167828 0.0238553 0.28734 -0.957531 
0.587855 -0.36228 0.0194435 -0.64877 0.207197 -0.732234 
0.188473 -0.643596 0.111663 0.0501566 0.268877 -0.961868 
0.207631 -0.360472 -0.37846 -0.00810855 -0.153516 0.988113 
-0.372992 0.697019 0.226061 0.844197 -0.239897 0.479355 
-0.410396 -0.260334 -0.217946 0.457943 -0.311829 0.832497 
0.0500984 -0.868239 -0.0325099 -0.0697824 0.819774 -0.56842 
0.295488 0.463954 0.18659 0.491494 0.23476 -0.838642 
-0.0470896 0.333693 -0.114966 0.237279 -0.358199 0.90299 
0.62983 -0.330712 -0.14864 -0.934791 1.14479e-16 0.355199 
-0.142095 0.0341854 0.131946 -0.253941 0.194088 -0.947546 
0.108135 0.666356 0.0911786 -0.801903 -0.236602 0.548609 
-0.376844 -0.603429 0.0983112 0.17642 0.198607 -0.96407 
-0.625215 0.0416113 0.0909104 0.909191 0.291104 -0.297708 
0.71943 0.111695 0.136818 -0.836038 0.191421 -0.514197 
0.238117 -0.376606 0.126839 0.0939557 -0.130229 -0.987022 
-0.00614398 -0.545761 0.0663471 0.227913 -0.0453377 -0.972625 
-0.0765253 0.311463 0.126207 0.47417 0.304905 -0.825951 
-0.25082 -0.548323 -0.413391 0.252278 -0.469506 0.846121 
0.214238 0.0706384 0.095188 -0.142572 0.131234 -0.981046 
0.220737 0.325694 0.124399 0.644489 0.213169 -0.734297 
0.172261 0.271816 0.0320435 0.915038 -0.203232 -0.348428 
0.0567515 0.892321 0.388185 -0.188877 0.51121 -0.838445 
0.258631 0.590577 0.161103 0.969798 -0.17941 -0.165236 
0.0490668 0.781059 0.316411 -0.223315 0.393755 -0.891677 
0.0854319 1.08345 0.316216 -0.483517 -0.811498 0.32815 
0.538559 -0.165584 0.0895577 0.231539 0.206578 -0.950639 
-0.183078 -0.868796 -0.157151 0.0477495 0.931882 0.359606 
-0.0219245 0.834568 0.147784 0.506014 -0.460183 0.729508 
-0.0815237 0.660968 0.0961602 0.823968 -0.353099 0.443168 
-0.409708 -0.800089 -0.329344 0.232424 0.903961 0.358935 
0.490311 0.130592 0.00294335 0.85742 -0.383576 0.343075 
-0.0726804 0.7444 0.146507 0.838065 -0.352016 0.416811 
-0.56339 -0.00922007 0.133326 0.470124 0.151868 -0.869436 
-0.222234 -0.165236 0.102682 -0.322325 0.164652 -0.9322 
-0.39153 -0.417448 -0.289578 0.493931 -0.326835 0.805736 
-0.00817259 1.07705 0.324109 0.611636 -0.722161 0.323087 
0.531195 -0.481002 0.0350523 -0.675185 0.249631 -0.694125 
-0.179214 0.10224 -0.189559 0.455263 -0.587888 0.668672 
0.434322 -0.0606681 0.01913 0.635604 -0.140791 -0.759069 
0.499318 0.107599 0.0904217 0.859772 -0.14335 -0.490146 
-0.0937033 -0.86938 -0.164941 0.0181751 0.917384 0.397587 
-0.452098 0.137111 0.124568 -0.741041 -0.196951 -0.641925 
0.00719589 -0.635502 -0.481064 -0.163726 -0.402586 0.900621 
0.651163 0.0292298 0.161067 -0.302918 0.331899 -0.893355 
0.0858856 -0.761851 -0.468621 -0.166354 0.674447 0.719339 
-0.353463 0.764519 0.38717 0.519258 0.423774 -0.74215 
-0.423629 -0.841695 -0.205406 0.221023 0.953927 0.202908 
0.108808 -0.0880978 -0.317272 0.0346095 -0.294721 0.954956 
0.0237887 0.0739968 -0.23406 -0.0735239 -0.490025 0.868602 
0.0307378 -0.271911 -0.356264 0.0623209 -0.276349 0.959035 
-0.363374 -0.16297 -0.208487 0.408578 -0.293733 0.864167 
-0.0513298 -0.23325 0.052973 -0.085306 1.0447e-17 -0.996355 
0.484142 -0.50393 -0.276303 -0.632604 0.349123 0.691321 
-0.315582 0.626582 0.330975 0.180627 0.392801 -0.90171 
-0.174228 0.469294 0.15982 -0.961344 -0.0834174 -0.26241 
0.69364 -0.0689311 0.0215584 -0.968257 0.2494 -0.0166948 
-0.546245 -0.354578 -0.148914 0.77546 -0.133577 0.617105 
-0.675718 0.450026 0.341211 0.558865 0.470477 -0.682877 
-0.0989594 0.574377 0.16256 0.888541 0.0396468 -0.45708 
-0.130182 0.319748 0.0472514 0.850469 -0.398719 -0.343111 
-0.337482 0.0765132 -0.10986 0.516948 -0.444239 0.731722 
0.656714 -0.18326 0.00987438 -0.896465 0.343283 -0.28019 
0.451308 0.913487 0.393714 -0.607168 -0.474216 -0.637547 
0.359618 -0.243434 -0.340053 -0.328806 -0.309869 0.892114 
-0.318649 0.473221 0.262993 0.285198 0.400078 -0.870977 
0.105574 0.0665537 0.0952999 0.0952258 0.147909 -0.984406 
0.396309 -0.604139 0.0848411 -0.415233 0.379943 -0.826574 
-0.257941 0.944437 0.344057 -0.333153 -0.789423 0.515577 
0.425176 0.348247 0.121311 -0.749392 0.295418 -0.59257 
0.274886 0.000797744 0.0620903 -0.366041 0.300918 -0.880604 
-0.16639 -0.618527 0.079092 -0.23529 0.0286168 -0.971504 
-0.623969 0.512375 0.214183 0.117239 -0.59021 0.798691 
-0.486903 -0.290422 -0.182697 0.553407 -0.276989 0.785505 
-0.688271 0.526744 0.275477 0.804506 -0.394576 0.443937 
-0.376929 0.607903 0.180804 0.851253 -0.270882 0.449435 
-0.28014 -0.262112 -0.27781 0.311906 -0.255044 0.915242 
-0.222605 -0.38155 0.0849957 -0.238591 0.022693 -0.970855 
0.588358 -0.482485 -0.0393067 -0.82856 0.361437 -0.427611 
-0.176485 -0.401321 -0.354955 0.291992 -0.402436 0.867632 
-0.551599 0.258027 0.0118188 -0.0236994 -0.484238 0.874615 
-0.542711 0.477567 0.229756 -0.785828 -0.417723 0.456051 
0.425377 -0.581146 -0.288285 -0.621852 0.348986 0.701077 
0.477606 -0.585939 0.0364664 -0.630952 0.398813 -0.665468 
0.0938089 0.242922 -0.0349581 -0.850194 -0.481265 0.213434 
-0.585447 0.459547 0.355762 -0.368375 0.439944 -0.818993 
0.369802 -0.794014 -0.0543516 -0.520654 0.744885 -0.417212 
0.0284868 -0.791045 -0.402165 0.0599231 0.954212 0.293069 
-0.122888 -0.898632 -0.078725 -0.0115414 0.998634 -0.0509618 
-0.213739 0.509669 0.0847183 -0.480724 -0.531514 0.697422 
0.41235 -0.700266 -0.236275 -0.691092 0.390654 0.608096 
0.0983603 -0.580593 0.105337 0.297227 0.0561694 -0.953153 
0.00379266 1.01684 0.25926 0.453903 -0.542591 0.706801 
0.52569 -0.275234 0.0620357 -0.0885329 0.139373 -0.986274 
0.0728844 -0.0415739 0.0693429 0.0499011 0.21631 -0.975049 
-0.408197 0.0131411 -0.107563 0.392958 -0.579668 0.713841 
0.16208 -0.714725 -0.458039 -0.414141 0.035772 0.909509 
0.455738 0.540162 0.0671805 -0.844992 -0.196928 0.4972 
0.0757387 0.849413 0.153766 -0.466059 -0.387783 0.795244 
0.210283 -0.7265 0.0769373 -0.069511 0.491613 -0.868035 
-0.0787063 -0.63676 0.0604871 -0.0459328 0.0256072 -0.998616 
0.504083 -0.300723 -0.271477 -0.553765 -0.325237 0.766528 
0.399013 0.723472 0.352466 0.0225589 0.586684 -0.809502 
0.435663 0.368378 0.00739913 -0.918842 1.12526e-16 0.394625 
0.104528 -0.819926 -0.334784 0.127089 0.931278 0.341423 
0.427885 -0.14918 -0.227103 -0.583612 -0.62601 0.517212 
0.54641 -0.22697 -0.211149 -0.459749 -0.370829 0.806918 
-0.181677 -0.812739 -0.31376 0.0478936 0.934006 0.354034 
-0.48932 -0.789313 -0.24626 0.905134 0.37077 0.207996 
-0.18998 0.426125 0.0608396 -0.713416 -0.00373434 0.700731 
0.119933 0.977437 0.246397 -0.69183 -0.364315 0.623415 
0.313731 0.609096 0.060647 0.395572 -0.594365 0.700181 
-0.332844 -0.0029078 -0.152828 0.409677 -0.418599 0.810518 
-0.0614921 -0.00462685 -0.274902 0.0514587 -0.277023 0.959484 
-0.158793 0.00108804 -0.25231 0.353047 -0.273604 0.894706 
-0.495045 -0.164506 0.159888 0.210631 0.142181 -0.967171 
-0.0663997 0.478016 -0.0396497 0.5682 -0.396217 0.721222 
-0.663693 0.541442 0.381501 0.366468 -0.0567279 -0.9287 
0.4884 0.666973 0.193679 -0.98597 -1.20747e-16 0.166922 
-0.47974 -0.696854 -0.271136 0.930873 -0.147788 0.334117 
-0.225661 -0.338727 -0.313584 0.238637 -0.324693 0.91522 
-0.213012 0.29007 -0.0290981 -0.171056 -0.625881 0.760929 
-0.0876871 -0.134978 0.0627601 -0.220343 0.117144 -0.968363 
-0.0731989 0.488811 0.182205 0.559021 0.125912 -0.819537 
-0.0108124 0.709693 0.0640688 0.316187 -0.481216 0.817592 
-0.154983 0.154285 0.136297 -0.355536 -0.0944328 -0.92988 
-0.165706 -0.249567 -0.310796 0.302785 -0.206122 0.930503 
-0.607621 -0.104547 0.000576971 0.949477 -0.0310724 0.312293 
0.317309 0.788022 0.34778 0.786251 0.270594 -0.555507 
0.10829 0.478932 0.0575662 -0.92769 -0.146158 0.343554 
-0.560743 -0.476678 -0.126826 0.925052 0.0991894 0.366662 
-0.408099 -0.0642038 -0.155991 0.393034 -0.368766 0.84234 
0.660675 -0.0680943 0.10592 -0.583638 0.43421 -0.68617 
-0.189349 0.543962 0.228445 -0.92582 0.0702547 -0.371377 
-0.308702 -0.492292 -0.367923 0.323261 -0.399154 0.858009 
-0.294638 -0.863334 -0.158891 0.0597777 0.942735 0.328142 
0.658424 -0.159484 -0.0829586 -0.933548 0.0997167 0.344304 
-0.120906 -0.845459 -0.0032258 -0.0987109 0.622038 -0.77674 
-0.263954 -0.647379 -0.465454 0.265155 -0.42366 0.866144 
0.676435 0.0093183 -0.0512261 -0.818824 -0.160989 0.551007 
0.0859012 -0.479412 0.09924 0.344066 -0.0860352 -0.934995 
0.621786 -0.235115 -0.151139 -0.800939 -0.0912714 0.591749 
0.426366 -0.682491 0.0195169 -0.567736 0.522747 -0.635933 
-0.0552578 1.00058 0.339982 0.960774 -0.275694 0.0301148 
-0.528533 -0.396608 0.089359 0.565102 0.250046 -0.786217 
-0.259761 -0.825238 -0.26946 0.0557623 0.938951 0.339501 
0.603718 -0.141192 -0.151308 -0.468405 -0.212846 0.857492 
0.575328 -0.350298 -0.235827 -0.682111 -0.117341 0.721773 
-0.255555 0.00744759 0.154399 -0.276407 0.0716373 -0.958367 
0.123342 0.73886 0.253706 -0.830287 0.169552 -0.53092 
0.0454507 1.0542 0.409225 -0.0259969 -0.418688 -0.907758 
0.167511 -0.576641 -0.422403 -0.209636 -0.243604 0.946948 
-0.224455 0.682286 0.200932 -0.710041 -0.410859 0.571871 
-0.12876 -0.0605901 0.0938486 -0.3322 0.306718 -0.891946 
-0.41074 -0.546939 -0.324628 0.657541 -0.231754 0.716889 
-0.385698 0.718097 0.314597 0.941644 0.179053 -0.285036 
-0.206277 0.578338 0.141273 -0.691441 -0.461696 0.555649 
-0.567909 -0.499922 -0.0372542 0.960041 0.240767 -0.142662 
0.179362 0.0546943 -0.268431 0.0515934 -0.380943 0.923158 
-0.177627 -0.093446 -0.26955 0.348529 -0.257239 0.901308 
-0.50089 -0.653702 -0.193787 0.961342 0.100256 0.256456 
0.646452 0.15975 0.177097 0.00672194 -0.121478 -0.992571 
0.222265 -0.651343 -0.418739 -0.434455 -0.0995863 0.895171 
-0.48727 0.220952 0.153913 -0.7535 -9.22771e-17 -0.657448 
0.259753 -0.464085 0.139379 0.0599637 -0.0531489 -0.996785 
0.429182 0.577102 0.247134 -0.442369 0.400984 -0.802198 
-0.039174 -0.876466 -0.037206 -0.0554921 0.839611 -0.540346 
0.280417 -0.576107 -0.394746 -0.38432 0.0171477 0.923041 
0.259997 0.365112 -0.0927554 0.407911 -0.557261 0.723235 
0.12047 0.872454 0.319099 -0.792634 0.398274 -0.461637 
0.189698 -0.798026 0.02613 -0.0814171 0.693951 -0.715404 
0.234137 0.226176 0.0959871 0.395883 0.188242 -0.8988 
0.455101 0.0309874 -0.0199211 0.736562 -0.672157 0.0753752 
-0.0863574 -0.767446 -0.452224 0.0399362 0.90545 0.42257 
0.0653187 0.151645 -0.170412 -0.133061 -0.71905 0.682101 
0.115865 0.651845 0.229671 -0.761178 0.299729 -0.575126 
0.222328 0.425854 0.124693 0.750521 -0.104944 -0.652461 
-0.443989 -0.407825 0.117081 0.107903 0.146591 -0.983295 
-0.434862 0.047403 0.137572 -0.0572395 -0.339693 -0.938793 
0.00256936 -0.727986 0.0599837 0.129637 0.266044 -0.955204 
-0.540791 -0.591113 -0.0455077 0.919756 0.354832 -0.167757 
0.706186 0.159032 0.0338935 -0.815829 -9.99102e-17 0.578294 
0.560227 0.0521428 -0.0910537 0.14108 -0.471568 0.870471 
-0.266025 0.808665 0.419606 -0.35922 0.384518 -0.850357 
0.613853 0.266591 0.115284 0.397574 -0.700857 -0.592228 
-0.64651 0.203365 0.167228 0.770043 0.35616 -0.529324 
-0.0604881 -0.808875 -0.340308 0.0311398 0.937617 0.346272 
-0.17778 -0.304004 0.0773868 -0.243671 0.0496554 -0.968586 
-0.232951 0.0973839 0.152635 -0.107063 0.027336 -0.993876 
-0.492504 0.174925 -0.00497116 -0.4104 -0.308053 0.858298 
-0.246583 -0.77948 -0.403237 0.0484866 0.958451 0.281105 
0.0155851 0.130558 0.0930217 -0.109225 1.33762e-17 -0.994017 
-0.325444 -0.392173 0.108682 -0.185888 0.0498492 -0.981306 
-0.381681 0.322608 0.136022 0.945592 0.0647 -0.318858 
-0.528945 -0.49321 0.0488281 0.720279 0.285628 -0.632151 
-0.374194 0.14184 0.0813643 0.668768 -0.451188 -0.590914 
0.18617 -0.0374899 0.0686829 -0.0759946 0.234752 -0.96908 
0.159921 -0.478841 -0.398017 -0.0992314 -0.209149 0.972836 
-0.208434 -0.862072 -0.00151951 -0.0465358 0.727916 -0.684085 
-0.612927 -0.0148451 0.0179232 0.957249 0.0907912 0.274649 
0.0791086 0.251539 0.0572183 -0.8036 9.84126e-17 -0.59517 
-0.597817 -0.205918 0.086162 0.858907 0.139114 -0.492876 
0.426244 0.862379 0.24648 -0.197446 -0.66074 0.724181 
-0.444298 0.0627804 -0.0405074 0.106009 -0.623332 0.774738 
-0.584315 -0.385266 0.0111976 0.93892 0.231682 -0.254466 
-0.130084 0.17155 -0.161987 0.495728 -0.580931 0.64558 
0.701205 0.287253 0.0899749 -0.502342 -0.8564 -0.119299 
0.174216 -0.292551 0.101933 0.23196 -0.156115 -0.960116 
-0.208215 0.726826 0.276391 -0.999269 1.22375e-16 0.0382324 
-0.316578 -0.672549 0.088368 0.0748714 0.255059 -0.964022 
0.342655 -0.795475 -0.252706 -0.679653 0.500189 0.536548 
0.143416 -0.87283 -0.19982 0.0752121 0.952271 0.295843 
0.171186 -0.890845 -0.115895 -0.0952241 0.990576 -0.0984487 
0.214969 0.420568 0.00233609 0.770398 -0.408435 0.489559 
-0.356276 -0.0959918 0.164923 -0.17355 0.205491 -0.963148 
-0.0740142 0.095253 0.119248 -0.298094 3.6506e-17 -0.954536 
0.044201 -0.410241 -0.400395 -0.0615972 -0.271999 0.960324 
0.192492 0.338652 -0.0298912 0.832401 -0.418553 0.363211 
-0.347276 -0.329708 -0.276445 0.365926 -0.349974 0.862332 
0.424835 -0.449407 -0.339565 -0.475752 0.167755 0.863434 
-0.39746 -0.865946 -0.12368 0.331297 0.942061 0.0525675 
-0.0722202 0.252237 -0.14192 0.390598 -0.430375 0.813763 
0.396197 0.824264 0.408805 0.0455875 0.361087 -0.931417 
0.116077 0.192402 -0.108048 0.135462 -0.85413 0.502108 
-0.14567 0.245643 -0.0780074 0.571973 -0.476134 0.66794 
0.493376 0.860992 0.313407 -0.943678 -0.299351 0.140928 
0.140014 -0.851181 -0.0302468 -0.104087 0.796972 -0.594981 
0.710127 0.0254692 0.0316933 -0.978017 0.084288 0.190733 
0.364424 0.935305 0.361507 0.463941 -0.885755 -0.0140637 
-0.615399 0.60815 0.319993 -0.0585238 -0.9957 0.071811 
0.336128 -0.03554 -0.24653 -0.600274 -0.269183 0.753134 
0.304046 0.659338 0.263965 0.710795 0.24422 -0.659642 
-0.355264 -0.00431749 0.174805 0.0331583 -0.0917832 -0.995227 
-0.309685 0.888957 0.446145 0.0438564 -0.0217389 -0.998801 
-0.371508 0.249909 0.0217782 0.908447 -0.108063 0.403789 
-0.386581 0.529898 0.230585 0.912023 0.181848 -0.36762 
0.39762 0.224789 -0.0720897 -0.907889 0.0567982 0.415344 
-0.0815907 0.643684 0.216972 0.785176 0.216751 -0.580102 
-0.532347 0.373296 0.124735 -0.567092 -0.598658 0.565698 
-0.34266 -0.597769 -0.399957 0.4973 -0.40708 0.766145 
0.302089 0.165332 0.0883385 -0.191973 0.241147 -0.951312 
0.237737 -0.273194 -0.363571 0.0197282 -0.244242 0.969514 
0.0812215 -0.89045 -0.137336 0.0337656 0.985469 0.166463 
-0.28384 0.458503 0.032319 0.0886241 -0.414849 0.905564 
-0.49219 -0.579021 0.0512761 0.641272 0.296761 -0.707604 
0.0961487 -0.692124 0.0854331 0.159673 0.289015 -0.943915 
0.29468 -0.763129 -0.33346 -0.725793 0.364481 0.583419 
0.00949931 -0.0664029 -0.294827 0.0853396 -0.302433 0.949343 
0.341375 0.543303 0.242709 0.237492 0.397723 -0.886236 
0.138088 1.00863 0.334336 -0.954008 -0.293799 -0.0595863 
-0.0955758 -0.699436 -0.510984 0.0586221 0.0110721 0.998219 
0.342631 0.421421 -0.063581 -0.222412 -0.436788 0.871636 
0.737934 0.20391 0.112674 -0.978265 -0.0459164 -0.202211 
0.440763 -0.0764272 -0.114463 -0.150013 -0.605665 0.781451 
0.0130064 0.316616 0.145365 -0.17428 0.521032 -0.835555 
0.40038 -0.386368 0.104268 -0.286157 -0.256857 -0.923114 
0.00716287 0.967517 0.410741 0.255424 0.144792 -0.955926 
-0.177246 -0.655423 -0.487153 0.17386 -0.355132 0.918506 
0.313497 -0.646911 0.0972537 -0.250105 0.395647 -0.883692 
0.528649 0.200907 0.0525428 0.79486 -0.606758 0.00657837 
0.514471 -0.642139 -0.112259 -0.830886 0.547056 0.10177 
-0.572828 -0.315065 0.0772041 0.742248 0.259076 -0.618019 
0.550894 -0.0733355 0.109747 0.374358 0.252396 -0.892274 
-0.327866 -0.790246 -0.363266 -0.0492855 0.95327 0.298072 
0.167453 -0.442386 0.119386 0.242832 -0.0889246 -0.965984 
-0.570061 -0.258098 -0.0920765 0.811763 -0.137634 0.567537 
0.00313464 -0.151413 -0.321197 0.121363 -0.280263 0.95222 
0.0972612 0.338341 0.0869527 -0.794677 0.465614 -0.389477 
0.313433 -0.168313 -0.323728 -0.180914 -0.44844 0.875312 
0.593958 -0.504263 -0.12678 -0.873033 0.460435 0.160662 
-0.56045 -0.163766 -0.0791346 0.720982 -0.147571 0.677058 
-0.485843 -0.562088 -0.241333 0.824407 -0.00664812 0.565958 
