ply
format ascii 1.0
element vertex 500
property float x
property float y
property float z
property float nx
property float ny
property float nz
end_header
0.343187 0.811296 0.206817 0.423988 -0.640369 0.640439 
0.29537 0.707092 0.177284 0.844848 -0.403266 0.351581 
0.324267 0.864015 0.299953 0.75804 -0.531571 0.377898 
0.412369 0.496472 0.210088 -0.401411 0.477804 -0.781391 
0.552445 -0.4773 -0.220977 -0.697888 0.372387 0.611784 
0.61469 -0.0182315 -0.115738 -0.35173 -0.303038 0.885694 
0.210152 -0.138371 0.065585 -0.058395 -0.233598 -0.970578 
0.274456 -0.805226 -0.00350579 -0.268069 0.743431 -0.612739 
0.36711 0.122876 -0.149764 -0.842362 -0.160726 0.514386 
0.0502836 0.93896 0.190713 -0.130175 -0.491222 0.861252 
0.33459 -0.515835 0.130861 -0.174493 0.141991 -0.974367 
0.147265 -0.262923 -0.35622 0.00287055 -0.251528 0.967846 
0.131631 0.862715 0.222731 -0.928674 -0.0902786 0.359741 
-0.00156731 0.236271 0.0985573 -0.180238 0.285244 -0.941355 
-0.175998 -0.745613 -0.48532 0.037371 0.647406 0.761229 
-0.181002 -0.487026 -0.398179 0.238735 -0.46134 0.8545 
0.0359256 0.626249 0.019694 -0.296114 -0.377575 0.877356 
0.474609 0.543296 0.15423 -0.974668 0.176882 -0.136875 
0.0212635 0.0337019 0.0794493 -0.049336 0.195085 -0.979545 
-0.0696377 -0.247841 -0.338402 0.192839 -0.268249 0.943852 
-0.263621 -0.283423 0.104386 -0.268613 0.0806378 -0.959867 
-0.30445 -0.192384 0.125872 -0.304198 0.178982 -0.935644 
0.336902 -0.723947 0.042586 -0.357704 0.566321 -0.742515 
0.253217 -0.01315 -0.277626 -0.245722 -0.197694 0.948967 
-0.663543 0.327665 0.251844 0.594238 0.5287 -0.606101 
-0.26757 -0.58368 0.101265 -0.124476 0.0441438 -0.99124 
0.00485116 0.420816 -0.0826247 -0.250205 -0.382229 0.88955 
-0.306488 0.88783 0.288771 0.0634242 -0.550157 0.832649 
0.622589 0.191231 -0.0206038 -0.133475 -0.351597 0.926587 
-0.0408323 -0.799058 0.0247079 0.0176425 0.499757 -0.865986 
0.0127372 0.50663 0.208359 -0.0403912 0.274799 -0.960653 
0.29343 0.756607 0.257448 0.993061 -0.113305 -0.0314979 
-0.331233 -0.48885 0.108548 -0.0983081 0.00972767 -0.995108 
-0.649116 0.285096 0.0817593 0.805533 -0.175361 0.566008 
-0.0616228 0.902418 0.30801 0.98754 0.0489473 -0.149559 
0.334014 0.0553577 -0.216579 -0.651571 -0.272192 0.708073 
0.231482 0.231526 -0.175669 0.302608 -0.538764 0.786233 
0.358586 0.0928794 0.0477735 -0.633148 0.211795 -0.74449 
-0.215927 -0.0697486 0.12529 -0.345612 0.256812 -0.902552 
-0.00463027 -0.8681 -0.18069 0.0838738 0.934217 0.346704 
-0.203058 -0.723429 0.0731344 -0.115266 0.258847 -0.959016 
0.125734 0.575794 0.128908 -0.989781 0.141243 0.0195977 
-0.139667 -0.557607 -0.446549 0.153502 -0.445497 0.882026 
0.368711 -0.519891 -0.352081 -0.495171 0.195194 0.846584 
-0.413905 -0.637237 -0.357645 0.717319 -0.342546 0.606725 
0.212088 -0.183232 -0.33094 -0.0293614 -0.335986 0.941409 
0.397468 0.316705 -0.0703504 -0.766183 -0.158693 0.62272 
-0.606677 -0.270071 0.00420849 0.99358 0.107713 0.0345967 
-0.384247 0.408039 0.166424 0.957565 0.135138 -0.254572 
0.101163 -0.63844 -0.461909 -0.247298 -0.327414 0.911945 
0.317621 -0.172674 0.0548824 -0.376581 -0.367841 -0.850223 
-0.39668 -0.809921 -0.0191368 0.575414 0.580711 -0.575912 
-0.38156 0.505294 0.13785 0.910201 -0.177126 0.374381 
-0.341001 0.084057 0.152208 0.308201 -0.376942 -0.873457 
0.101163 0.428013 0.132229 -0.817467 0.131775 -0.560698 
0.352577 -0.607473 -0.341153 -0.630432 0.252354 0.73408 
0.358917 0.00771585 0.0202525 -0.551403 0.247908 -0.796553 
-0.092415 -0.725354 0.055237 -0.077368 0.205287 -0.975639 
0.356649 -0.270618 0.0667807 -0.376233 -0.343648 -0.860439 
-0.14706 -0.217409 0.0739293 -0.269631 0.0456093 -0.961883 
0.291648 0.506166 -0.0172457 0.347989 -0.516353 0.782485 
0.45046 0.446511 0.135341 -0.863626 0.292612 -0.410522 
-0.677644 0.299902 0.168233 0.978692 0.203773 0.0252642 
-0.486018 0.274629 0.0762593 -0.759356 -0.567605 0.318124 
-0.564746 0.0415899 -0.0427915 0.442749 -0.17228 0.879939 
-0.301192 0.164436 -0.0862386 0.373956 -0.353031 0.857628 
0.396338 0.0384306 -0.102073 -0.948629 -0.196997 0.24758 
0.127221 0.153467 0.0938322 0.0326861 -0.348308 -0.93681 
-0.106981 -0.533078 0.0628754 -0.148936 -0.0340677 -0.98826 
-0.106003 0.515398 0.0355011 0.85519 -0.259903 0.448442 
0.14414 -0.205911 0.0799833 0.187803 -0.223752 -0.956381 
0.0128805 0.413626 0.190187 -0.135477 0.26084 -0.955829 
0.0982055 -0.339258 -0.37881 -0.0311993 -0.259472 0.965246 
-0.636434 0.121743 0.130588 0.835638 0.312565 -0.451677 
0.234322 -0.751803 -0.407329 -0.5898 0.325911 0.738863 
-0.0238238 0.732953 0.297664 0.331722 0.279194 -0.901117 
-0.185574 0.257986 0.150092 -0.747342 0.0368468 -0.663417 
0.396475 0.114211 -0.0337412 -0.998184 0.048729 -0.0354211 
-0.324422 -0.863278 -0.0252893 0.284984 0.825532 -0.487115 
-0.185332 0.380669 0.190783 -0.838613 0.178201 -0.514755 
0.262979 -0.457902 -0.390886 -0.110019 -0.105879 0.988274 
-0.553195 0.541374 0.339867 -0.817871 -0.197187 -0.540559 
-0.294332 -0.0904253 -0.211236 0.424712 -0.339795 0.839142 
-0.108189 -0.833341 -0.264799 0.0376492 0.948494 0.314549 
-0.609965 0.384494 0.306164 -0.13503 0.591005 -0.795286 
-0.211486 0.817844 0.31887 -0.978345 -0.0622996 0.19738 
0.395354 0.650546 0.292399 -0.0643436 0.534388 -0.842787 
-0.00146918 -0.441845 0.061808 0.227795 -0.0539657 -0.972212 
0.5035 -0.394182 -0.292953 -0.601533 0.0392456 0.797883 
0.232913 -0.872392 -0.223233 -0.0568882 0.967935 0.244673 
-0.371274 0.804152 0.267177 0.702599 -0.323168 0.633969 
0.396941 0.180475 0.0261841 -0.89096 0.2902 -0.349249 
0.502523 -0.131261 -0.162163 -0.0140114 -0.587866 0.808837 
-0.696057 0.448103 0.231027 0.917169 -0.175359 0.35784 
-0.278405 -0.798161 0.0423024 0.0917259 0.494899 -0.864095 
0.027363 0.537004 -0.019292 -0.383757 -0.350254 0.854431 
-0.114937 0.351876 -0.0565507 0.781057 -0.352465 0.515479 
0.417591 -0.76839 -0.168366 -0.778419 0.562986 0.277688 
-0.221253 0.461886 0.245008 -0.588057 0.241137 -0.772037 
-0.13989 -0.448953 0.0677171 -0.191502 -0.0120455 -0.981418 
-0.0726394 0.799398 0.245996 0.974141 -0.135886 -0.180512 
0.250132 0.543508 0.0650977 0.794593 -0.511533 0.327041 
0.0883326 -0.180569 -0.339074 0.0330039 -0.222434 0.974389 
-0.210846 0.15054 -0.116707 0.323548 -0.587562 0.741679 
-0.425022 -0.515406 0.103201 0.22479 0.164925 -0.960349 
-0.228858 -0.472223 0.0896886 -0.223009 -0.0596445 -0.97299 
-0.380114 0.143145 -0.0162273 0.739175 -0.433961 0.51507 
0.559653 0.136104 0.153812 0.540969 -0.140982 -0.829142 
-0.623361 0.2064 0.0297412 0.707912 -0.145596 0.691131 
-0.265664 0.26757 0.20094 -0.057093 0.358187 -0.931903 
-0.0278294 -0.0499073 0.0679139 -0.150173 0.239551 -0.959199 
-0.445298 -0.0386234 0.166647 0.132543 -0.122665 -0.983558 
0.0410073 -0.498787 -0.42615 -0.129581 -0.294277 0.946895 
-0.0899904 -0.477248 -0.418647 0.165029 -0.383061 0.908862 
0.0486378 0.260229 -0.114545 -0.666203 -0.269196 0.69549 
0.10524 -0.00464542 -0.284147 0.114749 -0.397281 0.910495 
-0.618958 0.366525 0.10408 0.283039 -0.585184 0.7599 
-0.0795998 -0.369733 -0.377027 0.248923 -0.349761 0.903164 
0.279515 -0.268579 0.111443 -0.192572 -0.276515 -0.941518 
-0.538808 0.360558 0.248439 -0.739489 0.304303 -0.600463 
0.189327 -0.528766 0.128608 0.172182 0.0223928 -0.984811 
0.432976 0.74906 0.159475 -0.389036 -0.49196 0.778862 
-0.37545 -0.737928 0.0504806 0.365112 0.450756 -0.814562 
-0.00291613 -0.734177 -0.50198 -0.0667507 0.390804 0.91805 
-0.30477 0.676929 0.160777 0.11559 -0.497718 0.859602 
0.491572 0.782871 0.231868 -0.856741 -0.261669 0.444438 
-0.450372 -0.691705 0.0282436 0.640829 0.450417 -0.621661 
-0.468653 -0.383357 -0.2269 0.578341 -0.238557 0.780136 
0.537814 -0.589886 -0.0423199 -0.811336 0.475708 -0.339758 
0.34462 0.222608 -0.147472 -0.651513 -0.195606 0.732986 
-0.34696 -0.687062 -0.441689 0.509688 -0.261521 0.819649 
0.039784 -0.20982 0.0585491 0.159385 -0.0822092 -0.983788 
-0.602845 0.11347 -0.00471953 0.633888 -0.114149 0.764955 
0.294592 0.139991 -0.210423 -0.435572 -0.340206 0.833389 
0.417384 -0.209248 0.0379084 0.101928 -0.180464 -0.978286 
-0.537338 -0.571442 -0.144558 0.92002 0.224669 0.321072 
0.173762 0.161603 -0.202154 0.34754 -0.643887 0.681635 
0.351059 -0.690167 -0.304235 -0.692708 0.327715 0.642463 
0.120068 -0.368148 0.0984392 0.297898 -0.124261 -0.946475 
-0.57707 -0.0991073 0.121365 0.677915 -0.00012212 -0.73514 
-0.0347202 0.933112 0.221772 0.702712 -0.440215 0.558933 
-0.352515 0.939044 0.34998 0.551878 -0.713901 0.431018 
-0.333298 -0.860346 -0.162852 0.0290445 0.948183 0.316395 
-0.287986 0.176053 0.155661 0.276158 0.254655 -0.926762 
-0.11571 0.394275 0.100068 0.93222 0.229111 -0.280132 
-0.0419681 0.156956 -0.200887 -0.0681615 -0.514727 0.854641 
0.0698769 -0.846177 -0.255378 0.0864638 0.929124 0.359518 
0.0920901 0.407289 0.000172035 -0.828483 -0.206757 0.52045 
-0.0384282 -0.562868 -0.453657 -0.0535655 -0.391349 0.918682 
-0.519733 0.0932077 0.164078 -0.20994 0.174257 -0.96206 
-0.349244 -0.827281 -0.255181 -0.00926278 0.950045 0.311975 
-0.292314 0.364555 0.231352 0.150525 0.30315 -0.940979 
-0.462929 -0.794153 -0.120452 0.842436 0.462722 -0.276024 
0.636379 -0.272418 -0.0115257 -0.893782 0.23149 -0.384142 
-0.277135 0.719525 0.37569 -0.256065 0.452378 -0.854274 
-0.247706 -0.149748 -0.259577 0.378015 -0.29503 0.877532 
-0.395787 -0.180766 0.154287 -0.184073 0.20247 -0.961833 
-0.245321 0.0402737 -0.189816 0.502086 -0.414294 0.759125 
-0.0913088 0.223659 0.102605 -0.0612796 -0.0456829 -0.997075 
0.0692459 0.335716 -0.0688112 -0.806597 -0.139919 0.574304 
0.185818 0.266033 -0.104445 0.72582 -0.497984 0.474549 
0.248457 -0.837576 -0.309894 -0.337428 0.807441 0.483923 
0.058246 -0.798967 0.0298022 0.0158917 0.569261 -0.822003 
0.349388 -0.3374 -0.3641 -0.201605 -0.13593 0.969989 
0.263159 -0.578801 0.126882 -0.0515099 0.208807 -0.976599 
-0.407537 -0.754005 -0.408227 0.646978 0.260684 0.716563 
-0.502879 -0.0398416 -0.0876335 0.44194 -0.291762 0.848271 
0.379014 0.417936 0.183047 -0.278839 0.349797 -0.894366 
-0.393511 0.851281 0.360297 0.995996 -0.0647076 -0.0616891 
-0.154793 -0.784912 -0.395987 0.0363757 0.953791 0.298262 
0.252842 -0.104358 -0.296666 -0.155542 -0.327574 0.931935 
0.525669 -0.0334678 -0.122502 0.268021 -0.314837 0.910518 
-0.365093 0.224969 0.127954 0.729242 0.381645 -0.567937 
0.42846 0.277923 0.0274084 -0.969933 0.24333 -0.00440484 
0.638117 0.271213 0.0180178 -0.0244096 -0.666941 0.74471 
-0.0550718 0.592962 0.0149559 0.547275 -0.414137 0.72731 
0.0457388 0.774859 0.0966094 -0.230703 -0.491593 0.83971 
-0.00785025 0.842472 0.349799 0.333235 0.501842 -0.798191 
0.347223 0.686129 0.103132 0.276085 -0.581894 0.764969 
0.474727 0.776855 0.348949 -0.703221 0.375228 -0.603891 
0.445985 -0.229552 -0.282007 -0.569397 -0.433479 0.698486 
0.477826 0.00214587 0.0668982 0.804616 -0.00303323 -0.593788 
0.489017 -0.376415 0.0726761 -0.359164 -0.0782685 -0.929987 
0.557718 0.0296229 0.151701 0.459066 0.208687 -0.863544 
-0.252689 0.534846 0.290761 -0.327759 0.351897 -0.876779 
0.110805 -0.125329 0.0565685 0.103867 -0.0530031 -0.993178 
0.633889 0.100859 -0.0514638 -0.414502 -0.369444 0.831685 
0.0178119 -0.635408 0.0748285 0.258265 0.047429 -0.964909 
-0.368809 0.374822 0.0577821 0.85988 -0.211816 0.464478 
0.430281 0.469097 0.0109144 -0.740454 -0.164332 0.651707 
0.46311 -0.712912 -0.0854556 -0.792644 0.595941 -0.128723 
0.634985 -0.381543 -0.0724113 -0.966086 0.190382 -0.17445 
0.332276 0.25625 0.130999 -0.113604 0.471474 -0.874532 
-0.240617 -0.891111 -0.0850037 0.0800508 0.989837 0.117537 
0.442645 -0.488905 0.100772 -0.471244 0.0990875 -0.876419 
0.0443986 0.589191 0.24166 -0.182748 0.451233 -0.873494 
0.431949 -0.308508 -0.32828 -0.505114 -0.259467 0.823126 
-0.504236 -0.472163 -0.213265 0.749783 -0.0606404 0.658899 
-0.601587 0.441032 0.159836 -0.0336727 -0.624121 0.780602 
-0.0966231 -0.122093 -0.301614 0.182679 -0.246118 0.951869 
-0.0812425 0.0779773 -0.244386 0.0922519 -0.431397 0.897433 
0.129228 0.717073 0.163178 -0.949245 -0.144294 0.279489 
-0.0997834 -0.363875 0.0620319 -0.121662 0.00300639 -0.992567 
0.348157 -0.837938 -0.163428 -0.560351 0.82536 0.0691876 
0.527721 -0.575559 -0.182888 -0.764421 0.446367 0.465207 
-0.271405 -0.737466 -0.480662 0.247369 0.466605 0.849169 
-0.575943 0.248772 0.216741 -0.18525 0.404093 -0.895763 
0.3278 0.311883 -0.127482 -0.337828 -0.410317 0.847061 
0.268183 -0.860961 -0.102306 -0.305883 0.907072 -0.289235 
-0.313992 0.345277 -0.0129514 0.30519 -0.384445 0.871241 
-0.495593 -0.287477 0.128755 0.235284 0.236616 -0.942684 
-0.494877 -0.694297 -0.0568479 0.876205 0.420872 -0.2348 
-0.302213 -0.406059 -0.327815 0.261438 -0.434953 0.861665 
0.612655 -0.423124 -0.174536 -0.875282 0.253408 0.411905 
-0.211998 0.614834 0.291209 -0.763209 0.19199 -0.616969 
-0.309058 0.75731 0.209716 0.11449 -0.489536 0.864434 
0.324062 -0.077307 0.0113162 -0.470023 -0.0364601 -0.881901 
-0.302814 0.249716 -0.0551245 0.30421 -0.34823 0.886675 
0.0167211 -0.303487 0.0591227 0.182844 -0.0655867 -0.980952 
0.483769 0.711719 0.28785 -0.808665 0.397662 -0.433504 
-0.293057 0.595088 0.113277 0.0799349 -0.506883 0.858301 
0.150379 -0.794547 -0.40695 -0.0814973 0.863494 0.497732 
0.38592 -0.0208787 -0.171284 -0.911188 -0.179496 0.370835 
0.3829 0.566466 0.0218792 -0.244732 -0.508131 0.825778 
-0.445899 -0.180471 -0.170921 0.487604 -0.248575 0.83693 
-0.389104 -0.32963 0.124973 -0.114141 0.136329 -0.984066 
0.439234 0.659131 0.108629 -0.59276 -0.390124 0.704584 
0.475814 -0.651666 -0.192897 -0.742432 0.454652 0.492024 
0.324793 0.343992 0.167828 0.0264971 0.289349 -0.956857 
0.587855 -0.36228 0.0194435 -0.648695 0.205728 -0.732714 
0.188473 -0.643596 0.111663 0.052058 0.268557 -0.961856 
0.207631 -0.360472 -0.37846 -0.00744819 -0.15398 0.988046 
-0.372992 0.697019 0.226061 0.843046 -0.24443 0.479089 
-0.410396 -0.260334 -0.217946 0.457439 -0.31091 0.833117 
0.0500984 -0.868239 -0.0325099 -0.07038 0.819559 -0.568656 
0.295488 0.463954 0.18659 0.491453 0.235017 -0.838594 
-0.0470896 0.333693 -0.114966 0.238885 -0.359527 0.902039 
0.62983 -0.330712 -0.14864 -0.934785 -0.0266627 0.354212 
-0.142095 0.0341854 0.131946 -0.251982 0.194571 -0.94797 
0.108135 0.666356 0.0911786 -0.801338 -0.234615 0.550284 
-0.376844 -0.603429 0.0983112 0.17574 0.19889 -0.964136 
-0.625215 0.0416113 0.0909104 0.908587 0.292409 -0.298273 
0.71943 0.111695 0.136818 -0.837625 0.191184 -0.511696 
0.238117 -0.376606 0.126839 0.09482 -0.129728 -0.987005 
-0.00614398 -0.545761 0.0663471 0.228232 -0.0445331 -0.972588 
-0.0765253 0.311463 0.126207 0.470174 0.318346 -0.82316 
-0.25082 -0.548323 -0.413391 0.253532 -0.46844 0.846336 
0.214238 0.0706384 0.095188 -0.13432 0.128239 -0.982605 
0.220737 0.325694 0.124399 0.639093 0.212554 -0.739176 
0.172261 0.271816 0.0320435 0.911897 -0.220502 -0.346154 
0.0567515 0.892321 0.388185 -0.179209 0.519985 -0.835164 
0.258631 0.590577 0.161103 0.969117 -0.183403 -0.164849 
0.0490668 0.781059 0.316411 -0.223823 0.392732 -0.892 
0.0854319 1.08345 0.316216 -0.483966 -0.80555 0.341857 
0.538559 -0.165584 0.0895577 0.226156 0.21159 -0.950833 
-0.183078 -0.868796 -0.157151 0.0488954 0.931431 0.360618 
-0.0219245 0.834568 0.147784 0.506453 -0.460719 0.728864 
-0.0815237 0.660968 0.0961602 0.825079 -0.352812 0.441325 
-0.409708 -0.800089 -0.329344 0.231362 0.903835 0.359936 
0.490311 0.130592 0.00294335 0.857548 -0.39566 0.328732 
-0.0726804 0.7444 0.146507 0.837196 -0.354612 0.416357 
-0.56339 -0.00922007 0.133326 0.47548 0.150779 -0.866709 
-0.222234 -0.165236 0.102682 -0.322109 0.165022 -0.932209 
-0.39153 -0.417448 -0.289578 0.493177 -0.326238 0.806439 
-0.00817259 1.07705 0.324109 0.610101 -0.730688 0.306386 
0.531195 -0.481002 0.0350523 -0.67505 0.247453 -0.695036 
-0.179214 0.10224 -0.189559 0.453955 -0.58692 0.67041 
0.434322 -0.0606681 0.01913 0.639312 -0.14949 -0.754276 
0.499318 0.107599 0.0904217 0.859699 -0.151525 -0.487809 
-0.0937033 -0.86938 -0.164941 0.0172631 0.917479 0.39741 
-0.452098 0.137111 0.124568 -0.74341 -0.1837 -0.643114 
0.00719589 -0.635502 -0.481064 -0.163788 -0.401045 0.901297 
0.651163 0.0292298 0.161067 -0.300239 0.331795 -0.894298 
0.0858856 -0.761851 -0.468621 -0.167115 0.67447 0.71914 
-0.353463 0.764519 0.38717 0.518817 0.424777 -0.741885 
-0.423629 -0.841695 -0.205406 0.224635 0.95312 0.202734 
0.108808 -0.0880978 -0.317272 0.0340124 -0.295452 0.954752 
0.0237887 0.0739968 -0.23406 -0.0732545 -0.492411 0.867275 
0.0307378 -0.271911 -0.356264 0.0627922 -0.27498 0.959397 
-0.363374 -0.16297 -0.208487 0.407947 -0.293743 0.864462 
-0.0513298 -0.23325 0.052973 -0.0847129 -0.0113146 -0.996341 
0.484142 -0.50393 -0.276303 -0.631779 0.347769 0.692757 
-0.315582 0.626582 0.330975 0.17993 0.389357 -0.903342 
-0.174228 0.469294 0.15982 -0.966305 -0.0604835 -0.250193 
0.69364 -0.0689311 0.0215584 -0.96793 0.250646 -0.0169824 
-0.546245 -0.354578 -0.148914 0.774631 -0.133678 0.618124 
-0.675718 0.450026 0.341211 0.559496 0.472767 -0.680776 
-0.0989594 0.574377 0.16256 0.887463 0.0298453 -0.459912 
-0.130182 0.319748 0.0472514 0.869817 -0.348934 -0.348803 
-0.337482 0.0765132 -0.10986 0.517948 -0.444647 0.730766 
0.656714 -0.18326 0.00987438 -0.897834 0.341568 -0.277895 
0.451308 0.913487 0.393714 -0.647408 -0.517869 -0.559174 
0.359618 -0.243434 -0.340053 -0.328198 -0.308217 0.89291 
-0.318649 0.473221 0.262993 0.289637 0.402499 -0.868392 
0.105574 0.0665537 0.0952999 0.0864391 0.143076 -0.98593 
0.396309 -0.604139 0.0848411 -0.414672 0.377327 -0.828053 
-0.257941 0.944437 0.344057 -0.334585 -0.792524 0.509862 
0.425176 0.348247 0.121311 -0.744533 0.29765 -0.597558 
0.274886 0.000797744 0.0620903 -0.365061 0.304396 -0.879814 
-0.16639 -0.618527 0.079092 -0.235435 0.029246 -0.97145 
-0.623969 0.512375 0.214183 0.121291 -0.580866 0.804912 
-0.486903 -0.290422 -0.182697 0.554563 -0.276049 0.785021 
-0.688271 0.526744 0.275477 0.802766 -0.389106 0.451845 
-0.376929 0.607903 0.180804 0.846537 -0.267069 0.460487 
-0.28014 -0.262112 -0.27781 0.311704 -0.254245 0.915533 
-0.222605 -0.38155 0.0849957 -0.240231 0.022306 -0.97046 
0.588358 -0.482485 -0.0393067 -0.8293 0.359777 -0.427578 
-0.176485 -0.401321 -0.354955 0.29148 -0.402088 0.867966 
-0.551599 0.258027 0.0118188 -0.0197353 -0.479825 0.877142 
-0.542711 0.477567 0.229756 -0.784687 -0.407106 0.467472 
0.425377 -0.581146 -0.288285 -0.62151 0.347998 0.701871 
0.477606 -0.585939 0.0364664 -0.630615 0.397486 -0.666581 
0.0938089 0.242922 -0.0349581 -0.840525 -0.498092 0.213126 
-0.585447 0.459547 0.355762 -0.367062 0.431228 -0.824201 
0.369802 -0.794014 -0.0543516 -0.518868 0.745126 -0.419003 
0.0284868 -0.791045 -0.402165 0.0604256 0.953829 0.294208 
-0.122888 -0.898632 -0.078725 -0.0121349 0.998552 -0.0524071 
-0.213739 0.509669 0.0847183 -0.487588 -0.516425 0.703962 
0.41235 -0.700266 -0.236275 -0.691459 0.390264 0.607929 
0.0983603 -0.580593 0.105337 0.2972 0.0566486 -0.953133 
0.00379266 1.01684 0.25926 0.447503 -0.540709 0.712302 
0.52569 -0.275234 0.0620357 -0.0929401 0.13876 -0.985955 
0.0728844 -0.0415739 0.0693429 0.0500314 0.214126 -0.975524 
-0.408197 0.0131411 -0.107563 0.391166 -0.578661 0.71564 
0.16208 -0.714725 -0.458039 -0.415965 0.0355365 0.908686 
0.455738 0.540162 0.0671805 -0.844336 -0.199909 0.497125 
0.0757387 0.849413 0.153766 -0.46317 -0.388906 0.796383 
0.210283 -0.7265 0.0769373 -0.0683996 0.492719 -0.867496 
-0.0787063 -0.63676 0.0604871 -0.0452136 0.0251796 -0.99866 
0.504083 -0.300723 -0.271477 -0.555372 -0.323215 0.76622 
0.399013 0.723472 0.352466 0.0287425 0.579457 -0.814496 
0.435663 0.368378 0.00739913 -0.919193 -0.00936828 0.393695 
0.104528 -0.819926 -0.334784 0.125343 0.93216 0.339656 
0.427885 -0.14918 -0.227103 -0.58245 -0.623641 0.521367 
0.54641 -0.22697 -0.211149 -0.462215 -0.36734 0.807105 
-0.181677 -0.812739 -0.31376 0.0478199 0.934563 0.352568 
-0.48932 -0.789313 -0.24626 0.904609 0.371357 0.209229 
-0.18998 0.426125 0.0608396 -0.722885 -0.0445932 0.689528 
0.119933 0.977437 0.246397 -0.691215 -0.382815 0.612923 
0.313731 0.609096 0.060647 0.395365 -0.59226 0.702079 
-0.332844 -0.0029078 -0.152828 0.412205 -0.417706 0.809697 
-0.0614921 -0.00462685 -0.274902 0.0515914 -0.277662 0.959293 
-0.158793 0.00108804 -0.25231 0.35268 -0.273497 0.894883 
-0.495045 -0.164506 0.159888 0.21062 0.142559 -0.967117 
-0.0663997 0.478016 -0.0396497 0.559855 -0.40369 0.7236 
-0.663693 0.541442 0.381501 0.351713 -0.0784878 -0.932812 
0.4884 0.666973 0.193679 -0.985485 0.029701 0.167143 
-0.47974 -0.696854 -0.271136 0.93049 -0.146394 0.335792 
-0.225661 -0.338727 -0.313584 0.238249 -0.324398 0.915425 
-0.213012 0.29007 -0.0290981 -0.17339 -0.619595 0.765532 
-0.0876871 -0.134978 0.0627601 -0.221803 0.12006 -0.967672 
-0.0731989 0.488811 0.182205 0.551207 0.134079 -0.823525 
-0.0108124 0.709693 0.0640688 0.315414 -0.480158 0.818512 
-0.154983 0.154285 0.136297 -0.347747 -0.0903356 -0.933226 
-0.165706 -0.249567 -0.310796 0.301633 -0.205655 0.93098 
-0.607621 -0.104547 0.000576971 0.948989 -0.0290951 0.313963 
0.317309 0.788022 0.34778 0.775602 0.290799 -0.560247 
0.10829 0.478932 0.0575662 -0.929276 -0.146259 0.339196 
-0.560743 -0.476678 -0.126826 0.925088 0.0996127 0.366455 
-0.408099 -0.0642038 -0.155991 0.394276 -0.368806 0.841741 
0.660675 -0.0680943 0.10592 -0.582233 0.436153 -0.68613 
-0.189349 0.543962 0.228445 -0.921498 0.0626252 -0.383302 
-0.308702 -0.492292 -0.367923 0.324426 -0.398935 0.857671 
-0.294638 -0.863334 -0.158891 0.0701405 0.941434 0.329821 
0.658424 -0.159484 -0.0829586 -0.933738 0.100758 0.343485 
-0.120906 -0.845459 -0.0032258 -0.0979824 0.620544 -0.778026 
-0.263954 -0.647379 -0.465454 0.265164 -0.424148 0.865902 
0.676435 0.0093183 -0.0512261 -0.81895 -0.162285 0.55044 
0.0859012 -0.479412 0.09924 0.344902 -0.0860407 -0.934687 
0.621786 -0.235115 -0.151139 -0.803506 -0.0860236 0.589048 
0.426366 -0.682491 0.0195169 -0.566242 0.521863 -0.637989 
-0.0552578 1.00058 0.339982 0.961453 -0.274953 0.00300796 
-0.528533 -0.396608 0.089359 0.565844 0.250846 -0.785428 
-0.259761 -0.825238 -0.26946 0.0540647 0.939266 0.338906 
0.603718 -0.141192 -0.151308 -0.468973 -0.21457 0.856752 
0.575328 -0.350298 -0.235827 -0.682084 -0.118799 0.721559 
-0.255555 0.00744759 0.154399 -0.275534 0.0710477 -0.958662 
0.123342 0.73886 0.253706 -0.832108 0.165863 -0.529231 
0.0454507 1.0542 0.409225 0.0116121 -0.432875 -0.901379 
0.167511 -0.576641 -0.422403 -0.211475 -0.243693 0.946516 
-0.224455 0.682286 0.200932 -0.692161 -0.414341 0.590961 
-0.12876 -0.0605901 0.0938486 -0.331216 0.305327 -0.892789 
-0.41074 -0.546939 -0.324628 0.655902 -0.235792 0.717074 
-0.385698 0.718097 0.314597 0.941117 0.17377 -0.290005 
-0.206277 0.578338 0.141273 -0.686585 -0.471201 0.553688 
-0.567909 -0.499922 -0.0372542 0.960075 0.241085 -0.141896 
0.179362 0.0546943 -0.268431 0.0489817 -0.384102 0.921991 
-0.177627 -0.093446 -0.26955 0.347164 -0.256627 0.902009 
-0.50089 -0.653702 -0.193787 0.961912 0.0992659 0.2547 
0.646452 0.15975 0.177097 0.00496144 -0.11779 -0.993026 
0.222265 -0.651343 -0.418739 -0.433832 -0.0990617 0.895531 
-0.48727 0.220952 0.153913 -0.750947 0.00106059 -0.660362 
0.259753 -0.464085 0.139379 0.060364 -0.0524789 -0.996796 
0.429182 0.577102 0.247134 -0.445815 0.398508 -0.801524 
-0.039174 -0.876466 -0.037206 -0.0539523 0.838816 -0.541734 
0.280417 -0.576107 -0.394746 -0.38489 0.0176043 0.922795 
0.259997 0.365112 -0.0927554 0.408858 -0.556473 0.723307 
0.12047 0.872454 0.319099 -0.787571 0.407654 -0.462115 
0.189698 -0.798026 0.02613 -0.0818092 0.693919 -0.71539 
0.234137 0.226176 0.0959871 0.394381 0.188117 -0.899486 
0.455101 0.0309874 -0.0199211 0.764273 -0.641653 0.0645622 
-0.0863574 -0.767446 -0.452224 0.0412082 0.904732 0.423983 
0.0653187 0.151645 -0.170412 -0.134185 -0.71786 0.683134 
0.115865 0.651845 0.229671 -0.761433 0.300812 -0.574222 
0.222328 0.425854 0.124693 0.747973 -0.105017 -0.655369 
-0.443989 -0.407825 0.117081 0.107496 0.146693 -0.983324 
-0.434862 0.047403 0.137572 -0.0579948 -0.34323 -0.937459 
0.00256936 -0.727986 0.0599837 0.129474 0.266057 -0.955223 
-0.540791 -0.591113 -0.0455077 0.92007 0.354199 -0.167375 
0.706186 0.159032 0.0338935 -0.817389 0.00841654 0.576025 
0.560227 0.0521428 -0.0910537 0.127811 -0.465327 0.875862 
-0.266025 0.808665 0.419606 -0.357264 0.376946 -0.854561 
0.613853 0.266591 0.115284 0.395648 -0.702051 -0.592104 
-0.64651 0.203365 0.167228 0.770987 0.353326 -0.529849 
-0.0604881 -0.808875 -0.340308 0.0322727 0.938253 0.344442 
-0.17778 -0.304004 0.0773868 -0.242833 0.0504975 -0.968753 
-0.232951 0.0973839 0.152635 -0.106835 0.0300996 -0.993821 
-0.492504 0.174925 -0.00497116 -0.40454 -0.299679 0.864025 
-0.246583 -0.77948 -0.403237 0.0495342 0.958355 0.28125 
0.0155851 0.130558 0.0930217 -0.107689 -0.0359927 -0.993533 
-0.325444 -0.392173 0.108682 -0.186043 0.0492491 -0.981306 
-0.381681 0.322608 0.136022 0.945109 0.0674736 -0.319712 
-0.528945 -0.49321 0.0488281 0.720184 0.285245 -0.632432 
-0.374194 0.14184 0.0813643 0.681564 -0.425162 -0.595574 
0.18617 -0.0374899 0.0686829 -0.0771442 0.231679 -0.969729 
0.159921 -0.478841 -0.398017 -0.0987768 -0.208075 0.973113 
-0.208434 -0.862072 -0.00151951 -0.0489109 0.72677 -0.685137 
-0.612927 -0.0148451 0.0179232 0.957083 0.0846695 0.277171 
0.0791086 0.251539 0.0572183 -0.793982 -0.0948939 -0.60049 
-0.597817 -0.205918 0.086162 0.858688 0.138065 -0.493551 
0.426244 0.862379 0.24648 -0.175915 -0.693577 0.698574 
-0.444298 0.0627804 -0.0405074 0.103436 -0.627273 0.7719 
-0.584315 -0.385266 0.0111976 0.9386 0.233027 -0.254419 
-0.130084 0.17155 -0.161987 0.491399 -0.580363 0.649389 
0.701205 0.287253 0.0899749 -0.50238 -0.855863 -0.122931 
0.174216 -0.292551 0.101933 0.233408 -0.154986 -0.959948 
-0.208215 0.726826 0.276391 -0.982587 -0.175368 0.0613917 
-0.316578 -0.672549 0.088368 0.0745883 0.255781 -0.963853 
0.342655 -0.795475 -0.252706 -0.679569 0.500766 0.536115 
0.143416 -0.87283 -0.19982 0.075723 0.952385 0.295344 
0.171186 -0.890845 -0.115895 -0.0957086 0.990446 -0.0992759 
0.214969 0.420568 0.00233609 0.770008 -0.411015 0.488011 
-0.356276 -0.0959918 0.164923 -0.173146 0.203792 -0.963581 
-0.0740142 0.095253 0.119248 -0.2958 -0.00224237 -0.955247 
0.044201 -0.410241 -0.400395 -0.0605467 -0.27132 0.960583 
0.192492 0.338652 -0.0298912 0.833116 -0.419955 0.359937 
-0.347276 -0.329708 -0.276445 0.366142 -0.348934 0.862662 
0.424835 -0.449407 -0.339565 -0.475558 0.167524 0.863586 
-0.39746 -0.865946 -0.12368 0.330599 0.942484 0.0492839 
-0.0722202 0.252237 -0.14192 0.389302 -0.430295 0.814426 
0.396197 0.824264 0.408805 0.0429548 0.390674 -0.919526 
0.116077 0.192402 -0.108048 0.133297 -0.850565 0.508696 
-0.14567 0.245643 -0.0780074 0.569854 -0.481709 0.66575 
0.493376 0.860992 0.313407 -0.927502 -0.352782 0.123629 
0.140014 -0.851181 -0.0302468 -0.104601 0.796485 -0.595542 
0.710127 0.0254692 0.0316933 -0.978149 0.082985 0.190623 
0.364424 0.935305 0.361507 0.386648 -0.913253 0.128349 
-0.615399 0.60815 0.319993 -0.0486493 -0.99877 0.0095972 
0.336128 -0.03554 -0.24653 -0.60133 -0.268881 0.752399 
0.304046 0.659338 0.263965 0.70869 0.236583 -0.66467 
-0.355264 -0.00431749 0.174805 0.0307169 -0.0920486 -0.995281 
-0.309685 0.888957 0.446145 0.0366072 -0.0220148 -0.999087 
-0.371508 0.249909 0.0217782 0.906025 -0.119392 0.406036 
-0.386581 0.529898 0.230585 0.911388 0.19561 -0.362091 
0.39762 0.224789 -0.0720897 -0.907899 0.051713 0.415988 
-0.0815907 0.643684 0.216972 0.786733 0.224341 -0.575085 
-0.532347 0.373296 0.124735 -0.563537 -0.600645 0.567143 
-0.34266 -0.597769 -0.399957 0.497305 -0.404358 0.767582 
0.302089 0.165332 0.0883385 -0.192813 0.241328 -0.951096 
0.237737 -0.273194 -0.363571 0.0202345 -0.245313 0.969233 
0.0812215 -0.89045 -0.137336 0.0335732 0.985499 0.166324 
-0.28384 0.458503 0.032319 0.0828633 -0.422653 0.902496 
-0.49219 -0.579021 0.0512761 0.641695 0.296222 -0.707446 
0.0961487 -0.692124 0.0854331 0.159895 0.288723 -0.943966 
0.29468 -0.763129 -0.33346 -0.726658 0.362769 0.58341 
0.00949931 -0.0664029 -0.294827 0.0852276 -0.302695 0.949269 
0.341375 0.543303 0.242709 0.237145 0.400018 -0.885295 
0.138088 1.00863 0.334336 -0.951259 -0.307874 -0.0179009 
-0.0955758 -0.699436 -0.510984 0.0589507 0.0121781 0.998187 
0.342631 0.421421 -0.063581 -0.222219 -0.437987 0.871083 
0.737934 0.20391 0.112674 -0.979445 -0.0487895 -0.195723 
0.440763 -0.0764272 -0.114463 -0.144636 -0.614327 0.775682 
0.0130064 0.316616 0.145365 -0.172515 0.52447 -0.833769 
0.40038 -0.386368 0.104268 -0.285538 -0.256222 -0.923482 
0.00716287 0.967517 0.410741 0.276516 0.139714 -0.950799 
-0.177246 -0.655423 -0.487153 0.174076 -0.354338 0.918772 
0.313497 -0.646911 0.0972537 -0.250014 0.394643 -0.884167 
0.528649 0.200907 0.0525428 0.797806 -0.602907 0.00315617 
0.514471 -0.642139 -0.112259 -0.830356 0.547683 0.102725 
-0.572828 -0.315065 0.0772041 0.74167 0.258287 -0.619042 
0.550894 -0.0733355 0.109747 0.369938 0.25179 -0.894286 
-0.327866 -0.790246 -0.363266 -0.0465243 0.952604 0.300633 
0.167453 -0.442386 0.119386 0.242138 -0.0896554 -0.966091 
-0.570061 -0.258098 -0.0920765 0.812019 -0.137042 0.567313 
0.00313464 -0.151413 -0.321197 0.122147 -0.280234 0.952129 
0.0972612 0.338341 0.0869527 -0.790229 0.482602 -0.377668 
0.313433 -0.168313 -0.323728 -0.178359 -0.448015 0.876054 
0.593958 -0.504263 -0.12678 -0.873841 0.458371 0.162164 
-0.56045 -0.163766 -0.0791346 0.720309 -0.149709 0.677306 
-0.485843 -0.562088 -0.241333 0.824578 -0.0082802 0.565688 
