ply
format ascii 1.0
element vertex 500
property float x
property float y
property float z
property float nx
property float ny
property float nz
end_header
-0.155606 -0.769263 -0.461537 0.0972931 -0.475427 -0.874359 
0.501535 0.535275 -0.202017 0.74823 0.132986 -0.649974 
0.0529289 -0.726698 -0.360998 0.801094 -0.289802 -0.523702 
-0.264447 0.111872 0.337538 -0.806651 -0.154947 0.570356 
-0.545201 -0.414309 -0.138247 -0.935167 0.335944 0.11227 
-0.371428 0.0609002 -0.196965 -0.4677 -0.395766 0.790333 
0.611306 0.589899 -0.0814304 0.842934 -0.284839 -0.45643 
-0.0520687 -0.300141 -0.195044 0.396166 0.910991 -0.114668 
0.3886 0.374193 -0.361094 0.586609 0.038368 -0.808961 
-0.291518 -0.23774 -0.255485 0.0628204 0.985421 -0.158109 
-0.0779597 -0.397704 0.256262 -0.771658 0.36292 0.522334 
-0.558692 -0.465383 -0.263359 -0.992817 -0.119079 -0.0115747 
-0.465869 -0.792953 0.0158972 -0.833606 -0.469847 0.290421 
0.462591 0.186511 0.454288 0.724136 -0.0494648 0.687881 
-0.158013 -0.950338 -0.0841094 0.0955175 -0.984548 0.146769 
0.489781 0.157334 -0.208985 0.779832 -0.342239 -0.524152 
-0.293 -0.478221 -0.513735 -0.0941533 0.0531515 -0.994138 
-0.568272 -0.271137 -0.308807 -0.861114 0.123079 0.493289 
0.276638 0.315297 0.5243 0.488383 0.552231 0.675665 
-0.511484 0.662371 0.017265 -0.0951378 1.1651e-17 0.995464 
-0.25561 0.671898 0.262469 -0.717306 0.597046 0.359177 
0.20527 -0.93666 -0.168331 0.137049 -0.762483 -0.632327 
0.32071 0.681008 0.41653 0.428361 0.56713 0.70347 
-0.200087 -0.525971 0.180736 -0.29909 0.0813453 0.950751 
-0.500814 0.682868 -0.155666 -0.275449 0.538241 -0.796508 
-0.0326894 -0.170615 0.0714367 -0.788724 -0.572313 -0.224438 
0.182523 0.274756 0.630004 0.424305 0.261242 0.867017 
-0.380808 -0.289913 -0.0206561 -0.320554 0.857997 0.401355 
-0.193121 -0.945456 0.238106 0.0414962 -0.956859 0.287575 
-0.201037 -0.0257603 0.287618 -0.672169 -0.688855 0.271418 
0.36167 -0.324504 0.211869 0.936633 0.243033 0.252296 
0.0705829 0.294241 -0.463593 -0.0531743 -0.117846 -0.991607 
-0.101742 0.320134 0.479817 -0.76788 0.0773627 0.635905 
0.479639 0.719184 0.0969745 0.423936 0.514539 0.745338 
-0.0307499 -0.885216 -0.337671 0.211069 -0.580767 -0.786231 
0.24299 -0.0263496 -0.252474 0.273679 -0.790867 -0.547384 
-0.40018 -0.832716 -0.304324 -0.747626 -0.435122 -0.501722 
0.109604 0.54999 -0.433492 0.0971985 0.344468 -0.933753 
0.567764 0.176288 0.234746 0.932261 -0.280417 0.228596 
-0.0379137 0.727255 -0.299635 -0.292061 0.727954 -0.620309 
0.388477 -0.0788991 0.0670492 0.709252 -0.698677 -0.0938686 
0.000697465 0.111538 -0.386242 -0.208547 -0.515088 -0.83138 
0.291144 -0.393616 0.363232 0.679148 0.059496 0.731586 
-0.463493 0.298005 -0.14954 -0.918228 -0.389525 -0.0716105 
-0.266463 0.222982 0.340861 -0.607181 -0.0941204 0.788969 
0.273404 -0.0395392 0.435961 0.393783 -0.796429 0.458951 
0.157698 -0.673143 0.278881 0.458437 -0.55794 0.691764 
0.32662 -0.216203 0.0673321 0.934487 0.0581555 -0.351215 
0.229448 -0.120161 0.333901 0.399579 -0.50329 0.766183 
-0.321531 -0.844974 -0.378354 -0.510137 -0.437841 -0.740308 
-0.55835 -0.516406 -0.0988213 -0.995592 0.0377734 0.0858487 
-0.0229704 -0.119607 0.302262 -0.479317 -0.777116 0.407856 
0.438795 0.987027 0.0885641 -0.27732 0.731789 0.622558 
-0.27731 0.50281 -0.30676 -0.448862 0.271534 -0.851348 
0.184008 -0.94988 -0.0086735 0.0537961 -0.998551 -0.00107857 
-0.442074 0.585371 0.0161978 -0.189886 2.32543e-17 0.981806 
-0.444071 -0.455769 -0.480852 -0.420521 -0.317811 -0.849799 
-0.446387 0.747393 0.0172575 -0.0974256 0.702613 0.704871 
0.124824 -0.41282 -0.174642 0.615614 0.4671 -0.634694 
-0.274581 -0.576508 -0.511646 -0.212757 -0.141856 -0.966753 
0.31027 0.393896 0.464805 0.423979 0.171458 0.889294 
0.332715 -0.82062 -0.0302028 0.848448 0.474571 0.234346 
-0.0332448 0.0717365 0.575001 -0.275061 -0.492564 0.825665 
-0.504077 0.753348 -0.0776488 -0.0829406 0.942384 -0.324089 
-0.341965 0.300376 0.29184 -0.81069 -0.143097 0.567719 
0.676219 0.891114 0.0316093 0.823596 0.11454 0.555491 
0.591021 0.496627 -0.0525847 0.925143 -0.232466 -0.300117 
0.0749108 -0.346476 0.398693 -0.41546 0.210358 0.884953 
0.0873502 -0.62504 -0.354214 0.935757 -0.0901427 -0.340929 
0.385202 0.112111 -0.296925 0.576107 -0.451051 -0.681655 
0.365251 0.00660095 0.419716 0.541182 -0.69637 0.47137 
-0.270451 -0.943026 -0.0412069 -0.0542821 -0.997722 0.0400625 
-0.42135 -0.270728 -0.156838 -0.4588 0.867686 0.191373 
0.0327763 -0.0587914 -0.218547 -0.131206 -0.840809 -0.525191 
-0.173958 -0.946312 0.138077 0.242386 -0.956513 -0.162269 
0.100307 -0.908334 0.311718 0.767482 -0.326211 0.551867 
0.467805 -0.00968062 0.0673355 0.691317 -0.721549 -0.0380592 
0.107146 -0.949012 0.0969285 0.10144 -0.993099 0.0588656 
0.0121079 0.500793 -0.445071 -0.151431 0.230659 -0.961179 
0.529271 0.264409 -0.191414 0.862702 -0.13102 -0.488446 
0.288831 0.761796 -0.225956 0.215786 0.692745 -0.688143 
0.251034 -0.591587 0.293497 0.534302 -0.640978 0.551062 
-0.0105822 -0.303608 -0.105107 0.182159 0.9733 -0.139659 
-0.570801 -0.172665 -0.345413 -0.889145 0.248205 0.384467 
-0.0237671 -0.245423 0.153803 -0.975759 0.218392 0.0140855 
0.434299 0.528937 -0.283885 0.683071 0.293679 -0.668705 
0.238167 0.61279 0.486653 0.255301 0.23941 0.936752 
0.304747 -0.369925 -0.0314573 0.705657 0.211141 -0.676364 
-0.0222445 0.00315673 -0.284298 -0.250902 -0.715569 -0.651928 
0.205074 -0.819212 0.144908 0.753394 -0.166826 0.636056 
-0.408416 -0.186518 -0.354381 0.952334 -0.011392 0.304844 
0.358005 0.575001 0.446293 0.482356 0.0869691 0.871647 
-0.435915 0.14546 -0.232707 -0.85878 -0.304618 0.411953 
-0.187941 0.0794369 0.428853 -0.756242 -0.101283 0.646405 
0.341961 -0.489801 0.00929196 0.872106 -0.158783 -0.462838 
-0.339322 -0.0254379 -0.33875 0.885118 -0.290821 -0.363304 
-0.520492 -0.245921 -0.500739 -0.352687 -4.31917e-17 -0.935741 
0.0895842 -0.52888 -0.314998 0.930296 0.173266 -0.323307 
-0.541486 0.530561 0.0234221 -0.0543634 -6.65759e-18 0.998521 
-0.506773 0.457132 -0.2048 -0.676077 -0.203321 -0.708223 
0.459284 0.415987 -0.293963 0.741969 0.120279 -0.659556 
0.191446 0.621379 -0.38231 0.253193 0.480678 -0.839548 
-0.0457452 -0.322422 -0.305551 0.512925 0.810054 -0.284113 
0.584234 0.185984 0.0438214 0.961713 -0.263379 -0.0757647 
-0.604016 0.527525 -0.0718631 -0.952977 -0.202861 -0.225127 
0.145046 -0.0266099 -0.283779 0.0509413 -0.79962 -0.598342 
-0.415584 -0.88232 -0.213435 -0.775734 -0.576021 -0.257753 
-0.237711 -0.9453 -0.145966 -0.0613701 -0.998042 0.0121102 
0.534133 0.438802 -0.181212 0.859987 0.106547 -0.49907 
-0.547924 -0.576229 -0.210695 -0.9753 -0.17404 -0.136012 
-0.0259516 0.851746 0.133019 -0.275072 0.955685 0.104888 
-0.123936 -0.835797 0.288318 -0.348089 0.522583 0.778294 
-0.0533415 -0.476731 0.319353 -0.712879 0.0753969 0.697223 
-0.38365 0.31885 0.19314 -0.930423 -0.0375234 0.364563 
0.219746 0.0256524 0.540687 0.185388 -0.58993 0.785884 
0.601996 0.45951 0.0711534 0.975667 -0.218614 -0.0167668 
0.456091 0.995881 -0.0164432 -0.459773 0.822685 -0.334362 
-0.501311 -0.357667 -0.0716894 -0.765472 0.591665 0.252953 
-0.116112 -0.527191 0.25265 -0.751537 9.20367e-17 0.659691 
0.549303 0.652732 0.114727 0.301333 0.570427 0.764076 
-0.560969 0.435169 -0.108863 -0.849484 -0.381804 -0.364147 
-0.608972 0.61438 0.00907875 -0.632918 7.75101e-17 0.774219 
0.557934 0.345746 -0.144632 0.922943 0.00082505 -0.384935 
-0.0205639 0.260667 -0.444379 -0.233434 -0.19607 -0.9524 
-0.310592 -0.748483 -0.441712 -0.411483 -0.415752 -0.811068 
-0.0912287 0.65348 -0.343864 -0.384679 0.570296 -0.725799 
-0.147789 0.799497 0.146727 -0.492878 0.862273 0.11643 
0.56172 0.217108 -0.10618 0.921788 -0.191158 -0.337292 
0.304102 0.12873 -0.359655 0.423923 -0.410455 -0.807351 
-0.276702 0.0267854 0.0930861 -0.759093 -0.650718 -0.0185568 
0.117605 0.0976274 0.577821 0.00273457 -0.457344 0.889285 
0.0508439 -0.254919 0.349336 -0.588842 0.318932 0.742663 
0.0673721 -0.127197 -0.0994651 -0.163618 -0.817856 -0.551671 
-0.0868394 -0.915789 0.102796 -0.0609641 -0.972714 -0.223853 
0.112594 0.651421 0.488463 0.0308407 0.483006 0.875074 
-0.323537 0.386659 -0.303707 -0.349822 0.148821 -0.92492 
0.400939 0.44869 0.416168 0.400523 0.0537705 0.914708 
0.195665 -0.606234 -0.130672 0.669394 -0.103258 -0.735696 
0.592419 0.284012 -0.0176161 0.984469 -0.0611659 -0.164557 
-0.380725 -0.397869 0.108558 -0.330547 0.553481 0.764459 
-0.0152461 -0.00976579 0.505933 -0.290547 -0.720143 0.63006 
0.273307 -0.632415 -0.0315008 0.898057 -0.172711 -0.404555 
0.349333 -0.12045 0.175184 0.865578 -0.447906 0.223954 
0.347828 0.574634 -0.332432 0.509786 0.406274 -0.758327 
-0.554488 -0.380121 -0.406404 -0.885774 -0.288263 -0.363742 
0.299731 -0.624593 0.0714215 0.901144 -0.431903 -0.0373991 
-0.397629 0.184443 -0.049896 -0.760241 -0.647056 -0.057907 
-0.159012 0.0429991 -0.255821 -0.347879 -0.713154 -0.608598 
0.234325 -0.693179 -0.0977935 0.719805 0.19721 -0.665575 
0.443335 0.0891752 0.422674 0.704439 -0.493115 0.510493 
0.15947 0.820063 0.311037 0.0499647 0.87649 0.478819 
0.155239 -0.240114 0.379239 0.0374959 0.401628 0.915035 
-0.148966 0.69192 0.377946 -0.498508 0.635721 0.589363 
0.527129 0.0689003 0.192206 0.825918 -0.540872 0.159112 
-0.367019 -0.663289 0.187072 -0.352214 -0.048484 0.934663 
0.386555 0.909845 0.125473 -0.143021 0.363101 0.920708 
0.433549 -0.00584319 0.282283 0.6509 -0.703985 0.284136 
-0.0559924 0.695643 0.429515 -0.293664 0.614823 0.731952 
0.043425 -0.538512 -0.417283 0.780169 0.175231 -0.600525 
0.078458 -0.949785 0.00254661 -0.180868 -0.983325 -0.0189379 
-0.291982 -0.600393 0.198786 0.0137087 0.104075 0.994475 
-0.571112 0.411579 0.0185405 -0.721085 -0.244064 0.648436 
0.0113696 -0.442565 -0.404711 0.678673 0.457889 -0.57423 
-0.506082 -0.042133 -0.322394 -0.841602 0.410954 0.35046 
-0.301244 0.0864366 0.224852 -0.866645 -0.446791 0.222046 
0.658527 0.672611 0.0804377 0.733503 0.0255004 0.679208 
-0.383007 -0.76364 0.158978 -0.636464 -0.206016 0.743284 
-0.465354 0.38644 0.0606165 -0.43436 0.368594 0.82187 
0.459628 0.310229 -0.295922 0.734832 -0.0796107 -0.67356 
0.145031 0.867632 -0.0464773 0.0112977 0.981222 -0.192551 
-0.0110787 -0.286472 -0.000775688 -0.366151 0.880606 -0.300776 
-0.49234 -0.359503 -0.491927 -0.414836 -0.23759 -0.878329 
0.275642 0.866565 -0.0576233 -0.237339 0.923114 -0.30254 
-0.141975 -0.00862707 0.413472 -0.565385 -0.642552 0.517171 
0.126179 -0.118103 0.367134 0.0547448 -0.700818 0.711236 
-0.264319 -0.260258 -0.0564102 -0.032071 0.933987 0.355864 
-0.365552 0.450107 0.233447 -0.958063 0.154707 0.241207 
0.332283 0.252831 -0.386318 0.490008 -0.188596 -0.851072 
0.260671 -0.706228 0.108346 0.906711 -0.285273 0.310635 
0.573623 0.462815 0.223738 0.930955 0.0911108 0.353585 
-0.110288 0.823089 0.056149 -0.427615 0.903581 -0.0262053 
-0.11454 -0.0790441 0.312583 -0.423248 -0.860105 0.284746 
-0.0690952 0.354302 -0.439963 -0.307991 -0.0158768 -0.951257 
0.271232 0.321284 -0.425119 0.380077 -0.0595225 -0.923038 
0.441739 -0.0174664 -0.0301708 0.657734 -0.723479 -0.209675 
-0.0813716 0.0728252 -0.328172 -0.342815 -0.607639 -0.716416 
-0.218572 -0.806556 0.271962 -0.0533169 0.5602 0.82664 
0.144653 0.224162 -0.447509 0.122438 -0.269188 -0.955273 
0.17651 -0.503773 -0.158845 0.692503 0.0351492 -0.720558 
-0.450008 0.0384173 -0.29501 -0.890852 0.335834 0.305938 
0.334795 -0.223904 0.200159 0.936423 0.208068 0.282525 
-0.379975 0.466627 -0.27713 -0.318117 0.124232 -0.939877 
-0.0553474 0.402425 0.516746 -0.570159 0.182178 0.80108 
0.524221 0.634818 -0.175965 0.57388 -0.045028 -0.817701 
-0.042171 -0.60133 0.317889 -0.579909 -0.243001 0.777596 
-0.0356898 0.783043 0.337607 -0.269892 0.813756 0.514743 
-0.519543 -0.334087 -0.216721 -0.748616 0.493641 0.442597 
-0.470858 -0.805939 -0.137721 -0.889947 -0.450487 -0.0711069 
0.204646 -0.724908 0.192433 0.720053 -0.413863 0.556993 
-0.0798741 0.169103 -0.394084 -0.319965 -0.430496 -0.843976 
0.149649 0.124176 -0.406111 0.0934684 -0.456806 -0.884643 
0.0258573 -0.63653 -0.435718 0.660582 -0.174668 -0.730153 
-0.378421 -0.935096 -0.133085 -0.427378 -0.904025 -0.00929061 
-0.296685 0.665024 0.169819 -0.791913 0.534139 0.295921 
-0.414967 -0.209497 -0.454128 0.848685 0.177544 -0.498208 
-0.510343 -0.0758465 -0.41459 -0.642611 0.602339 -0.473538 
-0.00767778 -0.363718 0.339344 -0.727662 0.228416 0.646788 
0.0805209 -0.83399 -0.304384 0.764274 -0.0353264 -0.643923 
0.0313833 0.660399 -0.3781 -0.0847429 0.566584 -0.819635 
0.575141 0.271829 0.265418 0.953607 -0.0370897 0.298761 
0.316922 0.0370457 -0.2845 0.434653 -0.646173 -0.627325 
-0.399274 -0.101143 -0.421825 0.816344 -0.0045355 -0.577549 
-0.49011 0.291265 0.0568823 -0.771704 -0.424993 0.473132 
0.382703 -0.396054 0.135936 0.996614 0.0606327 -0.0555287 
-0.0306682 -0.16 0.209272 -0.802843 -0.535921 0.261213 
-0.248526 -0.385517 -0.48724 0.135746 0.485131 -0.863841 
0.528049 0.959793 -0.0915885 0.0432446 0.623524 -0.780607 
-0.316942 0.08478 -0.0363634 -0.761431 -0.64358 -0.0776365 
0.0117001 0.633252 0.490464 -0.173752 0.4253 0.888218 
0.18488 -0.440244 0.41456 0.195196 -0.141773 0.970463 
0.251698 0.204629 0.61558 0.357196 0.0335993 0.933425 
-0.250294 0.00411518 0.205731 -0.758699 -0.638212 0.130617 
0.55793 0.858207 0.067815 0.12369 -0.0749121 0.989489 
0.679514 0.763668 0.0262604 0.96845 0.0190731 0.248476 
-0.0258236 -0.738175 0.285703 -0.3809 0.227522 0.896186 
-0.194727 0.778068 0.0188215 -0.43828 0.898425 -0.0272479 
-0.383546 0.278739 -0.327093 -0.209219 0.244952 -0.946692 
-0.0404499 -0.79764 -0.40011 0.426872 -0.490233 -0.759902 
-0.0180169 -0.914025 -0.00605752 -0.228247 -0.973528 -0.0120939 
-0.0307661 -0.510955 -0.475146 0.503467 0.219128 -0.835766 
-0.170315 -0.0508387 -0.00110213 -0.602524 -0.783857 -0.150111 
0.599255 0.258106 0.114082 0.994165 -0.0968989 0.0473898 
-0.0474047 0.804776 -0.160665 -0.326403 0.879722 -0.34576 
-0.270492 0.727833 -0.0764589 -0.202149 0.94193 -0.26815 
0.337195 0.915404 0.0383376 -0.604256 0.796569 0.0187713 
-0.282502 -0.944615 0.0847733 -0.181453 -0.980558 -0.0747077 
-0.246033 0.432996 0.407119 -0.603683 -0.110896 0.789474 
0.617438 0.70715 -0.111929 0.764344 -0.0832485 -0.639413 
-0.44077 -0.863339 -0.0628409 -0.840625 -0.532779 0.0974432 
0.207674 -0.419981 -0.117438 0.527713 0.259989 -0.808656 
-0.137412 0.460094 -0.402416 -0.437761 0.17819 -0.881257 
-0.547258 -0.616028 -0.0553876 -0.979929 -0.15327 0.127466 
0.279828 -0.738522 -0.0017911 0.950981 0.302694 0.0633333 
-0.487988 -0.148165 -0.491129 0.00249924 0.383351 -0.923599 
0.161286 -0.833899 -0.19155 0.554862 0.261706 -0.789707 
-0.598309 0.728024 -0.0427021 -0.633968 0.735428 0.239229 
-0.154968 -0.437777 0.194287 -0.594122 0.310634 0.741974 
-0.179756 -0.480221 -0.51649 0.100654 0.227672 -0.968522 
0.440402 0.206226 -0.290916 0.686977 -0.247432 -0.683257 
-0.168428 -0.632665 0.191267 -0.325327 3.98411e-17 0.945602 
-0.416126 0.562769 -0.245621 -0.246739 0.317402 -0.915629 
-0.107106 0.185759 0.537035 -0.832103 0.126898 0.539908 
0.111389 -0.635229 -0.222295 0.912992 -0.142737 -0.382192 
0.00812654 -0.950108 0.325241 0.0589813 -0.871815 0.486271 
-0.139517 -0.0861055 0.21657 -0.497321 -0.861399 0.103264 
0.0973304 -0.948073 0.195604 0.403135 -0.913379 0.0567601 
-0.251196 0.111615 -0.281763 0.217983 -0.446025 -0.86807 
0.478306 0.669679 0.183822 0.675235 0.664305 0.320557 
0.371079 -0.488006 0.103255 0.963911 -0.242605 -0.10963 
0.117617 0.876731 0.0879502 -0.0227278 0.998849 0.0422315 
0.265022 0.421947 -0.424487 0.370805 0.118011 -0.921183 
-0.392344 0.649985 -0.202256 -0.0600053 0.618115 -0.783794 
0.141527 -0.866804 0.233039 0.895417 -0.145122 0.420914 
0.512241 0.557606 0.302779 0.806401 0.392261 0.442549 
-0.35123 0.133167 -0.123351 -0.753642 -0.603942 0.259379 
-0.381366 -0.0283254 -0.242446 0.0658008 -0.47726 0.876295 
0.0625048 0.828813 -0.172846 -0.105432 0.922038 -0.372464 
0.252609 -0.950869 -0.078455 -0.0473456 -0.998555 0.0254122 
-0.0413031 -0.950062 0.20283 -0.185565 -0.970317 -0.155081 
-0.0999597 -0.30837 0.077102 -0.30004 0.921248 0.247544 
-0.0295045 -0.127894 -0.0373379 -0.437897 -0.826389 -0.354017 
-0.325653 0.0738873 -0.340738 0.690284 0.0799083 -0.719112 
0.212709 0.115587 0.598552 0.0455089 -0.461028 0.886218 
-0.570018 -0.367937 -0.295629 -0.974793 -1.19378e-16 0.223112 
-0.481506 -0.719898 -0.26853 -0.843619 -0.40623 -0.351118 
0.593749 0.36258 0.178554 0.982688 0.0488891 0.178702 
-0.475695 0.242908 -0.252839 -0.999326 -0.0272914 -0.0245561 
0.0408815 0.852279 0.216682 -0.154059 0.953785 0.257992 
-0.0896395 -0.916135 0.336497 -0.457268 -0.384571 0.80188 
0.240764 0.218212 -0.421445 0.33175 -0.240945 -0.912079 
0.29151 0.873045 0.121245 -0.118159 0.908374 0.401118 
-0.131685 0.777026 0.264212 -0.476379 0.802941 0.358258 
-0.391381 -0.901285 0.0212843 -0.645035 -0.726525 0.236835 
-0.0868776 -0.666345 0.258825 -0.648445 -0.176282 0.74057 
-0.266175 0.735815 0.074829 -0.45237 0.853467 0.258758 
0.552526 0.407288 0.301539 0.905331 0.129875 0.404362 
0.0974744 -0.949726 -0.173882 0.145755 -0.975997 -0.161818 
0.458637 0.533765 0.388058 0.599954 0.161124 0.783641 
-0.383938 -0.5289 0.169081 -0.334347 0.235039 0.912671 
0.199441 -0.535569 0.375902 0.329785 -0.478999 0.813512 
0.142461 0.859767 0.214491 0.016877 0.964832 0.262325 
0.0875361 0.0497193 -0.359664 -0.0793192 -0.618311 -0.781921 
0.0270175 0.459522 0.536683 -0.2224 0.377245 0.899013 
-0.222157 -0.665999 -0.502102 -0.13296 -0.284865 -0.949302 
-0.0227631 0.854859 0.0146557 -0.26734 0.959982 -0.0834474 
0.240078 0.847814 0.216309 0.229287 0.924145 0.305588 
0.537506 0.737456 -0.173779 0.433513 0.051588 -0.89967 
-0.121871 0.805126 -0.0478259 -0.424886 0.887295 -0.179386 
0.363755 0.290695 0.483638 0.466319 0.486548 0.738795 
0.27048 0.494023 0.484579 0.353133 -0.0475944 0.934362 
-0.601956 0.628585 -0.0925388 -0.851313 0.0218249 -0.524204 
0.213125 0.736251 -0.286752 0.269843 0.692396 -0.669158 
-0.305116 0.579311 0.287959 -0.820767 0.417205 0.390233 
0.440904 0.0647031 -0.193921 0.661514 -0.574306 -0.482257 
-0.368229 -0.397004 -0.504088 0.0520548 0.111677 -0.99238 
0.554214 0.13627 -0.0429189 0.888363 -0.409196 -0.208254 
-0.157352 0.452057 0.466927 -0.468697 -0.0677985 0.880754 
-0.197013 -0.0496978 0.136591 -0.615992 -0.787293 -0.0269113 
0.28205 0.796993 0.297818 0.406155 0.80707 0.428574 
0.281579 0.669889 -0.312221 0.394683 0.552402 -0.734219 
0.529657 0.206158 0.360246 0.871665 -0.167982 0.460415 
0.576277 0.157484 0.137199 0.940624 -0.333334 0.0641487 
0.0393396 -0.948443 -0.254545 0.195919 -0.915221 -0.352116 
0.481946 0.0514717 -0.0994344 0.738197 -0.597713 -0.312737 
-0.0384052 -0.302288 0.237966 -0.880728 0.40355 0.247923 
0.24784 -0.22445 0.335968 0.551583 0.388941 0.73789 
-0.143944 -0.263947 -0.18183 0.311887 0.948748 -0.051028 
0.446218 0.312136 0.4333 0.447394 0.301478 0.841991 
0.342194 0.483931 -0.373232 0.504624 0.242771 -0.828503 
0.0503984 0.167484 0.626917 -0.0161073 -0.434153 0.900695 
0.170243 -0.217824 -0.0525405 0.0875104 -0.0567546 -0.994546 
0.663198 0.827927 -0.0494934 0.870093 0.0352427 -0.491626 
-0.219245 0.528804 0.421606 -0.601298 0.183749 0.77761 
0.444604 -0.0260675 0.172524 0.675506 -0.729492 0.107394 
-0.102037 -0.0344181 -0.181477 -0.432545 -0.79175 -0.431319 
-0.216332 0.582871 -0.311951 -0.525899 0.422632 -0.738114 
-0.442402 -0.596126 -0.419247 -0.655892 -0.345224 -0.671287 
0.0951008 -0.747132 -0.250827 0.90993 0.105747 -0.401054 
0.656225 0.656573 -0.025171 0.919435 -0.253587 -0.300556 
0.544287 0.871681 -0.142299 0.31703 0.381018 -0.868515 
-0.510065 -0.716746 -0.171659 -0.909088 -0.392423 -0.139872 
-0.150211 0.593217 0.448053 -0.457809 0.326018 0.827117 
0.322821 -0.488014 0.3078 0.783248 -0.310783 0.538458 
0.566573 1.0443 0.020696 0.0323768 0.976437 0.213361 
0.624685 0.947449 -0.0511125 0.619253 0.43135 -0.656097 
-0.138004 -0.274228 -0.280059 0.317628 0.928886 -0.190479 
-0.316496 -0.815937 0.214451 -0.694639 0.216301 0.686069 
0.523883 0.117503 0.299701 0.841401 -0.431069 0.325921 
-0.415073 -0.00597659 -0.406437 0.147297 0.425739 -0.892777 
0.204178 -0.935982 0.0930764 0.384671 -0.825285 0.413441 
-0.0322762 0.217825 0.61209 -0.615868 0.0127326 0.787746 
-0.0673402 -0.719024 -0.464136 0.383571 -0.422738 -0.821076 
0.397954 0.930659 -0.0746756 -0.482885 0.750253 -0.4516 
-0.264713 -0.452605 0.158742 -0.118635 0.348934 0.929608 
-0.0552932 0.826759 0.224079 -0.311309 0.914981 0.256702 
0.15735 -0.0805285 -0.191136 0.0711772 -0.876227 -0.476613 
-0.152339 -0.948075 -0.289299 0.0717089 -0.968025 -0.240387 
-0.380943 0.676306 0.0578877 -0.44588 0.0911247 0.890442 
0.404383 0.639798 0.382827 0.62348 0.489361 0.609753 
-0.0687308 -0.363038 -0.401632 0.465048 0.667281 -0.581778 
-0.577611 -0.242225 -0.418032 -0.973745 -0.0229323 -0.226482 
0.187223 -0.1235 -0.10513 0.168473 -0.777179 -0.606308 
0.283712 -0.858425 0.0623072 0.743233 -0.0661049 0.665758 
0.127654 -0.609728 0.348318 0.232843 -0.577386 0.782566 
-0.525183 -0.456258 0.00438685 -0.872252 0.293627 0.391101 
-0.414198 -0.299156 -0.494672 0.409054 0.271394 -0.871217 
-0.0762856 -0.61865 -0.498262 0.339032 -0.131608 -0.931524 
0.36636 -0.484399 0.20929 0.932838 -0.289551 0.214416 
0.152665 -0.725922 -0.16279 0.606071 0.128927 -0.784892 
0.218631 0.726014 0.421701 0.199074 0.667248 0.71774 
0.365306 -0.916884 -0.0640086 0.956905 -0.245702 0.154798 
0.0425654 -0.560825 0.376439 -0.276737 -0.326967 0.903609 
-0.302857 0.374358 0.349181 -0.677249 -0.123808 0.725262 
-0.262007 -0.948752 -0.243517 -0.0687127 -0.997634 0.00231896 
0.34245 0.121606 0.542974 0.567956 -0.34834 0.745711 
-0.512649 0.571253 -0.199143 -0.571468 0.185133 -0.799469 
0.1392 0.793765 -0.239836 0.108738 0.832254 -0.543626 
-0.10381 -0.0774462 -0.0833465 -0.481939 -0.831766 -0.275501 
-0.452281 -0.4751 0.11188 -0.602961 0.329652 0.726476 
-0.212589 0.670125 -0.241495 -0.473801 0.672468 -0.568595 
0.332865 0.806045 0.211044 0.546723 0.72866 0.412491 
-0.444096 -0.61203 0.145418 -0.627523 7.68494e-17 0.778598 
0.318842 -0.0625343 0.347065 0.457789 -0.77651 0.432968 
0.396051 0.717884 0.292511 0.663472 0.671849 0.329277 
0.170586 0.363866 0.582643 0.51782 0.611367 0.598408 
-0.241254 0.611213 0.360317 -0.688556 0.458803 0.561597 
0.217439 0.514608 -0.420812 0.294285 0.294069 -0.909351 
0.00830295 -0.947686 0.101053 -0.260944 -0.947698 -0.183783 
-0.44676 0.355742 -0.229665 -0.827683 0.058178 -0.558172 
-0.342593 0.20925 0.253175 -0.86764 -0.264209 0.421182 
0.0536561 0.725979 0.431246 -0.0811796 0.675496 0.732882 
-0.135577 -0.919846 0.0129364 0.245654 -0.957036 0.154068 
-0.418277 0.208964 -0.150421 -0.818389 -0.492183 0.29664 
0.220663 -0.331911 -0.0751073 0.363653 0.375855 -0.852344 
-0.24119 -0.818745 -0.428862 -0.19747 -0.478459 -0.855618 
0.124688 0.438837 -0.459822 0.101835 0.143332 -0.984421 
-0.381504 -0.549535 -0.480727 -0.413799 -0.258335 -0.872945 
-0.143004 -0.729879 0.209327 -0.373795 0.235624 0.897083 
0.165864 -0.0723778 0.443858 0.144451 -0.878994 0.454427 
-0.410379 0.176448 -0.334286 -0.354851 0.100588 -0.929496 
-0.0511019 -0.945352 -0.169657 -0.0147047 -0.992439 0.121857 
-0.290868 0.195264 -0.315923 0.0893404 -0.173139 -0.980837 
-0.214595 0.740786 0.204476 -0.629208 0.737304 0.245928 
0.0751172 -0.236828 -0.0361181 -0.477932 0.152718 -0.865019 
-0.40739 0.717523 -0.130071 0.135015 0.834907 -0.533573 
0.280134 -0.491427 -0.0690553 0.706329 -0.0610216 -0.705248 
-0.186165 0.736655 -0.158147 -0.447814 0.820281 -0.355811 
0.0454105 -0.666716 0.323065 -0.0512946 -0.45504 0.888993 
0.433207 0.876265 -0.149019 -0.156553 0.557879 -0.815023 
0.0889853 0.280741 0.658055 0.0803819 0.0224876 0.99651 
-0.463673 -0.725998 0.0942368 -0.765622 -0.347564 0.541315 
-0.205462 -0.297875 0.0251487 -0.0291109 0.864547 0.501708 
-0.51114 -0.626748 -0.292925 -0.872511 -0.32963 -0.36065 
0.0481677 0.190066 -0.436041 -0.112385 -0.364473 -0.924407 
0.414062 0.802259 0.108203 0.597264 0.116535 0.793533 
-0.417763 0.214347 0.0562893 -0.695562 -0.665538 0.270652 
-0.267392 -0.891419 0.282622 -0.48566 -0.129926 0.864438 
-0.275631 -0.301654 -0.414548 0.155868 0.834812 -0.52801 
-0.36365 -0.265225 -0.391932 0.569921 0.781348 -0.254333 
-0.237414 0.00994965 -0.0399822 -0.624276 -0.770087 -0.131321 
-0.514418 0.32687 -0.0332131 -0.798684 -0.574961 -0.177548 
0.284538 -0.12749 -0.0436741 0.525445 -0.637087 -0.563939 
0.491287 0.437218 0.38062 0.550709 0.13536 0.823648 
-0.232966 0.388643 -0.357625 -0.557556 0.0381573 -0.829262 
-0.200223 0.0129088 -0.163599 -0.409291 -0.875318 -0.257486 
-0.508986 -0.620961 0.0683697 -0.863052 -0.0945106 0.496195 
-0.364724 0.740283 -0.035983 0.239797 0.96671 -0.0892652 
-0.432546 0.474575 0.0324215 -0.445218 0.287388 0.84805 
0.00894538 0.846567 -0.0814645 -0.223311 0.947844 -0.227427 
0.633004 0.552058 0.0277919 0.93155 -0.348617 -0.103352 
0.0818129 -0.773118 0.289926 0.507329 0.190704 0.840386 
-0.14689 -0.860827 -0.402288 0.20425 -0.584243 -0.785457 
-0.0306345 0.58126 -0.40964 -0.246825 0.384528 -0.889503 
-0.0918144 -0.432356 -0.47437 0.362964 0.458576 -0.81115 
-0.459887 -0.393358 0.0484458 -0.623026 0.538851 0.56699 
0.375637 0.792156 -0.189772 0.00176986 0.498218 -0.86705 
0.220087 0.401845 0.502963 0.43099 0.279329 0.858034 
-0.14254 -0.265741 -0.0695974 0.231106 0.956934 0.175691 
-0.248819 -0.732512 0.210884 -0.0318573 0.421313 0.906355 
0.12418 0.441639 0.536738 0.342537 0.449509 0.824991 
-0.172332 -0.582596 -0.522172 0.0405028 -0.083647 -0.995672 
0.34704 -0.328754 0.0464786 0.868603 0.251374 -0.427013 
-0.302231 -0.233394 -0.155259 -0.0512184 0.989325 0.136426 
0.339988 0.226408 0.555722 0.593032 0.392903 0.702809 
-0.185485 -0.28977 -0.37031 0.21774 0.860388 -0.460784 
0.0488371 0.772554 -0.27182 -0.100419 0.807638 -0.581065 
-0.396579 -0.841235 0.0999349 -0.800944 -0.413405 0.43311 
0.587286 0.76546 0.0787836 0.00382373 0.206171 0.978508 
0.274562 -0.240313 -0.0136213 0.638259 0.120435 -0.760342 
0.0614138 0.371617 0.62734 -0.0815696 0.632633 0.770144 
-0.359896 0.577709 0.0714918 -0.838494 0.15402 0.52269 
0.317371 -0.30172 0.298166 0.81102 0.288335 0.509028 
0.343857 -0.0639486 -0.0957705 0.475413 -0.804979 -0.354952 
0.533286 0.319799 0.358328 0.81457 0.0904437 0.572971 
-0.0505363 0.307621 0.568979 -0.797304 0.279315 0.535061 
-0.349935 0.555822 0.169293 -0.933908 0.319676 0.160076 
0.138328 0.701683 -0.341486 0.156278 0.630109 -0.760618 
0.290504 -0.161821 0.268129 0.798215 -0.077633 0.597349 
0.403391 0.621053 -0.264518 0.541434 0.382686 -0.748599 
-0.410213 -0.110381 -0.287318 0.401932 -0.545915 0.735138 
0.083504 -0.0291419 0.516703 -0.0472607 -0.667159 0.743415 
-0.38227 0.448754 0.13586 -0.931335 0.269548 0.244864 
-0.367715 -0.651542 -0.451109 -0.503378 -0.324865 -0.80067 
-0.164731 0.194383 0.421313 -0.734034 0.10259 0.671319 
0.0556736 0.817222 0.310179 -0.0995666 0.88128 0.461988 
-0.203315 0.218591 -0.354065 -0.447297 -0.312962 -0.837843 
0.0323061 -0.3883 -0.296766 0.726984 0.603106 -0.328264 
-0.304188 0.683288 -0.163102 -0.102816 0.836878 -0.537647 
-0.339661 0.112429 0.064597 -0.831905 -0.54947 0.0775649 
0.32242 -0.57715 0.176965 0.813529 -0.558718 0.161261 
-0.457272 -0.235194 -0.280997 0.148004 0.625765 0.765841 
-0.35202 -0.923001 -0.280153 -0.531642 -0.78873 -0.308645 
0.352897 -0.0152751 -0.186799 0.479599 -0.747098 -0.460249 
-0.153833 0.317105 -0.40364 -0.4511 -0.0935253 -0.887559 
0.315344 0.034609 0.500547 0.484104 -0.616651 0.620794 
-0.127865 0.56614 -0.377032 -0.441202 0.353174 -0.82499 
-0.299449 0.585159 -0.25696 -0.294011 0.496763 -0.816568 
-0.159708 -0.35715 -0.447049 0.247571 0.643497 -0.724307 
0.539424 0.0791832 0.072346 0.85769 -0.512138 -0.0456428 
-0.180811 -0.355901 0.112766 -0.255762 0.731546 0.632002 
0.233893 -0.787309 -0.140745 0.37951 0.416787 -0.825991 
-0.271681 0.294472 -0.328544 -0.314114 -0.0109969 -0.949321 
-0.295911 -0.333099 0.070113 -0.0918141 0.745502 0.660149 
0.58505 0.385085 -0.051634 0.977362 0.0308252 -0.209317 
-0.378154 0.224644 0.156194 -0.879713 -0.350395 0.321446 
-0.0317731 -0.822353 0.355019 -0.286133 0.464142 0.838272 
0.0279725 -0.0973264 0.38657 -0.245227 -0.825492 0.508357 
-0.322104 0.469904 0.328195 -0.827148 0.123695 0.548203 
0.312351 -0.925639 -0.151675 0.40683 -0.391465 -0.825375 
-0.114473 -0.105381 0.117528 -0.567268 -0.823222 -0.0226369 
0.174379 0.323793 -0.458052 0.217782 -0.0574093 -0.974307 
-0.513546 -0.722896 -0.0340007 -0.909083 -0.392402 0.139957 
-0.314617 -0.930155 0.190401 -0.69021 -0.682661 0.239965 
0.219329 0.877252 0.052121 -0.0668617 0.997421 0.0261002 
0.0935236 0.542938 0.527914 0.0820375 0.135996 0.987307 
0.436298 0.711106 -0.211099 0.30674 0.262845 -0.91478 
-0.39387 -0.742983 -0.381839 -0.640142 -0.430381 -0.636388 
0.621683 0.552593 0.126288 0.89078 -0.0510296 0.451561 
-0.177147 0.295339 0.412563 -0.589557 -0.136445 0.796119 
0.599678 0.359228 0.0495406 0.997824 0.0406399 -0.0519246 
0.54979 0.967511 0.0833987 0.227754 0.139642 0.963654 
-0.259749 -0.930897 -0.345418 -0.155792 -0.845387 -0.51093 
0.0301178 -0.460515 0.388307 -0.51749 6.33743e-17 0.855689 
0.092462 -0.333278 -0.118559 0.231668 0.764521 -0.601529 
0.209998 0.0546405 -0.351603 0.233071 -0.585645 -0.776336 
-0.114429 0.738865 -0.232295 -0.416265 0.770873 -0.48216 
0.0328688 0.399258 -0.462663 -0.118293 0.0553082 -0.991437 
-0.108257 0.0432159 0.498912 -0.616275 -0.476617 0.62693 
0.0420971 -0.354104 -0.205447 0.569834 0.754765 -0.32499 
-0.504098 -0.491679 -0.405963 -0.757417 -0.371512 -0.536934 
