ply
format ascii 1.0
element vertex 500
property float x
property float y
property float z
property float nx
property float ny
property float nz
end_header
-0.716441 -0.229363 -0.0991377 0.99883 -0.00216266 0.0483029 
0.41129 -0.138231 0.521132 -0.604921 -0.019305 -0.796051 
-0.689098 0.128912 0.136004 0.966205 0.00583218 -0.257709 
-0.195805 -0.509981 0.474822 -0.338008 -0.0395691 0.940311 
0.299373 0.551731 0.423462 0.481802 0.109602 0.869399 
0.500947 0.554509 -0.337001 0.894834 0.0349907 -0.445026 
0.152368 0.00249752 0.487605 0.27064 -0.0183284 0.962506 
-0.179751 0.606462 -0.607203 -0.323643 -0.0029997 -0.946174 
-0.271373 0.302039 0.441255 -0.469187 0.0064908 0.883075 
0.0295186 -0.0781551 0.651551 -0.103599 -0.0792846 -0.991454 
0.513367 -0.776569 -0.436941 0.3415 0.902486 -0.262481 
0.627529 0.24856 -0.404503 -0.891059 0.0160166 0.453604 
0.237464 0.309124 0.611008 -0.477733 -0.0344947 -0.877827 
-0.780903 0.620003 -0.056425 0.973531 0.227852 -0.0179049 
0.502348 -0.542051 -0.606558 -0.628884 -0.283296 0.72405 
0.596019 0.28553 0.330062 -0.857396 -0.0320241 -0.51366 
-0.0562514 0.263995 0.506012 -0.0390872 0.0869426 0.995446 
0.0432201 0.394294 0.506825 -0.00411601 -0.0595164 0.998219 
0.110943 -0.111535 1.07811 -0.864838 0.117466 -0.488116 
-0.523098 0.137391 -0.299205 -0.909479 -0.00584123 -0.41571 
0.770494 -0.589148 -0.0854812 -0.974177 -0.222962 -0.0356072 
-0.223318 -0.655082 -0.591192 -0.405149 0.118502 -0.906538 
-0.567474 0.609165 0.0192015 -0.988336 0.0819399 0.128368 
-0.346024 -0.26176 0.56351 0.413658 0.0740686 -0.907414 
0.60397 0.434607 0.318026 -0.853836 0.202943 -0.479352 
-0.521499 -0.234206 -0.301803 -0.910344 -0.0109808 -0.413707 
-0.32602 -0.512479 0.407665 -0.571568 -0.0397424 0.819591 
0.541169 0.66695 -0.244835 0.956763 -0.153621 -0.246992 
-0.505182 -0.613061 0.208556 -0.89265 -0.0737464 0.444678 
0.396165 0.288779 0.531963 -0.546307 -0.0614696 -0.835326 
0.428944 -0.0777469 -0.44056 0.748686 -0.00527736 -0.662903 
0.142858 -0.33586 0.745731 -0.988222 -0.0343916 -0.149114 
0.398076 -0.741909 0.344635 0.589006 0.545183 0.596529 
-0.127895 -0.577923 0.693609 0.0295035 -0.127746 -0.991368 
0.18632 -0.45717 0.626628 -0.657362 -0.0773798 -0.749592 
0.484406 0.513541 0.238657 0.841595 0.0357596 0.538925 
-0.499263 -0.0821532 -0.34516 -0.861696 5.23523e-05 -0.507425 
0.554798 0.495118 -0.196596 0.963656 0.0376828 -0.264474 
0.74373 -0.736061 -0.0447808 -0.798305 0.602244 0.0032596 
0.401279 0.636684 0.343021 0.707631 -0.0173229 0.706369 
0.712885 0.196524 -0.0931732 -0.999568 0.00349016 0.0291789 
0.305904 -0.677341 0.652575 -0.427923 0.112251 -0.896818 
0.157496 0.0288108 -0.61285 0.287416 0.000870402 -0.957805 
0.753312 -0.692253 0.115309 -0.973581 0.108047 -0.201162 
0.00575446 -0.204399 -0.778529 -0.0317647 0.00567712 0.999479 
-0.22437 0.30369 0.616502 0.427286 0.0547068 -0.90246 
0.701351 -0.221725 -0.198489 -0.97496 0.0221037 0.221278 
-0.208015 -0.652813 0.470471 -0.317832 0.0316352 0.947619 
0.164406 -0.600752 0.48421 0.275869 -0.0861845 0.957324 
-0.559683 -0.336138 0.064098 -0.977578 0.0278829 0.208717 
0.613129 0.777999 -0.313219 0.277855 -0.957195 -0.0810823 
-0.432548 0.231546 0.507941 0.61943 -0.0456311 -0.783724 
-0.564835 0.0912468 -0.163594 -0.984577 0.00212556 -0.174937 
0.555389 0.0973472 0.386015 -0.781677 0.00778581 -0.623635 
-0.540591 -0.728065 0.126399 -0.871447 0.38759 0.300589 
-0.435718 -0.521998 0.309367 -0.743368 -0.018081 0.668639 
0.549015 -0.601731 0.0926879 0.96987 -0.0761019 0.231432 
-0.337306 -0.106679 0.568426 0.482556 -0.0169236 -0.875702 
-0.139908 0.678167 -0.829538 0.197041 0.0171641 0.980245 
0.443054 0.102042 -0.42326 0.77549 0.0230337 -0.63094 
0.712244 -0.234417 -0.0144881 -0.997231 0.01394 -0.0730543 
-0.000385212 0.778009 -0.724934 0.0745765 -0.931831 -0.355146 
0.326167 0.245912 -0.699818 -0.447083 -0.015914 0.894351 
0.00231554 -0.571835 -0.826159 0.00935846 -0.24639 0.969125 
0.117219 -0.774272 -0.661265 0.163397 0.718867 -0.675672 
-0.164613 0.303197 -0.612252 -0.285649 -0.00129865 -0.958333 
-0.59578 -0.633212 -0.572669 0.741796 -0.313957 0.592596 
-0.573092 0.0171684 -0.0378517 -0.998622 0.00220916 0.0524276 
0.257238 -0.240375 -0.730515 -0.354969 0.0400011 0.934022 
-0.284814 -0.0239441 -0.720548 0.357157 -0.0108915 0.933981 
-0.31863 -0.382724 -0.539725 -0.551046 0.0226572 -0.834168 
0.710953 -0.469545 0.00766216 -0.963819 -0.233665 -0.128272 
-0.178823 -0.778293 -0.68432 -0.0232277 0.936984 -0.348599 
-0.274688 0.410546 -0.566141 -0.484462 -0.00424679 -0.874802 
-0.139663 -0.102645 0.966067 0.983017 -0.0596803 0.17354 
0.603111 -0.102302 0.319759 -0.844738 -0.0203928 -0.534791 
-0.541804 -0.0113556 0.125094 -0.943312 0.000540745 0.331906 
-0.734399 -0.533724 -0.0614338 0.928734 -0.366558 0.0555713 
-0.675216 -0.693211 -0.446171 0.923108 -0.0415221 0.382293 
-0.421945 -0.470097 -0.452018 -0.739979 -0.0328684 -0.671827 
0.396872 0.11315 0.531277 -0.564795 0.0293609 -0.824709 
-0.606714 -0.527352 -0.464665 0.825619 -0.304139 0.475239 
0.662212 -0.03259 -0.331637 -0.930471 -0.0191707 0.365865 
-0.397032 -0.775707 -0.524301 -0.465176 0.681949 -0.564409 
-0.413229 -0.0393966 -0.648743 0.584961 0.010812 0.81099 
0.679427 0.299086 0.156065 -0.936044 -0.0296512 -0.350631 
0.304473 0.11459 -0.546881 0.537461 0.0179844 -0.843097 
-0.158871 -0.0148307 0.634679 0.20521 -0.000138026 -0.978718 
-0.0747479 -0.207448 1.08161 0.563759 0.365096 -0.740864 
-0.467437 -0.314926 0.480186 0.636286 0.0638118 -0.76881 
-0.0107298 0.132691 1.13214 0.0785266 -0.264778 -0.961107 
-0.702448 0.100479 -0.206626 0.977057 0.00848822 0.212807 
0.570646 -0.532878 -0.0746784 0.995323 -0.0898877 -0.0353935 
-0.14382 0.244541 0.930432 0.997784 -0.0584318 -0.0318346 
0.635634 0.157214 0.261998 -0.890213 -0.00755268 -0.455483 
0.137627 0.305659 0.752708 -0.993548 0.0787756 -0.081583 
0.483814 0.287939 -0.589243 -0.666577 -0.00714563 0.745402 
0.74635 0.590463 0.133307 -0.913158 0.254528 -0.318366 
-0.343013 0.171099 0.395831 -0.589975 -0.00930739 0.807368 
-0.53436 0.424679 0.146325 -0.930722 -0.033092 0.364227 
0.327086 0.428861 -0.699202 -0.38478 0.164268 0.908273 
0.0320164 0.101377 0.507469 0.0415494 -0.00742503 0.999109 
0.17278 -0.204868 -0.608767 0.297304 -0.0060532 -0.954764 
-0.522476 -0.638842 -0.299635 -0.917067 0.0584028 -0.394434 
0.559381 -0.396083 0.0517493 0.979098 0.0317936 0.200889 
-0.344275 0.568561 -0.521646 -0.589094 0.023988 -0.807708 
-0.47149 -0.337912 -0.389472 -0.823884 0.015942 -0.566535 
0.426529 -0.344904 0.51036 -0.663632 -0.0129724 -0.747947 
0.610928 -0.776659 -0.323189 0.0705595 0.995441 -0.064178 
0.568433 0.743109 -0.020402 0.907736 -0.417444 0.0419063 
-0.48128 -0.774814 0.319148 -0.412033 0.841958 0.348332 
-0.430669 0.487196 -0.441851 -0.749469 -0.00148073 -0.662038 
0.438495 -0.30189 -0.627749 -0.609428 -0.0054727 0.792823 
-0.0644921 -0.43795 0.861884 0.411529 0.849026 -0.33136 
0.0107652 0.262484 1.07455 -0.0993137 -0.539198 -0.836303 
-0.0309445 -0.778297 -0.69841 0.0210848 0.866277 -0.49912 
0.213082 -0.480772 -0.745889 -0.333248 -0.309427 0.890618 
0.324597 -0.261668 0.406686 0.558337 -0.0123842 0.829522 
-0.515132 0.0123004 -0.561567 0.720184 0.0218032 0.69344 
0.163019 0.0102713 0.632811 -0.186666 -0.0603502 -0.980568 
0.0849785 0.0275981 0.894792 -0.66656 0.0323241 0.744751 
-0.430315 0.735691 -0.679012 0.48806 -0.661453 0.569454 
0.559044 0.0484579 0.0505872 0.98043 -0.00200612 0.196855 
0.555331 0.33034 -0.194323 0.977175 -0.0154576 -0.211873 
0.295238 0.330534 -0.552486 0.524538 -0.0206979 -0.851136 
-0.56635 -0.241376 0.37627 0.813527 -0.0210158 -0.581148 
-0.566911 0.268742 -0.152208 -0.988383 0.00575587 -0.151872 
-0.712072 -0.143668 0.0199211 0.992741 -0.0168687 -0.119081 
-0.239752 0.471274 -0.738313 0.305169 0.20577 0.929801 
0.0959534 -0.435736 0.500441 0.160736 0.0172021 0.986848 
0.491416 0.691986 0.535911 -0.687113 -0.118079 -0.716891 
0.674204 -0.698672 -0.43165 -0.839158 0.326027 0.43534 
0.300965 -0.435431 0.422236 0.523461 0.0360104 0.851289 
0.00706433 -0.0357693 1.15123 -0.0487818 0.0576494 -0.997144 
0.340539 -0.231854 -0.522165 0.60076 -0.00121396 -0.799428 
0.262957 0.533037 0.618175 -0.22665 0.418281 -0.879586 
0.0829085 0.779454 0.582238 -0.0522712 -0.983799 0.171486 
0.361266 0.0960917 -0.68006 -0.49364 0.0150258 0.869536 
-0.314271 -0.53679 -0.542786 -0.536819 -0.0694267 -0.840836 
0.333443 -0.607604 0.400369 0.632632 -0.125256 0.764256 
-0.432566 -0.210059 -0.439876 -0.756816 -0.00251243 -0.653624 
0.551931 0.613331 0.0819735 0.966441 0.0878268 0.241408 
-0.112491 -0.67834 -0.831875 0.105135 0.0839232 0.99091 
0.502838 0.775062 0.269377 0.574035 -0.743331 0.343428 
0.600306 -0.295336 0.324105 -0.834622 0.0674766 -0.546675 
0.601231 0.511302 -0.446862 -0.677588 0.265932 0.685679 
0.610113 -0.488921 0.30716 -0.811153 -0.30229 -0.500652 
0.747883 0.730619 -0.0968955 -0.880972 -0.473069 -0.0096748 
-0.339264 0.776328 0.514579 -0.0229962 -0.990188 0.137834 
-0.568917 -0.6372 -0.140298 -0.991754 -0.00208728 -0.12814 
0.548988 -0.61302 -0.21897 0.970164 -0.0110334 -0.2422 
0.521739 -0.488032 0.424182 -0.697008 -0.372839 -0.612511 
-0.564943 -0.486915 -0.16395 -0.981847 -0.0199746 -0.188622 
-0.274847 0.291624 -0.724575 0.399382 -0.0094713 0.916736 
0.42518 -0.370001 0.318387 0.746909 0.0270128 0.664377 
-0.530836 0.628182 -0.280211 -0.925596 0.0864102 -0.368519 
-0.236721 -0.383926 -0.739569 0.344005 -0.103059 0.933295 
0.334738 -0.0532398 -0.695191 -0.477739 -0.0241656 0.878169 
-0.176656 0.0680281 -0.757193 0.281314 0.0245783 0.959301 
0.147855 0.356309 -0.61561 0.254574 -0.027424 -0.966664 
0.748781 0.682937 -0.264109 -0.992461 -0.0299195 0.11885 
-0.693232 0.730418 0.224193 0.840825 -0.417007 -0.345135 
-0.709739 0.498602 -0.160016 0.943583 0.282388 0.172939 
0.710013 0.522816 -0.167058 -0.93712 0.334089 0.100946 
0.145973 0.778283 -0.688422 0.132192 -0.83533 -0.533619 
0.683228 -0.424584 -0.271029 -0.916708 -0.229203 0.32728 
0.271917 -0.349283 -0.565933 0.492083 0.00150633 -0.870547 
0.127172 -0.116042 0.932354 -0.944186 -0.131589 0.301988 
0.0746707 0.514641 -0.773948 -0.140883 0.271679 0.95202 
0.007723 0.643632 -0.635471 0.0137697 -0.132948 -0.991027 
-0.513538 0.221661 -0.563317 0.723561 -0.0361175 0.689315 
0.705041 0.605712 -0.390434 -0.857639 0.255113 0.446511 
-0.248577 -0.574665 -0.787536 0.349277 -0.241473 0.905371 
0.373658 0.448946 0.545988 -0.543747 0.177648 -0.820232 
-0.431107 0.651189 -0.441474 -0.799625 -0.0399554 -0.599169 
0.13878 0.178355 0.9791 -0.996619 -0.0162597 -0.0805391 
-0.129742 -0.287249 0.953094 0.945484 0.212214 -0.247034 
-0.71626 0.14473 -0.0349797 0.998827 0.008056 -0.0477554 
0.544134 -0.752918 0.419363 -0.398802 0.795725 -0.455828 
-0.504007 -0.424394 0.210626 -0.870025 0.000696772 0.493008 
0.712821 -0.0874204 -0.100194 -0.998653 -0.0271794 0.0441916 
0.727 0.743219 0.0527877 -0.725599 -0.68417 -0.0736022 
0.217729 -0.122754 0.617642 -0.180958 0.0913372 -0.97924 
-0.570913 -0.149336 -0.00710154 -0.995065 0.00854306 0.098857 
-0.40339 -0.741078 0.555662 0.511005 0.637238 -0.57689 
-0.582623 0.114153 -0.481056 0.823388 -0.0021183 0.567474 
-0.418269 0.0706865 -0.455969 -0.727155 -0.00263569 -0.686468 
0.648562 0.015616 0.235785 -0.909949 -0.00375077 -0.414702 
0.0860539 0.370952 -0.773324 -0.124348 -0.0672742 0.989955 
0.114026 0.187281 -0.769373 -0.175976 0.0109091 0.984334 
0.304371 -0.661581 -0.547211 0.490563 0.145063 -0.859246 
0.0587357 0.483013 -0.632136 0.0959842 0.0595599 -0.993599 
-0.454359 0.204032 -0.41356 -0.791207 0.00178624 -0.611546 
-0.330005 0.627749 0.405514 -0.582051 -0.0632864 0.810686 
-0.285884 -0.776099 0.481607 -0.229416 0.790329 0.568109 
-0.0873502 0.189662 0.803139 0.718698 0.423419 0.551534 
0.330094 0.595055 -0.529844 0.562217 0.0323515 -0.826357 
0.48382 -0.171618 -0.589123 -0.681606 -0.00385175 0.731709 
0.338644 -0.426361 -0.69313 -0.381492 -0.142468 0.913327 
0.458635 -0.581385 0.276882 0.792046 -0.111233 0.600242 
-0.75486 0.714142 -0.177636 0.879726 -0.402156 0.25368 
0.408763 -0.36332 -0.462411 0.703017 -0.00886353 -0.711118 
-0.506209 -0.493404 -0.333035 -0.885365 -0.0482664 -0.462385 
-0.669736 0.543405 0.255086 0.897935 0.247583 -0.363889 
-0.094292 0.249127 0.657701 0.607151 0.493604 -0.622673 
0.216204 0.0702739 -0.744912 -0.314738 -0.0038332 0.949171 
-0.380989 -0.0743109 -0.492023 -0.663145 0.00812055 -0.748447 
-0.0352001 0.189305 -0.778522 0.0477806 0.015888 0.998731 
-0.717616 0.536027 0.0904633 0.91796 0.291439 -0.269098 
-0.682774 -0.0672122 -0.283029 0.948515 -0.0252855 0.315721 
-0.000149069 0.0684204 0.652702 0.0461669 0.122954 -0.991338 
-0.582972 0.769236 -0.172957 -0.651208 -0.735151 -0.188362 
-0.591953 0.691846 -0.568333 0.725408 -0.228704 0.649212 
0.378007 0.766349 -0.512156 0.550214 -0.540872 -0.636178 
-0.0372468 -0.404425 -0.634803 -0.0575711 0.00187643 -0.99834 
-0.429736 0.262819 0.316336 -0.751048 0.0211503 0.659908 
0.504532 0.778186 -0.431752 0.410454 -0.753869 -0.51304 
-0.624933 -0.106791 -0.415232 0.869465 -0.0152898 0.493758 
-0.656566 0.768023 -0.323287 0.518636 -0.844057 0.136323 
0.190249 0.732418 0.475148 0.263783 -0.508951 0.819382 
-0.201548 0.529417 0.472592 -0.335331 0.056125 0.940427 
-0.440775 0.0146499 0.501612 0.61874 0.0337428 -0.784871 
-0.00437295 -0.587916 0.50882 -0.0223402 -0.0974241 0.994992 
0.483167 0.692841 -0.667242 -0.687248 -0.00477944 0.726407 
0.552811 0.2688 0.0787609 0.967731 0.0141857 0.251584 
-0.502344 0.770084 -0.372766 -0.703371 -0.618934 -0.349558 
-0.15801 -0.097707 -0.761308 0.233123 -0.0109554 0.972386 
-0.620359 -0.297378 -0.423314 0.871337 0.019645 0.490291 
-0.713828 -0.744161 0.122108 0.67019 0.727762 -0.145631 
0.603151 0.775984 -0.16827 0.611013 -0.790878 0.0342762 
0.42164 0.566362 -0.695578 -0.564475 0.260172 0.783376 
0.513837 -0.0495202 0.432963 -0.697311 -0.0131377 -0.716649 
0.69201 -0.539308 0.195323 -0.872601 -0.3219 -0.367351 
0.598541 0.572037 0.409931 -0.728604 0.255806 -0.635373 
0.561313 -0.108779 -0.167031 0.983528 0.00719588 -0.180615 
-0.0715106 -0.419231 0.505 -0.10688 0.0192656 0.994085 
0.606158 0.698505 -0.537476 -0.744057 0.0477573 0.666407 
-0.632435 0.423515 -0.401357 0.853099 0.191365 0.485388 
-0.436234 -0.583316 0.571986 0.600156 -0.284174 -0.747702 
0.152292 0.636193 0.705152 -0.249845 0.228616 -0.94091 
0.562545 0.441668 0.0328025 0.983961 -0.0397491 0.173901 
-0.343423 -0.770723 -0.667203 -0.0168973 0.966364 0.256623 
0.284659 -0.00386341 0.431844 0.498574 -0.00429009 0.866837 
0.0327054 0.208106 -0.634789 0.0595962 0.00232782 -0.99822 
0.656328 0.116987 -0.344332 -0.919203 -0.00500538 0.393753 
-0.528949 -0.155263 0.158998 -0.923172 -0.00101515 0.384385 
0.616794 -0.605618 -0.534793 -0.739895 -0.217234 0.636683 
0.336478 0.325253 0.398632 0.586032 -0.0263439 0.80986 
0.0215489 -0.307936 1.04152 -0.176431 0.622973 -0.762087 
0.700055 0.0958072 -0.202814 -0.983263 0.0215304 0.180917 
-0.50012 0.338096 -0.344793 -0.874827 0.00290572 -0.484427 
-0.508097 0.604523 -0.655402 0.659041 0.170562 0.732511 
0.679914 -0.681435 0.314255 -0.904828 0.0226323 -0.425176 
-0.665872 0.59857 -0.467125 0.847436 0.229935 0.478522 
-0.676488 -0.492706 -0.299524 0.915173 -0.179051 0.361109 
0.694739 0.148372 0.101248 -0.9743 0.0105441 -0.225007 
0.387105 0.78074 0.464936 0.160036 -0.970134 0.182286 
-0.458771 0.403772 0.280607 -0.792491 -0.0246257 0.609386 
0.550721 -0.0660491 -0.518175 -0.774814 -0.000461772 0.632189 
0.41477 -0.605026 -0.456536 0.742326 -0.00493603 -0.67002 
0.713245 0.0549535 -0.0420611 -0.99997 -0.000422602 -0.00778826 
-0.607615 -0.771776 0.247343 0.176676 0.982003 -0.0667556 
-0.300829 0.667676 -0.78575 0.361703 0.0765795 0.929143 
0.555079 -0.437519 -0.196878 0.971079 -0.00957339 -0.238568 
0.610784 -0.610868 0.420348 -0.771655 -0.252218 -0.583896 
-0.683197 -0.343522 -0.281105 0.952918 0.0433814 0.300107 
0.231911 0.495727 -0.586108 0.410366 0.033098 -0.91132 
0.682115 0.433383 -0.275006 -0.969579 0.147738 0.195167 
-0.459117 0.396811 0.486567 0.614777 0.125833 -0.778598 
0.486176 -0.268077 0.236039 0.85406 0.0200604 0.519788 
-0.51827 -0.779283 -0.444543 -0.399554 0.816461 -0.41683 
-0.304745 0.135659 -0.548787 -0.525566 0.0139644 -0.850638 
0.0897755 0.235567 0.501263 0.139004 0.0517263 0.98894 
-0.419366 0.573285 0.576427 0.512933 0.324469 -0.794745 
0.568092 -0.104617 -0.00800314 0.994883 0.00769705 0.100741 
-0.181385 -0.305883 0.629144 0.740973 0.0151352 -0.671364 
0.01989 0.640617 -0.846019 -0.0166396 0.29918 0.954052 
0.509396 0.10789 0.193725 0.889483 -0.00870356 0.456885 
-0.338092 0.44724 0.399512 -0.593685 0.00172082 0.804696 
-0.0811287 0.582637 0.706066 0.296475 -0.124313 -0.946915 
-0.714387 0.412178 -0.00256894 0.993282 0.0805677 -0.0830664 
0.0687261 -0.457832 0.807235 -0.375963 0.879831 -0.290774 
0.395932 -0.564868 -0.709476 -0.536858 -0.272433 0.798476 
0.527415 0.00222615 -0.282196 0.925586 0.0120666 -0.378345 
-0.0129167 0.349225 -0.635705 -0.0128652 -0.0169072 -0.999774 
-0.368313 0.553894 -0.723151 0.362719 0.329698 0.871627 
-0.0235235 -0.241888 -0.635706 -0.0397426 0.0106356 -0.999153 
-0.437447 0.0914452 0.307372 -0.762701 -0.00419722 0.646738 
-0.47704 -0.649162 -0.686075 0.5744 -0.212833 0.790422 
-0.431869 0.6707 0.313974 -0.766368 -0.183604 0.615605 
-0.253804 0.160931 0.606037 0.283169 -0.033701 -0.958478 
-0.562912 -0.176871 -0.175694 -0.980381 0.00919099 -0.196896 
0.228639 -0.15439 0.460634 0.418862 0.015338 0.90792 
0.450027 0.246015 0.288444 0.788993 0.00885844 0.614338 
-0.607388 -0.712455 0.399228 0.709082 0.410189 -0.57354 
0.253419 0.215497 0.449326 0.461814 0.0247743 0.886631 
-0.638474 -0.0933182 0.26263 0.8715 -0.0106512 -0.49028 
-0.598342 0.582007 0.417416 0.797222 0.194426 -0.57152 
-0.578065 -0.778336 -0.303321 -0.655863 0.737687 -0.160194 
0.515389 -0.0420339 0.181432 0.903754 0.0105076 0.427923 
0.150031 0.641263 -0.615022 0.273918 -0.0918146 -0.95736 
0.617422 -0.774948 -0.128299 0.459064 0.888339 0.0106954 
0.509344 -0.512292 -0.320857 0.887425 -0.028735 -0.460056 
0.506102 0.271793 0.441006 -0.702545 -0.0102233 -0.711566 
-0.621624 0.0667224 0.293449 0.858211 0.00697824 -0.51325 
0.172145 0.187699 -0.608512 0.311341 0.010451 -0.950241 
-0.571189 -0.459092 -0.00930848 -0.995723 0.00836361 0.0920077 
0.694757 -0.337866 0.101166 -0.976165 -0.00139573 -0.217024 
0.0107817 0.0355843 -0.635345 0.0224678 -0.00724088 -0.999721 
-0.101649 0.123525 -0.626716 -0.181912 0.00627095 -0.983295 
0.0217281 0.375767 0.978756 -0.181764 -0.723181 -0.666312 
-0.359995 0.152571 -0.68248 0.480337 -0.0187663 0.876883 
-0.0741289 0.763217 0.509843 -0.0825513 -0.638337 0.765318 
-0.632062 0.222506 0.27511 0.864886 -0.00832306 -0.5019 
0.13796 0.302338 0.895799 -0.984416 -0.15577 -0.0816097 
-0.543829 0.132122 0.119083 -0.946218 0.00343048 0.323512 
0.101192 -0.206437 0.808738 -0.731688 -0.568986 0.37535 
0.133877 -0.591356 0.702357 -0.117473 -0.100026 -0.988026 
0.591324 0.779338 0.140966 0.383705 -0.904051 0.188317 
0.708126 0.709653 0.220394 -0.876359 -0.323972 -0.356423 
-0.184314 -0.368969 -0.605667 -0.319416 -0.00112178 -0.947614 
0.509796 0.221667 -0.320876 0.894328 0.00257804 -0.447405 
0.431214 -0.725033 -0.680718 -0.559711 0.488578 0.66934 
-0.0911044 -0.768618 0.523469 -0.0983147 0.658896 0.745781 
-0.166649 -0.512188 -0.611288 -0.280449 -0.0239558 -0.95957 
0.571181 0.364642 -0.49243 -0.787957 -0.0835319 0.610038 
0.235816 -0.779909 0.542075 0.034878 0.969235 0.243653 
-0.11357 0.450578 -0.624762 -0.196096 0.0389426 -0.979811 
-0.543115 0.775584 0.223909 -0.535762 -0.820365 0.199902 
-0.0435843 -0.200676 0.736549 0.29385 -0.953957 -0.0601524 
-0.655942 0.778997 -0.0485631 -0.183606 -0.982985 -0.00550911 
0.217727 0.758048 0.624338 -0.179985 -0.836349 -0.517808 
0.066542 -0.725312 -0.813595 -0.0496521 0.480894 0.875372 
0.56578 -0.722055 0.00987221 0.912247 0.404344 0.0656592 
-0.297969 -0.214966 -0.714718 0.407297 0.00951325 0.913246 
-0.534929 0.27857 0.144832 -0.926115 0.00826959 0.377151 
-0.535088 0.699933 0.492187 0.696604 -0.346243 -0.628377 
-0.0487485 -0.39163 -0.777079 0.0639798 -0.0945581 0.993461 
-0.251999 0.734169 0.642222 0.174635 -0.580542 -0.795282 
-0.0740491 -0.0724755 0.504242 -0.111093 0.0108569 0.993751 
-0.202325 -0.360507 0.472499 -0.345558 0.00128381 0.938397 
0.509654 0.386824 -0.321086 0.896003 0.00785268 -0.443978 
-0.57021 0.558544 -0.124214 -0.990771 0.0813271 -0.108441 
-0.608233 -0.775598 -0.143479 -0.682115 0.720877 -0.122705 
-0.53243 0.468 -0.276222 -0.925528 -0.0182104 -0.378242 
-0.676698 0.336786 0.174777 0.953648 0.00896634 -0.300791 
-0.265367 -0.637836 0.675245 0.320603 -0.0239779 -0.94691 
-0.641108 -0.274232 0.257581 0.891045 0.0482586 -0.451342 
0.549699 -0.779466 0.276713 0.237441 0.947274 0.215159 
-0.715586 0.294337 -0.104051 0.999463 -0.0127801 0.030173 
0.442306 -0.107896 0.29756 0.770392 -0.000330411 0.637571 
-0.540217 0.435125 -0.53473 0.754615 0.264188 0.600633 
-0.570641 0.293138 -0.00317265 -0.994631 0.00397649 0.10341 
0.0615233 -0.134451 0.505247 0.0976176 0.0302784 0.994763 
0.0114179 0.465228 0.838284 -0.103484 -0.928518 -0.356575 
-0.54154 -0.376638 -0.252444 -0.944722 0.0245627 -0.32695 
-0.479182 0.781574 -0.514677 -0.277399 -0.960514 -0.021504 
0.315363 -0.407697 0.577773 -0.307297 -0.021016 -0.951382 
-0.0453121 0.00938529 -0.777543 0.0641912 -0.00202496 0.997936 
0.0939514 -0.344712 -0.627672 0.148809 -0.0159155 -0.988738 
-0.196418 0.024863 0.474516 -0.329502 0.00182166 0.944153 
-0.419509 -0.649559 -0.454402 -0.692073 0.0574745 -0.719536 
0.0589622 0.149795 0.825442 -0.543237 0.597248 0.590075 
-0.372062 0.299865 -0.499526 -0.633488 -0.00549938 -0.773733 
0.202174 -0.31622 0.471052 0.365285 -0.0209151 0.930661 
0.679991 0.559131 0.263924 -0.866112 0.315333 -0.387833 
0.432199 0.640208 -0.436964 0.735144 0.0186454 -0.677654 
0.102034 -0.621668 -0.62626 0.203039 -0.0209481 -0.978947 
-0.313496 -0.261015 0.416227 -0.548555 0.0129389 0.836014 
0.512129 -0.403836 0.188776 0.90152 0.0166037 0.432419 
-0.43173 -0.195441 -0.635076 0.603667 -0.0153415 0.797089 
-0.533739 -0.367909 -0.541942 0.740555 0.0254822 0.671512 
-0.571054 0.464686 -0.00574802 -0.995506 -0.026673 0.0908624 
-0.706997 0.548505 -0.323171 0.926811 0.273972 0.256829 
-0.355961 -0.00207567 0.386265 -0.624798 0.00529044 0.780768 
0.557455 0.153959 -0.185599 0.977848 -0.000597981 -0.209317 
0.268534 -0.0603372 -0.568079 0.468597 0.00773224 -0.883378 
0.268885 -0.776597 -0.639367 0.0853793 0.88599 -0.455776 
-0.165932 -0.204192 -0.61159 -0.297226 -0.000523282 -0.954807 
0.710375 0.380543 0.00655526 -0.99355 0.112159 -0.0166667 
-0.448984 0.336368 -0.621709 0.654249 0.0663976 0.753359 
-0.299861 0.596523 0.653806 0.350326 0.283645 -0.892646 
0.518484 0.375595 0.175467 0.911319 -0.0134406 0.411482 
-0.320204 -0.197343 -0.538596 -0.549606 -0.0131428 -0.835321 
-0.143199 -0.306009 0.804924 0.994615 -0.101296 -0.0219054 
0.205163 0.37361 0.470781 0.375232 -0.0488222 0.925644 
-0.000910577 -0.50445 0.686833 0.0935999 0.636293 -0.765748 
-0.203102 -0.454882 0.622978 0.513061 -0.289566 -0.808034 
0.0570165 -0.775126 0.541516 -0.000313182 0.800012 0.599984 
-0.598098 0.745557 0.366384 0.574191 -0.682771 -0.451805 
-0.744725 -0.693754 -0.281125 0.940275 -0.0170279 0.339991 
0.363032 0.449394 -0.504877 0.62606 0.00378436 -0.779766 
0.677573 0.445439 0.161955 -0.894394 0.21511 -0.392157 
0.51024 -0.15523 -0.319253 0.890706 -0.0151247 -0.454328 
0.0600432 -0.108294 -0.632478 0.0994322 -0.0015468 -0.995043 
0.479591 0.532247 0.486506 -0.592704 0.345477 -0.727563 
-0.155184 0.775548 -0.724883 -0.0610011 -0.997552 -0.0341962 
-0.128123 -0.271223 -0.767797 0.178526 0.00851011 0.983898 
-0.765395 -0.596545 0.0754948 0.945279 -0.27161 -0.180767 
0.0977097 -0.216009 0.645025 -0.552178 -0.556154 -0.621122 
-0.778841 -0.655169 -0.137394 0.984776 -0.133916 0.11083 
-0.370072 -0.544125 -0.710574 0.487773 -0.333506 0.806753 
-0.565489 -0.601462 0.0334661 -0.977867 -0.0714058 0.196665 
0.312602 -0.00624825 0.579611 -0.464511 -0.0405727 -0.884637 
0.682588 0.267917 -0.273549 -0.952067 -0.0144638 0.305548 
-0.0540472 -0.74421 0.669 0.0118869 0.54118 -0.840823 
0.245836 -0.265222 0.608078 -0.337746 -0.0701174 -0.938622 
0.513893 -0.311317 -0.31131 0.89775 0.0236722 -0.439869 
-0.114961 0.407908 0.497187 -0.149704 -0.0204582 0.988519 
0.127292 0.183875 0.640489 -0.411156 0.372816 -0.83184 
-0.727333 -0.749841 -0.0232393 0.606421 0.777023 -0.168783 
-0.120444 0.438218 0.705577 0.762066 -0.142114 -0.631711 
-0.192569 -0.163051 0.626646 0.380104 -0.0760985 -0.921808 
0.567307 -0.259712 0.00107102 0.99282 -0.00728016 0.119399 
0.698233 -0.0630227 0.0870015 -0.972852 0.0105133 -0.23119 
0.531471 -0.412945 -0.541178 -0.786362 -0.115355 0.6069 
-0.610862 -0.417081 0.311875 0.896998 -0.127355 -0.423291 
0.0458521 -0.293943 0.506859 0.0474371 -0.0551943 0.997348 
-0.110596 -0.0660387 -0.62538 -0.188177 0.00373034 -0.982128 
0.269366 0.159562 0.598808 -0.321923 0.0400651 -0.945918 
-0.716132 -0.00639797 -0.0246962 0.998234 -0.00130083 -0.0593965 
0.70958 0.337858 -0.138352 -0.995798 -0.0418697 0.0814495 
0.0701137 -0.389266 0.933073 -0.530162 0.669806 -0.519893 
-0.483051 -0.478971 0.465504 0.650883 -0.29793 -0.698276 
-0.389308 -0.655184 0.357679 -0.712176 0.0633109 0.69914 
-0.573792 -0.277874 -0.0732526 -0.999962 -0.00802988 -0.00328466 
0.0119945 0.71389 0.697704 0.125529 -0.432879 -0.892669 
0.730761 -0.595056 -0.319067 -0.919603 -0.210045 0.331982 
0.495458 0.117347 -0.578663 -0.677408 -0.00116588 0.735606 
0.663955 -0.193472 0.199222 -0.942983 -0.00756209 -0.332755 
-0.520359 0.608648 0.178868 -0.899339 0.0783249 0.43018 
0.570023 0.177614 -0.0394127 0.999554 -0.00060633 0.0298601 
-0.10525 -0.21486 0.4994 -0.170122 -0.0183469 0.985252 
-0.429746 -0.325341 0.316336 -0.7553 0.0133272 0.655243 
0.712021 -0.361037 -0.116454 -0.997428 -0.0513724 0.0499804 
-0.252174 -0.132917 0.45105 -0.444326 -0.00968048 0.895813 
0.427476 0.397897 0.31519 0.763858 -0.0129788 0.645254 
-0.0903903 0.540854 -0.798907 0.0757234 0.318023 0.945054 
0.305045 0.664517 -0.780662 -0.366967 0.142073 0.919321 
-0.0788743 -0.651388 -0.630903 -0.136054 0.0829468 -0.987223 
-0.698706 -0.311353 0.0972996 0.966375 0.0115561 -0.256876 
-0.0300396 -0.0891337 0.853248 0.248256 -0.312046 0.917059 
0.0993167 -0.390887 -0.771816 -0.188137 -0.0804489 0.978842 
-0.477631 -0.155803 0.470853 0.67134 -0.0235122 -0.740776 
-0.531415 0.114715 0.417456 0.74478 0.00301603 -0.667303 
0.0170403 0.588186 0.50838 0.0139809 0.118725 0.992829 
0.255747 -0.517214 -0.574564 0.459123 -0.0361238 -0.887638 
0.104202 -0.0981781 -0.771007 -0.144809 0.0121389 0.989385 
0.570133 0.586302 -0.0841576 0.992252 0.109453 -0.0587899 
0.148512 0.525326 0.48896 0.311342 0.175906 0.933875 
-0.367907 -0.356588 -0.678143 0.495681 -0.0220712 0.868224 
-0.594807 0.776663 0.0877437 -0.518582 -0.832435 0.195255 
-0.245044 0.472387 0.609101 0.410503 0.280735 -0.867569 
-0.53908 -0.156418 -0.535674 0.746376 -0.0245369 0.665072 
-0.258037 -0.0347203 -0.575069 -0.444319 -0.00240516 -0.895865 
0.658732 -0.245587 -0.340494 -0.931602 0.0711494 0.356447 
0.39372 -0.774811 0.490666 -0.11277 0.981541 -0.15447 
0.582048 -0.221629 -0.477398 -0.792885 0.0412022 0.607977 
-0.664972 -0.519031 0.207745 0.856488 -0.416053 -0.305498 
-0.694576 -0.0353058 0.113734 0.973469 -0.0184987 -0.228071 
-0.654514 -0.579905 0.342065 0.85064 -0.287852 -0.439946 
0.300312 -0.663641 -0.783107 -0.422556 -0.0477571 0.905078 
-0.56119 -0.0638608 0.38245 0.791344 0.00556602 -0.611345 
-0.199429 0.172716 0.473472 -0.362476 -0.0104665 0.931934 
-0.580334 0.351005 0.357754 0.819224 0.0795175 -0.567934 
0.516424 -0.234217 0.4302 -0.705258 0.0154855 -0.708782 
0.167168 -0.610544 -0.824055 -0.230732 -0.22875 0.945746 
0.619467 -0.454242 -0.419389 -0.812509 -0.312972 0.491811 
0.361282 0.145506 0.378853 0.640022 0.00183202 0.768354 
-0.101379 0.388486 0.89685 0.766794 -0.596391 -0.23737 
0.0784764 0.502376 0.646349 -0.734932 0.0798212 -0.673426 
-0.650932 0.0549517 -0.364283 0.909446 0.0134007 0.415606 
0.29602 0.777512 -0.628836 0.37134 -0.858416 -0.353878 
0.120448 0.0679264 1.07457 -0.914999 -0.0475339 -0.400647 
-0.485289 -0.527625 -0.605331 0.635442 -0.35571 0.685335 
-0.116804 0.0600292 0.923047 0.865842 0.141535 0.479881 
0.501963 0.509573 -0.570857 -0.815465 0.23003 0.531133 
0.426529 -0.557916 0.561738 -0.534915 -0.288141 -0.794255 
-0.615286 0.256389 -0.431067 0.842042 -0.0290245 0.53863 
-0.194718 0.677839 0.475254 -0.227837 -0.149388 0.962171 
-0.698035 0.366941 -0.22734 0.98091 -0.0181698 0.193609 
-0.71713 -0.37804 -0.0437295 0.999849 -0.0142787 0.00993048 
-0.35997 -0.444272 0.555717 0.448535 -0.271443 -0.851549 
0.619757 -0.779028 0.140446 0.28319 0.957726 0.0506358 
-0.291207 0.780434 -0.64665 -0.114569 -0.950219 -0.289754 
-0.128583 0.133827 1.04953 0.923591 -0.101562 -0.369682 
0.245989 0.535863 -0.755164 -0.250494 0.316973 0.914758 
-0.431078 -0.113554 0.314856 -0.752473 -0.0125896 0.658502 
0.423877 0.322768 -0.446089 0.743054 -0.0234983 -0.668819 
0.10492 -0.736669 0.674873 -0.0230776 0.523477 -0.851728 
0.38684 0.635243 0.616758 -0.517698 0.163349 -0.839825 
0.738872 -0.724736 -0.196724 -0.815983 0.562868 0.131728 
-0.740826 0.7279 0.0693578 0.84773 -0.476288 -0.233462 
0.168116 0.654816 -0.825737 -0.257766 0.263603 0.929554 
0.642609 0.706362 0.354071 -0.813486 -0.253919 -0.523225 
0.771416 0.593306 -0.0121486 -0.976344 0.211767 0.043664 
-0.134866 0.33358 -0.766698 0.191464 -0.0164384 0.981362 
-0.567398 0.413401 -0.148356 -0.989247 -0.020039 -0.144872 
-0.676797 0.210165 -0.299838 0.949131 -0.00368606 0.314861 
0.565401 -0.26516 -0.144205 0.989795 -0.00631981 -0.142358 
