ply
format ascii 1.0
element vertex 500
property float x
property float y
property float z
property float nx
property float ny
property float nz
end_header
-0.716441 -0.229363 -0.0991377 0.998762 -0.000536225 0.0497334 
0.41129 -0.138231 0.521132 -0.598616 7.33093e-17 -0.801036 
-0.689098 0.128912 0.136004 0.966241 0.0046262 -0.257598 
-0.195805 -0.509981 0.474822 -0.338998 -0.0416187 0.939866 
0.299373 0.551731 0.423462 0.483459 0.10903 0.86855 
0.500947 0.554509 -0.337001 0.894479 0.0347358 -0.445758 
0.152368 0.00249752 0.487605 0.270402 -0.0140697 0.962645 
-0.179751 0.606462 -0.607203 -0.321925 -0.0275864 -0.946363 
-0.271373 0.302039 0.441255 -0.46976 0.00346701 0.882788 
0.0295186 -0.0781551 0.651551 -0.125852 -0.0407865 -0.99121 
0.513367 -0.776569 -0.436941 0.368148 0.882303 -0.293272 
0.627529 0.24856 -0.404503 -0.890574 0.01676 0.454529 
0.237464 0.309124 0.611008 -0.485 -0.0250295 -0.874156 
-0.780903 0.620003 -0.056425 0.973213 0.228747 -0.0230676 
0.502348 -0.542051 -0.606558 -0.627151 -0.284805 0.72496 
0.596019 0.28553 0.330062 -0.858298 1.05111e-16 -0.513152 
-0.0562514 0.263995 0.506012 -0.0426089 0.0863583 0.995353 
0.0432201 0.394294 0.506825 -0.00577447 -0.0519603 0.998632 
0.110943 -0.111535 1.07811 -0.864612 0.11891 -0.488167 
-0.523098 0.137391 -0.299205 -0.909334 1.11361e-16 -0.416068 
0.770494 -0.589148 -0.0854812 -0.975294 -0.217125 -0.040719 
-0.223318 -0.655082 -0.591192 -0.403724 0.124867 -0.906319 
-0.567474 0.609165 0.0192015 -0.991015 -1.21364e-16 0.133752 
-0.346024 -0.26176 0.56351 0.415351 0.0737929 -0.906663 
0.60397 0.434607 0.318026 -0.857103 0.197505 -0.475779 
-0.521499 -0.234206 -0.301803 -0.910344 1.11485e-16 -0.413853 
-0.32602 -0.512479 0.407665 -0.573529 -0.0392491 0.818244 
0.541169 0.66695 -0.244835 0.955771 -0.164258 -0.24397 
-0.505182 -0.613061 0.208556 -0.892882 -0.0710253 0.444654 
0.396165 0.288779 0.531963 -0.542419 -0.051085 -0.838554 
0.428944 -0.0777469 -0.44056 0.747597 -0.00377525 -0.664142 
0.142858 -0.33586 0.745731 -0.985898 1.20738e-16 -0.167345 
0.398076 -0.741909 0.344635 0.595752 0.54137 0.593295 
-0.127895 -0.577923 0.693609 0.0120462 -0.111577 -0.993683 
0.18632 -0.45717 0.626628 -0.670667 8.2133e-17 -0.741758 
0.484406 0.513541 0.238657 0.840895 0.0328685 0.540199 
-0.499263 -0.0821532 -0.34516 -0.861507 -0.00277892 -0.507738 
0.554798 0.495118 -0.196596 0.963198 0.0371312 -0.266217 
0.74373 -0.736061 -0.0447808 -0.807572 0.589756 0.00386633 
0.401279 0.636684 0.343021 0.706532 -0.0251417 0.707235 
0.712885 0.196524 -0.0931732 -0.999104 -1.22355e-16 0.0423176 
0.305904 -0.677341 0.652575 -0.433573 0.102728 -0.895244 
0.157496 0.0288108 -0.61285 0.288748 0.00431847 -0.957395 
0.753312 -0.692253 0.115309 -0.974819 0.100229 -0.199203 
0.00575446 -0.204399 -0.778529 -0.00109119 -0.00473489 0.999988 
-0.22437 0.30369 0.616502 0.433519 0.0496058 -0.899778 
0.701351 -0.221725 -0.198489 -0.974714 0.0226535 0.222307 
-0.208015 -0.652813 0.470471 -0.323735 0.0419702 0.945217 
0.164406 -0.600752 0.48421 0.277238 -0.0686964 0.958342 
-0.559683 -0.336138 0.064098 -0.978322 -1.1981e-16 0.207089 
0.613129 0.777999 -0.313219 0.30604 -0.948049 -0.0868459 
-0.432548 0.231546 0.507941 0.618547 -0.0465469 -0.784368 
-0.564835 0.0912468 -0.163594 -0.984864 -1.20611e-16 -0.173326 
0.555389 0.0973472 0.386015 -0.781846 -9.57485e-17 -0.623471 
-0.540591 -0.728065 0.126399 -0.871452 0.387127 0.30117 
-0.435718 -0.521998 0.309367 -0.744228 -0.0190901 0.667652 
0.549015 -0.601731 0.0926879 0.970036 -0.0714522 0.232219 
-0.337306 -0.106679 0.568426 0.477676 -0.0213072 -0.878278 
-0.139908 0.678167 -0.829538 0.195584 0.0565888 0.979053 
0.443054 0.102042 -0.42326 0.776534 0.0223237 -0.62968 
0.712244 -0.234417 -0.0144881 -0.997281 0.0145015 -0.072246 
-0.000385212 0.778009 -0.724934 0.102593 -0.887061 -0.450109 
0.326167 0.245912 -0.699818 -0.448301 -0.0147983 0.89376 
0.00231554 -0.571835 -0.826159 0.00941653 -0.240045 0.970716 
0.117219 -0.774272 -0.661265 0.166537 0.704742 -0.68964 
-0.164613 0.303197 -0.612252 -0.282082 0.00601448 -0.959371 
-0.59578 -0.633212 -0.572669 0.740425 -0.326514 0.587503 
-0.573092 0.0171684 -0.0378517 -0.998584 0.00384978 0.0530498 
0.257238 -0.240375 -0.730515 -0.358 0.0364845 0.933009 
-0.284814 -0.0239441 -0.720548 0.358224 -0.0120694 0.933558 
-0.31863 -0.382724 -0.539725 -0.552603 -6.76744e-17 -0.833445 
0.710953 -0.469545 0.00766216 -0.964166 -0.23082 -0.130794 
-0.178823 -0.778293 -0.68432 -0.0207763 0.929377 -0.368546 
-0.274688 0.410546 -0.566141 -0.483129 -0.00705407 -0.875521 
-0.139663 -0.102645 0.966067 0.983341 -0.0602284 0.1715 
0.603111 -0.102302 0.319759 -0.844173 1.03381e-16 -0.536071 
-0.541804 -0.0113556 0.125094 -0.9429 0.00211312 0.333069 
-0.734399 -0.533724 -0.0614338 0.929466 -0.363958 0.0602323 
-0.675216 -0.693211 -0.446171 0.924528 -0.0739527 0.373871 
-0.421945 -0.470097 -0.452018 -0.741023 9.07491e-17 -0.67148 
0.396872 0.11315 0.531277 -0.571987 -7.00483e-17 -0.820262 
-0.606714 -0.527352 -0.464665 0.832523 -0.289739 0.472182 
0.662212 -0.03259 -0.331637 -0.929282 1.13804e-16 0.36937 
-0.397032 -0.775707 -0.524301 -0.472792 0.665578 -0.577472 
-0.413229 -0.0393966 -0.648743 0.585688 0.0110181 0.810462 
0.679427 0.299086 0.156065 -0.931138 -0.0323636 -0.363229 
0.304473 0.11459 -0.546881 0.535889 0.0152209 -0.844152 
-0.158871 -0.0148307 0.634679 0.233537 -0.00378222 -0.972341 
-0.0747479 -0.207448 1.08161 0.564004 0.362805 -0.741803 
-0.467437 -0.314926 0.480186 0.635451 0.0633979 -0.769534 
-0.0107298 0.132691 1.13214 0.0794457 -0.263898 -0.961273 
-0.702448 0.100479 -0.206626 0.977178 0.00842921 0.212255 
0.570646 -0.532878 -0.0746784 0.995351 -0.0885027 -0.0379857 
-0.14382 0.244541 0.930432 0.997681 -0.0597577 -0.0325711 
0.635634 0.157214 0.261998 -0.888391 1.08797e-16 -0.459087 
0.137627 0.305659 0.752708 -0.99308 0.088324 -0.0774056 
0.483814 0.287939 -0.589243 -0.666197 -0.00902014 0.745721 
0.74635 0.590463 0.133307 -0.913793 0.252582 -0.318095 
-0.343013 0.171099 0.395831 -0.589975 -0.00713382 0.80739 
-0.53436 0.424679 0.146325 -0.929 1.1377e-16 0.370079 
0.327086 0.428861 -0.699202 -0.387691 0.166454 0.906636 
0.0320164 0.101377 0.507469 0.0436158 -0.0237004 0.998767 
0.17278 -0.204868 -0.608767 0.295352 -0.00794243 -0.955355 
-0.522476 -0.638842 -0.299635 -0.918476 0.0643241 -0.39021 
0.559381 -0.396083 0.0517493 0.979071 0.0299488 0.201305 
-0.344275 0.568561 -0.521646 -0.59296 -7.26167e-17 -0.805232 
-0.47149 -0.337912 -0.389472 -0.822653 -1.00746e-16 -0.568544 
0.426529 -0.344904 0.51036 -0.660877 -0.0151066 -0.750342 
0.610928 -0.776659 -0.323189 0.108083 0.990582 -0.084056 
0.568433 0.743109 -0.020402 0.911539 -0.409299 0.0396457 
-0.48128 -0.774814 0.319148 -0.421165 0.83602 0.351696 
-0.430669 0.487196 -0.441851 -0.748934 0.00563675 -0.662621 
0.438495 -0.30189 -0.627749 -0.608397 -0.0064618 0.793606 
-0.0644921 -0.43795 0.861884 0.403621 0.853674 -0.329136 
0.0107652 0.262484 1.07455 -0.0993942 -0.541124 -0.835049 
-0.0309445 -0.778297 -0.69841 0.0221779 0.856001 -0.516498 
0.213082 -0.480772 -0.745889 -0.3294 -0.317476 0.889216 
0.324597 -0.261668 0.406686 0.560052 -0.0103285 0.828393 
-0.515132 0.0123004 -0.561567 0.720148 0.021501 0.693487 
0.163019 0.0102713 0.632811 -0.188056 -0.0539204 -0.980677 
0.0849785 0.0275981 0.894792 -0.667548 0.0332139 0.743826 
-0.430315 0.735691 -0.679012 0.507611 -0.65605 0.558507 
0.559044 0.0484579 0.0505872 0.980251 -0.00272512 0.197736 
0.555331 0.33034 -0.194323 0.977373 -0.0147588 -0.211009 
0.295238 0.330534 -0.552486 0.524176 -0.0209234 -0.851353 
-0.56635 -0.241376 0.37627 0.81328 -0.0197166 -0.581539 
-0.566911 0.268742 -0.152208 -0.988464 0.00138235 -0.151452 
-0.712072 -0.143668 0.0199211 0.992634 -0.0161508 -0.120073 
-0.239752 0.471274 -0.738313 0.307333 0.194035 0.93161 
0.0959534 -0.435736 0.500441 0.159279 0.0200175 0.987031 
0.491416 0.691986 0.535911 -0.690801 -0.104975 -0.715383 
0.674204 -0.698672 -0.43165 -0.845574 0.303656 0.439088 
0.300965 -0.435431 0.422236 0.524318 0.0344201 0.850826 
0.00706433 -0.0357693 1.15123 -0.0448792 0.0592794 -0.997232 
0.340539 -0.231854 -0.522165 0.603462 -0.0015766 -0.797391 
0.262957 0.533037 0.618175 -0.268935 0.426597 -0.863533 
0.0829085 0.779454 0.582238 -0.0588278 -0.985609 0.158476 
0.361266 0.0960917 -0.68006 -0.49556 -6.06886e-17 0.868574 
-0.314271 -0.53679 -0.542786 -0.535775 -0.0593013 -0.842276 
0.333443 -0.607604 0.400369 0.633875 -0.116343 0.764635 
-0.432566 -0.210059 -0.439876 -0.756902 -9.26938e-17 -0.653528 
0.551931 0.613331 0.0819735 0.967764 0.0787725 0.239225 
-0.112491 -0.67834 -0.831875 0.10215 0.0766935 0.991808 
0.502838 0.775062 0.269377 0.589081 -0.725899 0.355041 
0.600306 -0.295336 0.324105 -0.835779 0.0641389 -0.545307 
0.601231 0.511302 -0.446862 -0.680553 0.267874 0.681975 
0.610113 -0.488921 0.30716 -0.810728 -0.299339 -0.503108 
0.747883 0.730619 -0.0968955 -0.8874 -0.460846 -0.011958 
-0.339264 0.776328 0.514579 -0.0277245 -0.989657 0.140748 
-0.568917 -0.6372 -0.140298 -0.99195 0.00682256 -0.126448 
0.548988 -0.61302 -0.21897 0.970987 0.00460474 -0.239088 
0.521739 -0.488032 0.424182 -0.700132 -0.37136 -0.609842 
-0.564943 -0.486915 -0.16395 -0.981765 1.20231e-16 -0.190101 
-0.274847 0.291624 -0.724575 0.398273 -0.00649428 0.917244 
0.42518 -0.370001 0.318387 0.747562 0.0236609 0.663771 
-0.530836 0.628182 -0.280211 -0.925825 -1.13381e-16 -0.377951 
-0.236721 -0.383926 -0.739569 0.344469 -0.10405 0.933014 
0.334738 -0.0532398 -0.695191 -0.477014 5.84173e-17 0.878896 
-0.176656 0.0680281 -0.757193 0.281728 0.0208339 0.959268 
0.147855 0.356309 -0.61561 0.254513 -0.0271159 -0.966689 
0.748781 0.682937 -0.264109 -0.993224 -0.0170668 0.114953 
-0.693232 0.730418 0.224193 0.854863 -0.381301 -0.351879 
-0.709739 0.498602 -0.160016 0.944573 0.279682 0.171931 
0.710013 0.522816 -0.167058 -0.937746 0.333236 0.097906 
0.145973 0.778283 -0.688422 0.144336 -0.782577 -0.60559 
0.683228 -0.424584 -0.271029 -0.915902 -0.231089 0.328208 
0.271917 -0.349283 -0.565933 0.492425 0.00222181 -0.870352 
0.127172 -0.116042 0.932354 -0.944339 -0.132769 0.300993 
0.0746707 0.514641 -0.773948 -0.144457 0.263559 0.953766 
0.007723 0.643632 -0.635471 0.0203299 -0.173262 -0.984666 
-0.513538 0.221661 -0.563317 0.723747 -0.038717 0.688978 
0.705041 0.605712 -0.390434 -0.859806 0.257535 0.440919 
-0.248577 -0.574665 -0.787536 0.348559 -0.241006 0.905772 
0.373658 0.448946 0.545988 -0.534756 0.164999 -0.828741 
-0.431107 0.651189 -0.441474 -0.801684 -0.0625862 -0.594462 
0.13878 0.178355 0.9791 -0.996598 -0.0191417 -0.0801685 
-0.129742 -0.287249 0.953094 0.944796 0.212484 -0.24942 
-0.71626 0.14473 -0.0349797 0.998815 0.00698717 -0.0481704 
0.544134 -0.752918 0.419363 -0.39931 0.79592 -0.455042 
-0.504007 -0.424394 0.210626 -0.871099 7.47895e-05 0.491107 
0.712821 -0.0874204 -0.100194 -0.998766 -0.0258968 0.0423734 
0.727 0.743219 0.0527877 -0.733967 -0.675664 -0.0690724 
0.217729 -0.122754 0.617642 -0.186012 0.0862667 -0.978753 
-0.570913 -0.149336 -0.00710154 -0.994839 -1.21833e-16 0.10147 
-0.40339 -0.741078 0.555662 0.532751 0.624244 -0.571398 
-0.582623 0.114153 -0.481056 0.823134 -0.00164305 0.567845 
-0.418269 0.0706865 -0.455969 -0.724443 8.87187e-17 -0.689335 
0.648562 0.015616 0.235785 -0.911998 1.11687e-16 -0.410196 
0.0860539 0.370952 -0.773324 -0.126354 -0.0633479 0.98996 
0.114026 0.187281 -0.769373 -0.177029 -2.16798e-17 0.984206 
0.304371 -0.661581 -0.547211 0.491873 0.153048 -0.85711 
0.0587357 0.483013 -0.632136 0.0966686 0.0616026 -0.993408 
-0.454359 0.204032 -0.41356 -0.791658 0.00102169 -0.610964 
-0.330005 0.627749 0.405514 -0.586488 -0.0684154 0.807063 
-0.285884 -0.776099 0.481607 -0.229577 0.762243 0.605211 
-0.0873502 0.189662 0.803139 0.709448 0.421356 0.564927 
0.330094 0.595055 -0.529844 0.565131 0.0187165 -0.824789 
0.48382 -0.171618 -0.589123 -0.67986 -0.00347973 0.733334 
0.338644 -0.426361 -0.69313 -0.380498 -0.146236 0.913146 
0.458635 -0.581385 0.276882 0.791682 -0.109052 0.601122 
-0.75486 0.714142 -0.177636 0.880813 -0.390177 0.268197 
0.408763 -0.36332 -0.462411 0.703701 -0.00731376 -0.710458 
-0.506209 -0.493404 -0.333035 -0.887781 1.08722e-16 -0.460267 
-0.669736 0.543405 0.255086 0.904947 0.224396 -0.361548 
-0.094292 0.249127 0.657701 0.588507 0.515936 -0.622471 
0.216204 0.0702739 -0.744912 -0.312972 3.8328e-17 0.949762 
-0.380989 -0.0743109 -0.492023 -0.662738 -8.1162e-17 -0.748851 
-0.0352001 0.189305 -0.778522 0.0499542 0.00774793 0.998721 
-0.717616 0.536027 0.0904633 0.923053 0.271835 -0.272174 
-0.682774 -0.0672122 -0.283029 0.948912 -0.023065 0.314696 
-0.000149069 0.0684204 0.652702 -1.19736e-16 2.5708e-17 -1 
-0.582972 0.769236 -0.172957 -0.678453 -0.704092 -0.209656 
-0.591953 0.691846 -0.568333 0.725514 -0.221197 0.651691 
0.378007 0.766349 -0.512156 0.56859 -0.512278 -0.643643 
-0.0372468 -0.404425 -0.634803 -0.0614726 0.000307438 -0.998109 
-0.429736 0.262819 0.316336 -0.748664 0.0162184 0.662751 
0.504532 0.778186 -0.431752 0.416149 -0.737212 -0.532296 
-0.624933 -0.106791 -0.415232 0.869649 -0.0139693 0.493474 
-0.656566 0.768023 -0.323287 0.536411 -0.831529 0.144304 
0.190249 0.732418 0.475148 0.264044 -0.506641 0.820729 
-0.201548 0.529417 0.472592 -0.333255 0.0539376 0.941293 
-0.440775 0.0146499 0.501612 0.617292 0.0325926 -0.786059 
-0.00437295 -0.587916 0.50882 -0.0219364 -0.0755045 0.996904 
0.483167 0.692841 -0.667242 -0.693889 -8.49769e-17 0.720082 
0.552811 0.2688 0.0787609 0.96934 0.017194 0.24512 
-0.502344 0.770084 -0.372766 -0.719066 -0.596292 -0.356903 
-0.15801 -0.097707 -0.761308 0.229014 -0.0092341 0.973379 
-0.620359 -0.297378 -0.423314 0.871492 0.0127952 0.490242 
-0.713828 -0.744161 0.122108 0.669543 0.729621 -0.139158 
0.603151 0.775984 -0.16827 0.62605 -0.778752 0.040079 
0.42164 0.566362 -0.695578 -0.563687 0.259467 0.784177 
0.513837 -0.0495202 0.432963 -0.701741 8.59385e-17 -0.712432 
0.69201 -0.539308 0.195323 -0.873551 -0.319702 -0.367013 
0.598541 0.572037 0.409931 -0.730782 0.249403 -0.635418 
0.561313 -0.108779 -0.167031 0.983499 0.00714359 -0.180775 
-0.0715106 -0.419231 0.505 -0.106354 0.016537 0.994191 
0.606158 0.698505 -0.537476 -0.74445 -9.11689e-17 0.667678 
-0.632435 0.423515 -0.401357 0.851196 0.195421 0.487109 
-0.436234 -0.583316 0.571986 0.605185 -0.27895 -0.745613 
0.152292 0.636193 0.705152 -0.249183 -3.05162e-17 -0.968456 
0.562545 0.441668 0.0328025 0.982932 -0.0480777 0.177576 
-0.343423 -0.770723 -0.667203 -0.0280948 0.96831 0.248166 
0.284659 -0.00386341 0.431844 0.502222 0.000144158 0.864739 
0.0327054 0.208106 -0.634789 0.0605797 -0.00574339 -0.998147 
0.656328 0.116987 -0.344332 -0.918993 -0.0100201 0.394147 
-0.528949 -0.155263 0.158998 -0.923141 0.000796778 0.384461 
0.616794 -0.605618 -0.534793 -0.744617 -0.221281 0.629747 
0.336478 0.325253 0.398632 0.586956 -0.0207415 0.809353 
0.0215489 -0.307936 1.04152 -0.174651 0.62279 -0.762647 
0.700055 0.0958072 -0.202814 -0.983755 -1.20475e-16 0.179515 
-0.50012 0.338096 -0.344793 -0.874066 0.00205429 -0.485803 
-0.508097 0.604523 -0.655402 0.660727 0.16131 0.733089 
0.679914 -0.681435 0.314255 -0.904932 0.0196184 -0.425104 
-0.665872 0.59857 -0.467125 0.850004 0.22066 0.478333 
-0.676488 -0.492706 -0.299524 0.919231 -0.160816 0.359379 
0.694739 0.148372 0.101248 -0.97246 0.020199 -0.232191 
0.387105 0.78074 0.464936 0.169819 -0.96565 0.196675 
-0.458771 0.403772 0.280607 -0.7939 9.72247e-17 0.608049 
0.550721 -0.0660491 -0.518175 -0.775518 -9.49735e-17 0.631326 
0.41477 -0.605026 -0.456536 0.738241 0.00380178 -0.674526 
0.713245 0.0549535 -0.0420611 -0.999953 -1.22459e-16 -0.00969427 
-0.607615 -0.771776 0.247343 0.17697 0.982263 -0.0619736 
-0.300829 0.667676 -0.78575 0.359896 0.104873 0.927079 
0.555079 -0.437519 -0.196878 0.971261 -0.0112872 -0.237751 
0.610784 -0.610868 0.420348 -0.772939 -0.253755 -0.581527 
-0.683197 -0.343522 -0.281105 0.953436 0.0381029 0.299178 
0.231911 0.495727 -0.586108 0.410791 0.0357588 -0.911028 
0.682115 0.433383 -0.275006 -0.970134 0.145614 0.194002 
-0.459117 0.396811 0.486567 0.610697 0.129932 -0.781132 
0.486176 -0.268077 0.236039 0.85425 0.0187098 0.519526 
-0.51827 -0.779283 -0.444543 -0.429694 0.789958 -0.437412 
-0.304745 0.135659 -0.548787 -0.528377 -6.47075e-17 -0.84901 
0.0897755 0.235567 0.501263 0.14247 0.0506344 0.988503 
-0.419366 0.573285 0.576427 0.510537 0.324366 -0.796328 
0.568092 -0.104617 -0.00800314 0.99503 0.00796228 0.0992569 
-0.181385 -0.305883 0.629144 0.741975 0.0195898 -0.670141 
0.01989 0.640617 -0.846019 -0.0123199 0.322149 0.946609 
0.509396 0.10789 0.193725 0.889888 -0.0124449 0.45601 
-0.338092 0.44724 0.399512 -0.59771 0.00856192 0.801667 
-0.0811287 0.582637 0.706066 0.288922 -0.110445 -0.95096 
-0.714387 0.412178 -0.00256894 0.993036 0.0854069 -0.0811438 
0.0687261 -0.457832 0.807235 -0.363082 0.882701 -0.298347 
0.395932 -0.564868 -0.709476 -0.545209 -0.270121 0.793588 
0.527415 0.00222615 -0.282196 0.925724 0.0132444 -0.377968 
-0.0129167 0.349225 -0.635705 -0.0206352 -0.0069782 -0.999763 
-0.368313 0.553894 -0.723151 0.354796 0.32375 0.877101 
-0.0235235 -0.241888 -0.635706 -0.0358791 -4.39392e-18 -0.999356 
-0.437447 0.0914452 0.307372 -0.762852 -0.00377771 0.646562 
-0.47704 -0.649162 -0.686075 0.572443 -0.222272 0.789243 
-0.431869 0.6707 0.313974 -0.757014 -0.198673 0.622462 
-0.253804 0.160931 0.606037 0.284917 -0.026985 -0.958172 
-0.562912 -0.176871 -0.175694 -0.980304 -1.20053e-16 -0.197492 
0.228639 -0.15439 0.460634 0.416875 0.0150072 0.90884 
0.450027 0.246015 0.288444 0.788411 0.0100317 0.615067 
-0.607388 -0.712455 0.399228 0.706455 0.405853 -0.579832 
0.253419 0.215497 0.449326 0.459743 0.0228268 0.887759 
-0.638474 -0.0933182 0.26263 0.871055 -0.0100049 -0.491084 
-0.598342 0.582007 0.417416 0.802697 0.178969 -0.568901 
-0.578065 -0.778336 -0.303321 -0.683756 0.711176 -0.163421 
0.515389 -0.0420339 0.181432 0.903249 0.0118235 0.428953 
0.150031 0.641263 -0.615022 0.267006 -0.127412 -0.955235 
0.617422 -0.774948 -0.128299 0.474757 0.879923 0.0184755 
0.509344 -0.512292 -0.320857 0.889066 -0.0262852 -0.457023 
0.506102 0.271793 0.441006 -0.702182 -8.59925e-17 -0.711997 
-0.621624 0.0667224 0.293449 0.858136 0.00790078 -0.513361 
0.172145 0.187699 -0.608512 0.310404 0.00858801 -0.950566 
-0.571189 -0.459092 -0.00930848 -0.995583 0.0135403 0.0929037 
0.694757 -0.337866 0.101166 -0.975914 1.19515e-16 -0.218158 
0.0107817 0.0355843 -0.635345 0.0226439 0.00189032 -0.999742 
-0.101649 0.123525 -0.626716 -0.178458 0.00297464 -0.983943 
0.0217281 0.375767 0.978756 -0.181009 -0.721075 -0.668795 
-0.359995 0.152571 -0.68248 0.480649 -0.0221089 0.876634 
-0.0741289 0.763217 0.509843 -0.0811356 -0.632871 0.769994 
-0.632062 0.222506 0.27511 0.864242 -0.0100716 -0.502976 
0.13796 0.302338 0.895799 -0.984707 -0.15247 -0.084297 
-0.543829 0.132122 0.119083 -0.946085 -1.15862e-16 0.323919 
0.101192 -0.206437 0.808738 -0.725579 -0.575635 0.377067 
0.133877 -0.591356 0.702357 -6.87276e-18 1.22272e-16 -1 
0.591324 0.779338 0.140966 0.408707 -0.890729 0.198899 
0.708126 0.709653 0.220394 -0.880593 -0.309117 -0.359169 
-0.184314 -0.368969 -0.605667 -0.317361 -0.00959758 -0.948256 
0.509796 0.221667 -0.320876 0.894819 0.00156351 -0.446426 
0.431214 -0.725033 -0.680718 -0.551154 0.481467 0.681483 
-0.0911044 -0.768618 0.523469 -0.110648 0.612739 0.782501 
-0.166649 -0.512188 -0.611288 -0.281172 3.44337e-17 -0.959657 
0.571181 0.364642 -0.49243 -0.788295 -0.0833264 0.609629 
0.235816 -0.779909 0.542075 0.035808 0.953303 0.299885 
-0.11357 0.450578 -0.624762 -0.196322 -2.40425e-17 -0.980539 
-0.543115 0.775584 0.223909 -0.581078 -0.783578 0.219896 
-0.0435843 -0.200676 0.736549 0.289057 -0.95543 -0.0599955 
-0.655942 0.778997 -0.0485631 -0.229818 -0.97323 -0.00250864 
0.217727 0.758048 0.624338 -0.14719 -0.815118 -0.560284 
0.066542 -0.725312 -0.813595 -0.0546501 0.467643 0.882226 
0.56578 -0.722055 0.00987221 0.914264 0.399717 0.065937 
-0.297969 -0.214966 -0.714718 0.408231 0.0133321 0.912781 
-0.534929 0.27857 0.144832 -0.926852 -1.13507e-16 0.375426 
-0.535088 0.699933 0.492187 0.702899 -0.345548 -0.621715 
-0.0487485 -0.39163 -0.777079 0.0635223 -0.0952744 0.993422 
-0.251999 0.734169 0.642222 0.181424 -0.580631 -0.793696 
-0.0740491 -0.0724755 0.504242 -0.10923 -1.33768e-17 0.994016 
-0.202325 -0.360507 0.472499 -0.349041 -0.00118937 0.937107 
0.509654 0.386824 -0.321086 0.896649 0.00793056 -0.442672 
-0.57021 0.558544 -0.124214 -0.992659 0.0586131 -0.105798 
-0.608233 -0.775598 -0.143479 -0.700168 0.702074 -0.129833 
-0.53243 0.468 -0.276222 -0.926862 -0.00517206 -0.375367 
-0.676698 0.336786 0.174777 0.954463 0.0138732 -0.298008 
-0.265367 -0.637836 0.675245 0.316897 -0.028595 -0.948029 
-0.641108 -0.274232 0.257581 0.891449 0.0469235 -0.450685 
0.549699 -0.779466 0.276713 0.238577 0.945861 0.220066 
-0.715586 0.294337 -0.104051 0.99942 -0.0159678 0.0300811 
0.442306 -0.107896 0.29756 0.77161 0.0016185 0.636094 
-0.540217 0.435125 -0.53473 0.757093 0.267513 0.596026 
-0.570641 0.293138 -0.00317265 -0.994708 -0.00184378 0.102724 
0.0615233 -0.134451 0.505247 0.096032 0.033091 0.994828 
0.0114179 0.465228 0.838284 -0.0876526 -0.931865 -0.352059 
-0.54154 -0.376638 -0.252444 -0.943879 -1.15592e-16 -0.330291 
-0.479182 0.781574 -0.514677 -0.303407 -0.952552 -0.0242569 
0.315363 -0.407697 0.577773 -0.310492 -0.0103538 -0.95052 
-0.0453121 0.00938529 -0.777543 0.0628462 0.000359923 0.998023 
0.0939514 -0.344712 -0.627672 0.147183 -0.0106045 -0.989052 
-0.196418 0.024863 0.474516 -0.330438 -0.00260611 0.943824 
-0.419509 -0.649559 -0.454402 -0.689444 0.0669578 -0.721238 
0.0589622 0.149795 0.825442 -0.538462 0.58461 0.606869 
-0.372062 0.299865 -0.499526 -0.634918 -0.00388118 -0.772569 
0.202174 -0.31622 0.471052 0.364977 -0.0199905 0.930802 
0.679991 0.559131 0.263924 -0.866727 0.310213 -0.39058 
0.432199 0.640208 -0.436964 0.736401 0.00476495 -0.676529 
0.102034 -0.621668 -0.62626 0.203106 -0.00824449 -0.979122 
-0.313496 -0.261015 0.416227 -0.548043 -6.71159e-17 0.83645 
0.512129 -0.403836 0.188776 0.901637 0.0162186 0.43219 
-0.43173 -0.195441 -0.635076 0.603671 -0.0114141 0.797152 
-0.533739 -0.367909 -0.541942 0.738349 0.0188708 0.674155 
-0.571054 0.464686 -0.00574802 -0.995537 -0.00451504 0.0942642 
-0.706997 0.548505 -0.323171 0.93079 0.263112 0.253777 
-0.355961 -0.00207567 0.386265 -0.625603 -7.66142e-17 0.780142 
0.557455 0.153959 -0.185599 0.977555 -0.00237687 -0.210665 
0.268534 -0.0603372 -0.568079 0.470432 0.0113144 -0.882364 
0.268885 -0.776597 -0.639367 0.0882876 0.879221 -0.468161 
-0.165932 -0.204192 -0.61159 -0.298239 4.00857e-05 -0.954491 
0.710375 0.380543 0.00655526 -0.999902 -1.22453e-16 -0.0139665 
-0.448984 0.336368 -0.621709 0.656052 0.0708045 0.751387 
-0.299861 0.596523 0.653806 0.352662 0.284581 -0.891428 
0.518484 0.375595 0.175467 0.911423 -0.0113585 0.411314 
-0.320204 -0.197343 -0.538596 -0.550527 6.74201e-17 -0.834818 
-0.143199 -0.306009 0.804924 0.994838 -0.0991331 -0.0216778 
0.205163 0.37361 0.470781 0.374981 -0.0457832 0.925901 
-0.000910577 -0.50445 0.686833 0.0851094 0.653338 -0.752267 
-0.203102 -0.454882 0.622978 0.514202 -0.294143 -0.805653 
0.0570165 -0.775126 0.541516 -0.00280363 0.756157 0.654384 
-0.598098 0.745557 0.366384 0.58457 -0.661752 -0.469427 
-0.744725 -0.693754 -0.281125 0.937237 -0.0509371 0.344952 
0.363032 0.449394 -0.504877 0.626676 0.00597312 -0.779257 
0.677573 0.445439 0.161955 -0.896405 0.215834 -0.387135 
0.51024 -0.15523 -0.319253 0.891092 -0.0142599 -0.453598 
0.0600432 -0.108294 -0.632478 0.102327 -0.00304118 -0.994746 
0.479591 0.532247 0.486506 -0.592429 0.335127 -0.732611 
-0.155184 0.775548 -0.724883 -0.103292 -0.986691 -0.125585 
-0.128123 -0.271223 -0.767797 0.175423 0.00604684 0.984475 
-0.765395 -0.596545 0.0754948 0.946067 -0.270019 -0.179015 
0.0977097 -0.216009 0.645025 -0.538992 -0.57323 -0.617167 
-0.778841 -0.655169 -0.137394 0.982242 -0.148817 0.114251 
-0.370072 -0.544125 -0.710574 0.489625 -0.331524 0.806449 
-0.565489 -0.601462 0.0334661 -0.97802 -0.0678948 0.197147 
0.312602 -0.00624825 0.579611 -0.460191 5.63572e-17 -0.88782 
0.682588 0.267917 -0.273549 -0.953442 -0.0126988 0.30131 
-0.0540472 -0.74421 0.669 -0.00189509 0.488707 -0.872446 
0.245836 -0.265222 0.608078 -0.354014 -0.0743547 -0.93228 
0.513893 -0.311317 -0.31131 0.897924 0.0205923 -0.439668 
-0.114961 0.407908 0.497187 -0.147813 1.81019e-17 0.989015 
0.127292 0.183875 0.640489 -0.393344 0.374894 -0.839485 
-0.727333 -0.749841 -0.0232393 0.60594 0.774483 -0.181693 
-0.120444 0.438218 0.705577 0.753241 -0.144391 -0.641701 
-0.192569 -0.163051 0.626646 0.381366 -0.0776377 -0.921158 
0.567307 -0.259712 0.00107102 0.993011 -0.00724533 0.117801 
0.698233 -0.0630227 0.0870015 -0.972951 0.0092975 -0.230824 
0.531471 -0.412945 -0.541178 -0.785681 -0.115226 0.607806 
-0.610862 -0.417081 0.311875 0.896982 -0.126851 -0.423476 
0.0458521 -0.293943 0.506859 0.0521992 -0.0538111 0.997186 
-0.110596 -0.0660387 -0.62538 -0.190064 0.00344064 -0.981766 
0.269366 0.159562 0.598808 -0.329539 -4.03568e-17 -0.944142 
-0.716132 -0.00639797 -0.0246962 0.998229 -0.0010303 -0.059484 
0.70958 0.337858 -0.138352 -0.994629 -0.0499014 0.0906788 
0.0701137 -0.389266 0.933073 -0.527788 0.673442 -0.517605 
-0.483051 -0.478971 0.465504 0.652958 -0.294944 -0.697606 
-0.389308 -0.655184 0.357679 -0.712172 0.0727067 0.698229 
-0.573792 -0.277874 -0.0732526 -0.999955 -0.00845858 -0.00421696 
0.0119945 0.71389 0.697704 0.0798459 -0.438779 -0.895041 
0.730761 -0.595056 -0.319067 -0.916761 -0.210438 0.339506 
0.495458 0.117347 -0.578663 -0.678613 8.31061e-17 0.734496 
0.663955 -0.193472 0.199222 -0.94202 1.15364e-16 -0.335556 
-0.520359 0.608648 0.178868 -0.900458 -1.10274e-16 0.434943 
0.570023 0.177614 -0.0394127 0.999515 0.0025087 0.0310359 
-0.10525 -0.21486 0.4994 -0.171214 2.09677e-17 0.985234 
-0.429746 -0.325341 0.316336 -0.753003 -9.22163e-17 0.658017 
0.712021 -0.361037 -0.116454 -0.997382 -0.0525061 0.0497317 
-0.252174 -0.132917 0.45105 -0.440913 -0.00906039 0.897504 
0.427476 0.397897 0.31519 0.763512 -0.0115573 0.64569 
-0.0903903 0.540854 -0.798907 0.0815337 0.303236 0.949421 
0.305045 0.664517 -0.780662 -0.36132 0.168659 0.917062 
-0.0788743 -0.651388 -0.630903 -0.135738 0.0936488 -0.986309 
-0.698706 -0.311353 0.0972996 0.966141 0.0119167 -0.25774 
-0.0300396 -0.0891337 0.853248 0.247544 -0.316929 0.915575 
0.0993167 -0.390887 -0.771816 -0.19108 -0.0770669 0.978544 
-0.477631 -0.155803 0.470853 0.671061 -0.0240411 -0.741013 
-0.531415 0.114715 0.417456 0.745217 0.00228856 -0.666818 
0.0170403 0.588186 0.50838 0.0182015 0.105933 0.994207 
0.255747 -0.517214 -0.574564 0.459415 -0.0361732 -0.887485 
0.104202 -0.0981781 -0.771007 -0.14429 0.00514327 0.989522 
0.570133 0.586302 -0.0841576 0.992394 0.108043 -0.0589976 
0.148512 0.525326 0.48896 0.301685 0.171128 0.937924 
-0.367907 -0.356588 -0.678143 0.495976 -0.0264431 0.867934 
-0.594807 0.776663 0.0877437 -0.565445 -0.795413 0.218151 
-0.245044 0.472387 0.609101 0.419427 0.283122 -0.862509 
-0.53908 -0.156418 -0.535674 0.747406 -0.021522 0.664019 
-0.258037 -0.0347203 -0.575069 -0.445843 -0.00215508 -0.895109 
0.658732 -0.245587 -0.340494 -0.932109 0.0682816 0.355684 
0.39372 -0.774811 0.490666 -0.0981279 0.985745 -0.136667 
0.582048 -0.221629 -0.477398 -0.79333 0.0389552 0.607544 
-0.664972 -0.519031 0.207745 0.856499 -0.415597 -0.306086 
-0.694576 -0.0353058 0.113734 0.97337 -0.0189899 -0.228453 
-0.654514 -0.579905 0.342065 0.84982 -0.288095 -0.44137 
0.300312 -0.663641 -0.783107 -0.42463 5.20022e-17 0.905367 
-0.56119 -0.0638608 0.38245 0.79176 0.00652568 -0.610798 
-0.199429 0.172716 0.473472 -0.361304 4.42469e-17 0.932448 
-0.580334 0.351005 0.357754 0.816843 0.0871744 -0.570236 
0.516424 -0.234217 0.4302 -0.705842 0.0136983 -0.708237 
0.167168 -0.610544 -0.824055 -0.221642 -0.218901 0.950241 
0.619467 -0.454242 -0.419389 -0.815892 -0.306134 0.490512 
0.361282 0.145506 0.378853 0.639797 -0.000238794 0.768544 
-0.101379 0.388486 0.89685 0.764256 -0.599668 -0.237299 
0.0784764 0.502376 0.646349 -0.704242 0.136238 -0.696766 
-0.650932 0.0549517 -0.364283 0.909649 0.0125848 0.415186 
0.29602 0.777512 -0.628836 0.421314 -0.808292 -0.411288 
0.120448 0.0679264 1.07457 -0.914602 -0.047473 -0.401558 
-0.485289 -0.527625 -0.605331 0.635492 -0.350182 0.688129 
-0.116804 0.0600292 0.923047 0.868077 0.137852 0.476905 
0.501963 0.509573 -0.570857 -0.813429 0.231375 0.533665 
0.426529 -0.557916 0.561738 -0.52908 -0.288127 -0.798159 
-0.615286 0.256389 -0.431067 0.841481 -0.0317279 0.539355 
-0.194718 0.677839 0.475254 -0.227037 -0.151516 0.962028 
-0.698035 0.366941 -0.22734 0.98123 -0.0161365 0.192164 
-0.71713 -0.37804 -0.0437295 0.999829 -0.0148567 0.0110536 
-0.35997 -0.444272 0.555717 0.447777 -0.271554 -0.851912 
0.619757 -0.779028 0.140446 0.291585 0.955382 0.0471472 
-0.291207 0.780434 -0.64665 -0.137714 -0.928452 -0.344981 
-0.128583 0.133827 1.04953 0.923687 -0.0993518 -0.370043 
0.245989 0.535863 -0.755164 -0.249376 0.307269 0.918367 
-0.431078 -0.113554 0.314856 -0.751859 -0.0107012 0.659237 
0.423877 0.322768 -0.446089 0.744082 -0.0231451 -0.667687 
0.10492 -0.736669 0.674873 -7.84566e-05 0.462863 -0.88643 
0.38684 0.635243 0.616758 -0.516725 0.175409 -0.83799 
0.738872 -0.724736 -0.196724 -0.819924 0.559016 0.123392 
-0.740826 0.7279 0.0693578 0.862078 -0.44293 -0.24624 
0.168116 0.654816 -0.825737 -0.262027 0.292762 0.919583 
0.642609 0.706362 0.354071 -0.817722 -0.236875 -0.524615 
0.771416 0.593306 -0.0121486 -0.97481 0.218547 0.0445286 
-0.134866 0.33358 -0.766698 0.190591 -0.00988915 0.98162 
-0.567398 0.413401 -0.148356 -0.989247 1.21148e-16 -0.146257 
-0.676797 0.210165 -0.299838 0.949262 -0.00400086 0.314462 
0.565401 -0.26516 -0.144205 0.989961 -0.00699406 -0.141168 
