ply
format ascii 1.0
element vertex 500
property float x
property float y
property float z
property float nx
property float ny
property float nz
end_header
-0.395859 -0.35866 -0.445699 0.786162 -0.224954 -0.575626 
0.277407 -0.182219 0.0992203 -0.0928249 0.802519 0.589361 
0.397169 0.0513702 0.150074 0.508681 -0.860862 -0.0126132 
-0.106117 -0.313611 0.32296 0.773887 0.532118 0.343437 
-0.0956932 -0.907496 0.125554 -0.989012 -0.106603 -0.102424 
-0.330776 -0.414066 0.234167 -0.532452 -0.692681 -0.486506 
0.254183 -0.109508 -0.196091 -0.828168 0.558404 0.0481836 
-0.470085 0.445857 0.313793 0.0168415 -0.0526719 0.99847 
-0.468811 0.190489 -0.333684 -0.504295 6.17584e-17 -0.863531 
-0.116703 0.573731 -0.306996 0.0156977 -0.0770515 -0.996904 
-0.0740665 -0.252918 -0.163423 0.179118 0.588303 -0.788553 
-0.287499 -0.152278 -0.434215 0.57438 0.409123 -0.709018 
0.208615 0.468736 0.269022 -0.0627412 -0.178028 0.982023 
-0.0806899 -0.58191 0.0325358 -0.969644 -0.104721 -0.22096 
0.395381 -0.412466 0.260286 0.707047 -0.546593 -0.448687 
0.272452 -0.468922 0.318684 0.191311 -0.971124 -0.142543 
0.455939 0.6649 0.218899 0.638982 0.741222 -0.205651 
0.523396 0.578996 0.321503 0.406467 0.324791 0.853988 
0.470059 0.569515 -0.187185 0.785133 0.550473 0.283805 
-0.406856 0.643954 -0.211784 -0.726692 0.669553 0.153678 
-0.2788 -0.387738 0.148268 -0.45752 -0.752005 -0.474514 
-0.470784 0.112129 -0.193746 -0.963595 -0.26627 0.0241783 
0.0669345 -0.518158 0.0657913 0.837199 -0.348416 -0.42155 
0.111818 0.0589239 -0.207935 -0.275072 -0.956889 0.0932658 
-0.489979 -0.250188 -0.383945 -0.868254 0.444676 -0.219996 
0.211534 -0.305552 0.465242 -0.831108 0.362104 0.422066 
-0.0521397 -0.253343 -0.0504031 0.223637 0.96517 0.135768 
-0.0325756 -0.619788 -0.114541 -0.462237 5.66077e-17 -0.886756 
-0.526153 0.243812 -0.263181 -0.986701 -0.136686 -0.0879697 
0.0669445 -0.740233 0.214668 0.92965 -0.288502 -0.229167 
0.608753 0.349758 0.299384 0.656111 -0.0357163 0.753819 
-0.386869 -0.354943 0.377732 -0.986495 0.15694 0.0468853 
0.0671551 -0.69528 0.327046 0.950961 0.0569776 0.304019 
0.506952 0.194238 -0.164844 0.887361 -0.27436 0.370563 
-0.522846 0.330792 -0.216131 -0.977168 1.19669e-16 0.212466 
-0.193594 0.749709 -0.0152463 -0.417689 0.90782 -0.0374047 
0.562721 -0.320499 -0.21624 0.39316 -0.395349 -0.830135 
0.273436 0.300368 0.256173 -0.00381042 0.0237886 0.99971 
0.214286 -0.263229 -0.220237 -0.2791 -0.906195 -0.317669 
0.296736 -0.133984 -0.378818 -0.502069 0.72701 -0.468383 
0.12897 -0.479389 0.142126 0.750049 -0.491607 -0.442436 
0.746829 -0.360804 -0.161253 -0.197979 -0.773584 -0.601974 
-0.0248427 0.214376 0.256725 -0.0250517 0.256705 0.966165 
0.225934 0.579642 0.296947 -0.123345 -0.271325 0.954552 
-0.179716 0.668486 0.324435 0.071642 -0.222645 0.972264 
-0.397008 0.0918557 0.302774 -0.442383 -0.702746 0.557177 
-0.203818 -0.459326 0.207268 -0.516785 -0.688879 -0.50831 
-0.2878 -0.0604075 -0.309341 0.779556 0.245274 -0.57631 
0.380753 -0.306195 0.436623 0.905366 0.422623 -0.0412632 
0.424547 0.559252 0.32318 -0.143388 -0.167773 0.975342 
-0.526851 -0.218971 -0.2873 -0.766601 0.248294 -0.592177 
-0.751812 -0.234619 -0.0438314 -0.279374 0.895944 0.345304 
0.183702 -0.23836 0.194745 -0.291122 0.886396 0.35993 
-0.170537 0.0378645 -0.322362 0.314973 -0.884478 -0.344225 
0.32239 -0.494374 -0.200158 -0.820435 -0.423499 0.384102 
-0.409626 0.53211 0.319508 0.0353152 -0.1449 0.988816 
-0.121416 -0.530734 0.127132 -0.893744 -0.155706 -0.420686 
-0.198862 -0.234682 -0.27203 0.782419 -0.528501 -0.329404 
-0.119482 -0.387213 0.391568 0.875823 -0.0430257 0.480711 
0.449527 -0.10677 0.0375707 0.663773 0.259789 0.701367 
0.389354 -0.473456 0.425161 0.414271 -0.907897 -0.0640557 
-0.323483 0.693518 -0.189984 -0.517218 0.818944 0.24863 
0.416096 -0.293617 -0.043274 0.0172056 -0.721978 0.691702 
-0.477313 0.189914 -0.0746974 -0.992537 -0.108664 0.0553361 
0.458919 0.0287776 -0.297646 0.831132 -0.494881 -0.253598 
0.296981 0.712427 -0.0463341 0.503402 0.863913 -0.0155511 
-0.199232 0.513247 -0.303567 0.0100453 -0.0609954 -0.998087 
-0.0184597 0.351472 0.255988 -0.0111828 -0.0567497 0.998326 
-0.0673776 -0.350329 -0.160009 -0.14375 -0.300195 -0.942984 
0.46623 0.11956 -0.00502621 0.928044 -0.371549 -0.0262066 
-0.0600032 0.590062 0.295477 0.030832 -0.300005 0.953439 
0.494676 0.228147 -0.070236 0.967762 -0.250771 -0.023459 
-0.169624 -0.406035 0.100949 -0.472671 -0.74709 -0.467374 
-0.410241 0.640722 0.315029 -0.53562 0.390326 0.748837 
-0.467749 0.0907358 -0.0982509 -0.999318 -0.0225407 -0.0292575 
0.500583 -0.315578 0.00179336 -0.402905 -0.609867 0.682445 
-0.124799 0.50284 0.272249 0.0314456 -0.229504 0.9728 
-0.144324 0.787328 0.231803 -0.207789 0.970204 -0.124608 
0.367456 0.476875 0.289116 -0.163019 -0.279734 0.946136 
-0.277578 -0.258663 -0.334128 0.543797 -0.792205 -0.276939 
0.275532 -0.234094 0.488905 -0.321147 0.827599 0.460374 
0.379453 0.342669 0.263278 -0.151226 -0.0724708 0.985839 
0.169014 0.73816 -0.324601 0.046678 0.429601 -0.901812 
0.344011 -0.240604 0.308452 0.472368 0.878574 -0.0705418 
-0.154776 0.184142 -0.349255 0.0237851 0.377112 -0.925862 
0.0528994 0.783889 0.0928519 0.0983313 0.994622 -0.0325423 
0.203534 0.146075 0.284688 0.0361481 0.261921 0.964412 
-0.35857 -0.467474 -0.38906 0.873827 -0.145529 -0.463947 
-0.0850722 0.784043 -0.0262329 -0.147975 0.988752 0.0217587 
0.446574 -0.485092 -0.398058 0.890615 -0.316704 -0.32635 
-0.498157 0.246245 -0.157834 -0.949088 -0.142542 0.280917 
-0.180119 -0.38515 0.493006 0.734239 -0.327016 0.59494 
0.455409 0.419457 0.2935 -0.301817 -0.215875 0.928604 
-0.0679656 -0.41709 0.303323 0.703781 0.247903 0.66576 
0.515407 0.112011 -0.26016 0.870453 -0.472059 0.139541 
0.357199 -0.406741 -0.0897558 -0.354925 -0.573778 0.73811 
0.334585 -0.285083 0.549245 0.202999 0.560165 0.803123 
-0.00667621 -0.776754 0.000443536 0.980622 -0.0585979 0.18694 
-0.167965 -0.483641 0.381371 0.311046 -0.751219 0.582168 
-0.261914 0.46208 0.273505 0.104914 -0.223329 0.969081 
0.113596 0.15383 -0.371401 0.0134299 0.0880867 -0.996022 
-0.347597 0.289067 0.265781 0.286817 0.107867 0.951893 
-0.082909 0.0667383 -0.160481 0.226081 -0.957844 0.177264 
-0.571992 -0.193086 0.0246922 -0.55023 0.436807 0.711651 
-0.231508 -0.121693 -0.25563 0.852805 0.492358 -0.174088 
-0.0689483 -0.983625 0.0700736 -0.965557 1.18247e-16 -0.260192 
-0.0867916 0.0847597 -0.016285 0.50388 -0.860522 -0.0748764 
0.484933 0.414817 -0.340821 0.0848348 0.0736143 -0.993672 
-0.957621 -0.343752 -0.0292088 -0.665242 0.233631 0.709133 
0.343175 -0.310577 0.155391 0.962606 -0.147797 -0.227039 
0.397023 0.631747 -0.0254914 0.707169 0.698888 -0.107087 
0.40279 -0.262715 -0.479565 0.637414 0.333504 -0.694607 
-0.00438758 0.456127 0.26526 0.0246666 -0.136525 0.990329 
0.0898942 0.410354 -0.322973 0.0145606 0.129375 -0.991489 
-0.494917 -0.244786 0.069069 -0.200504 -0.368206 0.907867 
-0.0700767 0.0691111 0.0879466 0.164232 -0.952124 -0.257852 
0.564458 0.239518 0.297653 0.266481 -0.230109 0.935969 
0.433444 -0.225244 0.0634356 0.373233 -0.364708 0.853045 
0.301262 0.133392 0.283154 0.000315398 0.295301 0.955404 
-0.472224 -0.358455 -0.0632042 0.0846854 -0.601506 0.794367 
0.281051 -0.0215151 -0.0346098 -0.905999 -0.361139 0.220782 
-0.682551 -0.225016 -0.198493 -0.190644 0.726695 -0.659977 
-0.137178 0.287356 0.249786 -0.00763302 0.0297265 0.999529 
-0.410773 -0.06228 -0.317997 -0.693697 0.317449 -0.646537 
0.547035 -0.169385 -0.0899051 0.651536 0.757482 0.0415063 
0.495481 -0.424268 -0.174111 0.766718 -0.635059 0.09404 
0.125365 -0.2293 -0.244709 -0.60756 -0.458533 -0.648551 
0.115577 0.77757 -0.135475 0.177597 0.982056 0.0634429 
0.555908 0.348559 -0.31831 0.791895 0.110088 -0.600652 
0.519674 0.513448 -0.254171 0.9268 0.372067 0.0510776 
-0.663708 -0.202771 -0.0992135 -0.334983 0.938355 0.0853041 
-0.373597 0.683501 0.209688 -0.608167 0.758466 -0.234227 
-0.114601 -0.628256 0.15162 -0.931983 -0.1931 -0.306789 
0.326051 0.579588 0.313188 -0.151757 -0.269631 0.950931 
0.120675 -0.275842 -0.148348 -0.324011 -0.574123 -0.751931 
0.133971 -0.223621 -0.0191119 -0.498815 0.866477 -0.0200366 
-0.516892 0.329495 0.313676 -0.219778 -2.69151e-17 0.97555 
-0.334313 -0.252745 0.389769 -0.685171 0.717068 0.12788 
-0.392852 0.606962 0.0294325 -0.757682 0.641831 -0.1182 
0.448425 -0.33889 -0.423064 0.938174 0.0652746 -0.339954 
0.43641 -0.541816 -0.239789 0.518704 -0.812391 0.266397 
-0.408397 0.101047 0.203829 -0.623456 -0.762996 -0.170705 
0.13479 0.628786 0.305779 -0.0329351 -0.331921 0.942732 
0.333166 -0.331416 -0.481091 -0.78043 9.55751e-17 -0.625243 
-0.467015 0.483433 -0.110406 -0.925728 0.318617 0.203741 
-0.0418416 -0.876749 -0.0906918 -0.718519 -0.255445 -0.646899 
-0.56275 0.40027 0.228525 -0.973197 0.185057 -0.136538 
0.536572 0.31094 0.0402871 0.949359 -0.10895 -0.2947 
0.34876 -0.552714 -0.286526 -0.458137 -0.887244 0.0539279 
0.487172 -0.342139 -0.299833 0.888909 -0.171115 -0.424925 
-0.150896 0.40416 0.255941 0.0192972 -0.121438 0.992411 
-0.287015 0.267091 -0.311449 -0.0354085 0.213649 -0.976269 
-0.0463276 0.791413 0.191604 -0.0331706 0.989511 -0.140597 
0.0362523 -0.848776 0.275826 0.891199 -0.389732 -0.232108 
0.19829 0.026763 0.217468 -0.216328 -0.975914 -0.0281645 
0.153349 0.77914 0.206306 0.146799 0.977625 -0.150661 
-0.576225 -0.285561 -0.228645 -0.567422 -0.237781 -0.788348 
-0.452908 -0.153366 -0.338203 -0.739476 0.489973 -0.46163 
-0.40118 0.294061 -0.310689 0.121409 0.20121 -0.971995 
-0.456625 -0.504201 -0.24414 -0.675027 -0.710947 0.197211 
0.715501 -0.267266 -0.0202637 0.277991 0.622469 0.73161 
-0.519549 0.179657 0.284317 -0.717249 -0.56712 0.404881 
-0.505628 0.389046 0.0884075 -0.923864 0.156215 -0.349389 
-0.520522 -0.355105 -0.275999 -0.931481 -0.212245 -0.295457 
0.555169 0.345605 -0.220427 0.950068 0.069155 0.304284 
-0.232819 0.763827 -0.25542 -0.462303 0.864561 -0.197005 
0.378059 0.458732 -0.322283 -0.194506 -0.12056 -0.973464 
-0.773725 -0.276172 -0.227675 -0.0748686 0.586767 -0.806288 
-0.325227 -0.422495 -0.18938 0.980434 -0.102998 0.16775 
-0.330214 -0.416186 0.546603 -0.312904 -0.24403 0.9179 
0.217525 -0.261238 0.288013 -0.388047 0.908355 0.15592 
-0.112535 -0.67659 0.236659 -0.981961 -0.0984496 0.161432 
0.299276 0.729956 -0.236151 0.467455 0.878883 0.0951366 
-0.0873953 0.139812 0.278084 0.00466398 0.182451 0.983204 
0.222492 0.0159958 -0.217911 -0.600221 -0.799827 0.00346889 
0.0556714 0.796538 0.238016 0.0823137 0.99462 -0.0628904 
0.449688 0.0717837 -0.089653 0.972813 -0.21944 0.0740353 
-0.304335 -0.230612 0.144294 -0.692706 0.546758 0.470334 
0.378844 0.637745 -0.339804 0.139189 0.276625 -0.950844 
0.461517 0.550427 -0.0321662 0.835111 0.539679 -0.106473 
-0.441045 0.252026 0.307362 0.264649 0.13962 0.954184 
0.368393 0.701884 0.141953 0.506098 0.818447 -0.272045 
-0.260117 -0.345664 0.550686 0.146605 0.16873 0.974698 
0.339256 0.222014 0.261076 -0.0701738 0.145782 0.986825 
0.421042 -0.415643 -0.477321 0.731943 -0.0960546 -0.674562 
-0.241638 0.0416241 0.179056 -0.0526129 -0.991442 -0.119474 
0.272333 -0.233297 0.378455 -0.298518 0.949928 -0.0923277 
-0.463289 0.463712 -0.00492741 -0.948497 0.307912 -0.074451 
-0.119032 0.047465 0.172159 0.151503 -0.967979 -0.200157 
0.367399 -0.143149 0.0780613 0.0534256 0.27973 0.958591 
-0.337706 -0.233263 0.256054 -0.507752 0.852524 -0.124058 
-0.192419 -0.172658 0.0816638 0.548493 0.811705 0.200723 
0.0545604 -0.47135 -0.0327625 0.864218 -0.483105 -0.140485 
0.453205 -0.389216 -0.0858636 0.0550469 -0.538523 0.84081 
0.143475 -0.428163 0.398149 -0.660498 -0.20274 0.722937 
-0.173479 0.0506581 -0.123971 0.371648 -0.913743 0.164171 
0.475835 0.192795 -0.352942 0.162807 0.192526 -0.967692 
-0.413 -0.0428539 0.0695748 -0.356914 0.0810421 0.930615 
0.923218 -0.409343 -0.0173416 -0.064743 -0.879414 0.471634 
-0.240968 0.732381 -0.123727 -0.528491 0.824878 0.200683 
0.633792 -0.223991 -0.0841783 0.387516 0.916075 0.103135 
0.568124 0.16368 0.202528 0.702901 -0.619658 -0.349219 
-0.00182627 0.452934 -0.313814 -0.0131931 0.137945 -0.990352 
0.835378 -0.366021 -0.010801 -0.381826 -0.464089 0.799269 
0.74431 -0.366324 -0.0531336 -0.174564 -0.817808 0.548377 
-0.210367 -0.2369 0.263915 0.265316 0.952986 0.146374 
0.010948 -0.505648 0.326781 -0.00692499 0.298026 0.954533 
-0.199866 -0.155482 -0.143763 0.815267 0.576784 -0.0515778 
0.0522907 -0.83612 0.37302 0.879139 -0.342855 0.331006 
0.839578 -0.413001 -0.0986186 -0.255982 -0.9593 0.119232 
0.400598 -0.024368 0.0679471 0.491366 -0.179496 0.852256 
0.26471 0.756652 0.201233 0.208946 0.964244 -0.16302 
-0.315902 -0.322644 -0.247124 0.839336 -0.499158 -0.215307 
-0.177448 -0.374183 0.00508853 -0.371256 -0.928442 0.0128176 
-0.249956 0.685125 -0.312927 -0.0937845 0.217596 -0.971523 
-0.0711808 -0.975132 0.234568 -0.507041 -0.837477 0.203818 
0.565152 0.224505 -0.286119 0.975021 -0.196911 -0.102765 
-0.401642 0.593319 -0.0897818 -0.780867 0.603874 0.159947 
0.124553 -0.338322 0.317418 -0.798837 0.494496 0.342539 
0.0864896 0.184682 0.265701 -0.00373485 0.27538 0.961328 
-0.121404 0.291474 -0.31787 -0.0716322 0.157229 -0.984961 
0.394128 0.636955 -0.139555 0.694517 0.703731 0.149697 
0.146435 0.768827 0.0646075 0.195726 0.980128 -0.0322694 
0.263332 -0.105769 -0.0974032 -0.902294 0.412728 0.12458 
0.40082 -0.349581 0.345908 0.966742 0.242203 0.0821387 
0.0958788 0.154564 -0.0186669 -0.88655 -0.447637 -0.116835 
-0.0375255 -0.968503 -0.0215614 -0.751304 -0.475231 -0.457929 
-0.380111 -0.504874 -0.177232 0.0289702 -0.701335 0.712243 
0.538094 0.45123 0.0805979 0.911408 0.262999 -0.31649 
-0.408368 0.524999 -0.31276 -0.206872 0.122594 -0.970657 
-0.20438 0.562422 0.29695 0.101957 -0.292792 0.950725 
-0.341519 -0.288017 0.0721106 -0.707894 -0.610145 0.355822 
0.247007 0.0533372 0.298595 -0.050483 -0.357889 0.932398 
-0.492755 0.37806 -0.118218 -0.971928 0.102913 0.211575 
0.831594 -0.393272 -0.198257 -0.110532 -0.625178 -0.772616 
0.667444 -0.320807 -0.207478 0.10232 -0.278846 -0.954869 
0.11552 -0.558883 0.203169 0.884933 -0.414808 -0.211725 
0.0474923 0.762358 -0.315676 0.0593889 0.510642 -0.85774 
0.801638 -0.29683 -0.10219 0.293295 0.955731 -0.0235921 
0.18974 0.211366 -0.348899 0.0350201 0.295606 -0.954668 
0.394377 -0.401432 0.531404 0.708471 -0.214439 0.672373 
0.610461 0.402437 0.214763 0.916049 0.242046 -0.319795 
0.927856 -0.389113 -0.147015 0.570721 -0.575209 -0.586013 
-0.273568 -0.0371556 0.013039 0.899399 0.0706042 0.43139 
-0.325796 0.67926 0.0749663 -0.619406 0.768342 -0.161201 
0.278226 -0.121904 0.016713 -0.766611 0.517665 0.379908 
-0.52144 0.408246 -0.28886 -0.853995 0.210605 -0.47575 
0.442429 0.154082 0.291018 -0.0180588 0.160424 0.986883 
-0.214552 -0.498855 0.296261 -0.428962 -0.894483 -0.126064 
0.059868 -0.259444 0.0370393 -0.28506 0.956252 0.0657545 
0.104759 -0.289279 0.222714 -0.552671 0.683477 0.476878 
0.219555 0.0232062 -0.320087 -0.463083 -0.80965 -0.360584 
-0.461576 0.0908471 0.0164511 -0.946577 -0.102396 0.30579 
0.209202 -0.410033 0.47573 -0.702916 -0.403711 0.585599 
-0.232206 0.337562 0.252215 0.0416966 -0.0760681 0.99623 
-0.434207 -0.279084 -0.0105832 -0.020996 -0.774043 0.632784 
0.411 0.669978 0.321118 0.326125 0.372727 0.868744 
0.0145395 -0.791622 0.110942 0.905184 -0.2647 -0.332529 
-0.42917 -0.474156 -0.458659 0.145928 -0.507125 -0.849429 
-0.0321442 -0.87456 0.419111 0.256518 -0.4368 0.862209 
0.448243 -0.128298 -0.271351 0.807747 0.328433 -0.489568 
0.371712 -0.552052 -0.3839 -0.113548 -0.958797 -0.260413 
0.231852 0.751878 0.108892 0.267791 0.958139 -0.101278 
-0.140192 -0.235695 0.188402 0.42791 0.859312 0.280136 
-0.444019 -0.515661 -0.367641 -0.444195 -0.880508 -0.165515 
0.273483 0.277981 -0.329469 0.0345242 0.19829 -0.979535 
0.296863 0.540404 -0.321022 -0.170671 -0.141627 -0.975097 
0.527194 -0.194064 -0.216177 0.667155 0.574313 -0.474414 
0.463068 -0.0635946 -0.188187 0.949738 0.263553 -0.168929 
-0.219709 0.114413 -0.380812 -0.0364415 0.206521 -0.977763 
-0.206014 0.756712 0.0941976 -0.361624 0.924827 -0.117999 
-0.0564131 -0.770878 -0.0897076 -0.761143 -0.00572941 -0.648559 
-0.397285 -0.210679 0.0947141 -0.304278 3.72634e-17 0.952583 
0.201132 0.634817 -0.322286 -0.0800916 -0.168209 -0.982492 
0.280903 0.706255 -0.331623 0.130431 0.422955 -0.896715 
-0.460102 0.0140967 -0.185107 -0.973643 0.0572527 -0.220774 
0.0153349 0.0799783 -0.184547 -0.000915287 -0.964908 0.262585 
-0.38319 -0.446936 0.443325 -0.887279 -0.460519 0.0256586 
-0.397402 0.401985 -0.305829 0.118915 -0.0495449 -0.991668 
-0.285816 0.695896 -0.043325 -0.557239 0.830352 -0.00050509 
0.267292 0.403242 -0.317856 0.00129395 0.0389525 -0.99924 
-0.253247 0.0568059 0.296124 0.0953936 -0.502009 0.859585 
0.404501 -0.204002 -0.400483 0.732263 0.518303 -0.441761 
0.0768661 -0.38078 -0.117944 0.547239 -0.336278 -0.766451 
0.0211259 0.786032 -0.0239852 0.0733666 0.997245 0.0109743 
0.169278 0.0561344 0.0344824 -0.315811 -0.944058 -0.0949575 
-0.122645 -0.885893 0.383118 -0.828626 -0.414736 0.375996 
-0.0520292 -0.26994 0.10828 0.325936 0.934428 0.143562 
0.127315 0.0544008 0.146 -0.153521 -0.985141 -0.0769928 
-0.122403 -0.774657 0.256635 -0.978114 0.0640987 -0.197952 
0.522373 0.294247 -0.142344 0.943575 -0.153574 0.293395 
-0.29489 -0.247999 0.492078 -0.300556 0.760315 0.575837 
-0.529352 0.517469 0.261591 -0.885966 0.448632 0.117449 
-0.00460599 -0.909915 0.0843928 0.986659 0.102135 0.126778 
0.224398 0.124992 -0.379885 -0.0947827 0.127981 -0.987237 
0.298726 0.0181779 0.222764 0.0196948 -0.998354 0.0538701 
0.0519844 0.0749871 -0.336118 -0.0224934 -0.838867 -0.543872 
-0.242113 0.359009 -0.301985 -0.0594352 0.0665168 -0.996014 
-0.097164 0.476865 -0.30874 -0.0573597 0.0646794 -0.996256 
0.338689 -0.476909 -0.476478 -0.628543 -0.384771 -0.675933 
0.120327 -0.50501 0.342171 -0.0439528 -0.640533 0.766672 
-0.423863 0.353224 0.293475 0.361763 -0.0399846 0.931412 
-0.844539 -0.289065 -0.0228957 -0.197853 0.485555 0.851522 
0.192738 -0.376201 0.032441 0.110338 -0.97339 -0.200843 
-0.0654795 0.806325 -0.270243 -0.0360605 0.939971 -0.339344 
-0.35754 0.436943 0.284304 0.243909 -0.23593 0.940662 
0.138744 0.0710347 0.288976 -0.209566 -0.527788 0.823117 
0.0287262 -0.69227 0.0822446 0.894598 -0.214349 -0.392109 
-0.687041 -0.336942 -0.143741 0.0204122 -0.958481 -0.284425 
0.0185985 -0.304325 -0.154368 0.278349 0.138433 -0.950451 
-0.351478 -0.336219 -0.338106 0.921009 -0.280538 -0.270262 
-0.486487 0.296227 -0.0433404 -0.998762 -0.0491079 -0.00787462 
-0.588035 -0.176503 -0.185156 -0.540932 0.728954 -0.419546 
0.651517 -0.343455 -0.032914 0.0903954 -0.695288 0.713024 
-0.0324297 0.630053 -0.312202 -0.00663002 -0.140563 -0.99005 
-0.107243 0.781352 0.103683 -0.129435 0.991232 -0.0265804 
-0.527569 0.285105 0.141334 -0.894497 -0.189857 -0.404758 
-0.822728 -0.260975 -0.135051 -0.37084 0.916058 -0.152694 
0.224695 -0.160933 -0.305913 -0.716099 0.509887 -0.476674 
0.540595 0.216792 0.121406 0.80247 -0.39204 -0.449828 
0.335513 -0.381789 -0.321078 -0.996735 -0.0690478 -0.0418622 
-0.414214 -0.174127 -0.439423 -0.566084 0.640632 -0.518786 
0.167065 0.763291 -0.0460531 0.250905 0.967881 0.0159015 
0.275297 -0.331189 -0.114101 -0.402154 -0.874237 -0.271995 
0.0774511 -0.642272 0.167799 0.916725 -0.237892 -0.32097 
0.0981004 0.770791 0.322906 0.0527086 0.6259 0.77812 
0.113632 -0.427974 0.0602338 0.69042 -0.619172 -0.374095 
-0.571488 -0.386196 -0.100566 -0.276848 -0.925042 0.2601 
0.471306 0.608524 -0.285489 0.791193 0.605156 -0.088315 
-0.0128586 0.222759 -0.340552 -0.0871798 0.264412 -0.960461 
-0.120236 -0.226335 0.0388414 0.588334 0.808491 0.0143059 
0.581273 -0.222548 0.000175724 0.482673 0.610357 0.628085 
0.319301 0.165212 -0.365741 0.00939891 0.370194 -0.928907 
-0.559339 0.259999 0.231662 -0.953782 -0.252724 -0.162576 
-0.0616752 0.794189 0.320917 -0.00160786 0.762772 0.646665 
0.282657 -0.067085 -0.294003 -0.897108 0.0741731 -0.43554 
0.0578142 0.581015 -0.307916 -0.0395819 -0.0863359 -0.995479 
0.12697 0.288541 -0.338371 0.0469866 0.18487 -0.981639 
0.355888 -0.300019 0.0403137 0.780971 -0.587261 0.212625 
0.17601 -0.33744 -0.0935358 0.161726 -0.785084 -0.597903 
-0.00804856 -0.523024 -0.133459 -0.0999243 -0.122694 -0.987401 
0.300454 -0.422023 0.218965 0.21273 -0.80992 -0.546604 
0.496616 0.57425 0.119966 0.797027 0.524732 -0.299004 
0.0234005 -0.608945 0.0188957 0.973187 -0.196165 -0.120113 
-0.0582646 0.0612766 -0.264277 0.113699 -0.993513 -0.00227568 
0.284019 0.404071 0.259724 -0.0540991 -0.128484 0.990235 
0.312189 -0.350339 -0.220298 -0.916068 -0.380699 -0.126043 
0.542757 0.456583 0.323868 0.0675873 -0.0687582 0.995341 
0.480142 -0.0816213 -0.0889249 0.900622 0.43456 0.00611989 
-0.242235 0.762652 0.238815 -0.320339 0.945517 -0.0581462 
0.383277 0.676276 -0.247506 0.57285 0.810562 0.121786 
-0.129207 0.738549 -0.314533 -0.0976336 0.269792 -0.957956 
-0.196139 0.147127 0.27323 0.0614903 0.303035 0.950993 
-0.235106 -0.457018 0.455472 0.379141 -0.823977 0.421087 
0.0940551 0.287377 0.256172 -0.0279339 0.039514 0.998828 
-0.34563 0.690575 -0.288434 -0.471817 0.73034 -0.493956 
-0.310694 0.145031 0.29846 0.23613 0.291518 0.926963 
0.233724 0.0105669 -0.115492 -0.616386 -0.781058 0.100087 
-0.119622 0.783912 -0.117698 -0.21897 0.960458 0.171968 
-0.497892 -0.446983 -0.317086 -0.943237 -0.331797 0.0146728 
0.491017 0.0809896 0.237785 0.643498 -0.764698 0.033872 
-0.179285 -0.363411 -0.09387 -0.41573 -0.787459 -0.455058 
-0.281587 0.571105 -0.312181 0.0508814 -0.0817693 -0.995352 
-0.0897431 -0.517005 0.32606 0.0315823 -0.11664 0.992672 
-0.0627771 -0.678255 0.326201 -0.862236 0.202494 0.464268 
0.547409 0.541865 0.200479 0.831955 0.430891 -0.34955 
-0.262207 0.234013 0.256239 0.150414 0.19876 0.968437 
0.191201 -0.186818 -0.103199 -0.583589 0.795002 0.165517 
0.0446563 -0.256438 -0.0716828 -0.153786 0.988087 0.00581888 
0.0520117 0.0587437 0.209294 -0.0687228 -0.990585 0.118397 
0.18038 0.343664 0.256181 -0.0226176 -0.0141045 0.999645 
-0.235526 -0.00624793 -0.242649 0.7507 -0.644691 -0.1443 
0.490362 0.131306 0.15208 0.647714 -0.651944 -0.394253 
0.397284 -0.0581492 -0.331104 0.652867 -0.106675 -0.749924 
0.297668 -0.285973 -0.390314 -0.847777 -0.520629 -0.101095 
0.385694 -0.306765 0.248801 0.89104 0.340407 -0.300284 
0.201671 0.768058 0.311986 0.174371 0.744407 0.644557 
-0.291966 0.172441 -0.34304 -0.0805259 0.410551 -0.908275 
0.501869 -0.245104 -0.297491 0.791299 0.201407 -0.577305 
-0.320236 -0.49661 -0.282923 0.96293 -0.217485 -0.159581 
-0.284245 0.451286 -0.300357 0.0319465 -0.0544564 -0.998005 
0.476075 -0.441204 -0.313326 0.962833 -0.116841 -0.243519 
0.0444563 -0.281114 0.136144 -0.282136 0.901217 0.328948 
0.293226 -0.37337 0.0249973 0.325953 -0.945295 0.0131538 
-0.131834 -0.789568 0.361498 -0.906611 0.340006 0.249905 
0.071259 0.077975 0.0367066 -0.347229 -0.721959 -0.598504 
0.463836 0.0575092 -0.187767 0.921188 -0.310541 0.23447 
0.241963 0.674763 0.325214 -0.0383313 -0.152282 0.987593 
0.0843288 0.406284 0.256626 0.00809386 -0.0858846 0.996272 
-0.923015 -0.29749 -0.154575 -0.465794 0.866173 -0.181053 
-0.103732 -0.861492 0.214106 -0.974687 -0.0828721 -0.207646 
-0.234504 -0.230568 0.359345 0.304584 0.952253 0.0210597 
-0.165226 -0.28311 0.40418 0.747838 0.621252 0.234059 
-0.408786 0.619974 0.134032 -0.70044 0.669171 -0.248182 
-0.742826 -0.343769 -0.0415008 0.0328511 -0.910168 0.412935 
0.283326 -0.226885 0.188162 0.162918 0.952896 0.255826 
0.615282 -0.23892 -0.189588 0.353805 0.681128 -0.641004 
-0.181851 0.0513359 0.0374966 0.270923 -0.961388 -0.0483095 
-0.0915112 -0.746366 0.120488 -0.969317 -0.0337172 -0.24349 
-0.139882 -0.212731 -0.0652781 0.552297 0.831884 0.0542031 
-0.225719 -0.173222 -0.35591 0.904839 0.1042 -0.412807 
0.407831 0.0609989 0.298407 0.220567 -0.448063 0.866366 
0.280704 -0.290688 -0.293892 -0.703193 -0.693145 -0.158334 
0.519366 0.3545 -0.0633451 0.998479 -0.0322655 -0.0447139 
-0.298818 0.0334122 0.090729 0.145502 -0.871746 0.467855 
-0.0847859 -0.870268 0.00522706 -0.985384 1.20675e-16 -0.170345 
-0.499743 -0.400754 -0.439445 -0.864857 -0.203972 -0.458713 
-0.4975 0.462 -0.202158 -0.909988 0.348005 0.225419 
-0.0800366 -0.508026 -0.0503471 -0.950818 -0.249868 -0.183063 
-0.482823 -0.0871352 -0.203167 -0.800982 0.484349 -0.3519 
-0.00411455 -0.770127 0.422065 0.231192 0.121498 0.965292 
-0.0722602 -0.702701 -0.0141987 -0.998666 -1.22301e-16 -0.0516286 
0.0159898 0.119334 0.289791 -0.0293398 -0.0122245 0.999495 
-0.150221 -0.574445 0.267643 -0.816447 -0.515323 0.260493 
0.381889 0.235332 -0.333156 0.00509706 0.301694 -0.953391 
0.0312289 0.624966 0.30419 0.0261348 -0.329643 0.943744 
-0.220558 -0.136943 -0.031491 0.822861 0.560155 0.0955317 
-0.0247865 0.113566 -0.0922939 0.483115 -0.706967 0.516524 
-0.453084 0.559675 -0.174412 -0.86831 0.440547 0.227938 
0.190074 -0.471463 0.230272 0.540042 -0.721046 -0.434105 
-0.00646251 -0.633396 0.400254 -0.0136494 0.411947 0.911106 
-0.243228 -0.0677409 -0.148292 0.979381 0.201438 0.0153379 
-0.326993 -0.347454 -0.005897 -0.352137 -0.850382 0.39096 
-0.476429 0.00879044 -0.0349607 -0.963923 0.212004 0.160958 
-0.973516 -0.384995 -0.123752 -0.98212 1.20275e-16 0.188256 
-0.344612 -0.463508 0.34388 -0.563791 -0.774191 -0.287692 
-0.303063 0.0573405 -0.363719 -0.0726285 -0.251878 -0.96503 
-0.177138 -0.252036 -0.178075 0.458409 -0.452109 -0.765153 
-0.460063 -0.129158 0.057328 -0.450202 0.243578 0.859062 
-0.397948 0.0940213 -0.352035 -0.386922 -0.184381 -0.90349 
0.219171 -0.411856 0.158463 0.335238 -0.847863 -0.410784 
0.588433 0.319685 0.14914 0.87247 -0.05747 -0.485277 
-0.399991 0.0799164 0.103897 -0.646064 -0.583728 0.491795 
-0.463274 0.166193 0.151108 -0.73871 -0.652845 -0.167634 
0.334203 0.742607 0.294578 0.275191 0.863191 0.423286 
0.330007 0.700086 0.0518595 0.51761 0.841817 -0.153045 
-0.239281 0.0269803 -0.0525029 0.721329 -0.680887 0.126797 
0.450665 -0.00888838 -0.0152424 0.973483 0.150779 0.172036 
-0.1279 0.0458682 0.269947 0.19892 -0.696517 0.689416 
0.0977128 0.671116 -0.327054 -0.0392462 -0.117306 -0.99232 
0.278265 -0.200246 -0.450346 -0.784788 0.202315 -0.585812 
-0.481035 0.210395 0.0610631 -0.950131 -0.304516 -0.0672322 
-0.458783 -0.443693 -0.14765 -0.365238 -0.720992 0.588873 
-0.00906909 -0.928662 0.319021 0.650755 -0.731801 0.202451 
0.320057 0.702059 -0.142046 0.557309 0.823478 0.106255 
-0.146871 0.388397 -0.307139 -0.10087 0.0394019 -0.994119 
0.13468 0.534492 0.276225 -0.0470343 -0.227422 0.97266 
-0.516389 0.466402 0.157039 -0.863028 0.292155 -0.412101 
-0.386933 -0.334714 0.252807 -0.958146 -0.0965023 -0.269524 
-0.293878 0.725533 0.162606 -0.50619 0.837104 -0.207432 
0.25279 0.0300574 0.0838357 -0.326089 -0.943602 0.0572788 
-0.00415871 0.188877 -0.0220526 0.574194 -0.818717 0.00191331 
-0.301052 0.549319 0.305115 0.165948 -0.303743 0.93819 
-0.066804 -0.443669 -0.122921 -0.558191 -0.344884 -0.754637 
-0.459911 0.601489 0.237521 -0.763295 0.639991 -0.08828 
0.28539 -0.375084 0.555714 -0.384361 -0.199628 0.901341 
-0.971212 -0.357247 -0.220059 -0.810097 0.496287 -0.312156 
0.421529 -0.477622 -0.133255 0.279204 -0.648782 0.707903 
-0.266782 0.720698 0.32627 -0.149813 0.456109 0.877223 
-0.393218 -0.265805 -0.498171 0.184378 -0.0224681 -0.982599 
0.351253 0.0652278 -0.382705 -0.00939099 -0.159265 -0.987191 
0.357355 0.363094 -0.31975 -0.0718404 0.0345435 -0.996818 
0.464905 0.269403 0.281555 -0.308351 0.00192404 0.951271 
-0.515062 -0.0881828 -0.0268623 -0.806449 0.504768 0.307978 
-0.306698 -0.249154 -0.440946 0.728902 -0.496106 -0.471785 
-0.0632018 0.69575 0.331995 0.0207605 -0.253389 0.967142 
-0.0258389 0.347941 -0.330044 -0.094249 0.0847927 -0.991931 
-0.198908 -0.288898 0.499975 0.643309 0.518734 0.563088 
0.165472 0.479034 -0.315205 -0.0131768 0.0589516 -0.998174 
-0.291753 -0.110524 0.0830982 0.356565 0.521039 0.775487 
-0.645224 -0.32845 -0.0236124 -0.078881 -0.754063 0.652048 
0.421788 0.63734 0.0751381 0.653776 0.708369 -0.266062 
-0.466296 0.519262 0.0887927 -0.86507 0.408989 -0.290487 
0.455849 0.300296 -0.33438 -0.15735 0.0299643 -0.987088 
-0.485352 -0.297938 -0.475613 -0.70704 0.1917 -0.680695 
0.288766 -0.4686 0.415758 -0.115734 -0.990371 0.0759613 
0.0560332 -0.401352 0.255411 -0.457247 0.538642 0.707665 
0.508408 0.203307 0.0248306 0.919331 -0.34554 -0.188239 
0.103484 0.0806477 -0.0875975 -0.618063 -0.719965 0.315672 
-0.551001 -0.304932 0.0123507 0.00666411 -0.699001 0.71509 
0.445137 0.0993977 -0.375389 0.427356 -0.136935 -0.893653 
0.0521067 -0.594425 0.320824 0.710507 0.103274 0.69607 
0.00610401 -0.876886 0.186279 0.958184 -0.199188 -0.205445 
-0.572028 -0.145567 -0.0825105 -0.668451 0.742737 0.0389306 
0.144579 -0.220807 0.0786369 -0.483645 0.863401 0.143618 
0.523176 0.439695 -0.167931 0.941636 0.231202 0.244678 
-0.0667009 -0.299605 0.218297 0.602024 0.668917 0.436024 
-0.157594 0.765917 0.327032 -0.22248 0.5021 0.835702 
-0.033468 0.107843 -0.370156 0.0258118 -0.31235 -0.949616 
-0.35937 -0.317619 0.468105 -0.865312 0.409839 0.28856 
0.190378 0.764132 -0.199491 0.259771 0.961286 0.0919086 
0.00783792 0.790159 -0.154442 0.116717 0.982299 0.14651 
0.499993 0.468932 -0.0761633 0.939197 0.343175 0.0118074 
0.446283 0.526269 -0.34331 0.116933 -0.0204148 -0.99293 
-0.104166 -0.445254 0.0246597 -0.888057 -0.443664 -0.120485 
0.550649 -0.383946 -0.0662442 0.0235022 -0.915256 0.402188 
-0.833789 -0.36497 -0.0854264 0.334665 -0.89126 0.306032 
-0.441501 0.0499666 -0.27418 -0.90182 -0.271196 -0.336414 
-0.257645 -0.306395 -0.146616 0.34332 -0.814607 -0.467491 
-0.380509 -0.410756 -0.0989846 0.146527 -0.681653 0.716854 
