ply
format ascii 1.0
element vertex 1650
property float x
property float y
property float z
end_header
-0.795275 -0.652378 -0.319371 
-0.812253 -0.644475 -0.152107 
-0.753592 -0.632487 -0.331017 
-0.830737 -0.653547 -0.22209 
-0.784071 -0.557888 -0.228542 
-0.771215 -0.625823 -0.263485 
-0.763438 -0.596405 -0.297547 
-0.770785 -0.637624 -0.1439 
-0.802079 -0.606453 -0.237713 
-0.770734 -0.612917 -0.189749 
-0.670067 -0.557167 -0.283021 
-0.703312 -0.572406 -0.313178 
-0.703993 -0.620282 -0.342517 
-0.73877 -0.650456 -0.25267 
-0.517894 -0.596949 -0.306395 
-0.663935 -0.586159 -0.319123 
-0.625376 -0.574221 -0.302371 
-0.751843 -0.571287 -0.262755 
-0.745402 -0.590948 -0.337946 
-0.529087 -0.410748 -0.304696 
-0.565677 -0.376452 -0.294131 
-0.603672 -0.367964 -0.278762 
-0.570937 -0.421794 -0.297162 
-0.710446 -0.542674 -0.127722 
-0.64384 -0.637362 -0.183007 
-0.728398 -0.650101 -0.156999 
-0.692718 -0.648318 -0.179467 
-0.671374 -0.539616 -0.152566 
-0.631111 -0.636995 -0.143242 
-0.723502 -0.65213 -0.208562 
-0.631986 -0.5441 -0.211583 
-0.695781 -0.612976 -0.104805 
-0.748828 -0.586027 -0.00378873 
-0.724559 -0.572482 -0.100332 
-0.591908 -0.612055 -0.212213 
-0.595725 -0.621434 -0.171798 
-0.587027 -0.662227 -0.127634 
-0.552409 -0.613508 -0.182819 
-0.701768 -0.492007 -0.147272 
-0.65724 -0.496301 -0.16863 
-0.678344 -0.35652 -0.19638 
-0.632234 -0.487953 -0.201056 
-0.623515 -0.52251 -0.173455 
-0.597211 -0.519797 -0.211836 
-0.637998 -0.0286671 -0.0185708 
-0.536719 -0.00611281 -0.171438 
-0.517493 -0.296828 -0.17516 
-0.554045 -0.256754 -0.172464 
-0.630802 -0.0151684 -0.0579514 
-0.626452 -0.222803 -0.170372 
-0.734569 -0.172395 -0.0688024 
-0.777304 -0.342067 -0.0820397 
-0.536964 -0.326673 -0.244768 
-0.777908 -0.428024 0.0831151 
-0.79165 -0.490379 0.0397582 
-0.578118 -0.445441 0.210133 
-0.675519 -0.376414 0.184232 
-0.711864 -0.536526 0.15657 
-0.531245 -0.660727 0.205049 
-0.589281 -0.595741 0.203661 
-0.622291 -0.682907 0.0762844 
-0.557698 -0.696611 0.288376 
-0.565894 -0.537574 0.439676 
-0.516085 -0.69365 0.355585 
-0.613264 -0.537904 0.222957 
-0.57072 -0.548501 0.37102 
-0.54103 -0.631835 0.404633 
-0.53461 -0.588927 0.410918 
-0.5735 -0.693773 0.32977 
-0.528561 -0.45024 0.227435 
-0.549634 -0.494625 0.421162 
-0.522757 -0.355899 0.228147 
-0.597693 -0.480744 0.246449 
-0.689553 -0.225269 0.140866 
-0.711736 -0.137985 0.0467678 
-0.776179 -0.265861 0.037908 
-0.608119 -0.00460925 0.0184777 
-0.533033 -0.203808 0.15294 
-0.630593 -0.0477216 0.0531154 
-0.521108 -0.0514065 0.105725 
-0.459435 -0.555564 -0.294445 
-0.48948 -0.651415 -0.290859 
-0.503745 -0.540544 -0.282505 
-0.278909 -0.700893 -0.345656 
-0.38169 -0.694813 -0.267518 
-0.293315 -0.594483 -0.331474 
-0.325922 -0.637084 -0.344863 
-0.370411 -0.688568 -0.329868 
-0.302524 -0.536339 -0.274729 
-0.290977 -0.545794 -0.32026 
-0.327426 -0.69905 -0.342555 
-0.313346 -0.511683 -0.240518 
-0.270592 -0.500826 -0.247496 
-0.451163 -0.459654 -0.30501 
-0.373159 -0.520214 -0.301121 
-0.357261 -0.483734 -0.239875 
-0.312476 -0.452956 -0.239333 
-0.502266 -0.693422 -0.127623 
-0.266718 -0.671617 -0.20955 
-0.385796 -0.690927 -0.0915193 
-0.281999 -0.664046 -0.0154325 
-0.493045 -0.633549 -0.195325 
-0.340896 -0.666594 -0.072194 
-0.119774 -0.536318 -0.2454 
-0.195134 -0.62766 -0.231343 
-0.186789 -0.590082 -0.351731 
-0.23482 -0.697456 -0.327734 
-0.133301 -0.566458 -0.27859 
-0.133765 -0.572747 -0.225931 
-0.230966 -0.659518 -0.357953 
-0.192019 -0.63761 -0.343504 
-0.210438 -0.531599 -0.340137 
-0.19217 -0.432262 -0.310158 
-0.230331 -0.495285 -0.258493 
-0.186176 -0.517216 -0.308527 
-0.18005 -0.379126 -0.306408 
-0.20225 -0.371687 -0.261477 
-0.248979 -0.518877 -0.324187 
-0.0822567 -0.50506 -0.233806 
-0.0280591 -0.3863 -0.255641 
-0.0281675 -0.42592 -0.239166 
-0.106842 -0.452583 -0.2618 
-0.129037 -0.382705 -0.268733 
-0.116054 -0.500389 -0.267598 
-0.134795 -0.521963 -0.297995 
-0.0637359 -0.409366 -0.257386 
-0.0543413 -0.464641 -0.23666 
-0.0501983 -0.516867 -0.200273 
-0.0715049 -0.640205 -0.0426017 
-0.164371 -0.6999 -0.0429404 
-0.0857202 -0.569006 -0.192419 
-0.225338 -0.650042 -0.212402 
-0.123026 -0.686837 -0.0307821 
-0.138958 -0.690336 -0.0793129 
-0.0284516 -0.480903 -0.208263 
-0.103916 -0.667242 -0.0690656 
-0.202905 -0.690198 -0.165009 
-0.372493 -0.030776 -0.211271 
-0.462035 -0.326776 -0.160379 
-0.390713 -0.286571 -0.0883311 
-0.394694 -0.351746 -0.146468 
-0.385393 -0.242154 -0.0083337 
-0.423445 -0.319365 -0.127346 
-0.342571 -0.215113 -0.0674006 
-0.38029 -0.332786 -0.110031 
-0.300295 -0.28172 -0.0509845 
-0.26228 -0.226275 -0.0879077 
-0.329655 -0.296616 -0.0163149 
-0.338429 -0.331005 -0.103707 
-0.327956 -0.291154 -0.0814667 
-0.315937 -0.106012 -0.133091 
-0.356399 -0.143209 -0.0355479 
-0.345339 -0.142459 -0.124263 
-0.282976 -0.0309572 -0.0441762 
-0.470711 -0.175577 -0.175447 
-0.27316 -0.0309337 -0.157025 
-0.299617 -0.138186 -0.102012 
-0.259959 -0.0744986 -0.126863 
-0.327572 -0.174213 -0.0840506 
-0.282791 -0.0985182 -0.0995188 
-0.158001 -0.336521 -0.296995 
-0.161437 -0.25059 -0.238481 
-0.0792194 -0.137747 -0.266166 
-0.0899627 -0.245811 -0.27431 
-0.128554 -0.227173 -0.25721 
-0.124516 -0.185581 -0.247622 
-0.0174313 -0.309019 -0.274023 
-0.0925707 -0.198688 -0.271261 
-0.123277 -0.270381 -0.268087 
-0.218613 -0.224772 -0.13009 
-0.20767 -0.282553 -0.210471 
-0.23453 -0.189768 -0.0837832 
-0.25796 -0.289733 -0.0185904 
-0.196903 -0.203847 -0.0565178 
-0.202358 -0.18573 -0.125022 
-0.16289 -0.204174 -0.212349 
-0.25259 -0.0126971 -0.0906274 
-0.139104 -0.125011 -0.0135316 
-0.21294 -0.131235 -0.103995 
-0.160988 -0.103352 -0.137101 
-0.164216 -0.0335872 -0.126871 
-0.23072 -0.0412235 -0.138822 
-0.189886 -0.0608128 -0.107296 
-0.1648 -0.149677 -0.0416042 
-0.145792 -0.072946 -0.0754752 
-0.150531 -0.108354 -0.0505027 
-0.0798455 -0.023745 -0.212119 
-0.108715 -0.0255238 -0.167489 
-0.118882 -0.0425057 -0.0548665 
-0.125469 -0.0759385 -0.0299524 
-0.0927363 -0.0101837 -0.0381561 
-0.0941855 -0.0438339 -0.0111074 
-0.331196 -0.356382 0.158226 
-0.34271 -0.697024 0.12031 
-0.416941 -0.620054 0.19058 
-0.340594 -0.602807 0.189065 
-0.401956 -0.658995 0.0173047 
-0.378814 -0.58715 0.199563 
-0.393527 -0.684509 0.140823 
-0.29071 -0.382157 0.156682 
-0.487193 -0.685179 0.0264348 
-0.42866 -0.649951 0.378137 
-0.389566 -0.688978 0.354893 
-0.443949 -0.548707 0.380014 
-0.46613 -0.645584 0.401401 
-0.449142 -0.699486 0.284821 
-0.456112 -0.595121 0.403407 
-0.497074 -0.610503 0.413944 
-0.418804 -0.595962 0.378275 
-0.491849 -0.567506 0.408438 
-0.384674 -0.581349 0.240399 
-0.353836 -0.665583 0.375837 
-0.372854 -0.570841 0.296578 
-0.378963 -0.577179 0.365695 
-0.303416 -0.624019 0.244287 
-0.484833 -0.436093 0.243825 
-0.441303 -0.438657 0.251772 
-0.460854 -0.480804 0.381186 
-0.344 -0.511976 0.321647 
-0.494305 -0.478587 0.294524 
-0.390477 -0.44537 0.253733 
-0.401126 -0.468437 0.346516 
-0.365933 -0.366372 0.238881 
-0.136548 -0.698192 0.139864 
-0.120089 -0.68137 0.0140771 
-0.100267 -0.655695 0.124742 
-0.239779 -0.692936 0.0385505 
-0.104535 -0.608491 0.0943392 
-0.181302 -0.703511 0.159752 
-0.224964 -0.66593 0.145112 
-0.0673382 -0.559873 0.0844717 
-0.133436 -0.639904 0.102332 
-0.200833 -0.469583 0.151689 
-0.161696 -0.497445 0.142825 
-0.163639 -0.513188 0.184212 
-0.236672 -0.37034 0.131079 
-0.0824836 -0.382539 0.143283 
-0.0759948 -0.438677 0.174154 
-0.0486249 -0.513404 0.0898865 
-0.0750696 -0.496533 0.217685 
-0.0304419 -0.470834 0.0807945 
-0.109581 -0.409164 0.169333 
-0.0365774 -0.522347 0.167364 
-0.0868948 -0.67109 0.287137 
-0.182583 -0.702797 0.249422 
-0.124517 -0.692888 0.293392 
-0.191902 -0.528108 0.238131 
-0.10284 -0.517269 0.241515 
-0.0461897 -0.634971 0.2573 
-0.231771 -0.464248 0.223127 
-0.122156 -0.70297 0.220926 
-0.173243 -0.684603 0.292573 
-0.12727 -0.593501 0.251186 
-0.373132 -0.289574 0.0510668 
-0.346713 -0.0326919 0.0418097 
-0.405567 -0.246617 0.0599353 
-0.37092 -0.329414 0.148425 
-0.431821 -0.32523 0.23071 
-0.368808 -0.282034 0.00179433 
-0.299408 -0.304923 0.0192814 
-0.410659 -0.299328 0.139732 
-0.450582 -0.277517 0.155111 
-0.102761 -0.0874566 0.00691566 
-0.0149074 -0.0279139 0.0361836 
-0.0658904 -0.0584189 0.0205882 
-0.141778 -0.180613 0.0234431 
-0.780958 0.152471 -0.0578709 
-0.811621 0.145917 -0.0134839 
-0.902751 0.131463 -0.0199636 
-0.767051 0.144841 -0.0172421 
-0.851532 0.152906 -0.0267263 
-0.805177 0.197831 -0.0384211 
-0.780837 0.340743 -0.0479425 
-0.844348 0.210839 -0.0163227 
-0.754231 0.242009 -0.027314 
-0.528851 0.269702 -0.204644 
-0.628732 0.16507 -0.108875 
-0.678654 0.158658 -0.122468 
-0.694038 0.1482 -0.0821574 
-0.734677 0.147518 -0.0648827 
-0.619167 0.148753 -0.152571 
-0.582978 0.168611 -0.136139 
-0.530429 0.145348 -0.179452 
-0.583631 0.0299157 -0.0277944 
-0.556822 0.0463147 -0.0597851 
-0.522779 0.0811795 -0.0733256 
-0.577048 0.158258 -0.181708 
-0.68166 0.336227 -0.154478 
-0.721714 0.344878 -0.138309 
-0.652842 0.265702 -0.0021297 
-0.646261 0.228962 -0.127268 
-0.664964 0.2305 -0.0626329 
-0.700749 0.215292 -0.0857279 
-0.645383 0.17326 -0.0584678 
-0.624292 0.338585 -0.184561 
-0.615585 0.24188 -0.0688675 
-0.616523 0.197853 -0.153065 
-0.526955 0.296519 -0.0834406 
-0.585604 0.190879 -0.100585 
-0.50859 0.300407 -0.126628 
-0.604562 0.240359 -0.157543 
-0.527508 0.338187 -0.124185 
-0.54445 0.188786 -0.19143 
-0.570291 0.287846 -0.0298297 
-0.764106 0.364105 -0.122663 
-0.916286 0.472892 -0.0235132 
-0.899183 0.428019 -0.0433514 
-0.878736 0.490197 -0.0163107 
-0.795782 0.356342 -0.00637235 
-0.843743 0.428415 -0.0725826 
-0.803601 0.396277 -0.105031 
-0.865127 0.393945 -0.0580804 
-0.863599 0.411478 -0.0156828 
-0.80147 0.427448 -0.0721249 
-0.757029 0.366312 -0.0206244 
-0.755057 0.493921 -0.0132976 
-0.824774 0.476049 -0.0103679 
-0.764493 0.436534 -0.0487584 
-0.857425 0.451927 -0.0358427 
-0.802604 0.520133 -0.00300885 
-0.5546 0.409619 -0.209982 
-0.662825 0.486975 -0.139001 
-0.634031 0.475792 -0.168023 
-0.664265 0.415789 -0.10831 
-0.63569 0.521147 -0.047538 
-0.710216 0.42393 -0.0556654 
-0.663907 0.425033 -0.0662686 
-0.701719 0.37744 -0.0227851 
-0.637661 0.50923 -0.0978501 
-0.65106 0.374051 -0.0257098 
-0.709224 0.409429 -0.0979546 
-0.672941 0.466548 -0.027857 
-0.709926 0.3545 -0.0571024 
-0.625232 0.424598 -0.136118 
-0.515837 0.362574 -0.0271023 
-0.588772 0.354053 -0.203393 
-0.591986 0.421255 -0.176253 
-0.616545 0.503433 -0.135257 
-0.526875 0.359063 -0.0733325 
-0.575379 0.36972 -0.019532 
-0.63058 0.530961 -0.00477167 
-0.596006 0.536326 -0.0304862 
-0.788194 0.16305 0.11171 
-0.899351 0.160794 0.0190592 
-0.771252 0.167132 0.20735 
-0.953106 0.170173 0.0170985 
-0.85189 0.170961 0.0644888 
-0.755823 0.153066 0.0858243 
-0.929793 0.182827 0.0592281 
-0.89195 0.186495 0.083666 
-0.892799 0.230597 0.0136475 
-0.962376 0.196486 0.0898892 
-0.879672 0.279547 0.0549768 
-0.924527 0.205338 0.108862 
-0.97016 0.199131 0.0485714 
-0.922637 0.241423 0.0439496 
-0.978142 0.313471 0.133733 
-0.883361 0.295389 0.167019 
-0.998305 0.331243 0.168839 
-0.934295 0.32493 0.12122 
-0.88667 0.257644 0.201709 
-0.919799 0.212513 0.155018 
-0.916189 0.2585 0.157851 
-0.903415 0.202447 0.217989 
-0.922532 0.255413 0.114263 
-0.888021 0.31013 0.11566 
-0.838655 0.250697 0.010792 
-0.791548 0.251032 -0.000469462 
-0.780413 0.255835 0.0430653 
-0.858871 0.292241 0.0915613 
-0.820126 0.267584 0.0643732 
-0.773216 0.265696 0.0965911 
-0.790511 0.254227 0.139771 
-0.874015 0.191519 0.135804 
-0.847147 0.294476 0.135825 
-0.845158 0.19087 0.174624 
-0.833614 0.285545 0.185003 
-0.795451 0.266651 0.184528 
-0.833672 0.178772 0.129106 
-0.872396 0.199667 0.257079 
-0.789564 0.15781 0.254445 
-0.827723 0.17828 0.224989 
-0.786858 0.198986 0.240553 
-0.83029 0.211616 0.252235 
-0.837216 0.169451 0.265522 
-0.802406 0.237012 0.225804 
-0.841344 0.251919 0.222849 
-0.683634 0.155598 0.028725 
-0.637761 0.163685 0.0284022 
-0.665611 0.160226 0.0711055 
-0.521355 0.168771 0.137003 
-0.7095 0.153562 0.0738713 
-0.718871 0.162513 0.123714 
-0.726594 0.149328 0.0353067 
-0.56094 0.169222 0.150413 
-0.70112 0.163999 0.197894 
-0.729784 0.264688 0.0843935 
-0.665166 0.250853 0.0926906 
-0.733777 0.256902 0.0255876 
-0.63358 0.272165 0.0579811 
-0.692708 0.25955 0.00934123 
-0.675083 0.266191 0.0522643 
-0.708202 0.241122 0.117273 
-0.641861 0.186002 0.186226 
-0.747441 0.244066 0.133284 
-0.711498 0.233224 0.176723 
-0.732206 0.346397 0.15735 
-0.656853 0.17445 0.120576 
-0.676708 0.173645 0.159804 
-0.747951 0.229107 0.199265 
-0.726998 0.280456 0.153188 
-0.584949 0.192509 0.0710471 
-0.598518 0.178629 0.0180681 
-0.540351 0.205126 0.0914641 
-0.622505 0.178802 0.08669 
-0.521235 0.202991 0.00771031 
-0.540146 0.201438 0.0451746 
-0.621363 0.245355 0.0961343 
-0.540689 0.294662 -0.000928913 
-0.522888 0.28048 0.0414801 
-0.610039 0.277335 0.0183178 
-0.567882 0.267815 0.0609948 
-0.507289 0.256715 0.116497 
-0.582162 0.250815 0.135391 
-0.597103 0.192355 0.168883 
-0.553477 0.346591 0.111533 
-0.545268 0.276772 0.11647 
-0.518654 0.220338 0.140764 
-0.748019 0.149349 0.239279 
-0.911712 0.471021 0.0218252 
-0.908847 0.517629 0.0318582 
-0.8959 0.438581 -0.000595799 
-0.830855 0.37674 0.00708142 
-0.766208 0.43773 0.0571466 
-0.77821 0.399487 3.02866e-05 
-0.868122 0.512669 0.0178154 
-0.812755 0.433161 0.0242564 
-0.856104 0.491861 0.0857957 
-0.850719 0.412669 0.0253618 
-0.773966 0.446941 0.100128 
-0.84754 0.447557 0.0667924 
-0.841804 0.490416 0.130534 
-0.780622 0.395911 0.161839 
-0.79454 0.430911 0.139209 
-0.832794 0.45445 0.106422 
-0.762917 0.487299 0.130455 
-0.814144 0.544231 0.0738832 
-0.755361 0.529941 0.0115965 
-0.808572 0.548402 0.0306151 
-0.880712 0.533491 0.0601447 
-0.838089 0.526462 0.174103 
-0.771407 0.556623 0.0563541 
-0.764512 0.540519 0.0995229 
-0.81878 0.494161 0.205562 
-0.715304 0.408614 0.0468115 
-0.70609 0.404837 0.0955042 
-0.684038 0.393192 0.0132201 
-0.732585 0.398495 0.00370519 
-0.641442 0.382011 0.0599386 
-0.704267 0.493726 0.0531698 
-0.732899 0.514998 0.0877224 
-0.645358 0.458062 0.0596417 
-0.683201 0.464384 0.0899865 
-0.668469 0.479961 0.0175763 
-0.70914 0.481485 0.00183727 
-0.74552 0.42044 0.11822 
-0.639254 0.409509 0.191356 
-0.739723 0.416745 0.199638 
-0.699019 0.373718 0.129753 
-0.663606 0.38131 0.104308 
-0.719068 0.38972 0.175291 
-0.638155 0.36649 0.135874 
-0.742282 0.382968 0.138797 
-0.749718 0.457444 0.19845 
-0.687417 0.451654 0.138618 
-0.647902 0.447237 0.108518 
-0.725473 0.472001 0.160961 
-0.513104 0.489606 0.100855 
-0.606917 0.435397 0.0891764 
-0.519865 0.440938 0.088089 
-0.597362 0.365773 0.0709554 
-0.528801 0.356968 0.051329 
-0.586105 0.51331 0.0610122 
-0.556389 0.500292 0.0941221 
-0.621703 0.377729 0.0181288 
-0.587322 0.367253 0.156072 
-0.600261 0.402484 0.178281 
-0.549211 0.393844 0.158298 
-0.567565 0.431947 0.105051 
-0.597275 0.357279 0.11197 
-0.618205 0.437507 0.139411 
-0.542535 0.523429 0.0314447 
-0.730684 0.527859 0.0463125 
-0.706274 0.441788 0.20394 
-0.28068 0.187124 -0.252264 
-0.269157 0.0857598 -0.230215 
-0.48073 0.175503 -0.222715 
-0.30547 0.199465 -0.311917 
-0.424081 0.274692 -0.24882 
-0.311096 0.305763 -0.337972 
-0.425045 0.323106 -0.245103 
-0.318148 0.141076 -0.249672 
-0.272113 0.126934 -0.239968 
-0.494837 0.116509 -0.100798 
-0.258987 0.0117183 -0.0401538 
-0.394775 0.15542 -0.221308 
-0.461959 0.146381 -0.0303342 
-0.456764 0.168347 -0.139025 
-0.438763 0.0776004 -0.205922 
-0.44296 0.156583 -0.180609 
-0.498551 0.325275 -0.0936692 
-0.48241 0.339309 -0.0507403 
-0.456551 0.188442 -0.0304183 
-0.481747 0.189474 -0.113028 
-0.504141 0.308683 -0.175143 
-0.462726 0.175628 -0.0718391 
-0.463201 0.337693 -0.0079516 
-0.241606 0.17803 -0.238744 
-0.242244 0.308118 -0.335161 
-0.225305 0.341347 -0.368321 
-0.229507 0.239193 -0.351049 
-0.196823 0.334462 -0.313255 
-0.209225 0.239012 -0.296105 
-0.208292 0.289927 -0.312292 
-0.226541 0.313103 -0.276037 
-0.215985 0.328031 -0.226034 
-0.23253 0.258032 -0.249935 
-0.225204 0.216565 -0.237766 
-0.258039 0.227508 -0.262378 
-0.205757 0.276166 -0.223067 
-0.188039 0.235067 -0.359418 
-0.199147 0.0600162 -0.173985 
-0.217575 0.0409724 -0.112292 
-0.208575 -0.00361211 -0.147583 
-0.233108 0.0696928 -0.196588 
-0.235355 0.0313673 -0.172606 
-0.168074 0.075947 -0.150462 
-0.190325 0.140602 -0.20156 
-0.226019 0.109749 -0.215089 
-0.181119 0.113783 -0.137566 
-0.147335 0.170657 -0.172411 
-0.170021 0.166035 -0.133095 
-0.188079 0.0982006 -0.189754 
-0.147505 0.120384 -0.164056 
-0.136176 -0.00352787 -0.108441 
-0.245033 0.05553 -0.0338212 
-0.203422 0.0839849 -0.10238 
-0.23754 0.0319952 -0.0733381 
-0.189005 0.134834 -0.0945888 
-0.210288 0.100941 -0.0621615 
-0.0709397 0.0191616 -0.195538 
-0.122485 0.0707918 -0.136182 
-0.054142 0.145477 -0.1267 
-0.089488 0.106384 -0.154048 
-0.0472795 0.134249 -0.168386 
-0.0992966 0.0149321 -0.15856 
-0.13301 0.0293515 -0.137685 
-0.0548018 0.0825117 -0.177799 
-0.0868367 0.057967 -0.161488 
-0.0780574 0.0902939 -0.114965 
-0.0969547 0.0423222 -0.110098 
-0.035731 0.0846519 -0.0463593 
-0.0163955 0.144075 -0.0921754 
-0.0432491 0.110583 -0.0939507 
-0.0593604 -0.0025317 -0.00357765 
-0.0998547 0.0141044 -0.0775719 
-0.0642874 0.0711924 -0.0800271 
-0.0724901 0.0286697 -0.0401997 
-0.166703 0.253667 -0.132534 
-0.205246 0.18018 -0.21808 
-0.162794 0.212489 -0.140597 
-0.170221 0.196035 -0.199558 
-0.139688 0.345948 -0.194812 
-0.166342 0.274487 -0.204806 
-0.137296 0.222758 -0.183578 
-0.182526 0.324804 -0.147603 
-0.195193 0.235093 -0.212562 
-0.174693 0.231265 -0.0828545 
-0.17495 0.277577 -0.0786961 
-0.151469 0.324847 -0.0702927 
-0.188557 0.344165 -0.0965097 
-0.250053 0.18236 -0.00588203 
-0.203723 0.182548 -0.0409886 
-0.179661 0.18236 -0.0856407 
-0.106925 0.278117 -0.0651387 
-0.0826005 0.268605 -0.0295642 
-0.0523477 0.17755 -0.155654 
-0.121885 0.265807 -0.0146421 
-0.105649 0.233759 -0.0437319 
-0.0707677 0.341701 -0.0517182 
-0.124273 0.326673 -0.0151987 
-0.500854 0.429014 -0.231249 
-0.464139 0.350671 -0.252837 
-0.472909 0.493294 -0.225823 
-0.446717 0.506896 -0.295635 
-0.397474 0.480133 -0.279583 
-0.416654 0.376062 -0.275633 
-0.293023 0.451621 -0.330489 
-0.346172 0.431406 -0.307491 
-0.363781 0.382921 -0.318252 
-0.379821 0.350682 -0.292954 
-0.333488 0.481682 -0.319744 
-0.305101 0.365753 -0.327616 
-0.259279 0.361689 -0.3389 
-0.283617 0.448164 -0.22494 
-0.364384 0.50936 -0.298881 
-0.260366 0.425091 -0.354919 
-0.412625 0.535466 -0.319295 
-0.379643 0.573544 -0.319468 
-0.386071 0.552716 -0.278297 
-0.338338 0.567272 -0.315398 
-0.315445 0.517403 -0.0760287 
-0.26589 0.484036 -0.111395 
-0.357312 0.513559 -0.186185 
-0.303906 0.521379 -0.192984 
-0.33272 0.488489 -0.212 
-0.290159 0.477439 -0.195018 
-0.397827 0.522976 -0.0143445 
-0.396737 0.505222 -0.205447 
-0.286773 0.495927 -0.0498155 
-0.260363 0.494351 -0.15674 
-0.437807 0.534608 -0.0203286 
-0.486553 0.545709 -0.0419304 
-0.410861 0.53197 -0.159782 
-0.420079 0.548173 -0.0941566 
-0.294361 0.610663 -0.14486 
-0.328455 0.616832 -0.177492 
-0.304614 0.654961 -0.178702 
-0.34259 0.659021 -0.161477 
-0.363585 0.621844 -0.154911 
-0.343809 0.631089 -0.118398 
-0.313705 0.687574 -0.150517 
-0.280533 0.699175 -0.180571 
-0.290784 0.580424 -0.188508 
-0.284405 0.535219 -0.104345 
-0.357982 0.524495 -0.0465239 
-0.358684 0.592143 -0.101934 
-0.242928 0.486129 -0.336549 
-0.173895 0.495428 -0.373241 
-0.167508 0.403892 -0.361274 
-0.195502 0.455064 -0.350848 
-0.217284 0.488394 -0.370305 
-0.188543 0.372839 -0.381434 
-0.190689 0.375264 -0.322959 
-0.22417 0.354193 -0.287427 
-0.222555 0.449328 -0.313485 
-0.255927 0.403714 -0.260277 
-0.23904 0.373591 -0.230543 
-0.147077 0.369282 -0.38446 
-0.132061 0.568032 -0.233776 
-0.0410306 0.604526 -0.24615 
-0.136141 0.615458 -0.228989 
-0.179531 0.574617 -0.228403 
-0.0860832 0.584797 -0.241837 
-0.0926067 0.630435 -0.238162 
-0.211983 0.523003 -0.189143 
-0.236788 0.451427 -0.131321 
-0.197813 0.367255 -0.133832 
-0.194464 0.403164 -0.155945 
-0.238793 0.44887 -0.182456 
-0.206196 0.365984 -0.205696 
-0.246231 0.415769 -0.212722 
-0.178938 0.405437 -0.0758418 
-0.22559 0.436772 -0.0815286 
-0.179575 0.463444 -0.00260788 
-0.250095 0.475434 -0.0666078 
-0.13769 0.371572 -0.0760274 
-0.209522 0.398202 -0.103598 
-0.119378 0.404892 -0.0359783 
-0.0743377 0.383829 -0.0260688 
-0.0736222 0.466877 -0.0325859 
-0.0329576 0.365468 -0.0461111 
-0.0624391 0.387223 -0.0674847 
-0.051314 0.489092 -0.0625183 
-0.122192 0.465117 -0.0147258 
-0.115982 0.367662 -0.0158544 
-0.0977129 0.437889 -0.0624795 
-0.175521 0.611096 -0.196194 
-0.165708 0.541221 -0.203216 
-0.215735 0.602404 -0.180841 
-0.218422 0.530099 -0.146925 
-0.178502 0.554562 -0.155803 
-0.254832 0.596548 -0.164297 
-0.257671 0.523705 -0.197623 
-0.136623 0.604199 -0.169402 
-0.219965 0.575817 -0.134904 
-0.219826 0.568592 -0.215734 
-0.228356 0.55564 -0.010707 
-0.241678 0.595148 -0.00283361 
-0.121697 0.566315 -0.183863 
-0.0956573 0.617406 -0.187176 
-0.289098 0.166061 0.0133206 
-0.486537 0.0793528 0.0160296 
-0.336569 0.144569 0.0307244 
-0.315544 0.170442 0.0700772 
-0.433482 0.33897 0.0276045 
-0.4435 0.195688 0.125119 
-0.397571 0.198961 0.100185 
-0.453091 0.247522 0.106419 
-0.492897 0.208444 0.0458449 
-0.50072 0.301717 0.0115034 
-0.49377 0.297237 0.0674547 
-0.409263 0.18615 0.00987061 
-0.259364 0.315916 0.0347655 
-0.366763 0.17433 0.0266062 
-0.30166 0.328203 0.0369156 
-0.314622 0.281776 0.04526 
-0.487017 0.192146 0.141249 
-0.203237 0.207826 0.0152284 
-0.163369 0.329604 0.013541 
-0.327331 0.475985 0.0522901 
-0.394335 0.472314 0.0637147 
-0.284804 0.455812 0.0287148 
-0.447483 0.408463 0.111118 
-0.437033 0.496986 0.0607453 
-0.294445 0.509929 0.0185056 
-0.398912 0.505412 0.0370513 
-0.481455 0.522143 0.0440038 
-0.280003 0.381342 0.0322004 
-0.470137 0.357512 0.110216 
-0.302485 0.54735 0.0589221 
-0.48122 0.533428 0.0019028 
-0.268861 0.580032 0.0319775 
-0.442518 0.526028 0.0287313 
-0.492788 0.396168 0.132758 
-0.239444 0.364115 0.0271984 
-0.215609 0.487947 0.0161574 
-0.245627 0.519869 0.00509396 
0.22265 -0.392887 -0.236981 
0.22544 -0.510386 -0.317331 
0.221415 -0.434586 -0.244224 
0.00652968 -0.393513 -0.233333 
0.232488 -0.537027 -0.237446 
0.203518 -0.546684 -0.0280899 
0.199325 -0.605671 -0.0825733 
0.224114 -0.602651 -0.185325 
0.217805 -0.56437 -0.207818 
0.00507778 -0.476108 -0.177866 
0.0507177 -0.454954 -0.0790832 
0.184555 -0.422333 -0.153343 
0.196978 -0.485283 -0.039896 
0.214246 -0.467916 -0.00524878 
-0.00210956 -0.447275 -0.208973 
0.0410289 -0.399572 -0.198752 
0.301461 -0.582719 -0.370864 
0.316536 -0.578619 -0.414711 
0.265255 -0.601917 -0.395285 
0.339754 -0.603765 -0.363389 
0.337889 -0.564103 -0.303379 
0.285414 -0.617832 -0.226147 
0.306125 -0.539572 -0.279402 
0.251026 -0.591562 -0.222691 
0.319042 -0.586387 -0.251366 
0.298641 -0.540544 -0.320567 
0.329324 -0.62298 -0.227397 
0.41201 -0.627141 -0.340225 
0.418753 -0.64235 -0.441915 
0.364535 -0.686483 -0.432063 
0.376823 -0.636952 -0.431898 
0.375647 -0.645015 -0.389197 
0.460314 -0.619703 -0.339329 
0.411245 -0.666636 -0.390756 
0.420212 -0.598621 -0.429255 
0.416363 -0.553467 -0.358922 
0.368901 -0.569288 -0.415015 
0.369088 -0.597055 -0.332674 
0.424505 -0.602462 -0.226862 
0.360608 -0.581148 -0.254169 
0.418601 -0.605765 -0.3036 
0.386164 -0.578547 -0.288006 
0.467527 -0.609239 -0.292342 
0.27281 -0.398629 -0.278711 
0.299727 -0.437953 -0.288511 
0.270037 -0.509135 -0.28998 
0.331962 -0.470033 -0.311163 
0.259898 -0.530031 -0.331963 
0.349227 -0.530059 -0.407715 
0.29966 -0.49025 -0.35288 
0.260958 -0.487049 -0.325463 
0.340385 -0.467727 -0.353228 
0.329462 -0.394412 -0.293885 
0.357999 -0.358271 -0.295509 
0.378267 -0.397403 -0.290572 
0.362638 -0.525851 -0.356015 
0.456221 -0.449324 -0.296117 
0.454946 -0.523977 -0.319808 
0.380131 -0.491233 -0.31997 
0.401206 -0.43716 -0.299286 
0.414788 -0.47992 -0.286312 
0.410826 -0.521637 -0.323561 
0.438125 -0.404812 -0.300722 
0.318322 -0.662545 -0.199653 
0.276626 -0.65077 -0.191417 
0.313309 -0.705298 -0.107558 
0.333206 -0.694202 -0.0412315 
0.338724 -0.704854 -0.140952 
0.414269 -0.686041 -0.163783 
0.443814 -0.635084 -0.0183603 
0.463426 -0.687899 -0.138554 
0.380681 -0.706515 -0.137724 
0.421925 -0.706137 -0.12224 
0.462484 -0.707312 -0.0979416 
0.469364 -0.615074 -0.208136 
0.378775 -0.645491 -0.206381 
0.243914 -0.364348 -0.0278119 
0.039795 -0.232455 -0.276336 
0.0710622 -0.198315 -0.274255 
0.0353979 -0.333609 -0.238654 
-0.00410731 -0.347585 -0.259602 
0.028387 -0.275458 -0.269974 
0.0724392 -0.114766 -0.291374 
0.227054 -0.00598155 -0.248294 
0.143095 -0.140559 -0.229769 
0.213414 -0.0419366 -0.229526 
0.148701 -0.0719234 -0.269268 
0.189579 -0.0238224 -0.265035 
0.180217 -0.0714973 -0.239396 
0.0910193 -0.269692 -0.219323 
0.113496 -0.317948 -0.0838535 
0.116016 -0.194303 -0.0109234 
0.141257 -0.208456 -0.178747 
0.0609299 -0.349201 -0.207022 
0.0737116 -0.309153 -0.216433 
0.213172 -0.322476 -0.098175 
0.229724 -0.293531 -0.164728 
0.226811 -0.340819 -0.220809 
0.0849428 -0.351493 -0.0212248 
0.148682 -0.175255 -0.059339 
0.167058 -0.150149 -0.187071 
0.173115 -0.110297 -0.220267 
0.232557 -0.0465667 -0.186538 
0.189008 -0.113882 -0.177707 
0.160265 -0.179529 -0.113692 
0.202004 -0.0806254 -0.202764 
0.183041 -0.107712 -0.0982488 
0.175788 -0.0294488 -0.0145111 
0.166826 -0.145714 -0.087166 
0.164493 -0.0695217 -0.0219717 
0.204117 -0.0396808 -0.0507547 
0.181897 -0.0841576 -0.058619 
0.160833 -0.120901 -0.0474508 
0.345242 -0.219128 -0.265933 
0.271625 -0.293572 -0.249766 
0.332871 -0.322073 -0.292298 
0.317887 -0.284586 -0.27786 
0.28155 -0.249899 -0.224903 
0.35451 -0.264642 -0.287979 
0.294367 -0.35505 -0.284627 
0.25463 -0.349703 -0.260904 
0.456987 -0.181114 -0.292073 
0.46383 -0.274495 -0.282614 
0.462968 -0.230102 -0.291137 
0.37694 -0.180295 -0.267145 
0.384039 -0.315433 -0.296985 
0.422258 -0.253325 -0.295611 
0.426742 -0.313111 -0.291457 
0.403599 -0.352689 -0.288756 
0.415237 -0.185243 -0.286898 
0.385481 -0.233694 -0.288448 
0.471462 -0.0336567 -0.289141 
0.39409 -0.134466 -0.257122 
0.427452 -0.0146062 -0.269157 
0.468035 -0.121782 -0.288886 
0.400868 -0.0762832 -0.248678 
0.469744 -0.0771766 -0.285927 
0.430142 -0.143399 -0.281726 
0.432071 -0.0956531 -0.273197 
0.279367 -0.208462 -0.140288 
0.273415 -0.22704 -0.102395 
0.320778 -0.241334 -0.0227038 
0.265234 -0.272029 -0.0610725 
0.302732 -0.194185 -0.0760651 
0.327505 -0.190514 -0.0388308 
0.294752 -0.277899 -0.0293118 
0.250013 -0.280139 -0.202157 
0.300916 -0.203845 -0.200007 
0.288327 -0.235902 -0.0565276 
0.47204 -0.306673 -0.00159333 
0.347058 -0.0258579 -0.132557 
0.277751 -0.0104178 -0.190646 
0.300321 -0.175356 -0.114079 
0.328922 -0.131705 -0.112447 
0.320003 -0.14994 -0.154303 
0.339766 -0.109644 -0.150629 
0.355105 -0.0170128 -0.183634 
0.246615 -0.0283732 -0.119725 
0.283236 -0.00755857 -0.121483 
0.355295 -0.00788964 -0.0775318 
0.349479 -0.107685 -0.0741822 
0.350883 -0.156948 -0.0300337 
0.325075 -0.155803 -0.0743514 
0.359815 -0.0554245 -0.159087 
0.38435 -0.0698478 -0.0266064 
0.371026 -0.0591271 -0.064612 
0.369038 -0.0846561 -0.203054 
0.399875 -0.023985 -0.0187309 
0.361173 -0.0566097 -0.106291 
0.37675 -0.0390206 -0.21257 
-0.00611279 -0.532551 0.0243445 
0.0956315 -0.633814 0.167349 
0.0897745 -0.675381 0.167529 
0.17724 -0.575556 0.0827783 
0.133509 -0.623305 0.0735718 
0.13333 -0.667678 0.0700264 
0.170527 -0.637557 0.131439 
0.146051 -0.657971 0.1618 
0.216422 -0.643961 0.136058 
0.233783 -0.655491 0.196852 
0.15563 -0.657191 0.2051 
0.188429 -0.649735 0.170769 
0.18955 -0.586598 0.134247 
0.119382 -0.613852 0.197357 
0.177153 -0.585857 0.180386 
0.147489 -0.589837 0.128841 
0.218332 -0.592375 0.194951 
0.16146 -0.602542 0.218817 
0.132292 -0.579277 0.177481 
0.224305 -0.446211 0.0852546 
0.0595825 -0.361888 0.0131821 
0.216905 -0.442409 0.0429736 
0.23046 -0.513379 0.128316 
0.200685 -0.486932 0.031121 
0.201863 -0.527588 0.0586791 
0.210107 -0.523419 0.00654791 
0.210743 -0.492516 0.0825577 
0.165713 -0.650862 0.305922 
0.162459 -0.608116 0.298373 
0.215884 -0.611764 0.280193 
0.214394 -0.656049 0.281183 
0.150631 -0.660024 0.246823 
0.088542 -0.68212 0.282416 
0.143096 -0.587844 0.262876 
0.110722 -0.628825 0.266926 
0.197938 -0.656712 0.230911 
0.31874 -0.705793 0.0446693 
0.240767 -0.591157 0.0454918 
0.267978 -0.60861 0.0744647 
0.315162 -0.645782 0.108288 
0.292608 -0.606627 0.108549 
0.265413 -0.639916 0.0455945 
0.292155 -0.541517 0.169003 
0.300814 -0.668983 0.167197 
0.295098 -0.595002 0.187186 
0.274514 -0.668599 0.211293 
0.276691 -0.586927 0.146012 
0.241646 -0.559352 0.12982 
0.335481 -0.543658 0.181107 
0.265421 -0.648926 0.146152 
0.319852 -0.583325 0.151289 
0.444146 -0.679156 0.0296596 
0.44281 -0.594435 0.0239774 
0.382885 -0.646353 0.046063 
0.389029 -0.594222 0.0414006 
0.368948 -0.704815 0.0792046 
0.412729 -0.630345 0.0135469 
0.416438 -0.688954 -0.000496721 
0.470423 -0.538239 0.030791 
0.45638 -0.577628 0.158495 
0.42521 -0.666351 0.188735 
0.379306 -0.637283 0.196495 
0.372556 -0.66034 0.155354 
0.400379 -0.705246 0.112357 
0.476751 -0.683927 0.111924 
0.406088 -0.575868 0.199822 
0.47501 -0.602865 0.111593 
0.440673 -0.701988 0.129432 
0.308044 -0.400771 0.0346391 
0.272155 -0.39691 0.0963319 
0.242649 -0.424039 0.00176927 
0.345564 -0.374478 0.0269284 
0.330149 -0.3939 0.0694811 
0.245863 -0.415238 0.0589606 
0.313229 -0.499212 0.196922 
0.262011 -0.423143 0.136476 
0.32701 -0.365707 0.183614 
0.354236 -0.358606 0.142889 
0.351927 -0.497491 0.21257 
0.375818 -0.405939 0.0945451 
0.405555 -0.44125 0.0697549 
0.40828 -0.39473 0.0269371 
0.445616 -0.450622 0.0763749 
0.471412 -0.439416 0.0100572 
0.361716 -0.41261 0.0488582 
0.434535 -0.426242 0.0390542 
0.470672 -0.495333 0.180802 
0.39756 -0.454228 0.109392 
0.47094 -0.457438 0.210289 
0.450758 -0.453496 0.166636 
0.47978 -0.475118 0.137498 
0.426175 -0.529448 0.208835 
0.415715 -0.474031 0.157143 
0.440781 -0.469529 0.121405 
0.396054 -0.386152 0.126462 
0.42022 -0.430177 0.140354 
0.453902 -0.38813 0.188549 
0.31145 -0.579247 0.225977 
0.283233 -0.610547 0.247635 
0.257294 -0.663303 0.266153 
0.303452 -0.669988 0.256196 
0.238531 -0.59701 0.241587 
0.356809 -0.627683 0.271717 
0.344185 -0.68022 0.252875 
0.340243 -0.578345 0.267749 
0.389968 -0.606523 0.231713 
0.398448 -0.639223 0.27536 
0.389447 -0.675021 0.250595 
0.371864 -0.666612 0.293794 
0.455472 -0.645755 0.221042 
0.432691 -0.539558 0.256451 
0.389284 -0.563973 0.27804 
0.479204 -0.606047 0.24175 
0.405522 -0.687456 0.312908 
0.456977 -0.556955 0.22216 
0.340225 -0.396178 0.223937 
0.34811 -0.526078 0.273091 
0.382469 -0.526214 0.297431 
0.367883 -0.481945 0.295364 
0.369477 -0.378193 0.266993 
0.451016 -0.506019 0.235548 
0.397881 -0.456106 0.322597 
0.389576 -0.416344 0.299103 
0.423525 -0.511526 0.299267 
0.389049 -0.361399 0.302035 
0.473033 -0.468094 0.25251 
0.365853 -0.445919 0.273556 
0.444475 -0.43419 0.330615 
0.423059 -0.370608 0.34746 
0.404584 -0.411312 0.338243 
0.00599117 -0.208328 0.0666564 
0.0749477 -0.320348 0.00718105 
0.0643434 -0.269302 0.0352437 
0.0543438 -0.226817 0.0526006 
0.0408853 -0.180808 0.0598405 
0.0854846 -0.225222 0.0209875 
0.0197762 -0.248428 0.0680199 
0.0903399 -0.271102 0.000687482 
0.0494774 -0.311671 0.0419367 
0.0329209 -0.351473 0.0505894 
0.0823467 -0.165986 0.0377092 
0.0148831 -0.29801 0.0709891 
0.363345 -0.285113 0.00835867 
0.39089 -0.35482 0.0183362 
0.406887 -0.297676 0.0152803 
0.466481 -0.262488 0.00823921 
0.424573 -0.226584 0.0207009 
0.377037 -0.207862 0.00351025 
0.43966 -0.336647 0.00617376 
0.38867 -0.252441 0.014234 
0.369596 -0.334124 0.181548 
0.402405 -0.261189 0.179279 
0.465099 -0.212704 0.151146 
0.466019 -0.292729 0.182548 
0.401909 -0.201823 0.174316 
0.450634 -0.34066 0.190111 
0.380652 -0.162156 -5.86141e-05 
0.455949 -0.0955474 0.0278663 
0.416212 -0.0555518 0.0070539 
0.451625 -0.163628 0.0259295 
0.429235 -0.115028 0.108864 
0.392757 -0.112438 -4.23444e-05 
0.392752 -0.172806 0.139787 
0.395851 -0.127327 0.139378 
0.427749 -0.0617757 0.14909 
0.415771 -0.0293263 0.125558 
0.47389 -0.160185 0.158328 
0.441664 -0.107448 0.186686 
0.436595 -0.155311 0.118279 
0.402073 -0.0699575 0.112346 
0.463365 -0.109278 0.14603 
0.38254 -0.234659 0.222886 
0.38454 -0.327299 0.239514 
0.416805 -0.300784 0.277143 
0.399707 -0.199596 0.2409 
0.386738 -0.280865 0.229624 
0.445954 -0.227414 0.311355 
0.451912 -0.267271 0.33884 
0.449412 -0.311137 0.348645 
0.355741 -0.35343 0.219805 
0.409063 -0.236035 0.261664 
0.432365 -0.196584 0.271907 
0.493926 -0.569078 -0.333252 
0.527788 -0.633227 -0.234024 
0.493786 -0.612121 -0.250134 
0.573054 -0.580266 -0.247032 
0.525384 -0.552141 -0.289897 
0.508184 -0.444296 -0.266513 
0.531171 -0.479345 -0.243132 
0.496253 -0.396612 -0.265075 
0.511219 -0.524308 -0.259422 
0.496821 -0.52687 -0.317574 
0.528316 -0.427892 -0.23 
0.486908 -0.479051 -0.275438 
0.525807 -0.694481 -0.0906096 
0.582082 -0.686616 -0.111937 
0.550175 -0.665457 -0.15074 
0.592745 -0.57448 -0.208743 
0.580576 -0.677005 -0.177992 
0.553254 -0.656107 -0.206572 
0.506269 -0.631808 -0.195822 
0.53207 -0.706305 -0.0446601 
0.483987 -0.698733 -0.0566568 
0.638891 -0.558682 -0.130592 
0.689324 -0.694265 -0.146748 
0.610661 -0.691117 -0.142469 
0.644227 -0.613974 -0.179915 
0.643801 -0.694291 -0.111353 
0.606326 -0.654668 -0.220324 
0.67273 -0.602424 -0.134177 
0.610488 -0.535667 -0.15759 
0.62284 -0.580123 -0.166756 
0.615102 -0.693407 -0.0604073 
0.66953 -0.576025 -0.102006 
0.715657 -0.697564 -0.0565551 
0.71676 -0.534818 -0.0435044 
0.704683 -0.581466 -0.0655791 
0.713477 -0.633062 -0.101716 
0.667083 -0.552571 -0.031781 
0.637212 -0.555675 -0.0826691 
0.592264 -0.517524 -0.117748 
0.58233 -0.507146 -0.169266 
0.551717 -0.476263 -0.146133 
0.499502 -0.397859 -0.164335 
0.565305 -0.528567 -0.210292 
0.557319 -0.475894 -0.195023 
0.547314 -0.481429 -0.0339792 
0.512954 -0.390404 -0.0871369 
0.526427 -0.398779 -0.0426131 
0.529793 -0.43658 -0.0237768 
0.547961 -0.496308 -0.0992787 
0.517179 -0.458793 -0.077496 
0.589139 -0.513747 -0.0242485 
0.693154 -0.512875 -0.0132161 
0.769979 -0.68075 -0.0346922 
0.736558 -0.699311 -0.0176338 
0.741722 -0.569432 -0.029994 
0.744983 -0.528906 -0.00744113 
0.760505 -0.64509 -0.0595356 
0.728872 -0.685251 -0.111918 
0.75269 -0.683867 -0.0769302 
0.498494 -0.203377 -0.283411 
0.526269 -0.227923 -0.263553 
0.588115 -0.0292822 -0.266115 
0.508636 -0.0574521 -0.290755 
0.541267 -0.0826011 -0.282854 
0.509559 -0.114047 -0.287164 
0.591107 -0.0799927 -0.263113 
0.532183 -0.175113 -0.275106 
0.492878 -0.155533 -0.289107 
0.514383 -0.0154828 -0.290513 
0.572159 -0.140338 -0.2612 
0.610227 -0.125447 -0.238894 
0.622726 -0.0675352 -0.238451 
0.624796 -0.0257805 -0.241777 
0.596161 -0.23132 -0.158848 
0.597921 -0.209103 -0.197031 
0.517802 -0.346031 -0.155979 
0.540136 -0.281012 -0.0435106 
0.518194 -0.34844 -0.0414169 
0.540205 -0.24264 -0.023984 
0.564253 -0.329193 -0.0545731 
0.570394 -0.208153 -0.0285836 
0.557635 -0.310068 -0.094279 
0.532861 -0.350974 -0.0859184 
0.599019 -0.238059 -0.052166 
0.582306 -0.284297 -0.0527234 
0.723862 -0.202432 -0.0435733 
0.68132 -0.189734 -0.0336056 
0.62183 -0.197283 -0.138531 
0.610559 -0.269341 -0.0798286 
0.639724 -0.213911 -0.0532118 
0.646832 -0.199013 -0.0956391 
0.614903 -0.228492 -0.109752 
0.593894 -0.170312 -0.0292285 
0.670947 -0.0979462 -0.132193 
0.696066 -0.0091973 -0.140046 
0.627829 -0.168471 -0.175128 
0.656229 -0.00701396 -0.201947 
0.678443 -0.0518689 -0.142657 
0.649353 -0.0558574 -0.206627 
0.647787 -0.156545 -0.130031 
0.68909 -0.0378246 -0.0798856 
0.659131 -0.0819184 -0.0655609 
0.634652 -0.0734622 -0.0316842 
0.708652 -0.0197369 -0.0440655 
0.649592 -0.129639 -0.0575586 
0.621654 -0.0304341 -0.0128327 
0.63697 -0.171511 -0.0544905 
0.726067 -0.0450172 -0.0113621 
0.67579 -0.145401 -0.100773 
0.610057 -0.100924 -0.0111502 
0.782313 -0.0488118 -0.131741 
0.794434 -0.216308 -0.056825 
0.800218 -0.263032 -0.0319678 
0.833842 -0.238803 -0.0278215 
0.823421 -0.185005 -0.0526584 
0.759521 -0.265091 -0.0208877 
0.833056 -0.282712 -0.00888894 
0.855226 -0.188026 -0.00283675 
0.758515 -0.197128 -0.0669394 
0.729513 -0.167572 -0.0767954 
0.790114 -0.166819 -0.0801153 
0.822095 -0.115277 -0.0650259 
0.783401 -0.10149 -0.110226 
0.754853 -0.141717 -0.0986736 
0.794507 -0.0417808 -0.0217377 
0.820193 -0.073237 -0.034202 
0.805893 -0.0137863 -0.123133 
0.765539 -0.0126236 -0.0300316 
0.749762 -0.0803404 -0.126629 
0.809156 -0.0508404 -0.0902621 
0.838784 -0.14225 -0.0378454 
0.592391 -0.685908 0.0938072 
0.514339 -0.703293 0.183281 
0.593687 -0.698831 0.187896 
0.545738 -0.696332 0.00096248 
0.596396 -0.705995 0.00044756 
0.535843 -0.681716 0.0499912 
0.480994 -0.702206 0.155823 
0.543258 -0.68785 0.154659 
0.550372 -0.700664 0.214774 
0.488488 -0.560413 0.000476475 
0.654768 -0.705102 0.0733004 
0.658895 -0.692698 0.000962784 
0.648631 -0.700826 0.18164 
0.626813 -0.705685 0.0301308 
0.684775 -0.70106 0.108965 
0.640092 -0.698007 0.112639 
0.690097 -0.68872 0.0406346 
0.709879 -0.662047 0.212944 
0.482944 -0.453274 0.053348 
0.481107 -0.462917 0.0948958 
0.514224 -0.52265 0.0238518 
0.485914 -0.494183 0.0417129 
0.582705 -0.44296 0.0707703 
0.540704 -0.456315 0.073044 
0.541144 -0.484824 0.0256786 
0.515549 -0.451956 0.0225939 
0.483551 -0.414225 0.209485 
0.594356 -0.448912 0.199228 
0.579866 -0.452853 0.155026 
0.494451 -0.368209 0.209163 
0.6036 -0.435814 0.122443 
0.567566 -0.455262 0.11369 
0.523739 -0.473694 0.153992 
0.522684 -0.466932 0.111203 
0.634638 -0.409941 0.0993908 
0.637384 -0.409968 0.189034 
0.660315 -0.380647 0.12363 
0.724896 -0.367221 0.0541957 
0.678191 -0.516095 0.0280946 
0.678723 -0.357669 0.0653001 
0.666223 -0.372881 0.181895 
0.632813 -0.413074 0.142901 
0.721502 -0.50933 0.0362725 
0.520629 -0.634189 0.258731 
0.578155 -0.636884 0.271014 
0.588369 -0.560231 0.287191 
0.547888 -0.595355 0.275886 
0.59244 -0.693219 0.229367 
0.549947 -0.664697 0.247315 
0.515238 -0.679127 0.224517 
0.537542 -0.551497 0.266795 
0.664973 -0.654301 0.253696 
0.699131 -0.574793 0.291484 
0.613189 -0.664155 0.25485 
0.627353 -0.629617 0.277345 
0.642803 -0.592505 0.290292 
0.717966 -0.620978 0.265563 
0.634014 -0.692104 0.224766 
0.679324 -0.613925 0.280874 
0.662482 -0.552688 0.295497 
0.599582 -0.463124 0.245614 
0.517657 -0.356746 0.252032 
0.568214 -0.521665 0.270596 
0.48754 -0.523526 0.224328 
0.505491 -0.402003 0.298753 
0.554237 -0.477808 0.224978 
0.491984 -0.362784 0.333335 
0.490149 -0.4291 0.24929 
0.52519 -0.509187 0.23899 
0.688563 -0.514467 0.294197 
0.695687 -0.440828 0.279528 
0.617396 -0.530488 0.2902 
0.69501 -0.372659 0.241329 
0.659661 -0.392052 0.219362 
0.677169 -0.410817 0.256814 
0.637575 -0.44298 0.259459 
0.80647 -0.546082 0.0661708 
0.774031 -0.555435 0.0176556 
0.793754 -0.581302 0.0852223 
0.77609 -0.607445 0.0566767 
0.76783 -0.62475 0.0992467 
0.743877 -0.654505 0.0547454 
0.786459 -0.596416 0.014576 
0.78504 -0.644574 0.00819853 
0.763464 -0.680253 0.00918861 
0.757868 -0.632079 0.198532 
0.804371 -0.573311 0.169447 
0.769157 -0.623451 0.150591 
0.734896 -0.657918 0.169388 
0.788913 -0.593597 0.127255 
0.818659 -0.545828 0.133818 
0.823936 -0.356869 0.0214199 
0.781574 -0.448435 0.0295092 
0.746861 -0.402887 0.0492732 
0.83535 -0.443906 0.0674529 
0.832723 -0.408532 0.042037 
0.822623 -0.511582 0.0863682 
0.773171 -0.500491 0.0326346 
0.794035 -0.397365 0.0302958 
0.76469 -0.365423 0.0299256 
0.817235 -0.469806 0.0397425 
0.84814 -0.485909 0.160214 
0.837381 -0.510869 0.195606 
0.85772 -0.409469 0.20052 
0.871044 -0.403995 0.122727 
0.860857 -0.399293 0.0757837 
0.853999 -0.456332 0.112817 
0.864247 -0.439037 0.166351 
0.875369 -0.366983 0.0980335 
0.850938 -0.465946 0.197105 
0.870303 -0.382241 0.169738 
0.858814 -0.356748 0.0456231 
0.751441 -0.590516 0.265172 
0.738628 -0.548437 0.287373 
0.838542 -0.42917 0.232145 
0.729011 -0.406354 0.268526 
0.807845 -0.510684 0.252959 
0.834791 -0.38192 0.2269 
0.738343 -0.366654 0.252014 
0.794732 -0.403361 0.256667 
0.750392 -0.482788 0.284534 
0.797306 -0.467958 0.267719 
0.829836 -0.475349 0.237424 
0.483365 -0.201319 0.0193205 
0.501819 -0.239053 0.00353832 
0.49549 -0.32103 0.202682 
0.517873 -0.231861 0.215929 
0.488923 -0.248197 0.175061 
0.509567 -0.281548 0.198109 
0.491435 -0.199297 0.182903 
0.683072 -0.219769 -0.00106606 
0.68486 -0.310816 0.070531 
0.689217 -0.253068 0.0277238 
0.700458 -0.264136 0.0807151 
0.712226 -0.325227 0.0424959 
0.707822 -0.22296 0.068979 
0.709601 -0.2905 0.0169101 
0.680615 -0.33967 0.110214 
0.696021 -0.309564 0.149063 
0.713152 -0.266926 0.146179 
0.720995 -0.300896 0.198922 
0.695374 -0.297054 0.109196 
0.691525 -0.333367 0.184575 
0.482641 -0.135759 0.0280766 
0.515272 -0.0353895 0.029042 
0.554049 -0.155616 0.00747223 
0.524052 -0.0760021 0.0261871 
0.715206 -0.0873478 0.00475266 
0.514483 -0.162775 0.0199229 
0.571414 -0.0884821 0.0150539 
0.532766 -0.119435 0.0230456 
0.524831 -0.258976 0.279982 
0.525627 -0.355329 0.29323 
0.532676 -0.306702 0.285549 
0.50084 -0.276331 0.315272 
0.506179 -0.318222 0.324263 
0.494137 -0.186244 0.222623 
0.5261 -0.308126 0.242139 
0.714195 -0.336329 0.223306 
0.847101 -0.32203 0.0180061 
0.801822 -0.252187 0.178006 
0.747891 -0.256097 0.176377 
0.842392 -0.276229 0.172336 
0.7636 -0.304137 0.0019633 
0.733902 -0.230247 0.141576 
0.805983 -0.297573 0.206538 
0.803659 -0.212882 0.147594 
0.797052 -0.329012 0.00307007 
0.865586 -0.269223 0.0193612 
0.876018 -0.234855 0.0611592 
0.861888 -0.185828 0.0472496 
0.868285 -0.237904 0.104028 
0.862504 -0.22802 0.00761114 
0.88005 -0.275102 0.0788921 
0.880542 -0.321653 0.101155 
0.873649 -0.317168 0.0568853 
0.855022 -0.198606 0.0920858 
0.866872 -0.274942 0.136043 
0.855405 -0.316036 0.177368 
0.878418 -0.340858 0.140041 
0.852815 -0.352808 0.197119 
0.766118 -0.117881 0.0651506 
0.747531 -0.175882 0.105537 
0.807001 -0.179586 0.115589 
0.731625 -0.150625 0.0720497 
0.834879 -0.152087 0.0662772 
0.797444 -0.144124 0.0836653 
0.798394 -0.0772001 0.0121682 
0.84593 -0.128926 0.0011153 
0.808479 -0.116191 0.0469874 
0.755988 -0.0842281 0.0338811 
0.807861 -0.338956 0.2246 
0.762293 -0.320339 0.224053 
0.00141002 0.0835843 -0.247991 
0.0373055 0.0761723 -0.276179 
0.0338486 0.1557 -0.232601 
0.108632 0.0880097 -0.293068 
0.0647696 0.138415 -0.263971 
0.0988262 0.0294592 -0.296721 
-0.0121728 0.0154394 -0.266729 
0.0274808 0.117711 -0.253173 
0.152139 0.0116889 -0.292622 
0.200297 0.0149223 -0.279483 
0.139624 0.117691 -0.297269 
0.187498 0.118811 -0.301635 
0.138551 0.0584117 -0.299581 
0.225163 0.0997472 -0.298723 
0.198877 0.0557592 -0.294785 
0.228141 0.145018 -0.300565 
0.230548 0.287383 -0.22654 
0.175619 0.240896 -0.256067 
0.219224 0.260623 -0.258098 
0.116057 0.202535 -0.254799 
0.187748 0.276725 -0.223631 
0.199352 0.188637 -0.293083 
-0.00717791 0.119708 -0.213273 
0.00611328 0.112646 -0.019556 
0.0601197 0.292935 -0.152679 
0.0587879 0.227413 -0.1844 
0.035344 0.217904 -0.13116 
0.101728 0.255179 -0.192428 
0.0768619 0.240205 -0.113536 
0.0209305 0.266103 -0.159052 
0.00461244 0.228454 -0.169366 
0.227244 0.31309 -0.131899 
0.167305 0.291444 -0.121956 
0.17342 0.32735 -0.148267 
0.123149 0.300793 -0.135049 
0.129864 0.314802 -0.174745 
0.179782 0.210074 -0.00326253 
0.169906 0.27255 -0.0666663 
0.204587 0.298101 -0.0954659 
0.214334 0.281809 -0.0564331 
0.197605 0.253715 -0.0302886 
0.222282 0.224175 -0.00418828 
0.354868 0.0997727 -0.288104 
0.303047 0.0611681 -0.271083 
0.247104 0.033488 -0.269376 
0.276761 0.0206074 -0.240694 
0.319079 0.0313291 -0.236021 
0.28622 0.155868 -0.300033 
0.254998 0.0728155 -0.287385 
0.269113 0.116104 -0.295169 
0.31586 0.115998 -0.29212 
0.389021 0.0258194 -0.253828 
0.412704 0.0530871 -0.280679 
0.476343 0.0149232 -0.291753 
0.460921 0.157705 -0.290364 
0.398037 0.0976785 -0.289692 
0.412089 0.136743 -0.298625 
0.444452 0.107598 -0.292839 
0.36942 0.138794 -0.296483 
0.37045 0.0618606 -0.270253 
0.467376 0.0674232 -0.291318 
0.342884 0.192219 -0.30148 
0.338635 0.239037 -0.287324 
0.239486 0.233817 -0.284337 
0.244369 0.190774 -0.299427 
0.271088 0.285276 -0.243912 
0.31167 0.275275 -0.260816 
0.289752 0.2389 -0.287919 
0.413976 0.286066 -0.229026 
0.421088 0.253385 -0.262801 
0.461647 0.274591 -0.224894 
0.465597 0.238984 -0.256605 
0.361669 0.269793 -0.26553 
0.416838 0.18456 -0.291374 
0.382635 0.228268 -0.287584 
0.385603 0.0373404 -0.0144779 
0.260719 0.0135353 -0.0532419 
0.376098 0.00403006 -0.0409128 
0.315956 0.00757493 -0.200693 
0.272747 0.0581903 -0.0176965 
0.340604 0.0605666 -0.0181037 
0.360777 0.00668749 -0.219384 
0.305966 0.00986699 -0.0814932 
0.312339 0.0367498 -0.0407769 
0.27355 0.347464 -0.184156 
0.317755 0.327827 -0.132768 
0.248655 0.310542 -0.195814 
0.270665 0.314661 -0.119808 
0.331954 0.309274 -0.209513 
0.319571 0.346121 -0.179812 
0.24825 0.299466 -0.0832059 
0.31429 0.244765 -0.00502218 
0.248055 0.25753 -0.0188662 
0.342393 0.278022 -0.033281 
0.309615 0.308467 -0.0933307 
0.289813 0.284336 -0.0383554 
0.388824 0.339314 -0.178311 
0.403016 0.346839 -0.137405 
0.470156 0.336371 -0.141041 
0.475838 0.298342 -0.183066 
0.434673 0.305323 -0.192728 
0.373052 0.25092 -0.0122841 
0.473492 0.281404 -0.099866 
0.364318 0.307441 -0.0927253 
0.378453 0.288206 -0.0542234 
0.442296 0.273669 -0.0540512 
0.413421 0.306057 -0.110874 
0.200806 0.355227 -0.166337 
-0.00161019 0.673667 -0.254438 
0.436738 0.352005 -0.167678 
-0.0123392 0.632047 -0.230275 
0.353727 0.357026 -0.147633 
0.0588391 0.104532 0.0135166 
0.10657 0.123636 0.016845 
0.0870924 0.0732063 0.0262664 
0.03582 0.0501427 0.0228746 
0.19904 0.0842582 0.0203929 
0.127615 0.0850535 0.0249478 
0.163011 0.112966 0.0214333 
0.139534 0.171826 0.00582368 
0.227588 0.124894 0.0175741 
0.162595 0.0623974 0.0243925 
0.179449 0.156266 0.0150666 
0.230183 0.0577956 -0.00044372 
0.127455 0.0406071 0.0308757 
0.0795431 0.0309079 0.0352567 
0.25663 0.0939847 0.00912823 
0.298786 0.20057 0.0100226 
0.343567 0.217076 0.00801308 
0.250584 0.177246 0.0138353 
0.33014 0.16992 0.0162268 
0.27685 0.13765 0.0163175 
0.30266 0.102039 0.00817138 
0.39437 0.073219 0.00794122 
0.439696 0.1165 0.0240175 
0.474498 0.162056 0.0142257 
0.434504 0.180684 0.0161755 
0.432327 0.0429991 0.0185045 
0.389543 0.164065 0.0203023 
0.419242 0.00466283 0.00547631 
0.361413 0.122362 0.0152589 
0.385323 0.210262 0.0102944 
0.459709 0.07714 0.0246511 
0.427602 0.22212 0.00177472 
0.57941 0.144222 -0.244017 
0.627796 0.0255921 -0.239493 
0.607696 0.0741633 -0.248075 
0.573875 0.0684733 -0.272477 
0.593029 0.0218944 -0.266271 
0.493937 0.107367 -0.286469 
0.601432 0.122317 -0.0287236 
0.631485 0.104538 -0.208379 
0.662444 0.128946 -0.166025 
0.665138 0.0428022 -0.178395 
0.662915 0.0848135 -0.173015 
0.641908 0.0593726 -0.213741 
0.7057 0.106665 -0.135405 
0.651145 0.0405816 -0.06315 
0.673898 0.12676 -0.109473 
0.638169 0.00138342 -0.0367158 
0.664215 -0.00349848 -0.0746878 
0.61281 0.0290655 -0.0114794 
0.625131 0.129181 -0.0623672 
0.685041 0.0501015 -0.0968546 
0.61319 0.0731465 -0.0198018 
0.658062 0.0892703 -0.0924657 
0.634296 0.0883124 -0.05312 
0.565874 0.268531 -0.127462 
0.527532 0.289355 -0.122735 
0.501881 0.256225 -0.220415 
0.598865 0.231366 -0.159272 
0.592643 0.226665 -0.114788 
0.547969 0.258481 -0.175892 
0.563985 0.300098 -0.155587 
0.514847 0.256119 -0.0822223 
0.514177 0.189651 -0.00684778 
0.553943 0.230973 -0.0788773 
0.573611 0.185168 -0.0457588 
0.551921 0.16691 -0.0150741 
0.481841 0.257617 -0.0554446 
0.484512 0.229173 -0.0210018 
0.521578 0.233057 -0.0437193 
0.678477 0.165408 -0.132667 
0.632494 0.22715 -0.134419 
0.620957 0.179644 -0.173284 
0.607372 0.266007 -0.137455 
0.762112 0.0174073 -0.15468 
0.847618 0.0187267 -0.108731 
0.809272 0.0586625 -0.0513786 
0.734846 0.0152122 -0.0464777 
0.735445 0.047594 -0.140745 
0.78047 0.0622994 -0.153489 
0.760995 0.0518509 -0.055298 
0.834782 0.0065719 -0.0679989 
0.790913 0.010056 -0.0546665 
0.806528 0.0295043 -0.148383 
0.737205 0.0835265 -0.0683699 
0.76575 0.117387 -0.0459632 
0.748265 0.0921834 -0.147239 
0.816827 0.103083 -0.0373105 
0.798779 0.157152 -0.123002 
0.81902 0.0818358 -0.147336 
0.735053 0.135143 -0.12269 
0.79014 0.116798 -0.140552 
0.841395 0.127062 -0.128422 
0.73063 0.128669 -0.0759039 
0.964532 0.0406629 -0.044146 
0.8594 0.043144 -0.0600652 
0.877543 -0.000604017 -0.0843686 
0.879745 0.0427052 -0.0964723 
0.862217 0.0720279 -0.122684 
0.926935 0.0496529 -0.0842487 
0.940819 0.0760146 -0.0456148 
0.901714 0.0498018 -0.050185 
0.900289 0.0953962 -0.0367429 
0.890727 0.157424 -0.101496 
0.856192 0.0850888 -0.0454867 
0.900704 0.149207 -0.0173823 
0.92621 0.126143 -0.0972028 
0.8836 0.113927 -0.118832 
0.937747 0.156212 -0.043658 
0.861317 0.125394 -0.0279065 
0.973333 0.133616 -0.0460649 
0.811762 0.206694 -0.0283106 
0.755587 0.214371 -0.0384559 
0.846727 0.167276 -0.110207 
0.805509 0.165401 -0.0255375 
0.831259 0.250693 -0.0356375 
0.764828 0.169841 -0.0336784 
0.779239 0.221219 -0.0721751 
0.772306 0.189583 -0.103141 
0.817893 0.208798 -0.0851137 
0.918311 0.214892 -0.00652432 
0.885538 0.204787 -0.0465395 
0.853485 0.225751 -0.0709297 
0.943752 0.226123 -0.040212 
0.852149 0.213932 -0.0184669 
0.94025 0.192965 -0.065487 
0.512272 0.328418 -0.150754 
0.555603 0.00126979 0.0211378 
0.581371 0.0538971 0.00756032 
0.517359 0.148691 0.00802424 
0.964907 0.228774 0.00248637 
0.482952 0.119293 0.0217852 
0.529881 0.107621 0.0129198 
-0.599157 -0.556549 0.311088 
