ply
format ascii 1.0
element vertex 390
property float x
property float y
property float z
property float nx
property float ny
property float nz
end_header
-0.038719 -0.11796 -0.167705 -0.218176 0.232497 -0.94781 
-0.222403 -0.42019 -0.0950214 -0.605398 -0.795043 -0.0374208 
0.0684302 0.427175 0.128428 0.869226 -0.195967 0.45392 
0.0195103 0.0315099 0.0419279 0.165159 -0.157103 0.973674 
0.0708475 0.114571 -0.00700418 0.154895 0.318811 0.935076 
0.0227763 0.439824 0.191612 0.361831 -0.536192 0.762612 
0.0532167 0.221951 0.0628877 0.786364 -0.139229 0.60187 
0.186519 0.429188 0.122297 -0.0694289 0.745414 -0.662977 
-0.0400008 0.0338036 -0.124586 -0.408705 0.376594 -0.831347 
-0.0434101 -0.0905487 -0.160342 -0.203161 0.252659 -0.945986 
0.249699 0.374932 0.141455 0.976193 -0.0472224 -0.211699 
0.320938 0.0464882 -0.0251161 -0.128971 0.423799 -0.896527 
-0.227456 -0.133754 0.0680998 0.00723448 -0.163004 0.986599 
-0.195763 -0.101628 -0.105193 -0.438762 0.248587 -0.863535 
0.12451 0.0830816 -0.103587 0.767473 0.234636 -0.5966 
0.237443 0.295493 0.102845 0.986064 0.0920513 -0.138581 
0.0938955 0.0147054 -0.138842 0.283964 0.152774 -0.946586 
-0.0987951 0.299771 0.0931293 0.0937151 0.565933 -0.819108 
-0.134445 0.193529 0.117722 -0.550489 -0.247697 0.79725 
-0.125628 0.124079 0.094161 -0.383716 -0.51686 0.765257 
-0.160366 -0.226567 -0.172388 -0.291296 0.432346 -0.85336 
0.120318 -0.104561 0.0439942 0.0314236 0.326074 0.944822 
-0.0895901 0.24997 0.0638938 0.0475049 0.423266 -0.904759 
0.28653 -0.00415553 0.0749264 0.0512732 -0.349438 0.935556 
0.0220801 -0.291955 -0.227795 0.127061 0.380312 -0.916089 
-0.00976563 0.290436 -0.00133555 -0.820987 0.354789 -0.447331 
-0.100712 -0.136456 -0.150594 -0.279578 0.162978 -0.946189 
-0.344803 0.180286 0.110736 -0.972298 -0.121269 -0.199824 
0.0792572 -0.0149352 -0.14662 0.170373 0.214167 -0.961824 
0.164357 0.252526 -0.0122506 0.614061 0.33206 -0.716007 
-0.153725 0.117566 -0.0295003 -0.0686847 0.332206 -0.940703 
0.273515 0.111127 0.0179773 -0.393625 0.449415 -0.801926 
-0.107842 -0.354958 0.0390533 0.0728877 -0.153959 0.985385 
0.161444 -0.310992 0.0527697 0.157968 -0.280551 0.946751 
0.146701 0.379482 0.131434 -0.922603 -0.116576 0.367715 
0.265448 -0.212109 -0.133724 0.564744 -0.13824 -0.813606 
-0.0196966 -0.307969 -0.238232 0.0146677 0.372101 -0.928076 
-0.0880313 -0.448138 -0.0208982 0.0613324 -0.99196 0.110699 
0.315475 -0.0404652 -0.0601975 0.0265858 0.285722 -0.957944 
0.125959 -0.420921 -0.150659 0.213237 -0.866377 -0.451575 
-0.258528 0.184536 0.106598 0.749417 -0.221704 0.623876 
-0.278032 -0.275409 -0.0266147 -0.942375 -0.299208 0.149679 
-0.0309655 -0.278805 -0.226322 -0.00053275 0.37784 -0.925871 
0.341528 0.112207 0.0089622 0.252495 0.501084 -0.827744 
-0.0449617 -0.0185857 -0.140114 -0.298473 0.242322 -0.923144 
-0.354897 0.238939 0.143961 -0.950049 0.131927 -0.282846 
-0.194833 0.257075 0.104758 -0.23475 -0.425837 0.873817 
-0.158402 0.462018 0.157226 0.122805 0.653721 -0.746704 
0.193586 0.068442 0.0096284 0.465249 0.373718 -0.80242 
-0.0318967 0.439892 0.147571 -0.908811 0.238794 -0.342112 
-0.128696 0.158055 0.11028 -0.418637 -0.325538 0.847802 
-0.293822 0.174253 0.0398732 -0.527896 0.436972 -0.728272 
0.0286277 0.0638045 0.0432133 0.253953 -0.0344972 0.966601 
-0.112164 -0.377662 -0.234691 -0.0371801 -0.769631 -0.637406 
-0.158301 0.219091 0.0139494 0.29279 0.459391 -0.83859 
0.0646667 0.396768 0.122427 0.727022 -0.162451 0.66712 
-0.270492 0.0497009 0.0852419 0.308008 -0.0824325 0.947806 
0.242878 -0.338884 -0.0299374 0.792846 -0.584274 0.17326 
-0.0267028 0.155793 -0.0612589 -0.845136 0.348777 -0.405092 
-0.306026 -0.0292322 0.0296641 -0.995711 1.21939e-16 -0.092514 
0.174596 0.339149 0.0482757 0.337102 0.536927 -0.773351 
0.0366516 -0.142711 -0.181934 -0.00871297 0.265117 -0.964177 
0.13068 0.299739 0.0817985 -0.643618 -0.222515 0.732286 
-0.258723 0.0689062 -0.0155004 -0.410611 0.168056 -0.896189 
0.211283 -0.188763 0.0460332 0.339697 0.276643 0.89893 
0.317914 -0.0752804 0.0381017 0.269911 -0.387 0.881691 
0.149544 -0.0450401 0.0125597 0.178841 0.0586454 0.982129 
0.154242 -0.0860097 -0.163396 0.111506 0.378896 -0.918697 
0.260301 -0.309208 -0.0230163 0.82771 -0.498279 0.258097 
-0.21944 -0.252694 0.0507438 -0.242658 -0.21327 0.946379 
0.0808279 -0.395651 -0.207569 0.258844 -0.693679 -0.672168 
0.0656868 0.361419 0.115686 0.596385 -0.215752 0.77316 
-0.294578 0.177486 0.138474 0.505232 -0.410683 0.758999 
-0.210676 -0.427478 -0.0705177 -0.546172 -0.833591 0.0825987 
-0.307364 -0.0649679 0.0262319 -0.999328 -1.22382e-16 0.0366514 
-0.0219492 -0.378555 -0.239661 0.0224951 -0.651388 -0.758411 
0.107041 -0.406377 -0.182734 0.314545 -0.752257 -0.578939 
0.0202499 0.54956 0.164076 -0.0220203 0.954751 -0.29659 
-0.185223 0.461541 0.200541 -0.815088 0.328444 0.477238 
-0.00326705 0.353879 0.0304957 -0.710886 0.339202 -0.616104 
-0.193715 0.22912 0.0914614 -0.202458 -0.410857 0.888936 
-0.142856 -0.44526 -0.0269143 -0.140304 -0.981095 0.133292 
0.150598 0.402066 0.148853 -0.954906 -0.0130022 0.296624 
0.325352 0.0743384 -0.0104401 -0.028091 0.431557 -0.901648 
-0.0514352 0.301874 0.0676332 -0.699801 0.355069 -0.619842 
-0.304831 0.238924 0.187486 0.413978 -0.32981 0.848438 
-0.221084 -0.414333 -0.121305 -0.318535 -0.884972 -0.339648 
-0.0879354 0.174168 0.0283811 0.474795 0.455104 -0.753292 
-0.0465527 0.335514 0.0839606 -0.756115 0.389317 -0.526044 
-0.321686 0.246842 0.10187 -0.590734 0.460177 -0.662775 
-0.0430236 -0.170547 -0.183322 -0.259952 0.346935 -0.901144 
-0.156316 0.377685 0.104442 0.399764 0.452812 -0.796963 
-0.140495 0.296767 0.16118 -0.44409 -0.311315 0.840159 
0.111176 0.103949 0.0446686 -0.805424 -9.8636e-17 0.592699 
0.0246523 -0.383887 -0.231616 0.0951402 -0.653472 -0.750948 
-0.142616 0.330055 0.171988 -0.416968 -0.384982 0.823363 
-0.184007 -0.242764 0.05544 0.0382848 -0.110431 0.993146 
-0.159895 0.424588 0.130839 0.250835 0.500675 -0.828496 
-0.184436 -0.384132 -0.207884 -0.258999 -0.729762 -0.632746 
0.110669 -0.349152 0.0453666 -0.000584044 -0.312503 0.949916 
0.165808 0.25474 0.110109 -0.698758 -0.209512 0.68399 
-0.1516 0.484395 0.198067 0.0207885 0.999707 0.0124256 
0.22583 0.00922818 0.00447406 0.0742939 0.132969 -0.988332 
0.175503 0.304104 0.137816 -0.6271 -0.255315 0.735908 
0.0534441 -0.0651675 0.0284323 -0.0784279 0.0963294 0.992255 
0.156271 0.225306 0.0945565 -0.692838 -8.48482e-17 0.721093 
-0.0455051 -0.048846 -0.148036 -0.238062 0.25522 -0.937117 
-0.153492 0.308428 0.0627892 0.460283 0.481454 -0.745883 
-0.323528 0.303855 0.176664 -0.441642 0.852575 0.279408 
0.30018 -0.129903 -0.0908874 0.474598 0.303118 -0.826363 
0.0210256 0.368306 0.152034 0.531524 -0.260038 0.806141 
-0.252345 0.156535 0.0896727 0.711683 -0.210187 0.67032 
-0.0455365 -0.317146 0.0300998 0.120018 -0.003957 0.992764 
-0.0906769 -0.440457 -0.0627861 0.00595971 -0.955019 -0.296484 
0.238627 0.327748 0.1198 0.986156 -0.0917921 -0.138098 
-0.243567 0.124494 0.0748471 0.563213 -0.0655659 0.823707 
-0.00931472 -0.308807 0.032554 -0.140172 -0.0097485 0.990079 
0.215586 -0.087259 -0.127422 0.664482 0.472395 -0.579058 
-0.194029 0.370093 0.161071 -0.644317 -0.35958 0.67495 
-0.0589643 0.1954 0.0451384 -0.116981 0.195723 -0.973657 
-0.290048 -0.212522 -0.00984907 -0.973929 -0.191029 0.12235 
0.0388365 -0.419779 -0.138281 -0.0793103 -0.963404 -0.256053 
-0.167578 -0.203173 -0.157934 -0.30543 0.425296 -0.85196 
-0.0587438 -0.0715864 0.0341495 0.252241 -0.0849032 0.963933 
0.0095739 0.260948 0.106546 0.578583 -0.276148 0.767453 
0.0156631 0.517751 0.131295 -0.259641 0.597314 -0.758817 
-0.257325 -0.332796 -0.0542651 -0.89341 -0.445451 0.0582481 
-0.0344749 0.412033 0.131193 -0.876414 0.307839 -0.370315 
-0.0049073 -0.240709 0.0306664 -0.119797 0.0511574 0.991479 
-0.106157 0.391097 0.141856 0.385296 0.460693 -0.799568 
0.181035 0.406533 0.0978835 0.020551 0.646872 -0.762322 
-0.0416337 0.00786142 -0.133887 -0.340339 0.285626 -0.895872 
0.100272 -0.433494 -0.117204 -0.0700166 -0.951842 -0.298487 
0.0681063 0.507778 0.159545 0.932403 0.353096 -0.0771204 
0.0522537 -0.107947 -0.173887 -0.0228552 0.151927 -0.988127 
0.205853 0.123723 0.0323308 0.479211 0.0895328 -0.873121 
0.311449 -0.106015 0.0242642 0.320668 -0.438623 0.839513 
0.191282 -0.0898844 0.0128708 -0.0163144 0.0901846 0.995791 
0.283199 -0.0324758 0.0613682 -0.0640075 -0.499424 0.86399 
-0.189005 0.142827 0.0657113 -0.221756 -0.34488 0.912076 
-0.149456 0.425035 0.22205 -0.181474 -0.308749 0.933671 
-0.102468 0.323168 0.106316 0.192588 0.483806 -0.853722 
-0.105606 0.361803 0.126817 0.300007 0.450547 -0.840835 
-0.0118408 0.265262 -0.014771 -0.872208 0.21286 -0.44039 
0.320906 0.0159081 -0.0381154 -0.14842 0.406707 -0.901422 
-0.313838 0.218144 0.0809233 -0.560406 0.377114 -0.737381 
0.32203 0.148416 0.0428225 0.126044 0.944377 -0.303753 
-0.150701 0.0831682 -0.0427196 -0.209368 0.38877 -0.897231 
0.179357 0.378965 0.0794 0.114993 0.545578 -0.830133 
0.0580193 -0.0818446 -0.170232 0.00125672 0.223888 -0.974614 
0.191365 -0.0836112 -0.146697 0.514169 0.480466 -0.71048 
0.160685 0.227608 -0.0251998 0.69613 0.231526 -0.679557 
0.2836 -0.189056 -0.122765 0.627047 0.02157 -0.778683 
0.190899 -0.405668 -0.0685081 0.72092 -0.690158 -0.0629017 
0.20186 0.439029 0.208171 -0.125677 0.00351893 0.992065 
0.0113237 -0.192064 0.0304156 -0.188059 -2.30306e-17 0.982158 
0.216665 -0.285792 -0.143293 0.555788 -0.341667 -0.757868 
-0.144214 -0.399744 -0.170482 -0.00542789 -0.973496 -0.228641 
0.0344387 -0.159024 0.035512 -0.27477 0.0411078 0.960631 
0.155136 -0.355423 -0.170283 0.653261 -0.251731 -0.71406 
-0.00417778 0.135857 0.0585722 0.364566 -0.338368 0.867525 
-0.194174 0.30188 0.125569 -0.40333 -0.373516 0.835351 
-0.152553 -0.379828 -0.22509 -0.210349 -0.698084 -0.684421 
-0.170972 -0.4406 -0.0370423 -0.278228 -0.952422 0.124423 
-0.273587 0.258384 0.163992 0.83129 -0.147803 0.535828 
-0.187007 0.115032 0.0538265 -0.0758463 -0.377526 0.922888 
0.197025 0.461839 0.155622 -0.0502853 0.792132 -0.608275 
-0.220993 -0.399181 -0.159559 -0.334002 -0.881178 -0.334616 
0.289321 0.029258 0.0827001 0.0956719 -0.121005 0.988031 
0.0685238 -0.133698 0.0440287 -0.25533 0.126314 0.958567 
0.161035 -0.0908466 0.0294332 0.442539 0.381259 0.811665 
0.0260431 0.470108 0.206071 0.318761 -0.328293 0.889166 
-0.351292 0.208258 0.126242 -0.961279 -0.0323594 -0.273669 
-0.110597 -0.40301 -0.164822 -0.0532683 -0.949439 -0.3094 
0.0278748 0.522898 0.20668 0.281766 0.362217 0.888486 
0.0159341 0.306325 0.128277 0.543633 -0.447943 0.709796 
-0.108716 0.419279 0.158258 0.498655 0.433805 -0.750437 
-0.0816087 -0.414953 -0.13443 -0.0339614 -0.942246 -0.333196 
0.0814112 -0.367683 0.0369905 -0.0793028 -0.378942 0.922016 
0.123172 -0.0882749 -0.164519 0.0323992 0.317264 -0.947784 
0.0262846 -0.39338 0.0192566 -0.052108 -0.430158 0.901248 
0.015172 -0.332451 -0.244657 0.12989 0.212368 -0.968519 
-0.153036 -0.0258425 -0.0938839 -0.349192 0.402618 -0.846146 
-0.121786 0.47152 0.187027 0.475204 0.788411 -0.390628 
0.361103 0.125715 0.0342245 0.674668 0.619322 -0.401577 
0.0555365 -0.380572 0.0286259 -0.11433 -0.407964 0.905811 
-0.267495 0.0997782 -0.00329653 -0.412911 0.187008 -0.891365 
-0.155196 0.266545 0.0405618 0.425236 0.384023 -0.819573 
0.0646944 0.327594 0.100706 0.54223 -0.413366 0.731515 
0.190138 0.389825 0.194086 -0.415773 -0.373615 0.829183 
-0.176833 -0.16679 -0.137597 -0.348862 0.37411 -0.859265 
0.084203 -0.447337 -0.0633719 -0.00141651 -0.995629 -0.0933839 
-0.192761 0.326732 0.138088 -0.467579 -0.386819 0.794821 
0.0106916 0.472465 0.0972707 -0.481384 0.504163 -0.717 
-0.0885939 -0.169797 -0.162777 -0.331043 0.354495 -0.874496 
-0.288334 0.29132 0.181114 0.591324 0.284265 0.754671 
0.139013 0.32698 0.0972976 -0.754642 -0.15505 0.637554 
-0.152561 -0.257834 -0.1903 -0.274947 0.422453 -0.863677 
-0.145053 0.358279 0.188144 -0.327567 -0.516659 0.791052 
-0.0223161 -0.412515 -0.148923 -0.0548939 -0.957225 -0.284091 
-0.019788 0.183626 -0.0521356 -0.886201 0.344824 -0.309425 
-0.149848 0.0476943 -0.0599576 -0.299366 0.417659 -0.85787 
0.0631413 0.303377 0.0877773 0.513894 -0.438389 0.737379 
-0.325189 0.269833 0.124831 -0.5796 0.515507 -0.631123 
0.0355029 -0.169835 -0.189796 0.00525318 0.289014 -0.95731 
0.196175 0.0916607 0.0225211 0.431712 0.301225 -0.850228 
0.0202583 0.417897 0.176684 0.43761 -0.501775 0.746136 
-0.308375 -0.00279794 0.034648 -0.981974 -0.120323 -0.145772 
-0.0256419 -0.102056 0.0255482 0.104417 0.00974853 0.994486 
0.123862 0.135057 -0.0799863 0.784572 0.0643522 -0.61669 
-0.232137 -0.0262252 -0.0568511 -0.515649 0.43758 -0.736634 
0.192238 -0.31427 -0.151032 0.633242 -0.262336 -0.728138 
-0.142655 -0.295132 -0.213279 -0.285364 0.482094 -0.828343 
0.0632274 -0.0520802 -0.160965 0.0828886 0.323408 -0.942622 
0.234277 0.261713 0.0814466 0.944687 0.0731534 -0.31971 
-0.0137356 0.208217 -0.0421216 -0.910185 0.308665 -0.276203 
0.307349 -0.13777 0.0114993 0.480595 -0.331749 0.811771 
0.00817824 0.211828 0.0963196 0.542341 -0.182787 0.820034 
0.0449548 0.0921559 0.0366792 0.50908 0.246838 0.824566 
-0.313189 0.268259 0.196082 0.239541 -0.0221422 0.970634 
0.0465019 0.168265 0.0500111 0.770566 -0.394269 0.50078 
-0.156265 -0.11164 -0.125992 -0.377881 0.26977 -0.88568 
-0.0348201 0.0899351 -0.092979 -0.594401 0.463277 -0.657315 
-0.295815 -0.182814 -0.000968719 -0.973278 -0.205 0.103466 
-0.0557243 0.265098 0.058687 -0.55785 0.169889 -0.812368 
-0.244675 -0.392609 -0.118522 -0.882304 -0.470047 0.0244086 
0.0233629 -0.262541 -0.216966 0.0933258 0.309989 -0.946149 
0.0031369 0.422875 0.0719139 -0.644341 0.446733 -0.620688 
0.0875357 0.148339 -0.00554617 -0.324028 3.96819e-17 0.946048 
-0.306679 -0.107312 0.0196498 -0.989715 -0.091066 0.110328 
-0.118665 -0.105992 -0.13973 -0.327259 0.227771 -0.917072 
0.164364 -0.426031 -0.0881423 0.558456 -0.81745 -0.141074 
0.0545734 -0.388573 -0.221546 0.178228 -0.646451 -0.741846 
-0.0336042 -0.0414254 0.0337107 0.162747 -0.178378 0.97041 
0.135435 0.164789 0.0772763 -0.795878 -0.0726702 0.60108 
-0.147847 0.388911 0.206259 -0.254082 -0.468686 0.846035 
-0.241208 0.0188454 -0.0280542 -0.442356 0.211185 -0.87162 
-0.00265929 -0.0719362 -0.158851 -0.122632 0.257498 -0.958466 
-0.195245 0.396725 0.174922 -0.753058 -0.331321 0.568445 
0.00408549 -0.445919 -0.0328708 -0.00534257 -0.976465 0.21561 
-0.0241167 0.503763 0.17976 -0.956582 0.289363 -0.0349141 
-0.339461 0.153351 0.0956392 -0.98927 -0.104125 -0.102483 
-0.0805516 -0.083247 -0.146874 -0.319825 0.259921 -0.911127 
-0.0747044 -0.384622 -0.220968 -0.069295 -0.917228 -0.392289 
0.111886 -0.442923 -0.085173 0.0472781 -0.977613 -0.205032 
-0.0585517 -0.261487 -0.21757 -0.101264 0.411229 -0.90589 
-0.302359 0.215739 0.172454 0.463928 -0.519397 0.717634 
0.155206 0.200503 -0.0398407 0.791546 0.117192 -0.599768 
-0.233421 0.089052 0.0679671 0.617722 -0.109707 0.778707 
-0.0105426 -0.271261 0.031204 -0.110616 0.0320701 0.993346 
0.0542152 -0.447443 -0.0488886 -0.00819666 -0.999411 0.0333204 
-0.0938888 -0.197577 0.0387257 0.233491 -0.0259376 0.972013 
0.105349 0.215051 0.0195866 -0.852326 1.0438e-16 0.52301 
-0.0578842 0.228137 0.052429 -0.291619 0.24859 -0.923667 
0.114918 -0.0477294 0.0231629 0.207237 0.144536 0.967555 
0.303275 -0.173052 0.00191902 0.627968 -0.22959 0.743602 
-0.118459 -0.220187 0.0444973 0.250667 -0.00807517 0.96804 
-0.152756 0.00762215 -0.0779803 -0.35442 0.40357 -0.843515 
-0.325067 0.298212 0.150593 -0.573733 0.693927 -0.43508 
-0.070902 -0.324793 0.0357297 0.222999 -0.00282742 0.974814 
0.367833 0.100461 0.0645005 0.742633 0.0228555 0.669309 
-0.186145 -0.133972 -0.120082 -0.411544 0.308507 -0.857587 
-0.261161 -0.128846 -0.071651 -0.654506 0.207675 -0.726975 
0.311077 -0.0658783 -0.0678118 0.162105 0.266224 -0.950182 
-0.349307 0.273511 0.161257 -0.878252 0.428335 -0.212611 
-0.221037 0.0716782 0.0504753 0.52996 -0.0912376 0.8431 
0.228444 0.224627 0.060288 0.862529 0.111515 -0.493567 
0.179064 0.328225 0.14831 -0.611318 -0.314174 0.72635 
-0.320663 0.0566694 0.0529362 -0.982961 -0.168656 -0.0730987 
-0.00437498 0.323899 0.0160104 -0.7454 0.351028 -0.566709 
-0.242958 -0.373237 -0.0871051 -0.934189 -0.26506 0.23882 
0.114624 0.0566158 -0.119468 0.600716 0.186589 -0.777383 
0.171783 0.316035 0.032308 0.419936 0.479695 -0.77042 
-0.0692861 -0.203168 -0.188969 -0.285096 0.424281 -0.85948 
0.332951 -0.0387746 0.0467509 0.394421 -0.358903 0.845944 
0.0461924 0.540842 0.175468 0.630983 0.761299 0.149275 
0.183702 0.360698 0.173743 -0.52237 -0.469884 0.711575 
0.00354444 0.164369 0.0765786 0.371197 -0.579621 0.725432 
-0.276618 0.131366 0.00679629 -0.440656 0.236361 -0.866 
0.240107 0.057496 0.0108873 -0.221987 0.262108 -0.93916 
0.0983318 0.183621 -0.000839994 -0.578336 7.08258e-17 0.815799 
-0.144882 -0.230429 0.0509242 0.2093 -0.0210148 0.977626 
0.156038 0.422374 0.165127 -0.960489 0.0788844 0.266904 
-0.0891264 0.219999 0.0480407 0.253322 0.390718 -0.884967 
-0.0496405 -0.40951 -0.153932 -0.0503194 -0.949016 -0.311186 
0.299275 -0.201983 -0.0032488 0.719419 -0.241018 0.651419 
-0.132752 -0.329978 -0.236026 -0.294484 0.370358 -0.880973 
-0.283854 0.139376 0.116008 0.54788 -0.385278 0.742555 
0.0196751 -0.0718848 0.0254249 -0.0702496 -8.60309e-18 0.997529 
-0.154779 0.353621 0.091815 0.458885 0.447929 -0.767323 
-0.11855 0.095901 0.0762207 -0.315264 -0.542046 0.77897 
0.265959 -0.0532759 0.046624 -0.152252 -0.398584 0.904406 
0.233907 -0.253927 -0.144711 0.533972 -0.271476 -0.800734 
-0.329369 0.102266 0.0659065 -0.979966 -0.146 -0.135466 
0.0601757 0.275742 0.0733262 0.614635 -0.406434 0.676044 
0.238908 0.455014 0.18069 0.807452 0.589628 -0.0190084 
-0.265032 0.214452 0.128068 0.789703 -0.274656 0.548573 
-0.302112 -0.143763 0.0102487 -0.978701 -0.17703 0.103948 
0.250432 0.407594 0.156254 0.965743 0.15999 -0.204314 
0.288214 -0.244772 -0.0113076 0.801234 -0.341456 0.491357 
-0.137876 0.230402 0.129997 -0.55697 -0.37215 0.742488 
-0.085642 -0.427536 -0.0988394 -0.0162353 -0.939816 -0.341295 
-0.139842 0.265692 0.147834 -0.494447 -0.395931 0.773796 
-0.285751 -0.241938 -0.018268 -0.969903 -0.201178 0.137172 
-0.0583653 0.163883 0.0340571 -0.0335607 0.602156 -0.797673 
-0.285122 0.154568 0.0218659 -0.518366 0.411818 -0.749468 
-0.144904 -0.0546195 -0.110462 -0.362626 0.365361 -0.85733 
0.146118 0.197822 0.0877975 -0.699081 -8.56128e-17 0.715042 
0.175719 -0.279341 0.0588298 0.166087 -0.230423 0.958812 
-0.0600548 -0.289525 -0.230503 -0.0435162 0.403816 -0.913805 
0.171033 -0.334053 -0.163643 0.640034 -0.23807 -0.730533 
0.356883 0.0320724 0.0616199 0.564072 -0.200638 0.800979 
-0.165028 -0.129239 0.0603925 0.179608 -0.0642221 0.98164 
0.316742 0.11067 0.0809322 0.0554756 0.0730297 0.995786 
-0.248074 -0.352814 -0.0692998 -0.904781 -0.419348 0.0742896 
0.0250582 -0.234159 -0.208096 0.0550397 0.271297 -0.960921 
-0.304124 0.19623 0.0604587 -0.546976 0.429722 -0.71844 
-0.155919 0.190122 -0.000149506 0.250646 0.423257 -0.870649 
0.196469 0.0178373 -0.0117236 0.708072 0.193289 -0.679171 
0.252938 0.0807477 0.0143276 -0.357129 0.345527 -0.867796 
0.0706166 0.453829 0.134762 0.974422 -0.11479 0.193195 
-0.194684 0.42733 0.190212 -0.839447 -0.120196 0.529982 
0.00838723 0.00578505 0.0375007 0.108805 -0.233719 0.966197 
-0.0789807 -0.0986766 0.0397801 0.310569 -0.0127688 0.950465 
-0.0691437 -0.162912 0.0339499 0.223466 -0.0353144 0.974072 
-0.27691 0.0817006 0.090478 0.334286 -0.127495 0.933808 
0.169776 0.289444 0.0140669 0.507936 0.469634 -0.722111 
-0.00897424 0.53556 0.188796 -0.706138 0.64754 0.286463 
0.194193 0.0433569 -0.000105111 0.53522 0.347213 -0.770054 
0.295671 0.13533 0.0254242 -0.232707 0.694887 -0.680426 
0.128541 0.134081 0.0616124 -0.833794 -1.0211e-16 0.552076 
0.221677 -0.071716 0.031452 -0.405769 -0.2392 0.882119 
0.113019 0.241895 0.0391114 -0.807007 9.88299e-17 0.590542 
0.220876 0.186608 0.0478423 0.737263 -0.00967209 -0.675536 
-0.0494947 -0.443486 -0.020928 0.0867182 -0.965668 0.244877 
0.00806734 -0.416006 -0.143562 -0.0712266 -0.961116 -0.266801 
-0.15448 0.165533 -0.0110628 0.179533 0.399312 -0.899065 
-0.0634249 -0.316251 -0.241837 0.00914354 0.383329 -0.923567 
-0.0561647 -0.377862 -0.239249 -0.103651 -0.786243 -0.609162 
-0.134043 -0.111916 0.0551735 0.218646 -0.037233 0.975094 
0.206916 -0.388043 -0.0556145 0.770577 -0.637194 0.0139604 
-8.25774e-05 0.388409 0.0485863 -0.670398 0.436539 -0.6 
-0.0392603 0.0575457 -0.112342 -0.493074 0.456452 -0.740628 
0.34924 0.00657331 0.0581326 0.488924 -0.317537 0.81248 
0.197268 -0.220696 0.0605029 0.295502 0.124588 0.947183 
0.0199542 0.342406 0.144584 0.528345 -0.296976 0.795398 
-0.030051 0.470504 0.162587 -0.930078 0.227907 -0.288119 
0.19615 -0.0187561 -0.0248178 0.763374 0.591924 -0.258622 
-0.0391205 0.380663 0.112619 -0.793589 0.428064 -0.43241 
-0.16854 -0.40557 -0.15146 0.00913292 -0.955234 -0.29571 
0.224089 -0.365126 -0.0420518 0.780236 -0.619183 0.0885681 
-0.219355 -0.120559 -0.0972521 -0.484372 0.261085 -0.834996 
-0.335063 0.128408 0.0792508 -0.984878 -0.115743 -0.128914 
0.0687587 -0.425372 -0.129217 -0.123674 -0.948773 -0.290748 
0.14087 -0.436251 -0.0973729 0.29217 -0.93554 -0.1985 
-0.192693 -0.134131 0.0648102 0.149166 -0.0878304 0.984904 
0.139226 0.164406 -0.0625021 0.778671 -0.0278517 -0.626814 
-0.20583 -0.0724818 -0.0915876 -0.426141 0.261005 -0.866187 
-0.21952 -0.0424429 -0.0741789 -0.464195 0.365091 -0.806989 
-0.267882 -0.307612 -0.0396087 -0.910429 -0.397996 0.112777 
0.291582 0.0709315 0.0832194 0.0894133 -1.095e-17 0.995995 
-0.190648 0.178626 0.075135 -0.290075 -0.235242 0.927641 
0.365849 0.0723142 0.0619151 0.688461 -0.131961 0.713167 
0.307006 -0.0927961 -0.0765415 0.305095 0.256651 -0.917086 
0.0422706 0.139498 0.0314576 0.865706 -0.270089 0.421433 
0.211242 0.471071 0.190976 0.178417 0.929225 0.323586 
-0.314657 0.0281146 0.0441456 -0.978552 -0.174323 -0.109763 
0.120152 0.266747 0.0601483 -0.692685 -0.338271 0.636993 
0.279725 -0.26963 -0.0167296 0.827247 -0.410583 0.383514 
0.184494 0.468784 0.19133 -0.346243 0.834454 0.428722 
-0.0494222 -0.135832 0.030301 0.206182 -0.00570482 0.978497 
-0.0922298 -0.349676 -0.25186 -0.0908922 -1.11311e-17 -0.995861 
-0.0764657 -0.396174 -0.188238 -0.0475001 -0.947123 -0.317336 
-0.0844421 -0.405754 -0.160105 -0.0330534 -0.942446 -0.33272 
0.241032 -0.101958 -0.107991 0.605438 0.470206 -0.642146 
0.215593 0.159129 0.0428713 0.646812 0.0557258 -0.760611 
-0.19072 0.0592591 0.0444275 0.0581011 0.0489731 0.997109 
0.0497284 0.194013 0.0582752 0.798773 -0.204554 0.565791 
0.294772 -0.154765 -0.104655 0.583805 0.305573 -0.752195 
-0.041954 -0.233215 -0.207352 -0.104764 0.363402 -0.925723 
0.0483978 0.123349 0.0103354 0.887396 0.0849126 0.453121 
-0.0131964 -0.0201618 0.0347233 0.131305 -0.199711 0.971017 
-0.210111 -0.392796 -0.183387 -0.290164 -0.835935 -0.465852 
0.352676 0.138383 0.060757 0.615937 0.718717 0.322596 
0.0319147 -0.195491 -0.19758 0.0194507 0.268742 -0.963016 
-0.191136 -0.410955 -0.134416 -0.00261209 -0.923705 -0.383095 
-0.281501 0.113235 0.0989366 0.478281 -0.331375 0.813289 
-0.0107705 0.240946 -0.0260802 -0.913377 0.160745 -0.374036 
0.0858355 -0.0583064 0.0280392 0.0319303 0.164031 0.985938 
0.320772 -0.0118228 -0.0508771 -0.078924 0.373618 -0.924219 
