ply
format ascii 1.0
comment VCGLIB generated
element vertex 390
property float x
property float y
property float z
element face 0
property list uchar int vertex_indices
end_header
-0.038719 -0.11796 -0.167705 
-0.222403 -0.42019 -0.0950214 
0.0684302 0.427175 0.128428 
0.0195103 0.0315099 0.0419279 
0.0708475 0.114571 -0.00700418 
0.0227763 0.439824 0.191612 
0.0532167 0.221951 0.0628877 
0.186519 0.429188 0.122297 
-0.0400008 0.0338036 -0.124586 
-0.0434101 -0.0905487 -0.160342 
0.249699 0.374932 0.141455 
0.320938 0.0464882 -0.0251161 
-0.227456 -0.133754 0.0680998 
-0.195763 -0.101628 -0.105193 
0.12451 0.0830816 -0.103587 
0.237443 0.295493 0.102845 
0.0938955 0.0147054 -0.138842 
-0.0987951 0.299771 0.0931293 
-0.134445 0.193529 0.117722 
-0.125628 0.124079 0.094161 
-0.160366 -0.226567 -0.172388 
0.120318 -0.104561 0.0439942 
-0.0895901 0.24997 0.0638938 
0.28653 -0.00415553 0.0749264 
0.0220801 -0.291955 -0.227795 
-0.00976563 0.290436 -0.00133555 
-0.100712 -0.136456 -0.150594 
-0.344803 0.180286 0.110736 
0.0792572 -0.0149352 -0.14662 
0.164357 0.252526 -0.0122506 
-0.153725 0.117566 -0.0295003 
0.273515 0.111127 0.0179773 
-0.107842 -0.354958 0.0390533 
0.161444 -0.310992 0.0527697 
0.146701 0.379482 0.131434 
0.265448 -0.212109 -0.133724 
-0.0196966 -0.307969 -0.238232 
-0.0880313 -0.448138 -0.0208982 
0.315475 -0.0404652 -0.0601975 
0.125959 -0.420921 -0.150659 
-0.258528 0.184536 0.106598 
-0.278032 -0.275409 -0.0266147 
-0.0309655 -0.278805 -0.226322 
0.341528 0.112207 0.0089622 
-0.0449617 -0.0185857 -0.140114 
-0.354897 0.238939 0.143961 
-0.194833 0.257075 0.104758 
-0.158402 0.462018 0.157226 
0.193586 0.068442 0.0096284 
-0.0318967 0.439892 0.147571 
-0.128696 0.158055 0.11028 
-0.293822 0.174253 0.0398732 
0.0286277 0.0638045 0.0432133 
-0.112164 -0.377662 -0.234691 
-0.158301 0.219091 0.0139494 
0.0646667 0.396768 0.122427 
-0.270492 0.0497009 0.0852419 
0.242878 -0.338884 -0.0299374 
-0.0267028 0.155793 -0.0612589 
-0.306026 -0.0292322 0.0296641 
0.174596 0.339149 0.0482757 
0.0366516 -0.142711 -0.181934 
0.13068 0.299739 0.0817985 
-0.258723 0.0689062 -0.0155004 
0.211283 -0.188763 0.0460332 
0.317914 -0.0752804 0.0381017 
0.149544 -0.0450401 0.0125597 
0.154242 -0.0860097 -0.163396 
0.260301 -0.309208 -0.0230163 
-0.21944 -0.252694 0.0507438 
0.0808279 -0.395651 -0.207569 
0.0656868 0.361419 0.115686 
-0.294578 0.177486 0.138474 
-0.210676 -0.427478 -0.0705177 
-0.307364 -0.0649679 0.0262319 
-0.0219492 -0.378555 -0.239661 
0.107041 -0.406377 -0.182734 
0.0202499 0.54956 0.164076 
-0.185223 0.461541 0.200541 
-0.00326705 0.353879 0.0304957 
-0.193715 0.22912 0.0914614 
-0.142856 -0.44526 -0.0269143 
0.150598 0.402066 0.148853 
0.325352 0.0743384 -0.0104401 
-0.0514352 0.301874 0.0676332 
-0.304831 0.238924 0.187486 
-0.221084 -0.414333 -0.121305 
-0.0879354 0.174168 0.0283811 
-0.0465527 0.335514 0.0839606 
-0.321686 0.246842 0.10187 
-0.0430236 -0.170547 -0.183322 
-0.156316 0.377685 0.104442 
-0.140495 0.296767 0.16118 
0.111176 0.103949 0.0446686 
0.0246523 -0.383887 -0.231616 
-0.142616 0.330055 0.171988 
-0.184007 -0.242764 0.05544 
-0.159895 0.424588 0.130839 
-0.184436 -0.384132 -0.207884 
0.110669 -0.349152 0.0453666 
0.165808 0.25474 0.110109 
-0.1516 0.484395 0.198067 
0.22583 0.00922818 0.00447406 
0.175503 0.304104 0.137816 
0.0534441 -0.0651675 0.0284323 
0.156271 0.225306 0.0945565 
-0.0455051 -0.048846 -0.148036 
-0.153492 0.308428 0.0627892 
-0.323528 0.303855 0.176664 
0.30018 -0.129903 -0.0908874 
0.0210256 0.368306 0.152034 
-0.252345 0.156535 0.0896727 
-0.0455365 -0.317146 0.0300998 
-0.0906769 -0.440457 -0.0627861 
0.238627 0.327748 0.1198 
-0.243567 0.124494 0.0748471 
-0.00931472 -0.308807 0.032554 
0.215586 -0.087259 -0.127422 
-0.194029 0.370093 0.161071 
-0.0589643 0.1954 0.0451384 
-0.290048 -0.212522 -0.00984907 
0.0388365 -0.419779 -0.138281 
-0.167578 -0.203173 -0.157934 
-0.0587438 -0.0715864 0.0341495 
0.0095739 0.260948 0.106546 
0.0156631 0.517751 0.131295 
-0.257325 -0.332796 -0.0542651 
-0.0344749 0.412033 0.131193 
-0.0049073 -0.240709 0.0306664 
-0.106157 0.391097 0.141856 
0.181035 0.406533 0.0978835 
-0.0416337 0.00786142 -0.133887 
0.100272 -0.433494 -0.117204 
0.0681063 0.507778 0.159545 
0.0522537 -0.107947 -0.173887 
0.205853 0.123723 0.0323308 
0.311449 -0.106015 0.0242642 
0.191282 -0.0898844 0.0128708 
0.283199 -0.0324758 0.0613682 
-0.189005 0.142827 0.0657113 
-0.149456 0.425035 0.22205 
-0.102468 0.323168 0.106316 
-0.105606 0.361803 0.126817 
-0.0118408 0.265262 -0.014771 
0.320906 0.0159081 -0.0381154 
-0.313838 0.218144 0.0809233 
0.32203 0.148416 0.0428225 
-0.150701 0.0831682 -0.0427196 
0.179357 0.378965 0.0794 
0.0580193 -0.0818446 -0.170232 
0.191365 -0.0836112 -0.146697 
0.160685 0.227608 -0.0251998 
0.2836 -0.189056 -0.122765 
0.190899 -0.405668 -0.0685081 
0.20186 0.439029 0.208171 
0.0113237 -0.192064 0.0304156 
0.216665 -0.285792 -0.143293 
-0.144214 -0.399744 -0.170482 
0.0344387 -0.159024 0.035512 
0.155136 -0.355423 -0.170283 
-0.00417778 0.135857 0.0585722 
-0.194174 0.30188 0.125569 
-0.152553 -0.379828 -0.22509 
-0.170972 -0.4406 -0.0370423 
-0.273587 0.258384 0.163992 
-0.187007 0.115032 0.0538265 
0.197025 0.461839 0.155622 
-0.220993 -0.399181 -0.159559 
0.289321 0.029258 0.0827001 
0.0685238 -0.133698 0.0440287 
0.161035 -0.0908466 0.0294332 
0.0260431 0.470108 0.206071 
-0.351292 0.208258 0.126242 
-0.110597 -0.40301 -0.164822 
0.0278748 0.522898 0.20668 
0.0159341 0.306325 0.128277 
-0.108716 0.419279 0.158258 
-0.0816087 -0.414953 -0.13443 
0.0814112 -0.367683 0.0369905 
0.123172 -0.0882749 -0.164519 
0.0262846 -0.39338 0.0192566 
0.015172 -0.332451 -0.244657 
-0.153036 -0.0258425 -0.0938839 
-0.121786 0.47152 0.187027 
0.361103 0.125715 0.0342245 
0.0555365 -0.380572 0.0286259 
-0.267495 0.0997782 -0.00329653 
-0.155196 0.266545 0.0405618 
0.0646944 0.327594 0.100706 
0.190138 0.389825 0.194086 
-0.176833 -0.16679 -0.137597 
0.084203 -0.447337 -0.0633719 
-0.192761 0.326732 0.138088 
0.0106916 0.472465 0.0972707 
-0.0885939 -0.169797 -0.162777 
-0.288334 0.29132 0.181114 
0.139013 0.32698 0.0972976 
-0.152561 -0.257834 -0.1903 
-0.145053 0.358279 0.188144 
-0.0223161 -0.412515 -0.148923 
-0.019788 0.183626 -0.0521356 
-0.149848 0.0476943 -0.0599576 
0.0631413 0.303377 0.0877773 
-0.325189 0.269833 0.124831 
0.0355029 -0.169835 -0.189796 
0.196175 0.0916607 0.0225211 
0.0202583 0.417897 0.176684 
-0.308375 -0.00279794 0.034648 
-0.0256419 -0.102056 0.0255482 
0.123862 0.135057 -0.0799863 
-0.232137 -0.0262252 -0.0568511 
0.192238 -0.31427 -0.151032 
-0.142655 -0.295132 -0.213279 
0.0632274 -0.0520802 -0.160965 
0.234277 0.261713 0.0814466 
-0.0137356 0.208217 -0.0421216 
0.307349 -0.13777 0.0114993 
0.00817824 0.211828 0.0963196 
0.0449548 0.0921559 0.0366792 
-0.313189 0.268259 0.196082 
0.0465019 0.168265 0.0500111 
-0.156265 -0.11164 -0.125992 
-0.0348201 0.0899351 -0.092979 
-0.295815 -0.182814 -0.000968719 
-0.0557243 0.265098 0.058687 
-0.244675 -0.392609 -0.118522 
0.0233629 -0.262541 -0.216966 
0.0031369 0.422875 0.0719139 
0.0875357 0.148339 -0.00554617 
-0.306679 -0.107312 0.0196498 
-0.118665 -0.105992 -0.13973 
0.164364 -0.426031 -0.0881423 
0.0545734 -0.388573 -0.221546 
-0.0336042 -0.0414254 0.0337107 
0.135435 0.164789 0.0772763 
-0.147847 0.388911 0.206259 
-0.241208 0.0188454 -0.0280542 
-0.00265929 -0.0719362 -0.158851 
-0.195245 0.396725 0.174922 
0.00408549 -0.445919 -0.0328708 
-0.0241167 0.503763 0.17976 
-0.339461 0.153351 0.0956392 
-0.0805516 -0.083247 -0.146874 
-0.0747044 -0.384622 -0.220968 
0.111886 -0.442923 -0.085173 
-0.0585517 -0.261487 -0.21757 
-0.302359 0.215739 0.172454 
0.155206 0.200503 -0.0398407 
-0.233421 0.089052 0.0679671 
-0.0105426 -0.271261 0.031204 
0.0542152 -0.447443 -0.0488886 
-0.0938888 -0.197577 0.0387257 
0.105349 0.215051 0.0195866 
-0.0578842 0.228137 0.052429 
0.114918 -0.0477294 0.0231629 
0.303275 -0.173052 0.00191902 
-0.118459 -0.220187 0.0444973 
-0.152756 0.00762215 -0.0779803 
-0.325067 0.298212 0.150593 
-0.070902 -0.324793 0.0357297 
0.367833 0.100461 0.0645005 
-0.186145 -0.133972 -0.120082 
-0.261161 -0.128846 -0.071651 
0.311077 -0.0658783 -0.0678118 
-0.349307 0.273511 0.161257 
-0.221037 0.0716782 0.0504753 
0.228444 0.224627 0.060288 
0.179064 0.328225 0.14831 
-0.320663 0.0566694 0.0529362 
-0.00437498 0.323899 0.0160104 
-0.242958 -0.373237 -0.0871051 
0.114624 0.0566158 -0.119468 
0.171783 0.316035 0.032308 
-0.0692861 -0.203168 -0.188969 
0.332951 -0.0387746 0.0467509 
0.0461924 0.540842 0.175468 
0.183702 0.360698 0.173743 
0.00354444 0.164369 0.0765786 
-0.276618 0.131366 0.00679629 
0.240107 0.057496 0.0108873 
0.0983318 0.183621 -0.000839994 
-0.144882 -0.230429 0.0509242 
0.156038 0.422374 0.165127 
-0.0891264 0.219999 0.0480407 
-0.0496405 -0.40951 -0.153932 
0.299275 -0.201983 -0.0032488 
-0.132752 -0.329978 -0.236026 
-0.283854 0.139376 0.116008 
0.0196751 -0.0718848 0.0254249 
-0.154779 0.353621 0.091815 
-0.11855 0.095901 0.0762207 
0.265959 -0.0532759 0.046624 
0.233907 -0.253927 -0.144711 
-0.329369 0.102266 0.0659065 
0.0601757 0.275742 0.0733262 
0.238908 0.455014 0.18069 
-0.265032 0.214452 0.128068 
-0.302112 -0.143763 0.0102487 
0.250432 0.407594 0.156254 
0.288214 -0.244772 -0.0113076 
-0.137876 0.230402 0.129997 
-0.085642 -0.427536 -0.0988394 
-0.139842 0.265692 0.147834 
-0.285751 -0.241938 -0.018268 
-0.0583653 0.163883 0.0340571 
-0.285122 0.154568 0.0218659 
-0.144904 -0.0546195 -0.110462 
0.146118 0.197822 0.0877975 
0.175719 -0.279341 0.0588298 
-0.0600548 -0.289525 -0.230503 
0.171033 -0.334053 -0.163643 
0.356883 0.0320724 0.0616199 
-0.165028 -0.129239 0.0603925 
0.316742 0.11067 0.0809322 
-0.248074 -0.352814 -0.0692998 
0.0250582 -0.234159 -0.208096 
-0.304124 0.19623 0.0604587 
-0.155919 0.190122 -0.000149506 
0.196469 0.0178373 -0.0117236 
0.252938 0.0807477 0.0143276 
0.0706166 0.453829 0.134762 
-0.194684 0.42733 0.190212 
0.00838723 0.00578505 0.0375007 
-0.0789807 -0.0986766 0.0397801 
-0.0691437 -0.162912 0.0339499 
-0.27691 0.0817006 0.090478 
0.169776 0.289444 0.0140669 
-0.00897424 0.53556 0.188796 
0.194193 0.0433569 -0.000105111 
0.295671 0.13533 0.0254242 
0.128541 0.134081 0.0616124 
0.221677 -0.071716 0.031452 
0.113019 0.241895 0.0391114 
0.220876 0.186608 0.0478423 
-0.0494947 -0.443486 -0.020928 
0.00806734 -0.416006 -0.143562 
-0.15448 0.165533 -0.0110628 
-0.0634249 -0.316251 -0.241837 
-0.0561647 -0.377862 -0.239249 
-0.134043 -0.111916 0.0551735 
0.206916 -0.388043 -0.0556145 
-8.25774e-05 0.388409 0.0485863 
-0.0392603 0.0575457 -0.112342 
0.34924 0.00657331 0.0581326 
0.197268 -0.220696 0.0605029 
0.0199542 0.342406 0.144584 
-0.030051 0.470504 0.162587 
0.19615 -0.0187561 -0.0248178 
-0.0391205 0.380663 0.112619 
-0.16854 -0.40557 -0.15146 
0.224089 -0.365126 -0.0420518 
-0.219355 -0.120559 -0.0972521 
-0.335063 0.128408 0.0792508 
0.0687587 -0.425372 -0.129217 
0.14087 -0.436251 -0.0973729 
-0.192693 -0.134131 0.0648102 
0.139226 0.164406 -0.0625021 
-0.20583 -0.0724818 -0.0915876 
-0.21952 -0.0424429 -0.0741789 
-0.267882 -0.307612 -0.0396087 
0.291582 0.0709315 0.0832194 
-0.190648 0.178626 0.075135 
0.365849 0.0723142 0.0619151 
0.307006 -0.0927961 -0.0765415 
0.0422706 0.139498 0.0314576 
0.211242 0.471071 0.190976 
-0.314657 0.0281146 0.0441456 
0.120152 0.266747 0.0601483 
0.279725 -0.26963 -0.0167296 
0.184494 0.468784 0.19133 
-0.0494222 -0.135832 0.030301 
-0.0922298 -0.349676 -0.25186 
-0.0764657 -0.396174 -0.188238 
-0.0844421 -0.405754 -0.160105 
0.241032 -0.101958 -0.107991 
0.215593 0.159129 0.0428713 
-0.19072 0.0592591 0.0444275 
0.0497284 0.194013 0.0582752 
0.294772 -0.154765 -0.104655 
-0.041954 -0.233215 -0.207352 
0.0483978 0.123349 0.0103354 
-0.0131964 -0.0201618 0.0347233 
-0.210111 -0.392796 -0.183387 
0.352676 0.138383 0.060757 
0.0319147 -0.195491 -0.19758 
-0.191136 -0.410955 -0.134416 
-0.281501 0.113235 0.0989366 
-0.0107705 0.240946 -0.0260802 
0.0858355 -0.0583064 0.0280392 
0.320772 -0.0118228 -0.0508771 
