ply
format ascii 1.0
element vertex 615
property float x
property float y
property float z
property float nx
property float ny
property float nz
element face 0
property list uchar int vertex_index
end_header
-0.006369 0.460308 -0.316504 -0.0831814 0.964888 -0.249144
-0.011684 0.451671 -0.335961 -0.106771 0.465989 -0.878325
-0.015161 0.440969 -0.346939 -0.251572 0.0945422 -0.96321
-0.017675 0.429936 -0.350241 -0.3167 -0.342893 -0.884379
-0.018141 0.416283 -0.348157 -0.273322 -0.629583 -0.727269
-0.015642 0.408034 -0.33412 -0.217493 -0.781873 -0.58427
-0.008427 0.390989 -0.277514 -0.147253 -0.974929 -0.166823
-0.006203 0.400591 -0.28521 -0.109878 -0.966766 -0.230848
-0.005222 0.396669 -0.254697 -0.155882 -0.972654 -0.172175
-0.010291 0.376127 -0.215511 -0.233861 -0.90372 -0.358606
-0.011227 0.337512 -0.168687 -0.198496 -0.618202 -0.760543
-0.011665 0.310449 -0.144801 -0.151035 -0.466487 -0.871538
-0.008997 0.271806 -0.124082 -0.161288 -0.25859 -0.952427
-0.006997 0.239901 -0.111792 -0.0693484 -0.0477901 -0.996447
-0.001121 0.186244 -0.10649 -0.0275197 0.0476539 -0.998485
0.001918 0.156172 -0.110922 0.058094 0.0639935 -0.996258
-0.007589 0.175128 -0.105222 -0.0938772 0.0553137 -0.994046
-0.012045 0.089447 -0.124294 -0.157517 0.052544 -0.986117
-0.013327 0.049782 -0.128561 -0.0966486 -0.107702 -0.989474
-0.012768 0.014372 -0.127924 -0.100231 -0.243862 -0.964617
-0.013775 -0.033009 -0.117618 -0.120723 -0.360464 -0.924928
-0.011641 -0.069535 -0.099101 -0.168299 -0.482176 -0.859757
-0.010936 -0.093902 -0.079221 -0.160597 -0.59398 -0.788287
-0.013661 -0.106611 -0.055806 -0.156711 -0.689812 -0.706824
-0.013846 -0.125082 -0.006093 -0.549532 -0.466961 -0.692793
-0.002089 -0.090016 0.087647 -0.0346138 0.243101 0.969383
-0.005629 -0.127047 0.093337 -0.123598 0.513373 0.849218
-0.005343 -0.145709 0.101157 -0.0697851 0.730579 0.679253
-0.005112 -0.159887 0.111408 -0.0854983 0.848879 0.521626
-0.004232 -0.17134 0.125062 -0.0510273 0.891329 0.450477
-0.004435 -0.183178 0.147728 -0.0337459 0.943022 0.331014
-0.001154 -0.192069 0.186581 -0.0150388 0.945477 0.32534
-0.003869 -0.257947 0.186656 -0.0123227 -0.999873 -0.0100776
-0.00475 -0.255763 0.228482 -0.00506921 -0.999113 0.0417945
-0.005699 -0.257184 0.269102 -0.0365913 -0.763753 0.644471
-0.00238 0.459818 -0.313753 0.0635504 0.978515 -0.196136
-0.002946 0.458471 -0.286827 0.0126673 0.991886 0.126498
0.001273 0.442004 -0.21091 0.0216037 0.957975 0.286038
-0.003784 0.419747 -0.148294 -0.0784038 0.906686 0.414456
-0.009062 0.402964 -0.113956 -0.207071 0.829037 0.519441
-0.014171 0.373372 -0.068307 -0.220268 0.793651 0.567097
-0.014685 0.359604 -0.055494 -0.193936 0.805203 0.56039
-0.011671 0.342699 -0.051523 -0.18946 0.804304 0.563206
-0.004063 0.346903 -0.041726 -0.023312 0.801347 0.597745
-0.008523 0.336921 -0.024201 -0.104228 0.778446 0.618998
-0.009742 0.320786 -0.000888 -0.133515 0.772853 0.62038
-0.011092 0.279083 0.038738 -0.0930124 0.598548 0.795669
-0.01131 0.242817 0.061491 -0.112456 0.466658 0.877259
-0.008809 0.201259 0.078675 -0.0616011 0.235181 0.969998
-0.006099 0.16419 0.085946 -0.0344988 0.12232 0.991891
-0.002644 0.138857 0.086661 -0.0121306 0.055156 0.998404
0.005704 0.049803 0.071112 0.0458897 -0.120164 0.991693
0.00429 -0.015733 0.06273 0.0239442 -0.0512259 0.9984
0.003627 -0.041292 0.065832 0.073578 0.0207625 0.997073
-0.004349 -0.081422 0.085888 -0.0631559 0.186787 0.980368
-0.000101 -0.260332 0.180117 -0.00767479 -0.999967 -0.0025647
-0.004447 -0.254593 0.116614 -0.0163726 -0.999759 -0.0146374
-0.003023 -0.249512 0.017945 -0.00988125 -0.998489 0.0540521
-0.005149 -0.251082 -0.027258 0.00329662 -0.997672 0.0681122
-0.007753 -0.260519 -0.09259 0.0238709 -0.847785 -0.529802
-0.006969 -0.182109 -0.081326 -0.0243325 0.835018 -0.549684
-0.002215 -0.177171 -0.041016 -0.00462366 0.921318 -0.388782
-0.000857 -0.160393 -0.009595 -0.0251563 0.854075 -0.519542
7.9e-05 -0.147295 -0.003159 -0.0115142 0.605966 -0.795407
-0.000311 -0.135919 -0.004036 0.0441081 -0.244554 -0.968632
-0.00083 -0.124319 -0.012211 0.0140966 -0.719891 -0.693944
-0.004161 -0.116521 -0.027279 -0.0279736 -0.779258 -0.626079
-0.00227 -0.176272 -0.078526 -0.0117902 0.853604 -0.520788
-0.0061 -0.18811 -0.103103 -0.0169918 0.694773 -0.719029
-0.006735 -0.208333 -0.112346 -0.0263849 0.377519 -0.925626
-0.006508 -0.232464 -0.108983 -0.0396595 -0.186487 -0.981657
-0.001384 -0.261109 -0.092057 -0.00996847 -0.836663 -0.547628
-0.005896 0.077472 -0.116419 -0.0769236 0.0203686 -0.996829
-0.037508 0.074068 -0.10312 -0.517118 -0.0180889 -0.855723
-0.062066 0.073954 -0.076552 -0.729036 -0.0473457 -0.682836
-0.080239 0.076565 -0.038293 -0.886887 -0.0522436 -0.459024
-0.083591 0.080896 0.005729 -0.996244 0.0153283 0.0852277
-0.078586 0.083414 0.028302 -0.816208 -0.0119792 0.577634
-0.06647 0.084519 0.044746 -0.661679 -0.0410437 0.748663
-0.037459 0.081915 0.064248 -0.358851 -0.0891465 0.929128
0.015481 0.070674 0.092899 0.0929609 -0.100177 0.990617
0.007675 0.077472 -0.116419 0.188499 0.00506531 -0.98206
0.039286 0.074068 -0.10312 0.522316 -0.0362559 -0.851981
0.063845 0.073954 -0.076552 0.725947 -0.0666876 -0.68451
0.082017 0.076565 -0.038293 0.883045 -0.055304 -0.466018
0.08537 0.080896 0.005729 0.996053 0.00231758 0.0887271
0.080364 0.083414 0.028302 0.820177 -0.0154003 0.571902
0.068249 0.084519 0.044746 0.631022 -0.0520069 0.774019
0.039238 0.081915 0.064248 0.358107 -0.0802903 0.930222
-0.013703 0.070674 0.092899 -0.127569 -0.105693 0.986182
-0.011866 -0.198561 -0.113587 -0.0152218 0.587983 -0.80873
-0.052293 -0.210279 -0.115514 -0.176795 0.269362 -0.946672
-0.067571 -0.216455 -0.11175 -0.293043 0.144676 -0.94509
-0.08863 -0.222975 -0.096381 -0.714226 0.0229363 -0.699539
-0.105257 -0.226471 -0.072732 -0.950865 0.0484553 -0.305791
-0.112116 -0.226685 -0.051094 -0.992392 -0.0077413 -0.122872
-0.114665 -0.227672 -0.017895 -0.9689 -0.0107637 0.247218
-0.104144 -0.233137 0.086924 -0.953324 -0.283435 -0.104103
0.013645 -0.198561 -0.113587 -0.0421405 0.535253 -0.84364
0.054072 -0.210279 -0.115514 0.191134 0.246827 -0.950023
0.06935 -0.216455 -0.11175 0.294464 0.17734 -0.939064
0.090409 -0.222975 -0.096381 0.716787 0.0210719 -0.696973
0.107036 -0.226471 -0.072732 0.951876 0.0435347 -0.303376
0.113894 -0.226685 -0.051094 0.991708 -0.0017586 -0.128502
0.116444 -0.227672 -0.017895 0.971809 -0.0176559 0.235107
0.105922 -0.233137 0.086924 0.944276 -0.316915 -0.0889274
-0.103405 -0.2127 0.078479 -0.943443 0.31809 -0.0934576
-0.116732 -0.202243 0.173762 -0.884591 0.442758 -0.146508
-0.112327 -0.20028 0.198641 -0.826266 0.559712 0.0633035
-0.100475 -0.199276 0.223898 -0.586233 0.701732 0.404849
-0.08694 -0.200976 0.237925 -0.375166 0.681422 0.628422
-0.066402 -0.207582 0.249802 -0.19974 0.720862 0.663672
-0.024592 -0.225813 0.26309 -0.115576 0.500823 0.857799
0.001843 -0.239792 0.267823 -0.00783225 -0.281561 0.959511
0.105183 -0.2127 0.078479 0.94629 0.313152 -0.0804485
0.11851 -0.202243 0.173762 0.885026 0.437533 -0.159041
0.114106 -0.20028 0.198641 0.823878 0.565361 0.0398975
0.102253 -0.199276 0.223898 0.601024 0.687477 0.40761
0.088719 -0.200976 0.237925 0.382162 0.67379 0.632424
0.06818 -0.207582 0.249802 0.206442 0.716628 0.666203
0.026371 -0.225813 0.26309 0.131672 0.538743 0.832117
-6.4e-05 -0.239792 0.267823 -0.0185042 -0.291998 0.95624
-0.004972 -0.185599 0.17691 -0.0124972 0.956968 0.289923
-0.039122 -0.176569 0.175807 -0.0988124 0.970642 0.219295
-0.072862 -0.18056 0.175967 -0.360347 0.927512 0.0993566
-0.084574 -0.193809 0.174852 -0.588169 0.808483 0.0203227
-0.092813 -0.223231 0.176102 -0.987308 -0.0658291 -0.144533
0.006751 -0.185599 0.17691 -0.011032 0.957546 0.288071
0.0409 -0.176569 0.175807 0.0924408 0.965598 0.243054
0.074641 -0.18056 0.175967 0.369411 0.921802 0.117546
0.086352 -0.193809 0.174852 0.588844 0.807665 0.0306637
0.094592 -0.223231 0.176102 0.989238 -0.0327675 -0.1426
-0.003557 -0.163924 -0.034848 0.0184769 0.931566 -0.363101
-0.032706 -0.154327 -0.032733 -0.143846 0.94426 -0.296111
-0.059023 -0.158723 -0.031164 -0.4532 0.877814 -0.155089
-0.070945 -0.169482 -0.030435 -0.598435 0.798918 -0.0600531
-0.100004 -0.21539 -0.024976 -0.926957 0.340469 0.15758
0.005336 -0.163924 -0.034848 -0.0520773 0.929757 -0.364472
0.034485 -0.154327 -0.032733 0.172917 0.943974 -0.281093
0.060801 -0.158723 -0.031164 0.485085 0.863574 -0.137597
0.072724 -0.169482 -0.030435 0.607761 0.792402 -0.0522029
0.101782 -0.21539 -0.024976 0.927372 0.341841 0.152072
-0.066535 -0.206816 -0.10389 -0.323017 0.515818 -0.793468
-0.06828 -0.180747 -0.090513 -0.397471 0.753176 -0.524159
-0.068169 -0.16636 -0.076298 -0.345589 0.853693 -0.389584
-0.068207 -0.15451 -0.040698 -0.484155 0.861219 -0.154583
-0.070507 -0.152723 -0.016688 -0.673291 0.739376 0.0015226
-0.074131 -0.159097 0.04118 -0.868093 0.486383 0.099222
-0.073604 -0.167673 0.093987 -0.69409 0.715926 0.0754232
-0.07059 -0.176086 0.14327 -0.447485 0.888272 0.103589
-0.061387 -0.188853 0.197967 -0.123752 0.959652 0.252496
-0.059735 -0.198337 0.218997 -0.0979326 0.898726 0.427435
-0.062136 -0.208048 0.23324 -0.163792 0.80187 0.57461
-0.065557 -0.219523 0.241049 -0.28479 0.658376 0.696732
-0.07489 -0.230494 0.239049 -0.573365 -0.0275722 0.818836
0.068314 -0.206816 -0.10389 0.314192 0.48335 -0.817102
0.070058 -0.180747 -0.090513 0.400113 0.738012 -0.543368
0.069948 -0.16636 -0.076298 0.37004 0.835542 -0.406129
0.069985 -0.15451 -0.040698 0.497875 0.854584 -0.147668
0.072286 -0.152723 -0.016688 0.658788 0.752323 -0.00281837
0.07591 -0.159097 0.04118 0.866428 0.490057 0.0956388
0.075383 -0.167673 0.093987 0.695184 0.714583 0.0780388
0.072369 -0.176086 0.14327 0.480925 0.869117 0.11553
0.063166 -0.188853 0.197967 0.131887 0.956876 0.258833
0.061514 -0.198337 0.218997 0.097681 0.892625 0.44009
0.063915 -0.208048 0.23324 0.153802 0.813188 0.561312
0.067335 -0.219523 0.241049 0.286715 0.658205 0.696104
0.076668 -0.230494 0.239049 0.577859 -0.0497848 0.814617
-0.002928 -0.183917 0.180342 -0.00493938 0.962104 0.272636
0.000453 -0.191345 0.211497 -0.00835702 0.934317 0.356346
0.001262 -0.204717 0.240165 0.000244132 0.852237 0.523156
0.00168 -0.22998 0.26344 -0.000988497 0.582871 0.812564
-0.001067 -0.249659 0.274772 -0.0193411 -0.268669 0.963038
-0.003856 -0.25789 0.277108 -0.0297777 -0.700089 0.713435
-0.008987 -0.113929 -0.022953 -0.236988 -0.76883 -0.593916
-0.026619 -0.107433 -0.019454 -0.6392 -0.606752 -0.472521
-0.044272 -0.099153 -0.00636 -0.830223 -0.466124 -0.305709
-0.056539 -0.091447 0.00975 -0.930238 -0.358836 -0.0767706
-0.05953 -0.08579 0.025856 -0.931598 -0.331871 0.148279
-0.058388 -0.082757 0.035816 -0.920707 -0.284216 0.267431
-0.054602 -0.081027 0.045567 -0.867609 -0.229773 0.440976
-0.039868 -0.079584 0.064586 -0.65579 -0.0422031 0.753763
-0.025596 -0.081296 0.075007 -0.424176 0.0822327 0.901838
-0.001709 -0.087784 0.085861 -0.045885 0.212668 0.976047
0.010766 -0.113929 -0.022953 0.361349 -0.730134 -0.579941
0.028397 -0.107433 -0.019454 0.670184 -0.550778 -0.497491
0.046051 -0.099153 -0.00636 0.83273 -0.422472 -0.357879
0.058317 -0.091447 0.00975 0.914764 -0.367724 -0.16729
0.061309 -0.08579 0.025856 0.942525 -0.330043 0.0521372
0.060166 -0.082757 0.035816 0.92762 -0.290842 0.234376
0.05638 -0.081027 0.045567 0.864935 -0.219157 0.451505
0.041647 -0.079584 0.064586 0.6419 -0.0142625 0.766656
0.027375 -0.081296 0.075007 0.414072 0.110283 0.903539
0.003487 -0.087784 0.085861 0.112055 0.215424 0.97007
-0.04399 -0.098037 0.042529 -0.928554 -0.230613 0.290869
-0.035831 -0.105926 0.050272 -0.87589 -0.129594 0.464781
-0.031098 -0.117 0.056349 -0.866705 0.00255803 0.498815
-0.029565 -0.130778 0.061878 -0.858994 0.252157 0.445585
-0.033428 -0.143517 0.065154 -0.771102 0.55126 0.318614
-0.041631 -0.153751 0.065554 -0.808351 0.56771 0.155802
-0.052872 -0.159806 0.06332 -0.852669 0.513187 0.0979477
-0.056979 -0.160322 0.062161 -0.850083 0.521413 0.0740691
-0.067392 -0.154275 0.059835 -0.873682 0.481712 0.0680622
0.045769 -0.098037 0.042529 0.938679 -0.220576 0.265007
0.03761 -0.105926 0.050272 0.885944 -0.151547 0.438333
0.032877 -0.117 0.056349 0.869009 0.0183964 0.494455
0.031343 -0.130778 0.061878 0.886403 0.268553 0.377054
0.035206 -0.143517 0.065154 0.760934 0.576131 0.298418
0.043409 -0.153751 0.065554 0.812076 0.564456 0.148065
0.05465 -0.159806 0.06332 0.851615 0.516337 0.0902666
0.058757 -0.160322 0.062161 0.851732 0.517876 0.0797349
0.06917 -0.154275 0.059835 0.872485 0.483419 0.0712456
-0.002892 -0.147409 -0.007511 -0.126826 0.607663 -0.784003
-0.015741 -0.145578 -0.010415 -0.311083 0.616058 -0.723671
-0.026058 -0.143961 -0.008499 -0.520592 0.584707 -0.622175
-0.033659 -0.14301 -0.003672 -0.717466 0.528566 -0.453718
-0.041005 -0.14297 0.007437 -0.864664 0.44614 -0.230899
-0.045693 -0.143018 0.023684 -0.90414 0.418219 -0.0873127
-0.046839 -0.142221 0.042689 -0.922621 0.371801 0.102634
-0.04457 -0.140353 0.061999 -0.849307 0.492439 0.190213
-0.039176 -0.137651 0.072714 -0.738384 0.549079 0.391537
0.00467 -0.147409 -0.007511 0.0852961 0.630909 -0.771154
0.017519 -0.145578 -0.010415 0.280739 0.612357 -0.739057
0.027837 -0.143961 -0.008499 0.542346 0.558597 -0.62756
0.035438 -0.14301 -0.003672 0.748749 0.476805 -0.460469
0.042784 -0.14297 0.007437 0.858989 0.427327 -0.282009
0.047472 -0.143018 0.023684 0.908022 0.41156 -0.0781991
0.048618 -0.142221 0.042689 0.92782 0.361489 0.0920625
0.046349 -0.140353 0.061999 0.849754 0.495674 0.179513
0.040955 -0.137651 0.072714 0.740789 0.575133 0.347065
-0.039247 -0.138137 0.066002 -0.808203 0.498288 0.313875
-0.040149 -0.136102 0.071828 -0.780548 0.498995 0.376496
-0.038661 -0.135229 0.077278 -0.667911 0.582843 0.462806
-0.02889 -0.133958 0.091349 -0.443608 0.65851 0.607927
-0.011436 -0.135173 0.103232 -0.128471 0.681025 0.720903
0.005487 -0.139925 0.108904 0.00828377 0.743487 0.668699
0.041026 -0.138137 0.066002 0.810907 0.504516 0.296469
0.041928 -0.136102 0.071828 0.768664 0.512801 0.382348
0.04044 -0.135229 0.077278 0.687198 0.578323 0.439661
0.030669 -0.133958 0.091349 0.440704 0.679986 0.586003
0.013214 -0.135173 0.103232 0.0896071 0.685371 0.72266
-0.003709 -0.139925 0.108904 -0.0392041 0.74573 0.665093
-0.003518 -0.259259 -0.08775 0.0213518 -0.910111 -0.413814
-0.028703 -0.252541 -0.090187 0.0033964 -0.77496 -0.632001
-0.050145 -0.241818 -0.093401 -0.0735464 -0.705144 -0.705239
-0.059582 -0.234192 -0.095087 -0.188577 -0.542039 -0.818922
-0.063604 -0.228821 -0.096093 -0.330886 -0.217034 -0.918374
-0.068295 -0.214761 -0.099297 -0.427021 0.265673 -0.864333
-0.069604 -0.210798 -0.102268 -0.440211 0.394081 -0.806793
0.005297 -0.259259 -0.08775 -0.0303441 -0.896916 -0.441159
0.030482 -0.252541 -0.090187 0.000275584 -0.797701 -0.603053
0.051924 -0.241818 -0.093401 0.0528378 -0.73696 -0.673868
0.061361 -0.234192 -0.095087 0.179922 -0.494471 -0.850368
0.065383 -0.228821 -0.096093 0.31439 -0.254192 -0.914629
0.070073 -0.214761 -0.099297 0.440885 0.308396 -0.842919
0.071383 -0.210798 -0.102268 0.450163 0.362698 -0.815968
-0.005692 -0.262014 -0.008124 -0.00515861 -0.995724 0.0922358
-0.030957 -0.267085 -0.009055 0.0006942 -0.99625 0.0865209
-0.062195 -0.273621 -0.015394 -0.119911 -0.985089 0.123376
-0.094041 -0.27465 -0.022635 -0.467777 -0.870339 0.15393
0.007471 -0.262014 -0.008124 0.00583604 -0.996555 0.0827324
0.032735 -0.267085 -0.009055 -0.00990851 -0.997011 0.0766209
0.063973 -0.273621 -0.015394 0.115036 -0.986936 0.112805
0.095819 -0.27465 -0.022635 0.433989 -0.889241 0.144581
0.000933 -0.259894 0.098551 -0.00621987 -0.999733 -0.0222695
-0.033773 -0.267597 0.101995 -0.0410388 -0.998864 -0.0242199
-0.062962 -0.273119 0.100726 -0.127937 -0.9915 -0.0236582
-0.078633 -0.273186 0.09857 -0.223722 -0.974588 -0.0112491
0.035551 -0.267597 0.101995 0.0335429 -0.999173 -0.0229609
0.064741 -0.273119 0.100726 0.123154 -0.992288 -0.014038
0.080412 -0.273186 0.09857 0.195257 -0.980706 -0.00949947
-0.081189 -0.256673 0.100204 -0.447693 -0.893772 -0.0272569
-0.09521 -0.24752 0.094435 -0.677492 -0.733375 -0.0562711
-0.105091 -0.235844 0.087374 -0.892455 -0.440192 -0.0987647
-0.110848 -0.218512 0.080438 -0.992917 0.0323761 -0.114315
-0.109599 -0.21521 0.08018 -0.946136 0.298771 -0.124747
-0.105445 -0.214123 0.080565 -0.964865 0.236492 -0.114486
0.082968 -0.256673 0.100204 0.472905 -0.880862 -0.0210487
0.096989 -0.24752 0.094435 0.673469 -0.738195 -0.0388359
0.106869 -0.235844 0.087374 0.886157 -0.455937 -0.0827442
0.112627 -0.218512 0.080438 0.993468 0.0893587 -0.070963
0.111378 -0.21521 0.08018 0.948509 0.307132 -0.0774594
0.107223 -0.214123 0.080565 0.969715 0.234252 -0.069131
-0.000595 -0.262806 0.186048 -0.0104562 -0.999919 -0.00721175
-0.086959 -0.265106 0.177961 -0.314489 -0.948658 -0.0338399
0.002374 -0.262806 0.186048 -0.00892667 -0.999914 -0.00964429
0.088737 -0.265106 0.177961 0.332247 -0.942325 -0.040444
-0.086603 -0.259173 0.183423 -0.385842 -0.921647 -0.0411292
-0.097697 -0.249462 0.18364 -0.687339 -0.722851 -0.0710707
-0.106319 -0.235524 0.181689 -0.904513 -0.414446 -0.100454
-0.104369 -0.224405 0.17935 -0.974985 -0.188975 -0.117017
-0.097266 -0.216357 0.178214 -0.932921 0.34557 -0.101194
0.088382 -0.259173 0.183423 0.404325 -0.913586 -0.0433727
0.099476 -0.249462 0.18364 0.693626 -0.71524 -0.0855264
0.108098 -0.235524 0.181689 0.894765 -0.431554 -0.114699
0.106147 -0.224405 0.17935 0.981635 -0.123926 -0.145037
0.099044 -0.216357 0.178214 0.937582 0.328009 -0.115539
-0.080135 -0.260921 0.098187 -0.3599 -0.932682 -0.0240155
-0.086718 -0.257595 0.161991 -0.438324 -0.898315 -0.0300479
-0.09075 -0.258261 0.191079 -0.472649 -0.881104 -0.0160803
0.081914 -0.260921 0.098187 0.374877 -0.926847 -0.020555
0.088496 -0.257595 0.161991 0.401849 -0.915161 -0.0315745
0.092528 -0.258261 0.191079 0.467561 -0.883525 -0.0277459
-0.086983 -0.26036 0.187281 -0.384851 -0.922503 -0.0296255
-0.088832 -0.255227 0.216742 -0.465009 -0.869286 0.167655
-0.088516 -0.248912 0.231597 -0.581286 -0.745445 0.326219
-0.086989 -0.243716 0.237812 -0.618316 -0.58071 0.529586
-0.083859 -0.238368 0.241769 -0.632508 -0.356543 0.687612
-0.076588 -0.232141 0.24335 -0.586228 -0.0616945 0.807793
-0.067 -0.226627 0.241393 -0.460665 0.22266 0.859191
-0.059536 -0.225274 0.239876 -0.275529 0.320737 0.906207
0.088761 -0.26036 0.187281 0.372391 -0.927148 -0.0414813
0.09061 -0.255227 0.216742 0.434745 -0.88809 0.149308
0.090295 -0.248912 0.231597 0.549306 -0.773935 0.315098
0.088768 -0.243716 0.237812 0.638086 -0.5522 0.536582
0.085638 -0.238368 0.241769 0.63353 -0.37306 0.67784
0.078367 -0.232141 0.24335 0.593949 -0.0299282 0.803946
0.068778 -0.226627 0.241393 0.457274 0.239044 0.856597
0.061315 -0.225274 0.239876 0.278537 0.314981 0.907306
-0.089233 -0.247175 0.236795 -0.605934 -0.657559 0.447727
-0.081712 -0.254286 0.257287 -0.536681 -0.615249 0.577444
-0.073012 -0.256127 0.264681 -0.47565 -0.598015 0.645085
-0.059914 -0.256501 0.271159 -0.385224 -0.559882 0.733577
-0.045265 -0.256214 0.275335 -0.275935 -0.526091 0.804418
-0.024913 -0.256468 0.276726 -0.134223 -0.616419 0.775894
-0.007272 -0.257071 0.27582 -0.0449893 -0.621789 0.781891
0.007918 -0.258785 0.272135 -0.0201569 -0.788523 0.614674
0.091012 -0.247175 0.236795 0.618894 -0.659045 0.427353
0.08349 -0.254286 0.257287 0.512929 -0.63633 0.576184
0.07479 -0.256127 0.264681 0.471428 -0.622042 0.625155
0.061693 -0.256501 0.271159 0.373759 -0.534678 0.757907
0.047044 -0.256214 0.275335 0.260868 -0.59384 0.761119
0.026691 -0.256468 0.276726 0.155823 -0.554985 0.817136
0.00905 -0.257071 0.27582 0.018883 -0.613045 0.789822
-0.00614 -0.258785 0.272135 -0.0256028 -0.821689 0.569361
-0.089765 -0.261124 -0.004304 -0.441741 -0.865771 0.235172
-0.086047 -0.258654 0.041088 -0.485734 -0.871988 0.0608289
-0.080466 -0.260676 0.099739 -0.34649 -0.938026 -0.00722599
0.091543 -0.261124 -0.004304 0.447018 -0.869222 0.211255
0.087826 -0.258654 0.041088 0.465804 -0.883095 0.0563047
0.082245 -0.260676 0.099739 0.357822 -0.933735 -0.0100742
-0.000249 -0.258966 -0.08839 0.00142288 -0.872252 -0.489055
-0.036657 -0.265952 -0.080774 0.0569681 -0.95197 -0.300844
-0.060959 -0.268416 -0.079969 -0.107012 -0.921987 -0.372142
-0.084564 -0.271586 -0.082773 -0.33389 -0.854516 -0.397894
0.002027 -0.258966 -0.08839 -0.0334219 -0.889224 -0.45625
0.038436 -0.265952 -0.080774 -0.0460127 -0.941507 -0.333836
0.062738 -0.268416 -0.079969 0.0991951 -0.92857 -0.357656
0.086342 -0.271586 -0.082773 0.273988 -0.883568 -0.379787
-0.108817 -0.216889 -0.029469 -0.949742 0.291064 0.115199
-0.113493 -0.224823 -0.024224 -0.981614 0.0241945 0.18934
-0.109754 -0.24137 -0.015698 -0.920129 -0.301725 0.249649
-0.10082 -0.253392 -0.008515 -0.814981 -0.520633 0.254455
-0.089313 -0.264352 -0.005499 -0.33501 -0.921158 0.198081
0.110595 -0.216889 -0.029469 0.95524 0.276894 0.104145
0.115272 -0.224823 -0.024224 0.981148 0.0104208 0.192976
0.111532 -0.24137 -0.015698 0.864846 -0.440079 0.241604
0.102598 -0.253392 -0.008515 0.789849 -0.555375 0.260187
0.091091 -0.264352 -0.005499 0.377373 -0.905258 0.195187
-0.087669 -0.252718 -0.091318 -0.509467 -0.65163 -0.561981
-0.09142 -0.234935 -0.098109 -0.653663 -0.256413 -0.712023
-0.090474 -0.222533 -0.099393 -0.721542 0.0468184 -0.690786
-0.087497 -0.214312 -0.097079 -0.705202 0.303278 -0.640868
-0.078402 -0.211015 -0.086467 -0.705949 0.441188 -0.554066
0.089448 -0.252718 -0.091318 0.509625 -0.656808 -0.555774
0.093199 -0.234935 -0.098109 0.628046 -0.270842 -0.729522
0.092253 -0.222533 -0.099393 0.708651 0.0240545 -0.705149
0.089275 -0.214312 -0.097079 0.704151 0.307362 -0.640078
0.080181 -0.211015 -0.086467 0.696345 0.438323 -0.56831
-0.08667 -0.260784 -0.087806 -0.407329 -0.758089 -0.509297
-0.090476 -0.261505 -0.007049 -0.533345 -0.815442 0.224938
0.088449 -0.260784 -0.087806 0.430999 -0.75392 -0.495828
0.092255 -0.261505 -0.007049 0.516214 -0.827831 0.219588
-0.0838 0.072651 0.006986 -0.965271 -0.00733507 0.261149
-0.116098 0.05279 0.005849 -0.997662 -0.0681821 0.00463261
-0.122065 0.042193 0.00463 -0.990486 -0.128625 0.0489168
-0.122857 0.027921 0.004247 -0.977072 -0.212904 -0.00131866
-0.100814 -0.002532 0.013139 -0.929094 -0.352425 0.112169
-0.061971 -0.034345 0.033951 -0.867574 -0.297886 0.398221
-0.051256 -0.048259 0.042209 -0.820522 -0.199232 0.535771
-0.044768 -0.067685 0.049596 -0.750088 -0.142588 0.645784
-0.046935 -0.090549 0.051897 -0.842575 -0.130585 0.522509
0.085578 0.072651 0.006986 0.980273 -0.0225903 0.196354
0.117877 0.05279 0.005849 0.997374 -0.072271 0.00469217
0.123843 0.042193 0.00463 0.992534 -0.121464 0.011071
0.124635 0.027921 0.004247 0.973098 -0.22303 -0.0577698
0.102593 -0.002532 0.013139 0.924879 -0.36885 0.0924587
0.063749 -0.034345 0.033951 0.881639 -0.303276 0.361575
0.053034 -0.048259 0.042209 0.8455 -0.2083 0.491672
0.046547 -0.067685 0.049596 0.74524 -0.128651 0.654268
0.048713 -0.090549 0.051897 0.845604 -0.123148 0.519413
-0.006449 0.304822 0.002961 -0.0585091 0.733083 0.677618
-0.028528 0.294938 0.014774 -0.29984 0.700175 0.647959
-0.056466 0.278022 0.016853 -0.594401 0.627059 0.503472
-0.08564 0.252135 0.01086 -0.862836 0.432173 0.262183
-0.098131 0.22701 0.000511 -0.960374 0.2786 0.00804703
-0.094215 0.200968 -0.020758 -0.951183 0.191205 -0.242263
-0.079332 0.173875 -0.04833 -0.84407 0.0938516 -0.527956
-0.043717 0.126929 -0.088578 -0.589485 0.0620193 -0.805395
-0.011561 0.080015 -0.119133 -0.146743 0.0199532 -0.988973
0.008227 0.304822 0.002961 0.1207 0.737222 0.664782
0.030307 0.294938 0.014774 0.338272 0.705007 0.623328
0.058245 0.278022 0.016853 0.567994 0.622146 0.538811
0.087418 0.252135 0.01086 0.849649 0.442676 0.286589
0.099909 0.22701 0.000511 0.957402 0.28637 0.0370638
0.095993 0.200968 -0.020758 0.945299 0.186814 -0.267416
0.081111 0.173875 -0.04833 0.836293 0.0925297 -0.540418
0.045496 0.126929 -0.088578 0.576172 0.0479547 -0.81592
0.01334 0.080015 -0.119133 0.277079 0.0110951 -0.960783
-0.009652 0.205651 -0.1099 -0.140607 0.0355913 -0.989426
-0.027965 0.219761 -0.100065 -0.408062 0.0239299 -0.91264
-0.043828 0.239727 -0.083368 -0.646366 0.0641944 -0.760323
-0.052884 0.261349 -0.062198 -0.834165 0.204405 -0.512238
-0.05557 0.276276 -0.045857 -0.892515 0.343814 -0.291907
-0.051106 0.294746 -0.028262 -0.809634 0.576539 0.109978
-0.027674 0.310469 -0.006198 -0.457145 0.736735 0.498237
-0.01811 0.312447 -0.002038 -0.239903 0.755507 0.609636
0.011431 0.205651 -0.1099 0.173708 0.0255381 -0.984466
0.029744 0.219761 -0.100065 0.440761 0.0259197 -0.89725
0.045607 0.239727 -0.083368 0.649657 0.0599163 -0.757863
0.054663 0.261349 -0.062198 0.836051 0.202714 -0.509829
0.057349 0.276276 -0.045857 0.887235 0.33615 -0.315939
0.052885 0.294746 -0.028262 0.780611 0.603525 0.162493
0.029452 0.310469 -0.006198 0.471853 0.735411 0.486338
0.019889 0.312447 -0.002038 0.320026 0.750588 0.578101
-0.069124 0.079893 -0.081277 -0.766354 -0.0336788 -0.641535
-0.089931 0.096281 -0.055711 -0.837695 0.0133411 -0.545976
-0.103226 0.119025 -0.02493 -0.941012 -0.000731322 -0.338373
-0.10548 0.134338 -0.007448 -0.990225 0.00409088 -0.139416
-0.095719 0.15773 0.021255 -0.97876 0.0560321 0.197201
-0.082862 0.172229 0.041251 -0.811481 0.104379 0.574981
-0.06365 0.186398 0.057169 -0.555079 0.153012 0.817603
-0.024879 0.200051 0.071018 -0.240431 0.211828 0.947271
0.010372 0.206366 0.079016 0.0818674 0.266524 0.960345
0.070902 0.079893 -0.081277 0.732613 -0.0507081 -0.678754
0.091709 0.096281 -0.055711 0.845646 0.000157934 -0.533744
0.105004 0.119025 -0.02493 0.941137 -0.0160479 -0.337645
0.107259 0.134338 -0.007448 0.99473 -0.000259426 -0.102529
0.097498 0.15773 0.021255 0.971549 0.0603891 0.229012
0.08464 0.172229 0.041251 0.845952 0.118871 0.519841
0.065428 0.186398 0.057169 0.521653 0.161771 0.83768
0.026657 0.200051 0.071018 0.255625 0.221856 0.940976
-0.008594 0.206366 0.079016 -0.0811072 0.267197 0.960222
-0.036148 0.283161 -0.035285 -0.856808 0.514412 -0.035509
-0.05488 0.272696 -0.022066 -0.841514 0.539586 -0.0264658
-0.082554 0.246297 0.004961 -0.889438 0.424488 0.169441
-0.093918 0.224416 0.02106 -0.907873 0.288134 0.30454
-0.093852 0.208095 0.031087 -0.905085 0.215204 0.366754
-0.085506 0.185248 0.04107 -0.855338 0.144829 0.497416
-0.052321 0.146365 0.040924 -0.577333 0.00919813 0.816457
0.037927 0.283161 -0.035285 0.840461 0.541865 0.00287632
0.056659 0.272696 -0.022066 0.851154 0.523709 -0.0355851
0.084333 0.246297 0.004961 0.899157 0.408414 0.157213
0.095696 0.224416 0.02106 0.905079 0.287995 0.312877
0.09563 0.208095 0.031087 0.881434 0.205923 0.425053
0.087285 0.185248 0.04107 0.826781 0.151915 0.541623
0.0541 0.146365 0.040924 0.565956 0.0191711 0.824212
-0.065199 0.152972 0.049527 -0.592295 0.032189 0.805078
-0.073673 0.132999 0.051775 -0.691745 -0.0205616 0.721849
-0.08432 0.113674 0.04429 -0.774233 -0.0426665 0.631461
-0.092193 0.093174 0.025884 -0.899312 0.010226 0.437188
-0.091896 0.074913 0.00383 -0.999805 -0.0160479 -0.0115369
0.066978 0.152972 0.049527 0.610814 0.0410193 0.790711
0.075451 0.132999 0.051775 0.663524 -0.0161674 0.747981
0.086098 0.113674 0.04429 0.752371 -0.031642 0.657979
0.093972 0.093174 0.025884 0.897057 0.00265614 0.441906
0.093674 0.074913 0.00383 0.999011 -0.02922 0.0335255
-0.009333 -0.072772 -0.087982 -0.0984514 -0.545169 -0.832525
-0.028672 -0.04964 -0.079961 -0.343065 -0.457901 -0.820142
-0.05881 -0.010978 -0.046583 -0.782489 -0.310078 -0.539965
-0.07353 0.000289 -0.028488 -0.8726 -0.312592 -0.375307
-0.090612 0.007557 -0.010843 -0.950862 -0.273997 -0.144175
-0.127825 0.010846 0.021679 -0.924847 -0.340878 0.168701
0.011111 -0.072772 -0.087982 0.206783 -0.515358 -0.831653
0.03045 -0.04964 -0.079961 0.422783 -0.446315 -0.788706
0.060588 -0.010978 -0.046583 0.770605 -0.30969 -0.55701
0.075309 0.000289 -0.028488 0.847512 -0.327131 -0.417981
0.092391 0.007557 -0.010843 0.944775 -0.274818 -0.178536
0.129604 0.010846 0.021679 0.919607 -0.350185 0.178026
-0.113765 0.013894 0.025389 -0.938586 -0.235241 0.252424
-0.084546 0.025437 0.032683 -0.8829 -0.176859 0.434981
-0.044123 0.02984 0.047601 -0.466502 -0.137125 0.873826
-0.011249 0.026377 0.068347 -0.136846 -0.129695 0.982065
0.00223 0.018986 0.085921 0.0454521 -0.136344 0.989618
0.115543 0.013894 0.025389 0.917512 -0.278378 0.284036
0.086324 0.025437 0.032683 0.851928 -0.199428 0.484198
0.045902 0.02984 0.047601 0.468221 -0.15384 0.870116
0.013028 0.026377 0.068347 0.122713 -0.133482 0.983425
-0.000452 0.018986 0.085921 -0.0504442 -0.130527 0.990161
-0.003089 0.281175 -0.122916 -0.0906284 -0.321189 -0.942668
-0.023165 0.287278 -0.115891 -0.431567 -0.302882 -0.849713
-0.039525 0.296226 -0.104976 -0.705853 -0.217747 -0.67406
-0.050233 0.309487 -0.090061 -0.915082 -0.063518 -0.398234
-0.051795 0.318395 -0.080769 -0.989499 0.139046 -0.0394622
-0.049287 0.32668 -0.072202 -0.94193 0.305436 0.139559
-0.041066 0.336101 -0.063606 -0.810303 0.499558 0.30635
-0.019429 0.345668 -0.053849 -0.350235 0.770406 0.532739
0.006275 0.349117 -0.044436 0.159748 0.79911 0.579572
0.004868 0.281175 -0.122916 0.193819 -0.296396 -0.935192
0.024944 0.287278 -0.115891 0.468215 -0.280369 -0.837954
0.041303 0.296226 -0.104976 0.71348 -0.190408 -0.674308
0.052011 0.309487 -0.090061 0.924964 0.000271586 -0.380055
0.053573 0.318395 -0.080769 0.983762 0.163003 -0.0751142
0.051065 0.32668 -0.072202 0.926559 0.346404 0.146605
0.042845 0.336101 -0.063606 0.776008 0.537965 0.329251
0.021207 0.345668 -0.053849 0.441676 0.73765 0.510681
-0.004496 0.349117 -0.044436 -0.0420167 0.811782 0.582447
-0.009409 0.399799 -0.274234 -0.218439 -0.963406 -0.155346
-0.039108 0.410403 -0.270256 -0.85458 -0.518659 -0.0261869
-0.046436 0.419643 -0.267288 -0.996432 -0.073678 0.0411646
-0.047592 0.427286 -0.2654 -0.991874 0.106119 0.070173
-0.037348 0.44121 -0.262337 -0.80149 0.578581 0.151187
-0.006669 0.45056 -0.256163 -0.175616 0.960513 0.215809
0.011187 0.399799 -0.274234 0.460206 -0.872819 -0.162471
0.040886 0.410403 -0.270256 0.94814 -0.310517 -0.0679012
0.048215 0.419643 -0.267288 0.991857 -0.126461 -0.0150828
0.049371 0.427286 -0.2654 0.980014 0.193406 0.0465541
0.039127 0.44121 -0.262337 0.837172 0.536778 0.104942
0.008448 0.45056 -0.256163 0.211723 0.95351 0.214457
-0.006657 0.386716 -0.223239 -0.163738 -0.946713 -0.277353
-0.024099 0.39351 -0.219746 -0.614919 -0.762421 -0.201466
-0.031302 0.398581 -0.21687 -0.855016 -0.501616 -0.131643
-0.036707 0.407205 -0.211136 -0.989969 -0.140953 -0.00970846
-0.037311 0.416224 -0.204303 -0.968534 0.225996 0.104247
-0.034866 0.424368 -0.199101 -0.858824 0.469719 0.204413
-0.027791 0.4318 -0.193772 -0.614579 0.739054 0.275847
-0.011346 0.435753 -0.18884 -0.314914 0.889397 0.331364
-0.00198 0.434772 -0.18679 -0.0853679 0.93034 0.356622
0.008436 0.386716 -0.223239 0.22374 -0.935083 -0.274882
0.025877 0.39351 -0.219746 0.617107 -0.761094 -0.199786
0.03308 0.398581 -0.21687 0.873087 -0.474703 -0.111248
0.038486 0.407205 -0.211136 0.992814 -0.117039 0.0249549
0.039089 0.416224 -0.204303 0.973686 0.200513 0.108307
0.036645 0.424368 -0.199101 0.875344 0.438334 0.204051
0.029569 0.4318 -0.193772 0.66522 0.696634 0.268672
0.013125 0.435753 -0.18884 0.383322 0.863263 0.328391
0.003758 0.434772 -0.18679 0.100855 0.928873 0.356402
-0.003476 0.352017 -0.166947 -0.0634313 -0.728733 -0.681853
-0.007379 0.351443 -0.163164 -0.307494 -0.667714 -0.677942
-0.023664 0.358192 -0.155194 -0.726235 -0.442389 -0.526189
-0.033251 0.368836 -0.145887 -0.908913 -0.220756 -0.353757
-0.034983 0.378056 -0.139017 -0.986522 0.163552 0.00506049
-0.022798 0.399742 -0.125183 -0.63151 0.674404 0.382589
-0.008405 0.404645 -0.122297 -0.345135 0.805505 0.481709
0.004671 0.406304 -0.118153 0.194895 0.830489 0.521827
0.005254 0.352017 -0.166947 0.212335 -0.709778 -0.671661
0.009158 0.351443 -0.163164 0.361561 -0.633868 -0.683729
0.025443 0.358192 -0.155194 0.751645 -0.433571 -0.497037
0.035029 0.368836 -0.145887 0.932423 -0.213171 -0.291797
0.036761 0.378056 -0.139017 0.990459 0.13739 -0.0107576
0.024577 0.399742 -0.125183 0.646056 0.650413 0.399469
0.010184 0.404645 -0.122297 0.385619 0.783197 0.487751
-0.002893 0.406304 -0.118153 -0.0185573 0.846132 0.532651
-0.005977 0.447397 -0.346495 -0.0177371 0.260354 -0.96535
-0.020825 0.447774 -0.338399 -0.500394 0.354815 -0.789754
-0.032729 0.447535 -0.326807 -0.817006 0.249933 -0.519649
-0.040046 0.445396 -0.314227 -0.897201 0.373226 -0.236078
-0.045056 0.440303 -0.29914 -0.951002 0.304704 -0.052456
-0.045114 0.420446 -0.255617 -0.997054 0.0100507 0.076035
-0.037232 0.413224 -0.218403 -0.997001 0.058907 0.0501896
-0.035126 0.40296 -0.175472 -0.986426 0.141007 0.0841538
-0.038478 0.391246 -0.15646 -0.994391 0.105652 0.00489764
-0.031623 0.376061 -0.135484 -0.96883 0.246966 0.0194023
0.007755 0.447397 -0.346495 0.376324 0.2737 -0.885138
0.022603 0.447774 -0.338399 0.671026 0.332073 -0.662912
0.034507 0.447535 -0.326807 0.846466 0.135135 -0.515008
0.041824 0.445396 -0.314227 0.898405 0.309995 -0.31108
0.046834 0.440303 -0.29914 0.961761 0.240913 -0.130293
0.046892 0.420446 -0.255617 0.999248 -0.0301488 0.0243827
0.03901 0.413224 -0.218403 0.997413 0.0283502 0.066061
0.036905 0.40296 -0.175472 0.993256 0.0942035 0.0675897
0.040256 0.391246 -0.15646 0.989848 0.14145 0.0138978
0.033401 0.376061 -0.135484 0.972408 0.228573 0.0466642
-0.031082 0.377989 -0.139615 -0.983783 0.175976 -0.0346796
-0.035289 0.371536 -0.12817 -0.96627 0.25539 0.0331453
-0.039747 0.360402 -0.117137 -0.968703 0.242572 -0.0526686
-0.045905 0.326336 -0.097386 -0.966059 0.0487782 -0.253676
-0.055035 0.309967 -0.094266 -0.953041 -0.0421457 -0.299895
0.032861 0.377989 -0.139615 0.986709 0.162496 0.00106638
0.037067 0.371536 -0.12817 0.976986 0.210454 0.0347421
0.041526 0.360402 -0.117137 0.972044 0.231904 -0.0367665
0.047684 0.326336 -0.097386 0.964159 0.0708351 -0.255695
0.056814 0.309967 -0.094266 0.940649 -0.0170297 -0.338954
-0.053061 0.309727 -0.091494 -0.941388 -0.0373749 -0.33525
-0.050843 0.308335 -0.074548 -0.989782 0.118401 -0.0794585
-0.045027 0.302876 -0.059763 -0.968681 0.246315 -0.0314149
-0.034401 0.286557 -0.041097 -0.914397 0.393406 -0.0954412
-0.034119 0.280635 -0.037204 -0.87668 0.455975 -0.15336
-0.036403 0.279419 -0.038733 -0.888013 0.40968 -0.208795
0.054839 0.309727 -0.091494 0.958957 0.039763 -0.280751
0.052621 0.308335 -0.074548 0.982778 0.160698 -0.0912297
0.046805 0.302876 -0.059763 0.961383 0.274749 -0.0159648
0.036179 0.286557 -0.041097 0.89686 0.439882 -0.0463257
0.035898 0.280635 -0.037204 0.862792 0.487945 -0.132288
0.038182 0.279419 -0.038733 0.873792 0.443763 -0.198902
-0.089593 -0.192553 -0.026085 -0.812579 0.57375 0.102599
-0.077239 -0.190834 0.005176 -0.855027 0.487657 0.176407
-0.068425 -0.192113 0.032185 -0.930416 0.357276 0.0817281
-0.065608 -0.192914 0.045557 -0.909797 0.414289 0.025188
-0.06354 -0.194769 0.072611 -0.833919 0.551684 -0.0149884
-0.06427 -0.19579 0.091054 -0.752025 0.658968 -0.0148077
-0.068499 -0.195885 0.119457 -0.676103 0.733803 0.066466
-0.077008 -0.194357 0.148374 -0.614885 0.78702 0.0501607
-0.0828 -0.196863 0.168272 -0.654241 0.756231 -0.00916644
-0.086205 -0.195705 0.172805 -0.64737 0.762176 -0.000363742
0.091372 -0.192553 -0.026085 0.815568 0.569546 0.102302
0.079017 -0.190834 0.005176 0.852693 0.492817 0.173334
0.070203 -0.192113 0.032185 0.928551 0.36234 0.0806415
0.067386 -0.192914 0.045557 0.90934 0.416037 0.0037617
0.065318 -0.194769 0.072611 0.845276 0.534259 0.00870412
0.066049 -0.19579 0.091054 0.755073 0.655629 -0.0039326
0.070277 -0.195885 0.119457 0.715215 0.695314 0.0707444
0.078787 -0.194357 0.148374 0.620069 0.782498 0.0566734
0.084579 -0.196863 0.168272 0.627593 0.778472 0.0104647
0.087984 -0.195705 0.172805 0.664412 0.747364 -0.00185816
