ply
format ascii 1.0
element vertex 25
property float x
property float y
property float z
property float nx
property float ny
property float nz
end_header
0.938617 0.0149752 -0.162901 -0.796574 0.186449 0.573401 
0.859186 0.237939 0.20532 0.124919 0.0288744 -0.990702 
-0.489118 -0.545309 0.249185 -0.557497 -0.588428 0.584702 
-0.672254 0.0660315 0.238544 -0.866352 0.115291 0.482496 
-0.21725 -0.481131 -0.11561 0.269753 0.157726 -0.948689 
0.104384 -0.786686 -0.245838 -0.0938589 0.897964 -0.425767 
0.666696 -0.433201 0.24568 0.384835 -0.546893 -0.740896 
-0.765971 0.614255 -0.0918751 -0.926585 0.324505 -0.183504 
0.408981 0.783479 -0.21069 -0.250922 -0.311739 0.91475 
-0.478693 0.227465 -0.119695 -0.0875805 -0.146584 -0.982589 
-0.61781 -0.250006 -0.235404 0.334258 0.208818 -0.917861 
0.785091 0.498412 -0.172391 -0.613004 -0.475394 0.629363 
-0.995059 -0.0775631 -0.0230112 -0.803866 0.439182 0.398321 
0.533199 0.667687 0.226583 -0.0364236 0.522891 -0.850221 
0.0977032 -0.820763 0.237574 0.260309 -0.686073 0.677146 
-0.23984 -0.969022 0.0109533 -0.591155 -0.644895 0.48141 
0.220929 -0.450461 0.0317333 0.397364 -0.0849079 -0.911882 
-0.426634 0.810656 0.186238 -0.128568 0.955672 0.263761 
-0.196954 0.89077 -0.189235 0.176473 0.862113 0.470735 
0.0295202 0.736767 0.249421 0.185835 0.921883 -0.338573 
0.584909 -0.466678 -0.249936 -0.720347 0.550809 0.416515 
0.232824 0.442441 0.00223249 0.431385 0.431116 -0.790403 
0.508837 -0.858514 -0.0169062 0.0554291 0.539434 0.838066 
-0.856822 -0.51201 0.0132256 -0.5985 -0.654494 0.459898 
0.492594 0.0857877 -0.00922203 0.370244 0.0477361 -0.9259 
