ply
format ascii 1.0
element vertex 498
property float x
property float y
property float z
property float nx
property float ny
property float nz
end_header
0.76264 -0.0633837 0.344644 -0.761468 -0.604292 -0.234515 
0.193611 -0.418401 -0.570888 -0.201409 0.756928 0.621686 
0.666441 -0.674568 0.614904 -0.419568 0.621068 -0.661995 
-0.364309 0.690313 -0.0111298 0.966801 -0.231686 -0.107782 
0.514075 0.216212 -0.420796 -0.843698 -0.282081 0.456732 
0.522644 -0.758745 0.111938 -0.190254 0.889811 0.414777 
0.347873 0.563412 0.324381 -0.641819 0.035369 -0.76604 
0.65031 -0.760222 0.516915 -0.39934 0.805441 -0.437942 
0.414446 0.938973 -0.021483 -0.87093 -0.467409 0.151689 
0.203983 1.09759 0.15885 -0.299901 -0.900219 -0.315699 
-0.0460029 0.498241 0.407583 0.241694 0.0776816 -0.967238 
-0.671127 0.1539 0.0627905 0.361087 -0.810622 -0.460986 
0.874364 -0.474038 0.504465 -0.909172 0.1589 -0.384913 
-0.785317 -0.0271119 -0.407732 0.515475 -0.457689 0.724435 
0.299366 -0.600514 0.656304 0.511373 0.43286 -0.742381 
-0.956294 -0.43608 0.191083 0.658856 0.404116 -0.634507 
0.336933 -0.630459 -0.190635 -0.159302 0.858891 0.486754 
0.562332 -0.80803 0.262096 -0.184433 0.949469 0.253953 
-0.305241 0.0662001 -0.630154 0.418313 -0.274271 0.865904 
0.667981 -0.582024 0.680113 -0.41603 0.393094 -0.819998 
-0.0997102 0.714544 -0.400161 0.395159 -0.446369 0.802872 
-0.348106 0.488602 0.135033 0.872477 -0.139511 -0.468317 
-0.445264 -0.381725 0.292205 -0.10264 0.387127 -0.916296 
0.482644 -0.0219216 0.517242 -0.110687 -0.758178 -0.642585 
-0.41178 0.0351692 -0.588286 0.421539 -0.294478 0.857664 
-0.177787 0.522105 0.34474 0.60641 0.0301314 -0.794581 
-0.826948 -0.462706 0.256524 0.280428 0.482737 -0.829654 
0.485334 0.550752 -0.244511 -0.887331 -0.282444 0.364513 
0.482416 -0.141188 -0.578477 -0.787593 0.122752 0.603845 
-0.72039 -0.641467 -0.229748 0.119125 0.930669 0.345926 
-0.397271 -0.585281 -0.361339 -0.0252779 0.876086 0.481492 
-0.828043 0.0284058 0.147871 0.415308 -0.729777 -0.543089 
0.293089 -0.78416 0.222505 0.242518 0.965082 0.099005 
-0.860579 0.00498684 0.152514 0.457825 -0.69738 -0.551415 
0.38306 0.128355 -0.65053 -0.633402 -0.288855 0.71789 
-0.265067 0.811375 0.25067 0.847189 -0.172412 -0.502538 
0.335716 0.210015 0.366746 -0.30703 -0.407323 -0.860128 
0.413662 0.821683 -0.180721 -0.817505 -0.391676 0.422227 
0.501414 0.0665696 -0.522982 -0.844811 -0.203936 0.494676 
0.108092 0.888686 -0.349601 -0.0133422 -0.554441 0.832116 
0.177016 -0.478571 -0.494569 -0.175054 0.810458 0.559029 
-0.638271 -0.549855 -0.394946 0.128564 0.752555 0.645858 
-0.089933 0.492081 -0.523733 0.322703 -0.444389 0.835692 
-0.435475 -0.594192 -0.346879 -0.024108 0.883446 0.467912 
0.412435 -0.698202 -0.044492 -0.133925 0.876147 0.463066 
-0.617046 -0.630574 -0.275264 0.0352032 0.908153 0.417156 
-0.685177 0.115326 0.119779 0.299256 -0.795954 -0.526215 
0.0282216 0.497047 0.418663 0.0566129 0.102295 -0.993142 
0.34295 -0.789287 0.192947 0.140141 0.970975 0.193824 
-0.244217 0.549533 0.282486 0.75624 0.00433798 -0.65428 
0.112697 -0.404331 -0.608047 -0.108798 0.75371 0.648139 
0.298543 0.323334 0.348115 -0.398213 -0.110781 -0.910579 
0.851782 -0.259777 0.194286 -0.946104 -0.233033 0.224908 
0.126405 0.990749 0.35699 -0.130617 -0.629938 -0.765583 
-0.0231572 1.13079 0.0713952 0.234845 -0.965432 -0.113088 
-0.0928183 1.02884 -0.173109 0.425744 -0.698207 0.575542 
0.165308 0.905774 0.398905 -0.25526 -0.371533 -0.89264 
0.340884 -0.0736988 0.566734 0.108426 -0.624233 -0.773678 
0.307059 -0.092532 0.575166 0.169517 -0.576481 -0.799333 
0.128078 -0.657099 0.377673 0.66819 0.624064 -0.405051 
0.810828 -0.124758 0.286691 -0.883962 -0.466461 -0.0320214 
0.436107 0.87402 -0.0636166 -0.896847 -0.381224 0.224351 
0.657516 -0.0747489 -0.246565 -0.912966 -0.116148 0.391156 
-0.236803 -0.54665 -0.421491 -0.00388349 0.84145 0.540321 
-0.868412 -0.629357 -0.151121 0.363746 0.910478 0.196769 
-1.002 -0.168025 -0.299757 0.740081 -0.31797 0.592601 
-0.799107 -0.640553 -0.190613 0.224147 0.933344 0.280404 
0.472047 -0.614018 0.703812 0.0328111 0.477722 -0.877898 
-0.105894 0.118962 -0.698918 0.307983 -0.292504 0.905311 
-0.376289 0.0454936 -0.602213 0.421771 -0.287251 0.859998 
0.252954 -0.553496 -0.352111 -0.189271 0.838449 0.511057 
0.668999 -0.620086 0.657717 -0.417747 0.502554 -0.756919 
-0.00841481 -0.16264 -0.753763 0.167408 0.15663 0.973366 
-0.103059 0.841298 -0.324116 0.421063 -0.48535 0.766252 
0.843967 -0.213171 0.222771 -0.937855 -0.312817 0.150248 
-0.763682 0.159033 -0.199424 0.58979 -0.787864 0.177251 
-0.958549 -0.584655 -0.0851461 0.636691 0.771111 -0.00348845 
-0.0838549 0.359383 -0.596817 0.287128 -0.450347 0.845426 
0.503229 -0.069228 -0.553825 -0.840359 -0.0323078 0.541067 
-0.252077 0.806519 -0.228695 0.68297 -0.469351 0.559698 
0.266036 -0.591531 0.635601 0.597349 0.409298 -0.689673 
0.452451 0.801418 -0.106938 -0.900703 -0.333576 0.278318 
-0.787838 -0.465073 0.266032 0.191719 0.492507 -0.848929 
-1.0229 -0.499713 -0.0123431 0.826515 0.532684 -0.181989 
0.619686 -0.00850537 0.45032 -0.373884 -0.740523 -0.558423 
-0.899751 -0.0265485 0.156481 0.517335 -0.648144 -0.558815 
0.582904 -0.000876692 -0.390124 -0.894796 -0.128233 0.427664 
-0.0509378 1.12371 -0.0037259 0.314273 -0.944177 0.0988044 
0.0841029 0.50046 0.418436 -0.079071 0.115395 -0.990168 
0.0925155 -0.377008 -0.640962 -0.0788272 0.714503 0.695177 
0.178755 0.513715 0.403218 -0.266298 0.133577 -0.95459 
0.792553 -0.219283 0.0328537 -0.925165 -0.165199 0.34173 
-1.01955 -0.173164 0.1443 0.806132 -0.273147 -0.524922 
0.12321 -0.448244 -0.550751 -0.117125 0.794527 0.595826 
0.296691 0.870523 -0.291414 -0.555726 -0.496344 0.666941 
-0.523332 0.21698 0.0895014 0.497039 -0.686232 -0.531073 
0.120836 -0.313658 0.560439 0.641031 0.0236727 -0.76715 
-0.963548 -0.147257 -0.332167 0.675069 -0.342604 0.653379 
0.607565 -0.813314 0.373196 -0.274507 0.961575 -0.00448032 
0.109402 -0.350275 0.547536 0.672975 0.092772 -0.733824 
0.379861 0.84017 -0.221391 -0.748307 -0.427414 0.5073 
-0.103197 0.875054 -0.301953 0.425385 -0.508843 0.748416 
-0.208379 0.915305 0.273183 0.687119 -0.454631 -0.566726 
-0.777718 0.0611243 0.138994 0.369223 -0.762262 -0.531631 
-0.0915395 0.526684 -0.504728 0.336525 -0.441011 0.832022 
0.637686 -0.394557 0.728764 -0.348871 -0.0283316 -0.936742 
0.309527 1.06432 0.0908464 -0.572629 -0.805282 -0.153675 
0.813711 -0.474616 0.102932 -0.848514 0.27163 0.454137 
-0.0794292 -0.448132 0.330108 0.546289 0.478435 -0.687509 
-0.24977 0.84727 0.260553 0.811267 -0.256388 -0.525463 
-0.786497 0.0179429 -0.375772 0.541976 -0.513339 0.665391 
0.466946 -0.176405 -0.587943 -0.740721 0.21907 0.635091 
-0.55279 -0.00533118 0.278252 0.222072 -0.472967 -0.852635 
0.444411 0.840404 -0.08399 -0.900388 -0.354937 0.251636 
-0.0966868 1.00071 -0.201674 0.428092 -0.651084 0.626759 
-0.655481 0.139941 0.096854 0.317383 -0.804719 -0.501692 
-0.306285 0.591456 0.191964 0.868497 -0.0202934 -0.495279 
0.0332845 1.10543 0.197501 0.0948365 -0.910224 -0.403111 
0.512941 -0.779516 0.155963 -0.14003 0.918129 0.370715 
-0.277508 0.774852 0.239084 0.870028 -0.105332 -0.481618 
0.511891 0.25131 -0.402712 -0.844229 -0.290358 0.45052 
0.316902 0.145251 -0.689929 -0.44309 -0.323814 0.835952 
-0.087797 0.445857 -0.549137 0.307705 -0.447792 0.839524 
0.437967 -0.224955 -0.597231 -0.650538 0.358791 0.66938 
-0.110479 -0.516112 -0.46878 0.0103786 0.827302 0.561662 
0.749175 -0.17178 -0.0588482 -0.918099 -0.146676 0.368212 
-0.053932 0.0352396 -0.737142 0.254723 -0.186352 0.948888 
0.270862 0.535091 0.371582 -0.457384 0.13698 -0.878656 
-0.468943 -0.627609 0.0311351 -0.0838015 0.940903 -0.328144 
0.517668 0.11022 -0.473939 -0.849089 -0.235412 0.472894 
-0.0743695 -0.507341 -0.482278 0.0075886 0.824961 0.565139 
0.0936513 -0.46363 0.496996 0.742453 0.256843 -0.618704 
0.23536 -0.145058 0.58648 0.322177 -0.436859 -0.839855 
-0.37186 0.4249 0.115831 0.849449 -0.223843 -0.477839 
-0.388041 0.389063 0.106413 0.82754 -0.284297 -0.4841 
0.253247 -0.386688 -0.584829 -0.284213 0.70714 0.647438 
0.322048 0.246577 0.356489 -0.340832 -0.319108 -0.88431 
-0.727973 -0.46554 0.274883 0.0766863 0.499876 -0.862695 
0.793437 -0.0974313 0.310301 -0.847097 -0.52081 -0.105752 
0.476179 0.764157 -0.0591631 -0.94852 -0.282611 0.142975 
-0.070975 0.16524 -0.693647 0.27101 -0.34787 0.897519 
0.584794 -0.602955 0.698876 -0.207174 0.451121 -0.868083 
0.726418 -0.0379851 0.377404 -0.660542 -0.664673 -0.349133 
0.7033 -0.122994 -0.153203 -0.914756 -0.120922 0.385486 
-0.988783 -0.122048 0.153952 0.710343 -0.433333 -0.554649 
-0.524023 -0.659376 -0.152242 -0.0676422 0.995275 0.0696638 
-1.09555 -0.300753 -0.0722438 0.997018 0.0629024 -0.0446933 
0.0338321 -0.478375 -0.521424 -0.0410555 0.81007 0.584894 
-0.323033 0.607038 0.15906 0.897913 -0.0495238 -0.437378 
-0.32591 0.567341 0.162289 0.875239 -0.0903494 -0.475178 
0.18483 0.849906 0.411118 -0.30898 -0.227426 -0.923477 
0.439658 0.00789139 0.495341 -0.104988 -0.682806 -0.723017 
0.515138 0.020925 -0.51598 -0.860663 -0.157092 0.484336 
0.138668 0.507093 0.411669 -0.187654 0.127506 -0.973924 
-0.489676 -0.164981 0.334534 0.0715053 -0.0489346 -0.996239 
-0.783175 -0.06436 -0.430789 0.492955 -0.407098 0.768938 
-0.0101745 -0.490892 -0.505859 -0.0137345 0.81792 0.575169 
0.422856 0.0352428 0.471006 -0.111353 -0.685224 -0.71977 
-0.182683 -0.533514 -0.441723 0.00476739 0.834895 0.550388 
0.113779 0.152015 -0.729315 0.0148574 -0.333011 0.942806 
0.663572 -0.536003 0.700031 -0.401221 0.277483 -0.87294 
0.225468 0.694165 0.410234 -0.38964 0.0263424 -0.92059 
0.515849 0.181005 -0.438732 -0.843309 -0.272467 0.463241 
0.42959 0.616197 0.22916 -0.831642 -0.0758564 -0.550107 
-0.471559 -0.602345 -0.333096 -0.0213125 0.888192 0.458977 
-0.51893 -0.0800979 0.316988 0.160631 -0.278065 -0.947036 
0.445874 -0.727058 0.0209996 -0.125916 0.886533 0.445201 
0.0688372 1.09504 0.224042 0.00205026 -0.898778 -0.438399 
-0.741016 0.179301 -0.118319 0.540213 -0.838236 -0.0743692 
0.47524 0.084143 -0.558261 -0.816194 -0.222938 0.533034 
-0.00420597 0.877941 -0.341438 0.222741 -0.53923 0.812168 
0.437431 0.805088 -0.144978 -0.866449 -0.355878 0.350168 
0.234976 -0.580931 0.612285 0.662832 0.388179 -0.64029 
-0.0201637 -0.12155 -0.756134 0.193477 0.0642909 0.978996 
0.706861 -0.630814 0.079209 -0.6373 0.589176 0.49671 
-0.451349 0.287839 0.088467 0.690068 -0.511376 -0.512153 
0.400007 0.96945 0.000385937 -0.842034 -0.529751 0.101701 
0.484413 0.694036 0.0810376 -0.958921 -0.165474 -0.230412 
-0.726551 0.0915628 0.128596 0.345334 -0.774522 -0.529963 
-0.742768 -0.303292 -0.502065 0.395457 0.084451 0.914594 
0.596488 -0.722177 0.0911577 -0.386829 0.794017 0.468936 
0.431883 -0.614764 0.699789 0.129238 0.477965 -0.868819 
0.653979 -0.0127152 0.429634 -0.454549 -0.72967 -0.510849 
-0.491282 -0.651066 -0.0515362 -0.087549 0.982317 -0.165495 
0.140212 -0.267692 0.57393 0.583797 -0.0853393 -0.807402 
0.0414476 -0.490204 0.422345 0.705808 0.385721 -0.594184 
0.53237 -0.609647 0.703968 -0.0950235 0.466493 -0.879406 
-0.0376383 1.12946 0.0338122 0.275029 -0.96135 -0.0128586 
0.786917 -0.524851 0.0912211 -0.792686 0.379333 0.477237 
0.274592 0.431204 0.359357 -0.420382 0.0922094 -0.90265 
-0.215187 0.822362 -0.255832 0.607837 -0.481018 0.631788 
0.272322 -0.115451 0.581965 0.239178 -0.516014 -0.82251 
0.549762 -0.164031 0.659696 -0.123 -0.645333 -0.753934 
0.00829322 1.12163 0.144976 0.153958 -0.944507 -0.29018 
-1.04872 -0.426241 0.035961 0.88902 0.368363 -0.271939 
-0.849758 -0.09902 -0.404185 0.537887 -0.375815 0.754613 
-0.347166 -0.42904 0.259784 -0.0688832 0.504963 -0.860388 
-1.07165 -0.22291 -0.209817 0.922091 -0.185856 0.339421 
0.499203 -0.0827676 0.585766 -0.0796701 -0.725783 -0.683295 
-0.093795 0.575653 -0.477782 0.354827 -0.43869 0.82562 
0.902438 -0.391538 0.359031 -0.997004 -0.068907 0.0351458 
-1.05069 -0.264342 0.115405 0.89846 -0.0136633 -0.438843 
-0.760541 -0.226596 -0.493003 0.441381 -0.0941842 0.892363 
0.233602 0.654997 0.404723 -0.397631 0.0685339 -0.914982 
-0.708323 0.177335 -0.0258158 0.45525 -0.836917 -0.303838 
-0.361406 0.667605 0.0343009 0.960374 -0.176193 -0.215957 
-0.782804 0.0917774 -0.307211 0.583035 -0.640045 0.500412 
0.147679 -0.541648 0.529577 0.75257 0.355672 -0.554198 
-0.251739 0.0815683 -0.650793 0.405391 -0.269954 0.873375 
-0.54122 -0.654517 -0.1979 -0.0480589 0.981216 0.186828 
-0.815703 -0.0869362 -0.42148 0.508058 -0.384947 0.770515 
0.476527 0.633989 -0.199832 -0.897805 -0.284368 0.336275 
0.47725 0.675793 0.116419 -0.939044 -0.144152 -0.312117 
0.357998 0.157983 0.38851 -0.246732 -0.519524 -0.818058 
-0.60635 -0.595553 -0.338982 0.0703666 0.839202 0.539248 
0.5087 0.295049 -0.37994 -0.845949 -0.298348 0.441995 
-0.123007 1.0002 0.272369 0.460403 -0.685369 -0.564179 
0.505112 0.338699 -0.357017 -0.849044 -0.301408 0.433909 
0.267608 0.469241 0.367025 -0.41156 0.08912 -0.907015 
-0.900939 -0.618665 -0.129947 0.451564 0.881221 0.139784 
0.869365 -0.315796 0.217649 -0.955965 -0.160553 0.24567 
-0.933017 -0.132811 -0.354212 0.630695 -0.354684 0.690234 
0.205806 -0.569143 0.587063 0.709184 0.372107 -0.598827 
-0.359513 -0.576311 -0.375548 -0.0222586 0.868812 0.494641 
-0.33762 0.623191 0.125278 0.91891 -0.0741257 -0.387439 
0.069689 -0.467084 -0.533574 -0.0692073 0.803929 0.590685 
-0.509357 -0.610483 -0.318463 -0.0100855 0.892954 0.450036 
0.841738 -0.398637 0.127383 -0.912923 0.0971517 0.396401 
-1.05365 -0.204435 -0.240816 0.863914 -0.241989 0.441695 
0.0179804 0.141821 -0.723692 0.160242 -0.322724 0.93283 
-0.295786 -0.425693 0.260602 0.0304698 0.524563 -0.850826 
-0.101641 0.773302 -0.365866 0.408147 -0.459666 0.788748 
0.520422 -0.115401 0.617778 -0.0886492 -0.714331 -0.69417 
-0.102717 0.90792 -0.278828 0.423959 -0.542145 0.725491 
-0.677599 -0.0428117 -0.48281 0.449693 -0.367242 0.814193 
0.566392 -0.008604 0.479012 -0.257145 -0.747445 -0.612538 
-0.884943 -0.11245 -0.384599 0.574197 -0.366688 0.732009 
0.830261 -0.434776 0.114755 -0.885017 0.18325 0.427978 
-1.09096 -0.319839 -0.0371202 0.986705 0.112062 -0.117705 
-0.097244 0.653293 -0.434755 0.378668 -0.439068 0.814758 
-0.763324 -0.642199 -0.209001 0.169811 0.934446 0.313011 
-0.639645 0.123958 0.129864 0.294165 -0.774873 -0.5595 
-1.03922 -0.390409 0.0974113 0.871173 0.291401 -0.39515 
-0.213255 0.535118 0.31474 0.688842 0.0166007 -0.724722 
-0.482879 0.0145267 -0.560464 0.424348 -0.316294 0.848461 
0.151538 -0.697641 0.343907 0.608478 0.727668 -0.316627 
-0.722138 0.181095 -0.0626078 0.492492 -0.842312 -0.219004 
-1.09641 -0.281305 -0.107527 0.999255 0.00827129 0.0376874 
0.216345 0.521401 0.392368 -0.321393 0.145053 -0.93577 
-0.11388 -0.439883 0.310583 0.481879 0.503005 -0.717481 
0.453228 0.640143 0.184383 -0.883191 -0.108404 -0.456314 
-0.450244 -0.345099 0.306622 -0.0790247 0.321255 -0.94369 
0.390557 -0.61337 0.69174 0.239921 0.472582 -0.848 
0.238933 -0.768033 0.260112 0.372208 0.927572 -0.0327238 
0.53791 -0.795615 0.208495 -0.157025 0.930902 0.329795 
0.466715 0.657764 0.15098 -0.912601 -0.125595 -0.389083 
0.421934 0.112938 -0.617457 -0.725208 -0.261733 0.636843 
0.0761482 1.06419 0.278614 0.0113752 -0.837141 -0.546868 
0.269783 -0.569201 -0.319937 -0.186148 0.843261 0.504242 
-0.272951 -0.555437 -0.40798 -0.00963567 0.850259 0.526277 
0.671501 -0.665413 0.0802626 -0.560224 0.663405 0.496027 
-0.589073 0.171049 0.0995504 0.390535 -0.74822 -0.53633 
0.00364274 -0.199694 -0.747919 0.139053 0.251891 0.957713 
-0.230927 0.882208 0.268226 0.755904 -0.357458 -0.548482 
-0.187557 -0.428268 0.279732 0.30654 0.535873 -0.786685 
0.470869 -0.747771 0.070521 -0.123761 0.895679 0.427134 
-0.359226 0.716354 -0.0622364 0.953352 -0.299649 0.0364827 
-0.712671 -0.398804 -0.490439 0.307862 0.372982 0.875275 
0.578138 -0.813301 0.298638 -0.207832 0.960699 0.184019 
0.320165 -0.615248 -0.222982 -0.169377 0.854875 0.490409 
-0.447317 -0.576076 0.133784 -0.0991669 0.838483 -0.535828 
-0.622272 -0.573892 -0.367787 0.101221 0.797922 0.594201 
-0.0782347 0.254691 -0.652388 0.268466 -0.416422 0.86863 
0.720529 -0.141265 -0.117858 -0.915988 -0.130615 0.379348 
0.210789 -0.512916 -0.431889 -0.188672 0.824354 0.533707 
0.012481 -0.478262 0.396881 0.675612 0.40605 -0.615363 
-0.946889 -0.0713541 0.157933 0.610363 -0.558179 -0.562045 
-0.545617 -0.617818 -0.304194 -6.53223e-05 0.89593 0.444195 
-1.05511 -0.391694 0.0558541 0.906404 0.291708 -0.305513 
-0.149984 -0.433151 0.293582 0.393217 0.526632 -0.753684 
-0.533449 -0.0457457 0.302174 0.18981 -0.370351 -0.909292 
-0.587152 -0.456436 0.277243 -0.0936508 0.492566 -0.865222 
0.150853 0.941 0.385762 -0.210754 -0.474218 -0.85481 
-0.308972 0.774023 -0.170851 0.815523 -0.427989 0.389548 
-0.53617 -0.000975965 -0.539552 0.426746 -0.331322 0.841495 
-0.647481 -0.461742 0.278774 -0.0341889 0.497817 -0.866608 
-0.171359 0.838019 -0.281775 0.529985 -0.487114 0.694144 
0.395652 -0.683381 -0.0771402 -0.138662 0.87145 0.470476 
0.0321669 1.08548 0.237435 0.120997 -0.868711 -0.480314 
0.623292 -0.804636 0.418832 -0.323043 0.935104 -0.145685 
-0.133966 0.849506 -0.300198 0.476526 -0.487985 0.731296 
-0.677362 -0.480293 -0.45281 0.210586 0.598269 0.773129 
-0.752291 -0.26488 -0.499315 0.420849 -0.0115534 0.907057 
0.596379 -0.261364 0.712913 -0.237055 -0.394181 -0.887934 
0.066682 0.147912 -0.728191 0.0872658 -0.327837 0.940695 
-0.684354 -0.639003 -0.246266 0.0834287 0.925297 0.369953 
0.490679 0.495148 -0.274089 -0.875952 -0.288113 0.38691 
0.703594 -0.574286 0.662917 -0.510166 0.375902 -0.773582 
0.241144 0.615986 0.397822 -0.402093 0.0923578 -0.910929 
-0.0259039 -0.464334 0.366561 0.626884 0.438064 -0.644296 
-0.505139 -0.65783 -0.0967034 -0.0832347 0.994091 -0.0696797 
0.0851853 -0.510431 0.464768 0.736623 0.377541 -0.561115 
-0.296607 0.701002 0.212674 0.888601 -0.0385848 -0.457054 
-0.100899 0.95086 -0.245589 0.425868 -0.587722 0.687909 
0.739332 -0.593064 0.0813578 -0.701988 0.516561 0.490284 
0.763223 -0.549599 0.626245 -0.649341 0.326388 -0.686897 
0.17806 -0.556539 0.560563 0.736442 0.363026 -0.570846 
0.616884 -0.0334928 -0.326601 -0.904441 -0.116404 0.410411 
-0.0854337 0.393969 -0.577753 0.296713 -0.45136 0.841567 
-0.478737 -0.6402 -0.00691902 -0.0854225 0.962996 -0.255622 
-0.785279 0.0645028 -0.335731 0.569109 -0.589928 0.5728 
-0.0903941 1.02347 0.26762 0.392502 -0.733917 -0.554354 
0.593282 -0.815258 0.335706 -0.240033 0.965954 0.0965285 
0.517092 0.145654 -0.45648 -0.845576 -0.255409 0.468794 
-0.441438 -0.417527 0.275114 -0.120481 0.425441 -0.89693 
0.823465 -0.516343 0.574164 -0.773764 0.268636 -0.573694 
0.501856 0.375286 -0.337683 -0.852932 -0.303773 0.424534 
-1.08297 -0.338473 -0.00235529 0.969667 0.158038 -0.186467 
-0.215856 0.0915308 -0.664016 0.389291 -0.267238 0.881496 
0.646464 -0.433802 0.724838 -0.369066 0.0516897 -0.927965 
-0.931224 -0.603799 -0.107857 0.542168 0.837576 0.0672381 
-0.00776025 1.12809 0.108607 0.195301 -0.959429 -0.203354 
0.299828 -0.356924 -0.593299 -0.352026 0.659128 0.664551 
0.660061 -0.721639 0.567349 -0.415775 0.719162 -0.55672 
-1.00081 -0.537981 -0.0417482 0.769764 0.627121 -0.11909 
0.205636 -0.750285 0.287315 0.461371 0.877132 -0.133327 
0.560137 0.0196508 -0.430287 -0.885798 -0.144563 0.440981 
-0.0800242 1.08129 -0.105714 0.402568 -0.814949 0.41689 
0.35265 0.852106 -0.248278 -0.691716 -0.451447 0.563671 
-1.05849 -0.338073 0.0835034 0.917412 0.165737 -0.361781 
-0.661943 -0.509813 -0.431623 0.174299 0.66976 0.721832 
0.488539 0.718423 0.0330981 -0.97355 -0.199361 -0.111602 
0.184548 0.154983 -0.725222 -0.104526 -0.336112 0.936004 
-0.0434314 0.871378 -0.333006 0.305099 -0.5237 0.795395 
0.853601 -0.329797 0.156837 -0.945072 -0.0918313 0.313699 
0.642109 -0.779933 0.482989 -0.377133 0.862347 -0.337829 
0.654006 -0.472794 0.717947 -0.385312 0.133632 -0.913059 
-0.440319 -0.536552 0.184927 -0.116604 0.741192 -0.661089 
-0.256442 -0.424889 0.26441 0.115555 0.534425 -0.83728 
0.429158 -0.712757 -0.0118247 -0.130093 0.881056 0.45477 
-0.0565867 1.04444 0.261171 0.332593 -0.772882 -0.540404 
0.486814 -0.770456 0.125292 -0.113059 0.916 0.384917 
0.56181 -0.741594 0.0997458 -0.30072 0.842994 0.446014 
0.451619 0.0980765 -0.586614 -0.779987 -0.240356 0.577797 
-0.723148 -0.0568464 -0.463522 0.463675 -0.377691 0.801471 
-0.0679946 0.12623 -0.708559 0.272823 -0.303395 0.912973 
0.351148 0.137827 -0.671925 -0.544095 -0.308519 0.780241 
-0.577443 -0.628267 -0.282263 0.00778094 0.908318 0.418207 
-0.0471494 -0.00280452 -0.745333 0.244292 -0.132373 0.960624 
0.633338 -0.0499434 -0.294655 -0.908114 -0.115016 0.402617 
0.11391 -0.620961 0.404135 0.700414 0.548874 -0.456244 
0.263154 1.08457 0.123453 -0.435525 -0.867186 -0.241467 
0.115367 -0.52539 0.495853 0.762407 0.358692 -0.538587 
0.158628 -0.434122 -0.561316 -0.155487 0.780457 0.605566 
-0.179586 0.101151 -0.676559 0.365433 -0.268345 0.891319 
-0.559397 -0.644088 -0.242001 -0.0200055 0.951429 0.307219 
-0.0301864 0.134215 -0.716377 0.226782 -0.314395 0.921806 
0.0489569 0.884485 -0.348192 0.119594 -0.548152 0.827785 
0.581671 -0.226615 0.698819 -0.192169 -0.495521 -0.847071 
-0.583411 -0.0147952 -0.520882 0.431988 -0.344444 0.833514 
-0.277403 0.569362 0.239222 0.821447 -0.00654462 -0.570247 
0.0675883 -0.338768 -0.678628 -0.0310698 0.639529 0.768139 
0.480354 0.599317 -0.218521 -0.894208 -0.282133 0.347552 
0.474482 -0.0456179 0.547902 -0.04764 -0.762339 -0.645422 
-0.447349 0.0248415 -0.574365 0.421657 -0.305085 0.85389 
-0.0685109 1.10538 -0.0604736 0.371734 -0.8826 0.287804 
0.103659 -0.582823 0.429527 0.727813 0.467851 -0.501401 
0.227662 -0.529395 -0.400125 -0.189109 0.830671 0.523664 
0.200764 0.795913 0.415486 -0.346848 -0.125886 -0.929435 
-1.05638 -0.301348 0.100265 0.912694 0.0771053 -0.401303 
0.303388 -0.600011 -0.255329 -0.1757 0.852789 0.491814 
0.223608 0.154589 -0.719288 -0.190965 -0.336596 0.922082 
0.381654 0.109503 0.41612 -0.192529 -0.595966 -0.779588 
0.0450967 -0.298204 -0.708565 0.0235557 0.536888 0.843325 
0.412743 -0.257569 -0.600641 -0.581495 0.446755 0.679907 
0.465707 0.720043 -0.152802 -0.902625 -0.298349 0.310252 
-0.555573 0.192959 0.0937061 0.423689 -0.733648 -0.531271 
0.68756 -0.10632 -0.185456 -0.915535 -0.116318 0.385053 
0.316563 0.550233 0.346877 -0.554714 0.0776899 -0.828406 
0.531595 0.0436516 -0.477505 -0.869693 -0.172066 0.462631 
0.309607 0.284464 0.350235 -0.37404 -0.211521 -0.902969 
-0.918465 -0.447908 0.217526 0.543143 0.440204 -0.714994 
0.566014 -0.194188 0.680764 -0.153458 -0.580924 -0.799361 
0.375598 -0.0573654 0.556515 0.0547243 -0.664722 -0.745084 
-0.0957389 0.61882 -0.453924 0.368923 -0.437784 0.819903 
0.341727 -0.325702 -0.598758 -0.418892 0.60422 0.677826 
0.611574 -0.303165 0.723541 -0.281708 -0.263331 -0.922658 
0.224059 0.884357 -0.327399 -0.344555 -0.539174 0.768488 
0.375771 0.578009 0.298674 -0.713925 -0.00306344 -0.700216 
0.096163 -0.422142 0.517251 0.723897 0.23464 -0.648781 
0.216633 0.733404 0.414007 -0.378507 -0.0236954 -0.925295 
0.494339 -0.105431 -0.567003 -0.819496 0.0393707 0.571731 
-0.834291 -0.636434 -0.171322 0.285815 0.926532 0.244637 
0.438619 -0.0341101 0.534638 -0.00204414 -0.72815 -0.685415 
-0.336144 0.527909 0.148206 0.884674 -0.0807919 -0.459156 
0.286569 -0.584662 -0.287712 -0.181819 0.847487 0.498706 
-0.115248 0.506689 0.382681 0.437939 0.0524075 -0.897476 
-0.280031 0.792171 -0.203489 0.742853 -0.455632 0.490479 
-0.074389 0.203092 -0.677051 0.268157 -0.381196 0.884749 
-0.437953 -0.502319 0.218594 -0.125945 0.649716 -0.749671 
-0.456322 -0.307814 0.318391 -0.05366 0.2574 -0.964814 
0.261901 0.152376 -0.710168 -0.287119 -0.335931 0.897058 
-0.778426 -0.115355 -0.457155 0.479376 -0.313236 0.819806 
-0.454068 -0.597752 0.0973498 -0.0896576 0.88345 -0.459867 
0.623546 -0.341346 0.728415 -0.313473 -0.163568 -0.935404 
0.484348 0.74652 -0.0231822 -0.968381 -0.246681 0.0372445 
-1.09177 -0.258077 -0.148914 0.985691 -0.0663291 0.154961 
-0.731976 -0.341432 -0.500951 0.366067 0.188357 0.911327 
0.352102 -0.609782 0.680114 0.35706 0.461966 -0.811847 
0.260169 0.878718 -0.311967 -0.454444 -0.52052 0.722869 
0.819517 -0.250239 0.0924316 -0.931115 -0.173887 0.320606 
0.472441 0.668498 -0.181099 -0.900845 -0.288037 0.324827 
0.497186 0.42572 -0.310942 -0.86012 -0.298725 0.41347 
0.511531 -0.0169885 -0.532584 -0.856088 -0.109599 0.505076 
-0.142916 0.110319 -0.688238 0.340719 -0.279112 0.897779 
-0.308972 -0.56416 -0.394504 -0.0156033 0.858777 0.512113 
0.46057 0.754632 -0.133511 -0.901753 -0.310338 0.300884 
-0.47682 -0.21181 0.334765 0.0254052 0.0642462 -0.997611 
-0.087749 1.05487 -0.142907 0.420073 -0.746272 0.51635 
0.20593 -0.173586 0.587496 0.394656 -0.355602 -0.847227 
0.889918 -0.453157 0.468783 -0.9569 0.0930681 -0.275103 
-0.146596 -0.524803 -0.45524 0.0088681 0.831083 0.556077 
0.105565 1.10012 0.208453 -0.0978834 -0.911329 -0.399872 
0.447303 -0.77999 0.141508 -0.0380468 0.939059 0.341644 
-0.3321 0.754807 -0.135407 0.879463 -0.390183 0.272582 
0.0975959 -0.547281 0.451304 0.741808 0.436367 -0.50922 
0.600087 -0.0171223 -0.358452 -0.900184 -0.120285 0.418568 
0.893867 -0.361021 0.302701 -0.981789 -0.118133 0.148779 
0.250215 0.566468 0.387787 -0.411803 0.152329 -0.898451 
0.382522 0.997852 0.0227449 -0.79844 -0.600366 0.0453309 
-0.352397 0.645362 0.0795228 0.943782 -0.12436 -0.306286 
0.400445 0.59351 0.270786 -0.769275 -0.0359958 -0.637903 
0.141893 1.10169 0.191356 -0.173156 -0.91289 -0.36966 
-0.583786 0.0494197 0.232052 0.263057 -0.600716 -0.754945 
0.174268 -0.72431 0.317758 0.55037 0.800002 -0.238933 
0.840608 -0.275992 0.141825 -0.939236 -0.174583 0.295561 
0.426269 0.907007 -0.0427916 -0.888018 -0.417749 0.192122 
-0.467486 -0.251472 0.330496 -0.00943934 0.149714 -0.988684 
-0.427472 0.320151 0.0923899 0.746881 -0.437707 -0.500581 
-0.618788 -0.0252136 -0.506769 0.436753 -0.353897 0.827045 
-0.406471 0.354029 0.0984905 0.796169 -0.351916 -0.49221 
-0.308504 0.645572 0.191654 0.896929 0.0234785 -0.44155 
-0.864963 -0.458421 0.243695 0.378875 0.471169 -0.796526 
-0.623694 0.105688 0.161411 0.297051 -0.726924 -0.619146 
-0.102477 0.807151 -0.345415 0.414037 -0.468753 0.780285 
0.901594 -0.423916 0.417469 -0.993817 0.00268646 -0.110995 
-0.599686 0.0736424 0.205321 0.278574 -0.653216 -0.704063 
0.172299 -0.214512 0.58432 0.485811 -0.23674 -0.841393 
-0.478029 -0.443914 0.269189 -0.162788 0.476868 -0.863769 
0.102023 1.03049 0.321715 -0.0582898 -0.747508 -0.661691 
-0.527018 -0.449772 0.273237 -0.116884 0.486657 -0.865738 
-0.686419 0.165499 0.0279103 0.398891 -0.821543 -0.407374 
-0.503717 -0.121094 0.328584 0.118134 -0.16244 -0.979621 
0.62306 -0.596181 0.691742 -0.28516 0.435227 -0.853968 
0.829561 -0.165409 0.255415 -0.91757 -0.393229 0.0586101 
0.356218 -0.647937 -0.153425 -0.150775 0.862021 0.483929 
0.159163 -0.459427 -0.527042 -0.156731 0.801901 0.576533 
-0.0217994 1.06311 0.25312 0.261715 -0.811505 -0.52246 
0.371579 -0.300093 -0.601019 -0.476627 0.553302 0.683143 
-0.287794 0.738012 0.226281 0.883918 -0.0569274 -0.464165 
-0.486125 0.249865 0.0871509 0.589599 -0.613881 -0.524904 
0.767206 -0.191251 -0.0212268 -0.921018 -0.154764 0.357455 
0.193906 -0.496011 -0.463397 -0.185844 0.816265 0.546968 
-0.347144 0.737716 -0.103236 0.918415 -0.355893 0.172785 
0.0169319 -0.235561 -0.738164 0.102069 0.353117 0.929995 
-1.0413 -0.227454 0.128673 0.872548 -0.112754 -0.475339 
0.633175 -0.697108 0.0844249 -0.47785 0.731085 0.487005 
-0.080748 0.296833 -0.630652 0.2764 -0.439046 0.854893 
-0.403562 -0.43499 0.26301 -0.0825901 0.490216 -0.867679 
0.762932 -0.561655 0.0849871 -0.745099 0.454789 0.487846 
-0.752659 0.172462 -0.157178 0.567719 -0.822401 0.036749 
-0.698124 -0.435086 -0.477061 0.264276 0.480045 0.836489 
-0.0598403 0.0729155 -0.72699 0.263838 -0.240658 0.934063 
-0.778842 0.116368 -0.27652 0.591641 -0.694689 0.409107 
-0.168567 0.960589 0.275565 0.571523 -0.587266 -0.573132 
0.282918 0.389451 0.352613 -0.417991 0.0293093 -0.907978 
0.792534 -0.534676 0.603177 -0.709003 0.302019 -0.637259 
-0.438075 -0.468368 0.24489 -0.131009 0.576468 -0.806549 
0.390886 -0.787998 0.167763 0.0560651 0.962249 0.266332 
0.167236 0.888763 -0.342815 -0.175743 -0.552106 0.815042 
-1.03149 -0.186912 -0.269545 0.805109 -0.281953 0.521826 
-1.07171 -0.356573 0.0318812 0.945451 0.204066 -0.253927 
0.530814 -0.0125077 0.496167 -0.184215 -0.746836 -0.638985 
0.855731 -0.492298 0.534993 -0.857759 0.208418 -0.469906 
-0.340768 0.05585 -0.616191 0.421032 -0.280394 0.862619 
-1.03931 -0.459488 0.0152225 0.865794 0.443013 -0.23268 
-1.0061 -0.41298 0.142654 0.790393 0.346783 -0.504995 
0.378842 -0.668359 -0.109711 -0.143306 0.8672 0.476893 
-0.770753 -0.170163 -0.478096 0.465487 -0.202884 0.861487 
-0.771515 0.142061 -0.235271 0.594901 -0.751171 0.286067 
0.883937 -0.340081 0.263508 -0.969081 -0.140645 0.202733 
-0.687735 -0.464182 0.277807 0.0169111 0.499933 -0.865899 
0.697084 -0.0243148 0.400342 -0.574843 -0.698922 -0.425516 
0.856839 -0.297657 0.18318 -0.94901 -0.168788 0.266252 
0.493939 0.460463 -0.292503 -0.868005 -0.294136 0.400064 
0.346044 1.0384 0.0603307 -0.690143 -0.721114 -0.0608008 
-0.0317466 -0.0753208 -0.754657 0.215322 -0.0168763 0.976397 
0.405412 0.0653835 0.446899 -0.148772 -0.646564 -0.748212 
