ply
format ascii 1.0
element vertex 498
property float x
property float y
property float z
property float nx
property float ny
property float nz
end_header
0.76264 -0.0633837 0.344644 -0.761527 -0.604146 -0.2347 
0.193611 -0.418401 -0.570888 -0.201444 0.756968 0.621627 
0.666441 -0.674568 0.614904 -0.419528 0.621096 -0.661994 
-0.364309 0.690313 -0.0111298 0.966712 -0.23199 -0.107927 
0.514075 0.216212 -0.420796 -0.843556 -0.282169 0.456939 
0.522644 -0.758745 0.111938 -0.190196 0.889761 0.414911 
0.347873 0.563412 0.324381 -0.64184 0.0353656 -0.766023 
0.65031 -0.760222 0.516915 -0.399065 0.805498 -0.438087 
0.414446 0.938973 -0.021483 -0.870905 -0.467444 0.151728 
0.203983 1.09759 0.15885 -0.299888 -0.900239 -0.315654 
-0.0460029 0.498241 0.407583 0.241711 0.0779854 -0.967209 
-0.671127 0.1539 0.0627905 0.361107 -0.810612 -0.460987 
0.874364 -0.474038 0.504465 -0.909137 0.15856 -0.385134 
-0.785317 -0.0271119 -0.407732 0.51566 -0.457638 0.724336 
0.299366 -0.600514 0.656304 0.511342 0.433135 -0.742242 
-0.956294 -0.43608 0.191083 0.658842 0.404217 -0.634457 
0.336933 -0.630459 -0.190635 -0.159932 0.858658 0.486958 
0.562332 -0.80803 0.262096 -0.184164 0.949547 0.253859 
-0.305241 0.0662001 -0.630154 0.418289 -0.274104 0.865969 
0.667981 -0.582024 0.680113 -0.416 0.393097 -0.820012 
-0.0997102 0.714544 -0.400161 0.394663 -0.446489 0.80305 
-0.348106 0.488602 0.135033 0.872372 -0.139432 -0.468537 
-0.445264 -0.381725 0.292205 -0.102683 0.387135 -0.916287 
0.482644 -0.0219216 0.517242 -0.110714 -0.758153 -0.642609 
-0.41178 0.0351692 -0.588286 0.421486 -0.294017 0.857848 
-0.177787 0.522105 0.34474 0.606444 0.0303183 -0.794548 
-0.826948 -0.462706 0.256524 0.2804 0.483009 -0.829505 
0.485334 0.550752 -0.244511 -0.887346 -0.282434 0.364484 
0.482416 -0.141188 -0.578477 -0.787441 0.122632 0.604068 
-0.72039 -0.641467 -0.229748 0.119034 0.930731 0.345791 
-0.397271 -0.585281 -0.361339 -0.0251905 0.87602 0.481617 
-0.828043 0.0284058 0.147871 0.415403 -0.729869 -0.542891 
0.293089 -0.78416 0.222505 0.242287 0.965177 0.0986468 
-0.860579 0.00498684 0.152514 0.457952 -0.697508 -0.551147 
0.38306 0.128355 -0.65053 -0.6334 -0.288637 0.717979 
-0.265067 0.811375 0.25067 0.847331 -0.172543 -0.502254 
0.335716 0.210015 0.366746 -0.307058 -0.407337 -0.860111 
0.413662 0.821683 -0.180721 -0.817543 -0.391443 0.422368 
0.501414 0.0665696 -0.522982 -0.844774 -0.203783 0.494803 
0.108092 0.888686 -0.349601 -0.0133736 -0.553982 0.832422 
0.177016 -0.478571 -0.494569 -0.175202 0.8104 0.559067 
-0.638271 -0.549855 -0.394946 0.128453 0.752528 0.645911 
-0.089933 0.492081 -0.523733 0.322082 -0.444514 0.835865 
-0.435475 -0.594192 -0.346879 -0.024047 0.883396 0.468011 
0.412435 -0.698202 -0.044492 -0.134433 0.875969 0.463257 
-0.617046 -0.630574 -0.275264 0.0351522 0.90818 0.417101 
-0.685177 0.115326 0.119779 0.299285 -0.795946 -0.526211 
0.0282216 0.497047 0.418663 0.0564125 0.102807 -0.9931 
0.34295 -0.789287 0.192947 0.140024 0.97104 0.193585 
-0.244217 0.549533 0.282486 0.756281 0.00455196 -0.654231 
0.112697 -0.404331 -0.608047 -0.108812 0.753672 0.648181 
0.298543 0.323334 0.348115 -0.398174 -0.110759 -0.910599 
0.851782 -0.259777 0.194286 -0.946139 -0.232991 0.224804 
0.126405 0.990749 0.35699 -0.130524 -0.629921 -0.765613 
-0.0231572 1.13079 0.0713952 0.234753 -0.96546 -0.113039 
-0.0928183 1.02884 -0.173109 0.425778 -0.698193 0.575535 
0.165308 0.905774 0.398905 -0.255175 -0.371508 -0.892674 
0.340884 -0.0736988 0.566734 0.108514 -0.624358 -0.773565 
0.307059 -0.092532 0.575166 0.169617 -0.576603 -0.799224 
0.128078 -0.657099 0.377673 0.66822 0.624055 -0.405016 
0.810828 -0.124758 0.286691 -0.883976 -0.466431 -0.0320662 
0.436107 0.87402 -0.0636166 -0.896811 -0.38126 0.224434 
0.657516 -0.0747489 -0.246565 -0.912932 -0.115712 0.391363 
-0.236803 -0.54665 -0.421491 -0.00377325 0.841324 0.540518 
-0.868412 -0.629357 -0.151121 0.363476 0.910706 0.196213 
-1.002 -0.168025 -0.299757 0.7401 -0.318544 0.592269 
-0.799107 -0.640553 -0.190613 0.223973 0.933493 0.280047 
0.472047 -0.614018 0.703812 0.0328233 0.478023 -0.877734 
-0.105894 0.118962 -0.698918 0.307983 -0.292506 0.90531 
-0.376289 0.0454936 -0.602213 0.421731 -0.286901 0.860134 
0.252954 -0.553496 -0.352111 -0.190177 0.838069 0.511345 
0.668999 -0.620086 0.657717 -0.417773 0.502534 -0.756918 
-0.00841481 -0.16264 -0.753763 0.166662 0.156443 0.973524 
-0.103059 0.841298 -0.324116 0.420955 -0.48538 0.766292 
0.843967 -0.213171 0.222771 -0.937878 -0.312773 0.150195 
-0.763682 0.159033 -0.199424 0.590154 -0.78763 0.177078 
-0.958549 -0.584655 -0.0851461 0.636372 0.771371 -0.00407608 
-0.0838549 0.359383 -0.596817 0.286854 -0.450409 0.845486 
0.503229 -0.069228 -0.553825 -0.840217 -0.0324064 0.541281 
-0.252077 0.806519 -0.228695 0.682953 -0.469595 0.559514 
0.266036 -0.591531 0.635601 0.597325 0.409613 -0.689507 
0.452451 0.801418 -0.106938 -0.900715 -0.33354 0.278323 
-0.787838 -0.465073 0.266032 0.191702 0.492735 -0.848801 
-1.0229 -0.499713 -0.0123431 0.826399 0.53279 -0.182209 
0.619686 -0.00850537 0.45032 -0.373885 -0.740487 -0.55847 
-0.899751 -0.0265485 0.156481 0.517508 -0.648313 -0.558459 
0.582904 -0.000876692 -0.390124 -0.894797 -0.128213 0.427669 
-0.0509378 1.12371 -0.0037259 0.314121 -0.944222 0.0988548 
0.0841029 0.50046 0.418436 -0.0790265 0.115777 -0.990126 
0.0925155 -0.377008 -0.640962 -0.0789295 0.714493 0.695176 
0.178755 0.513715 0.403218 -0.266314 0.133598 -0.954583 
0.792553 -0.219283 0.0328537 -0.925159 -0.165012 0.341836 
-1.01955 -0.173164 0.1443 0.806422 -0.273386 -0.52435 
0.12321 -0.448244 -0.550751 -0.117148 0.794554 0.595785 
0.296691 0.870523 -0.291414 -0.555778 -0.495924 0.667211 
-0.523332 0.21698 0.0895014 0.496889 -0.686083 -0.531405 
0.120836 -0.313658 0.560439 0.641026 0.023696 -0.767153 
-0.963548 -0.147257 -0.332167 0.675092 -0.343082 0.653105 
0.607565 -0.813314 0.373196 -0.274111 0.961687 -0.00463924 
0.109402 -0.350275 0.547536 0.672992 0.0927644 -0.73381 
0.379861 0.84017 -0.221391 -0.748361 -0.427047 0.50753 
-0.103197 0.875054 -0.301953 0.425437 -0.50883 0.748396 
-0.208379 0.915305 0.273183 0.68728 -0.454764 -0.566423 
-0.777718 0.0611243 0.138994 0.369282 -0.762322 -0.531504 
-0.0915395 0.526684 -0.504728 0.335812 -0.44115 0.832236 
0.637686 -0.394557 0.728764 -0.349138 -0.0284537 -0.936639 
0.309527 1.06432 0.0908464 -0.572681 -0.805228 -0.153766 
0.813711 -0.474616 0.102932 -0.848393 0.271489 0.454448 
-0.0794292 -0.448132 0.330108 0.546315 0.478203 -0.687649 
-0.24977 0.84727 0.260553 0.811423 -0.256536 -0.52515 
-0.786497 0.0179429 -0.375772 0.542291 -0.513208 0.665236 
0.466946 -0.176405 -0.587943 -0.740499 0.218881 0.635415 
-0.55279 -0.00533118 0.278252 0.221998 -0.473 -0.852636 
0.444411 0.840404 -0.08399 -0.900376 -0.354958 0.251652 
-0.0966868 1.00071 -0.201674 0.428177 -0.651057 0.626729 
-0.655481 0.139941 0.096854 0.317348 -0.804735 -0.501689 
-0.306285 0.591456 0.191964 0.86851 -0.0202607 -0.495258 
0.0332845 1.10543 0.197501 0.0947092 -0.910263 -0.403052 
0.512941 -0.779516 0.155963 -0.139992 0.918146 0.370689 
-0.277508 0.774852 0.239084 0.870175 -0.105489 -0.481318 
0.511891 0.25131 -0.402712 -0.844022 -0.290498 0.450819 
0.316902 0.145251 -0.689929 -0.443095 -0.323531 0.836059 
-0.087797 0.445857 -0.549137 0.307218 -0.447883 0.839654 
0.437967 -0.224955 -0.597231 -0.650353 0.358619 0.669652 
-0.110479 -0.516112 -0.46878 0.0104742 0.827184 0.561834 
0.749175 -0.17178 -0.0588482 -0.918085 -0.146458 0.368334 
-0.053932 0.0352396 -0.737142 0.254787 -0.186329 0.948876 
0.270862 0.535091 0.371582 -0.45737 0.136972 -0.878664 
-0.468943 -0.627609 0.0311351 -0.0839011 0.940904 -0.328118 
0.517668 0.11022 -0.473939 -0.849088 -0.235461 0.472872 
-0.0743695 -0.507341 -0.482278 0.00767605 0.824852 0.565297 
0.0936513 -0.46363 0.496996 0.742508 0.256817 -0.61865 
0.23536 -0.145058 0.58648 0.322346 -0.437052 -0.83969 
-0.37186 0.4249 0.115831 0.849312 -0.223699 -0.478151 
-0.388041 0.389063 0.106413 0.827396 -0.28417 -0.484421 
0.253247 -0.386688 -0.584829 -0.284283 0.707188 0.647355 
0.322048 0.246577 0.356489 -0.340803 -0.319103 -0.884322 
-0.727973 -0.46554 0.274883 0.0766813 0.500081 -0.862577 
0.793437 -0.0974313 0.310301 -0.847139 -0.520722 -0.10585 
0.476179 0.764157 -0.0591631 -0.948536 -0.282557 0.142969 
-0.070975 0.16524 -0.693647 0.270953 -0.347868 0.897537 
0.584794 -0.602955 0.698876 -0.207141 0.451066 -0.86812 
0.726418 -0.0379851 0.377404 -0.660597 -0.664547 -0.349267 
0.7033 -0.122994 -0.153203 -0.914734 -0.120592 0.385642 
-0.988783 -0.122048 0.153952 0.71059 -0.433587 -0.554134 
-0.524023 -0.659376 -0.152242 -0.0677068 0.99527 0.0696611 
-1.09555 -0.300753 -0.0722438 0.997042 0.0622841 -0.0450374 
0.0338321 -0.478375 -0.521424 -0.0410586 0.810067 0.584899 
-0.323033 0.607038 0.15906 0.897887 -0.049613 -0.437422 
-0.32591 0.567341 0.162289 0.875198 -0.0903048 -0.475261 
0.18483 0.849906 0.411118 -0.308899 -0.227382 -0.923515 
0.439658 0.00789139 0.495341 -0.104987 -0.682813 -0.72301 
0.515138 0.020925 -0.51598 -0.860583 -0.157185 0.484448 
0.138668 0.507093 0.411669 -0.187716 0.127545 -0.973907 
-0.489676 -0.164981 0.334534 0.0719508 -0.048587 -0.996224 
-0.783175 -0.06436 -0.430789 0.493019 -0.407056 0.76892 
-0.0101745 -0.490892 -0.505859 -0.01368 0.817849 0.575271 
0.422856 0.0352428 0.471006 -0.111375 -0.685219 -0.719771 
-0.182683 -0.533514 -0.441723 0.00487472 0.834769 0.550578 
0.113779 0.152015 -0.729315 0.0148637 -0.333155 0.942755 
0.663572 -0.536003 0.700031 -0.401151 0.277478 -0.872974 
0.225468 0.694165 0.410234 -0.389694 0.0263294 -0.920568 
0.515849 0.181005 -0.438732 -0.843208 -0.272536 0.463385 
0.42959 0.616197 0.22916 -0.831716 -0.0755913 -0.550032 
-0.471559 -0.602345 -0.333096 -0.0212857 0.888185 0.458993 
-0.51893 -0.0800979 0.316988 0.160756 -0.277995 -0.947036 
0.445874 -0.727058 0.0209996 -0.126304 0.886404 0.445348 
0.0688372 1.09504 0.224042 0.00208588 -0.898815 -0.438323 
-0.741016 0.179301 -0.118319 0.540532 -0.83802 -0.0744851 
0.47524 0.084143 -0.558261 -0.816206 -0.222757 0.533092 
-0.00420597 0.877941 -0.341438 0.222719 -0.538854 0.812424 
0.437431 0.805088 -0.144978 -0.866456 -0.355853 0.350176 
0.234976 -0.580931 0.612285 0.662793 0.388533 -0.640116 
-0.0201637 -0.12155 -0.756134 0.192888 0.0641208 0.979123 
0.706861 -0.630814 0.079209 -0.637219 0.589082 0.496925 
-0.451349 0.287839 0.088467 0.689859 -0.511164 -0.512646 
0.400007 0.96945 0.000385937 -0.842031 -0.529751 0.101721 
0.484413 0.694036 0.0810376 -0.959019 -0.165129 -0.230251 
-0.726551 0.0915628 0.128596 0.345353 -0.774548 -0.529912 
-0.742768 -0.303292 -0.502065 0.395354 0.0844213 0.914641 
0.596488 -0.722177 0.0911577 -0.386711 0.793894 0.469241 
0.431883 -0.614764 0.699789 0.129256 0.478201 -0.868687 
0.653979 -0.0127152 0.429634 -0.454574 -0.72961 -0.510912 
-0.491282 -0.651066 -0.0515362 -0.0876976 0.982309 -0.165463 
0.140212 -0.267692 0.57393 0.583877 -0.0854276 -0.807335 
0.0414476 -0.490204 0.422345 0.705792 0.385614 -0.594272 
0.53237 -0.609647 0.703968 -0.0950381 0.466624 -0.879335 
-0.0376383 1.12946 0.0338122 0.274914 -0.961383 -0.0128175 
0.786917 -0.524851 0.0912211 -0.792578 0.379211 0.477514 
0.274592 0.431204 0.359357 -0.42039 0.0922321 -0.902644 
-0.215187 0.822362 -0.255832 0.607825 -0.481301 0.631584 
0.272322 -0.115451 0.581965 0.239286 -0.516133 -0.822404 
0.549762 -0.164031 0.659696 -0.123274 -0.645398 -0.753833 
0.00829322 1.12163 0.144976 0.153753 -0.944568 -0.290088 
-1.04872 -0.426241 0.035961 0.888989 0.368403 -0.271989 
-0.849758 -0.09902 -0.404185 0.537922 -0.375982 0.754505 
-0.347166 -0.42904 0.259784 -0.0688913 0.504814 -0.860475 
-1.07165 -0.22291 -0.209817 0.922102 -0.186924 0.338803 
0.499203 -0.0827676 0.585766 -0.0798136 -0.725808 -0.683252 
-0.093795 0.575653 -0.477782 0.353992 -0.438871 0.825882 
0.902438 -0.391538 0.359031 -0.996985 -0.0692837 0.0349522 
-1.05069 -0.264342 0.115405 0.898707 -0.013857 -0.438331 
-0.760541 -0.226596 -0.493003 0.441244 -0.0942259 0.892427 
0.233602 0.654997 0.404723 -0.397692 0.0685073 -0.914958 
-0.708323 0.177335 -0.0258158 0.45542 -0.836804 -0.303895 
-0.361406 0.667605 0.0343009 0.960312 -0.176403 -0.216062 
-0.782804 0.0917774 -0.307211 0.583405 -0.639858 0.500219 
0.147679 -0.541648 0.529577 0.752554 0.355766 -0.55416 
-0.251739 0.0815683 -0.650793 0.405385 -0.269895 0.873396 
-0.54122 -0.654517 -0.1979 -0.0481448 0.981194 0.186921 
-0.815703 -0.0869362 -0.42148 0.508039 -0.38506 0.770471 
0.476527 0.633989 -0.199832 -0.897856 -0.28433 0.336172 
0.47725 0.675793 0.116419 -0.939145 -0.143807 -0.31197 
0.357998 0.157983 0.38851 -0.246849 -0.51953 -0.818018 
-0.60635 -0.595553 -0.338982 0.0702746 0.839175 0.539302 
0.5087 0.295049 -0.37994 -0.845692 -0.298517 0.442371 
-0.123007 1.0002 0.272369 0.46046 -0.68543 -0.564059 
0.505112 0.338699 -0.357017 -0.848838 -0.301554 0.434211 
0.267608 0.469241 0.367025 -0.411551 0.0890856 -0.907023 
-0.900939 -0.618665 -0.129947 0.451228 0.881494 0.139142 
0.869365 -0.315796 0.217649 -0.955949 -0.1606 0.245701 
-0.933017 -0.132811 -0.354212 0.630717 -0.355086 0.690007 
0.205806 -0.569143 0.587063 0.709148 0.372406 -0.598684 
-0.359513 -0.576311 -0.375548 -0.0221581 0.868723 0.494803 
-0.33762 0.623191 0.125278 0.91888 -0.0742427 -0.387489 
0.069689 -0.467084 -0.533574 -0.0692285 0.803964 0.590635 
-0.509357 -0.610483 -0.318463 -0.0100928 0.892954 0.450035 
0.841738 -0.398637 0.127383 -0.912811 0.0970513 0.396683 
-1.05365 -0.204435 -0.240816 0.863929 -0.242903 0.441163 
0.0179804 0.141821 -0.723692 0.160265 -0.322859 0.932779 
-0.295786 -0.425693 0.260602 0.0304589 0.524439 -0.850903 
-0.101641 0.773302 -0.365866 0.40783 -0.459745 0.788866 
0.520422 -0.115401 0.617778 -0.0888344 -0.714389 -0.694087 
-0.102717 0.90792 -0.278828 0.424089 -0.542115 0.725438 
-0.677599 -0.0428117 -0.48281 0.449687 -0.367082 0.814268 
0.566392 -0.008604 0.479012 -0.25717 -0.747454 -0.612516 
-0.884943 -0.11245 -0.384599 0.574206 -0.366968 0.731862 
0.830261 -0.434776 0.114755 -0.884889 0.183075 0.428316 
-1.09096 -0.319839 -0.0371202 0.986725 0.11163 -0.117954 
-0.097244 0.653293 -0.434755 0.377919 -0.439238 0.815013 
-0.763324 -0.642199 -0.209001 0.16968 0.934573 0.312701 
-0.639645 0.123958 0.129864 0.294118 -0.774903 -0.559481 
-1.03922 -0.390409 0.0974113 0.871148 0.291474 -0.395151 
-0.213255 0.535118 0.31474 0.688888 0.0167792 -0.724674 
-0.482879 0.0145267 -0.560464 0.42428 -0.315726 0.848707 
0.151538 -0.697641 0.343907 0.608448 0.727676 -0.316667 
-0.722138 0.181095 -0.0626078 0.492756 -0.842141 -0.219066 
-1.09641 -0.281305 -0.107527 0.999278 0.00747659 0.0372517 
0.216345 0.521401 0.392368 -0.32142 0.145127 -0.93575 
-0.11388 -0.439883 0.310583 0.481913 0.502729 -0.717651 
0.453228 0.640143 0.184383 -0.883294 -0.108095 -0.456188 
-0.450244 -0.345099 0.306622 -0.0790252 0.32127 -0.943685 
0.390557 -0.61337 0.69174 0.2399 0.472864 -0.847849 
0.238933 -0.768033 0.260112 0.372009 0.927641 -0.0330233 
0.53791 -0.795615 0.208495 -0.156904 0.930939 0.329749 
0.466715 0.657764 0.15098 -0.912705 -0.125294 -0.388935 
0.421934 0.112938 -0.617457 -0.725215 -0.261603 0.636889 
0.0761482 1.06419 0.278614 0.0115443 -0.837082 -0.546955 
0.269783 -0.569201 -0.319937 -0.186999 0.842902 0.504528 
-0.272951 -0.555437 -0.40798 -0.00952955 0.850149 0.526456 
0.671501 -0.665413 0.0802626 -0.560111 0.663279 0.496323 
-0.589073 0.171049 0.0995504 0.390501 -0.748167 -0.536428 
0.00364274 -0.199694 -0.747919 0.138285 0.251655 0.957887 
-0.230927 0.882208 0.268226 0.756061 -0.357633 -0.548152 
-0.187557 -0.428268 0.279732 0.306553 0.535586 -0.786875 
0.470869 -0.747771 0.070521 -0.124017 0.8956 0.427224 
-0.359226 0.716354 -0.0622364 0.953242 -0.300026 0.0362501 
-0.712671 -0.398804 -0.490439 0.307547 0.372903 0.875419 
0.578138 -0.813301 0.298638 -0.207499 0.960796 0.18389 
0.320165 -0.615248 -0.222982 -0.170001 0.854631 0.490617 
-0.447317 -0.576076 0.133784 -0.0993417 0.83847 -0.535816 
-0.622272 -0.573892 -0.367787 0.101107 0.797903 0.594246 
-0.0782347 0.254691 -0.652388 0.268497 -0.416403 0.86863 
0.720529 -0.141265 -0.117858 -0.915965 -0.130317 0.379507 
0.210789 -0.512916 -0.431889 -0.189224 0.824132 0.533854 
0.012481 -0.478262 0.396881 0.675617 0.405966 -0.615413 
-0.946889 -0.0713541 0.157933 0.610597 -0.558377 -0.561592 
-0.545617 -0.617818 -0.304194 -7.04382e-05 0.89592 0.444214 
-1.05511 -0.391694 0.0558541 0.906398 0.291701 -0.305536 
-0.149984 -0.433151 0.293582 0.393248 0.526367 -0.753852 
-0.533449 -0.0457457 0.302174 0.189888 -0.370349 -0.909277 
-0.587152 -0.456436 0.277243 -0.0936753 0.492672 -0.865158 
0.150853 0.941 0.385762 -0.210723 -0.474205 -0.854825 
-0.308972 0.774023 -0.170851 0.815455 -0.428309 0.389339 
-0.53617 -0.000975965 -0.539552 0.426688 -0.330798 0.841731 
-0.647481 -0.461742 0.278774 -0.0342013 0.49797 -0.86652 
-0.171359 0.838019 -0.281775 0.529958 -0.487385 0.693974 
0.395652 -0.683381 -0.0771402 -0.139228 0.871248 0.470682 
0.0321669 1.08548 0.237435 0.120983 -0.8687 -0.480336 
0.623292 -0.804636 0.418832 -0.322613 0.935226 -0.145857 
-0.133966 0.849506 -0.300198 0.47653 -0.488118 0.731205 
-0.677362 -0.480293 -0.45281 0.210318 0.598211 0.773246 
-0.752291 -0.26488 -0.499315 0.420734 -0.0115786 0.90711 
0.596379 -0.261364 0.712913 -0.237346 -0.39426 -0.887821 
0.066682 0.147912 -0.728191 0.0872717 -0.327991 0.940641 
-0.684354 -0.639003 -0.246266 0.0834291 0.925331 0.369867 
0.490679 0.495148 -0.274089 -0.875931 -0.288132 0.386942 
0.703594 -0.574286 0.662917 -0.510147 0.375946 -0.773573 
0.241144 0.615986 0.397822 -0.402085 0.0923899 -0.910929 
-0.0259039 -0.464334 0.366561 0.626889 0.437827 -0.644451 
-0.505139 -0.65783 -0.0967034 -0.0833426 0.994086 -0.0696164 
0.0851853 -0.510431 0.464768 0.736646 0.377557 -0.561073 
-0.296607 0.701002 0.212674 0.888695 -0.0387008 -0.456864 
-0.100899 0.95086 -0.245589 0.426032 -0.587679 0.687845 
0.739332 -0.593064 0.0813578 -0.701882 0.516465 0.490536 
0.763223 -0.549599 0.626245 -0.649353 0.326394 -0.686882 
0.17806 -0.556539 0.560563 0.736417 0.363229 -0.570749 
0.616884 -0.0334928 -0.326601 -0.90442 -0.116145 0.41053 
-0.0854337 0.393969 -0.577753 0.296362 -0.451419 0.84166 
-0.478737 -0.6402 -0.00691902 -0.0855375 0.96299 -0.255602 
-0.785279 0.0645028 -0.335731 0.569503 -0.589753 0.572589 
-0.0903941 1.02347 0.26762 0.392531 -0.733928 -0.554319 
0.593282 -0.815258 0.335706 -0.239648 0.966064 0.0963805 
0.517092 0.145654 -0.45648 -0.845524 -0.255426 0.468878 
-0.441438 -0.417527 0.275114 -0.120534 0.425402 -0.896942 
0.823465 -0.516343 0.574164 -0.773744 0.268432 -0.573816 
0.501856 0.375286 -0.337683 -0.852785 -0.303879 0.424753 
-1.08297 -0.338473 -0.00235529 0.969686 0.157737 -0.186621 
-0.215856 0.0915308 -0.664016 0.389281 -0.267253 0.881496 
0.646464 -0.433802 0.724838 -0.36932 0.0516293 -0.927867 
-0.931224 -0.603799 -0.107857 0.541841 0.837837 0.066608 
-0.00776025 1.12809 0.108607 0.195181 -0.959455 -0.203346 
0.299828 -0.356924 -0.593299 -0.352072 0.65917 0.664485 
0.660061 -0.721639 0.567349 -0.415718 0.719185 -0.556733 
-1.00081 -0.537981 -0.0417482 0.769539 0.627317 -0.119508 
0.205636 -0.750285 0.287315 0.461224 0.877179 -0.133526 
0.560137 0.0196508 -0.430287 -0.88582 -0.144693 0.440893 
-0.0800242 1.08129 -0.105714 0.40244 -0.814983 0.416946 
0.35265 0.852106 -0.248278 -0.691788 -0.451041 0.563908 
-1.05849 -0.338073 0.0835034 0.917511 0.165677 -0.361559 
-0.661943 -0.509813 -0.431623 0.174129 0.669725 0.721905 
0.488539 0.718423 0.0330981 -0.973603 -0.199152 -0.111513 
0.184548 0.154983 -0.725222 -0.104534 -0.336062 0.936021 
-0.0434314 0.871378 -0.333006 0.305114 -0.523445 0.795557 
0.853601 -0.329797 0.156837 -0.945027 -0.0919571 0.313797 
0.642109 -0.779933 0.482989 -0.376808 0.862447 -0.337935 
0.654006 -0.472794 0.717947 -0.385435 0.133588 -0.913014 
-0.440319 -0.536552 0.184927 -0.116746 0.741189 -0.661066 
-0.256442 -0.424889 0.26441 0.115585 0.534329 -0.837336 
0.429158 -0.712757 -0.0118247 -0.130565 0.880892 0.454953 
-0.0565867 1.04444 0.261171 0.332565 -0.772872 -0.540434 
0.486814 -0.770456 0.125292 -0.113071 0.916 0.384914 
0.56181 -0.741594 0.0997458 -0.300596 0.842891 0.446292 
0.451619 0.0980765 -0.586614 -0.77998 -0.240225 0.57786 
-0.723148 -0.0568464 -0.463522 0.463652 -0.377646 0.801505 
-0.0679946 0.12623 -0.708559 0.272844 -0.303415 0.91296 
0.351148 0.137827 -0.671925 -0.544088 -0.308246 0.780355 
-0.577443 -0.628267 -0.282263 0.00780378 0.90833 0.418181 
-0.0471494 -0.00280452 -0.745333 0.244227 -0.132384 0.960639 
0.633338 -0.0499434 -0.294655 -0.908089 -0.114645 0.402779 
0.11391 -0.620961 0.404135 0.700435 0.548863 -0.456223 
0.263154 1.08457 0.123453 -0.435544 -0.867155 -0.241544 
0.115367 -0.52539 0.495853 0.762414 0.358692 -0.538576 
0.158628 -0.434122 -0.561316 -0.155517 0.780475 0.605535 
-0.179586 0.101151 -0.676559 0.365438 -0.26838 0.891307 
-0.559397 -0.644088 -0.242001 -0.020047 0.951436 0.307192 
-0.0301864 0.134215 -0.716377 0.226784 -0.314452 0.921786 
0.0489569 0.884485 -0.348192 0.119578 -0.547701 0.828085 
0.581671 -0.226615 0.698819 -0.1925 -0.495622 -0.846937 
-0.583411 -0.0147952 -0.520882 0.431957 -0.344018 0.833706 
-0.277403 0.569362 0.239222 0.821507 -0.0063151 -0.570163 
0.0675883 -0.338768 -0.678628 -0.0314563 0.639377 0.768249 
0.480354 0.599317 -0.218521 -0.894246 -0.282109 0.347474 
0.474482 -0.0456179 0.547902 -0.0476935 -0.762369 -0.645383 
-0.447349 0.0248415 -0.574365 0.421598 -0.304573 0.854102 
-0.0685109 1.10538 -0.0604736 0.371515 -0.882663 0.287894 
0.103659 -0.582823 0.429527 0.727849 0.467843 -0.501357 
0.227662 -0.529395 -0.400125 -0.189913 0.830329 0.523915 
0.200764 0.795913 0.415486 -0.346734 -0.125861 -0.929481 
-1.05638 -0.301348 0.100265 0.91288 0.0768715 -0.400926 
0.303388 -0.600011 -0.255329 -0.176357 0.852519 0.492047 
0.223608 0.154589 -0.719288 -0.19098 -0.336459 0.922129 
0.381654 0.109503 0.41612 -0.192544 -0.59598 -0.779573 
0.0450967 -0.298204 -0.708565 0.0230042 0.536696 0.843462 
0.412743 -0.257569 -0.600641 -0.581346 0.446619 0.680123 
0.465707 0.720043 -0.152802 -0.902671 -0.298287 0.310176 
-0.555573 0.192959 0.0937061 0.423602 -0.733564 -0.531455 
0.68756 -0.10632 -0.185456 -0.915509 -0.115956 0.385225 
0.316563 0.550233 0.346877 -0.554709 0.0776345 -0.828415 
0.531595 0.0436516 -0.477505 -0.869692 -0.172016 0.462651 
0.309607 0.284464 0.350235 -0.373992 -0.211514 -0.90299 
-0.918465 -0.447908 0.217526 0.543124 0.440387 -0.714895 
0.566014 -0.194188 0.680764 -0.153782 -0.581013 -0.799234 
0.375598 -0.0573654 0.556515 0.0547763 -0.664776 -0.745032 
-0.0957389 0.61882 -0.453924 0.368103 -0.437967 0.820174 
0.341727 -0.325702 -0.598758 -0.418903 0.604227 0.677813 
0.611574 -0.303165 0.723541 -0.281865 -0.263383 -0.922595 
0.224059 0.884357 -0.327399 -0.344613 -0.538737 0.768768 
0.375771 0.578009 0.298674 -0.713936 -0.00302217 -0.700204 
0.096163 -0.422142 0.517251 0.723912 0.234602 -0.648778 
0.216633 0.733404 0.414007 -0.378469 -0.02368 -0.925311 
0.494339 -0.105431 -0.567003 -0.819333 0.0392338 0.571975 
-0.834291 -0.636434 -0.171322 0.285607 0.926706 0.244224 
0.438619 -0.0341101 0.534638 -0.00206017 -0.728172 -0.685391 
-0.336144 0.527909 0.148206 0.884607 -0.0806888 -0.459304 
0.286569 -0.584662 -0.287712 -0.182616 0.84715 0.498987 
-0.115248 0.506689 0.382681 0.437967 0.0526287 -0.897449 
-0.280031 0.792171 -0.203489 0.742818 -0.455895 0.490286 
-0.074389 0.203092 -0.677051 0.268042 -0.381256 0.884758 
-0.437953 -0.502319 0.218594 -0.125985 0.649693 -0.749684 
-0.456322 -0.307814 0.318391 -0.0536781 0.257387 -0.964816 
0.261901 0.152376 -0.710168 -0.287117 -0.335742 0.897129 
-0.778426 -0.115355 -0.457155 0.479366 -0.313265 0.819801 
-0.454068 -0.597752 0.0973498 -0.0898101 0.883451 -0.459836 
0.623546 -0.341346 0.728415 -0.313556 -0.1636 -0.93537 
0.484348 0.74652 -0.0231822 -0.968403 -0.246581 0.0373313 
-1.09177 -0.258077 -0.148914 0.985713 -0.0672746 0.154417 
-0.731976 -0.341432 -0.500951 0.365903 0.188315 0.911401 
0.352102 -0.609782 0.680114 0.357035 0.462296 -0.81167 
0.260169 0.878718 -0.311967 -0.454495 -0.520069 0.723162 
0.819517 -0.250239 0.0924316 -0.931115 -0.173708 0.320704 
0.472441 0.668498 -0.181099 -0.900901 -0.287996 0.324708 
0.497186 0.42572 -0.310942 -0.86007 -0.298761 0.413548 
0.511531 -0.0169885 -0.532584 -0.855912 -0.109728 0.505346 
-0.142916 0.110319 -0.688238 0.340719 -0.279132 0.897773 
-0.308972 -0.56416 -0.394504 -0.015489 0.858669 0.512297 
0.46057 0.754632 -0.133511 -0.901758 -0.310345 0.300863 
-0.47682 -0.21181 0.334765 0.025253 0.06424 -0.997615 
-0.087749 1.05487 -0.142907 0.420047 -0.746278 0.516362 
0.20593 -0.173586 0.587496 0.394878 -0.355799 -0.847041 
0.889918 -0.453157 0.468783 -0.95689 0.092751 -0.275243 
-0.146596 -0.524803 -0.45524 0.00897303 0.830956 0.556266 
0.105565 1.10012 0.208453 -0.0978021 -0.911402 -0.399725 
0.447303 -0.77999 0.141508 -0.0381114 0.939096 0.341536 
-0.3321 0.754807 -0.135407 0.879379 -0.390552 0.272327 
0.0975959 -0.547281 0.451304 0.741847 0.436326 -0.509198 
0.600087 -0.0171223 -0.358452 -0.900181 -0.12015 0.418615 
0.893867 -0.361021 0.302701 -0.981774 -0.118437 0.148633 
0.250215 0.566468 0.387787 -0.411807 0.15233 -0.898449 
0.382522 0.997852 0.0227449 -0.798471 -0.600331 0.0452504 
-0.352397 0.645362 0.0795228 0.943729 -0.124561 -0.306366 
0.400445 0.59351 0.270786 -0.769313 -0.0358704 -0.637864 
0.141893 1.10169 0.191356 -0.173061 -0.912973 -0.369501 
-0.583786 0.0494197 0.232052 0.26298 -0.600755 -0.75494 
0.174268 -0.72431 0.317758 0.550314 0.80002 -0.239001 
0.840608 -0.275992 0.141825 -0.939232 -0.174451 0.295651 
0.426269 0.907007 -0.0427916 -0.887991 -0.417781 0.192176 
-0.467486 -0.251472 0.330496 -0.0097138 0.149634 -0.988694 
-0.427472 0.320151 0.0923899 0.746716 -0.437532 -0.50098 
-0.618788 -0.0252136 -0.506769 0.436726 -0.353571 0.827199 
-0.406471 0.354029 0.0984905 0.796021 -0.351767 -0.492555 
-0.308504 0.645572 0.191654 0.896996 0.0234735 -0.441414 
-0.864963 -0.458421 0.243695 0.378843 0.471486 -0.796354 
-0.623694 0.105688 0.161411 0.296986 -0.726952 -0.619144 
-0.102477 0.807151 -0.345415 0.413817 -0.468802 0.780372 
0.901594 -0.423916 0.417469 -0.993795 0.00234586 -0.111202 
-0.599686 0.0736424 0.205321 0.278493 -0.653261 -0.704053 
0.172299 -0.214512 0.58432 0.485982 -0.236876 -0.841256 
-0.478029 -0.443914 0.269189 -0.162799 0.4769 -0.863749 
0.102023 1.03049 0.321715 -0.0578747 -0.747402 -0.661847 
-0.527018 -0.449772 0.273237 -0.116884 0.486694 -0.865717 
-0.686419 0.165499 0.0279103 0.398956 -0.821503 -0.40739 
-0.503717 -0.121094 0.328584 0.118369 -0.162395 -0.9796 
0.62306 -0.596181 0.691742 -0.28516 0.43515 -0.854007 
0.829561 -0.165409 0.255415 -0.917559 -0.393255 0.0586141 
0.356218 -0.647937 -0.153425 -0.151372 0.861802 0.484133 
0.159163 -0.459427 -0.527042 -0.156763 0.801889 0.576542 
-0.0217994 1.06311 0.25312 0.261687 -0.811452 -0.522557 
0.371579 -0.300093 -0.601019 -0.476597 0.553272 0.683188 
-0.287794 0.738012 0.226281 0.884052 -0.0570493 -0.463894 
-0.486125 0.249865 0.0871509 0.589397 -0.613692 -0.525351 
0.767206 -0.191251 -0.0212268 -0.92101 -0.154575 0.357558 
0.193906 -0.496011 -0.463397 -0.186132 0.816126 0.547077 
-0.347144 0.737716 -0.103236 0.918293 -0.356341 0.172511 
0.0169319 -0.235561 -0.738164 0.101325 0.352865 0.930172 
-1.0413 -0.227454 0.128673 0.872783 -0.113036 -0.47484 
0.633175 -0.697108 0.0844249 -0.477739 0.730961 0.4873 
-0.080748 0.296833 -0.630652 0.276359 -0.439016 0.854922 
-0.403562 -0.43499 0.26301 -0.0825902 0.490128 -0.867729 
0.762932 -0.561655 0.0849871 -0.745024 0.454716 0.48803 
-0.752659 0.172462 -0.157178 0.568062 -0.822172 0.0365864 
-0.698124 -0.435086 -0.477061 0.263955 0.479969 0.836635 
-0.0598403 0.0729155 -0.72699 0.263902 -0.240654 0.934046 
-0.778842 0.116368 -0.27652 0.591978 -0.694511 0.408921 
-0.168567 0.960589 0.275565 0.57162 -0.587402 -0.572896 
0.282918 0.389451 0.352613 -0.417971 0.0292788 -0.907989 
0.792534 -0.534676 0.603177 -0.708992 0.302013 -0.637274 
-0.438075 -0.468368 0.24489 -0.131011 0.576473 -0.806545 
0.390886 -0.787998 0.167763 0.0559832 0.9623 0.266165 
0.167236 0.888763 -0.342815 -0.175772 -0.551707 0.815306 
-1.03149 -0.186912 -0.269545 0.805125 -0.282678 0.521409 
-1.07171 -0.356573 0.0318812 0.945455 0.203907 -0.25404 
0.530814 -0.0125077 0.496167 -0.184203 -0.746827 -0.638998 
0.855731 -0.492298 0.534993 -0.857746 0.208031 -0.470101 
-0.340768 0.05585 -0.616191 0.420998 -0.280142 0.862717 
-1.03931 -0.459488 0.0152225 0.86575 0.443047 -0.232778 
-1.0061 -0.41298 0.142654 0.790433 0.346828 -0.504901 
0.378842 -0.668359 -0.109711 -0.143887 0.866988 0.477103 
-0.770753 -0.170163 -0.478096 0.465354 -0.202914 0.861552 
-0.771515 0.142061 -0.235271 0.59528 -0.750947 0.285868 
0.883937 -0.340081 0.263508 -0.969082 -0.140789 0.202631 
-0.687735 -0.464182 0.277807 0.016901 0.500121 -0.86579 
0.697084 -0.0243148 0.400342 -0.574882 -0.698826 -0.425621 
0.856839 -0.297657 0.18318 -0.949024 -0.168749 0.266227 
0.493939 0.460463 -0.292503 -0.867943 -0.294193 0.400156 
0.346044 1.0384 0.0603307 -0.690188 -0.721062 -0.0609125 
-0.0317466 -0.0753208 -0.754657 0.214971 -0.0169816 0.976473 
0.405412 0.0653835 0.446899 -0.148774 -0.64656 -0.748215 
