ply
format ascii 1.0
element vertex 800
property float x
property float y
property float z
property float nx
property float ny
property float nz
end_header
0.403648 -0.22932 -0.405098 0.923188 -0.384153 -0.0122586 
0.0892313 -0.247988 0.812297 0.09968 -0.630614 0.769669 
0.392518 0.150135 -0.634628 -0.865471 0.16156 0.474191 
0.438341 0.272 -0.7042 0.572652 0.709563 -0.410597 
0.419291 0.117091 0.172153 -0.983024 0.183469 0.00143259 
0.425155 -0.159833 -0.407467 0.973336 -0.229012 -0.0130923 
-0.241083 0.0724834 0.869093 0.418151 0.396372 -0.817337 
0.368054 -0.292641 -0.392575 0.811198 -0.584769 0.00131239 
0.509256 0.229082 -0.501489 0.979146 -0.158289 -0.127347 
-0.430292 0.18644 0.774633 -0.658758 -0.740496 0.133057 
-0.115882 0.280715 -0.864469 0.0914451 0.889913 0.44687 
0.353498 -0.128719 0.52262 -0.847438 0.521157 -0.101217 
0.140674 0.101772 0.919691 -0.183177 0.435749 -0.881232 
-0.419354 -0.179242 -0.466817 -0.964995 -0.260345 -0.0316956 
-0.157011 -0.287971 -0.810678 -0.277177 -0.519543 -0.808238 
-0.114662 0.202856 -0.902716 -0.147267 -0.294542 -0.944223 
-0.464248 0.113152 -0.420119 -0.998782 -0.0243979 -0.0428814 
0.0424475 0.131717 0.94815 -0.0665558 0.486713 -0.871023 
0.431821 -0.128801 -0.29696 0.980768 -0.194978 0.00881624 
-0.4062 0.0344098 -0.274451 0.985144 0.170998 -0.015828 
-0.394709 0.140231 0.705829 0.956801 0.262505 -0.124995 
-0.302578 -0.185452 -0.539005 0.557864 0.827045 0.0691718 
-0.452486 0.0183452 0.112869 -0.9928 -0.117191 -0.0247958 
0.175956 -0.227589 0.140672 -0.129243 0.991613 0.000780619 
0.241131 -0.214592 0.238152 -0.267708 0.963499 -0.00139687 
-0.413422 0.0795875 -0.343644 0.988619 0.147571 0.0292542 
-0.0177272 -0.213796 -0.710749 0.00884811 0.964465 0.264061 
0.0690964 0.278738 -0.860903 -0.0893576 0.787391 0.609943 
-0.214781 -0.00391205 0.906534 -0.325202 -0.368584 0.870856 
-0.00364498 -0.234283 -0.343732 0.000705641 1 0.000480463 
-0.447632 -0.0219572 -0.22831 -0.99461 -0.103643 -0.00304562 
-0.393475 -0.251764 0.16434 -0.893301 -0.449262 0.0132758 
0.45245 0.0175986 -0.392076 0.992742 -0.119865 -0.00974269 
-0.496047 0.19906 0.580754 -0.895937 -0.423997 0.132376 
-0.355083 -0.12126 0.543063 0.860005 0.496597 -0.117399 
-0.0776714 -0.233761 -0.180487 0.0193893 0.999812 -0.00020242 
-0.302386 0.127039 0.855882 0.619928 0.376046 -0.688679 
0.036946 -0.195838 0.678061 -0.00384934 0.930171 -0.367108 
0.381112 -0.273783 0.305755 0.855033 -0.518505 -0.00841635 
0.141486 -0.230919 0.35311 -0.0764863 0.99707 -0.000897993 
0.44324 -0.0516117 -0.45457 0.992255 -0.120631 -0.0296384 
0.270796 -0.0312719 -0.81376 0.526321 -0.0480947 -0.848925 
-0.0988375 -0.233185 -0.422038 0.0321725 0.999481 -0.00160966 
0.064246 -0.234007 0.0728179 -0.0124826 0.999921 0.00123861 
0.357584 0.16234 0.809961 -0.796416 0.217531 -0.564272 
-0.347847 -0.145885 -0.0294974 0.805884 0.592068 -0.0025932 
0.419549 -0.176219 -0.483983 0.965695 -0.257264 -0.0353339 
-0.383821 -0.0696633 -0.432699 0.957636 0.287569 0.0154056 
-0.354049 -0.136721 -0.263946 0.832536 0.553961 0.00335435 
-0.00731095 -0.234248 0.383498 0.000486161 0.999989 -0.00469039 
0.0445416 -0.0134788 -0.885685 0.113086 -0.0114749 -0.993519 
0.412722 0.0746695 0.326679 -0.986718 0.162413 0.00322837 
-0.423025 0.142262 0.182972 0.993299 0.106984 0.0437121 
-0.400602 -0.234911 0.405724 -0.916119 -0.40064 0.0146074 
-0.243229 -0.21354 0.424157 0.271577 0.962286 -0.0158927 
0.1788 -0.131711 0.757589 -0.215082 0.713031 -0.667328 
0.386139 -0.0627903 -0.141555 -0.960326 0.278876 -0.00134444 
-0.309375 -0.0778535 0.724706 0.675879 0.474533 -0.563921 
-0.0838006 -0.29544 -0.82442 -0.148201 -0.546042 -0.824545 
0.306766 -0.185878 -0.385847 -0.561339 0.82757 0.00505755 
0.375872 0.0680797 0.711549 -0.915758 0.237812 -0.323779 
0.239182 0.153493 0.911077 -0.461003 0.427018 -0.777903 
0.061963 -0.234031 -0.241019 -0.0126104 0.99992 -0.000232905 
0.00654496 -0.233273 0.452767 -0.00031647 0.999635 -0.0270284 
0.427144 0.0307139 0.681642 0.941346 -0.19252 0.277137 
0.449241 -0.00877315 0.173344 0.99275 -0.120193 -0.000131763 
0.331535 -0.0666547 0.807999 0.66466 -0.30194 0.683417 
-0.188935 0.118333 -0.856248 -0.484359 -0.0929918 -0.869913 
-0.207118 -0.198326 0.625913 0.194885 0.943044 -0.269606 
-0.0645532 -0.0467314 0.921764 -0.0834629 -0.379558 0.921395 
0.429283 0.184984 0.0592323 -0.99692 0.0784245 0.000232766 
-0.412737 -0.0752412 0.661178 -0.938242 -0.203335 0.279922 
0.469814 0.279904 0.688971 -0.0142299 0.999159 -0.0384596 
-0.101248 -0.221452 -0.663027 0.0650749 0.982964 0.171892 
0.251635 -0.0337017 0.878052 0.406141 -0.362976 0.838629 
-0.185033 -0.226283 -0.229259 0.142118 0.989848 0.00166576 
0.423505 -0.166504 0.178927 0.971906 -0.235297 0.00586447 
-0.0182282 -0.227273 -0.64115 0.00401027 0.992154 0.124958 
0.512527 0.201752 -0.374152 0.933325 -0.356071 -0.0460298 
-0.340894 -0.0167908 -0.686699 0.818735 0.138591 0.557195 
0.150105 -0.230239 0.25481 -0.08814 0.996108 -0.00056004 
-0.335671 -0.28807 0.624365 -0.702802 -0.637765 0.31516 
0.421748 0.133487 -0.120861 -0.990416 0.135714 0.0256293 
-0.344803 -0.15011 0.0445843 0.785689 0.61861 0.00385779 
-0.33476 0.227436 0.876786 0.702964 0.430948 -0.565796 
-0.110719 -0.120615 0.884212 -0.144092 -0.411858 0.899784 
-0.276972 -0.190686 0.563622 0.422087 0.893519 -0.15319 
-0.246177 -0.213123 -0.0892555 0.284384 0.958684 0.00714201 
0.446774 0.265139 0.137745 -0.777084 0.629396 0.000782065 
-0.472843 0.280404 0.315118 0.475425 0.879308 -0.0280897 
0.391708 -0.0421525 0.330625 -0.9732 0.229946 0.00259454 
-0.431322 -0.131317 -0.111338 -0.98098 -0.193993 0.00671193 
0.0548727 -0.233231 -0.546695 -0.0115119 0.999587 0.026321 
0.193926 0.251246 -0.8826 0.369605 -0.0758119 -0.926091 
-0.389604 -0.0499244 -0.284954 0.970708 0.240262 0.000361012 
-0.00372286 -0.151578 -0.881224 0.00667132 -0.109448 -0.99397 
-0.447135 -0.0259724 -0.0161461 -0.990262 -0.139168 -0.00370094 
-0.269393 -0.0344061 -0.757216 0.59552 0.0924392 0.798005 
-0.251978 -0.211371 0.191265 0.30245 0.95316 0.00320783 
0.241419 -0.100061 0.854582 0.387126 -0.370505 0.84431 
0.0381448 -0.16274 -0.798928 -0.0591959 0.644972 0.76191 
-0.512515 0.201431 -0.226913 -0.941211 -0.337018 0.0232605 
0.435616 -0.10778 0.0937711 0.984977 -0.172643 -0.00390995 
0.420183 0.123143 -0.319955 -0.990275 0.136409 0.0273627 
-0.361122 -0.29643 -0.521059 -0.796466 -0.6004 -0.0718443 
-0.409778 0.0574691 0.421233 0.987295 0.156182 -0.0292496 
-0.10211 0.280781 1.04984 0.0877343 0.96385 -0.251586 
-0.413606 -0.173171 0.546199 -0.956184 -0.270016 0.11315 
0.217225 -0.205756 -0.651538 -0.260632 0.940441 0.21827 
-0.467192 0.134868 -0.125909 -0.951966 -0.306196 -0.00215857 
0.428057 0.186058 0.780397 0.676442 -0.736495 0.00152635 
-0.188996 -0.0893404 -0.794016 0.400448 0.20707 0.892616 
0.429852 0.189075 -0.403411 -0.99592 0.0890977 -0.0143357 
-0.348063 -0.145712 0.331054 0.804956 0.593317 0.00463736 
-0.424991 -0.160299 0.149061 -0.973993 -0.226554 -0.0033678 
0.297684 -0.159205 -0.780715 0.614575 -0.155565 -0.773368 
0.421862 0.145556 -0.47895 -0.985359 0.167746 0.0304905 
0.148225 -0.207203 0.831033 0.192953 -0.52688 0.827748 
-0.24998 -0.212023 0.326958 0.29795 0.954577 -0.00292646 
-0.0181877 0.162875 0.964718 0.0346884 0.450552 -0.892076 
-0.320376 -0.175701 -0.196841 0.639384 0.768885 0.00229416 
-0.450194 0.132414 0.657972 -0.950634 -0.246281 0.188785 
0.33155 -0.0106619 0.746072 -0.760671 0.361469 -0.539184 
-0.307024 0.0452003 0.877516 -0.579998 -0.328652 0.74538 
-0.386249 -0.00245887 0.766793 -0.843282 -0.254531 0.473381 
0.405894 -0.100119 -0.646531 0.929447 -0.14161 -0.340697 
0.297029 0.254741 1.01345 0.325081 -0.116335 0.938503 
-0.433026 0.211399 0.323863 0.983088 0.183128 -0.00138371 
0.103473 0.191127 -0.83379 -0.108676 0.0148088 0.993967 
0.0595429 0.0497128 -0.839754 -0.0447154 -0.136023 0.989696 
0.180451 0.120412 -0.812269 -0.279808 0.0961868 0.955225 
0.486268 0.226955 0.737455 0.813483 -0.504248 0.289793 
-0.47355 0.183643 -0.433054 -0.851251 -0.523733 -0.0328023 
-0.0168771 -0.150077 0.759298 0.0109409 0.7895 -0.613653 
-0.370038 -0.0289282 -0.621619 0.928554 0.191873 0.317761 
-0.433805 0.200412 0.875277 -0.776005 -0.517796 0.360144 
0.284661 -0.176187 -0.647428 -0.570107 0.768078 0.291607 
-0.327701 -0.169144 0.113786 0.683113 0.730305 0.0034211 
0.0389985 0.265686 1.08 0.0854168 0.769441 0.632981 
-0.409151 0.0525165 -0.0451199 0.990088 0.140395 -0.00398153 
0.477222 0.281153 0.283754 -0.194462 0.98084 0.0117181 
-0.104591 -0.108443 -0.816902 0.222441 0.300445 0.927498 
0.392583 -0.241769 0.511696 0.898224 -0.431163 0.0853901 
-0.0222856 -0.234283 -0.114309 0.00288691 0.999996 3.81393e-05 
-0.0445646 -0.148333 -0.808767 0.0818692 0.547167 0.83301 
0.450157 0.207833 0.844615 0.742138 -0.631493 0.224606 
0.374978 -0.0627554 -0.57259 -0.951013 0.258093 0.170184 
0.163325 -0.204545 -0.700803 -0.189397 0.93012 0.314653 
-0.485882 0.20274 -0.624625 -0.741689 -0.577427 -0.341285 
-0.282097 0.28064 -0.814608 0.245995 0.931223 0.268904 
-0.0682184 0.196999 1.05301 -0.0832058 -0.805186 0.587156 
0.166378 -0.22863 0.0664888 -0.112562 0.993645 0.000261287 
0.394116 0.200042 -0.731431 0.474571 -0.532052 -0.701215 
0.457131 0.0560592 0.202942 0.995348 -0.0958254 -0.00995382 
-0.407441 0.0417756 0.167948 0.98537 0.170331 -0.00580014 
0.413028 0.0766903 -0.0775024 -0.984473 0.175348 -0.00814341 
0.285901 -0.197851 0.371895 -0.450122 0.892967 -0.000770323 
0.434625 0.222272 -0.139157 -0.973939 0.225087 0.0278969 
0.312934 -0.179998 -0.504973 -0.609732 0.791995 0.0311397 
-0.457176 0.0565182 -0.210783 -0.98685 -0.161614 -0.00271562 
0.43293 -0.0822049 0.546107 0.981565 -0.160599 0.103623 
0.203871 -0.223137 0.394449 -0.174376 0.984669 -0.00444102 
-0.421141 0.129732 -0.248838 0.985279 0.170733 0.00874015 
-0.235465 -0.0494935 -0.832506 -0.451661 -0.0579864 -0.890303 
-0.51108 0.223732 0.508768 -0.942116 -0.331384 0.0510169 
0.0849471 -0.233607 0.00118961 -0.0227747 0.999741 -2.12268e-05 
-0.348928 -0.144166 -0.415879 0.808201 0.588857 0.00760909 
0.450508 0.00264534 0.341284 0.986323 -0.163338 -0.0220847 
-0.471862 0.169384 0.00864128 -0.840157 -0.464806 0.279447 
-0.255104 -0.210276 -0.163346 0.316364 0.948632 -0.00336316 
0.0148031 -0.0459511 0.924718 0.0197206 -0.385458 0.922515 
0.0214887 -0.234284 0.185909 -0.00258353 0.999996 -0.000717032 
0.446617 -0.0299011 0.264331 0.99311 -0.116484 0.0127701 
-0.479702 0.28088 -0.108136 0.0918285 0.993421 -0.0684229 
0.379613 -0.0831919 -0.308868 -0.946409 0.322971 0.000222133 
-0.0434066 0.236937 1.00071 0.0341855 0.518351 -0.854485 
0.282921 0.127405 -0.813879 0.355886 -0.00821036 -0.934493 
-0.411945 -0.206353 0.249376 -0.944842 -0.327512 -0.00297816 
0.367367 -0.293593 -0.188443 0.810157 -0.586131 -0.00975199 
0.373435 -0.130055 -0.702804 0.841243 -0.161107 -0.516095 
-0.42454 -0.162309 -0.379017 -0.974807 -0.22304 0.00209842 
-0.347266 -0.0498911 -0.751216 -0.727789 -0.0899092 -0.679882 
0.378227 -0.0874532 0.276963 -0.941392 0.337314 0.000498916 
-0.0130497 -0.234284 0.10694 0.00166917 0.999999 0.0003136 
-0.438215 0.243471 0.0905772 0.917032 0.394862 -0.0559982 
-0.405848 0.032018 0.349734 0.982667 0.184334 0.019654 
-0.261573 0.090519 -0.7728 0.544209 0.0596058 0.83683 
-0.398455 -0.234898 -0.509256 -0.914934 -0.397989 -0.0670809 
0.244855 0.0432183 0.851374 -0.430375 0.388108 -0.814954 
-0.0260289 -0.0234476 0.865786 0.0278029 0.52977 -0.847686 
0.376609 -0.280847 -0.11371 0.836609 -0.547786 0.00411475 
0.373117 -0.097549 0.45946 -0.926696 0.374744 -0.0282934 
0.512558 0.230397 0.133465 0.981669 -0.171869 0.0823797 
0.055092 -0.215866 -0.699791 -0.0266257 0.971532 0.235406 
-0.472433 0.280333 -0.331834 0.261077 0.965315 0.0023191 
0.366815 0.254851 0.852538 -0.669719 0.620256 -0.408361 
0.385013 -0.0663479 -0.409897 -0.9606 0.277873 0.00587519 
-0.191723 -0.153702 0.848872 -0.283374 -0.434006 0.855183 
0.25321 -0.210954 -0.0906433 -0.310582 0.950539 -0.00386253 
0.263648 -0.287677 0.714922 0.425096 -0.695187 0.579663 
0.0514515 -0.249907 -0.854932 0.100823 -0.389006 -0.915701 
-0.10126 -0.233098 0.265372 0.0355471 0.999368 0.000179498 
0.0770351 0.0486635 0.960042 0.0987554 -0.384246 0.917934 
0.066894 -0.174021 -0.873455 0.137189 -0.151081 -0.978955 
-0.332477 0.280765 0.947004 0.185587 0.929512 -0.318694 
0.176426 -0.227522 -0.00301392 -0.127657 0.991817 -0.00180194 
-0.00615696 -0.234283 -0.416109 0.000998183 0.999999 -0.000961689 
0.202929 -0.27418 0.761946 0.260043 -0.677253 0.688263 
0.00503456 -0.271022 0.797221 -0.00209533 -0.686223 0.727388 
0.242558 -0.160587 0.689953 -0.340644 0.80209 -0.490523 
0.326152 0.0695023 0.800988 -0.729395 0.302764 -0.613447 
-0.341894 -0.148822 0.755782 -0.715581 -0.348533 0.605366 
0.283228 0.202699 -0.765872 -0.483727 0.00437699 0.875208 
0.369978 -0.103319 -0.488194 -0.919163 0.39161 0.0422137 
0.42003 0.122019 0.02972 -0.982864 0.183691 -0.0153872 
0.247768 -0.212674 0.312892 -0.288935 0.957346 0.0021114 
-0.389674 -0.0498328 -0.0595356 0.968542 0.248849 0.00106823 
0.416563 -0.192363 -0.212856 0.958604 -0.284635 -0.00783247 
-0.365315 -0.295803 0.246507 -0.811287 -0.584608 0.00690038 
-0.38986 -0.259181 0.0832972 -0.878349 -0.477769 -0.0154875 
0.42461 -0.057933 0.627161 0.961742 -0.181242 0.205435 
-0.230024 -0.190691 -0.818838 -0.465452 -0.200238 -0.862125 
0.50092 0.273468 0.363914 0.570057 0.815002 0.103953 
-0.0796875 -0.195903 -0.750524 0.0875698 0.879237 0.468266 
0.340632 -0.155165 -0.303979 -0.761079 0.648644 -0.00440288 
0.395236 -0.236268 -0.540358 0.908764 -0.403346 -0.107051 
0.212632 -0.169569 -0.831868 0.421792 -0.144007 -0.895184 
0.510236 0.254503 0.199518 0.978336 0.200794 -0.0504002 
-0.173118 -0.227897 0.327273 0.122173 0.992508 0.00128236 
0.318304 0.049279 -0.785702 0.628494 -0.0863413 -0.773007 
0.103992 -0.0996892 0.804392 -0.109028 0.644968 -0.756392 
-0.449708 0.277608 0.653934 0.6813 0.719074 -0.136977 
0.0936626 -0.233374 -0.0717498 -0.0285208 0.999593 0.000294106 
-0.04615 -0.225208 -0.864107 -0.103678 -0.307749 -0.945802 
-0.342205 -0.240909 -0.699319 -0.778731 -0.389001 -0.492195 
-0.345811 -0.293009 -0.618944 -0.776613 -0.584302 -0.235507 
0.51256 0.204164 -0.131531 0.878102 -0.460091 -0.13135 
0.423648 0.146207 0.34089 -0.992993 0.117985 0.00661907 
0.0992878 0.280091 1.04137 -0.0974674 0.980601 -0.170064 
0.25209 -0.211347 -0.00481551 -0.305176 0.952296 0.000683433 
-0.385366 -0.266815 -0.145296 -0.868668 -0.495356 -0.00622219 
-0.326208 -0.109009 -0.66787 0.814051 0.371963 0.446054 
-0.409608 -0.21362 -0.190881 -0.940563 -0.339589 -0.00443242 
0.378543 -0.277512 0.383123 0.84933 -0.527619 0.0160061 
0.261499 -0.185813 0.615918 -0.372928 0.888895 -0.266064 
0.407772 0.0435762 0.146844 -0.988079 0.153785 -0.00708622 
-0.42264 0.142253 0.450018 0.990054 0.140683 0.000842814 
0.356722 -0.294347 -0.569772 0.795006 -0.589314 -0.143788 
0.482488 0.280421 -0.442902 0.0427204 0.999065 -0.0066005 
0.120657 -0.232243 -0.151729 -0.0529079 0.998599 0.000272403 
-0.336283 -0.0848169 0.794767 -0.680432 -0.313388 0.66242 
0.451158 0.049594 -0.527158 0.991645 -0.114148 -0.0600807 
0.455964 0.280951 -0.610864 -0.0244661 0.998253 -0.0537744 
-0.438802 -0.0845796 0.409416 -0.988825 -0.148332 0.0149108 
0.266054 -0.205427 0.458868 -0.354351 0.934287 -0.0392822 
-0.365813 -0.295327 -0.211886 -0.810457 -0.585716 -0.00981071 
-0.380823 -0.0482192 0.567102 0.955847 0.263594 -0.129904 
-0.295082 -0.143642 0.667897 0.574632 0.6957 -0.431046 
0.355528 -0.205881 -0.700911 0.818351 -0.277759 -0.503141 
-0.394072 -0.0312696 -0.359377 0.976709 0.214566 -0.000253777 
-0.27363 -0.281341 -0.747957 -0.572937 -0.507269 -0.643756 
-0.411294 -0.208655 -0.105745 -0.945107 -0.326758 0.00137381 
0.0903092 -0.233492 -0.431042 -0.0264317 0.99965 -0.000900285 
-0.0865705 -0.0721125 0.828437 0.0907693 0.591026 -0.801529 
-0.378009 -0.0163609 0.629786 0.941489 0.240354 -0.236281 
-0.254862 0.207153 1.03661 -0.314346 -0.811491 0.492614 
0.416797 -0.191554 -0.0683474 0.958586 -0.2848 -0.00132211 
0.463376 0.279901 0.604152 -0.39015 0.920465 0.0229434 
0.41525 -0.134075 0.597788 0.955308 -0.225962 0.190599 
0.454342 0.0331323 -0.0366344 0.99666 -0.0816241 -0.00241686 
0.44754 0.170668 0.70714 0.717752 -0.576477 0.39052 
-0.419172 -0.112995 0.601383 -0.96146 -0.2003 0.188349 
-0.457177 0.0565566 0.0312433 -0.995436 -0.0682384 0.0667203 
-0.438347 0.280125 0.761707 0.365219 0.930667 -0.0217794 
0.213591 0.0914415 0.947648 0.295409 -0.288942 0.910629 
0.0901937 0.197532 1.05905 0.068786 -0.753872 0.653411 
-0.43561 0.229437 0.0172949 0.97482 0.220234 0.0349724 
-0.265097 -0.246803 0.755601 -0.438385 -0.586418 0.681126 
-0.307935 0.0460232 0.807121 0.65761 0.363354 -0.659942 
-0.426444 0.184691 -0.496109 0.990183 0.0738348 0.118683 
-0.254216 -0.210588 -0.238273 0.315807 0.948822 0.00151532 
0.250936 -0.0272554 0.807704 -0.442783 0.483485 -0.755106 
-0.155502 -0.0586764 0.825703 0.209962 0.554176 -0.805484 
0.4493 -0.00852624 -0.234381 0.992951 -0.117777 -0.0133072 
0.124088 -0.0413316 -0.872736 0.199373 -0.00482458 -0.979912 
0.177291 -0.227398 -0.0987408 -0.128219 0.991744 0.00180723 
-0.49224 0.199129 -0.54846 -0.833715 -0.550592 -0.0420408 
-0.400266 0.254345 -0.6527 0.747034 0.510313 0.426054 
-0.512515 0.222148 0.262447 -0.961777 -0.273285 0.0173527 
-0.388919 0.251912 0.806315 0.766235 0.555451 -0.323046 
0.499816 0.219855 0.659924 0.848862 -0.528206 0.0207985 
0.510076 0.205225 0.53374 0.864657 -0.45972 0.202549 
0.106407 0.117514 -0.827017 -0.103291 0.0354812 0.994018 
-0.0623849 -0.234026 0.201417 0.0128941 0.999917 -0.00033088 
-0.450122 0.00566506 0.446468 -0.993657 -0.110356 0.0215951 
8.42617e-05 0.264343 -0.907798 -0.0797564 0.557605 -0.826266 
-0.47334 0.280582 0.47005 0.519109 0.85469 0.00558464 
0.261536 -0.208025 -0.434664 -0.342541 0.939497 0.00336119 
-0.299654 -0.190382 -0.389267 0.524262 0.851556 0.00137857 
0.471909 0.169462 0.193718 0.868054 -0.477866 0.134633 
-0.401029 0.0473624 0.570222 0.978098 0.184026 -0.097261 
-0.0404362 0.201785 -0.91138 -0.0655429 -0.247319 -0.966715 
0.512539 0.19926 0.367708 0.935821 -0.349006 -0.0493276 
0.466063 0.125963 -0.0663234 0.935655 -0.352228 0.0220062 
0.419117 0.11818 0.443342 -0.982503 0.185415 -0.0176022 
-0.37606 -0.164456 -0.685833 -0.864732 -0.20648 -0.457825 
-0.418641 0.268628 0.889395 -0.537764 0.78956 0.295645 
0.364727 -0.29651 0.239081 0.802503 -0.5966 -0.0075732 
0.401402 -0.0327243 0.71986 0.907319 -0.191427 0.374336 
-0.0659451 -0.214911 0.838815 -0.0707719 -0.554754 0.828999 
-0.269832 -0.137563 -0.720079 0.605667 0.500508 0.618594 
-0.457715 0.0709102 0.476064 -0.986053 -0.164913 -0.0224087 
-0.17603 -0.150445 -0.850061 -0.343012 -0.132036 -0.930005 
-0.37806 -0.278787 -0.0755641 -0.848171 -0.529639 0.00940582 
0.00240803 -0.234284 0.269351 -0.000177818 1 0.000272075 
0.299207 -0.0931506 -0.715286 -0.711018 0.241505 0.660401 
-0.330306 0.219341 0.994092 -0.49168 -0.703708 0.51288 
-0.189402 0.00444026 -0.805458 0.392866 0.0872948 0.915443 
-0.416614 0.0999987 -0.172759 0.98543 0.170016 0.00476584 
-0.166477 -0.220588 -0.838839 -0.312121 -0.280256 -0.907765 
0.364547 0.163807 0.879843 0.476308 -0.609913 0.633353 
-0.368949 -0.108356 0.433528 0.907459 0.41966 -0.0200828 
-0.0934019 -0.0167435 -0.879359 -0.204528 0.0109906 -0.978799 
-0.42925 0.185048 0.242787 0.994187 0.10674 0.0140827 
-0.271696 0.222756 -0.773974 0.490989 0.195105 0.849037 
0.343916 -0.282069 -0.648504 0.779677 -0.542109 -0.313403 
-0.138401 0.0637281 -0.824361 0.21107 -0.0636006 0.9754 
0.322998 0.280725 -0.789606 -0.0975049 0.994754 0.0309462 
0.501031 0.273404 -0.374487 0.542629 0.839898 0.0112151 
-0.391623 -0.0423761 0.197323 0.975161 0.221495 0.000471401 
-0.00332843 0.209628 1.08626 -0.0188568 -0.690707 0.722889 
-0.509539 0.25725 -0.27601 -0.896218 0.443421 0.0130765 
0.0782201 -0.23348 0.415707 -0.0195012 0.999751 -0.0108735 
-0.429925 -0.137932 0.0536425 -0.981677 -0.189878 0.0160184 
0.445004 -0.0433697 -0.0643759 0.989514 -0.144313 0.00600608 
0.445158 -0.0422012 -0.315053 0.992591 -0.12142 -0.00448313 
0.0112196 -0.234283 -0.0524146 -0.00160137 0.999999 -0.000320473 
-0.233974 -0.216647 -0.394312 0.247474 0.968892 0.00221913 
0.402883 -0.231201 0.0699195 0.920841 -0.389937 0.000434532 
-0.437431 -0.0962701 -0.0259769 -0.988651 -0.150211 -0.0022448 
-0.0178356 -0.234283 -0.270874 0.00240336 0.999997 -0.000117868 
0.0900717 -0.213148 0.618397 -0.0371484 0.973185 -0.227004 
0.342869 0.113354 -0.770501 0.705948 -0.0392204 -0.707177 
0.36032 -0.126558 -0.173748 -0.870164 0.492749 0.00362576 
0.479263 0.280948 -0.147155 -0.229665 0.973259 -0.00448308 
-0.178135 0.0556522 0.943679 -0.261583 -0.357682 0.896458 
-0.0935442 -0.164844 -0.870585 -0.189078 -0.168276 -0.967436 
-0.383708 0.225721 0.946984 -0.607302 -0.478425 0.634266 
0.399629 -0.00431335 -0.105172 -0.984124 0.177374 -0.00624825 
0.437126 0.238198 0.327143 -0.946084 0.323155 0.0222858 
-0.315672 -0.179448 -0.0825853 0.614319 0.789052 0.00294113 
-0.246528 -0.129594 0.728124 0.380918 0.685988 -0.619937 
-0.388839 -0.0530413 -0.141487 0.967875 0.251393 -0.00434896 
-0.00599248 -0.177346 0.864167 -0.00326714 -0.483111 0.875553 
-0.354268 -0.294108 0.545487 -0.768654 -0.622583 0.146837 
-0.0966536 -0.220393 0.58157 0.039438 0.984931 -0.168393 
0.430116 0.190908 0.402583 -0.99715 0.0751477 -0.0066975 
0.000590101 -0.234283 0.0258483 -0.000555244 1 -4.27661e-05 
-0.438515 -0.089499 -0.3211 -0.986066 -0.166343 -0.00195567 
-0.198895 -0.0832744 0.879181 -0.301943 -0.375787 0.876136 
0.143927 -0.0855711 -0.812435 -0.315264 0.196273 0.928486 
-0.360362 0.175325 0.812734 0.783046 0.189376 -0.592432 
0.426197 -0.155184 0.254546 0.973558 -0.228436 -0.00165739 
-0.0889124 0.127256 -0.82699 0.0456826 -0.0182597 0.998789 
-0.0703125 -0.233797 -0.498469 0.0155072 0.999854 0.00719529 
-0.328897 0.202951 -0.822724 -0.420669 -0.471774 -0.774898 
-0.364705 0.0893358 0.752543 0.850155 0.368213 -0.376373 
0.202734 0.0429872 -0.849623 0.375944 -0.00271413 -0.926638 
0.354515 -0.192722 0.709071 0.770339 -0.396821 0.49911 
-0.455059 0.0645455 -0.503686 -0.988726 -0.114698 -0.0962531 
0.444876 0.0178103 0.570235 0.988073 -0.137617 0.0690921 
0.0242021 -0.234258 -0.479437 -0.00252338 0.999993 0.00286955 
0.245739 -0.213265 -0.362294 -0.282476 0.959273 0.00159236 
-0.404011 -0.2277 0.320489 -0.921725 -0.387835 -0.00246036 
-0.188303 -0.225815 0.246948 0.144411 0.989517 0.00140256 
0.0457 0.163468 1.01354 0.0430495 -0.706932 0.705971 
-0.407898 -0.208685 0.484643 -0.940709 -0.333988 0.0593241 
0.431143 -0.128077 0.426074 0.97975 -0.199725 0.0141128 
0.421596 -0.155528 0.510866 0.969522 -0.233419 0.074447 
-0.294896 -0.0393528 0.849953 -0.538391 -0.33231 0.774407 
-0.40384 0.101755 -0.69871 -0.901688 0.0429955 -0.430245 
-0.386631 -0.132799 0.693379 -0.881069 -0.265882 0.391183 
0.149178 -0.00237656 -0.819915 -0.321565 0.0385006 0.946105 
-0.404943 0.0317693 -0.458744 0.990346 0.136812 0.0223226 
-0.166149 -0.22865 0.0966454 0.112596 0.99364 0.00128099 
-0.397643 0.0855769 0.64382 0.957304 0.179739 -0.226411 
-0.414752 -0.172717 -0.549778 -0.96084 -0.246526 -0.126532 
-0.48079 0.19902 0.661187 -0.831851 -0.537326 0.13894 
0.492166 0.278447 0.0849516 0.381868 0.924181 0.00808547 
0.42035 0.12422 -0.23361 -0.984533 0.165584 -0.0572392 
0.420201 0.123125 0.262178 -0.9815 0.191435 -0.00335204 
-0.337209 0.18662 -0.722576 0.675271 0.0243496 0.737168 
-0.167481 -0.172578 -0.757798 0.289413 0.718235 0.632755 
-0.486677 0.279896 -0.185702 -0.202171 0.978978 0.0270127 
-0.300467 -0.189979 0.281807 0.528532 0.848909 -0.00270095 
0.421501 -0.174845 0.109206 0.967591 -0.252522 -0.00085161 
0.366006 -0.29513 0.167897 0.80305 -0.595869 0.0070459 
0.353969 -0.137026 0.387182 -0.834197 0.551438 -0.00560321 
0.32321 -0.173508 0.15512 -0.654844 0.755764 0.000549148 
-0.0223628 -0.23327 -0.553114 0.00329806 0.999604 0.0279552 
0.406685 -0.221537 0.239473 0.932621 -0.36084 0.00342436 
-0.40565 -0.127371 -0.634057 -0.935581 -0.164664 -0.312368 
0.437448 -0.0964394 -0.370944 0.987799 -0.155668 0.00458462 
0.132539 -0.230479 -0.542934 -0.0741265 0.996737 0.0319545 
0.340417 -0.0593378 0.694826 -0.811335 0.385609 -0.439364 
-0.512508 0.211002 0.348407 -0.918522 -0.394104 -0.0316269 
-0.307672 -0.185349 0.377866 0.5639 0.825842 0.00131703 
-0.170363 -0.0472928 -0.859392 -0.300593 -0.0331587 -0.953176 
0.427512 0.17943 0.483546 -0.998896 0.0393064 -0.0257265 
0.127505 0.0681384 -0.873031 0.200068 -0.0198479 -0.979581 
0.388124 -0.194378 0.634445 0.896344 -0.341451 0.282805 
-0.141727 0.245923 0.992192 0.180199 0.608879 -0.772525 
0.40354 0.0177692 0.0475059 -0.989822 0.14218 0.00614144 
-0.34023 -0.134662 -0.745677 -0.73772 -0.125196 -0.663396 
-0.426137 0.179495 0.522092 0.988112 0.14752 -0.0432811 
-0.0633078 -0.234016 0.332579 0.0124025 0.999922 0.00121225 
0.210864 -0.221949 -0.28826 -0.19162 0.981469 -0.000247723 
-0.373032 0.108654 0.841554 -0.755627 -0.369802 0.540625 
0.0528706 -0.234127 -0.13037 -0.0097331 0.999953 -2.72312e-05 
0.383795 -0.268493 -0.460885 0.864578 -0.50229 -0.0144798 
-0.450965 0.00600193 0.210487 -0.993763 -0.106491 0.0330983 
-0.288866 -0.209606 -0.774207 -0.605941 -0.271842 -0.747621 
-0.424557 0.235693 -0.566802 0.884537 0.399493 0.24083 
-0.2987 -0.175621 -0.614904 0.604976 0.767643 0.211489 
-0.446719 -0.0279184 0.364273 -0.992003 -0.126153 0.00385737 
0.00799862 -0.0759783 -0.886562 0.0466447 -0.0456471 -0.997868 
-0.435921 -0.105703 -0.236944 -0.983679 -0.179885 -0.00414509 
-0.449988 -0.0016535 0.298937 -0.995166 -0.0970499 -0.0150351 
-0.173253 -0.227255 0.43279 0.126521 0.991689 -0.0233381 
0.437953 0.242056 -0.21482 -0.923135 0.378918 0.0651395 
0.379478 -0.00438342 0.636883 -0.945702 0.244808 -0.213816 
0.25424 -0.297377 -0.749462 0.505354 -0.580174 -0.638761 
-0.223563 0.280528 1.01168 0.17424 0.875182 -0.451328 
0.00171984 0.0501441 -0.887688 0.0054449 0.0561093 -0.99841 
0.467079 0.187441 0.592726 0.7019 -0.68375 0.199555 
0.440743 0.252543 -0.315642 -0.862279 0.50489 -0.0395139 
0.364413 -0.296924 -0.270501 0.801234 -0.598335 0.00449965 
-0.0256514 -0.210619 0.632561 0.00382254 0.965871 -0.258996 
-0.335195 0.0859439 -0.712458 0.77373 0.0899337 0.6271 
0.188135 -0.212556 0.578142 -0.143493 0.975342 -0.167683 
0.430247 0.19171 -0.068655 -0.990373 0.138408 -0.0019173 
-0.51096 0.230173 -0.473551 -0.900922 -0.429244 0.0639442 
-0.0383826 0.00641956 -0.841642 0.074582 -0.0415986 0.996347 
0.380404 0.0797715 -0.639955 -0.90012 0.110958 0.421275 
-0.0123577 -0.285081 -0.838994 -0.0333039 -0.51799 -0.854738 
0.220799 -0.214931 0.512543 -0.211347 0.973585 -0.0864049 
0.454104 0.0311941 -0.137637 0.996811 -0.079803 0.000516871 
-0.21932 0.144316 0.91576 0.391584 0.441358 -0.807382 
0.293307 -0.187914 -0.572561 -0.532943 0.838794 0.111337 
0.512559 0.221678 0.264098 0.879435 -0.464637 -0.103476 
-0.437296 0.239187 -0.382601 0.944107 0.329526 -0.0086063 
0.187355 -0.165328 -0.755348 -0.346981 0.662492 0.663859 
-0.348878 -0.127906 -0.574709 0.861071 0.481656 0.162988 
-0.15235 -0.211554 0.827332 -0.200203 -0.532959 0.822115 
-0.0493014 0.240843 -0.841646 0.00956391 0.381691 0.924241 
-0.431717 -0.12829 0.302521 -0.981706 -0.190381 -0.00275346 
-0.137987 0.197643 -0.826182 0.188745 0.0784656 0.978886 
-0.425743 0.160797 -0.380986 0.991355 0.130529 -0.0132998 
0.434504 -0.11405 -0.0840198 0.985189 -0.171043 0.0121545 
0.369911 -0.107639 0.141062 -0.912301 0.409519 0.00141166 
0.141416 -0.0488191 0.835797 -0.177867 0.544679 -0.819566 
0.471894 0.169314 -0.256452 0.834685 -0.518478 0.185694 
-0.459148 0.241171 0.824132 -0.957527 -0.0444755 0.284893 
-0.418699 0.113513 0.00712958 0.977596 0.201249 0.0616885 
0.0580063 -0.234073 0.339039 -0.0112926 0.999936 -0.000257727 
-0.473864 0.28058 0.141205 0.322559 0.946148 0.027547 
-0.241679 -0.191687 -0.671584 0.389592 0.861493 0.325651 
0.111682 -0.190923 0.684713 -0.0700175 0.914651 -0.398134 
0.409094 0.0520333 -0.250815 -0.986624 0.162034 -0.0178445 
0.414017 -0.20075 -0.291326 0.952445 -0.304347 0.0148996 
-0.394758 -0.0705497 -0.680781 -0.88351 -0.113866 -0.454361 
-0.432846 -0.122937 -0.0927816 -0.982574 -0.185843 0.00340249 
0.0219613 0.109458 -0.826988 0.040144 -0.12361 0.991519 
0.074375 -0.227716 -0.628566 -0.0281803 0.993361 0.111534 
0.0720355 -0.0891523 -0.828686 -0.146254 0.213672 0.965896 
0.389395 -0.189977 -0.640153 0.907271 -0.267263 -0.3247 
0.105617 0.109467 0.98276 0.105615 -0.407771 0.906955 
-0.512509 0.234223 0.0997543 -0.951387 -0.264975 -0.157008 
0.413288 0.125539 0.584199 -0.957119 0.25722 -0.133267 
-0.0139594 0.123424 -0.88738 0.0191536 -0.15676 -0.987451 
-0.387815 -0.233732 0.570736 -0.88823 -0.426654 0.170332 
-0.417794 0.11745 -0.475117 0.975523 0.217075 0.0351298 
0.33217 -0.125119 -0.637885 -0.825552 0.461766 0.324402 
0.244253 0.184833 0.97677 0.338478 -0.689329 0.640514 
-0.181538 -0.111304 0.776726 0.240699 0.655262 -0.716028 
-0.425049 0.156016 0.368172 0.99173 0.126313 -0.0227331 
-0.43317 0.00237201 -0.600001 -0.961245 -0.139083 -0.238042 
-0.420327 -0.179085 -0.256922 -0.965793 -0.259227 0.00669887 
0.16832 0.145389 0.986432 0.337888 -0.567174 0.751096 
0.0875035 -0.233552 -0.35882 -0.0252157 0.999682 -5.24564e-05 
-0.454817 0.037367 -0.387315 -0.989885 -0.140358 0.0206558 
-0.512296 0.237006 -0.386907 -0.967035 -0.24431 -0.0718002 
0.434751 -0.091135 -0.512191 0.986322 -0.142414 -0.082983 
0.365627 -0.116633 0.0489031 -0.891837 0.452357 -0.00039378 
0.447429 0.0986865 -0.588066 0.983858 0.0355144 -0.175393 
-0.175345 -0.227646 -0.455814 0.128058 0.991764 0.00247061 
0.0597724 -0.15311 0.753354 -0.0393912 0.794507 -0.605976 
-0.375359 -0.0945998 0.0108235 0.930381 0.366577 0.00336953 
-0.399176 0.0352714 -0.542333 0.982111 0.12184 0.143575 
-0.429031 -0.141877 0.220516 -0.978011 -0.208549 0.00128661 
-0.366627 -0.294069 0.37426 -0.809391 -0.587262 0.00305428 
-0.448053 -0.0185539 -0.309197 -0.994434 -0.105327 -0.00276455 
0.0951806 -0.121939 0.885895 0.117721 -0.417488 0.901025 
0.186728 -0.226047 -0.445713 -0.146765 0.989168 0.0026738 
-0.383171 0.0596664 -0.625624 0.937791 0.105791 0.330691 
0.51256 0.218304 0.0470813 0.959947 -0.275532 0.0508265 
-0.0879644 -0.233541 0.130869 0.0251025 0.999685 -1.21724e-06 
0.459972 0.0867071 -0.465897 0.96559 -0.248714 -0.0760088 
-0.300015 -0.190214 -0.00263422 0.526843 0.849959 -0.00257434 
0.115174 -0.232546 -0.29323 -0.0472571 0.998883 3.23578e-05 
0.404828 0.0345342 0.48268 -0.988702 0.145106 -0.0375761 
-0.22704 -0.218323 0.036003 0.228607 0.9735 -0.0061103 
-0.437728 0.0257076 0.629033 -0.969095 -0.149602 0.196147 
0.37751 0.0144254 -0.723573 0.765422 -0.103309 -0.635183 
0.450773 0.00384265 0.0976039 0.995751 -0.0918497 0.00659245 
-0.436832 -0.0918083 -0.474122 -0.987895 -0.149709 -0.0406163 
-0.0935938 0.193147 0.973865 0.169765 0.437202 -0.883195 
-0.341893 0.162718 0.902931 -0.370232 -0.58545 0.721233 
-0.192698 0.204698 -0.884183 -0.315176 -0.398279 -0.861416 
-0.358947 0.0270027 -0.747155 -0.70717 -0.078947 -0.702622 
0.0107022 -0.234283 -0.189515 -0.000935906 1 0.000107915 
0.465401 0.120928 -0.176961 0.976495 -0.196482 -0.088618 
0.191362 0.197158 1.03127 0.355608 -0.693081 0.627042 
0.368939 -0.288383 0.454666 0.818781 -0.572637 0.0410523 
-0.156897 -0.229649 -0.379172 0.096164 0.995365 -7.78853e-05 
-0.205623 -0.222914 -0.296235 0.179777 0.983704 -0.00271593 
0.479769 0.280549 0.533739 -0.0191476 0.997491 -0.0681607 
-0.438243 0.23777 -0.722442 -0.822273 -0.324164 -0.467744 
0.239593 -0.0881099 0.771282 -0.395933 0.571891 -0.718455 
-0.387246 0.206053 -0.778719 -0.692278 -0.413062 -0.591719 
0.241903 -0.213683 -0.507544 -0.274151 0.961457 0.0210124 
0.389014 -0.052442 -0.239446 -0.96701 0.254731 0.00197342 
0.512558 0.201599 -0.304004 0.874413 -0.457134 0.162578 
0.103905 -0.0405278 0.91981 0.137271 -0.377087 0.915949 
0.458008 0.0629147 -0.336877 0.98248 -0.184542 0.0260113 
0.42272 -0.169931 0.0166922 0.970423 -0.241376 -0.00410411 
0.406541 0.0359405 0.249894 -0.989138 0.146745 0.00844929 
0.249565 -0.212159 -0.222615 -0.298097 0.95453 0.0034046 
0.167417 -0.133889 0.865889 0.23985 -0.415259 0.877515 
-0.163747 -0.181153 0.692051 0.14582 0.883412 -0.44533 
-0.447238 -0.0251452 -0.108319 -0.993671 -0.111789 0.0110028 
-0.445907 -0.0129033 -0.500453 -0.990217 -0.122581 -0.0666664 
0.325915 -0.170801 -0.114775 -0.675058 0.737753 -0.00410343 
-0.469736 0.280855 -0.524379 0.41621 0.909243 -0.00681831 
-0.407506 0.0100023 -0.673804 -0.894425 -0.11306 -0.432692 
0.51256 0.199378 -0.0355635 0.87547 -0.481566 0.040581 
0.0928178 -0.233404 0.203954 -0.0278956 0.99961 -0.00136728 
0.347169 -0.134957 -0.560842 -0.841252 0.523455 0.135243 
-0.45967 0.28055 -0.609431 0.235269 0.965946 0.107687 
0.212774 -0.217722 -0.574938 -0.206851 0.975646 0.0729892 
-0.512515 0.223824 -0.143373 -0.964712 -0.262297 0.0230387 
-0.465122 0.119126 -0.310135 -0.951632 -0.30328 -0.0491633 
0.402573 0.221702 0.925036 0.594976 -0.61065 0.522599 
-0.174943 -0.217102 0.562416 0.128837 0.980855 -0.14603 
-0.425716 0.0719848 0.714597 -0.943678 -0.167984 0.285049 
0.400874 -0.120388 0.665706 0.924186 -0.234489 0.301487 
-0.331968 0.130546 -0.781017 -0.535427 -0.240576 -0.809594 
0.406992 0.0391135 0.398622 -0.987442 0.157961 -0.00250996 
-0.404402 0.0233 -0.16159 0.987323 0.158719 0.000984392 
-0.133869 -0.228206 0.497673 0.0726235 0.994866 -0.0704798 
0.23816 0.0373201 -0.783522 -0.525361 0.0326096 0.850254 
-0.383795 -0.0749896 0.734095 -0.859527 -0.238599 0.451978 
-0.403872 -0.228684 -0.307064 -0.920869 -0.389825 0.00603007 
0.442239 0.269507 -0.542533 -0.716277 0.681065 0.151981 
-0.0859882 -0.233583 -0.345288 0.0243085 0.999704 0.000651538 
0.442698 0.258225 0.448434 -0.826985 0.561686 -0.0245872 
0.403223 0.106281 0.79177 0.955608 -0.104664 0.275425 
0.441852 0.102547 0.674216 0.951632 -0.086178 0.294905 
0.281559 0.096027 0.916974 0.535363 -0.256547 0.804717 
-0.412669 -0.204594 0.0200338 -0.944627 -0.328143 -0.00128833 
0.407234 -0.220489 -0.135897 0.934732 -0.355351 0.00134768 
0.364453 -0.296883 -0.043985 0.797389 -0.603429 0.00663583 
0.316562 -0.266364 -0.71519 0.693597 -0.474423 -0.542076 
0.471864 0.16919 0.289444 0.834509 -0.508712 -0.211676 
-0.194295 -0.28057 0.758819 -0.249915 -0.687505 0.68182 
0.43487 -0.11204 -0.212733 0.982088 -0.188212 -0.00889388 
-0.300519 -0.188646 0.463933 0.525541 0.849782 -0.0409465 
-0.365063 -0.296158 0.0284387 -0.809348 -0.587287 -0.00709492 
-0.25802 -0.117497 -0.814904 -0.516405 -0.0934822 -0.851227 
0.267532 -0.101312 -0.810848 0.524283 -0.0882066 -0.846963 
0.393515 0.0241992 0.766927 0.866439 -0.251506 0.43131 
-0.402305 -0.232537 -0.401067 -0.917081 -0.398678 -0.00424498 
-0.393706 -0.0332824 0.111249 0.97756 0.210658 0.00038785 
-0.259123 0.163518 -0.828206 -0.369383 -0.42578 -0.825995 
0.440045 -0.0228436 -0.547255 0.982702 -0.122502 -0.138892 
0.335532 0.241884 -0.730717 -0.675283 0.186019 0.713715 
0.482881 0.280437 -0.0728872 -0.19512 0.98054 -0.0216662 
0.439825 0.250181 0.219437 -0.894744 0.445683 0.0282826 
0.431413 -0.130046 0.320354 0.978936 -0.204025 0.00757379 
-0.0914402 -0.201627 0.659047 0.0375118 0.945489 -0.323485 
-0.419019 0.115579 0.116646 0.988966 0.135284 -0.0603678 
-0.0808847 -0.233692 -0.0583381 0.0222427 0.999752 0.000741599 
0.286597 -0.111699 0.716685 -0.552348 0.597772 -0.581017 
-0.443374 0.0791271 -0.595074 -0.969651 -0.00748922 -0.24438 
0.41926 0.117386 -0.40986 -0.983099 0.182017 0.0196366 
-0.476567 0.281051 0.385139 0.46518 0.885099 0.0143816 
0.14338 -0.190732 -0.854077 0.274678 -0.190641 -0.942448 
0.37022 -0.259691 0.586542 0.832053 -0.512225 0.212867 
0.0858595 0.201757 -0.907088 0.185669 -0.332514 -0.924641 
-0.417991 0.00248371 0.694923 -0.938623 -0.186511 0.290173 
-0.446358 -0.0315747 -0.417741 -0.993383 -0.114039 -0.0136391 
0.512159 0.238286 0.427192 0.982126 0.185433 0.0323073 
-0.130575 -0.267325 0.789168 -0.139127 -0.668368 0.730704 
-0.401648 0.0205604 0.501027 0.985669 0.162052 -0.0468627 
0.428461 0.179248 0.130792 -0.998508 0.0456498 -0.029964 
0.392323 -0.0396371 0.11299 -0.973936 0.226656 -0.00873878 
-0.286783 -0.197346 -0.316359 0.457974 0.888943 -0.00629136 
-0.463176 0.105222 0.399133 -0.961097 -0.275996 0.0108709 
-0.0671417 -0.23357 0.42528 0.0126546 0.999798 -0.0156331 
0.36211 -0.104983 0.754063 0.776632 -0.295335 0.556435 
0.121233 -0.294092 0.76239 0.12112 -0.738335 0.66347 
-0.135348 0.00698572 0.870683 0.189123 0.472178 -0.860976 
-0.387211 -0.207192 -0.630426 -0.905784 -0.307759 -0.291273 
-0.429041 0.188291 -0.67234 -0.628281 -0.607213 -0.48637 
-0.456993 0.0550416 -0.0979827 -0.993911 -0.101774 -0.0422263 
-0.419436 0.118348 0.286276 0.984852 0.172983 0.0119944 
-0.442484 -0.0197582 0.541856 -0.9857 -0.154526 0.0672058 
-0.471565 0.167229 0.100671 -0.846877 -0.438083 -0.301469 
-0.43308 0.211777 -0.131904 0.990224 0.138698 0.0147933 
0.316734 -0.17861 -0.193538 -0.62157 0.783312 0.00856578 
-0.28295 0.169357 0.950166 -0.470382 -0.659202 0.586681 
0.0871964 -0.225659 0.548575 -0.0343002 0.991464 -0.125791 
0.391141 0.260313 -0.770829 0.748712 0.231428 -0.621185 
-0.505628 0.199062 0.163799 -0.895807 -0.435795 -0.0872545 
0.396183 0.0643301 0.628283 -0.973491 0.148689 -0.173799 
0.243063 -0.214034 0.0777374 -0.273737 0.961804 -0.000756313 
0.251123 0.256612 0.959571 -0.365245 0.577831 -0.729868 
-0.281338 0.104316 0.920806 -0.542413 -0.243446 0.804066 
-0.44787 0.266606 -0.242965 0.765061 0.643841 -0.0122449 
0.40023 -0.23769 0.146335 0.911671 -0.41092 2.39907e-05 
0.30443 0.168006 0.935686 0.418178 -0.625235 0.658945 
0.344575 -0.0494669 -0.754085 0.713056 -0.044365 -0.699702 
0.322395 -0.174286 0.315358 -0.648222 0.761435 -0.00503272 
0.343187 -0.152195 -0.342107 -0.778369 0.627804 0.00204 
0.0197864 -0.22238 0.578558 -0.00327744 0.986067 -0.166319 
-0.0671439 0.110046 0.987542 -0.0551363 -0.433764 0.899338 
-0.458115 0.0644878 0.253432 -0.976413 -0.215888 0.00315994 
0.468506 0.279647 -0.00273852 -0.434095 0.900501 -0.0256923 
0.456811 0.203198 -0.691652 0.803946 -0.379485 -0.457889 
0.423801 0.28094 0.81793 -0.278328 0.954131 -0.110306 
-0.0314647 0.1734 -0.82699 -0.0303329 0.0835446 0.996042 
-0.387842 -0.056732 -0.21334 0.966878 0.25521 0.00386166 
0.402067 0.00928689 -0.179658 -0.986434 0.164155 -0.00072583 
0.391629 -0.0425251 0.221601 -0.971696 0.236234 -0.000431305 
0.206807 -0.222702 -0.162927 -0.18062 0.983553 0.000971514 
0.252065 0.28107 -0.82402 0.01475 0.987256 0.158457 
0.096186 0.186373 0.970128 -0.168844 0.401932 -0.899968 
-0.506509 0.199052 -0.32187 -0.90136 -0.421432 -0.099727 
0.391682 -0.255627 -0.330079 0.880406 -0.474188 0.00561175 
0.324849 -0.171866 -0.0122752 -0.66705 0.74501 0.00231584 
0.355485 0.131177 -0.694884 -0.796226 0.225862 0.561258 
0.151456 -0.230132 -0.229444 -0.0888449 0.996045 -0.000586231 
0.421071 -0.119573 -0.580335 0.967662 -0.165054 -0.190757 
0.184738 -0.191169 0.660138 -0.165511 0.919897 -0.355523 
-0.361714 -0.120197 -0.493481 0.88759 0.458445 0.0448526 
-0.337304 -0.126917 0.610707 0.795172 0.555609 -0.242901 
-0.238569 -0.00161179 0.82983 0.40276 0.464769 -0.788526 
0.0650032 -0.18783 0.855434 0.0729112 -0.495461 0.865565 
-0.379019 -0.0851843 0.348818 0.942945 0.332883 -0.00658191 
0.25824 -0.151335 -0.719782 -0.544682 0.578063 0.60759 
-0.485763 0.228009 0.739691 -0.84203 -0.470873 0.263182 
0.423368 0.198534 -0.543589 -0.996054 -0.0226976 0.0858016 
0.425505 0.00192685 -0.627012 0.946686 -0.145964 -0.287193 
0.351124 0.222679 0.977858 0.412107 -0.613543 0.673596 
-0.422703 0.201408 0.614225 0.972302 0.196647 -0.126331 
0.257025 0.191473 -0.830477 0.194497 -0.45301 -0.87003 
-0.0698184 -0.233929 0.0184852 0.0156268 0.999878 7.23899e-05 
0.282132 -0.199711 -0.290541 -0.432625 0.901558 -0.00531596 
-0.429735 0.188434 -0.299126 0.99609 0.0876619 0.0109827 
-0.006839 0.0673701 0.916733 -0.0186331 0.453499 -0.891062 
0.411906 -0.206148 0.331946 0.949134 -0.314869 -0.00140938 
-0.369562 -0.290506 -0.31905 -0.818794 -0.574075 0.00387039 
-0.441287 -0.0704276 0.153926 -0.988966 -0.147562 -0.0130988 
0.315363 -0.155648 0.778984 0.618521 -0.385737 0.684572 
0.340193 0.0924129 0.870479 0.643508 -0.19602 0.739915 
0.438726 -0.0881518 0.190735 0.987643 -0.156712 -0.00187094 
-0.175194 0.198559 1.05888 -0.113964 -0.850104 0.514135 
0.49931 0.239657 -0.57378 0.945291 -0.199299 -0.258272 
-0.0328121 -0.115463 0.894311 -0.0374342 -0.413067 0.909931 
0.328729 -0.115487 0.654234 -0.755191 0.545706 -0.363168 
0.230345 0.267098 1.0409 0.369699 0.308661 0.876385 
0.428119 -0.146804 -0.151858 0.976269 -0.21656 0.000895674 
0.18018 0.00422155 0.921574 0.255802 -0.389638 0.88473 
0.452118 0.195048 -0.614977 0.74189 -0.670338 -0.0156723 
-0.504666 0.268201 0.0134539 -0.827181 0.552406 0.103048 
-0.23956 -0.214712 -0.484412 0.266546 0.96372 0.0140277 
-0.512515 0.215074 -0.0360874 -0.917117 -0.385885 0.0999405 
-0.28947 -0.292176 0.687094 -0.520306 -0.691278 0.501415 
0.368933 -0.0788527 0.579556 -0.924762 0.344826 -0.160965 
-0.0627826 -0.284648 0.780658 -0.0543684 -0.713913 0.69812 
0.447582 -0.014071 0.453564 0.989947 -0.135319 0.0411443 
-0.0918471 0.0786903 0.916682 0.160908 0.408421 -0.898499 
0.397885 0.231608 -0.646859 -0.879377 0.186612 0.438033 
0.206775 -0.0812858 -0.844243 0.411952 -0.0634352 -0.908995 
0.167525 0.267868 1.00277 -0.217636 0.740046 -0.636369 
0.458029 0.0792901 0.500777 0.971366 -0.194745 0.136096 
-0.0385112 -0.227736 0.538848 0.00931416 0.993839 -0.11044 
-0.14167 0.114168 0.978404 -0.302084 -0.368817 0.879045 
-0.383664 -0.0570272 -0.518802 0.960715 0.264612 0.0837114 
-0.430484 -0.122604 0.479804 -0.982912 -0.176482 0.0523253 
0.312839 -0.181766 0.0730949 -0.593368 0.804931 0.00064086 
-0.444163 -0.0494011 0.0510446 -0.98979 -0.142521 -0.00209906 
0.356791 -0.13228 -0.39135 -0.851196 0.524831 0.00422343 
-0.433213 0.213244 0.421669 0.974564 0.224109 -0.000393311 
-0.373284 -0.223079 0.640523 -0.843254 -0.431135 0.321007 
-0.168782 -0.205167 -0.695605 0.190188 0.932811 0.306093 
-0.253123 -0.0673258 0.779314 0.434398 0.530454 -0.727954 
-0.0108896 -0.0851957 0.823431 0.013982 0.618504 -0.785657 
0.395234 -0.0265576 -0.00745588 -0.979455 0.201034 0.0159083 
0.31602 0.25751 0.915138 -0.52257 0.600117 -0.605624 
-0.152423 -0.227085 -0.578404 0.102924 0.992771 0.061738 
-0.371374 -0.104318 0.166168 0.916041 0.401081 -0.00184705 
0.389055 -0.0518855 0.408141 -0.967778 0.251453 -0.0133456 
-0.473589 0.280581 -0.428963 0.361574 0.932028 0.0242414 
-0.320537 -0.175711 0.186955 0.641459 0.767156 -0.00151941 
-0.110468 0.0046368 0.937324 -0.139109 -0.38065 0.914196 
0.389989 -0.0367182 0.506346 -0.970153 0.234218 -0.0628038 
-0.122106 -0.232161 -0.120957 0.0538875 0.998546 -0.00111229 
0.457578 0.0594554 0.03137 0.990738 -0.135776 0.00195972 
-0.428541 -0.087197 -0.567102 -0.975031 -0.137577 -0.174317 
-0.186694 0.168086 0.991513 -0.25953 -0.774476 0.576915 
0.102663 -0.29128 -0.824119 0.188273 -0.535742 -0.823124 
-0.475732 0.281052 0.540267 0.42956 0.902787 -0.0213059 
0.358922 -0.129004 -0.0665826 -0.863631 0.504124 0.000819018 
0.175981 0.183434 -0.861531 0.443902 -0.343722 -0.82753 
0.119464 -0.125997 -0.869687 0.228298 -0.105367 -0.967873 
-0.227504 0.218153 0.949315 0.373513 0.460429 -0.805291 
0.486537 0.279921 -0.256334 0.134592 0.990678 0.0210275 
0.403571 0.01822 -0.316193 -0.98571 0.166693 0.0242621 
-0.401462 0.00583916 0.0368758 0.985719 0.168387 0.0020603 
0.439086 -0.0861856 -0.00330548 0.986421 -0.163891 -0.0106103 
-0.256856 -0.112229 0.841187 -0.435187 -0.37608 0.818032 
0.322587 -0.174128 0.227717 -0.649385 0.76046 0.000684607 
0.186117 -0.293463 -0.794548 0.352804 -0.550793 -0.75641 
0.421783 0.26993 0.742149 -0.617799 0.767697 -0.170195 
-0.218027 0.280103 -0.847553 0.0717431 0.966234 0.247478 
0.341246 0.00701653 0.831085 0.675351 -0.325572 0.661743 
-0.151147 -0.230153 0.0198299 0.0889225 0.996038 -0.00115549 
-0.204853 0.213793 -0.80544 0.404022 0.140858 0.903839 
0.227835 -0.190197 0.815246 0.355122 -0.477335 0.803766 
-0.394887 -0.0270755 0.414761 0.978392 0.20673 -0.00334825 
0.399985 -0.238393 -0.016608 0.909527 -0.415642 -0.0015102 
-0.358244 -0.130221 0.259095 0.852379 0.522924 -0.00121405 
-0.294275 0.025704 -0.801552 -0.567258 -0.0116736 -0.823458 
0.352447 -0.0417574 -0.658092 -0.871716 0.161196 0.462739 
0.330333 -0.165391 0.459308 -0.704506 0.708978 -0.0319781 
0.424619 0.236549 0.647498 -0.911995 0.372429 -0.171934 
-0.409839 0.220709 0.712845 0.950638 0.196088 -0.240494 
-0.162386 -0.229056 -0.0589356 0.102987 0.99468 0.00221827 
0.342876 0.211595 -0.81404 0.564224 -0.370748 -0.737697 
0.146561 -0.227833 0.488 -0.0882479 0.994069 -0.0635496 
-0.414043 0.120271 0.567202 0.984474 0.157492 -0.0775031 
-0.483772 0.280305 0.221191 0.128906 0.991565 0.0134719 
0.395564 0.0504958 -0.577373 -0.975613 0.122378 0.182216 
-0.421308 0.130807 -0.0727019 0.987088 0.160178 0.000196655 
0.33975 -0.254293 0.671919 0.716875 -0.546686 0.432696 
0.266186 -0.232501 0.766446 0.451603 -0.547536 0.704456 
-0.391401 -0.04324 0.272247 0.977999 0.20854 -0.00533668 
0.398989 0.00320843 -0.487586 -0.984498 0.164826 0.0599681 
-0.358377 -0.129771 -0.139525 0.858584 0.512658 -0.00401528 
-0.343598 -0.151575 -0.335238 0.775219 0.631674 -0.0048341 
0.284069 -0.190104 0.544406 -0.455222 0.881607 -0.124668 
-0.436636 0.236108 0.189504 0.941022 0.335008 0.0474014 
-0.429148 -0.141689 -0.172912 -0.978175 -0.207611 -0.00847051 
0.0685936 -0.0357019 0.855299 -0.078735 0.532881 -0.842519 
-0.0323291 0.278496 1.06736 0.0720276 0.994113 0.0809378 
0.170396 -0.228195 -0.348447 -0.117885 0.993027 -0.00041729 
0.463188 0.103906 0.0970852 0.976004 -0.213013 0.0451735 
-0.36623 -0.292038 0.455951 -0.807468 -0.588216 0.0446951 
0.122187 0.0340448 0.888294 -0.160978 0.467595 -0.869161 
-0.247104 -0.188185 0.807252 -0.400442 -0.466446 0.788717 
0.408069 -0.213613 0.444729 0.938828 -0.343116 0.0295331 
0.246703 -0.212982 0.157804 -0.28584 0.958277 0.000902685 
-0.453118 0.14961 -0.591248 -0.857749 -0.442763 -0.261203 
0.434303 0.229158 -0.470456 -0.975538 0.213996 0.0503157 
-0.0408938 -0.0644304 -0.836886 0.0789012 0.140718 0.986901 
-0.307264 -0.0178389 0.770202 0.670893 0.398072 -0.625653 
-0.0861717 0.0585152 -0.880993 -0.122343 -0.0355759 -0.99185 
-0.424834 -0.159076 0.39406 -0.972671 -0.232004 0.00918234 
-0.230154 -0.212783 0.512039 0.234837 0.968439 -0.0835311 
-0.304135 -0.187086 -0.468754 0.551829 0.833904 0.00941659 
-0.365875 -0.295238 -0.413684 -0.805935 -0.591976 -0.00574913 
0.0307578 0.236699 1.00128 -0.0485516 0.52808 -0.847806 
-0.0985615 -0.233195 -0.261035 0.0332634 0.999447 5.00159e-05 
-0.241951 -0.209588 -0.577747 0.296973 0.951333 0.0822906 
-0.0854662 -0.132482 0.77557 0.0736157 0.73045 -0.678987 
-0.512382 0.211407 0.423184 -0.911518 -0.409466 0.0383649 
-0.337529 0.270812 -0.743288 0.601229 0.549999 0.579677 
0.153166 0.245067 -0.823653 -0.317104 0.23364 0.919161 
0.0643916 0.129102 -0.884008 0.0888867 -0.167105 -0.981924 
0.364875 -0.296412 0.0374495 0.798925 -0.601411 -0.00497564 
-0.432506 0.207765 -0.0603955 0.991694 0.124911 -0.030654 
0.278204 -0.226935 -0.776531 0.581036 -0.317827 -0.749255 
-0.456971 0.274972 -0.0382662 0.658595 0.752047 -0.026053 
-0.430958 0.196967 -0.223818 0.997897 0.0647002 0.00383783 
-0.132635 -0.23158 0.199234 0.0654848 0.997853 -0.00123678 
-0.34182 -0.214157 0.710313 -0.725307 -0.455968 0.515775 
0.11247 -0.18903 -0.755699 -0.154714 0.830986 0.534346 
-0.24456 -0.213589 0.110152 0.279377 0.960181 0.000603964 
0.512462 0.23553 -0.194652 0.974502 -0.19451 -0.111855 
