ply
format ascii 1.0
element vertex 508
property float x
property float y
property float z
property float nx
property float ny
property float nz
end_header
0.323925 0.0838321 -0.519761 -0.756118 -0.596177 0.269922 
-0.204674 -0.177598 0.128966 -0.0739142 0.996705 0.0334156 
0.119102 0.168318 0.231389 0.0706664 0.0422075 -0.996607 
0.20781 0.302964 -0.134817 0.0701174 -0.997255 0.0237791 
-0.046259 -0.177596 -0.637271 0.0385 0.999236 0.00671064 
-0.18204 -0.057104 0.258466 -0.139181 -0.807204 -0.573629 
0.118397 0.121602 -0.46797 0.152969 -0.667853 0.728404 
0.014565 0.302964 0.142676 -0.0461026 -0.989645 0.13593 
-0.0437802 -0.135955 0.835342 -0.0265113 0.133441 -0.990702 
0.143996 0.0129348 0.756308 -0.0849291 0.261424 0.96148 
0.109458 -0.177596 -0.336744 -0.0111001 0.999921 0.00591819 
-0.189938 -0.177596 -0.620274 0.195856 0.979395 0.0492462 
0.0255001 0.302964 0.222667 -0.11845 -0.867903 -0.482404 
0.344846 0.0912177 0.450933 -0.433049 -0.901281 0.0126433 
0.176704 -0.177598 0.186622 0.0239981 0.997503 -0.0664293 
0.0161946 -0.177596 -0.482875 -0.00785588 0.999969 -0.000922106 
-0.0563298 -0.062118 0.494253 -0.0280072 -0.999581 0.00737334 
0.0346633 -0.177596 -0.403229 -0.0180431 0.999801 0.0085002 
-0.310165 0.0545441 0.443908 -0.806566 -0.555926 -0.200992 
0.211675 -0.0334961 -0.815962 -0.88147 0.338235 0.329556 
-0.0255031 0.156102 0.231389 -0.0141458 0.0677845 -0.9976 
0.103519 -0.177598 0.165757 -0.00148118 0.999923 -0.012332 
-0.00133438 -0.177598 0.667385 0.0238037 0.999052 -0.0364513 
-0.031029 -0.177598 0.756298 0.089046 0.981178 0.171349 
0.244538 -0.177596 -0.169059 -0.28464 0.956882 -0.0579424 
0.056532 0.302964 -0.141815 0.00196762 -0.999788 0.0204776 
-0.0428831 -0.0681782 -1.07053 0.6997 0.373638 0.608946 
0.303285 0.0177621 -0.598096 -0.964292 0.169255 0.203699 
0.267199 0.262115 -0.307231 -0.763805 -0.525941 0.374149 
0.0925963 0.302964 0.0925158 -0.0112034 -0.999297 -0.0357809 
-0.156172 0.302964 -0.269272 -0.125846 -0.990563 0.0542857 
0.354908 0.0794892 0.263791 -0.88238 -0.4677 0.0515903 
-0.0952322 -0.177598 0.586988 0.057091 0.998044 0.0254542 
0.158111 -0.058067 0.303668 0.0202159 -0.99718 0.0722718 
0.144561 -0.177598 0.403653 -0.00993607 0.999951 -0.000370453 
0.222446 -0.144443 -0.66255 -0.771733 0.591157 0.234438 
-0.115077 0.0871564 0.82884 -0.166226 -0.32425 -0.931252 
-0.346522 -0.00903314 0.564943 0.797486 0.56662 0.207264 
-0.0827373 0.302964 -0.042048 0.0154924 -0.999878 0.00219894 
-0.285739 0.21242 -0.163419 0.987805 0.128849 -0.0874025 
-0.0654865 -0.177598 0.1729 -0.00210435 0.999932 -0.0114366 
0.0767947 0.302964 -0.0664835 -0.0207397 -0.999773 -0.00485828 
-0.212143 0.302964 0.0842696 0.00694648 -0.999455 -0.0322702 
-0.285739 0.17159 -0.225742 0.969718 0.209769 -0.125078 
0.202153 0.302964 -0.230119 0.0370316 -0.99854 -0.0393218 
-0.081758 0.302964 -0.252854 0.0945569 -0.995296 -0.0210835 
0.19664 0.0839664 0.831908 -0.0431858 -0.252776 -0.96656 
-0.0881176 0.302964 0.153458 0.0732855 -0.992453 0.0983143 
-0.00920273 0.00101881 0.813128 -0.0739389 -0.352051 -0.933056 
0.276169 -0.0349395 -0.64946 -0.897019 0.319692 0.30521 
-0.139461 -0.177596 -0.347294 -0.0514912 0.998436 -0.0217606 
0.297657 -0.136537 0.15196 -0.820304 0.571881 -0.00725547 
-0.285424 0.0161857 0.746901 -0.734025 0.13464 0.665642 
0.178759 0.302964 -0.0392685 0.0822294 -0.996582 0.00790155 
0.355937 0.0754037 0.352806 -0.885853 -0.463944 -0.00453408 
-0.209942 0.0939056 -0.745655 0.221773 -0.966744 0.127366 
0.129123 0.302964 -0.262116 0.00941289 -0.998898 -0.0459832 
-0.305017 -0.0479795 0.834355 0.388641 0.145652 -0.909804 
0.190959 -0.0661662 0.690742 0.272717 -0.961543 -0.0325738 
-0.33663 -0.0463781 0.656485 0.854377 0.511229 -0.093188 
0.355079 0.0455874 -0.126219 -0.913752 -0.406149 -0.00998049 
0.344115 -0.0194454 0.216548 -0.923477 0.369341 -0.103819 
-0.297269 -0.137228 -0.0967912 0.805447 0.592103 -0.0258694 
-0.0350219 0.30258 -0.313068 0.0798559 -0.938904 0.334787 
0.31071 -0.111758 0.0733207 -0.930044 0.367242 -0.0122899 
0.285737 0.188626 0.125061 -0.920682 0.388398 -0.0386078 
0.196729 0.303045 -0.304013 -0.0914224 -0.968641 0.231035 
0.172479 -0.177598 -0.0896069 0.0624066 0.997572 -0.0309201 
0.210079 0.242218 -0.382239 -0.255452 -0.620831 0.741157 
0.271825 -0.177057 0.318237 -0.428849 0.903367 -0.00404822 
0.346124 0.0907496 -0.260728 -0.666295 -0.683948 0.297095 
0.285737 0.125314 0.215856 -0.479801 -0.868918 -0.121541 
-0.179297 -0.106097 -0.821181 0.807619 0.386762 0.445159 
0.168375 -0.0630505 0.539531 -0.0871151 -0.993816 0.0688552 
-0.064551 -0.0587395 0.335188 -0.0519087 -0.986856 0.153041 
-0.200955 -0.0649074 0.629671 -0.0882609 -0.994935 -0.0481038 
0.350305 0.0137177 -0.276136 -0.961845 0.247728 0.116121 
-0.271559 -0.17744 0.631161 0.473998 0.880373 -0.0163777 
-0.354906 0.0440928 0.0485157 0.966436 -0.21254 0.144321 
-0.00658379 0.139659 -0.460132 -0.114294 -0.485431 0.866772 
0.19082 -0.113934 -0.7876 -0.879285 0.297743 0.371762 
0.0787003 -0.0663929 0.701745 -0.170072 -0.974172 0.14854 
0.216124 -0.177598 0.421979 0.0221403 0.999565 0.0194915 
0.014491 -0.177598 0.119962 0.00140316 0.999999 0.000302673 
0.13427 -0.177598 0.0889988 0.059128 0.997997 0.0224959 
0.16566 -0.0646488 0.617061 0.0363193 -0.995187 -0.0910101 
-0.0445173 0.0109652 0.231387 0.077713 0.0685151 -0.994619 
0.300345 -0.131709 0.766488 -0.813446 0.566024 -0.133876 
0.231527 -0.177598 0.773476 -0.211964 0.975339 -0.0615312 
-0.272323 0.294789 0.154893 0.587744 -0.802501 0.102706 
0.113084 0.00843391 -1.00907 -0.718485 0.317736 0.618726 
-0.190587 -0.173752 -0.695314 0.468572 0.874713 0.123766 
0.0192383 -0.0321699 -1.11807 -0.414705 0.555582 0.720659 
-0.263785 0.227652 -0.348134 0.866812 -0.321876 0.380831 
0.326353 -0.0759605 0.357293 -0.966493 0.254951 -0.0298533 
-0.249844 -0.0660487 0.684989 -0.376904 -0.895919 -0.235102 
0.195298 -0.0105179 0.835342 0.0211325 0.0685177 -0.997426 
0.173195 -0.177596 -0.296531 0.0369227 0.999107 0.0205567 
-0.0512246 -0.177598 0.0127374 -0.00143033 0.999995 -0.00273029 
-0.0911832 0.0939056 -0.572151 0.0674154 -0.997489 -0.0216999 
-0.128681 0.0865952 -0.986789 0.568193 -0.672509 0.474224 
0.270081 -0.0360077 0.304435 0.478794 -0.854164 0.20288 
0.0821034 -0.177598 0.623939 -0.0397087 0.998954 -0.0226623 
0.285737 0.165576 -0.0459041 -0.997677 0.0680831 -0.00248875 
0.0855065 0.302964 0.167877 -0.0158895 -0.999144 0.0381994 
0.285737 0.214103 -0.1064 -0.988803 0.148811 0.0110938 
0.224409 0.134407 -0.453709 -0.154598 -0.724485 0.67173 
0.316212 -0.0978284 -0.288491 -0.945837 0.320156 0.0537851 
-0.34979 0.0225445 -0.31838 0.961747 0.139294 0.23588 
-0.0510845 0.0848732 0.231387 0.0100278 -0.0329676 -0.999406 
0.0623763 -0.177596 -0.118721 -0.0140308 0.999871 0.00777552 
0.254615 -0.177598 -0.0233572 -0.322819 0.9452 0.0488388 
0.0380997 -0.177596 -0.851677 0.0220646 0.99975 -0.00347926 
-0.285739 0.135023 -0.150781 0.910278 -0.372633 0.180384 
0.11605 -0.177596 -0.248216 0.0165922 0.999799 0.0112365 
-0.088745 -0.0606037 0.422618 -0.0382985 -0.996658 -0.0721461 
-0.00453228 -0.177598 0.506527 -0.00974189 0.999952 0.000607899 
0.145234 -0.177596 -0.403319 0.081591 0.996647 -0.00614538 
-0.0898274 -0.177598 0.270843 0.00753143 0.999839 0.0162875 
0.299766 0.02475 0.269615 0.882578 0.29173 -0.368714 
-0.285739 0.210058 -0.0838392 0.970036 0.222515 0.0975573 
0.0778597 -0.177598 0.270578 -0.0364418 0.999256 0.0125971 
-0.353031 0.0841482 0.588914 0.316475 -0.948268 -0.0251152 
-0.103211 -0.177596 -0.269043 0.0193724 0.999775 0.0086054 
-0.147958 0.0939056 -0.679689 -0.0955687 -0.995402 0.00648719 
0.0399964 -0.177599 -0.960432 -0.489546 0.869876 0.0605002 
0.193301 0.0939056 -0.698649 0.15229 -0.988006 -0.025542 
0.0592213 0.212147 0.231389 -0.0430575 0.183431 -0.982089 
-0.102495 0.269215 -0.359652 -0.0360818 -0.80322 0.594589 
0.0710678 0.302514 -0.313403 -0.0494221 -0.953119 0.298532 
-0.329833 -0.0666481 -0.164531 0.958433 0.284222 -0.0249617 
-0.337383 0.07487 -0.462876 0.85206 -0.515914 0.0884681 
-0.312724 -0.107623 0.615166 0.962991 0.269383 -0.00903006 
-0.245722 0.187736 -0.407893 0.699768 -0.258697 0.665883 
-0.233431 0.0939056 -0.569031 -0.108134 -0.982883 -0.149159 
-0.0899833 -0.0479378 0.231387 0.0500857 -0.490974 -0.869733 
0.355511 0.050505 0.175019 -0.969322 -0.241046 -0.0480729 
0.338445 -0.0405157 0.602161 -0.930158 0.367153 -0.00220709 
-0.0788517 -0.177598 0.659476 0.0308121 0.995782 -0.0864235 
0.352843 0.0262899 0.757647 -0.986242 0.164287 0.0183425 
-0.332369 -0.0476834 -0.338395 0.954115 0.291438 0.0687565 
0.282175 0.281487 -0.230441 -0.777878 -0.61182 0.143465 
-0.312353 0.0746046 -0.581634 0.841653 -0.533328 0.0847459 
0.346551 0.0386332 -0.382848 -0.949036 -0.305753 -0.0764642 
-0.304902 -0.0831294 -0.459599 0.931038 0.328945 0.157998 
-0.26784 -0.0397631 0.367033 -0.681333 -0.707177 0.188905 
-0.343961 0.0312418 -0.397773 0.998664 -0.024319 -0.0455835 
0.0643717 0.0146729 -1.07838 -0.885363 0.235952 0.400574 
0.233463 -0.177596 -0.340637 -0.151451 0.985731 -0.0734674 
-0.315686 -0.10122 0.701487 0.98267 0.185211 0.00753151 
-0.217909 -0.105545 0.835342 -0.0309955 -0.000402993 -0.999519 
-0.264467 -0.0451628 0.478697 -0.575132 -0.781178 -0.242866 
-0.273897 -0.17409 0.0595194 0.517825 0.855477 -0.00410532 
0.341518 -0.029522 0.706001 -0.94292 0.332177 0.0236503 
-0.238813 -0.164448 -0.563932 0.573154 0.812827 0.103958 
0.0927297 -0.177598 0.343129 -0.0286911 0.999558 0.00782743 
-0.031346 -0.0668403 0.751867 0.0178279 -0.759866 0.649835 
-0.00269833 0.302964 -0.0786116 0.00229469 -0.999997 0.000532402 
0.10067 0.302964 0.00569162 -0.0117368 -0.999723 0.020396 
0.109042 0.0584806 0.231387 -0.080207 0.172296 -0.981774 
0.0827896 -0.0596554 0.378106 -0.0087108 -0.999698 -0.0229701 
-0.138748 -0.177598 0.354474 0.0305152 0.999534 0.000585408 
-0.220709 -0.177596 -0.409619 0.146985 0.97858 0.144142 
-0.194712 -0.177598 0.555489 -0.159488 0.987178 -0.006557 
0.255682 -0.0310335 0.231387 0.375138 -0.568886 -0.731875 
0.118031 -0.0331796 0.835342 -0.0384644 -0.0386144 -0.998514 
0.0326797 0.0394399 0.231387 -0.0511273 0.110063 -0.992609 
0.291002 0.0939028 -0.309873 -0.777002 -0.571792 0.26329 
-0.315921 0.0829325 0.73447 -0.239343 -0.735549 0.633785 
-0.138688 -0.177596 -0.422216 -0.0298941 0.999408 0.0170514 
-0.0400057 -0.177596 -0.379005 0.0139316 0.999892 -0.00470514 
-0.0859021 0.0939056 -0.907942 -0.121392 -0.990507 -0.0644979 
-0.0411463 0.302964 0.0906048 -0.00302594 -0.999974 -0.0065716 
-0.113912 -0.142125 -0.903526 0.68624 0.647571 0.331248 
-0.000803484 -0.177598 -0.0677457 0.00735993 0.999965 0.00388395 
0.0363964 -0.0583803 0.318341 0.0110138 -0.996637 0.0812017 
0.0228605 -0.103627 -1.07225 -0.359675 0.398277 0.843807 
0.2867 -0.118084 -0.471461 -0.896515 0.400348 0.189689 
-0.285739 0.127892 -0.0721847 0.826593 -0.525086 -0.202555 
0.199276 -0.0888739 0.835342 0.0293206 -0.221162 -0.974796 
0.26728 -0.0406341 0.665802 0.606751 -0.784456 0.128379 
-0.265506 0.0488977 -0.726946 0.886817 -0.143603 0.439242 
0.305766 0.0410483 0.409586 0.991361 -0.12807 0.0283069 
-0.132764 -0.177598 0.105172 0.0339583 0.999362 0.0110851 
0.338313 -0.0409628 0.423943 -0.949287 0.313898 -0.0179705 
0.0168881 -0.177598 0.822693 0.0800642 0.773583 -0.628617 
0.283423 -0.159773 -0.254768 -0.655728 0.753931 0.0401095 
-0.0580949 -0.177596 -0.452897 0.0128033 0.999918 -0.00102222 
-0.0737909 -0.177596 -0.809955 0.0497428 0.99661 0.0655336 
-0.222088 0.0903946 0.756308 0.0568571 -0.228013 0.971997 
0.179228 -0.177598 0.620403 0.111433 0.993557 -0.0206531 
0.317898 0.0829747 0.530378 0.622458 -0.781742 -0.0377594 
-0.0107556 0.0939056 -0.899466 0.0272893 -0.999175 0.0300607 
-0.0962168 0.0818147 0.756281 -0.269249 -0.29721 0.916063 
0.351397 0.0167467 0.555551 -0.939312 0.312107 0.142416 
-0.142794 0.000795406 -0.96056 0.792239 0.332356 0.511758 
0.319411 -0.0505305 -0.443999 -0.899873 0.386658 0.201801 
-0.350163 0.00951867 0.128797 0.941757 0.331323 -0.0575989 
-0.228905 0.302724 -0.288608 0.262777 -0.925679 0.272151 
-0.0755626 -0.0657044 0.668301 -0.0582385 -0.991542 -0.115983 
0.0692229 -0.177598 0.520344 0.00551959 0.999984 0.00157188 
0.123 -0.177596 -0.168617 0.0424664 0.998982 -0.0152418 
0.266477 -0.177598 0.634508 -0.418745 0.900247 0.119197 
-0.198824 0.088982 -0.860485 0.657145 -0.702891 0.27222 
-0.285709 0.252993 0.228355 0.737432 -0.317398 -0.596198 
0.333135 -0.0424233 0.816086 -0.813671 0.212132 -0.541239 
-0.354246 0.0823094 0.301646 0.854116 -0.518482 0.0407751 
-0.313387 -0.106195 0.789051 0.887682 0.400474 -0.227246 
-0.236956 0.0429041 -0.795024 0.942737 -0.094789 0.319784 
-0.126357 0.302964 0.0485105 -0.00727712 -0.998768 -0.0490803 
0.270047 -0.113818 0.835245 -0.341501 0.275972 -0.898453 
0.0810553 0.0939056 -0.62768 -0.000365711 -0.999921 0.0125884 
-0.127518 -0.0626081 0.518051 0.0828947 -0.994798 -0.0592062 
-0.273418 -0.0941618 -0.583187 0.927254 0.258611 0.270778 
0.150248 0.0870702 -0.951545 -0.666009 -0.691974 0.278573 
0.102272 0.0780981 0.756307 0.243696 -0.180728 0.952864 
-0.294671 0.0939035 -0.226118 0.612846 -0.755304 -0.232238 
-0.337587 -0.0433146 0.416395 0.943431 0.330922 -0.0206914 
0.176433 -0.177598 0.326384 0.0863238 0.996076 0.0195152 
-0.00889453 0.0939056 -1.05712 0.185961 -0.981878 -0.0365128 
0.0792706 -0.177598 -0.0438434 -0.0358185 0.999343 -0.00547324 
0.250255 -0.177598 0.100239 -0.337692 0.940156 -0.0455152 
-0.219494 0.0065866 0.231387 0.0284007 -0.169597 -0.985104 
0.302782 -0.127251 -0.0690601 -0.871275 0.487715 0.0548921 
-0.33367 0.0939035 0.376647 0.0985987 -0.968855 -0.227153 
0.286482 0.0920519 0.755823 0.286051 -0.609834 0.739106 
0.0789295 -0.0419124 0.231387 -0.0910145 -0.580205 -0.809369 
0.174285 -0.175283 -0.733654 -0.483849 0.865488 0.129695 
0.226979 -0.0956372 -0.723595 -0.88467 0.288704 0.366073 
0.260881 0.176967 -0.398306 -0.684804 -0.412396 0.60081 
-0.134996 -0.0722077 -0.933339 0.805407 0.28088 0.521943 
0.272782 0.292836 0.230896 -0.763228 -0.309172 -0.567358 
0.265233 0.299072 0.0918538 -0.457811 -0.874576 0.159768 
-0.285741 0.11265 -0.35383 0.807361 -0.562711 0.177554 
-0.200003 0.00123789 0.835342 0.0917795 0.096668 -0.991076 
0.320713 -0.0898433 0.221941 -0.958455 0.285245 1.4243e-06 
-0.0314422 -0.177596 -0.879436 0.0723579 0.994193 -0.0796592 
0.320602 -0.0900785 -0.188159 -0.945699 0.325 -0.00526658 
-0.00496486 -0.0632289 0.5482 -0.0137176 -0.99982 0.0130915 
-0.0853316 -0.177596 -0.534885 0.00414564 0.999987 -0.00303292 
0.00693821 0.0939056 -0.793729 -0.00240814 -0.999992 0.00324992 
-0.175909 0.302964 -0.18819 -0.116283 -0.991931 -0.050501 
0.320017 -0.0914533 -0.00102592 -0.956714 0.290564 -0.0164328 
0.353889 0.0832109 0.605991 -0.558943 -0.824435 -0.0888171 
-0.0564652 -0.177598 0.0932377 -0.00780335 0.99996 0.00436519 
-0.131911 -0.0283673 0.835342 0.0298176 0.0971435 -0.994824 
0.246252 -0.0624365 0.509709 0.42812 -0.900806 0.0725378 
0.230927 0.302964 0.0135088 -0.182797 -0.98315 0.000730042 
0.0457303 -0.177596 -0.221022 -0.00855765 0.999958 -0.00332548 
-0.0087034 -0.0571051 0.258518 0.100336 -0.873291 -0.476755 
-0.11403 0.125413 0.231387 -0.0349717 -0.0774204 -0.996385 
-0.181577 0.213521 0.231389 -0.252545 0.141639 -0.957162 
-0.0813419 -0.177596 -0.735412 -0.050726 0.998389 -0.0254271 
-0.167496 -0.166191 -0.765534 0.476194 0.806921 0.349453 
-0.00232427 -0.177598 0.395486 0.00517366 0.999931 -0.0105136 
-0.0749355 -0.177598 -0.0700811 0.00761642 0.999918 0.0103129 
-0.215655 0.302964 -0.0975048 0.0277928 -0.997582 0.0636979 
0.162774 0.0372806 0.835342 0.00714511 0.00926053 -0.999932 
0.122207 -0.0610485 0.443467 -0.0510314 -0.997974 -0.0379993 
-0.350791 0.0861306 -0.275028 0.735083 -0.674933 -0.0641717 
-0.298831 -0.134437 0.377562 0.872728 0.481804 -0.078808 
0.254074 0.0939056 -0.54443 0.0366593 -0.981798 0.186357 
0.0435571 -0.0648504 0.835342 0.0950873 -0.202948 -0.974562 
0.297973 0.0202909 0.627324 0.964758 -0.233875 -0.120603 
-0.0798659 -0.177598 0.511284 0.0289254 0.999582 -8.71786e-05 
0.084528 -0.062689 0.521977 0.0219551 -0.999709 -0.0100214 
0.314669 -0.0881861 -0.370944 -0.934666 0.348517 0.0702486 
-0.195397 -0.0598161 0.385678 0.00921954 -0.994763 0.10179 
-0.00425819 0.0939056 -0.552131 -0.0827391 -0.995734 -0.040842 
0.285737 0.117047 0.0619341 -0.677733 -0.721564 -0.141508 
-0.153221 -0.177598 0.481293 -0.0653761 0.99677 -0.0466485 
-0.0023511 -0.0660021 0.682728 0.118616 -0.978088 -0.171094 
-0.144054 0.302964 -0.118394 0.00148494 -0.999867 0.016255 
-0.278499 0.172794 0.231389 0.699568 0.340633 -0.628151 
-0.159363 -0.177596 -0.156448 -0.0542098 0.998529 -0.000990553 
-0.285739 0.0945941 0.157643 0.555907 -0.761763 -0.332693 
0.0284261 -0.177596 -0.692089 -0.0399421 0.998852 0.0264513 
-0.232351 -0.177597 -0.113796 0.171779 0.985086 -0.00984551 
-0.174456 0.187605 -0.432769 0.0132461 -0.3549 0.93481 
-0.234104 -0.105325 -0.691912 0.921405 0.272335 0.277212 
0.0749202 -0.0516959 -1.0374 -0.828823 0.166117 0.534282 
0.285737 0.229543 0.0389683 -0.995035 0.0628339 0.0771803 
0.251515 0.30272 -0.0704274 -0.33872 -0.939864 -0.0438548 
0.123325 -0.177596 -0.478902 0.0417137 0.998898 -0.0215212 
0.178369 0.0117417 -0.903679 -0.827067 0.281849 0.486334 
0.348159 -0.00113658 -0.199533 -0.95362 0.296988 0.0490573 
-0.349835 0.00761504 -0.139493 0.952294 0.289636 0.096163 
-0.289852 0.0424506 0.231387 -0.676898 -0.244095 -0.694426 
0.149968 0.0939056 -0.768199 0.103969 -0.993024 -0.0556292 
0.312236 0.0939048 -0.420551 -0.713457 -0.690056 -0.121665 
0.0738383 0.0939056 -0.761672 -0.0268148 -0.999212 0.0292519 
-0.297688 0.0196183 0.66825 -0.965288 -0.183418 -0.18595 
0.264061 0.0939092 -0.647457 -0.373144 -0.927536 -0.0210161 
-0.0916642 0.122435 -0.467639 0.106206 -0.676976 0.728302 
0.153326 -0.177598 0.761669 0.0116474 0.973273 0.229354 
0.219497 0.0928595 -0.795509 -0.448894 -0.871832 0.195968 
-0.00564523 0.0294397 -1.1529 0.19136 0.0928487 0.977118 
0.285737 0.107054 0.1375 -0.629997 -0.77147 0.089091 
-0.0659389 0.0939056 -0.819397 -0.0177742 -0.999827 -0.00547557 
0.279667 0.286695 -0.141517 -0.750709 -0.659212 -0.0433011 
-0.168829 0.0939056 -0.604883 -0.0658051 -0.991962 -0.108082 
-0.341192 -0.0307963 0.066759 0.937727 0.343505 -0.0516845 
0.161535 0.0939056 -0.543056 -0.0224426 -0.995336 0.0938251 
-0.0486069 0.302964 0.217686 0.12702 -0.893929 -0.429834 
-0.352344 0.0230276 0.353573 0.94806 0.314914 0.0448393 
0.23407 -0.177598 0.524879 -0.0951739 0.994331 -0.0474107 
0.261547 -0.101209 -0.613968 -0.889442 0.345433 0.299279 
0.223267 0.210204 0.231389 -0.300055 0.395405 -0.868114 
0.152198 -0.0608443 0.756308 -0.0426892 -0.695979 0.716792 
0.18351 -0.174819 0.835342 -0.0922641 0.728637 -0.678657 
-0.0990434 -0.177598 0.430422 0.000405687 0.999944 -0.0105758 
-0.0240363 0.302964 -0.176431 0.00345686 -0.999854 -0.0167347 
-0.32026 -0.0908881 0.531735 0.989625 0.143616 -0.00406018 
-0.176996 -0.177598 -0.058623 -0.0350604 0.999361 -0.00689618 
-0.140327 -0.104264 0.835342 0.0773949 -0.162689 -0.983637 
0.164329 0.302964 0.0584275 0.0300387 -0.997929 -0.0568825 
0.242214 0.0226243 -0.776575 -0.903338 0.29156 0.314598 
0.141841 -0.177598 0.551152 0.00598419 0.999932 -0.0100564 
0.00829683 -0.177598 0.593917 -0.0100881 0.999798 0.0173952 
-0.239405 -0.177598 0.789509 0.29857 0.897035 -0.32586 
0.130516 0.0939056 -0.857551 0.0680302 -0.996415 -0.0502806 
-0.303665 -0.109681 -0.382857 0.910174 0.392715 0.131748 
0.215593 -0.177598 0.260055 0.0383487 0.995994 0.0807798 
-0.190275 0.0813883 0.832765 0.0291306 -0.229017 -0.972987 
0.165891 -0.0684869 -0.881878 -0.834676 0.286397 0.470418 
0.266621 -0.041742 0.40574 0.599991 -0.789209 -0.130998 
-0.349528 0.00592634 0.203853 0.925021 0.379157 0.0239977 
-0.299607 -0.133052 -0.0221473 0.850723 0.522663 0.0556273 
-0.177526 -0.177598 0.632279 -0.11776 0.993014 -0.00744023 
-0.30787 -0.117493 0.461948 0.932271 0.355725 0.0658085 
-0.337594 -0.0432926 -0.0859622 0.930512 0.361144 0.0610068 
0.233077 -0.164217 -0.585964 -0.593849 0.783853 0.181433 
-0.140936 -0.177598 0.181624 -0.00628085 0.999938 -0.00916394 
0.327739 -0.0722779 -0.115421 -0.917697 0.397198 -0.00805726 
-0.310124 0.0543981 0.531843 -0.868719 -0.4692 0.158677 
-0.346076 0.0146639 0.816821 0.712838 0.182911 -0.677056 
0.1249 0.207539 -0.418072 -0.00397889 -0.548338 0.836247 
0.190094 0.302964 0.135352 0.159836 -0.971629 0.174324 
-0.0487081 -0.177598 0.332561 -0.00623708 0.999969 0.00471742 
-0.268011 -0.142356 -0.498693 0.763919 0.640905 0.0752845 
-0.331091 -0.0631076 -0.00548235 0.924218 0.381712 -0.0107721 
-0.0174195 -0.0601293 0.400346 0.000633506 -0.998002 -0.0631737 
-0.256597 0.301892 0.0161589 0.381144 -0.918575 -0.10464 
-0.181811 -0.177598 0.719773 -0.118469 0.984386 0.130185 
0.129476 0.0517706 0.835342 0.0297514 -0.0323972 -0.999032 
-0.285739 0.170117 -0.300922 0.980222 -0.0387306 0.194076 
0.28229 -0.0139229 0.561613 0.907565 -0.418616 0.0329629 
0.0869095 0.0939056 -0.549858 0.0701447 -0.994326 -0.0799726 
-0.347924 0.0891827 0.80123 0.681743 -0.591445 -0.430604 
-0.0982927 -0.0640531 0.588197 0.0540935 -0.998498 -0.00867762 
-0.300381 -0.131644 -0.202391 0.816558 0.576438 0.0308736 
-0.32716 0.00205771 -0.479397 0.906272 0.35131 0.23506 
0.337044 -0.0450547 0.509166 -0.972053 0.233427 0.0249822 
-0.0695183 0.0939056 -0.726721 0.0310615 -0.999504 0.00524845 
-0.104652 0.210937 0.231389 0.143361 0.139174 -0.979836 
-0.218189 -0.177596 -0.217302 0.0917785 0.995304 0.0307683 
-0.106491 0.0253685 -1.02351 0.75716 0.168134 0.63122 
0.0450675 -0.061386 0.459291 0.0211443 -0.999297 -0.0309508 
-0.354957 0.0792726 0.220204 0.773666 -0.626253 0.0961715 
-0.196439 -0.177596 -0.28931 -0.051255 0.996193 -0.0705092 
-0.254429 0.302243 -0.204407 0.437789 -0.897159 -0.0587113 
0.263254 0.0831289 -0.728826 -0.744887 -0.595053 0.301754 
-0.0230459 -0.177596 -0.181389 0.00708902 0.999956 -0.00615914 
0.0532887 0.00103914 0.768134 0.209017 -0.211263 0.954819 
-0.356723 0.0690689 0.669393 0.450074 -0.879585 -0.154154 
-0.0767469 -0.00877173 0.756308 -0.360758 -0.014921 0.93254 
0.217652 -0.00844122 0.756308 0.407113 -0.113353 0.906317 
0.143537 0.302964 -0.176901 -0.0108728 -0.999894 0.00967071 
-0.192868 -0.177598 0.0526102 -0.0969779 0.995013 -0.0233395 
-0.0134599 -0.177596 -0.553217 0.00303734 0.999983 -0.00496838 
0.345344 -0.0141593 0.0430814 -0.886308 0.461683 0.0361478 
0.0780345 -0.177598 0.707148 -0.107471 0.990746 0.0828956 
-0.0873222 -0.0993373 -0.987508 0.821461 0.257561 0.508788 
0.0878008 -0.120099 -0.96871 -0.813974 0.445067 0.373312 
0.0512177 -0.177596 -0.608774 -0.0280281 0.999607 9.63467e-05 
-0.176392 -0.00305128 0.756308 0.389515 0.113685 0.913977 
-0.163202 -0.177596 -0.521479 -0.020248 0.998936 -0.0414395 
0.313218 -0.106549 0.475863 -0.939713 0.339848 0.0379709 
-0.0180112 -0.177596 -0.298141 0.00272623 0.999991 0.00331425 
0.313203 0.0939035 -0.164318 -0.680812 -0.709056 -0.183667 
0.0717276 -0.177596 -0.532802 -0.00413472 0.99999 0.00179742 
-0.222653 -0.0639999 0.754907 -0.0352765 -0.813893 0.579943 
0.104599 0.089262 -1.01813 -0.48653 -0.73335 0.474854 
0.0791152 -0.0646775 0.618509 -0.0498968 -0.996637 -0.0649925 
-0.311813 0.00301864 -0.554218 0.921696 0.358203 0.148888 
-0.267841 -0.0397736 0.27642 -0.551707 -0.758862 -0.346046 
-0.130463 0.0939056 -0.778735 -0.0781425 -0.993569 -0.0819417 
0.273557 0.0837889 0.832044 0.0983809 -0.314197 -0.944247 
0.309787 0.0532745 0.695221 0.75745 -0.595229 0.268276 
0.205433 -0.177596 -0.515593 -0.165793 0.986124 0.0085115 
-0.352233 0.0849505 0.11501 0.704604 -0.709379 -0.0177542 
-0.339827 -0.0356139 0.308885 0.973025 0.229834 0.0199612 
0.0757311 -0.177598 0.433563 0.00313467 0.999979 -0.0056128 
-0.00712921 -0.177598 0.269475 0.0156792 0.999853 0.00694294 
0.131391 -0.177609 -0.822619 -0.355507 0.897257 0.26181 
0.350401 0.0832273 0.812435 -0.81503 -0.284169 -0.50495 
0.0483375 0.0939056 -0.483162 -0.032629 -0.865973 0.499025 
-0.27022 0.0248035 0.835342 -0.0874496 0.00799598 -0.996137 
-0.226085 0.0827037 0.231387 0.291411 0.13403 -0.947162 
0.123861 -0.177596 -0.588729 0.0594405 0.998227 0.00305615 
0.0881945 -0.161163 0.835342 0.0167319 0.521871 -0.85286 
-0.296522 -0.136721 -0.287988 0.836285 0.546243 -0.0473945 
-0.0693799 0.302964 -0.117953 0.00214392 -0.999915 0.012858 
0.151614 0.302947 0.231389 0.287939 -0.803666 -0.52078 
-0.33641 -0.0465019 -0.256943 0.93322 0.357917 0.0315566 
-0.231683 -0.0288091 -0.774367 0.884838 0.307531 0.34998 
-0.285739 0.129337 0.0892246 0.891793 -0.452336 -0.00989524 
0.285737 0.153789 -0.248841 -0.985701 -0.159199 0.0552149 
-0.113681 -0.177024 0.835342 -0.0558871 0.57783 -0.814241 
0.0747062 0.248293 -0.380575 0.0271232 -0.692059 0.721332 
0.136537 0.283144 -0.345724 0.0315838 -0.821441 0.569418 
-0.0605452 0.0451878 -1.08973 0.871135 -0.246838 0.424493 
0.267934 0.00617486 0.835342 0.0543362 -0.00163253 -0.998521 
0.263859 -0.172039 -0.408582 -0.544822 0.835387 0.0727765 
-0.00839372 -0.177596 -0.756421 -0.0275102 0.999619 0.00237948 
0.353097 0.0841115 0.0310337 -0.638915 -0.724931 0.257417 
-0.259676 -0.1776 -0.342451 0.429454 0.902867 0.020022 
-0.0634936 -0.0565984 0.835342 -0.0742074 -0.107053 -0.99148 
0.20267 0.0673783 0.756308 -0.0676653 -0.122246 0.990191 
-0.00270465 0.25313 -0.375738 -0.0108606 -0.691148 0.722632 
-0.3325 -0.0590019 0.150706 0.966163 0.257266 0.018543 
0.201969 0.0751775 -0.871003 -0.725597 -0.513867 0.457656 
-0.354705 0.0418848 -0.207736 0.96584 -0.207197 -0.155638 
0.336396 -0.0471287 0.141115 -0.926698 0.375368 0.0181632 
0.0546544 -0.177598 0.0562984 -0.020095 0.999794 -0.00274801 
-0.348631 0.00120552 0.488041 0.901183 0.425231 -0.0839504 
-0.263764 -0.177598 0.719315 0.371847 0.927977 -0.0242585 
-0.264033 -0.177598 0.434783 0.453337 0.886961 0.0882356 
0.339666 -0.0361978 -0.0467041 -0.919811 0.387221 -0.0632996 
-0.27126 -0.0339853 0.620821 -0.784477 -0.620083 0.00960212 
0.072892 -0.177596 -0.770958 0.119135 0.990478 -0.0689967 
-0.165298 0.112479 -0.47149 0.022189 -0.732394 0.680519 
-0.162822 0.302964 0.221698 -0.120856 -0.8273 -0.548606 
0.0508762 0.0939056 -0.857614 -0.0211174 -0.999177 -0.0346237 
-0.0514835 -0.177603 -0.954534 0.485925 0.869784 0.0857464 
-0.285739 0.208806 0.0821455 0.984115 0.177495 0.00373295 
-0.339207 -0.0377372 0.759875 0.880725 0.454536 0.133117 
-0.16097 0.302964 -0.0384015 -0.0700962 -0.997053 0.0311867 
-0.171795 0.0674174 -0.927698 0.821692 -0.309176 0.478782 
-0.280468 0.0939056 -0.511569 0.106457 -0.986185 0.126907 
0.101526 -0.177596 -0.702711 0.11332 0.992888 -0.0365023 
-0.252552 0.12054 -0.440411 0.403414 -0.766094 0.500356 
-0.16385 -0.0664669 0.705308 0.273248 -0.944982 0.179848 
-0.285739 0.181937 0.00355493 0.948697 0.3161 -0.00740102 
0.182972 -0.060029 0.395646 -0.00749148 -0.992419 -0.12267 
-0.356363 0.062312 -0.0382982 0.821143 -0.510928 -0.254318 
-0.0373393 0.203598 -0.421181 0.0321447 -0.595314 0.80285 
0.00595286 -0.171035 -1.03124 -0.108272 0.797872 0.593024 
-0.174822 -0.021081 -0.895902 0.809499 0.330363 0.485357 
0.12273 -0.128103 -0.904076 -0.685747 0.506902 0.522304 
-0.285739 0.103305 0.0161503 0.788843 -0.607966 0.0900178 
0.0585102 0.117567 0.231387 0.0249155 -0.0913163 -0.99551 
-0.282986 0.25916 -0.260998 0.92555 -0.32947 0.186567 
-0.272914 -0.175498 0.318683 0.442186 0.896185 -0.036399 
-0.318951 -0.0939035 0.259033 0.963756 0.265845 0.0223637 
0.0536672 0.302964 -0.23951 -0.0477694 -0.994406 -0.0942029 
-0.267052 -0.177598 0.183496 0.366828 0.930274 0.00527502 
-0.181735 -0.0614836 0.463868 0.0146638 -0.992068 -0.124841 
-0.271431 -0.177598 0.54737 0.435334 0.900228 0.00861467 
-0.121078 -0.177596 -0.650083 -0.0834663 0.995858 -0.0360535 
0.298884 -0.134341 0.400301 -0.870321 0.490786 -0.0408673 
0.310624 -0.111935 0.586904 -0.923577 0.383413 -0.000509147 
-0.35018 0.0871632 -0.122903 0.731486 -0.657791 0.179551 
-0.280757 -0.00829727 -0.656989 0.866237 0.400174 0.299158 
0.317628 -0.0969624 0.679018 -0.961549 0.273048 0.0294715 
0.179281 -0.177598 -0.0115676 0.115228 0.992996 0.0261055 
0.267474 0.0104142 -0.707069 -0.859008 0.334603 0.387488 
0.196493 -0.177598 0.698943 0.216842 0.975298 -0.0421221 
-0.285739 0.174163 0.154014 0.916158 0.368038 0.158752 
0.285445 0.166185 -0.328411 -0.996693 0.0746304 0.0321367 
-0.230773 -0.177598 0.256562 -0.0101411 0.999948 0.0007003 
0.175815 -0.0434185 0.231387 -0.0413569 -0.725952 -0.686501 
0.0437274 0.191409 -0.430148 -0.0425787 -0.507251 0.860746 
0.044724 0.0939056 -0.969592 0.172314 -0.984302 -0.0381874 
-0.127047 -0.177598 0.0095211 0.0126297 0.999901 -0.00614228 
0.352124 0.0215767 0.481101 -0.943376 0.319418 -0.0895209 
0.00558079 -0.177598 0.195758 0.0051173 0.999987 -0.000827351 
-0.279224 0.287534 -0.0605259 0.717988 -0.684332 0.12721 
-0.306117 -0.120917 0.105693 0.925416 0.3787 0.0138138 
0.174278 0.114876 0.231387 -0.00139239 0.00500736 -0.999986 
-0.0535415 0.0939056 -0.994812 -0.0693604 -0.991381 0.111144 
-0.131652 0.0472185 0.231387 -0.0489455 0.126323 -0.990781 
0.232277 0.0571937 0.231387 0.290645 0.352437 -0.889558 
0.290592 -0.0799785 -0.538411 -0.938674 0.292267 0.182949 
0.286168 -0.155705 0.243147 -0.655581 0.742018 0.140081 
-0.00951119 0.0939056 -0.640038 -0.00729612 -0.999804 0.0184031 
-0.210616 -0.177598 0.37633 -0.0548949 0.997914 0.0339711 
-0.138383 -0.0586183 0.329493 0.104074 -0.978789 0.176466 
0.270261 -0.177598 0.709958 -0.442115 0.887583 -0.129351 
0.348633 0.00121151 0.34458 -0.91752 0.388059 0.0869921 
0.276975 -0.169682 0.463357 -0.566077 0.823721 0.0322614 
0.319547 0.0077547 -0.523667 -0.903889 0.327098 0.275665 
-0.00298451 0.302964 0.0200646 -0.00586681 -0.999968 -0.00536407 
-0.250697 -0.0632982 0.551558 -0.397785 -0.91441 0.0749731 
-0.167399 0.302964 0.146587 -0.10896 -0.977932 0.17826 
0.174248 0.0939056 -0.623815 0.0401605 -0.999137 -0.0106104 
0.285737 0.189704 -0.182605 -0.98528 0.158436 -0.0642045 
0.351558 0.0856662 0.107397 -0.56379 -0.795233 -0.223036 
0.285737 0.235624 0.185905 -0.897215 0.299905 -0.324133 
0.302268 0.0939035 -0.0362325 -0.715213 -0.690075 0.110755 
0.131407 -0.0429044 -0.958336 -0.80236 0.315541 0.506609 
-0.176888 0.285129 -0.343739 -0.0256933 -0.883749 0.467255 
-0.107757 -0.177598 0.742319 -0.0673732 0.968157 0.241109 
0.354725 0.0421783 -0.0432865 -0.934042 -0.346413 0.0869694 
0.113307 0.0939056 -0.695239 -0.0503523 -0.99871 0.00651591 
-0.286152 0.087035 -0.651888 0.668249 -0.686647 0.286285 
0.00554254 0.0939056 -0.719865 0.00367354 -0.99997 -0.00680787 
0.031663 0.0867391 -1.11865 -0.377412 -0.806527 0.455054 
