ply
format ascii 1.0
element vertex 500
property float x
property float y
property float z
property float nx
property float ny
property float nz
end_header
0.0146021 -0.112856 0.167267 -0.0504001 0.00190138 0.998727 
0.318306 0.441346 -0.0119502 0.892696 0.448893 0.0398502 
-0.199349 -0.803984 0.0203284 0.110536 -0.993829 0.00921916 
-0.0603922 0.0840494 0.162154 -0.0912773 -0.00105733 0.995825 
0.167361 -0.68531 -0.17695 0.100531 -0.0599204 -0.993128 
-0.0509788 -0.0694889 -0.162973 -0.0900013 -0.000927026 -0.995941 
0.0814831 -0.372981 0.169698 -0.019044 -0.00045877 0.999819 
-0.152484 0.0310757 0.147293 -0.25974 -0.00277855 0.965675 
-0.14954 -0.185757 0.147967 -0.246987 -0.00245752 0.969016 
0.175638 -0.787887 -0.175957 0.0561773 0.144366 -0.987928 
0.269766 0.0857584 -0.0569215 0.988694 0.115424 -0.0957191 
-0.235853 -0.223315 -0.087845 -0.883889 0.00968829 -0.467597 
-0.250806 0.13524 -0.023493 -0.998104 0.00664578 -0.061186 
0.233028 0.188075 0.155178 0.722699 0.0566235 0.68884 
-0.25095 -0.208643 0.0206201 -0.998205 0.00432313 0.0597361 
0.127361 0.55052 0.167046 0.256897 0.449461 0.855563 
0.320431 -0.616603 -0.0774241 0.950813 0.246746 -0.187272 
0.212718 -0.38343 0.166214 0.256289 0.116109 0.959601 
-0.228842 0.546383 -0.156032 -0.413537 0.0645233 -0.908198 
-0.301905 0.577212 -0.039319 -0.990632 0.083143 -0.108329 
0.0897235 0.627952 0.119163 0.535868 0.65068 0.538016 
0.00762654 0.161003 0.166931 -0.0525022 0.000573408 0.998621 
-0.0276834 0.487428 -0.174993 -0.00676958 -0.100629 -0.994901 
0.1244 -0.176124 0.170691 0.00117838 0.000135505 0.999999 
0.0691495 0.195731 0.169387 -0.0208326 -0.0131602 0.999696 
0.028446 0.158037 -0.167928 -0.031309 0.00122562 -0.999509 
-0.23295 -0.388138 -0.0938487 -0.854863 0.0277631 -0.51811 
0.0999173 -0.53702 0.172081 -0.0364778 0.101168 0.9942 
0.285174 -0.144253 0.0288123 0.997839 0.0161076 0.0637008 
-0.311014 -0.776214 0.0369304 -0.982446 0.158048 0.099102 
0.291814 -0.810584 -0.134115 0.639527 -0.312576 -0.702354 
-0.244171 -0.27722 0.0652728 -0.961633 -0.0126112 0.274048 
0.258837 -0.5162 -0.101938 0.961857 0.180969 -0.205138 
-0.0605396 -0.137355 -0.162078 -0.0864605 -0.0018876 -0.996253 
0.192996 -0.745134 0.173655 0.145092 0.178709 0.973145 
0.195103 0.355655 -0.168461 0.0812849 0.0340484 -0.996109 
0.0754426 0.935948 0.0603886 0.846125 -0.269054 0.46009 
-0.000134669 -0.647832 -0.182979 -0.00248067 0.0102827 -0.999944 
-0.149517 0.348061 0.148166 -0.198247 -0.0232856 0.979876 
-0.236646 0.0905451 -0.0866206 -0.896023 -0.00347648 -0.443994 
-0.0727413 -0.41684 -0.160613 -0.0945978 0.00989978 -0.995466 
-0.0700984 0.418729 0.16125 -0.0758657 -0.11848 0.990054 
0.276793 -0.405555 0.0335425 0.989186 -0.117298 0.0880435 
-0.251201 -0.0648756 -0.0141482 -0.999547 0.000136894 -0.0300921 
0.0243266 0.300842 -0.167738 -0.0378965 -0.00333606 -0.999276 
-0.134635 -0.310715 0.151396 -0.197206 0.00098466 0.980362 
0.127146 -0.737346 0.180049 0.0516277 0.0641232 0.996606 
0.17923 0.0690339 -0.169678 -0.00973811 -0.0315924 -0.999453 
0.218999 0.146756 -0.165715 0.519168 0.120333 -0.846159 
0.275731 -0.766501 0.146876 0.57433 0.16948 0.800888 
-0.159287 -0.802439 -0.0427902 -0.0280343 -0.998964 0.0358465 
-0.231643 -0.813908 0.0828075 0.560671 -0.757412 -0.334628 
-0.250875 -0.561644 0.0482972 -0.931483 0.336586 0.138017 
0.323702 -0.697344 0.0584667 0.98291 -0.105946 0.150546 
-0.134852 0.983422 0.0548995 -0.728407 0.543929 0.416612 
0.0160944 -0.298873 -0.167321 -0.0520507 -0.00600893 -0.998626 
0.222509 -0.837205 -0.163887 0.234593 -0.741411 -0.62871 
0.27596 -0.00843109 0.0752039 0.992437 0.0823409 0.0910402 
0.00345011 0.3061 0.166704 -0.0587719 0.00779343 0.998241 
0.2938 0.42355 0.124471 0.813923 0.200263 0.545366 
0.104758 0.308821 0.170315 0.0073344 0.0125792 0.999894 
-0.293593 0.626425 0.0630087 -0.965034 0.108977 0.238397 
-0.231247 -0.387011 0.096574 -0.833465 0.0246764 0.55202 
-0.038466 -0.771892 -0.182205 -0.127279 0.266604 -0.955365 
-0.126959 -0.536432 0.15297 -0.170339 0.143493 0.974882 
-0.0237784 0.597371 0.171968 0.0438749 0.069435 0.996621 
0.25186 -0.274678 0.158304 0.616868 -0.167141 0.769115 
0.0946161 -0.799245 0.0555438 0.00760107 -0.994815 -0.101417 
-0.250976 0.212552 0.0194519 -0.995764 -0.0278287 0.0876326 
0.145283 -0.00247936 -0.170815 -0.0656672 0.0257405 -0.99751 
0.066193 -0.650853 -0.182315 0.02415 -0.000372993 -0.999708 
-0.0742364 0.188302 -0.160776 -0.107794 0.00130042 -0.994172 
-0.105643 0.712822 -0.164422 0.0753533 0.0731699 -0.994469 
0.244689 -0.565969 0.162284 0.534518 0.173816 0.82709 
0.211349 0.29107 -0.166553 0.257235 -0.109912 -0.960078 
0.0936031 0.459116 0.177166 -0.0117518 -0.106255 0.994269 
0.00456881 0.817935 0.082995 0.751933 0.000258764 0.65924 
-0.111318 -0.229988 -0.155639 -0.149462 -0.00339993 -0.988762 
-0.00600868 1.0372 0.103881 -0.0634306 0.243248 0.967888 
-0.133965 0.45512 0.163875 -0.0616043 -0.2065 0.976505 
0.0864915 0.21972 -0.169868 -0.0408175 -0.00495661 -0.999154 
0.254674 0.118123 0.112319 0.96185 0.0686283 0.264831 
0.0091341 -0.54083 0.168754 -0.0392267 0.157365 0.986761 
-0.184115 -0.0359479 0.136058 -0.432151 -0.000667842 0.901801 
-0.109983 0.127724 -0.155984 -0.150532 -0.000731627 -0.988605 
-0.00896894 -0.735737 0.182834 -0.0371608 0.0862566 0.99558 
-0.174537 0.117151 -0.140218 -0.365056 0.000551719 -0.930985 
-0.241644 -0.720569 0.157009 -0.403215 -0.0341774 0.914467 
-0.223064 0.80957 0.110035 -0.706091 0.279356 0.650688 
-0.23529 -0.45292 0.0894672 -0.872632 -0.0602476 0.484648 
-0.0286522 0.864535 0.118126 0.554491 0.00729066 0.832158 
-0.248473 0.0603507 0.0442367 -0.989865 0.00336242 0.14197 
-0.0737167 0.235155 0.160861 -0.103186 -0.00505973 0.994649 
-0.0723081 -0.485978 0.160603 -0.122121 -0.0244747 0.992213 
0.215876 0.12436 0.166205 0.407767 0.0139021 0.91298 
-0.170289 0.95377 0.00555945 -0.695727 0.717673 0.0301701 
-0.139895 -0.802021 0.0891142 0.0705609 -0.931415 -0.357053 
0.059433 -0.837331 -0.179649 0.0248435 -0.802979 -0.59549 
0.268974 -0.509114 0.0374898 0.96619 0.225776 0.124508 
0.129029 -0.316108 0.170769 -0.00274394 -0.000235496 0.999996 
-0.267208 0.781968 -0.0275471 -0.952247 0.282715 -0.115315 
0.271568 -0.481208 -0.0307742 0.996371 -0.0153902 -0.0837181 
0.257019 0.498544 0.0699355 0.651436 0.753714 0.0868701 
-0.217701 0.706252 0.144549 -0.467469 0.16524 0.868429 
0.0264512 -0.158286 -0.167796 -0.0535118 0.00273618 -0.998563 
0.088221 0.0839679 -0.169904 -0.0139497 -0.0135361 -0.999811 
-0.0863114 -0.837194 0.176542 0.0381567 -0.812376 0.581884 
0.172827 -0.802855 0.0782979 -0.0810472 -0.932288 -0.352521 
-0.296226 0.649578 -0.0261592 -0.987825 0.129842 -0.0856888 
-0.116129 -0.0526651 0.155016 -0.160064 -0.00119268 0.987106 
0.164848 0.178149 0.170333 -0.0498349 0.0204608 0.998548 
-0.0944694 0.875371 -0.124258 0.0446069 0.347927 -0.93646 
-0.23561 -0.147501 0.088442 -0.888516 0.0095741 0.458746 
-0.20018 0.90875 0.0725527 -0.672008 0.592815 0.443819 
0.307606 0.446834 -0.0873185 0.795844 0.524697 -0.302201 
-0.0266489 0.865487 -0.117717 0.281331 0.173646 -0.943769 
0.266259 -0.0284894 -0.117964 0.93836 -0.0217558 -0.344975 
-0.0235788 0.725022 -0.136187 0.50826 0.165582 -0.845136 
0.00563311 -0.245432 0.166805 -0.0521514 -0.000595996 0.998639 
-0.10884 -0.687044 0.180167 -0.0569552 -0.104736 0.992868 
0.0461707 -0.831739 0.133146 0.0601402 -0.916229 -0.396115 
0.108345 0.627436 -0.097552 0.626869 0.663351 -0.408658 
0.247391 -0.817406 0.0657621 -0.445494 -0.829475 -0.336907 
0.0994192 0.15448 -0.170186 -0.0683157 0.00200887 -0.997662 
0.0133703 -0.0910017 -0.16721 -0.0481997 -0.00380537 -0.99883 
-0.17242 0.106385 0.141016 -0.352101 0.00942779 0.935914 
0.0782284 -0.327149 -0.169614 -0.0273522 -0.00546936 -0.999611 
0.0416805 0.76694 0.0485386 0.903632 0.214 0.371016 
-0.17012 0.866962 0.126974 -0.435223 0.383711 0.814461 
0.23849 0.524683 0.00950579 0.719606 0.693438 0.0362027 
-0.297819 -0.836855 -0.0730708 -0.712247 -0.690503 -0.126135 
0.0930877 -0.191146 -0.170002 0.00858264 -0.000325306 -0.999963 
0.260152 0.282131 0.149225 0.620825 -0.35465 0.699142 
0.0302087 0.881984 -0.0875689 0.639577 -0.154288 -0.753085 
-0.246529 -0.0722379 0.0549253 -0.977669 -0.00244294 0.210135 
0.25971 0.173499 0.0639636 0.968167 0.223034 0.113618 
0.219365 -0.730405 -0.168971 0.158473 0.0617664 -0.985429 
-0.275874 0.407235 -0.134547 -0.537688 -0.211126 -0.816282 
0.320157 0.386767 0.0712807 0.970875 0.141605 0.193262 
-0.236487 -0.0112068 0.0866301 -0.895649 -0.00819638 0.444687 
0.323666 -0.686406 -0.0584612 0.977038 -0.101633 -0.187261 
-0.0631222 -0.16022 0.161843 -0.0997945 -0.000491458 0.995008 
-0.179973 -0.370326 -0.137773 -0.40547 0.00512029 -0.914094 
0.323557 0.313423 0.0592834 0.915151 -0.389156 0.105147 
0.317679 -0.757827 0.0878948 0.950692 0.164789 0.262733 
0.0985494 -0.624074 0.181254 0.0314406 0.0566836 0.997897 
-0.0460624 -0.269424 -0.163374 -0.0841852 0.00225761 -0.996448 
-0.218804 -0.810295 0.165268 -0.276338 -0.22934 0.933295 
0.159727 0.452076 0.172933 0.0596603 -0.0877499 0.994354 
-0.257499 0.754138 0.0892431 -0.848716 0.261966 0.459407 
0.211319 -0.383641 -0.166386 0.243831 0.0134817 -0.969724 
-0.0173785 1.12474 0.044229 -0.597944 0.73104 0.328698 
0.245673 -0.451477 -0.154279 0.725122 -0.0537204 -0.686522 
-0.239588 -0.094451 -0.0793256 -0.920907 -0.00878375 -0.389684 
-0.186381 -0.15386 -0.135054 -0.462862 -0.000448806 -0.88643 
0.136803 -0.36407 -0.17077 -0.0239399 -0.0110162 -0.999653 
0.0721267 0.894148 -0.0321282 0.892841 -0.376313 -0.247435 
0.142193 -0.532164 -0.172387 0.0025386 0.0770104 -0.997027 
-0.285448 0.327472 0.0731155 -0.721039 -0.562032 0.405245 
-0.0883288 -0.79934 0.03985 0.0489596 -0.988134 0.145583 
-0.18271 0.770483 0.147438 -0.353858 0.158632 0.921749 
0.265545 -0.383747 0.106386 0.964665 0.00558861 0.263419 
0.0320986 1.14591 -0.0421916 0.209594 0.950344 -0.230037 
0.285593 -0.316567 0.0022413 0.999419 -0.033336 0.00709614 
-0.294856 -0.779562 -0.107479 -0.889361 0.103638 -0.445306 
0.0266804 0.788422 -0.0886729 0.878257 -0.0746614 -0.472324 
-0.0158565 -0.796322 0.0249442 0.025326 -0.992218 0.12191 
0.096603 0.66643 -0.0412817 0.646819 0.732303 -0.212971 
-0.25141 -0.512483 -0.00963339 -0.999301 -0.00670283 0.0367708 
-0.196317 0.299809 0.130322 -0.462645 -0.0861858 0.882345 
-0.0192199 0.106653 -0.165356 -0.0686779 -0.0016541 -0.997638 
-0.229011 0.364553 0.133229 -0.209348 -0.335505 0.918483 
-0.0875704 -0.79925 -0.0332078 0.085047 -0.990626 -0.106901 
-0.310302 0.434097 -0.0340954 -0.997945 0.0640818 0.000355091 
-0.0301811 -0.468074 -0.164523 -0.088314 -0.0179145 -0.995932 
-0.0239888 0.801497 -0.134874 0.432591 0.140288 -0.890609 
-0.0761942 0.955331 -0.113343 -0.314284 0.161642 -0.935466 
0.31679 -0.62844 0.0911789 0.91186 0.169724 0.373771 
-0.134273 -0.074203 -0.151555 -0.200929 0.00887553 -0.979566 
-0.00744976 0.372849 -0.166103 -0.0471578 0.0126544 -0.998807 
-0.183079 0.410514 0.150925 -0.0398088 -0.224039 0.973767 
-0.205007 -0.312952 0.123978 -0.599833 -0.00146107 0.800124 
0.269089 0.1111 0.0413768 0.990911 0.0566113 0.122024 
0.139309 -0.0692485 -0.170778 -0.0546401 0.00125935 -0.998505 
-0.193837 0.443582 -0.160378 -0.0528946 -0.226595 -0.972552 
-0.301963 0.559257 0.0503103 -0.983529 0.0851562 0.159436 
0.238436 -0.828378 -0.0968234 -0.266079 -0.916369 0.299114 
-0.0935229 0.473278 -0.168736 -0.0419951 -0.181529 -0.982488 
-0.0691774 -0.541017 -0.160956 -0.13314 0.167944 -0.976764 
0.257106 -0.198843 -0.151219 0.719586 0.00833781 -0.694354 
-0.22921 0.641004 -0.148061 -0.456041 0.101415 -0.884162 
-0.209556 0.0245434 -0.120814 -0.632624 -0.00085936 -0.774459 
0.159141 -0.454503 -0.170426 -0.0463458 -0.00981275 -0.998877 
0.246236 -0.0419763 0.159805 0.577122 -0.0470412 0.815302 
-0.0756846 0.486157 0.172451 -0.0191915 -0.127881 0.991604 
0.027174 0.721429 -0.0867942 0.827182 0.280321 -0.487021 
0.148664 -0.238888 0.170704 -0.0698293 -0.00149652 0.997558 
0.186168 -0.484975 0.169152 0.0262351 -0.032357 0.999132 
0.0646267 0.98058 -0.0870372 0.599077 -0.122914 -0.791201 
0.278445 -0.315741 -0.0702251 0.990204 -0.0321594 -0.135876 
0.256157 0.135036 -0.100372 0.964219 0.193487 -0.181232 
-0.153012 -0.837536 0.176328 -0.169406 -0.654493 0.736845 
0.0664715 -0.215472 0.169274 -0.0231162 -0.0111085 0.999671 
0.247569 0.234731 0.10391 0.958048 -0.274166 0.0835267 
-0.162371 -0.440392 -0.144335 -0.31691 -0.0293423 -0.948001 
-0.312221 0.375894 0.00845261 -0.998025 -0.0585062 0.0228817 
-0.308724 -0.837218 -0.00362324 -0.760524 -0.642243 -0.0955399 
0.196737 -0.803133 0.00875031 -0.15216 -0.98351 0.0977522 
0.247552 0.237767 -0.113258 0.829429 -0.374357 -0.414613 
0.147493 -0.404093 0.170671 -0.0329269 0.0099251 0.999408 
0.175508 0.566643 0.0940661 0.647179 0.726789 0.230079 
-0.248427 0.128026 0.0445962 -0.989241 -0.00621817 0.146164 
-0.0547751 0.275191 -0.162728 -0.087265 -0.0137923 -0.99609 
0.00270723 -0.220867 -0.166654 -0.0634099 0.00394182 -0.99798 
-0.253768 0.724094 -0.109316 -0.774918 0.227511 -0.589695 
0.286409 -0.562461 0.0900055 0.808738 0.52707 0.261037 
-0.235566 0.176972 0.0884872 -0.897041 0.0337729 0.440655 
0.0489713 1.09629 -0.0871799 0.279945 0.335044 -0.899653 
-0.0588603 1.07219 0.060309 -0.623957 0.580371 0.523305 
-0.0282333 0.604855 -0.171588 0.0310338 0.0866817 -0.995753 
-0.0245359 -0.837253 -0.182299 -0.148188 -0.823542 -0.547557 
0.274791 0.485249 -0.0398224 0.641546 0.764746 -0.0598518 
0.00717246 0.0941642 0.166907 -0.0536751 0.00051288 0.998558 
0.3184 -0.837461 -0.0793317 0.599331 -0.762319 -0.244281 
-0.150926 0.00836407 -0.147658 -0.249135 -0.00619037 -0.968449 
-0.167044 0.658202 -0.164853 -0.144024 0.0589214 -0.987819 
0.203453 -0.505678 -0.167399 0.20017 -0.045045 -0.978725 
0.0517927 1.13206 0.0750129 0.237613 0.769304 0.593052 
0.0749933 0.385743 -0.169569 -0.0467115 0.00124089 -0.998908 
0.0430886 -0.796837 -0.0295456 -0.000966353 -0.992143 -0.125109 
0.193499 0.279992 0.168474 0.0530674 -0.00117082 0.99859 
0.0895978 0.593608 -0.153191 0.368979 0.487685 -0.791213 
-0.310623 0.486037 0.0112353 -0.999812 0.00753732 0.0178826 
-0.00570751 0.0238877 0.16619 -0.0627823 -0.000131058 0.998027 
-0.0945529 0.778174 -0.158092 0.117627 0.141042 -0.982991 
0.301356 0.342269 0.12295 0.795776 -0.0492001 0.60359 
0.251216 0.480849 0.14107 0.614442 0.523507 0.590255 
0.000304911 0.662989 -0.153862 0.319201 0.426893 -0.846093 
0.0625707 0.996873 0.0912036 0.557431 -0.0329283 0.82957 
0.00692007 0.228785 0.166894 -0.0577004 -0.00310054 0.998329 
0.164693 0.602437 0.00308944 0.733616 0.678939 0.0291256 
-0.0771405 0.408792 -0.160424 -0.131968 -0.0768013 -0.988274 
-0.171457 0.172995 0.141384 -0.338659 -0.0230719 0.940626 
0.0401548 -0.0204248 -0.168372 -0.0227005 0.00232002 -0.99974 
0.283222 -0.0181218 0.0058415 0.998057 0.0567358 0.0257652 
-0.242309 0.272522 0.072051 -0.836506 -0.310123 0.451755 
-0.2507 0.0586589 -0.0250869 -0.997913 -0.000540276 -0.064563 
0.257006 0.238248 0.0318561 0.928334 -0.351201 0.121878 
0.0331534 0.878228 0.0832668 0.606243 -0.40378 0.68515 
0.327233 0.371078 0.00513832 0.998086 0.0311279 0.0534281 
0.287119 -0.592403 -0.13884 0.712363 0.309253 -0.630002 
-0.0789903 0.638707 0.169642 0.00876922 0.0927781 0.995648 
-0.198065 -0.607121 0.157323 -0.251828 0.356372 0.899768 
-0.306609 -0.715261 0.070305 -0.975974 -0.0594205 0.20963 
-0.23482 -0.773028 -0.159663 -0.423001 0.147246 -0.894086 
0.233718 -0.131262 -0.162588 0.43349 0.0660331 -0.898736 
-0.0763886 -0.803925 0.111368 0.0937971 -0.803328 -0.588104 
-0.107134 -0.477681 -0.156075 -0.15053 -0.0569789 -0.986962 
-0.231341 0.19002 -0.0963478 -0.857221 0.036028 -0.513686 
-0.0186025 -0.837307 0.179445 0.021025 -0.810539 0.585307 
-0.0873481 0.843606 0.153566 0.156983 0.271436 0.949568 
-0.17056 0.581175 -0.16892 -0.127713 0.0805687 -0.988533 
-0.257029 0.303081 -0.0791977 -0.720493 -0.448795 -0.528651 
0.235903 0.0138423 -0.162355 0.514141 0.00456966 -0.857693 
-0.109464 -0.60139 -0.174348 -0.099704 0.258377 -0.960885 
0.173123 -0.168283 -0.169895 -0.0304893 -0.0468592 -0.998436 
-0.244983 -0.161921 -0.0622468 -0.963864 0.00491978 -0.266348 
-0.29705 0.386974 0.102513 -0.845932 -0.20206 0.493529 
-0.147686 -0.837432 -0.175691 0.060425 -0.931291 -0.359229 
-0.236998 -0.0284497 -0.0858217 -0.898108 -0.00278453 -0.439766 
0.0871151 -0.800056 -0.105082 -0.115619 -0.834419 0.538866 
0.289988 -0.558505 -0.0457563 0.810244 0.567478 -0.14654 
-0.118359 0.251716 -0.154728 -0.162567 -0.00448202 -0.986687 
0.0795083 0.0158039 0.16968 -0.00499848 0.00584945 0.99997 
-0.0536337 -0.000364639 -0.162763 -0.0934707 5.01445e-05 -0.995622 
0.280815 -0.0788936 0.0572431 0.994428 0.0149961 0.10435 
0.26968 0.406042 -0.147039 0.496797 0.102576 -0.861784 
0.174528 -0.0893392 0.169885 0.0119165 -0.0525903 0.998545 
0.0235161 1.02996 -0.104542 0.179474 0.126525 -0.975592 
0.265088 -0.454994 0.0880152 0.985985 -0.144083 0.0841041 
-0.25094 -0.00391118 0.0201325 -0.998524 0.000455048 0.0543072 
0.185648 0.517681 0.160555 0.40724 0.455051 0.791886 
-0.293691 0.318318 -0.0216134 -0.85257 -0.504615 -0.13597 
-0.0753272 0.0641212 -0.160572 -0.106694 0.00142819 -0.994291 
0.181191 -0.83747 0.174044 -0.100538 -0.779329 0.618497 
0.0772249 0.685571 0.0445244 0.748259 0.623072 0.227791 
0.0108241 -0.0407017 0.167093 -0.0559791 -0.00170856 0.99843 
-0.227427 -0.221287 0.102243 -0.804717 -0.00548472 0.593634 
0.268887 -0.144095 0.115938 0.933969 0.0701397 0.350403 
-0.1483 0.38861 -0.148462 -0.103631 -0.126834 -0.986496 
0.124951 1.09056 0.045905 0.75717 0.451667 0.471901 
0.202965 -0.583362 -0.172193 0.151158 0.0671856 -0.986224 
-0.307796 0.371644 -0.0642679 -0.94292 -0.25079 -0.219103 
-0.199363 0.267527 -0.12798 -0.545476 -0.0247048 -0.837762 
-0.280286 0.738535 0.0215091 -0.967169 0.243477 0.0728187 
0.195736 0.463389 -0.166538 0.300153 0.0685319 -0.951426 
-0.192462 0.802354 -0.136232 -0.482618 0.191484 -0.854642 
0.102232 -0.258724 -0.170211 0.00973903 0.0103765 -0.999899 
0.277425 0.00775432 -0.0578408 0.992561 0.0640091 -0.103563 
0.192663 -0.163207 0.16869 0.0503037 0.0914119 0.994542 
-0.238767 -0.807195 -0.0378954 0.52971 -0.836796 0.138493 
-0.187857 -0.681153 0.172113 -0.131743 -0.018829 0.991105 
0.195459 -0.24541 -0.168383 -0.0202189 0.0538053 -0.998347 
-0.276155 -0.614189 0.0876078 -0.809263 0.550279 0.205638 
0.118491 -0.799739 -0.00746936 -0.00662541 -0.999061 -0.0428123 
-0.197174 -0.104687 0.129078 -0.531844 0.0055031 0.846825 
0.124998 0.231999 0.170734 0.00120234 -0.0177611 0.999842 
-0.311185 -0.767342 -0.0345035 -0.991114 0.112226 -0.0713963 
-0.21343 0.91651 -0.0284427 -0.712371 0.67215 -0.201847 
0.246102 0.0798425 -0.148405 0.746824 0.0867779 -0.659336 
0.162489 -0.564468 0.176648 0.00172993 0.0664477 0.997788 
-0.192399 -0.833436 -0.123951 0.252833 -0.884723 0.391588 
0.0545825 0.71801 -0.0159262 0.874884 0.446097 -0.188613 
0.293023 0.2766 -0.0244253 0.737805 -0.673235 0.0489756 
-0.100602 0.582852 -0.172617 -0.0190383 0.0553092 -0.998288 
-0.269514 -0.586699 -0.018334 -0.860795 0.507811 0.0340576 
0.274208 -0.63582 0.147944 0.58198 0.0452134 0.811946 
0.214585 0.411794 0.167741 0.107966 -0.0477125 0.993009 
-0.109434 0.763271 0.160781 -0.00723947 0.0072926 0.999947 
0.267199 0.149146 -0.014952 0.982373 0.172245 -0.0726257 
0.278693 -0.193563 -0.0795465 0.993601 -0.0242244 -0.110314 
-0.00346805 0.218469 -0.166359 -0.0550295 0.00433084 -0.998475 
0.06506 -0.70661 0.182296 0.00809198 -0.0326896 0.999433 
-0.179561 0.194295 -0.138192 -0.392796 0.00387573 -0.919617 
0.131325 1.08889 -0.0339518 0.730131 0.531977 -0.428847 
-0.167082 0.553363 0.170835 -0.099752 0.0163554 0.994878 
0.0913798 -0.446852 0.169939 -0.00877727 -0.0131292 0.999875 
0.257491 0.216514 -0.0492035 0.977789 -0.191929 -0.0842094 
-0.173816 0.867217 -0.124805 -0.345578 0.499051 -0.794685 
-0.075181 0.313733 0.160693 -0.111421 0.0257615 0.993439 
0.123372 -0.613917 -0.180214 0.0251876 0.0596717 -0.9979 
0.300972 -0.699263 0.122206 0.808176 -0.0712475 0.584615 
0.0392514 0.553297 0.173104 0.00493811 0.124073 0.992261 
0.265487 -0.440243 -0.0907519 0.987276 -0.0968659 -0.126108 
-0.0471483 1.02912 -0.0971939 -0.346534 0.394621 -0.850993 
-0.28487 0.56384 -0.105187 -0.869678 0.0809873 -0.48693 
-0.229712 0.615789 0.151054 -0.45139 0.100747 0.886621 
-0.223159 0.858911 -0.0790191 -0.800256 0.379025 -0.464683 
0.0255025 0.0482047 -0.167794 -0.0413262 -0.00257735 -0.999142 
0.306966 0.451282 0.0546529 0.854754 0.500204 0.138536 
-0.061658 -0.557352 0.166741 -0.113712 0.233256 0.965744 
-0.131222 -0.118331 0.152158 -0.191004 -0.00218378 0.981587 
0.0792311 1.11871 0.00380766 0.430971 0.900559 -0.0570721 
-0.0799299 -0.416446 0.15972 -0.114379 0.0102738 0.993384 
-0.282536 0.49583 0.12132 -0.811936 0.127305 0.569696 
-0.0304849 1.12427 -0.0221188 -0.680358 0.724715 -0.109092 
-0.216701 0.506474 0.162368 -0.237982 -0.00122217 0.971269 
-0.186519 -0.604591 -0.160201 -0.290767 0.343116 -0.893155 
-0.167443 -0.303773 -0.142784 -0.33003 -7.66454e-05 -0.94397 
-0.0717881 0.155254 0.16101 -0.102542 0.00136223 0.994728 
0.286243 -0.222886 -0.0163104 0.998326 -0.00207564 -0.0578062 
-0.269925 -0.719354 -0.141165 -0.64153 -0.0549842 -0.765125 
-0.115325 -0.601482 0.173688 -0.135674 0.266693 0.954184 
0.0884115 0.103457 0.16991 -0.0249057 0.000949693 0.999689 
-0.0419368 -0.798932 -0.101703 -0.0235015 -0.919786 0.391716 
0.171523 0.52516 -0.163528 0.392387 0.440181 -0.807634 
-0.279479 0.632077 -0.100717 -0.873088 0.129951 -0.469926 
-0.0673591 -0.769051 0.181547 -0.0940729 0.250741 0.963472 
0.167837 0.567383 -0.105762 0.602338 0.740186 -0.298854 
0.127574 -0.837407 -0.17815 0.0852329 -0.663216 -0.743559 
-0.249978 -0.362511 -0.0311466 -0.994584 0.0334415 -0.0984043 
0.0982494 0.955018 -0.0187611 0.934553 -0.337199 -0.11361 
-0.1398 -0.663683 -0.178138 -0.0770505 -0.0202748 -0.996821 
-0.207434 0.229988 0.122222 -0.666073 0.047464 0.744375 
0.0233405 0.714139 0.0988892 0.686838 0.398646 0.607729 
0.0630864 -0.289636 0.169162 -0.0284481 0.00731941 0.999568 
0.24473 -0.452428 0.15665 0.696012 -0.111805 0.709272 
0.163728 0.23658 -0.170319 0.0844528 0.00084714 -0.996427 
0.247276 0.0582613 0.150595 0.750317 0.133865 0.647383 
0.278182 -0.298001 0.077818 0.988736 -0.0710526 0.131731 
0.0252339 0.437491 -0.167757 -0.00687332 -0.0676642 -0.997684 
-0.248078 -0.341215 0.0467173 -0.98613 0.0211777 0.164616 
-2.25132e-05 -0.35717 0.166489 -0.0605649 0.00258786 0.998161 
-0.257986 -0.837404 -0.14642 -0.462003 -0.578047 -0.672618 
-0.303663 -0.705302 -0.0842945 -0.96155 -0.0163297 -0.274144 
-0.199766 0.715191 -0.150851 -0.365011 0.146546 -0.919397 
-0.241669 0.857404 0.0294171 -0.931953 0.322148 0.166389 
0.203104 -0.620183 0.172282 0.129498 -0.0542529 0.990094 
0.291553 0.287972 -0.104758 0.745985 -0.525692 -0.408844 
-0.226305 -0.4589 -0.104223 -0.764626 -0.0423701 -0.64308 
0.316626 -0.582986 0.0140218 0.85503 0.518571 0.00287055 
-0.153513 0.505616 -0.174161 -0.0380802 -0.081575 -0.995939 
-0.250234 -0.291151 -0.0294052 -0.996631 -0.0164206 -0.0803566 
-0.2242 0.0694328 0.10648 -0.776999 0.00263181 0.629496 
-0.220217 -0.537006 0.112269 -0.748674 0.207361 0.629673 
-0.00464626 -0.474872 0.166202 -0.0493266 -0.0259276 0.998446 
0.222035 -0.0582492 -0.165074 0.376619 -0.0283152 -0.925936 
0.162323 -0.675421 0.177402 0.1182 -0.0273919 0.992612 
-0.312746 -0.708286 -0.00187478 -0.998604 -0.0527505 -0.00257561 
-0.303619 0.512893 -0.0638641 -0.979135 0.0788839 -0.187275 
0.300595 -0.667525 -0.123572 0.796574 -0.133732 -0.589564 
0.11566 0.389847 0.170545 0.0257987 -0.0436536 0.998714 
-0.254785 -0.594292 -0.104681 -0.729588 0.482153 -0.485004 
0.246597 0.499488 -0.10166 0.658399 0.699208 -0.278601 
-0.0202001 -0.583953 -0.177549 -0.0569691 0.189888 -0.980151 
0.141757 0.0638354 0.170862 -0.0499979 -0.0432266 0.997813 
-0.263898 0.473822 -0.141306 -0.564951 0.100255 -0.819011 
-0.234526 -0.666073 -0.159827 -0.400142 0.143735 -0.905112 
0.0204066 -0.71892 -0.182929 0.0145431 -0.0116484 -0.999826 
-0.00744458 0.948665 -0.117553 0.199952 -0.0540188 -0.978315 
0.281236 -0.737444 -0.14283 0.658602 0.114307 -0.743759 
-0.143476 -0.731386 -0.177765 -0.028036 0.150477 -0.988216 
0.308039 0.362343 -0.111239 0.824186 -0.0572684 -0.563416 
0.0893033 -0.115312 0.169917 -0.0146652 0.00461639 0.999882 
0.314966 -0.837535 0.0940405 0.716439 -0.687709 0.117353 
0.0950341 -0.421229 -0.170027 -0.00631969 -0.0095021 -0.999935 
0.317756 -0.750493 -0.0878457 0.923118 0.207964 -0.323425 
-0.172684 -0.399 0.140752 -0.356968 0.00579208 0.934099 
0.228932 -0.644427 -0.16663 0.226311 -0.0554511 -0.972475 
0.0644689 -0.483448 -0.169191 -0.0183381 0.00675578 -0.999809 
-0.21768 -0.538385 -0.114504 -0.65798 0.199133 -0.726229 
0.246267 -0.836259 0.160913 0.344315 -0.624516 0.701018 
-0.133914 0.983579 -0.0565123 -0.752302 0.462243 -0.46944 
-0.15094 -0.540114 -0.147471 -0.249536 0.188353 -0.949871 
-0.0699211 -0.661477 -0.18173 -0.0275711 -0.0561244 -0.998043 
-0.0739148 -0.3448 -0.160542 -0.099327 -0.00536382 -0.99504 
-0.0749153 0.0173188 0.160603 -0.106576 -0.00163547 0.994303 
0.133413 0.427313 -0.172727 -0.00711968 -0.0681697 -0.997648 
0.227828 0.346467 0.164266 0.139364 0.0326988 0.989701 
-0.108078 -0.243977 0.156075 -0.151569 -0.000295918 0.988447 
-0.27194 0.681437 0.0963439 -0.862428 0.175404 0.474817 
-0.163504 0.63238 0.167072 -0.107425 0.063303 0.992196 
-0.251193 -0.139715 0.0146945 -0.999124 0.000882308 0.0418318 
-0.137794 0.262969 0.150925 -0.214988 0.0161056 0.976484 
0.325194 0.329364 -0.0499263 0.962537 -0.260678 -0.0746323 
-0.14125 0.701386 0.16421 -0.0597479 0.0899156 0.994156 
0.252307 -0.197608 0.158153 0.625848 0.157326 0.763913 
0.123834 -0.823471 0.127382 -0.0804111 -0.924555 -0.372468 
-0.266105 0.562599 0.130757 -0.719512 0.0902741 0.688588 
-0.296983 -0.775721 0.102491 -0.920188 0.168007 0.353593 
0.0581652 1.06496 0.0910783 0.281802 -0.00332801 0.959467 
-0.253995 -0.643334 0.150524 -0.538906 0.257958 0.801896 
0.327599 -0.781923 0.00461665 0.992852 0.0331521 0.114652 
0.0424329 0.787697 -0.0220442 0.992567 -0.0604228 -0.105645 
-0.139289 -0.770315 0.178151 -0.0526799 0.23959 0.969444 
-0.100137 0.564396 0.173852 -0.0207681 0.037011 0.999099 
0.110373 -0.0481575 0.170417 -0.00547786 0.00339039 0.999979 
0.0035171 -0.798174 0.0946237 -0.168599 -0.880211 -0.443624 
-0.242478 0.793832 -0.0921849 -0.812819 0.296552 -0.50138 
0.116872 1.01164 0.02391 0.840755 -0.45679 0.290644 
0.0139436 0.552694 -0.174059 0.0416821 0.0489798 -0.99793 
-0.0114452 -0.60254 0.182876 -0.0134838 0.165232 0.986163 
0.0856379 -0.125125 -0.169829 -0.0176053 0.0075181 -0.999817 
0.0220645 -0.810851 -0.118641 0.0304225 -0.753518 0.656723 
-0.0883463 0.337893 -0.159119 -0.153922 0.0352939 -0.987452 
-0.301064 -0.636853 0.0157114 -0.893723 0.444282 0.062226 
-0.113883 -0.809631 -0.113385 0.2005 -0.884538 0.421178 
0.00088837 0.658246 0.156211 0.321878 0.382484 0.866084 
-0.272254 -0.837298 0.134741 -0.451182 -0.597111 0.663244 
0.254613 -0.291396 -0.157314 0.687352 -0.0370529 -0.725379 
0.287316 -0.834051 -0.00827011 -0.165492 -0.964729 0.204722 
-0.120817 1.02681 -0.00204169 -0.812822 0.582512 -0.000530876 
-0.0773808 0.650242 -0.168973 0.0385102 0.104593 -0.993769 
-0.25692 0.42867 0.148 -0.36926 -0.14878 0.917339 
0.280201 -0.221646 0.0743773 0.99734 0.00523045 0.0727043 
0.0477223 -0.775494 0.182618 0.0992361 0.0650044 0.992938 
0.129627 0.624876 0.0625715 0.680893 0.677635 0.277842 
0.0939019 0.321036 -0.170061 -0.0334296 0.00350863 -0.999435 
0.252412 -0.510644 0.124798 0.933421 0.103591 0.343504 
-0.308783 0.430264 0.0514297 -0.996769 0.0529643 0.060382 
0.172532 0.00281663 0.17002 -0.0588584 0.00397492 0.998258 
0.276616 0.0523498 0.00752121 0.994522 0.0988023 0.0341209 
0.00814866 -0.667374 0.183015 0.00664678 -0.051902 0.99863 
-0.0538655 -0.0815149 0.162715 -0.0899644 0.00119536 0.995944 
0.00739075 -0.384307 -0.166926 -0.0595133 0.00725116 -0.998201 
0.168856 -0.802564 -0.0672188 -0.172028 -0.963111 0.206938 
-0.0666787 1.07274 -0.049666 -0.678933 0.593628 -0.432037 
0.0471537 0.841348 0.0294806 0.90139 -0.316353 0.295664 
0.00674908 0.389914 0.166879 -0.0861102 -0.0235699 0.996007 
-0.194772 -0.0572407 -0.130446 -0.506352 -0.00394136 -0.862318 
0.279259 -0.11365 -0.0703469 0.99167 0.0254404 -0.126271 
0.0635191 -0.770489 -0.182353 0.0916662 0.246815 -0.964717 
0.244046 -0.696696 0.162534 0.310976 -0.046376 0.949286 
-0.163827 0.321668 -0.143881 -0.271729 0.0148686 -0.962259 
0.273705 -0.257 -0.103717 0.990927 0.0100675 -0.134024 
0.0137807 0.46579 0.171855 -0.0696198 -0.0800313 0.994358 
0.0957796 1.04692 -0.0718453 0.543317 -0.0657429 -0.836949 
-0.15985 -0.473079 0.144924 -0.28971 -0.0305958 0.956625 
0.196338 -0.31507 0.168224 0.101182 -0.0914601 0.990655 
-0.050506 -0.289835 0.162985 -0.0899831 -0.00192595 0.995941 
-0.225182 0.358492 -0.131017 -0.23961 -0.350002 -0.905586 
-0.0369272 0.715035 0.148027 0.404963 0.213514 0.889054 
0.00204227 0.958792 0.115735 0.180568 0.0148458 0.98345 
-0.181469 -0.235652 -0.137141 -0.41438 -0.000751866 -0.910104 
0.276499 -0.388019 -0.0496754 0.98698 -0.0936933 -0.130739 
0.268131 0.0575896 0.0822903 0.984754 0.127534 0.118295 
-0.248127 0.234906 -0.0453549 -0.969636 -0.115283 -0.215675 
-0.0757042 1.01406 0.0901177 -0.47737 0.397967 0.783416 
-0.306661 -0.837536 0.068155 -0.845596 -0.513673 0.145284 
0.262638 -0.366674 -0.120944 0.928479 -0.0946685 -0.359117 
0.0477977 -0.548265 -0.172496 -0.0089899 0.121642 -0.992533 
0.0896078 0.515775 -0.173198 -0.0305914 0.0461145 -0.998468 
-0.0379114 0.795277 0.140687 0.636736 0.119013 0.761842 
-0.10483 0.947932 0.104683 -0.335763 0.429249 0.838456 
-0.149515 0.922798 -0.0858985 -0.426892 0.571056 -0.701183 
-0.178986 -0.249049 0.138173 -0.388551 0.000714266 0.921427 
-0.231482 -0.313703 -0.0961674 -0.847624 -0.00698284 -0.530551 
-0.28209 0.711329 -0.0482596 -0.959224 0.211528 -0.187471 
-0.301067 -0.641304 -0.0555531 -0.914791 0.372372 -0.156514 
0.203515 0.555336 -0.0502108 0.688951 0.70476 -0.169293 
