ply
format ascii 1.0
element vertex 500
property float x
property float y
property float z
property float nx
property float ny
property float nz
end_header
-0.155606 -0.769263 -0.461537 0.0948685 -0.482897 -0.870523 
0.501535 0.535275 -0.202017 0.749868 0.15178 -0.643942 
0.0529289 -0.726698 -0.360998 0.799261 -0.294577 -0.523837 
-0.264447 0.111872 0.337538 -0.803618 -0.143238 0.577651 
-0.545201 -0.414309 -0.138247 -0.933137 0.343504 0.10611 
-0.371428 0.0609002 -0.196965 -0.492451 -0.347508 0.797954 
0.611306 0.589899 -0.0814304 0.832443 -0.277701 -0.479501 
-0.0520687 -0.300141 -0.195044 0.388481 0.916396 -0.0964396 
0.3886 0.374193 -0.361094 0.580486 0.0285831 -0.813768 
-0.291518 -0.23774 -0.255485 -0.0285014 0.973748 -0.225837 
-0.0779597 -0.397704 0.256262 -0.769744 0.355853 0.529965 
-0.558692 -0.465383 -0.263359 -0.990816 -0.12635 -0.0481499 
-0.465869 -0.792953 0.0158972 -0.835216 -0.478825 0.270446 
0.462591 0.186511 0.454288 0.726846 -0.0725525 0.682958 
-0.158013 -0.950338 -0.0841094 0.0980584 -0.985761 0.136603 
0.489781 0.157334 -0.208985 0.777982 -0.338749 -0.529144 
-0.293 -0.478221 -0.513735 -0.102146 0.0562609 -0.993177 
-0.568272 -0.271137 -0.308807 -0.838937 0.136184 0.526914 
0.276638 0.315297 0.5243 0.503042 0.617395 0.604791 
-0.511484 0.662371 0.017265 -0.0145265 -0.0909326 0.995751 
-0.25561 0.671898 0.262469 -0.727879 0.593891 0.342763 
0.20527 -0.93666 -0.168331 0.140502 -0.816488 -0.560006 
0.32071 0.681008 0.41653 0.430136 0.566047 0.703259 
-0.200087 -0.525971 0.180736 -0.26891 0.0699266 0.960624 
-0.500814 0.682868 -0.155666 -0.313585 0.534135 -0.785089 
-0.0326894 -0.170615 0.0714367 -0.773036 -0.600558 -0.204317 
0.182523 0.274756 0.630004 0.429321 0.224911 0.874699 
-0.380808 -0.289913 -0.0206561 -0.299335 0.858469 0.41645 
-0.193121 -0.945456 0.238106 0.0609748 -0.955687 0.288002 
-0.201037 -0.0257603 0.287618 -0.666569 -0.708329 0.232286 
0.36167 -0.324504 0.211869 0.936082 0.26595 0.230263 
0.0705829 0.294241 -0.463593 -0.0550823 -0.118117 -0.991471 
-0.101742 0.320134 0.479817 -0.760179 0.0491208 0.647855 
0.479639 0.719184 0.0969745 0.428497 0.518266 0.740129 
-0.0307499 -0.885216 -0.337671 0.218493 -0.575084 -0.788377 
0.24299 -0.0263496 -0.252474 0.288939 -0.79223 -0.53748 
-0.40018 -0.832716 -0.304324 -0.765245 -0.403328 -0.501723 
0.109604 0.54999 -0.433492 0.100387 0.341761 -0.93441 
0.567764 0.176288 0.234746 0.933831 -0.275124 0.228619 
-0.0379137 0.727255 -0.299635 -0.294891 0.723447 -0.62423 
0.388477 -0.0788991 0.0670492 0.685288 -0.724056 -0.0782545 
0.000697465 0.111538 -0.386242 -0.212399 -0.524831 -0.824281 
0.291144 -0.393616 0.363232 0.681925 0.0438314 0.730107 
-0.463493 0.298005 -0.14954 -0.934801 -0.350619 -0.0566923 
-0.266463 0.222982 0.340861 -0.572907 -0.0932093 0.814303 
0.273404 -0.0395392 0.435961 0.374446 -0.817688 0.437237 
0.157698 -0.673143 0.278881 0.450266 -0.586477 0.673279 
0.32662 -0.216203 0.0673321 0.936012 0.073039 -0.344307 
0.229448 -0.120161 0.333901 0.424041 -0.50965 0.748629 
-0.321531 -0.844974 -0.378354 -0.520499 -0.416258 -0.745527 
-0.55835 -0.516406 -0.0988213 -0.99719 0.0179666 0.0727311 
-0.0229704 -0.119607 0.302262 -0.453482 -0.800384 0.392096 
0.438795 0.987027 0.0885641 -0.276636 0.741556 0.611201 
-0.27731 0.50281 -0.30676 -0.463227 0.276697 -0.841938 
0.184008 -0.94988 -0.0086735 0.0556782 -0.998394 -0.0104415 
-0.442074 0.585371 0.0161978 -0.196065 -0.101287 0.975346 
-0.444071 -0.455769 -0.480852 -0.437637 -0.312898 -0.842952 
-0.446387 0.747393 0.0172575 -0.0182588 0.706871 0.707107 
0.124824 -0.41282 -0.174642 0.61991 0.459701 -0.635914 
-0.274581 -0.576508 -0.511646 -0.229183 -0.151733 -0.961484 
0.31027 0.393896 0.464805 0.414737 0.163604 0.895113 
0.332715 -0.82062 -0.0302028 0.763969 0.557614 0.324682 
-0.0332448 0.0717365 0.575001 -0.261233 -0.503048 0.823832 
-0.504077 0.753348 -0.0776488 -0.0917119 0.898639 -0.428995 
-0.341965 0.300376 0.29184 -0.818591 -0.13862 0.557398 
0.676219 0.891114 0.0316093 0.929925 0.150728 0.335441 
0.591021 0.496627 -0.0525847 0.929389 -0.231157 -0.287754 
0.0749108 -0.346476 0.398693 -0.411246 0.200885 0.889113 
0.0873502 -0.62504 -0.354214 0.942505 -0.113447 -0.314347 
0.385202 0.112111 -0.296925 0.570613 -0.451012 -0.686286 
0.365251 0.00660095 0.419716 0.548439 -0.690482 0.471646 
-0.270451 -0.943026 -0.0412069 -0.0235931 -0.998516 0.0490891 
-0.42135 -0.270728 -0.156838 -0.479417 0.872936 0.0902354 
0.0327763 -0.0587914 -0.218547 -0.173401 -0.851815 -0.494312 
-0.173958 -0.946312 0.138077 0.273765 -0.944213 -0.183072 
0.100307 -0.908334 0.311718 0.796639 -0.338538 0.500758 
0.467805 -0.00968062 0.0673355 0.689302 -0.722906 -0.0476383 
0.107146 -0.949012 0.0969285 0.0887517 -0.994241 0.0600618 
0.0121079 0.500793 -0.445071 -0.159117 0.223969 -0.96152 
0.529271 0.264409 -0.191414 0.859798 -0.121868 -0.495879 
0.288831 0.761796 -0.225956 0.235737 0.682164 -0.692156 
0.251034 -0.591587 0.293497 0.542122 -0.651785 0.530358 
-0.0105822 -0.303608 -0.105107 0.210043 0.9697 -0.124757 
-0.570801 -0.172665 -0.345413 -0.909088 0.231712 0.34622 
-0.0237671 -0.245423 0.153803 -0.961999 0.270339 0.0384059 
0.434299 0.528937 -0.283885 0.688406 0.305376 -0.657908 
0.238167 0.61279 0.486653 0.246205 0.295503 0.923071 
0.304747 -0.369925 -0.0314573 0.6875 0.232215 -0.688055 
-0.0222445 0.00315673 -0.284298 -0.263051 -0.739707 -0.619384 
0.205074 -0.819212 0.144908 0.746914 -0.102493 0.656974 
-0.408416 -0.186518 -0.354381 0.963432 -0.026407 0.266648 
0.358005 0.575001 0.446293 0.492859 0.13373 0.859771 
-0.435915 0.14546 -0.232707 -0.812952 -0.356269 0.46063 
-0.187941 0.0794369 0.428853 -0.76664 -0.110518 0.632494 
0.341961 -0.489801 0.00929196 0.862929 -0.205872 -0.461488 
-0.339322 -0.0254379 -0.33875 0.881875 -0.302615 -0.361552 
-0.520492 -0.245921 -0.500739 -0.454334 -0.0384905 -0.89 
0.0895842 -0.52888 -0.314998 0.940966 0.198061 -0.27451 
-0.541486 0.530561 0.0234221 0.0259689 0.0996413 0.994684 
-0.506773 0.457132 -0.2048 -0.681845 -0.274635 -0.677984 
0.459284 0.415987 -0.293963 0.742417 0.120325 -0.659044 
0.191446 0.621379 -0.38231 0.265313 0.475325 -0.838854 
-0.0457452 -0.322422 -0.305551 0.514878 0.813019 -0.271846 
0.584234 0.185984 0.0438214 0.961403 -0.266118 -0.0698986 
-0.604016 0.527525 -0.0718631 -0.923608 -0.147511 -0.35382 
0.145046 -0.0266099 -0.283779 0.0576115 -0.797317 -0.600805 
-0.415584 -0.88232 -0.213435 -0.815261 -0.519794 -0.255272 
-0.237711 -0.9453 -0.145966 -0.0476572 -0.998813 -0.0100484 
0.534133 0.438802 -0.181212 0.865237 0.117122 -0.487492 
-0.547924 -0.576229 -0.210695 -0.967807 -0.197655 -0.155825 
-0.0259516 0.851746 0.133019 -0.275667 0.95662 0.0942669 
-0.123936 -0.835797 0.288318 -0.323538 0.629855 0.70612 
-0.0533415 -0.476731 0.319353 -0.731306 0.116103 0.672094 
-0.38365 0.31885 0.19314 -0.936384 -0.0419799 0.348457 
0.219746 0.0256524 0.540687 0.175723 -0.578377 0.796618 
0.601996 0.45951 0.0711534 0.977362 -0.207187 -0.0428657 
0.456091 0.995881 -0.0164432 -0.48078 0.782899 -0.394867 
-0.501311 -0.357667 -0.0716894 -0.769031 0.598744 0.223824 
-0.116112 -0.527191 0.25265 -0.787268 0.00150075 0.616609 
0.549303 0.652732 0.114727 0.224125 0.619904 0.751989 
-0.560969 0.435169 -0.108863 -0.791014 -0.39305 -0.468838 
-0.608972 0.61438 0.00907875 -0.610905 -0.0487228 0.790203 
0.557934 0.345746 -0.144632 0.922339 0.00812321 -0.386296 
-0.0205639 0.260667 -0.444379 -0.225927 -0.19467 -0.954495 
-0.310592 -0.748483 -0.441712 -0.416016 -0.422986 -0.804993 
-0.0912287 0.65348 -0.343864 -0.374079 0.57003 -0.731526 
-0.147789 0.799497 0.146727 -0.487519 0.865396 0.115824 
0.56172 0.217108 -0.10618 0.921459 -0.195212 -0.335865 
0.304102 0.12873 -0.359655 0.420747 -0.415456 -0.806454 
-0.276702 0.0267854 0.0930861 -0.755318 -0.655067 -0.0195339 
0.117605 0.0976274 0.577821 0.0184438 -0.472006 0.881403 
0.0508439 -0.254919 0.349336 -0.588862 0.373536 0.716737 
0.0673721 -0.127197 -0.0994651 -0.157769 -0.839115 -0.520572 
-0.0868394 -0.915789 0.102796 -0.0415203 -0.967056 -0.251157 
0.112594 0.651421 0.488463 0.0297591 0.499298 0.865919 
-0.323537 0.386659 -0.303707 -0.355193 0.126195 -0.926236 
0.400939 0.44869 0.416168 0.359647 -0.000349674 0.933088 
0.195665 -0.606234 -0.130672 0.651815 -0.100866 -0.75164 
0.592419 0.284012 -0.0176161 0.985214 -0.0534477 -0.162777 
-0.380725 -0.397869 0.108558 -0.311997 0.561482 0.766418 
-0.0152461 -0.00976579 0.505933 -0.300251 -0.730653 0.613185 
0.273307 -0.632415 -0.0315008 0.905139 -0.165842 -0.391433 
0.349333 -0.12045 0.175184 0.862057 -0.462654 0.206902 
0.347828 0.574634 -0.332432 0.510685 0.405335 -0.758224 
-0.554488 -0.380121 -0.406404 -0.868242 -0.328588 -0.371732 
0.299731 -0.624593 0.0714215 0.894625 -0.443742 -0.0523396 
-0.397629 0.184443 -0.049896 -0.735959 -0.666469 -0.119097 
-0.159012 0.0429991 -0.255821 -0.383564 -0.671122 -0.634408 
0.234325 -0.693179 -0.0977935 0.704195 0.169931 -0.689371 
0.443335 0.0891752 0.422674 0.690731 -0.513523 0.509103 
0.15947 0.820063 0.311037 0.0572259 0.876432 0.478113 
0.155239 -0.240114 0.379239 0.0124231 0.48018 0.877082 
-0.148966 0.69192 0.377946 -0.492916 0.633513 0.596402 
0.527129 0.0689003 0.192206 0.826971 -0.542023 0.149435 
-0.367019 -0.663289 0.187072 -0.361029 -0.0983359 0.927355 
0.386555 0.909845 0.125473 -0.160469 0.32574 0.931742 
0.433549 -0.00584319 0.282283 0.633624 -0.726523 0.265867 
-0.0559924 0.695643 0.429515 -0.297341 0.617341 0.728339 
0.043425 -0.538512 -0.417283 0.765329 0.18845 -0.615433 
0.078458 -0.949785 0.00254661 -0.184026 -0.981992 -0.0427277 
-0.291982 -0.600393 0.198786 0.106477 0.105449 0.988708 
-0.571112 0.411579 0.0185405 -0.70945 -0.30394 0.635846 
0.0113696 -0.442565 -0.404711 0.688591 0.469434 -0.552698 
-0.506082 -0.042133 -0.322394 -0.829947 0.457855 0.318681 
-0.301244 0.0864366 0.224852 -0.869995 -0.453722 0.192989 
0.658527 0.672611 0.0804377 0.748111 0.0168452 0.66336 
-0.383007 -0.76364 0.158978 -0.609717 -0.233313 0.757502 
-0.465354 0.38644 0.0606165 -0.385148 0.402141 0.830629 
0.459628 0.310229 -0.295922 0.732728 -0.0841808 -0.675295 
0.145031 0.867632 -0.0464773 0.0346263 0.981517 -0.188217 
-0.0110787 -0.286472 -0.000775688 -0.375769 0.875501 -0.303801 
-0.49234 -0.359503 -0.491927 -0.435763 -0.283271 -0.854323 
0.275642 0.866565 -0.0576233 -0.223735 0.937615 -0.266123 
-0.141975 -0.00862707 0.413472 -0.531171 -0.667865 0.521358 
0.126179 -0.118103 0.367134 0.0565253 -0.691743 0.719928 
-0.264319 -0.260258 -0.0564102 -0.00736762 0.933258 0.359131 
-0.365552 0.450107 0.233447 -0.962174 0.133318 0.237586 
0.332283 0.252831 -0.386318 0.488701 -0.166508 -0.856415 
0.260671 -0.706228 0.108346 0.89617 -0.325189 0.30188 
0.573623 0.462815 0.223738 0.931585 0.0939557 0.351173 
-0.110288 0.823089 0.056149 -0.420562 0.907024 -0.0208306 
-0.11454 -0.0790441 0.312583 -0.397014 -0.872688 0.284245 
-0.0690952 0.354302 -0.439963 -0.310539 -0.00210816 -0.950558 
0.271232 0.321284 -0.425119 0.399432 -0.0540082 -0.915171 
0.441739 -0.0174664 -0.0301708 0.642867 -0.738958 -0.201652 
-0.0813716 0.0728252 -0.328172 -0.364792 -0.595588 -0.715683 
-0.218572 -0.806556 0.271962 0.0199606 0.632004 0.774708 
0.144653 0.224162 -0.447509 0.122083 -0.266807 -0.955986 
0.17651 -0.503773 -0.158845 0.678072 0.039181 -0.73395 
-0.450008 0.0384173 -0.29501 -0.903321 0.304999 0.30164 
0.334795 -0.223904 0.200159 0.937794 0.225323 0.264142 
-0.379975 0.466627 -0.27713 -0.308917 0.0862512 -0.94717 
-0.0553474 0.402425 0.516746 -0.588093 0.16909 0.790921 
0.524221 0.634818 -0.175965 0.553583 -0.0432161 -0.831672 
-0.042171 -0.60133 0.317889 -0.571136 -0.26091 0.778286 
-0.0356898 0.783043 0.337607 -0.264038 0.81699 0.512651 
-0.519543 -0.334087 -0.216721 -0.734624 0.535973 0.416005 
-0.470858 -0.805939 -0.137721 -0.890513 -0.444458 -0.097176 
0.204646 -0.724908 0.192433 0.705547 -0.446696 0.550151 
-0.0798741 0.169103 -0.394084 -0.332203 -0.443874 -0.832236 
0.149649 0.124176 -0.406111 0.098155 -0.461123 -0.881891 
0.0258573 -0.63653 -0.435718 0.642742 -0.187353 -0.742819 
-0.378421 -0.935096 -0.133085 -0.445176 -0.895441 -0.00199566 
-0.296685 0.665024 0.169819 -0.79306 0.540357 0.281196 
-0.414967 -0.209497 -0.454128 0.884504 0.176149 -0.431999 
-0.510343 -0.0758465 -0.41459 -0.635274 0.608024 -0.476166 
-0.00767778 -0.363718 0.339344 -0.738353 0.246938 0.62758 
0.0805209 -0.83399 -0.304384 0.764957 -0.0218243 -0.643712 
0.0313833 0.660399 -0.3781 -0.0942848 0.564475 -0.820048 
0.575141 0.271829 0.265418 0.956843 -0.0462868 0.286896 
0.316922 0.0370457 -0.2845 0.425589 -0.644993 -0.634711 
-0.399274 -0.101143 -0.421825 0.811007 -0.0340811 -0.584043 
-0.49011 0.291265 0.0568823 -0.785832 -0.401864 0.470077 
0.382703 -0.396054 0.135936 0.995298 0.0872837 -0.0419869 
-0.0306682 -0.16 0.209272 -0.782552 -0.569062 0.252549 
-0.248526 -0.385517 -0.48724 0.117186 0.473881 -0.872756 
0.528049 0.959793 -0.0915885 0.0654203 0.612374 -0.787857 
-0.316942 0.08478 -0.0363634 -0.769741 -0.630713 -0.098489 
0.0117001 0.633252 0.490464 -0.182422 0.437482 0.880529 
0.18488 -0.440244 0.41456 0.200885 -0.14777 0.968406 
0.251698 0.204629 0.61558 0.354924 0.059826 0.932979 
-0.250294 0.00411518 0.205731 -0.752624 -0.647862 0.117604 
0.55793 0.858207 0.067815 0.00158461 -0.121998 0.992529 
0.679514 0.763668 0.0262604 0.98381 0.0123932 0.178784 
-0.0258236 -0.738175 0.285703 -0.457586 0.162924 0.874112 
-0.194727 0.778068 0.0188215 -0.469403 0.880372 -0.0678631 
-0.383546 0.278739 -0.327093 -0.0796516 0.298815 -0.950981 
-0.0404499 -0.79764 -0.40011 0.417584 -0.502083 -0.757322 
-0.0180169 -0.914025 -0.00605752 -0.26804 -0.963335 0.0118901 
-0.0307661 -0.510955 -0.475146 0.510612 0.209097 -0.833999 
-0.170315 -0.0508387 -0.00110213 -0.597632 -0.78663 -0.155082 
0.599255 0.258106 0.114082 0.994461 -0.0994612 0.033983 
-0.0474047 0.804776 -0.160665 -0.340437 0.878759 -0.334492 
-0.270492 0.727833 -0.0764589 -0.223905 0.933174 -0.281162 
0.337195 0.915404 0.0383376 -0.652099 0.756462 -0.050312 
-0.282502 -0.944615 0.0847733 -0.169136 -0.979978 -0.105057 
-0.246033 0.432996 0.407119 -0.603747 -0.105549 0.790158 
0.617438 0.70715 -0.111929 0.750112 -0.115523 -0.651142 
-0.44077 -0.863339 -0.0628409 -0.848389 -0.521255 0.0923545 
0.207674 -0.419981 -0.117438 0.521021 0.260197 -0.812917 
-0.137412 0.460094 -0.402416 -0.427644 0.168775 -0.888052 
-0.547258 -0.616028 -0.0553876 -0.981172 -0.16656 0.0977693 
0.279828 -0.738522 -0.0017911 0.96676 0.24606 0.06949 
-0.487988 -0.148165 -0.491129 -0.0474236 0.4164 -0.907944 
0.161286 -0.833899 -0.19155 0.500371 0.377623 -0.779121 
-0.598309 0.728024 -0.0427021 -0.715988 0.694448 -0.0714419 
-0.154968 -0.437777 0.194287 -0.599704 0.302565 0.740817 
-0.179756 -0.480221 -0.51649 0.0959324 0.225651 -0.969473 
0.440402 0.206226 -0.290916 0.692427 -0.236626 -0.681581 
-0.168428 -0.632665 0.191267 -0.353075 -0.0413624 0.93468 
-0.416126 0.562769 -0.245621 -0.206382 0.328307 -0.921749 
-0.107106 0.185759 0.537035 -0.851213 0.192401 0.48828 
0.111389 -0.635229 -0.222295 0.914328 -0.147967 -0.376975 
0.00812654 -0.950108 0.325241 0.0505589 -0.90499 0.422417 
-0.139517 -0.0861055 0.21657 -0.491049 -0.865567 0.0983089 
0.0973304 -0.948073 0.195604 0.410587 -0.910647 0.0462701 
-0.251196 0.111615 -0.281763 0.207543 -0.417456 -0.884679 
0.478306 0.669679 0.183822 0.683532 0.707311 0.180267 
0.371079 -0.488006 0.103255 0.952738 -0.282587 -0.111513 
0.117617 0.876731 0.0879502 -0.0246329 0.998968 0.0381641 
0.265022 0.421947 -0.424487 0.380615 0.123197 -0.91649 
-0.392344 0.649985 -0.202256 -0.0111868 0.618246 -0.785905 
0.141527 -0.866804 0.233039 0.909691 -0.0911559 0.405158 
0.512241 0.557606 0.302779 0.826751 0.381501 0.413448 
-0.35123 0.133167 -0.123351 -0.785062 -0.576703 0.226035 
-0.381366 -0.0283254 -0.242446 0.0290824 -0.481227 0.876114 
0.0625048 0.828813 -0.172846 -0.104227 0.924379 -0.366962 
0.252609 -0.950869 -0.078455 -0.0295688 -0.998884 0.0368336 
-0.0413031 -0.950062 0.20283 -0.193168 -0.963042 -0.187711 
-0.0999597 -0.30837 0.077102 -0.294443 0.922041 0.251283 
-0.0295045 -0.127894 -0.0373379 -0.397406 -0.850502 -0.34455 
-0.325653 0.0738873 -0.340738 0.675752 0.112735 -0.728457 
0.212709 0.115587 0.598552 0.0108904 -0.48328 0.875398 
-0.570018 -0.367937 -0.295629 -0.973548 -0.0195508 0.227646 
-0.481506 -0.719898 -0.26853 -0.838628 -0.419654 -0.347266 
0.593749 0.36258 0.178554 0.984415 0.0627079 0.164303 
-0.475695 0.242908 -0.252839 -0.999238 0.0342645 0.0186807 
0.0408815 0.852279 0.216682 -0.146802 0.956264 0.252999 
-0.0896395 -0.916135 0.336497 -0.506645 -0.47675 0.718345 
0.240764 0.218212 -0.421445 0.336027 -0.245251 -0.909361 
0.29151 0.873045 0.121245 -0.120221 0.921397 0.369561 
-0.131685 0.777026 0.264212 -0.475753 0.809245 0.344646 
-0.391381 -0.901285 0.0212843 -0.657918 -0.713076 0.242212 
-0.0868776 -0.666345 0.258825 -0.681209 -0.243854 0.690282 
-0.266175 0.735815 0.074829 -0.47526 0.852269 0.218553 
0.552526 0.407288 0.301539 0.913868 0.135158 0.382854 
0.0974744 -0.949726 -0.173882 0.118601 -0.987984 -0.0991085 
0.458637 0.533765 0.388058 0.60558 0.179272 0.775329 
-0.383938 -0.5289 0.169081 -0.337499 0.259207 0.904934 
0.199441 -0.535569 0.375902 0.330136 -0.486791 0.80873 
0.142461 0.859767 0.214491 0.0199132 0.967242 0.253073 
0.0875361 0.0497193 -0.359664 -0.0783102 -0.61384 -0.785537 
0.0270175 0.459522 0.536683 -0.209191 0.34704 0.914222 
-0.222157 -0.665999 -0.502102 -0.14224 -0.286221 -0.947547 
-0.0227631 0.854859 0.0146557 -0.283082 0.955479 -0.0832088 
0.240078 0.847814 0.216309 0.220264 0.928193 0.299901 
0.537506 0.737456 -0.173779 0.415895 0.0186977 -0.90922 
-0.121871 0.805126 -0.0478259 -0.434406 0.880374 -0.19035 
0.363755 0.290695 0.483638 0.435024 0.534655 0.724498 
0.27048 0.494023 0.484579 0.326133 -0.123924 0.937166 
-0.601956 0.628585 -0.0925388 -0.797115 -0.00061666 -0.603828 
0.213125 0.736251 -0.286752 0.285049 0.689937 -0.665382 
-0.305116 0.579311 0.287959 -0.811325 0.431004 0.394952 
0.440904 0.0647031 -0.193921 0.668814 -0.576741 -0.469103 
-0.368229 -0.397004 -0.504088 0.0487219 0.111164 -0.992607 
0.554214 0.13627 -0.0429189 0.892224 -0.40008 -0.209456 
-0.157352 0.452057 0.466927 -0.44205 -0.106268 0.890673 
-0.197013 -0.0496978 0.136591 -0.612464 -0.789923 -0.0301633 
0.28205 0.796993 0.297818 0.394003 0.814047 0.426719 
0.281579 0.669889 -0.312221 0.399432 0.55504 -0.729647 
0.529657 0.206158 0.360246 0.881198 -0.160799 0.44456 
0.576277 0.157484 0.137199 0.943528 -0.326769 0.0545618 
0.0393396 -0.948443 -0.254545 0.165428 -0.924193 -0.344241 
0.481946 0.0514717 -0.0994344 0.733709 -0.601415 -0.316182 
-0.0384052 -0.302288 0.237966 -0.848312 0.455619 0.269774 
0.24784 -0.22445 0.335968 0.566731 0.436301 0.698897 
-0.143944 -0.263947 -0.18183 0.343158 0.937739 -0.0537391 
0.446218 0.312136 0.4333 0.420197 0.324305 0.847503 
0.342194 0.483931 -0.373232 0.495853 0.242394 -0.833892 
0.0503984 0.167484 0.626917 -0.0160181 -0.432442 0.901519 
0.170243 -0.217824 -0.0525405 0.0846271 -0.0272669 -0.99604 
0.663198 0.827927 -0.0494934 0.860397 0.0560049 -0.506537 
-0.219245 0.528804 0.421606 -0.615094 0.19767 0.763273 
0.444604 -0.0260675 0.172524 0.640446 -0.758467 0.120649 
-0.102037 -0.0344181 -0.181477 -0.407785 -0.805039 -0.430841 
-0.216332 0.582871 -0.311951 -0.546997 0.42221 -0.722864 
-0.442402 -0.596126 -0.419247 -0.653565 -0.34655 -0.672872 
0.0951008 -0.747132 -0.250827 0.941657 0.0855133 -0.325529 
0.656225 0.656573 -0.025171 0.899581 -0.244462 -0.361928 
0.544287 0.871681 -0.142299 0.339298 0.382169 -0.859548 
-0.510065 -0.716746 -0.171659 -0.900925 -0.404449 -0.15734 
-0.150211 0.593217 0.448053 -0.471632 0.34822 0.810127 
0.322821 -0.488014 0.3078 0.774516 -0.327898 0.540932 
0.566573 1.0443 0.020696 0.184289 0.981274 0.0560214 
0.624685 0.947449 -0.0511125 0.629517 0.389612 -0.672243 
-0.138004 -0.274228 -0.280059 0.329612 0.931179 -0.155759 
-0.316496 -0.815937 0.214451 -0.728895 0.229062 0.645169 
0.523883 0.117503 0.299701 0.845774 -0.430057 0.31578 
-0.415073 -0.00597659 -0.406437 0.112596 0.433722 -0.893984 
0.204178 -0.935982 0.0930764 0.35214 -0.83784 0.417158 
-0.0322762 0.217825 0.61209 -0.580468 -0.004802 0.814269 
-0.0673402 -0.719024 -0.464136 0.371151 -0.411579 -0.832376 
0.397954 0.930659 -0.0746756 -0.486039 0.750605 -0.447613 
-0.264713 -0.452605 0.158742 -0.0699494 0.343818 0.936427 
-0.0552932 0.826759 0.224079 -0.321744 0.912533 0.252517 
0.15735 -0.0805285 -0.191136 0.0920097 -0.892777 -0.441004 
-0.152339 -0.948075 -0.289299 0.101058 -0.972343 -0.210562 
-0.380943 0.676306 0.0578877 -0.42803 0.114925 0.896428 
0.404383 0.639798 0.382827 0.608228 0.496755 0.619106 
-0.0687308 -0.363038 -0.401632 0.462464 0.677061 -0.572464 
-0.577611 -0.242225 -0.418032 -0.965993 -0.0270685 -0.257148 
0.187223 -0.1235 -0.10513 0.169991 -0.794437 -0.583072 
0.283712 -0.858425 0.0623072 0.751201 0.0106817 0.659987 
0.127654 -0.609728 0.348318 0.229819 -0.592345 0.772212 
-0.525183 -0.456258 0.00438685 -0.872629 0.296404 0.388153 
-0.414198 -0.299156 -0.494672 0.433258 0.260414 -0.862828 
-0.0762856 -0.61865 -0.498262 0.33383 -0.148437 -0.930873 
0.36636 -0.484399 0.20929 0.930364 -0.300528 0.210015 
0.152665 -0.725922 -0.16279 0.616642 0.103665 -0.780389 
0.218631 0.726014 0.421701 0.187821 0.669355 0.71881 
0.365306 -0.916884 -0.0640086 0.834722 -0.507312 0.214184 
0.0425654 -0.560825 0.376439 -0.264947 -0.332925 0.904966 
-0.302857 0.374358 0.349181 -0.679454 -0.132575 0.721641 
-0.262007 -0.948752 -0.243517 -0.0374834 -0.998257 0.045594 
0.34245 0.121606 0.542974 0.57931 -0.379191 0.721536 
-0.512649 0.571253 -0.199143 -0.600611 0.208033 -0.772003 
0.1392 0.793765 -0.239836 0.118341 0.833419 -0.539822 
-0.10381 -0.0774462 -0.0833465 -0.474138 -0.83505 -0.279079 
-0.452281 -0.4751 0.11188 -0.594946 0.333456 0.731331 
-0.212589 0.670125 -0.241495 -0.494573 0.667035 -0.557191 
0.332865 0.806045 0.211044 0.592917 0.70734 0.384862 
-0.444096 -0.61203 0.145418 -0.628714 -0.0229563 0.777298 
0.318842 -0.0625343 0.347065 0.432582 -0.81671 0.381913 
0.396051 0.717884 0.292511 0.64714 0.701621 0.298224 
0.170586 0.363866 0.582643 0.559548 0.637726 0.52935 
-0.241254 0.611213 0.360317 -0.689943 0.455503 0.56258 
0.217439 0.514608 -0.420812 0.30569 0.293218 -0.905857 
0.00830295 -0.947686 0.101053 -0.279375 -0.939855 -0.196526 
-0.44676 0.355742 -0.229665 -0.844562 0.0840207 -0.528825 
-0.342593 0.20925 0.253175 -0.879947 -0.266961 0.39297 
0.0536561 0.725979 0.431246 -0.0879052 0.679995 0.727928 
-0.135577 -0.919846 0.0129364 0.286893 -0.944165 0.162002 
-0.418277 0.208964 -0.150421 -0.782499 -0.537274 0.314694 
0.220663 -0.331911 -0.0751073 0.370093 0.378638 -0.84833 
-0.24119 -0.818745 -0.428862 -0.199008 -0.468336 -0.860847 
0.124688 0.438837 -0.459822 0.105313 0.1467 -0.983559 
-0.381504 -0.549535 -0.480727 -0.414737 -0.268993 -0.869273 
-0.143004 -0.729879 0.209327 -0.314015 0.298249 0.901356 
0.165864 -0.0723778 0.443858 0.165879 -0.905435 0.390732 
-0.410379 0.176448 -0.334286 -0.293556 0.0304663 -0.955456 
-0.0511019 -0.945352 -0.169657 -0.00608443 -0.98729 0.158815 
-0.290868 0.195264 -0.315923 0.129394 -0.159005 -0.978762 
-0.214595 0.740786 0.204476 -0.628317 0.73788 0.246479 
0.0751172 -0.236828 -0.0361181 -0.475459 0.179069 -0.86132 
-0.40739 0.717523 -0.130071 0.151448 0.821543 -0.549665 
0.280134 -0.491427 -0.0690553 0.693772 -0.0803452 -0.715699 
-0.186165 0.736655 -0.158147 -0.470715 0.811563 -0.346111 
0.0454105 -0.666716 0.323065 -0.038988 -0.475695 0.878746 
0.433207 0.876265 -0.149019 -0.169648 0.543527 -0.822069 
0.0889853 0.280741 0.658055 0.0618125 0.00151785 0.998087 
-0.463673 -0.725998 0.0942368 -0.763272 -0.35149 0.542098 
-0.205462 -0.297875 0.0251487 -0.0116043 0.868249 0.495992 
-0.51114 -0.626748 -0.292925 -0.879122 -0.31873 -0.354338 
0.0481677 0.190066 -0.436041 -0.112667 -0.362944 -0.924974 
0.414062 0.802259 0.108203 0.653394 0.0448301 0.755689 
-0.417763 0.214347 0.0562893 -0.681493 -0.678645 0.273878 
-0.267392 -0.891419 0.282622 -0.490911 -0.233575 0.839314 
-0.275631 -0.301654 -0.414548 0.121691 0.850219 -0.51217 
-0.36365 -0.265225 -0.391932 0.554677 0.803603 -0.215767 
-0.237414 0.00994965 -0.0399822 -0.617814 -0.771209 -0.153437 
-0.514418 0.32687 -0.0332131 -0.765958 -0.594334 -0.245104 
0.284538 -0.12749 -0.0436741 0.525383 -0.646656 -0.553 
0.491287 0.437218 0.38062 0.575042 0.125962 0.808369 
-0.232966 0.388643 -0.357625 -0.572303 0.0198599 -0.819802 
-0.200223 0.0129088 -0.163599 -0.435938 -0.863474 -0.253715 
-0.508986 -0.620961 0.0683697 -0.865048 -0.106166 0.490327 
-0.364724 0.740283 -0.035983 0.274726 0.955134 -0.110655 
-0.432546 0.474575 0.0324215 -0.326621 0.347085 0.879119 
0.00894538 0.846567 -0.0814645 -0.233081 0.945389 -0.227845 
0.633004 0.552058 0.0277919 0.902918 -0.403008 -0.149411 
0.0818129 -0.773118 0.289926 0.556356 0.219626 0.801394 
-0.14689 -0.860827 -0.402288 0.224896 -0.564956 -0.79388 
-0.0306345 0.58126 -0.40964 -0.247598 0.38416 -0.889447 
-0.0918144 -0.432356 -0.47437 0.363384 0.464791 -0.807416 
-0.459887 -0.393358 0.0484458 -0.616181 0.542249 0.571216 
0.375637 0.792156 -0.189772 0.00616139 0.495874 -0.868373 
0.220087 0.401845 0.502963 0.463359 0.309219 0.830471 
-0.14254 -0.265741 -0.0695974 0.245964 0.951042 0.187139 
-0.248819 -0.732512 0.210884 0.0147576 0.423452 0.905798 
0.12418 0.441639 0.536738 0.336115 0.423481 0.841243 
-0.172332 -0.582596 -0.522172 0.041834 -0.0939647 -0.994696 
0.34704 -0.328754 0.0464786 0.870741 0.274379 -0.408076 
-0.302231 -0.233394 -0.155259 -0.0839669 0.988874 0.122791 
0.339988 0.226408 0.555722 0.606767 0.358959 0.709213 
-0.185485 -0.28977 -0.37031 0.195061 0.874707 -0.443666 
0.0488371 0.772554 -0.27182 -0.104851 0.801435 -0.588819 
-0.396579 -0.841235 0.0999349 -0.791721 -0.405944 0.456495 
0.587286 0.76546 0.0787836 -0.129986 0.191905 0.972767 
0.274562 -0.240313 -0.0136213 0.634937 0.137463 -0.760236 
0.0614138 0.371617 0.62734 -0.114938 0.650407 0.750839 
-0.359896 0.577709 0.0714918 -0.87672 0.0541826 0.47794 
0.317371 -0.30172 0.298166 0.815029 0.315569 0.485946 
0.343857 -0.0639486 -0.0957705 0.454926 -0.823851 -0.3381 
0.533286 0.319799 0.358328 0.821421 0.0901418 0.563153 
-0.0505363 0.307621 0.568979 -0.817536 0.295542 0.494257 
-0.349935 0.555822 0.169293 -0.94693 0.316326 0.0571066 
0.138328 0.701683 -0.341486 0.155117 0.626814 -0.763572 
0.290504 -0.161821 0.268129 0.781887 -0.0661838 0.619897 
0.403391 0.621053 -0.264518 0.555956 0.38833 -0.734923 
-0.410213 -0.110381 -0.287318 0.40178 -0.563411 0.721901 
0.083504 -0.0291419 0.516703 -0.0619345 -0.677525 0.732888 
-0.38227 0.448754 0.13586 -0.947659 0.284057 0.145788 
-0.367715 -0.651542 -0.451109 -0.506395 -0.328137 -0.797427 
-0.164731 0.194383 0.421313 -0.744501 0.215938 0.631735 
0.0556736 0.817222 0.310179 -0.10143 0.880438 0.463186 
-0.203315 0.218591 -0.354065 -0.523121 -0.326233 -0.787348 
0.0323061 -0.3883 -0.296766 0.733305 0.595567 -0.327968 
-0.304188 0.683288 -0.163102 -0.101473 0.836997 -0.537716 
-0.339661 0.112429 0.064597 -0.834049 -0.546587 0.0748668 
0.32242 -0.57715 0.176965 0.802019 -0.574849 0.162219 
-0.457272 -0.235194 -0.280997 0.153735 0.588469 0.793769 
-0.35202 -0.923001 -0.280153 -0.547118 -0.766216 -0.337009 
0.352897 -0.0152751 -0.186799 0.467003 -0.762275 -0.448158 
-0.153833 0.317105 -0.40364 -0.46722 -0.0675815 -0.881555 
0.315344 0.034609 0.500547 0.486005 -0.608108 0.627697 
-0.127865 0.56614 -0.377032 -0.432757 0.352167 -0.82988 
-0.299449 0.585159 -0.25696 -0.309203 0.492291 -0.81366 
-0.159708 -0.35715 -0.447049 0.260126 0.646416 -0.717273 
0.539424 0.0791832 0.072346 0.854275 -0.517981 -0.0436993 
-0.180811 -0.355901 0.112766 -0.2516 0.737329 0.626932 
0.233893 -0.787309 -0.140745 0.296971 0.496081 -0.815912 
-0.271681 0.294472 -0.328544 -0.33708 -0.0353727 -0.940811 
-0.295911 -0.333099 0.070113 -0.0695976 0.754 0.653177 
0.58505 0.385085 -0.051634 0.977947 0.0449215 -0.203964 
-0.378154 0.224644 0.156194 -0.877431 -0.351544 0.326393 
-0.0317731 -0.822353 0.355019 -0.327224 0.624024 0.709591 
0.0279725 -0.0973264 0.38657 -0.206986 -0.864529 0.457981 
-0.322104 0.469904 0.328195 -0.825272 0.131893 0.549118 
0.312351 -0.925639 -0.151675 0.323007 -0.64925 -0.688579 
-0.114473 -0.105381 0.117528 -0.54534 -0.837933 -0.021732 
0.174379 0.323793 -0.458052 0.213834 -0.0487827 -0.975651 
-0.513546 -0.722896 -0.0340007 -0.909657 -0.399176 0.114815 
-0.314617 -0.930155 0.190401 -0.684803 -0.688986 0.23737 
0.219329 0.877252 0.052121 -0.0288408 0.99952 -0.0113281 
0.0935236 0.542938 0.527914 0.0508203 0.110807 0.992542 
0.436298 0.711106 -0.211099 0.307545 0.245346 -0.919359 
-0.39387 -0.742983 -0.381839 -0.647127 -0.433181 -0.627361 
0.621683 0.552593 0.126288 0.889184 -0.0748856 0.451379 
-0.177147 0.295339 0.412563 -0.555958 -0.191499 0.808851 
0.599678 0.359228 0.0495406 0.99666 0.0575066 -0.0579835 
0.54979 0.967511 0.0833987 0.222528 0.0590451 0.973137 
-0.259749 -0.930897 -0.345418 -0.1779 -0.824558 -0.537082 
0.0301178 -0.460515 0.388307 -0.491181 0.000110158 0.871058 
0.092462 -0.333278 -0.118559 0.254694 0.761174 -0.596444 
0.209998 0.0546405 -0.351603 0.228117 -0.588548 -0.775612 
-0.114429 0.738865 -0.232295 -0.419135 0.77426 -0.47418 
0.0328688 0.399258 -0.462663 -0.127429 0.0611793 -0.989959 
-0.108257 0.0432159 0.498912 -0.600399 -0.518922 0.608474 
0.0420971 -0.354104 -0.205447 0.575961 0.750452 -0.324178 
-0.504098 -0.491679 -0.405963 -0.765663 -0.367722 -0.52777 
