ply
format ascii 1.0
element vertex 500
property float x
property float y
property float z
property float nx
property float ny
property float nz
end_header
-0.395859 -0.35866 -0.445699 0.825343 -0.228336 -0.516402 
0.277407 -0.182219 0.0992203 -0.105333 0.809868 0.577078 
0.397169 0.0513702 0.150074 0.536662 -0.842669 -0.0436223 
-0.106117 -0.313611 0.32296 0.800149 0.496607 0.336367 
-0.0956932 -0.907496 0.125554 -0.996192 0.0848012 -0.0202761 
-0.330776 -0.414066 0.234167 -0.514966 -0.701728 -0.492329 
0.254183 -0.109508 -0.196091 -0.833955 0.548681 0.0588894 
-0.470085 0.445857 0.313793 0.0651924 -0.0750332 0.995048 
-0.468811 0.190489 -0.333684 -0.463974 -0.102982 -0.879842 
-0.116703 0.573731 -0.306996 0.0218896 -0.0688019 -0.99739 
-0.0740665 -0.252918 -0.163423 0.120863 0.54097 -0.832312 
-0.287499 -0.152278 -0.434215 0.547913 0.471669 -0.690883 
0.208615 0.468736 0.269022 -0.059247 -0.189308 0.980129 
-0.0806899 -0.58191 0.0325358 -0.985074 -0.0401281 -0.167391 
0.395381 -0.412466 0.260286 0.731447 -0.476142 -0.488133 
0.272452 -0.468922 0.318684 0.143542 -0.978357 -0.149039 
0.455939 0.6649 0.218899 0.644359 0.724942 -0.243434 
0.523396 0.578996 0.321503 0.466415 0.381584 0.798029 
0.470059 0.569515 -0.187185 0.77773 0.527798 0.341417 
-0.406856 0.643954 -0.211784 -0.689469 0.681673 0.244856 
-0.2788 -0.387738 0.148268 -0.43475 -0.761179 -0.481247 
-0.470784 0.112129 -0.193746 -0.956523 -0.283824 0.0671445 
0.0669345 -0.518158 0.0657913 0.836699 -0.329323 -0.437586 
0.111818 0.0589239 -0.207935 -0.250369 -0.96249 0.104539 
-0.489979 -0.250188 -0.383945 -0.90423 0.39487 -0.162622 
0.211534 -0.305552 0.465242 -0.859596 0.38199 0.339379 
-0.0521397 -0.253343 -0.0504031 0.250758 0.939273 0.234278 
-0.0325756 -0.619788 -0.114541 -0.448517 -0.165749 -0.878271 
-0.526153 0.243812 -0.263181 -0.987232 -0.156124 -0.0315861 
0.0669445 -0.740233 0.214668 0.948426 -0.269821 -0.166386 
0.608753 0.349758 0.299384 0.655441 -0.00620923 0.755221 
-0.386869 -0.354943 0.377732 -0.977662 0.18765 0.0946825 
0.0671551 -0.69528 0.327046 0.977495 0.120575 0.173104 
0.506952 0.194238 -0.164844 0.8432 -0.295976 0.448789 
-0.522846 0.330792 -0.216131 -0.958818 -0.0223652 0.283139 
-0.193594 0.749709 -0.0152463 -0.416353 0.907976 -0.0472258 
0.562721 -0.320499 -0.21624 0.384222 -0.442216 -0.810443 
0.273436 0.300368 0.256173 0.00597057 0.0135159 0.999891 
0.214286 -0.263229 -0.220237 -0.286984 -0.939778 -0.185625 
0.296736 -0.133984 -0.378818 -0.481088 0.750565 -0.452997 
0.12897 -0.479389 0.142126 0.769218 -0.447312 -0.456307 
0.746829 -0.360804 -0.161253 -0.269184 -0.840148 -0.470841 
-0.0248427 0.214376 0.256725 -0.03103 0.261467 0.964714 
0.225934 0.579642 0.296947 -0.130416 -0.272777 0.953197 
-0.179716 0.668486 0.324435 0.0906052 -0.281389 0.955307 
-0.397008 0.0918557 0.302774 -0.321339 -0.659567 0.679495 
-0.203818 -0.459326 0.207268 -0.529876 -0.673378 -0.515552 
-0.2878 -0.0604075 -0.309341 0.81273 0.254213 -0.524257 
0.380753 -0.306195 0.436623 0.894659 0.438489 -0.0855179 
0.424547 0.559252 0.32318 -0.192846 -0.190256 0.962608 
-0.526851 -0.218971 -0.2873 -0.771917 0.253753 -0.582884 
-0.751812 -0.234619 -0.0438314 -0.288776 0.881147 0.374418 
0.183702 -0.23836 0.194745 -0.262444 0.894005 0.36315 
-0.170537 0.0378645 -0.322362 0.242019 -0.936046 -0.255428 
0.32239 -0.494374 -0.200158 -0.90186 -0.331033 0.277607 
-0.409626 0.53211 0.319508 0.057916 -0.193085 0.979471 
-0.121416 -0.530734 0.127132 -0.87255 -0.140804 -0.467793 
-0.198862 -0.234682 -0.27203 0.751747 -0.625553 -0.208709 
-0.119482 -0.387213 0.391568 0.895156 -0.0662795 0.440798 
0.449527 -0.10677 0.0375707 0.643368 0.299407 0.70458 
0.389354 -0.473456 0.425161 0.397516 -0.916874 -0.0363803 
-0.323483 0.693518 -0.189984 -0.516168 0.784965 0.342638 
0.416096 -0.293617 -0.043274 -0.0464533 -0.76009 0.648156 
-0.477313 0.189914 -0.0746974 -0.992571 -0.118523 0.0274721 
0.458919 0.0287776 -0.297646 0.813685 -0.529923 -0.238953 
0.296981 0.712427 -0.0463341 0.51375 0.857794 -0.015802 
-0.199232 0.513247 -0.303567 -0.0205339 -0.0482916 -0.998622 
-0.0184597 0.351472 0.255988 -0.0165693 -0.0844935 0.996286 
-0.0673776 -0.350329 -0.160009 -0.172959 -0.31497 -0.933209 
0.46623 0.11956 -0.00502621 0.929495 -0.364553 -0.0560323 
-0.0600032 0.590062 0.295477 0.0231871 -0.290763 0.956514 
0.494676 0.228147 -0.070236 0.959402 -0.274393 -0.0652433 
-0.169624 -0.406035 0.100949 -0.468524 -0.754172 -0.460119 
-0.410241 0.640722 0.315029 -0.589125 0.456012 0.667072 
-0.467749 0.0907358 -0.0982509 -0.998211 -0.0219252 -0.055627 
0.500583 -0.315578 0.00179336 -0.452682 -0.604274 0.655693 
-0.124799 0.50284 0.272249 0.0260052 -0.232667 0.972209 
-0.144324 0.787328 0.231803 -0.204875 0.959954 -0.19109 
0.367456 0.476875 0.289116 -0.173849 -0.293129 0.940134 
-0.277578 -0.258663 -0.334128 0.465275 -0.851863 -0.240516 
0.275532 -0.234094 0.488905 -0.380353 0.869577 0.314908 
0.379453 0.342669 0.263278 -0.149391 -0.0738732 0.986015 
0.169014 0.73816 -0.324601 0.0517345 0.456154 -0.888396 
0.344011 -0.240604 0.308452 0.512455 0.857413 -0.0472504 
-0.154776 0.184142 -0.349255 -0.0141732 0.468178 -0.883521 
0.0528994 0.783889 0.0928519 0.101046 0.994879 0.00246039 
0.203534 0.146075 0.284688 0.035498 0.370337 0.928219 
-0.35857 -0.467474 -0.38906 0.891463 -0.0609563 -0.448974 
-0.0850722 0.784043 -0.0262329 -0.144339 0.989468 -0.0109517 
0.446574 -0.485092 -0.398058 0.900825 -0.303974 -0.310024 
-0.498157 0.246245 -0.157834 -0.947737 -0.132144 0.2904 
-0.180119 -0.38515 0.493006 0.713896 -0.340586 0.611845 
0.455409 0.419457 0.2935 -0.346083 -0.222373 0.91147 
-0.0679656 -0.41709 0.303323 0.722911 0.232158 0.65077 
0.515407 0.112011 -0.26016 0.841288 -0.508186 0.184338 
0.357199 -0.406741 -0.0897558 -0.271407 -0.457142 0.846971 
0.334585 -0.285083 0.549245 0.321234 0.497604 0.805729 
-0.00667621 -0.776754 0.000443536 0.955213 -0.0230624 0.295018 
-0.167965 -0.483641 0.381371 0.34318 -0.752052 0.562712 
-0.261914 0.46208 0.273505 0.105196 -0.225406 0.968569 
0.113596 0.15383 -0.371401 0.006104 0.124944 -0.992145 
-0.347597 0.289067 0.265781 0.278642 0.103931 0.954755 
-0.082909 0.0667383 -0.160481 0.233509 -0.959705 0.15633 
-0.571992 -0.193086 0.0246922 -0.578746 0.543185 0.60828 
-0.231508 -0.121693 -0.25563 0.782975 0.604562 -0.146472 
-0.0689483 -0.983625 0.0700736 -0.575126 -0.816119 -0.0563801 
-0.0867916 0.0847597 -0.016285 0.449986 -0.889747 -0.0765702 
0.484933 0.414817 -0.340821 0.0502855 0.0607999 -0.996883 
-0.957621 -0.343752 -0.0292088 -0.694243 -0.01969 0.719472 
0.343175 -0.310577 0.155391 0.960098 -0.118091 -0.253509 
0.397023 0.631747 -0.0254914 0.712019 0.691881 -0.119704 
0.40279 -0.262715 -0.479565 0.671145 0.364403 -0.645581 
-0.00438758 0.456127 0.26526 0.0241261 -0.12145 0.992304 
0.0898942 0.410354 -0.322973 -0.00645934 0.153676 -0.9881 
-0.494917 -0.244786 0.069069 -0.0225337 -0.508914 0.860523 
-0.0700767 0.0691111 0.0879466 0.159663 -0.962641 -0.218701 
0.564458 0.239518 0.297653 0.190028 -0.21001 0.959054 
0.433444 -0.225244 0.0634356 0.325953 -0.381411 0.865032 
0.301262 0.133392 0.283154 -0.00704192 0.365858 0.930644 
-0.472224 -0.358455 -0.0632042 0.134982 -0.557804 0.818923 
0.281051 -0.0215151 -0.0346098 -0.899771 -0.383696 0.207821 
-0.682551 -0.225016 -0.198493 -0.163736 0.747803 -0.643413 
-0.137178 0.287356 0.249786 -0.00729898 0.00119363 0.999973 
-0.410773 -0.06228 -0.317997 -0.73182 0.319381 -0.602026 
0.547035 -0.169385 -0.0899051 0.657522 0.752862 -0.0293801 
0.495481 -0.424268 -0.174111 0.800052 -0.599237 0.0288454 
0.125365 -0.2293 -0.244709 -0.591507 -0.64008 -0.490323 
0.115577 0.77757 -0.135475 0.180216 0.979735 0.0874205 
0.555908 0.348559 -0.31831 0.776872 0.109362 -0.620088 
0.519674 0.513448 -0.254171 0.926917 0.362674 0.0963999 
-0.663708 -0.202771 -0.0992135 -0.314821 0.944765 0.0911368 
-0.373597 0.683501 0.209688 -0.620434 0.734948 -0.273704 
-0.114601 -0.628256 0.15162 -0.934339 -0.176766 -0.309458 
0.326051 0.579588 0.313188 -0.160577 -0.29848 0.940811 
0.120675 -0.275842 -0.148348 -0.205438 -0.578684 -0.789253 
0.133971 -0.223621 -0.0191119 -0.464885 0.884552 0.0380879 
-0.516892 0.329495 0.313676 -0.182688 0.0309547 0.982683 
-0.334313 -0.252745 0.389769 -0.688231 0.69968 0.191798 
-0.392852 0.606962 0.0294325 -0.749803 0.646957 -0.138711 
0.448425 -0.33889 -0.423064 0.957393 0.0781982 -0.278 
0.43641 -0.541816 -0.239789 0.599556 -0.771735 0.212035 
-0.408397 0.101047 0.203829 -0.582119 -0.758494 -0.292958 
0.13479 0.628786 0.305779 -0.0250562 -0.398537 0.91681 
0.333166 -0.331416 -0.481091 -0.759066 -0.14717 -0.634161 
-0.467015 0.483433 -0.110406 -0.92557 0.315343 0.209473 
-0.0418416 -0.876749 -0.0906918 -0.495902 -0.288074 -0.819204 
-0.56275 0.40027 0.228525 -0.974986 0.159611 -0.154685 
0.536572 0.31094 0.0402871 0.951429 -0.0964713 -0.292363 
0.34876 -0.552714 -0.286526 -0.527436 -0.847888 0.0538299 
0.487172 -0.342139 -0.299833 0.898075 -0.188323 -0.397487 
-0.150896 0.40416 0.255941 0.00643999 -0.107385 0.994197 
-0.287015 0.267091 -0.311449 -0.0464423 0.22185 -0.973974 
-0.0463276 0.791413 0.191604 -0.0410503 0.981845 -0.185192 
0.0362523 -0.848776 0.275826 0.8901 -0.384516 -0.244681 
0.19829 0.026763 0.217468 -0.206187 -0.969971 -0.12901 
0.153349 0.77914 0.206306 0.14241 0.966984 -0.211333 
-0.576225 -0.285561 -0.228645 -0.538207 -0.293775 -0.789956 
-0.452908 -0.153366 -0.338203 -0.741898 0.516149 -0.427992 
-0.40118 0.294061 -0.310689 0.214156 0.224271 -0.950705 
-0.456625 -0.504201 -0.24414 -0.714251 -0.671812 0.196249 
0.715501 -0.267266 -0.0202637 0.323901 0.741813 0.587198 
-0.519549 0.179657 0.284317 -0.750291 -0.554257 0.360365 
-0.505628 0.389046 0.0884075 -0.92012 0.15685 -0.358856 
-0.520522 -0.355105 -0.275999 -0.945113 -0.189719 -0.266024 
0.555169 0.345605 -0.220427 0.925308 0.0755323 0.371617 
-0.232819 0.763827 -0.25542 -0.440571 0.862553 -0.248795 
0.378059 0.458732 -0.322283 -0.227236 -0.105427 -0.968116 
-0.773725 -0.276172 -0.227675 -0.120944 0.604831 -0.787116 
-0.325227 -0.422495 -0.18938 0.988775 -0.0624641 0.135726 
-0.330214 -0.416186 0.546603 -0.261883 -0.324855 0.908783 
0.217525 -0.261238 0.288013 -0.426627 0.888976 0.166464 
-0.112535 -0.67659 0.236659 -0.966298 -0.124361 0.225394 
0.299276 0.729956 -0.236151 0.4613 0.877539 0.130876 
-0.0873953 0.139812 0.278084 -0.0398587 0.287722 0.956884 
0.222492 0.0159958 -0.217911 -0.552307 -0.832813 0.0371449 
0.0556714 0.796538 0.238016 0.0848066 0.98891 -0.121922 
0.449688 0.0717837 -0.089653 0.989502 -0.142635 0.0232783 
-0.304335 -0.230612 0.144294 -0.671799 0.539589 0.507474 
0.378844 0.637745 -0.339804 0.219283 0.368783 -0.90328 
0.461517 0.550427 -0.0321662 0.828981 0.543026 -0.13384 
-0.441045 0.252026 0.307362 0.309191 0.19245 0.931324 
0.368393 0.701884 0.141953 0.486806 0.818982 -0.303792 
-0.260117 -0.345664 0.550686 0.223583 0.0829158 0.971152 
0.339256 0.222014 0.261076 -0.0715395 0.146288 0.986652 
0.421042 -0.415643 -0.477321 0.721349 -0.0848236 -0.687357 
-0.241638 0.0416241 0.179056 -0.064475 -0.960528 -0.270608 
0.272333 -0.233297 0.378455 -0.338285 0.938537 -0.0686389 
-0.463289 0.463712 -0.00492741 -0.951134 0.296555 -0.0860143 
-0.119032 0.047465 0.172159 0.113463 -0.96159 -0.24994 
0.367399 -0.143149 0.0780613 0.0531935 0.286718 0.956537 
-0.337706 -0.233263 0.256054 -0.469783 0.851797 -0.231831 
-0.192419 -0.172658 0.0816638 0.529242 0.818281 0.224318 
0.0545604 -0.47135 -0.0327625 0.92287 -0.380649 -0.0584611 
0.453205 -0.389216 -0.0858636 0.0147692 -0.485118 0.874324 
0.143475 -0.428163 0.398149 -0.667382 -0.211142 0.714157 
-0.173479 0.0506581 -0.123971 0.32044 -0.928496 0.187655 
0.475835 0.192795 -0.352942 0.142036 0.217048 -0.965772 
-0.413 -0.0428539 0.0695748 -0.443001 0.106974 0.890116 
0.923218 -0.409343 -0.0173416 -0.00368677 -0.893301 0.449444 
-0.240968 0.732381 -0.123727 -0.547216 0.812084 0.202665 
0.633792 -0.223991 -0.0841783 0.369545 0.927491 0.0565411 
0.568124 0.16368 0.202528 0.687758 -0.602313 -0.405227 
-0.00182627 0.452934 -0.313814 -0.0139943 0.176024 -0.984286 
0.835378 -0.366021 -0.010801 -0.424279 -0.484089 0.765274 
0.74431 -0.366324 -0.0531336 -0.178464 -0.878667 0.442826 
-0.210367 -0.2369 0.263915 0.281551 0.951749 0.122075 
0.010948 -0.505648 0.326781 -0.0682173 0.352283 0.933404 
-0.199866 -0.155482 -0.143763 0.769139 0.638497 0.0273306 
0.0522907 -0.83612 0.37302 0.887506 -0.343241 0.307439 
0.839578 -0.413001 -0.0986186 -0.303644 -0.947186 0.103146 
0.400598 -0.024368 0.0679471 0.496875 -0.185533 0.847757 
0.26471 0.756652 0.201233 0.213402 0.948081 -0.235802 
-0.315902 -0.322644 -0.247124 0.842996 -0.476432 -0.249739 
-0.177448 -0.374183 0.00508853 -0.33483 -0.942249 -0.00750121 
-0.249956 0.685125 -0.312927 -0.0527752 0.215395 -0.9751 
-0.0711808 -0.975132 0.234568 -0.315025 -0.941248 0.121703 
0.565152 0.224505 -0.286119 0.969255 -0.210015 -0.128211 
-0.401642 0.593319 -0.0897818 -0.761779 0.623646 0.175383 
0.124553 -0.338322 0.317418 -0.789039 0.522358 0.323355 
0.0864896 0.184682 0.265701 -0.00629388 0.322931 0.946402 
-0.121404 0.291474 -0.31787 -0.115255 0.118196 -0.986279 
0.394128 0.636955 -0.139555 0.699953 0.694452 0.166742 
0.146435 0.768827 0.0646075 0.189863 0.981748 -0.0110755 
0.263332 -0.105769 -0.0974032 -0.909094 0.403492 0.103641 
0.40082 -0.349581 0.345908 0.938745 0.329426 0.101173 
0.0958788 0.154564 -0.0186669 -0.970461 -0.0721506 -0.230216 
-0.0375255 -0.968503 -0.0215614 -0.177385 -0.842206 -0.509141 
-0.380111 -0.504874 -0.177232 0.0851288 -0.714332 0.69461 
0.538094 0.45123 0.0805979 0.909198 0.263944 -0.322013 
-0.408368 0.524999 -0.31276 -0.161891 0.0392001 -0.98603 
-0.20438 0.562422 0.29695 0.120352 -0.308667 0.943525 
-0.341519 -0.288017 0.0721106 -0.751585 -0.564007 0.342075 
0.247007 0.0533372 0.298595 -0.02226 -0.351958 0.935751 
-0.492755 0.37806 -0.118218 -0.970907 0.100383 0.2174 
0.831594 -0.393272 -0.198257 -0.252972 -0.757637 -0.601657 
0.667444 -0.320807 -0.207478 0.0593799 -0.415585 -0.907614 
0.11552 -0.558883 0.203169 0.88276 -0.430798 -0.18748 
0.0474923 0.762358 -0.315676 0.0364068 0.519368 -0.853775 
0.801638 -0.29683 -0.10219 0.206724 0.978132 -0.0228495 
0.18974 0.211366 -0.348899 0.0579238 0.330919 -0.94188 
0.394377 -0.401432 0.531404 0.700209 -0.184805 0.689605 
0.610461 0.402437 0.214763 0.904398 0.26298 -0.336015 
0.927856 -0.389113 -0.147015 0.610803 -0.602557 -0.513658 
-0.273568 -0.0371556 0.013039 0.92751 0.0887102 0.363119 
-0.325796 0.67926 0.0749663 -0.62304 0.76465 -0.164719 
0.278226 -0.121904 0.016713 -0.754069 0.558515 0.345602 
-0.52144 0.408246 -0.28886 -0.873691 0.227309 -0.430111 
0.442429 0.154082 0.291018 -0.0572728 0.238531 0.969445 
-0.214552 -0.498855 0.296261 -0.465087 -0.867718 -0.175381 
0.059868 -0.259444 0.0370393 -0.315669 0.947673 0.047636 
0.104759 -0.289279 0.222714 -0.551667 0.678505 0.485071 
0.219555 0.0232062 -0.320087 -0.415248 -0.850198 -0.323622 
-0.461576 0.0908471 0.0164511 -0.94544 -0.114147 0.305147 
0.209202 -0.410033 0.47573 -0.688472 -0.408757 0.599102 
-0.232206 0.337562 0.252215 0.0302659 -0.0764785 0.996612 
-0.434207 -0.279084 -0.0105832 0.0236584 -0.834337 0.550747 
0.411 0.669978 0.321118 0.338051 0.402319 0.8508 
0.0145395 -0.791622 0.110942 0.874635 -0.298269 -0.382163 
-0.42917 -0.474156 -0.458659 0.117953 -0.51911 -0.846529 
-0.0321442 -0.87456 0.419111 0.195484 -0.444676 0.874099 
0.448243 -0.128298 -0.271351 0.813656 0.331454 -0.4776 
0.371712 -0.552052 -0.3839 -0.0540142 -0.965212 -0.25583 
0.231852 0.751878 0.108892 0.26933 0.960137 -0.0748245 
-0.140192 -0.235695 0.188402 0.424647 0.854178 0.30009 
-0.444019 -0.515661 -0.367641 -0.487068 -0.864344 -0.125193 
0.273483 0.277981 -0.329469 0.0718257 0.160131 -0.984479 
0.296863 0.540404 -0.321022 -0.192379 -0.20577 -0.959505 
0.527194 -0.194064 -0.216177 0.666244 0.612836 -0.424913 
0.463068 -0.0635946 -0.188187 0.956561 0.238283 -0.167966 
-0.219709 0.114413 -0.380812 -0.0882016 0.167756 -0.981875 
-0.206014 0.756712 0.0941976 -0.360178 0.926949 -0.105063 
-0.0564131 -0.770878 -0.0897076 -0.777371 0.0700052 -0.625135 
-0.397285 -0.210679 0.0947141 -0.242056 -0.261299 0.934415 
0.201132 0.634817 -0.322286 -0.136225 -0.249034 -0.958866 
0.280903 0.706255 -0.331623 0.160789 0.484715 -0.859766 
-0.460102 0.0140967 -0.185107 -0.973637 0.062487 -0.219376 
0.0153349 0.0799783 -0.184547 0.0140938 -0.953489 0.301099 
-0.38319 -0.446936 0.443325 -0.867894 -0.495693 0.0323827 
-0.397402 0.401985 -0.305829 0.21844 -0.0739862 -0.973042 
-0.285816 0.695896 -0.043325 -0.578178 0.815277 -0.0321523 
0.267292 0.403242 -0.317856 0.0586591 0.0862469 -0.994545 
-0.253247 0.0568059 0.296124 0.0613815 -0.408818 0.910549 
0.404501 -0.204002 -0.400483 0.77601 0.514077 -0.365422 
0.0768661 -0.38078 -0.117944 0.577918 -0.347003 -0.738647 
0.0211259 0.786032 -0.0239852 0.0685596 0.997106 -0.0328526 
0.169278 0.0561344 0.0344824 -0.19311 -0.98012 -0.0455275 
-0.122645 -0.885893 0.383118 -0.733465 -0.446022 0.512926 
-0.0520292 -0.26994 0.10828 0.363327 0.920721 0.142364 
0.127315 0.0544008 0.146 -0.126696 -0.988611 -0.0812214 
-0.122403 -0.774657 0.256635 -0.967524 0.150148 -0.203354 
0.522373 0.294247 -0.142344 0.938791 -0.144132 0.312886 
-0.29489 -0.247999 0.492078 -0.365237 0.809156 0.460291 
-0.529352 0.517469 0.261591 -0.861355 0.484135 0.153886 
-0.00460599 -0.909915 0.0843928 0.985278 0.0733438 0.15443 
0.224398 0.124992 -0.379885 -0.0589076 0.140512 -0.988325 
0.298726 0.0181779 0.222764 0.0479007 -0.998144 -0.0376094 
0.0519844 0.0749871 -0.336118 0.00594671 -0.848908 -0.528508 
-0.242113 0.359009 -0.301985 -0.0645913 0.0642218 -0.995843 
-0.097164 0.476865 -0.30874 -0.0498827 0.0671419 -0.996496 
0.338689 -0.476909 -0.476478 -0.550748 -0.342633 -0.761104 
0.120327 -0.50501 0.342171 -0.0443043 -0.683931 0.7282 
-0.423863 0.353224 0.293475 0.382029 -0.0505152 0.922769 
-0.844539 -0.289065 -0.0228957 -0.178817 0.622154 0.7622 
0.192738 -0.376201 0.032441 0.0686551 -0.975205 -0.210385 
-0.0654795 0.806325 -0.270243 -0.0420009 0.931439 -0.361466 
-0.35754 0.436943 0.284304 0.253707 -0.224548 0.940857 
0.138744 0.0710347 0.288976 -0.220304 -0.422944 0.878968 
0.0287262 -0.69227 0.0822446 0.884662 -0.195473 -0.423277 
-0.687041 -0.336942 -0.143741 0.0424696 -0.966009 -0.254997 
0.0185985 -0.304325 -0.154368 0.316286 0.0821045 -0.945104 
-0.351478 -0.336219 -0.338106 0.929633 -0.269755 -0.251029 
-0.486487 0.296227 -0.0433404 -0.999356 -0.0358677 -0.000753251 
-0.588035 -0.176503 -0.185156 -0.517093 0.754527 -0.404108 
0.651517 -0.343455 -0.032914 0.066449 -0.799419 0.597088 
-0.0324297 0.630053 -0.312202 -0.016543 -0.18783 -0.982062 
-0.107243 0.781352 0.103683 -0.129126 0.991624 -0.00279185 
-0.527569 0.285105 0.141334 -0.877318 -0.201779 -0.435428 
-0.822728 -0.260975 -0.135051 -0.416923 0.898987 -0.134156 
0.224695 -0.160933 -0.305913 -0.6261 0.63165 -0.457183 
0.540595 0.216792 0.121406 0.778393 -0.42612 -0.461006 
0.335513 -0.381789 -0.321078 -0.999266 0.0382093 -0.00257164 
-0.414214 -0.174127 -0.439423 -0.567785 0.675985 -0.469748 
0.167065 0.763291 -0.0460531 0.244708 0.969583 -0.00521641 
0.275297 -0.331189 -0.114101 -0.486281 -0.795567 -0.361393 
0.0774511 -0.642272 0.167799 0.928584 -0.218002 -0.300343 
0.0981004 0.770791 0.322906 0.0579186 0.647383 0.759961 
0.113632 -0.427974 0.0602338 0.684969 -0.612088 -0.395177 
-0.571488 -0.386196 -0.100566 -0.320787 -0.924236 0.207082 
0.471306 0.608524 -0.285489 0.769625 0.627616 -0.117368 
-0.0128586 0.222759 -0.340552 -0.104901 0.318891 -0.941968 
-0.120236 -0.226335 0.0388414 0.604242 0.796262 -0.0293086 
0.581273 -0.222548 0.000175724 0.482006 0.639083 0.599369 
0.319301 0.165212 -0.365741 0.0198111 0.406688 -0.913352 
-0.559339 0.259999 0.231662 -0.950748 -0.25615 -0.174542 
-0.0616752 0.794189 0.320917 -0.0035256 0.792559 0.609785 
0.282657 -0.067085 -0.294003 -0.923848 0.0550386 -0.378781 
0.0578142 0.581015 -0.307916 -0.0365417 -0.105241 -0.993775 
0.12697 0.288541 -0.338371 0.0570805 0.13987 -0.988523 
0.355888 -0.300019 0.0403137 0.795947 -0.586233 0.150996 
0.17601 -0.33744 -0.0935358 0.201443 -0.765734 -0.610796 
-0.00804856 -0.523024 -0.133459 0.0369746 -0.0728679 -0.996656 
0.300454 -0.422023 0.218965 0.165362 -0.814679 -0.555836 
0.496616 0.57425 0.119966 0.792184 0.522619 -0.315142 
0.0234005 -0.608945 0.0188957 0.981497 -0.182852 -0.0568233 
-0.0582646 0.0612766 -0.264277 0.111799 -0.990975 0.0739523 
0.284019 0.404071 0.259724 -0.0493441 -0.140094 0.988908 
0.312189 -0.350339 -0.220298 -0.931352 -0.321749 -0.170475 
0.542757 0.456583 0.323868 0.102863 -0.0817528 0.99133 
0.480142 -0.0816213 -0.0889249 0.891989 0.451541 -0.021585 
-0.242235 0.762652 0.238815 -0.309322 0.94659 -0.091035 
0.383277 0.676276 -0.247506 0.567302 0.810418 0.146259 
-0.129207 0.738549 -0.314533 -0.129832 0.260475 -0.956711 
-0.196139 0.147127 0.27323 0.0676967 0.387606 0.919336 
-0.235106 -0.457018 0.455472 0.366109 -0.823848 0.43271 
0.0940551 0.287377 0.256172 -0.0363721 -0.0133675 0.999249 
-0.34563 0.690575 -0.288434 -0.45247 0.728623 -0.514179 
-0.310694 0.145031 0.29846 0.281724 0.309309 0.908273 
0.233724 0.0105669 -0.115492 -0.597808 -0.795244 0.101061 
-0.119622 0.783912 -0.117698 -0.188363 0.962779 0.193846 
-0.497892 -0.446983 -0.317086 -0.942668 -0.330489 0.0464083 
0.491017 0.0809896 0.237785 0.633899 -0.767342 -0.0967341 
-0.179285 -0.363411 -0.09387 -0.389076 -0.789129 -0.475285 
-0.281587 0.571105 -0.312181 0.104351 -0.137075 -0.985049 
-0.0897431 -0.517005 0.32606 0.0557951 -0.0751705 0.995609 
-0.0627771 -0.678255 0.326201 -0.911006 0.177807 0.372093 
0.547409 0.541865 0.200479 0.821597 0.422904 -0.382271 
-0.262207 0.234013 0.256239 0.144423 0.176419 0.973662 
0.191201 -0.186818 -0.103199 -0.486621 0.85588 0.175125 
0.0446563 -0.256438 -0.0716828 -0.169859 0.980237 0.101404 
0.0520117 0.0587437 0.209294 -0.0428327 -0.999077 -0.00328112 
0.18038 0.343664 0.256181 0.00252594 -0.00271887 0.999993 
-0.235526 -0.00624793 -0.242649 0.729038 -0.660261 -0.180441 
0.490362 0.131306 0.15208 0.638857 -0.640298 -0.426474 
0.397284 -0.0581492 -0.331104 0.652854 -0.0986476 -0.751033 
0.297668 -0.285973 -0.390314 -0.809702 -0.586569 -0.0178973 
0.385694 -0.306765 0.248801 0.884208 0.362886 -0.29409 
0.201671 0.768058 0.311986 0.177 0.756803 0.629222 
-0.291966 0.172441 -0.34304 -0.054197 0.437704 -0.897484 
0.501869 -0.245104 -0.297491 0.781444 0.207897 -0.588323 
-0.320236 -0.49661 -0.282923 0.972941 -0.186645 -0.136196 
-0.284245 0.451286 -0.300357 0.0241135 -0.0707222 -0.997205 
0.476075 -0.441204 -0.313326 0.978817 -0.060562 -0.195574 
0.0444563 -0.281114 0.136144 -0.299321 0.904015 0.305227 
0.293226 -0.37337 0.0249973 0.367875 -0.92893 -0.0419301 
-0.131834 -0.789568 0.361498 -0.862135 0.444421 0.243339 
0.071259 0.077975 0.0367066 -0.385936 -0.73968 -0.551295 
0.463836 0.0575092 -0.187767 0.928691 -0.267847 0.256497 
0.241963 0.674763 0.325214 -0.0443058 -0.203609 0.978049 
0.0843288 0.406284 0.256626 0.0160395 -0.0559128 0.998307 
-0.923015 -0.29749 -0.154575 -0.320066 0.928776 -0.186901 
-0.103732 -0.861492 0.214106 -0.942648 0.0142417 -0.333484 
-0.234504 -0.230568 0.359345 0.339428 0.940521 0.0144559 
-0.165226 -0.28311 0.40418 0.727559 0.654436 0.205843 
-0.408786 0.619974 0.134032 -0.69931 0.668905 -0.252055 
-0.742826 -0.343769 -0.0415008 0.0828638 -0.932632 0.351184 
0.283326 -0.226885 0.188162 0.180702 0.954731 0.236295 
0.615282 -0.23892 -0.189588 0.306456 0.749473 -0.586835 
-0.181851 0.0513359 0.0374966 0.210453 -0.976886 -0.0374661 
-0.0915112 -0.746366 0.120488 -0.967505 -0.0939474 -0.234752 
-0.139882 -0.212731 -0.0652781 0.525633 0.845943 0.0899459 
-0.225719 -0.173222 -0.35591 0.876101 0.212459 -0.43279 
0.407831 0.0609989 0.298407 0.165164 -0.430276 0.887459 
0.280704 -0.290688 -0.293892 -0.630587 -0.756941 -0.171467 
0.519366 0.3545 -0.0633451 0.998569 -0.0273513 -0.045947 
-0.298818 0.0334122 0.090729 0.214435 -0.831993 0.511668 
-0.0847859 -0.870268 0.00522706 -0.992442 0.104686 -0.0640334 
-0.499743 -0.400754 -0.439445 -0.908593 -0.145246 -0.391615 
-0.4975 0.462 -0.202158 -0.910868 0.320766 0.259671 
-0.0800366 -0.508026 -0.0503471 -0.983451 -0.165116 -0.0745746 
-0.482823 -0.0871352 -0.203167 -0.796446 0.48824 -0.356784 
-0.00411455 -0.770127 0.422065 0.179175 0.123228 0.976069 
-0.0722602 -0.702701 -0.0141987 -0.997288 0.0367185 -0.0637897 
0.0159898 0.119334 0.289791 -0.00590595 0.0432404 0.999047 
-0.150221 -0.574445 0.267643 -0.816576 -0.512876 0.264881 
0.381889 0.235332 -0.333156 -0.0522646 0.327492 -0.943407 
0.0312289 0.624966 0.30419 0.0173604 -0.376379 0.926303 
-0.220558 -0.136943 -0.031491 0.799195 0.600899 0.0144174 
-0.0247865 0.113566 -0.0922939 0.542359 -0.702137 0.461356 
-0.453084 0.559675 -0.174412 -0.859415 0.431857 0.273689 
0.190074 -0.471463 0.230272 0.564702 -0.703275 -0.431876 
-0.00646251 -0.633396 0.400254 -0.110245 0.504434 0.856383 
-0.243228 -0.0677409 -0.148292 0.984488 0.167253 0.0529988 
-0.326993 -0.347454 -0.005897 -0.447245 -0.814892 0.368677 
-0.476429 0.00879044 -0.0349607 -0.966064 0.21525 0.142784 
-0.973516 -0.384995 -0.123752 -0.820821 -0.557274 0.125295 
-0.344612 -0.463508 0.34388 -0.529641 -0.795339 -0.294814 
-0.303063 0.0573405 -0.363719 -0.050719 -0.284048 -0.957468 
-0.177138 -0.252036 -0.178075 0.43634 -0.509345 -0.741738 
-0.460063 -0.129158 0.057328 -0.491655 0.340026 0.801659 
-0.397948 0.0940213 -0.352035 -0.387946 -0.171638 -0.905559 
0.219171 -0.411856 0.158463 0.322832 -0.860828 -0.393388 
0.588433 0.319685 0.14914 0.841348 -0.0224476 -0.540028 
-0.399991 0.0799164 0.103897 -0.656719 -0.539231 0.527209 
-0.463274 0.166193 0.151108 -0.717423 -0.665986 -0.204371 
0.334203 0.742607 0.294578 0.300629 0.846864 0.438684 
0.330007 0.700086 0.0518595 0.52581 0.837549 -0.148441 
-0.239281 0.0269803 -0.0525029 0.720089 -0.684952 0.110958 
0.450665 -0.00888838 -0.0152424 0.977018 0.148902 0.152528 
-0.1279 0.0458682 0.269947 0.190189 -0.754709 0.627888 
0.0977128 0.671116 -0.327054 -0.031744 -0.187944 -0.981667 
0.278265 -0.200246 -0.450346 -0.756809 0.26462 -0.597676 
-0.481035 0.210395 0.0610631 -0.954747 -0.294734 -0.0398754 
-0.458783 -0.443693 -0.14765 -0.421095 -0.720251 0.551288 
-0.00906909 -0.928662 0.319021 0.655189 -0.731891 0.18725 
0.320057 0.702059 -0.142046 0.562339 0.820267 0.10458 
-0.146871 0.388397 -0.307139 -0.123883 0.043958 -0.991323 
0.13468 0.534492 0.276225 -0.0547865 -0.213217 0.975468 
-0.516389 0.466402 0.157039 -0.846193 0.288034 -0.448323 
-0.386933 -0.334714 0.252807 -0.95006 -0.0819294 -0.301121 
-0.293878 0.725533 0.162606 -0.49826 0.836526 -0.227948 
0.25279 0.0300574 0.0838357 -0.379866 -0.92396 0.0447065 
-0.00415871 0.188877 -0.0220526 0.828587 -0.556691 -0.0594874 
-0.301052 0.549319 0.305115 0.182133 -0.365444 0.912841 
-0.066804 -0.443669 -0.122921 -0.583878 -0.306278 -0.751851 
-0.459911 0.601489 0.237521 -0.754934 0.644113 -0.123263 
0.28539 -0.375084 0.555714 -0.384511 -0.240716 0.891183 
-0.971212 -0.357247 -0.220059 -0.868053 0.271393 -0.415728 
0.421529 -0.477622 -0.133255 0.318274 -0.609485 0.726105 
-0.266782 0.720698 0.32627 -0.175076 0.492923 0.852277 
-0.393218 -0.265805 -0.498171 0.270768 -0.113568 -0.955922 
0.351253 0.0652278 -0.382705 0.00069069 -0.154328 -0.988019 
0.357355 0.363094 -0.31975 -0.0727856 0.0246842 -0.997042 
0.464905 0.269403 0.281555 -0.33473 -0.00725373 0.942286 
-0.515062 -0.0881828 -0.0268623 -0.80988 0.504772 0.29883 
-0.306698 -0.249154 -0.440946 0.676365 -0.573036 -0.462775 
-0.0632018 0.69575 0.331995 0.0087528 -0.33843 0.940951 
-0.0258389 0.347941 -0.330044 -0.102374 0.0558671 -0.993176 
-0.198908 -0.288898 0.499975 0.673811 0.479109 0.562524 
0.165472 0.479034 -0.315205 0.00329009 0.113736 -0.993506 
-0.291753 -0.110524 0.0830982 0.375962 0.490009 0.786475 
-0.645224 -0.32845 -0.0236124 -0.0992132 -0.786372 0.609734 
0.421788 0.63734 0.0751381 0.649582 0.70968 -0.272758 
-0.466296 0.519262 0.0887927 -0.862313 0.403343 -0.306154 
0.455849 0.300296 -0.33438 -0.213641 0.00510042 -0.976899 
-0.485352 -0.297938 -0.475613 -0.779999 0.167682 -0.602897 
0.288766 -0.4686 0.415758 -0.162077 -0.984697 0.0640557 
0.0560332 -0.401352 0.255411 -0.48679 0.574931 0.65764 
0.508408 0.203307 0.0248306 0.914097 -0.360509 -0.185635 
0.103484 0.0806477 -0.0875975 -0.657751 -0.704801 0.265744 
-0.551001 -0.304932 0.0123507 0.0703377 -0.727058 0.682964 
0.445137 0.0993977 -0.375389 0.359692 -0.142177 -0.922175 
0.0521067 -0.594425 0.320824 0.781293 0.0336921 0.623254 
0.00610401 -0.876886 0.186279 0.954371 -0.217872 -0.204226 
-0.572028 -0.145567 -0.0825105 -0.67744 0.734828 0.033209 
0.144579 -0.220807 0.0786369 -0.455408 0.884538 0.100972 
0.523176 0.439695 -0.167931 0.932917 0.24021 0.268264 
-0.0667009 -0.299605 0.218297 0.621277 0.666389 0.412239 
-0.157594 0.765917 0.327032 -0.25358 0.557099 0.790783 
-0.033468 0.107843 -0.370156 0.0400427 -0.276896 -0.960065 
-0.35937 -0.317619 0.468105 -0.872868 0.447991 0.193405 
0.190378 0.764132 -0.199491 0.288086 0.946459 0.145675 
0.00783792 0.790159 -0.154442 0.0903347 0.977813 0.189001 
0.499993 0.468932 -0.0761633 0.938799 0.344449 0.00320906 
0.446283 0.526269 -0.34331 0.115105 -0.0403609 -0.992533 
-0.104166 -0.445254 0.0246597 -0.892503 -0.435038 -0.119078 
0.550649 -0.383946 -0.0662442 0.0614702 -0.922095 0.382051 
-0.833789 -0.36497 -0.0854264 0.366891 -0.917697 0.152393 
-0.441501 0.0499666 -0.27418 -0.895877 -0.313353 -0.314984 
-0.257645 -0.306395 -0.146616 0.336172 -0.777755 -0.531118 
-0.380509 -0.410756 -0.0989846 0.139144 -0.632878 0.761646 
