ply
format ascii 1.0
element vertex 1000
property float x
property float y
property float z
end_header
-0.681872 0.707283 -0.089539
0.045617 0.875170 0.214750
-0.066917 0.988733 -0.061453
-0.116260 0.822628 0.235939
-0.178161 0.946970 -0.128623
0.021014 0.942220 0.158598
-0.021426 -0.955907 -0.140117
-0.860745 -0.394138 0.152519
-0.692803 -0.662046 0.136851
0.500379 -0.051181 0.037145
-0.454239 0.574747 0.249170
0.436394 0.262356 -0.068718
-0.056435 -0.865077 -0.220480
0.064574 0.703166 0.245954
0.549324 -0.430936 0.244581
0.474190 0.157486 0.002616
-0.713777 0.532606 0.205816
0.356861 0.351529 0.022241
0.020351 -0.921623 0.180542
-0.474012 0.157826 0.001532
0.734494 0.522935 0.197738
-0.586326 -0.745342 0.150738
0.781674 0.500220 0.174602
-0.213898 0.456378 -0.047548
0.064444 0.746834 0.250000
-0.996464 0.053831 0.018161
-0.931567 -0.353710 0.033418
-0.495601 -0.088538 0.042242
-0.482854 0.835689 0.124999
0.941646 0.202828 -0.128877
-0.911278 0.157113 -0.177859
-0.282613 -0.884592 0.174091
0.322380 -0.406325 0.095671
0.334429 0.747896 -0.239863
0.410234 -0.316205 -0.094164
0.469156 -0.194331 0.060779
0.701480 0.535917 0.210953
-0.050366 -0.920447 0.180271
0.418483 0.743695 -0.227002
-0.273054 0.501001 0.174090
-0.000000 -0.503505 -0.040016
0.093221 0.809574 0.241013
0.522559 -0.428853 0.238726
0.296260 0.532301 0.206758
0.303408 0.917509 -0.123230
-0.683452 0.093497 -0.242535
0.071315 -0.536826 0.138892
-0.080493 0.976197 -0.097403
-0.897100 0.408716 0.079080
-0.079448 0.535619 -0.138893
0.951192 0.303294 -0.020975
-0.032796 0.817629 0.240069
-0.304909 -0.877729 0.172932
0.052796 0.606177 0.206134
0.725316 -0.629587 0.133021
-0.416407 0.835542 0.168273
-0.579319 -0.427504 0.248106
0.958380 -0.243511 0.069441
-0.704596 -0.259150 -0.249920
-0.176558 0.472706 -0.050207
0.114274 0.808172 0.240586
-0.486578 0.114525 0.008678
-0.148076 -0.911667 0.178713
0.433983 0.248530 -0.012481
0.927937 0.364840 -0.031176
0.289520 -0.433297 0.100095
-0.098740 0.496398 -0.054040
0.953955 0.257954 -0.072571
0.931681 -0.324059 -0.077196
-0.498765 0.810798 -0.145444
-0.777979 -0.414601 0.212232
-0.523563 0.573981 0.248302
-0.193913 0.466133 -0.049139
0.149220 -0.504887 0.111779
-0.448105 -0.414480 0.207867
-0.110851 0.914450 -0.181172
-0.346487 0.903156 -0.121560
-0.112669 0.955840 -0.130017
-0.557621 0.829401 0.008963
0.649681 0.743283 -0.075392
0.640370 0.741941 -0.095671
-0.116258 0.491819 -0.053302
0.765829 0.085436 -0.248968
0.121823 -0.723639 0.249242
-0.109689 -0.916436 0.179543
0.872335 0.477527 -0.049868
0.038057 0.766164 -0.249114
0.578310 0.739538 -0.162591
0.655357 0.730188 -0.091877
0.987864 -0.115192 0.048256
0.182386 0.946615 -0.128173
-0.466088 0.806266 -0.170685
0.897957 -0.384716 0.103201
-0.464947 -0.815602 0.162487
-0.582858 0.136004 -0.199006
-0.559896 0.827510 -0.012290
0.093871 -0.581857 0.192022
0.045774 -0.509859 0.076326
-0.294803 -0.428545 0.098676
-0.923778 0.172756 -0.161899
-0.950531 0.237647 -0.095671
0.880200 0.126583 -0.206809
0.472047 -0.811067 0.162752
0.116986 -0.851224 0.224092
0.274921 0.471349 0.144491
0.700272 -0.429752 0.239235
0.375111 0.564010 0.239235
0.038726 0.813108 0.241129
-0.124014 0.857893 -0.220480
0.501083 -0.030121 0.033663
0.087102 -0.954500 0.137372
-0.904829 -0.375665 0.098241
-0.450518 0.804314 -0.180556
0.260939 0.797958 0.232916
0.434580 -0.829470 0.165754
0.487471 0.210945 -0.121152
-0.461346 0.237052 -0.095671
0.995682 0.070300 0.017596
-0.410080 0.571193 0.245595
0.824705 0.551050 -0.062075
-0.445958 -0.246230 0.068368
-0.500742 0.012494 0.025532
0.479009 0.779428 0.186634
0.819319 0.476851 0.150786
-0.929565 0.360771 0.030082
0.117220 -0.677994 0.242054
-0.364976 -0.385550 0.121014
-0.729875 0.526059 0.199111
-0.807492 -0.265950 -0.228492
-0.232785 0.447200 -0.046051
-0.634992 0.557143 0.230970
0.063009 0.771409 0.248796
-0.453676 -0.229918 0.065663
0.515698 -0.283968 -0.191100
0.882079 0.460443 -0.047032
-0.541736 0.572399 0.246664
-0.009171 0.962176 -0.130953
0.674594 0.093981 -0.240356
0.594847 -0.270856 -0.230970
0.013913 0.955073 0.141738
0.623986 0.756423 -0.096249
-0.561369 0.570517 0.244718
0.616507 0.559801 0.235237
0.486800 0.113877 0.009840
-0.669024 -0.683327 0.140395
0.202385 -0.902629 0.177598
-0.352203 -0.362509 0.052491
-0.481121 0.135610 0.005198
0.114549 -0.660632 0.236970
0.501582 0.777131 0.177892
-0.729676 -0.626620 0.130954
-0.652833 0.552485 0.226191
-0.803032 -0.409703 0.198005
0.787893 0.597446 -0.069786
-0.871552 -0.443503 0.100524
-0.760369 -0.417452 0.220480
0.928437 -0.326782 0.083176
0.887987 -0.389612 0.117849
0.018496 0.767430 -0.249099
-0.011009 0.505954 -0.055525
0.057372 0.819753 0.239235
-0.217487 0.938926 -0.127335
0.904731 0.415154 -0.039520
-0.316733 -0.410513 0.095671
0.119555 -0.696746 0.246141
0.497992 0.052976 0.019921
-0.542559 -0.274610 -0.206016
-0.556799 0.823472 -0.052347
0.936750 -0.337553 -0.037216
0.809088 -0.414373 0.192280
0.782011 -0.269502 -0.237261
0.901866 -0.300220 -0.147567
0.033197 -0.998135 -0.004759
-0.052785 0.818868 0.239513
0.399738 -0.323053 0.081986
-0.511344 0.189668 -0.144118
-0.306141 0.916244 -0.123681
-0.464170 0.835951 0.140327
0.855087 0.450571 0.123994
-0.260216 -0.452260 0.102634
-0.947988 0.312504 -0.019228
-0.922789 0.373837 0.043432
-0.473541 -0.179496 0.057305
0.887091 -0.413942 0.097542
0.919680 -0.311387 -0.114651
-0.363364 0.343705 0.013358
-0.073139 -0.721701 -0.248796
0.922627 -0.368181 0.053838
0.180468 -0.907274 0.178343
-0.647890 -0.261175 -0.244600
-0.027509 -0.944896 -0.154559
-0.512207 0.812914 -0.132423
-0.499651 0.200488 -0.133056
0.426410 -0.282830 0.075365
0.380324 -0.851536 0.169344
-0.399051 0.835235 0.176777
0.162528 -0.909540 0.178698
0.813056 0.565732 -0.064515
0.360813 -0.387947 0.119310
0.806778 -0.539072 0.118144
-0.484808 -0.141973 0.051089
-0.211657 0.827871 0.226312
-0.431772 0.267858 -0.064177
0.482137 0.131890 0.006857
0.226591 -0.897500 0.176777
-0.460965 -0.212852 0.062834
-0.072689 -0.697264 -0.245196
0.591912 -0.432672 0.249217
-0.037957 0.501092 -0.036321
0.597875 0.563739 0.239235
-0.114734 0.621279 -0.220480
0.193207 0.466363 -0.048757
-0.936360 -0.319700 -0.067436
-0.891432 -0.382328 0.117849
-0.787127 0.597743 -0.071542
-0.491249 0.095711 0.011784
-0.951318 0.298425 -0.033610
-0.098998 0.945878 -0.147731
-0.262816 0.928596 -0.125676
-0.391547 0.797951 -0.207180
0.841439 -0.488903 0.109886
-0.934744 -0.313606 0.078978
-0.501524 -0.005667 0.028534
0.943389 0.324590 -0.024504
-0.030464 -0.529602 -0.120484
0.742005 -0.613525 0.130384
0.050951 0.960344 -0.130585
0.291568 0.409737 -0.039288
-0.454692 0.859019 -0.114380
0.718833 0.529331 0.204250
0.381629 -0.345569 0.085689
0.926903 -0.317813 -0.095671
-0.824403 0.099904 -0.236169
-0.060046 -0.848833 -0.228079
-0.991226 -0.097627 0.043208
-0.898195 0.143869 -0.191366
0.555900 0.152949 -0.180290
0.613376 -0.725417 0.148744
-0.029095 0.505032 -0.055392
0.097141 0.496589 -0.053859
-0.131228 0.756233 -0.249105
-0.345878 -0.384035 0.091261
0.328407 0.792844 0.225059
-0.119038 0.640098 -0.229594
-0.358835 -0.379965 0.104370
0.072522 0.959392 -0.130405
0.019363 0.814352 0.241056
0.304456 -0.421037 0.098084
0.640252 0.105417 -0.228721
-0.235856 0.934740 -0.126663
0.411198 0.878406 -0.116647
0.538510 -0.775138 0.156884
0.322183 0.911442 -0.122206
-0.521828 -0.278923 -0.193469
-0.072384 0.773367 -0.248437
-0.939686 -0.331591 -0.032115
-0.959122 -0.242807 0.067246
0.597695 0.125891 -0.207868
0.823132 -0.515434 0.114253
-0.122296 0.657299 -0.236195
-0.022249 -0.519252 -0.098451
-0.405851 -0.313320 0.079504
0.556091 -0.763809 0.155030
0.112264 0.956029 -0.129805
-0.035500 -0.526500 0.115152
-0.858714 0.448640 0.119896
0.400194 0.786868 0.211106
-0.965774 -0.220118 0.063488
-0.756573 -0.598580 0.126289
0.109137 -0.892149 0.199933
0.398364 0.303726 -0.026521
0.934178 -0.352750 0.007908
0.934746 -0.329975 -0.059676
0.828128 0.099149 -0.234889
0.481682 0.574422 0.250000
0.994699 0.094268 0.013633
0.344306 -0.864982 0.171528
0.388804 -0.326851 -0.062317
-0.093876 0.561564 -0.173162
-0.010974 0.501883 0.032713
0.542417 0.811785 -0.105490
-0.746105 0.519331 0.192220
-0.291645 0.436477 0.108179
0.971029 -0.200346 0.062317
0.457283 0.573686 0.249217
-0.766340 -0.261489 -0.242231
-0.467669 0.175531 -0.001388
0.048428 0.589023 0.193252
0.578945 0.787116 -0.101372
-0.861923 -0.460707 0.103379
-0.995870 -0.034581 0.032779
-0.500450 -0.049290 0.035748
-0.356933 -0.861714 0.170228
-0.743858 -0.612995 0.128686
-0.408600 0.292919 -0.038557
0.497598 -0.073679 0.040862
0.489318 -0.121580 0.048772
0.095919 0.762430 -0.249058
-0.024376 0.498893 -0.001834
0.346591 0.903555 -0.120876
-0.283821 0.447869 0.119822
0.952820 -0.262483 0.072571
-0.374324 0.330637 -0.000000
-0.817992 0.478932 0.150878
0.634449 0.758449 0.072571
0.168308 -0.497880 0.110641
0.460865 0.194009 -0.003437
0.198407 0.802433 0.237439
0.352404 0.746943 -0.237687
0.667533 -0.265480 -0.247805
-0.986248 0.157939 0.000959
-0.906499 0.410977 -0.040792
0.246962 0.752957 -0.246038
0.031242 0.545075 0.144928
0.488920 0.841144 -0.110403
0.452052 -0.234355 0.067378
-0.378801 -0.331034 -0.040580
-0.214628 0.783211 -0.241665
0.661718 0.548939 0.224201
0.593566 0.739655 -0.151083
0.872424 0.434188 0.107286
0.912461 0.388585 0.060769
-0.505594 -0.282645 -0.182620
-0.426485 0.261330 -0.015529
0.246685 -0.461516 0.104714
-0.742207 0.648479 -0.079882
-0.316856 0.791161 -0.227652
0.874910 -0.288866 -0.180931
-0.073834 0.820160 0.238800
0.334234 0.377539 0.048772
0.283139 0.796314 0.230734
0.330862 0.377629 -0.033937
-0.998151 -0.003605 0.027655
0.896690 0.139840 -0.193253
0.921470 0.381686 -0.033968
0.011065 -0.500016 -0.011390
-0.423922 0.872431 -0.116564
-0.400979 -0.318568 -0.077300
0.935282 0.345708 -0.028004
-0.324595 0.549749 0.223805
-0.441452 0.235961 -0.011351
0.058510 -0.521162 0.107740
0.807540 -0.272945 -0.227355
0.851825 -0.473852 0.107409
-0.885802 0.133497 -0.201941
0.977359 0.207729 -0.005146
-0.769125 -0.584079 0.123877
-0.087690 0.549154 -0.158598
-0.394995 -0.328907 0.082093
-0.277144 0.420488 -0.041683
-0.983292 0.177436 -0.002261
-0.065568 -0.819350 -0.239235
0.493240 -0.104173 0.045899
0.893405 0.437799 -0.043276
-0.666874 -0.426492 0.246169
-0.867329 -0.278481 -0.190583
0.994612 -0.047321 0.037042
-0.943203 -0.293501 0.075646
0.370954 0.745986 -0.235156
-0.136436 0.952621 -0.129511
-0.942255 0.331327 -0.000000
0.398499 -0.844144 0.168141
0.657969 0.099040 -0.235211
0.936320 -0.346259 -0.011377
0.979072 -0.161722 0.055940
0.003625 0.970698 0.117013
0.863476 -0.399106 0.146318
0.997225 -0.011830 0.031177
0.367096 0.339327 0.009794
0.113711 -0.870726 0.213769
0.042683 0.571126 0.176777
-0.842158 -0.489317 0.108131
-0.000000 0.507959 0.061367
0.121395 -0.812563 0.239235
-0.449662 0.218270 -0.008435
-0.025974 0.994662 0.043775
-0.987993 -0.116303 0.046299
0.005468 -0.528124 0.115465
-0.353825 0.355012 0.024916
0.261789 0.929148 -0.125199
0.398752 -0.321744 -0.077591
0.049695 0.858930 0.223544
0.763375 0.510071 0.184638
0.921618 0.375402 0.047319
0.272956 0.491045 0.164602
0.436297 0.742930 -0.222976
0.474935 -0.175923 0.057742
0.975512 -0.180449 0.059032
0.489210 -0.802292 0.161319
-0.306842 0.412522 0.083700
0.037147 0.557323 0.161246
0.746184 -0.266406 -0.246012
-0.792975 -0.556525 0.119296
0.052770 -0.993049 0.045772
-0.472946 0.225536 -0.107445
0.656717 0.751665 0.016805
0.703301 -0.650776 0.136500
0.494454 -0.288709 -0.176777
-0.628637 -0.262724 -0.240238
-0.263422 0.786873 -0.236355
-0.062175 0.515384 -0.096780
0.027114 0.928994 0.172861
0.387390 0.888691 -0.118373
-0.090496 -0.918821 0.179958
0.643341 0.756219 0.055306
-0.290692 0.528664 0.202317
0.924745 0.171315 -0.161077
0.122891 -0.747297 0.249599
0.200944 0.755786 -0.247550
-0.315822 0.400573 0.071486
-0.794753 0.493653 0.165940
0.306734 0.398132 -0.037353
0.861993 -0.284661 -0.193253
0.842880 -0.279657 -0.207867
-0.273588 0.473135 0.145634
-0.835366 0.467215 0.138892
0.912113 -0.306118 -0.130191
0.380838 0.788509 0.215182
-0.542485 0.164561 -0.169795
0.326070 0.388827 0.060289
-0.597331 0.127343 -0.207868
0.072424 0.500423 -0.054520
0.484067 -0.146840 0.052943
0.422806 0.277507 -0.053264
-0.741554 -0.419904 0.227526
0.553166 0.570190 0.245767
-0.500919 -0.030226 0.032596
-0.323489 -0.872009 0.171966
-0.061448 -0.607380 -0.207460
0.470342 0.851340 -0.112109
0.754155 -0.599966 0.128155
0.991764 -0.085994 0.043433
0.262625 -0.451015 0.102995
0.324504 -0.871113 0.172520
0.608128 0.739868 -0.139046
-0.648110 0.735640 -0.094191
-0.199118 0.943112 -0.128008
-0.615519 -0.724892 0.147325
-0.384902 -0.850391 0.168325
0.361483 0.790151 0.219257
0.024012 -0.997079 -0.028125
-0.645671 -0.427465 0.248796
-0.979291 -0.163392 0.054094
0.726641 -0.265388 -0.248796
-0.847656 -0.398305 0.164726
0.862119 -0.458612 0.104901
-0.897221 -0.396987 0.092805
-0.488586 -0.286903 -0.170192
0.431328 0.869653 -0.115179
-0.479821 -0.159483 0.053989
0.370519 0.337223 -0.027213
0.019157 -0.499518 0.009339
-0.070131 -0.782078 -0.247162
0.632936 -0.432821 0.249158
-0.609239 0.765950 -0.099160
-0.068707 -0.648771 -0.230160
0.223884 -0.473305 0.106638
-0.121060 0.776656 -0.246948
-0.527803 0.175508 -0.158598
-0.355539 -0.353322 0.025273
-0.034465 -0.930424 -0.170884
0.502038 0.740561 -0.203363
-0.928709 0.362005 -0.032719
-0.924863 -0.361028 0.055053
0.438862 -0.416784 0.203932
0.612882 -0.269054 -0.236534
-0.055588 -0.525007 0.114884
-0.321714 0.832878 0.204339
-0.504360 0.835119 0.104542
-0.472126 0.849844 -0.112882
0.766275 -0.422185 0.215980
-0.057429 -0.591778 -0.195625
0.744766 0.084451 -0.250000
0.242471 0.799321 0.234685
0.282920 0.519091 0.193252
0.353824 -0.381063 0.098968
-0.405822 0.880320 -0.117849
-0.032376 0.770737 -0.248903
0.459184 -0.217666 0.064626
0.155993 0.480302 -0.051103
-0.003057 -0.980820 -0.095671
0.997395 0.028530 0.024504
0.685815 -0.265048 -0.249308
0.984453 -0.133414 0.051265
-0.473972 -0.290871 -0.158598
0.624166 0.760548 0.087542
-0.592393 -0.266637 -0.229065
-0.824520 -0.268581 -0.220480
0.112861 -0.514772 0.113374
0.347295 0.362668 0.033604
0.657813 0.745309 -0.048773
0.963534 0.261136 -0.013991
-0.906362 0.397484 0.067600
-0.019162 0.991232 0.060838
0.524042 0.177862 -0.154888
0.133874 0.759992 -0.248903
-0.877338 0.468947 -0.050345
0.087278 -0.565851 0.176777
-0.340295 0.833587 0.199196
0.057502 0.629326 0.220480
-0.379839 0.834747 0.184632
0.410535 -0.306899 0.079327
0.554594 -0.276608 -0.213412
-0.991943 0.117311 0.007670
-0.418660 0.282205 -0.049511
0.385286 -0.401287 0.158598
-0.052302 -0.880348 -0.211449
0.762718 0.628476 -0.074944
-0.932118 0.185410 -0.148989
-0.945172 0.215921 -0.117849
-0.119936 0.879745 -0.207867
0.443033 0.232443 -0.009811
-0.936232 -0.346430 0.011877
0.573396 -0.273671 -0.222357
0.725471 0.666229 -0.081226
0.951110 0.235336 -0.095671
0.099583 -0.598330 0.204967
-0.347035 0.362621 -0.032190
-0.482480 -0.806672 0.160991
-0.953608 0.278458 -0.054001
0.144587 -0.911805 0.179053
0.452153 -0.300843 -0.140255
0.403923 -0.407749 0.177546
-0.969035 0.239474 -0.012503
-0.938852 -0.325466 -0.050297
0.555521 0.770773 0.147936
-0.896121 0.431732 -0.044212
0.336394 -0.393764 0.093609
-0.191893 0.826856 0.229052
0.914935 -0.374777 0.073504
-0.331730 -0.397978 0.093582
-0.703717 -0.424005 0.239235
-0.006961 -0.506808 -0.058137
-0.723657 -0.421984 0.233480
0.421409 -0.311657 -0.107797
-0.129528 0.811356 -0.239235
0.674958 0.713744 -0.089137
0.316160 0.748911 -0.241592
-0.426949 -0.281089 0.074153
0.349039 -0.367273 0.058109
-0.959670 0.275658 -0.018476
0.522666 -0.785174 0.158525
0.416546 -0.836804 0.166947
0.494756 0.073646 0.016500
-0.154943 0.778950 -0.245873
0.279552 0.458472 0.131348
-0.367968 0.563458 0.237750
-0.280466 0.924573 -0.125030
-0.555579 -0.426620 0.245196
-0.156305 0.949930 -0.129088
0.567773 -0.431865 0.247115
-0.240230 -0.464556 0.104689
-0.164180 0.825390 0.232441
-0.301679 0.832080 0.209517
0.099416 -0.925660 0.171730
-0.913386 -0.297729 -0.132910
0.576244 0.567141 0.242682
-0.367123 0.795639 -0.214833
-0.593260 0.776760 -0.100930
-0.701277 0.089967 -0.246162
0.717590 -0.428131 0.234213
-0.234186 0.784622 -0.240130
-0.446841 0.835980 0.152321
0.968926 0.240304 -0.010541
0.774598 0.614203 -0.072571
0.094957 -0.937868 0.159113
-0.292005 0.409523 -0.039886
-0.065460 -0.627289 -0.219710
-0.913985 -0.369735 0.080758
0.072946 -0.919384 0.180229
-0.375344 0.331883 -0.027139
-0.436748 -0.262946 0.071142
0.772262 -0.579013 0.124710
0.981778 0.187781 -0.001843
-0.358754 0.834210 0.193252
0.365306 -0.365305 0.088935
0.260115 0.430891 -0.042820
0.726423 0.085341 -0.249114
0.832912 0.467664 0.141421
-0.518909 0.834475 0.088011
-0.897153 -0.289138 -0.158598
-0.013331 0.769496 -0.249010
-0.230752 0.828851 0.223664
-0.052752 0.996205 -0.024504
-0.279635 -0.439443 0.100494
-0.998037 0.015453 0.024504
-0.819257 -0.405992 0.187191
0.144027 0.951765 -0.129066
0.027918 -0.500884 0.031591
-0.557579 0.152871 -0.181751
-0.598044 -0.427835 0.249317
0.876029 -0.394477 0.132431
-0.413783 -0.312324 -0.095671
-0.515789 -0.789631 0.158137
0.708048 0.683889 -0.084164
0.436219 0.783618 0.201503
0.597888 -0.736876 0.150622
-0.012164 -0.969883 -0.117849
0.119564 -0.831352 0.232673
-0.388325 0.887790 -0.119065
0.671426 -0.431643 0.245196
-0.039685 -0.917985 -0.182978
-0.431779 -0.831413 0.165137
0.451143 0.214962 -0.006912
0.418665 0.785287 0.207072
-0.277647 0.460769 0.133002
-0.816902 -0.525875 0.114202
-0.364583 -0.341987 -0.008252
0.011322 0.962092 -0.130917
-0.598359 0.564813 0.238848
-0.851106 0.509465 -0.057015
-0.017541 0.499911 0.015734
-0.129020 0.709199 -0.248177
-0.457969 0.200368 -0.005484
0.247710 -0.892899 0.176039
0.071312 0.764013 -0.249140
0.919306 -0.348503 0.086757
-0.013806 -0.527668 0.115369
-0.433601 0.802315 -0.190004
-0.536636 0.817459 -0.101479
0.795855 0.491754 0.165974
0.315881 0.400867 0.072571
-0.994128 -0.058223 0.036690
0.630672 -0.711948 0.146536
-0.486057 0.575421 0.249819
0.349803 -0.373741 0.077291
0.114897 0.761211 -0.248980
0.282467 0.924277 -0.124371
-0.222829 -0.473575 0.106199
-0.490230 -0.116815 0.046923
0.859520 0.497308 -0.053152
0.092408 0.958515 -0.130238
-0.739748 0.086480 -0.249771
-0.861813 0.492928 -0.054293
0.079936 -0.966553 0.117849
-0.533195 -0.779487 0.156441
0.399887 0.744500 -0.231145
-0.874109 -0.389491 0.138892
0.015485 0.521399 0.102288
0.595267 0.765321 0.117849
-0.271091 0.485827 0.158598
0.409697 0.291538 -0.038953
0.243015 0.933403 -0.125923
-0.126344 0.683954 -0.243869
-0.070765 0.524172 -0.117849
0.501547 -0.011248 0.030543
-0.694387 0.539654 0.213037
0.060743 0.651345 0.230970
-0.640186 0.106903 -0.228793
0.065032 -0.528543 0.123667
-0.343094 0.367237 0.037412
0.123108 -0.770068 0.247871
-0.487606 -0.420535 0.226313
0.357586 0.352036 -0.029676
-0.762768 0.511567 0.184272
0.473096 0.224777 -0.107046
0.793324 0.089097 -0.245196
0.544430 0.739745 -0.183288
0.739266 0.652246 -0.078899
-0.147846 -0.505092 0.111491
0.519541 0.740148 -0.195868
-0.345008 0.793582 -0.221382
0.079681 -0.521202 0.114402
-0.498023 -0.068933 0.038998
-0.840400 0.526002 -0.059738
0.041708 -0.526212 0.115189
-0.610006 -0.264592 -0.234920
-0.010702 0.985381 0.081871
-0.298069 0.789601 -0.231253
0.446632 0.251891 -0.079391
0.650939 -0.432419 0.247747
-0.101653 0.775343 -0.247564
-0.011203 0.816291 0.240670
-0.724927 0.666012 -0.082762
-0.569723 -0.756012 0.152520
0.419229 0.570949 0.246376
-0.060062 0.993027 -0.043504
0.219481 0.800945 0.236122
0.459464 0.238684 -0.092861
0.034728 -0.503098 0.048772
0.708120 -0.265021 -0.249660
0.506374 -0.793516 0.159887
-0.043229 0.997876 -0.000000
-0.072758 -0.740513 -0.249710
-0.182613 -0.492090 0.109304
-0.741566 -0.259989 -0.246979
-0.982888 -0.144481 0.050963
-0.175512 0.780388 -0.244735
0.285317 0.446462 0.119091
-0.995598 0.074938 0.014672
0.023588 -0.527168 0.115327
0.564013 0.797201 -0.103056
-0.470954 -0.418334 0.219580
0.936646 0.190617 -0.141352
0.859494 0.113221 -0.220480
-0.575684 0.788651 -0.102877
-0.616351 0.561046 0.234979
-0.879752 0.428037 0.098831
-0.807848 0.094776 -0.241384
0.195518 -0.487279 0.108918
0.071684 -0.977448 0.095671
0.287783 -0.882483 0.174360
0.689019 0.701948 -0.087171
-0.673556 0.546917 0.220480
0.538579 -0.279420 -0.204873
0.598849 0.773675 -0.099128
0.483998 0.741103 -0.209867
0.676366 -0.676365 0.140702
0.438233 -0.260753 0.071728
-0.416661 -0.297132 0.076816
0.871589 -0.441672 0.102110
-0.979578 0.198744 -0.005780
0.174482 0.473377 -0.049938
-0.373218 -0.390838 0.136804
-0.414287 -0.406387 0.183443
-0.545590 0.832231 0.046611
-0.088628 0.965265 -0.119286
-0.953374 0.260272 -0.072571
0.579842 0.767508 0.130264
0.576870 -0.750419 0.152839
-0.921200 0.381573 -0.035946
-0.362768 -0.367392 0.088491
-0.620501 -0.427904 0.249794
0.541565 0.164282 -0.168734
-0.050613 0.960299 -0.130688
0.064935 0.722306 0.248796
-0.949697 -0.274950 0.072571
-0.072499 0.959308 -0.130547
0.953500 0.289241 -0.040623
0.811519 0.093659 -0.240514
-0.128883 -0.914052 0.179128
-0.918927 -0.351201 0.085212
-0.779703 0.502615 0.175110
-0.370829 0.895260 -0.120281
-0.859184 0.115309 -0.220480
0.164909 0.804791 0.239446
-0.409359 0.799760 -0.200311
0.146810 0.806006 0.239926
-0.762315 0.628076 -0.076530
-0.390095 0.567855 0.242212
0.131041 -0.509830 0.112577
0.985919 0.159532 0.002832
0.660539 0.748209 -0.016663
0.475420 -0.293745 -0.161602
-0.536624 0.833188 0.062638
-0.031182 0.961179 -0.130812
-0.442237 0.256629 -0.075657
-0.333624 0.375189 -0.034254
-0.552468 0.831046 0.029606
0.525423 0.572667 0.248261
0.009998 0.506000 -0.055509
0.006300 -0.988925 -0.072571
0.823779 -0.275670 -0.219465
-0.352215 -0.368398 0.069968
-0.309496 0.396147 -0.037693
-0.525421 0.815165 -0.117849
0.844123 0.105675 -0.228204
0.133011 0.487363 -0.052295
0.276516 0.420768 -0.041129
-0.551459 -0.767750 0.154481
-0.391353 -0.398991 0.161219
0.649543 -0.266241 -0.245328
0.930920 -0.358811 0.025933
-0.370646 -0.336485 -0.024504
0.947515 0.220778 -0.110541
-0.000000 -0.922489 0.180663
0.534899 0.773371 0.161139
0.105698 -0.619273 0.218494
-0.971873 -0.199320 0.060043
-0.559461 0.825473 -0.033258
-0.281464 0.831212 0.214094
-0.002671 0.978008 0.101657
-0.997250 0.034642 0.021332
-0.298231 0.424235 0.095671
0.613093 0.117998 -0.215909
-0.047722 -0.895460 -0.201257
-0.303901 0.538847 0.212698
0.848841 0.513792 -0.055889
0.631829 -0.267469 -0.241470
0.041022 0.891255 0.204620
-0.579176 0.567888 0.242011
0.025451 0.535025 0.129120
-0.994654 0.097965 0.010866
-0.869350 0.438364 0.109389
0.032322 0.916238 0.184889
-0.261212 0.430316 -0.043290
-0.053391 -0.578550 -0.183982
-0.624301 0.755384 -0.097429
0.516228 0.826157 -0.107895
-0.068190 -0.800155 -0.244011
-0.494899 0.072392 0.015636
-0.066083 0.501444 -0.054838
-0.534306 -0.425191 0.240698
0.051535 0.503663 -0.055078
0.288649 0.750489 -0.243679
-0.813177 0.564888 -0.066138
0.032080 0.961176 -0.130743
-0.914826 0.386285 0.056154
0.359315 -0.347292 -0.001303
0.356175 0.559158 0.234257
0.505800 0.573641 0.249232
-0.556509 0.801622 -0.105001
-0.719585 0.087410 -0.248796
0.393144 0.567225 0.242541
-0.165080 -0.498941 0.110456
-0.073276 0.983616 -0.078214
-0.014153 -0.511655 -0.077001
-0.046829 -0.560625 -0.165414
-0.278634 0.513725 0.187077
-0.103859 0.934556 -0.161290
-0.110243 -0.515357 0.113229
0.369121 0.896275 -0.119647
0.651659 0.753705 0.034678
0.946550 -0.282626 0.075895
-0.096572 0.821493 0.237376
0.362150 -0.858928 0.170546
0.937446 0.342732 0.013979
0.508247 0.191479 -0.141005
-0.108998 0.600882 -0.207868
0.275229 0.504352 0.178192
0.560751 0.739568 -0.174120
-0.404195 0.295081 -0.021085
0.452127 0.860609 -0.113661
0.163207 0.949190 -0.128619
-0.642272 -0.704109 0.143860
-0.055444 0.510226 -0.080096
0.896725 0.408139 0.080718
0.307270 0.412563 0.084503
-0.032606 0.996818 0.027041
-0.935910 0.346764 0.015770
-0.220878 -0.899132 0.176562
-0.359472 -0.347642 0.008464
-0.662683 0.099011 -0.236880
0.611484 -0.433017 0.250000
0.438192 0.572783 0.248272
0.737890 -0.425964 0.227538
0.008790 0.514600 0.084497
-0.560442 -0.271423 -0.215255
0.764017 -0.267747 -0.242251
-0.938973 -0.339043 -0.010011
0.682444 0.542590 0.217743
0.783776 -0.419495 0.207787
-0.041766 -0.549314 -0.151342
0.044588 -0.996606 0.024504
0.458323 -0.420545 0.214855
0.491285 0.095817 0.012831
-0.326211 0.388215 0.058854
-0.200874 -0.484954 0.108104
-0.789040 0.090432 -0.245796
0.957055 0.286166 -0.018136
0.518073 0.775352 0.170454
-0.514496 -0.423448 0.235285
-0.973827 0.220960 -0.009447
0.954190 0.276203 -0.053936
-0.071111 -0.671674 -0.238599
-0.831177 -0.505212 0.110770
0.029993 0.504969 -0.055317
-0.992677 -0.077925 0.039949
0.461553 0.741931 -0.216365
-0.452921 -0.297598 -0.138893
-0.551390 0.821183 -0.072571
0.611821 0.762680 0.101464
0.661135 -0.688226 0.142647
0.269423 -0.888168 0.175280
-0.493277 0.838214 -0.110982
-0.115026 0.900371 -0.193253
-0.498241 0.051043 0.019162
-0.195070 0.781799 -0.243200
0.990183 0.129107 0.007867
0.103584 -0.912735 0.183678
-0.504939 0.574854 0.249216
-0.884348 -0.284066 -0.173804
-0.685992 -0.425306 0.242880
0.379379 -0.331877 -0.047290
-0.824341 0.550807 -0.063822
0.799980 0.582213 -0.067254
0.228742 0.754062 -0.246795
0.365309 -0.341861 -0.017490
0.993188 -0.066657 0.040238
0.152402 0.758802 -0.248820
0.996461 0.051314 0.020736
0.850343 -0.403522 0.159579
-0.324480 0.910295 -0.122717
-0.130858 0.737882 -0.250000
0.350359 -0.361163 0.039964
-0.071914 -0.758868 -0.249391
-0.774761 0.613087 -0.074065
-0.431256 -0.305248 -0.116456
0.694812 0.089216 -0.245196
-0.363212 0.345772 -0.029422
0.891349 -0.295183 -0.162384
0.074337 0.810819 0.241264
-0.676709 -0.259643 -0.248796
0.416446 0.278260 -0.017415
0.178993 0.757148 -0.248146
0.455725 -0.819413 0.164114
0.059484 -0.988617 0.063372
0.053506 0.841467 0.231533
-0.940310 0.203105 -0.130930
0.689541 -0.664019 0.138675
0.626097 0.740738 -0.117849
-0.932333 -0.313722 -0.085223
0.013106 -0.992850 -0.055572
0.573812 0.140232 -0.193253
-0.805478 -0.541901 0.116865
-0.047771 0.504080 -0.055255
-0.051420 0.771978 -0.248796
-0.381018 -0.345826 0.084906
0.122777 -0.788328 0.245196
0.931919 0.355529 0.027039
-0.342283 0.556788 0.230970
0.081422 -0.554102 0.162989
0.354225 -0.354225 0.019329
-0.833640 -0.402424 0.176777
-0.031344 0.499422 -0.019588
-0.416483 0.278285 -0.018322
-0.130411 -0.509852 0.112297
-0.484800 0.808738 -0.157521
-0.411029 -0.839814 0.166548
-0.711634 0.679499 -0.084977
-0.695683 0.695683 -0.087636
0.913100 0.398420 -0.036744
-0.513491 0.827098 -0.109167
0.908517 -0.374168 0.090989
0.383452 0.322410 -0.024750
0.500961 -0.426654 0.232464
-0.722670 -0.259359 -0.249080
0.370942 -0.394587 0.138892
-0.926459 -0.333298 0.082243
-0.715494 -0.640245 0.133222
0.501292 0.007220 0.027490
0.063075 0.674330 0.239235
-0.499480 0.032772 0.022181
0.051519 -0.920296 0.180356
-0.173028 -0.908567 0.178173
-0.158045 0.479629 -0.051332
-0.843865 0.107750 -0.228181
-0.887921 -0.414257 0.095671
0.790753 -0.557616 0.121193
0.306144 -0.876798 0.173440
-0.070512 -0.919631 0.180114
-0.193955 -0.904818 0.177531
0.061161 0.790458 0.245984
-0.435987 0.573770 0.248195
-0.100242 0.576374 -0.187948
-0.388089 -0.325555 -0.056723
-0.140153 0.824005 0.234195
-0.923224 -0.304589 -0.112434
0.963939 -0.224538 0.066310
-0.873045 0.124146 -0.211474
-0.769061 0.087470 -0.248796
0.265383 0.751840 -0.245273
-0.091873 -0.519143 0.113875
-0.624279 0.113716 -0.221815
0.914515 0.158318 -0.174362
-0.964306 0.257747 -0.015520
-0.848677 -0.273587 -0.205332
0.883881 0.422799 0.095671
-0.940997 0.329986 -0.027438
0.109890 -0.636866 0.227445
-0.248138 -0.893240 0.175558
-0.802013 0.578969 -0.068454
0.499962 0.025270 0.024504
0.939414 -0.300670 0.078870
0.467773 0.175083 -0.000300
-0.887474 0.449028 -0.047063
0.307659 0.794435 0.227660
0.220693 0.938463 -0.126783
0.433480 -0.307071 -0.121549
0.317672 0.545713 0.220480
-0.036172 -0.538606 -0.135973
0.114968 0.492090 -0.053096
-0.661922 0.724039 -0.092288
-0.032234 -0.921182 0.180412
0.823797 -0.410831 0.181589
-0.388994 0.315859 -0.024504
-0.127222 0.835023 -0.230970
0.422774 -0.413119 0.193252
0.484078 -0.424522 0.226343
-0.137237 0.486337 -0.052418
-0.431284 -0.410814 0.196784
0.944298 0.325021 -0.004098
0.339320 0.554240 0.229214
-0.989231 0.136658 0.004474
0.997863 0.009492 0.027652
0.344017 0.365295 -0.031884
0.835148 0.534930 -0.059398
0.379937 0.324810 -0.005014
-0.130584 0.792844 -0.243789
0.237708 0.444721 -0.045131
0.461922 0.781166 0.193252
-0.262662 0.830405 0.218351
0.636392 0.555598 0.230970
-0.488583 0.210675 -0.122639
0.200799 0.942973 -0.127551
0.126647 -0.914071 0.179408
0.218881 0.453877 -0.046665
0.645903 -0.700087 0.144591
-0.787141 -0.263414 -0.236266
0.297065 0.427488 0.099731
