ply
format ascii 1.0
element vertex 50
property float x
property float y
property float z
property float nx
property float ny
property float nz
element face 0
property list uchar int vertex_index
end_header
-0.152945 -0.813124 0.237378 -0.486432 0.364394 -0.794104
-0.255387 -0.447786 0.0871892 0.629477 0.763736 -0.143063
-0.270748 0.42036 0.00711631 -0.205728 -0.846914 -0.490319
-0.464248 -0.883138 0.0295921 -0.767459 0.624009 0.147037
0.534273 0.645807 -0.233601 0.0403926 -0.520352 -0.852996
-0.600283 -0.103088 0.206784 -0.374608 0.679268 0.631082
0.635311 -0.443989 -0.248618 0.657825 0.239471 0.714086
0.874768 0.478155 0.0343471 0.704208 0.247674 0.665393
-0.0203024 -0.812189 -0.241586 0.882461 -0.444981 -0.152493
0.711551 0.284684 0.249175 -0.59899 0.509377 -0.617856
-0.925116 0.342081 0.0775029 0.95468 0.252709 -0.157241
-0.812014 0.170478 -0.236541 -0.581779 0.800971 0.141348
-0.662652 0.272458 0.247472 -0.37837 0.709443 0.594581
0.751976 -0.63498 0.0849935 0.711854 0.00765434 0.702286
0.989059 0.0983004 0.0536481 0.136356 0.764422 -0.630132
-0.708243 -0.675748 -0.0982322 -0.807549 -0.576821 0.123055
0.51961 0.845233 0.0563046 0.258161 -0.954348 0.150241
0.365487 -0.599877 -0.2455 -0.0302419 -0.880796 -0.47253
-0.784092 0.61835 0.0133768 -0.686647 0.517799 -0.510295
0.449054 -0.220041 0.0126803 -0.564819 -0.378761 -0.733157
-0.438277 -0.652932 0.247021 0.585784 -0.550812 -0.594527
-0.445856 -0.246051 -0.0676526 -0.240384 0.302792 -0.922243
0.223679 0.606567 -0.227619 0.238651 0.844259 -0.479868
-0.618374 0.427775 -0.249881 -0.525917 -0.731025 0.434758
0.33247 0.522781 0.213242 -0.701771 0.514632 0.492616
0.0927198 -0.518024 -0.111795 -0.295016 0.475519 0.828762
-0.999023 0.0124489 0.00743087 0.254866 0.790573 0.55681
0.227023 0.950237 0.10174 -0.0406538 0.65902 -0.751026
0.820299 0.225896 -0.228151 0.59176 -0.623112 -0.511422
-0.131969 0.964774 0.108568 -0.2674 -0.733439 0.624951
-0.465599 0.718528 -0.225754 -0.967966 -0.249798 0.0253701
0.460194 0.286623 -0.139697 0.695903 0.711437 0.0978614
0.0355582 0.728401 0.249025 0.0911099 -0.958824 0.268991
-0.0046456 -0.999148 0.0126894 -0.499963 -0.646691 0.576044
0.637003 -0.393158 0.249971 0.323881 0.351909 -0.878215
-0.100987 0.859039 -0.221543 -0.588765 0.550685 0.591694
0.831422 -0.0862866 -0.234397 0.536665 0.443408 0.717899
0.105606 -0.597217 0.204807 -0.592381 0.109963 -0.798118
-0.510068 0.644839 0.239161 -0.730858 0.35161 -0.584993
0.0500732 0.498423 0.0199338 0.912071 -0.358525 0.198962
0.390286 -0.919973 -0.00572716 -0.987673 0.155837 0.0147414
-0.859623 -0.474853 0.091031 -0.976819 -0.212848 0.0228051
0.954717 -0.280953 0.0462485 0.122187 -0.992457 0.00997444
-0.43916 -0.60326 -0.249855 -0.909181 0.384369 -0.160154
-0.451125 0.887029 0.0437271 0.832136 0.232509 0.503477
0.591402 6.1035e-11 0.193252 -0.80019 0.599674 -0.0093699
0.783475 -0.0814389 0.24681 0.637173 -0.542929 0.547027
0.472568 -0.722052 0.222626 -0.380962 0.452903 -0.806069
-0.502545 0.159082 -0.113361 0.342507 -0.734779 0.585481
-0.892161 -0.275734 -0.168778 -0.563753 -0.598744 -0.568936
