ply
format ascii 1.0
element vertex 499
property float x
property float y
property float z
property float nx
property float ny
property float nz
element face 0
property list uchar int vertex_index
end_header
0.204188 0.981237 -0.0938497 0.0569926 0.933699 -0.353494
-0.204188 -0.661902 -0.244413 0.228074 0.240307 -0.943522
-0.816751 0.584098 -0.0869659 -0.834126 0.476617 -0.277615
-0.816751 0.42586 -0.201729 -0.754215 0.216323 -0.619971
0.204188 0.470789 -0.0362993 -0.551258 -0.812663 -0.188928
0.816751 -4.09978e-05 -0.250017 0.708399 0.00300241 -0.705806
-0.561516 0.343477 -0.231487 0.465837 -0.240556 -0.851545
-0.561516 0.20142 0.191076 0.675904 -0.247149 0.694313
0.561516 -0.506916 0.254825 -0.0594846 0.003106 0.998224
-0.816751 -0.342966 -0.225096 -0.72853 -0.143075 -0.669905
-0.204188 0.884754 -0.210676 -0.000319757 0.559388 -0.828906
-0.816751 -0.47561 0.180478 -0.772353 -0.293023 0.563568
-0.816751 0.0889649 -0.248493 -0.697792 0.0142424 -0.716158
0.561516 -0.0430554 -0.15548 -0.787662 0.0782525 -0.611119
0.561516 -0.246993 0.205198 -0.604714 0.265072 0.751038
-0.561516 -0.0367703 -0.155064 0.835537 0.0700219 -0.544955
-0.561516 0.810995 0.126325 -0.430171 0.737564 0.520531
0.816751 -0.59894 0.0578923 0.842021 -0.505755 0.187649
0.561516 0.463758 0.252245 -0.17701 -0.0801761 0.980938
0.816751 0.0283684 0.249601 0.734432 0.00768177 0.678639
-0.204188 -0.988944 -0.0728202 -0.0506799 -0.965578 -0.255129
-0.561516 0.578196 0.251307 -0.0693155 0.13891 0.987876
-0.816751 -0.483781 -0.175839 -0.776275 -0.313811 -0.546735
0.561516 0.68509 0.225171 0.265648 0.448806 0.853232
-0.204188 -0.959058 0.136489 -0.0391669 -0.855728 0.515941
0.204188 0.820948 -0.241371 -0.0487211 0.290343 -0.955682
0.816751 0.247717 -0.23934 0.748165 0.0563726 -0.661113
0.204188 0.537278 0.169382 -0.377337 -0.621782 0.686297
-0.561516 0.699068 -0.218446 -0.293531 0.460674 -0.837627
0.204188 0.477984 -0.0682932 -0.523355 -0.784597 -0.332427
0.204188 0.90142 0.198642 0.0206877 0.625806 0.779704
0.561516 0.733582 0.198978 0.335876 0.562431 0.755552
0.561516 0.300096 -0.219888 -0.561327 -0.254718 -0.78742
0.561516 -0.844831 0.0558676 0.480141 -0.846316 0.230682
0.204188 -0.735645 0.254698 -0.13989 -0.0111561 0.990104
-0.561516 0.548435 -0.254215 0.0202753 0.0710962 -0.997263
-0.561516 0.773361 -0.168424 -0.369716 0.633018 -0.680146
-0.561516 -0.317062 0.225097 0.531994 0.279612 0.799249
-0.561516 -0.706739 -0.214795 -0.335532 -0.506667 -0.79417
0.816751 0.562508 -0.117092 0.822834 0.434419 -0.366367
-0.816751 -0.055496 -0.248939 -0.73605 -0.00890614 -0.676869
-0.561516 0.0917499 0.162869 0.812839 -0.140736 0.565231
0.204188 -0.769122 0.25293 -0.0987779 -0.153691 0.983169
0.204188 0.998728 -0.0232382 0.0693751 0.99403 -0.0842112
-0.816751 0.162421 0.246008 -0.731381 0.0348416 0.681078
-0.561516 -0.402536 -0.244244 0.316783 0.194205 -0.928404
0.561516 -0.522419 -0.255132 -0.0628927 -0.0159627 -0.997893
-0.561516 -0.590396 -0.25033 -0.141278 -0.190405 -0.971487
-0.816751 0.0546601 0.249343 -0.744151 0.00627759 0.667982
0.816751 -0.478334 -0.178932 0.778357 -0.314342 -0.543461
0.816751 0.328566 -0.227458 0.728796 0.113523 -0.675254
0.204188 0.926626 0.176648 0.0194463 0.734975 0.677815
0.561516 0.198308 -0.190157 -0.674319 -0.241687 -0.697769
-0.204188 -0.801895 0.24709 0.0484352 -0.288991 0.956106
-0.816751 0.244437 0.239596 -0.732588 0.0681091 0.677256
0.816751 0.538695 0.140513 0.815848 0.392118 0.425012
-0.204188 -0.979709 0.0980212 -0.0501141 -0.923291 0.380819
-0.561516 0.832504 0.089256 -0.457119 0.808529 0.370571
-0.561516 0.0552632 0.156294 0.833882 -0.0917161 0.544269
0.204188 -0.957652 -0.138827 0.0412889 -0.814008 -0.579384
0.561516 0.078482 -0.160479 -0.776701 -0.134379 -0.615368
-0.561516 -0.68425 0.225521 -0.269459 -0.435086 0.859123
0.204188 -0.545364 0.177211 -0.38155 0.577087 0.722074
-0.561516 -0.118264 0.168209 0.77246 0.184529 0.607664
0.204188 -0.630983 0.233734 -0.260069 0.347319 0.900962
0.204188 -0.878304 0.214905 -0.0151617 -0.532153 0.846512
0.816751 -0.361787 0.220268 0.743981 -0.144967 0.652286
0.561516 0.0651817 0.158259 -0.818651 -0.114869 0.562686
-0.561516 0.846833 -0.047586 -0.483164 0.849873 -0.210398
0.561516 0.804835 -0.134161 0.43389 0.759666 -0.484403
0.816751 -0.277078 -0.235806 0.739089 -0.073024 -0.669638
0.561516 0.663263 -0.232419 0.181179 0.323527 -0.928711
0.204188 -0.512223 -0.138817 -0.463973 0.693895 -0.550672
0.816751 0.609514 -0.011751 0.860598 0.508537 -0.0275971
-0.816751 0.393605 -0.211586 -0.73911 0.180949 -0.648825
0.816751 -0.577989 -0.0976742 0.829659 -0.487459 -0.27212
-0.204188 -0.898192 -0.2015 -0.00243699 -0.688991 -0.724766
0.204188 -0.880266 -0.213523 -0.0142408 -0.539612 -0.841793
0.204188 -0.761657 -0.253648 -0.103865 -0.129201 -0.986164
-0.561516 0.697307 0.219057 -0.259578 0.417559 0.870784
0.204188 0.467933 -0.00356714 -0.555481 -0.830586 -0.0396021
-0.561516 -0.848223 0.0405022 -0.48279 -0.853176 0.197496
-0.204188 0.639181 -0.237031 0.211028 -0.315032 -0.925323
0.204188 -0.671683 -0.246885 -0.185048 0.16299 -0.969119
0.204188 0.738399 -0.254768 -0.121144 -0.016817 -0.992492
-0.561516 0.824102 -0.105633 -0.459671 0.813323 -0.356663
-0.561516 -0.506916 0.254825 0.0650162 -0.0174281 0.997732
-0.816751 -0.0907362 0.248649 -0.720127 -0.0141745 0.693698
-0.816751 -0.584277 -0.0871925 -0.834592 -0.477033 -0.275491
-0.561516 0.0337732 -0.155244 0.829533 -0.0693138 -0.55414
0.816751 -0.381345 -0.215249 0.758977 -0.171403 -0.628153
-0.204188 -0.960489 -0.13387 -0.0370642 -0.889555 -0.455322
0.204188 0.851714 -0.229411 -0.0237931 0.44179 -0.896803
0.204188 -0.510521 0.135674 -0.469167 0.686807 0.555138
-0.816751 -0.433368 -0.199289 -0.758502 -0.249003 -0.602222
0.204188 -0.810386 0.244492 -0.0678413 -0.279821 0.957652
0.561516 0.699021 -0.218195 0.250593 0.425107 -0.869763
-0.816751 -0.407637 0.207621 -0.747294 -0.187772 0.637411
-0.561516 -0.843938 -0.0589053 -0.484082 -0.852029 -0.199275
-0.816751 0.498571 -0.167108 -0.77665 0.333759 -0.534247
-0.561516 -0.208922 0.193673 0.668344 0.246066 0.701974
0.816751 -0.045089 -0.249462 0.706929 0.00316977 -0.707277
-0.204188 -0.658627 0.243458 0.209703 0.21736 0.953299
-0.561516 -0.623148 -0.244244 -0.172557 -0.263895 -0.948991
0.561516 -0.559913 0.253638 0.0252006 -0.0941029 0.995243
0.561516 -0.117172 0.169652 -0.769002 0.189808 0.610417
0.204188 -0.703216 0.252579 -0.177733 0.101156 0.978866
-0.561516 0.544492 0.25415 0.00423955 0.0702096 0.997523
-0.561516 0.804778 -0.134731 -0.425069 0.735964 -0.526946
0.561516 0.247899 -0.204722 -0.610886 -0.25285 -0.750257
0.816751 -0.547621 0.132035 0.80961 -0.418557 0.411512
0.816751 -0.510926 0.16009 0.794719 -0.350716 0.495398
-0.561516 -0.828979 0.0976742 -0.466955 -0.818242 0.33531
0.204188 0.992947 -0.0574643 0.0529405 0.982704 -0.177453
0.204188 0.587274 -0.21051 -0.288712 -0.49806 -0.817669
-0.816751 -0.172153 0.24542 -0.728401 -0.033981 0.684308
-0.561516 -0.546379 -0.254341 -0.0446273 -0.0944532 -0.994529
0.204188 0.472159 0.0443288 -0.561624 -0.81806 0.123921
0.204188 -0.999413 -0.0125737 0.0532575 -0.997762 -0.0404344
0.204188 -0.569329 -0.198017 -0.326726 0.499481 -0.802352
0.816751 -0.47561 0.180478 0.781706 -0.297319 0.548212
0.561516 -0.402536 0.244244 -0.344172 0.196566 0.9181
0.816751 0.449623 -0.192274 0.76703 0.2508 -0.590563
-0.204188 0.578879 0.205326 0.28359 -0.423765 0.860233
-0.816751 0.602633 0.0453969 -0.840868 0.524744 0.132606
0.561516 0.496704 0.254399 -0.0995712 -0.0226736 0.994772
-0.561516 0.167428 -0.181257 0.729573 -0.229066 -0.644401
-0.204188 -0.509835 -0.134629 0.491202 0.718618 -0.492249
-0.204188 -0.477638 0.0664131 0.546457 0.791269 0.274367
-0.816751 -0.560033 -0.120317 -0.823621 -0.438517 -0.359656
-0.816751 -0.610564 2.0232e-08 -0.847914 -0.52791 -0.0485063
0.561516 -0.331725 -0.228666 -0.488292 0.264166 -0.831738
0.561516 -0.476041 -0.2534 -0.159082 0.0642335 -0.985174
-0.561516 0.729015 -0.202071 -0.336763 0.539587 -0.771645
-0.204188 0.526155 -0.157201 0.386614 -0.631631 -0.671991
-0.816751 -0.5886 0.0799865 -0.827418 -0.504126 0.247462
0.204188 -0.93216 -0.170598 0.00594688 -0.727106 -0.686499
0.561516 0.507545 -0.254368 -0.13432 -0.0499264 -0.98968
0.561516 0.60923 0.246815 0.130699 0.24938 0.959545
0.561516 -0.799648 0.1418 0.427381 -0.734626 0.526943
-0.204188 -0.926708 0.176648 -0.0242488 -0.746624 0.664804
-0.204188 0.475121 0.0572605 0.537346 -0.815434 0.215237
-0.561516 -0.317062 -0.225096 0.500199 0.259802 -0.826017
-0.561516 -0.513118 -0.25503 0.0375716 -0.00328384 -0.999289
-0.561516 -0.797587 -0.144036 -0.432495 -0.749953 -0.500519
0.561516 0.76889 0.172674 0.367495 0.63889 0.675845
0.561516 0.594916 -0.249111 0.0295407 0.122327 -0.99205
0.816751 -0.0833429 0.248379 0.717527 -0.0107712 0.696448
-0.561516 -0.852329 2.0232e-08 -0.495617 -0.868144 0.026252
0.816751 -0.0804838 -0.249026 0.749766 -0.0013265 -0.661701
-0.561516 0.851362 -0.0140389 -0.480571 0.876764 -0.018355
0.561516 -0.208158 0.193561 -0.655979 0.241564 0.715079
0.204188 0.673239 0.247278 -0.176677 -0.152348 0.972407
0.204188 0.925561 -0.17726 0.0133543 0.733267 -0.67981
0.561516 -0.685366 0.225097 0.24954 -0.403199 0.880432
0.561516 0.85156 0.0109404 0.473813 0.87418 0.10635
-0.204188 0.998552 0.0263729 -0.0500187 0.992898 0.107947
-0.561516 -0.282764 -0.215654 0.581393 0.282308 -0.763076
-0.816751 0.0940717 0.248523 -0.721422 0.0138083 0.692358
0.816751 0.263869 0.237391 0.75043 0.0784893 0.656273
-0.204188 0.731232 -0.254949 0.11909 -0.000308426 -0.992883
0.816751 0.585389 -0.0845164 0.844752 0.469352 -0.257104
0.204188 0.707798 0.253478 -0.1235 -0.0197158 0.992149
-0.816751 0.393857 0.210646 -0.742815 0.184881 0.643464
-0.561516 0.290446 0.217084 0.57051 -0.269856 0.775691
-0.561516 -0.828979 -0.0976742 -0.475088 -0.829021 -0.294984
-0.204188 -0.70788 0.253478 0.16425 0.0540242 0.984938
0.561516 -0.840409 -0.0710808 0.480165 -0.84536 -0.23411
-0.561516 -0.737099 -0.197299 -0.375811 -0.585587 -0.71823
-0.816751 0.51868 0.153917 -0.79269 0.344914 0.502669
-0.816751 -0.208025 0.242802 -0.729725 -0.0420265 0.682448
0.204188 -0.90876 -0.193131 -0.00382251 -0.633044 -0.774106
0.561516 -0.00925837 -0.153241 -0.80608 0.0207132 -0.591445
-0.561516 -0.0837426 0.161919 0.810535 0.140751 0.568526
0.561516 0.843962 -0.0584156 0.471935 0.863194 -0.179369
0.561516 -0.626327 0.2434 0.167245 -0.264955 0.949646
-0.561516 0.746925 0.190078 -0.361822 0.58728 0.724008
-0.204188 -0.541809 0.174255 0.388491 0.604086 0.695812
-0.204188 -0.469551 0.0294173 0.573096 0.806292 0.146474
0.816751 -0.237558 0.239701 0.740865 -0.0627141 0.66872
-0.816751 -0.226337 -0.240806 -0.724381 -0.0663117 -0.686203
0.561516 0.472265 -0.252738 -0.208474 -0.0930004 -0.973596
0.204188 -0.983588 0.087864 0.0453673 -0.92581 0.375256
0.204188 -0.495329 -0.110217 -0.516847 0.747384 -0.417476
0.561516 -0.826019 -0.102706 0.456485 -0.805798 -0.377242
-0.816751 -0.439555 0.197298 -0.761907 -0.242211 0.600693
-0.561516 0.486618 0.253803 0.128622 -0.0553479 0.990148
-0.204188 0.484157 -0.0857027 0.505725 -0.772319 -0.384403
-0.816751 -0.128328 0.247266 -0.70728 -0.0208058 0.706627
-0.816751 -0.191453 -0.244244 -0.734183 -0.0472205 -0.677308
-0.816751 -0.602342 -0.0497942 -0.839885 -0.510848 -0.183378
-0.561516 -0.772728 -0.169343 -0.424198 -0.703426 -0.570305
0.816751 -0.191453 0.244244 0.742149 -0.0441473 0.668779
-0.816751 -0.261222 -0.237369 -0.733081 -0.081904 -0.675192
0.561516 0.823423 0.106807 0.438933 0.792307 0.423777
0.816751 -0.244485 -0.239628 0.736932 -0.0495712 -0.674147
-0.816751 -0.508291 0.161919 -0.794966 -0.347273 0.497424
0.816751 0.214911 -0.241905 0.73403 0.0388042 -0.678007
-0.816751 -0.125781 -0.247269 -0.729619 -0.0264631 -0.683341
0.204188 0.999331 0.0125733 0.063202 0.992532 0.104333
0.204188 -0.474742 0.055481 -0.556024 0.779601 0.288202
0.816751 -0.342966 -0.225096 0.743668 -0.123052 -0.657127
-0.816751 0.472584 0.18079 -0.750437 0.291086 0.593391
0.204188 0.703134 -0.252579 -0.147103 -0.103816 -0.983658
-0.561516 -0.623148 0.244244 -0.170292 -0.294441 0.940375
-0.816751 0.263869 -0.237391 -0.72917 0.0769331 -0.679994
0.816751 -0.0377213 0.249297 0.724743 -0.00345764 0.689011
-0.561516 -0.361052 -0.235806 0.398778 0.234402 -0.886584
0.204188 0.495817 0.111336 -0.500392 -0.762202 0.410679
0.561516 -0.0837426 0.161919 -0.797638 0.148214 0.584642
-0.204188 -0.489257 0.0982847 0.526274 0.757856 0.385604
-0.816751 0.0518203 -0.249354 -0.733436 0.0090099 -0.679699
-0.204188 0.961788 -0.131813 -0.0407556 0.858419 -0.511327
-0.561516 -0.170375 0.181889 0.721176 0.224819 0.655257
0.561516 -0.771798 0.170168 0.383972 -0.656023 0.649769
-0.816751 -0.0185642 -0.249683 -0.727135 -0.00269785 -0.68649
-0.204188 -0.999103 -0.0180134 -0.0523841 -0.9942 -0.0939228
0.204188 0.509753 -0.134629 -0.421061 -0.694369 -0.583575
0.561516 -0.590396 -0.25033 0.0718261 -0.170625 -0.982715
-0.561516 -0.280254 0.214776 0.576063 0.274401 0.769971
0.204188 0.561046 0.191684 -0.326647 -0.524498 0.78626
0.561516 0.75623 -0.18258 0.3436 0.597796 -0.724278
0.204188 0.965845 -0.125338 0.0406265 0.88708 -0.459824
-0.816751 -0.0201517 0.249769 -0.747417 -0.00490595 0.664338
0.816751 -0.416327 -0.204863 0.758028 -0.191514 -0.62347
-0.561516 0.232546 0.200262 0.636828 -0.257457 0.72675
-0.561516 0.420522 -0.246944 0.316205 -0.170872 -0.933176
0.816751 -0.545776 -0.134502 0.806995 -0.431889 -0.402779
0.561516 -0.440141 0.249862 -0.250074 0.15519 0.955708
0.561516 0.727565 -0.202499 0.311977 0.516137 -0.797667
0.204188 -0.925644 0.17726 0.0136072 -0.720298 0.693532
0.561516 -0.170286 0.182347 -0.730772 0.244836 0.637203
-0.561516 0.323771 0.226279 0.487685 -0.259158 0.833666
-0.204188 0.910921 -0.191071 -0.00584398 0.670694 -0.741711
0.816751 -0.607819 -0.0277701 0.843845 -0.53103 -0.0770187
0.816751 0.563669 0.115254 0.8375 0.438564 0.325968
-0.816751 0.220837 -0.24168 -0.707719 0.051515 -0.704613
0.204188 0.834392 0.236537 -0.0284215 0.408731 0.912212
-0.204188 0.995207 -0.0482812 -0.0577483 0.982093 -0.17933
0.816751 0.605353 0.0373582 0.858097 0.503013 0.103185
0.204188 0.620169 0.228899 -0.219212 -0.322617 0.920796
-0.204188 0.55875 -0.189911 0.343258 -0.566836 -0.748913
-0.204188 0.978967 0.0998355 -0.0391112 0.916365 0.398429
-0.204188 -0.475572 -0.058684 0.56244 0.806981 -0.180119
-0.816751 -0.308454 -0.230706 -0.740524 -0.129305 -0.659473
0.816751 0.534281 -0.143824 0.805641 0.374355 -0.459131
0.561516 -0.0461647 0.156435 -0.81064 0.100143 0.576918
0.561516 -0.706145 -0.215081 0.274697 -0.451842 -0.848752
-0.561516 0.431216 0.248434 0.230901 -0.120178 0.965527
-0.204188 -0.617535 0.227738 0.263739 0.374571 0.888898
-0.561516 -0.475638 -0.253393 0.12181 0.064953 -0.990426
-0.204188 0.820948 0.241371 0.0435083 0.371049 0.927593
-0.816751 0.195227 0.243443 -0.736453 0.0434369 0.675093
-0.204188 0.999205 -0.0153474 -0.0543104 0.99666 -0.0609907
0.816751 -0.609019 0.0187628 0.845855 -0.525109 0.0937561
0.816751 0.132894 -0.247095 0.710716 0.0164763 -0.703287
-0.561516 0.375158 -0.238596 0.41381 -0.21859 -0.88373
0.561516 -0.473148 0.253157 -0.136339 0.059406 0.988879
0.204188 0.995207 0.0482812 0.0622317 0.9724 0.224867
0.816751 0.145873 0.24648 0.740586 0.0297678 0.671302
-0.204188 0.980802 -0.0955506 -0.0386254 0.927941 -0.37072
-0.204188 0.992403 0.0595119 -0.0382824 0.95542 0.292759
0.204188 -0.846141 0.231722 -0.0578123 -0.413751 0.908553
0.816751 0.398545 -0.209303 0.747469 0.189925 -0.636567
-0.816751 0.590097 0.0756427 -0.84364 0.491047 0.217126
0.816751 0.584098 0.0869659 0.839865 0.476002 0.260862
-0.816751 0.609514 0.011751 -0.854716 0.518912 0.0137682
0.561516 -0.676256 -0.228326 0.229545 -0.380313 -0.895919
-0.816751 0.57238 0.103763 -0.825179 0.45768 0.331071
0.816751 -0.11593 0.247723 0.734614 -0.0167908 0.678278
0.204188 -0.849662 -0.230287 -0.0392985 -0.411518 -0.910554
-0.561516 0.394944 0.24203 0.32903 -0.188944 0.925224
0.561516 0.135213 0.172781 -0.75428 -0.190879 0.628193
0.204188 0.480393 0.0762662 -0.539626 -0.801045 0.259097
-0.561516 0.628426 -0.242546 -0.127197 0.231257 -0.964542
-0.204188 0.763682 -0.253414 0.0802524 0.153981 -0.984809
0.816751 0.438648 0.197614 0.783875 0.229808 0.576826
-0.816751 -0.374334 0.217048 -0.76405 -0.159369 0.625164
0.561516 -0.851076 0.02189 0.481163 -0.872262 0.0874163
0.561516 -0.300177 -0.219888 -0.547711 0.271565 -0.791369
-0.561516 0.6602 -0.233931 -0.217255 0.339734 -0.915085
-0.204188 0.528779 0.159768 0.414549 -0.655986 0.630739
-0.204188 0.621955 0.229448 0.224787 -0.33253 0.915912
-0.204188 0.942982 -0.1585 -0.0324701 0.78971 -0.61262
0.816751 0.59995 -0.0532879 0.857962 0.493105 -0.144043
0.816751 -0.00513446 0.249953 0.744776 0.00216743 0.667311
-0.561516 0.111195 -0.167066 0.777455 -0.181348 -0.602227
0.204188 0.670731 -0.246618 -0.166226 -0.216897 -0.961938
0.204188 -0.543937 -0.176212 -0.405427 0.611454 -0.679524
0.561516 0.244952 0.204341 -0.625375 -0.258948 0.736106
0.561516 0.629723 -0.241867 0.107722 0.227171 -0.967879
-0.561516 -0.242443 -0.203827 0.632816 0.262521 -0.728441
0.204188 0.801813 0.24709 -0.0404564 0.29515 0.954594
-0.561516 -0.248322 0.205244 0.632304 0.268409 0.726738
-0.204188 0.659006 0.243717 0.171871 -0.190692 0.966487
0.561516 0.341528 -0.231073 -0.477459 -0.248939 -0.842652
0.561516 0.147488 -0.175887 -0.715151 -0.202947 -0.668858
0.816751 -0.150258 0.246141 0.743509 -0.0295372 0.668073
-0.561516 -0.0215482 0.154055 0.831894 0.061486 0.551518
-0.204188 -0.510681 0.136361 0.462028 0.697964 0.547153
-0.204188 -0.976479 -0.104961 -0.0399329 -0.920104 -0.389634
0.816751 -0.447875 -0.193418 0.759224 -0.261789 -0.595857
0.816751 -0.204711 -0.24309 0.708688 -0.0236516 -0.705126
0.816751 0.172263 -0.245239 0.722103 0.0262419 -0.691287
-0.204188 0.508037 0.132017 0.448254 -0.719235 0.530819
0.816751 0.302523 0.231734 0.75217 0.10339 0.650808
-0.204188 -0.799742 -0.247613 0.0703878 -0.299877 -0.951378
0.816751 -0.168936 -0.245616 0.743296 -0.0145609 -0.668804
0.204188 0.516145 0.14407 -0.445473 -0.695491 0.563779
0.816751 0.0968056 -0.248423 0.733964 0.00708318 -0.679152
-0.204188 -0.534942 -0.167113 0.440815 0.668978 -0.598457
-0.561516 -0.799648 0.1418 -0.419893 -0.733363 0.534667
0.816751 -0.396248 0.211225 0.75551 -0.18937 0.627171
0.816751 0.360875 0.220444 0.761105 0.133042 0.634838
0.816751 0.113274 0.247755 0.748675 0.0235658 0.662519
0.561516 0.529941 0.254881 -0.0160273 0.0837588 0.996357
-0.816751 0.0149672 -0.249742 -0.714391 0.00355182 -0.699737
0.204188 -0.468138 -0.0102875 -0.57809 0.815886 -0.0119379
-0.816751 -0.33835 0.226032 -0.746558 -0.124447 0.653579
-0.816751 -0.532447 -0.145154 -0.794147 -0.38376 -0.471231
-0.204188 0.84958 -0.230287 0.0362715 0.406837 -0.91278
-0.561516 -0.714862 0.210562 -0.331833 -0.551466 0.765357
-0.204188 0.684705 -0.250027 0.162146 -0.129487 -0.978234
-0.204188 -0.76288 -0.253425 0.106794 -0.170964 -0.979473
-0.816751 -0.283206 0.234829 -0.732527 -0.082489 0.675722
-0.816751 0.564775 -0.113902 -0.823947 0.441103 -0.355724
-0.561516 -0.437007 0.249394 0.241145 0.119968 0.963046
-0.561516 0.50265 -0.254686 0.127231 -0.0349932 -0.991256
0.561516 0.823482 -0.106608 0.445693 0.827978 -0.340309
-0.561516 -0.676238 -0.228309 -0.271953 -0.414694 -0.868372
-0.561516 0.016225 0.153708 0.830033 -0.010246 0.557621
-0.561516 0.645344 0.238331 -0.207995 0.326051 0.922187
0.204188 -0.596806 -0.216732 -0.27979 0.402082 -0.871807
-0.561516 0.583578 -0.251071 -0.0686482 0.157369 -0.985151
-0.561516 -0.351626 0.233511 0.450879 0.251292 0.856481
0.561516 0.643283 0.238726 0.206483 0.339576 0.917635
0.204188 0.886923 -0.20904 0.00105499 0.552172 -0.83373
0.561516 0.276236 0.21355 -0.561039 -0.26927 0.78277
-0.204188 0.473772 -0.0532756 0.533183 -0.809665 -0.245271
0.816751 0.360569 -0.220181 0.752468 0.14484 -0.642505
0.204188 -0.993847 0.0543929 0.0556422 -0.965456 0.254557
-0.561516 0.843962 0.0584165 -0.479484 0.841757 0.248071
-0.816751 -0.545776 0.134503 -0.799613 -0.422855 0.426396
0.204188 0.545282 -0.17721 -0.353161 -0.595127 -0.721873
-0.816751 0.280057 0.234587 -0.744753 0.0862366 0.661745
-0.561516 -0.443274 -0.25033 0.215783 0.137134 -0.966764
-0.816751 0.122884 -0.247463 -0.747317 0.0193926 -0.664185
-0.816751 0.302523 -0.231734 -0.743516 0.11101 -0.65944
0.204188 -0.472898 -0.0479738 -0.566351 0.805314 -0.17526
-0.204188 0.468258 -0.0130203 0.548528 -0.831558 -0.0873397
-0.816751 0.128246 0.247266 -0.727579 0.0227785 0.685645
-0.204188 0.586922 -0.210413 0.27082 -0.448509 -0.851761
0.561516 0.428942 0.248103 -0.260728 -0.151862 0.953393
-0.561516 -0.163974 -0.180478 0.748398 0.229571 -0.622252
-0.204188 -0.582802 0.207706 0.328371 0.480296 0.813319
0.204188 -0.967481 0.122901 0.0317149 -0.865648 0.499647
0.561516 0.205497 0.192558 -0.658558 -0.232412 0.715741
0.204188 -0.639263 -0.237031 -0.231003 0.294742 -0.927235
-0.816751 0.545694 0.134504 -0.785323 0.425152 0.450016
0.561516 -0.848995 -0.0360291 0.476317 -0.872921 -0.105504
-0.561516 0.248058 -0.20528 0.623442 -0.260645 -0.737146
-0.561516 0.0786384 -0.160682 0.800435 -0.129571 -0.585248
0.204188 0.591123 0.213122 -0.259256 -0.415195 0.872009
-0.204188 -0.901502 0.198642 0.00722655 -0.621671 0.783245
-0.204188 0.925562 0.17726 -0.0262964 0.735602 0.676903
0.816751 -0.439554 0.197298 0.753882 -0.24277 0.610512
-0.204188 0.960407 0.13387 -0.0311383 0.843421 0.536349
0.561516 -0.556526 -0.254005 5.69305e-05 -0.0780465 -0.99695
0.204188 -0.670812 0.246618 -0.214553 0.224123 0.95065
0.204188 0.772161 -0.252683 -0.0716041 0.155641 -0.985215
-0.561516 -0.556526 0.254005 -0.0364611 -0.123728 0.991646
-0.816751 0.361039 0.220047 -0.756288 0.146419 0.637644
0.561516 0.375152 -0.238418 -0.388491 -0.203128 -0.898784
0.561516 -0.43309 -0.248809 -0.274563 0.146095 -0.950406
-0.816751 -0.0570213 0.249315 -0.717971 -0.00988133 0.696003
0.561516 -0.170374 -0.181889 -0.698276 0.23438 -0.67637
-0.561516 -0.131882 -0.173055 0.778299 0.198288 -0.595763
-0.816751 0.465422 -0.185193 -0.756943 0.273073 -0.59369
0.561516 0.804778 0.134731 0.415654 0.736425 0.53377
0.204188 -0.987158 -0.0781232 0.0293705 -0.940652 -0.338099
-0.816751 -0.393154 -0.212219 -0.740785 -0.193978 -0.643126
0.561516 -0.313944 0.224238 -0.504398 0.259825 0.823452
0.816751 -0.277078 0.235806 0.727202 -0.0794699 0.681808
0.561516 0.167428 0.181257 -0.735454 -0.236618 0.634917
0.561516 0.307823 0.222363 -0.526045 -0.27219 0.805723
0.816751 -0.309327 -0.230662 0.742653 -0.0925213 -0.663254
-0.204188 -0.838871 0.234803 0.0638196 -0.374718 0.92494
0.561516 -0.623148 -0.244244 0.143787 -0.254341 -0.956366
0.816751 -0.327278 0.227646 0.74051 -0.123505 0.6606
0.561516 0.577104 0.251774 0.0762504 0.154408 0.98506
0.561516 -0.714584 0.210727 0.312088 -0.481385 0.819066
-0.204188 -0.468015 -0.00356714 0.578149 0.815817 0.0136262
0.561516 -0.137854 -0.173467 -0.744438 0.2012 -0.636655
0.561516 0.433904 -0.248748 -0.311868 -0.164242 -0.935822
0.816751 0.0652215 0.249213 0.764986 0.0153592 0.643864
0.204188 0.492912 -0.105434 -0.485733 -0.742765 -0.46083
0.816751 -0.129695 -0.247216 0.70334 -0.00622831 -0.710826
0.561516 0.0259845 -0.154355 -0.798376 -0.0561667 -0.599534
-0.561516 0.790159 0.151667 -0.387157 0.676828 0.62611
0.204188 -0.995741 -0.0452046 0.0478753 -0.98441 -0.169246
-0.204188 0.738399 0.254768 0.11821 0.0554703 0.991438
0.561516 -0.830144 0.0950538 0.458769 -0.812878 0.358831
0.816751 0.393605 0.211586 0.779586 0.176811 0.60082
-0.204188 -0.87048 -0.219431 0.0201424 -0.547454 -0.836593
-0.204188 -0.768398 0.252901 0.0985099 -0.13686 0.98568
-0.561516 0.210094 -0.193915 0.663801 -0.237985 -0.709035
0.816751 0.214783 0.242151 0.742105 0.0525543 0.66822
0.816751 0.283291 -0.234111 0.731714 0.0781747 -0.677114
0.204188 -0.998986 0.0201033 0.0434811 -0.991918 0.119195
-0.816751 0.359086 -0.220898 -0.753523 0.135368 -0.643334
-0.816751 0.188403 -0.244206 -0.734508 0.0383198 -0.677518
-0.816751 0.155725 -0.246059 -0.701825 0.0324571 -0.711609
0.204188 -0.469035 0.0235361 -0.570952 0.810181 0.132745
0.204188 0.960734 0.133566 0.0493447 0.851976 0.52125
-0.204188 -0.999035 0.0208948 -0.0525565 -0.994259 0.0932018
-0.204188 0.488553 0.0969044 0.52483 -0.782342 0.335401
-0.561516 0.167036 0.181032 0.727479 -0.230387 0.646294
-0.816751 -0.602342 0.0497932 -0.843985 -0.522715 0.120245
-0.816751 0.436521 0.198426 -0.745592 0.235469 0.623416
-0.204188 -0.630983 -0.233734 0.268015 0.344876 -0.899571
-0.561516 -0.590396 0.25033 -0.0996982 -0.209844 0.972638
0.816751 -0.579561 0.0950538 0.827211 -0.478069 0.295247
0.561516 0.0212098 0.154038 -0.82642 -0.033481 0.562057
-0.816751 -0.569011 0.108995 -0.831517 -0.475914 0.286504
-0.561516 -0.074349 -0.160548 0.807402 0.135834 -0.574153
0.561516 0.393328 0.242296 -0.354615 -0.19321 0.914832
-0.816751 0.605352 -0.0373582 -0.847301 0.519872 -0.108696
-0.561516 -0.402536 0.244244 0.340625 0.191487 0.920493
0.204188 -0.811747 -0.244189 -0.0755461 -0.253088 -0.964489
0.816751 0.0482247 -0.249422 0.72287 0.00837036 -0.690934
-0.561516 0.610352 0.246252 -0.120973 0.218521 0.968305
-0.204188 -0.568661 -0.197318 0.384763 0.586565 -0.71267
0.204188 -0.48173 -0.0794116 -0.551615 0.773518 -0.312075
-0.204188 -0.86884 0.220642 0.0183057 -0.487014 0.873203
0.561516 -0.267153 -0.211224 -0.570078 0.261084 -0.779003
0.561516 0.357599 0.234774 -0.419011 -0.234363 0.877214
0.204188 -0.711228 -0.253688 -0.1437 0.0218077 -0.989381
-0.561516 -0.205002 -0.192627 0.667406 0.239049 -0.705283
0.816751 0.178457 0.244979 0.743854 0.0414052 0.667058
0.561516 0.8509 -0.0235489 0.470676 0.881755 -0.0311869
-0.204188 0.772161 0.252683 0.0647344 0.220433 0.973252
0.561516 -0.279646 0.214795 -0.559283 0.264739 0.785567
-0.816751 -0.158617 -0.245757 -0.720139 -0.036283 -0.69288
-0.561516 -0.76715 0.174292 -0.384607 -0.650114 0.655309
-0.204188 -0.992604 0.058963 -0.0349745 -0.974268 0.222665
-0.561516 -0.00133799 -0.154437 0.82848 -0.00107768 -0.560018
-0.204188 0.553388 0.185064 0.346238 -0.567622 0.746943
-0.561516 0.462241 -0.252101 0.207719 -0.0976288 -0.973304
0.816751 -0.598515 -0.0589053 0.847373 -0.513617 -0.134744
-0.204188 -0.727137 -0.254488 0.153531 3.91749e-05 -0.988144
0.561516 -0.0128961 0.154642 -0.826541 0.0260539 0.562273
0.561516 -0.375234 -0.238418 -0.391661 0.214293 -0.894807
-0.816751 -0.2478 0.23934 -0.736228 -0.0631653 0.673779
0.561516 0.78254 -0.15935 0.388732 0.700496 -0.598492
-0.561516 -0.474144 0.253211 0.166919 0.0699182 0.983488
0.561516 -0.217817 -0.196393 -0.647683 0.245186 -0.721381
-0.816751 -0.0924277 -0.248196 -0.748701 -0.016373 -0.662706
0.204188 -0.973834 -0.110374 0.028686 -0.902343 -0.430064
-0.561516 0.310636 -0.223139 0.551089 -0.25527 -0.794442
-0.204188 0.851714 0.229411 0.0187245 0.491643 0.870596
0.204188 0.863964 0.223053 0.000618939 0.535348 0.844631
-0.561516 0.8509 0.023549 -0.483756 0.869698 0.098008
0.816751 0.473158 0.181106 0.788532 0.276152 0.549506
0.561516 -0.804986 -0.13464 0.428102 -0.737283 -0.52263
-0.204188 -0.601627 -0.219323 0.311112 0.469667 -0.826209
0.204188 0.947302 -0.152552 0.0315389 0.806841 -0.589926
-0.204188 0.696846 0.251764 0.126047 -0.0288771 0.991604
0.561516 0.102188 0.164922 -0.80445 -0.156801 0.572952
0.204188 0.620166 -0.228591 -0.23802 -0.37456 -0.896131
0.561516 -0.781095 -0.161919 0.380144 -0.66569 -0.642143
0.561516 0.844581 0.0564482 0.4701 0.846007 0.25155
-0.816751 0.538696 -0.140514 -0.803839 0.3966 -0.44334
0.816751 -0.508291 -0.161919 0.775054 -0.370591 -0.511814
-0.816751 0.0160476 0.249819 -0.719272 0.00173345 0.694726
-0.561516 0.131199 0.1716 0.768907 -0.185699 0.611799
0.561516 0.561475 -0.253504 -0.0287558 0.0558917 -0.998023
-0.816751 0.318865 0.228883 -0.715769 0.112679 0.689186
0.204188 -0.591553 0.213103 -0.298175 0.45361 0.839839
-0.204188 -0.693784 -0.251356 0.170629 0.109538 -0.979228
0.204188 0.741348 0.254711 -0.0915333 0.115697 0.989058
-0.561516 0.356812 0.234412 0.408488 -0.220185 0.885808
-0.204188 -0.489724 -0.0990371 0.533176 0.77621 -0.336484
-0.204188 0.813306 -0.243705 0.0583989 0.289816 -0.955299
0.561516 -0.734598 -0.198791 0.3507 -0.567605 -0.744872
0.204188 -0.949422 0.149981 0.0164746 -0.774184 0.632746
0.204188 -0.492994 0.105434 -0.507574 0.736596 0.446984
0.816751 0.481194 -0.176483 0.775543 0.309014 -0.550494
0.204188 0.979627 0.0980212 0.0448139 0.903534 0.426167
0.561516 -0.742228 0.193561 0.352479 -0.556943 0.752046
-0.204188 0.90039 0.199596 0.00753989 0.601956 0.798494
0.561516 -0.105513 -0.165448 -0.762738 0.156019 -0.627606
-0.204188 -0.937197 -0.165408 -0.0312964 -0.780485 -0.62439
0.561516 -0.361052 0.235806 -0.422224 0.236444 0.875112
0.816751 0.508382 0.161155 0.795923 0.332773 0.505736
0.561516 0.111652 -0.166456 -0.756774 -0.16657 -0.632098
0.561516 -0.593671 0.249721 0.113209 -0.189072 0.975415
-0.204188 0.468494 0.0203453 0.54911 -0.834718 0.0415239
-0.204188 0.499801 -0.119167 0.450317 -0.725222 -0.520834
-0.204188 -0.839074 -0.234611 0.0513188 -0.441012 -0.896033
