ply
format ascii 1.0
element vertex 320
property float x
property float y
property float z
property float nx
property float ny
property float nz
element face 0
property list uchar int vertex_index
end_header
0 0.464985 1.51776 0.0278316 0.875532 -0.482357
-0.273381 0.469053 1.51776 0.0664383 0.902553 -0.425423
-0.536256 0.48092 1.51776 0.0658533 0.959204 -0.274939
-0.778522 0.487916 1.51776 -0.0576084 0.995834 0.0706864
-0.990871 0.448474 1.51776 -0.228714 0.905527 0.357366
-1.16514 0.378351 1.51776 -0.425571 0.678095 0.59923
-1.29463 0.253511 1.51776 -0.545158 0.463009 0.698874
-1.37438 0.105675 1.51776 -0.6146 0.196362 0.764009
-1.4013 0 1.51776 -0.635445 -0.00529365 0.772128
-1.37438 -0.105675 1.51776 -0.612424 -0.214459 0.760884
-1.29463 -0.253985 1.51776 -0.547208 -0.443354 0.70993
-1.16514 -0.361288 1.51776 -0.422188 -0.681869 0.597338
-0.990871 -0.445067 1.51776 -0.234729 -0.895331 0.378529
-0.778522 -0.47072 1.52125 -0.0656746 -0.993303 0.0950527
-0.536256 -0.481088 1.51776 0.0666099 -0.959799 -0.272669
-0.273381 -0.451319 1.51776 0.0720214 -0.895923 -0.438332
0 -0.445464 1.51776 0.0275921 -0.868169 -0.495501
0.273381 -0.448526 1.51776 -0.0455262 -0.883381 -0.466438
0.536256 -0.472339 1.51776 -0.0612237 -0.948341 -0.311289
0.778522 -0.484547 1.51776 0.0471459 -0.996544 0.068387
0.990871 -0.463909 1.51776 0.22412 -0.898315 0.37789
1.16514 -0.387603 1.51776 0.405687 -0.701188 0.586305
1.3302 -0.207289 1.51776 0.566861 -0.398005 0.721291
1.37438 -0.105675 1.51776 0.61507 -0.202605 0.761998
1.4013 0 1.51776 0.636735 0.00752814 0.771046
1.37438 0.105675 1.51776 0.610166 0.211664 0.763476
1.29463 0.247235 1.51776 0.5435 0.45187 0.707404
1.16514 0.36513 1.51776 0.414663 0.69124 0.591812
0.990871 0.443233 1.51776 0.21646 0.913785 0.343718
0.778522 0.480852 1.51776 0.0607164 0.996187 0.0626524
0.536256 0.485033 1.51776 -0.0295381 0.961754 -0.272316
0.273381 0.468212 1.51776 -0.0397973 0.882281 -0.469038
-1.34796 0.50491 0.893157 -0.0452662 0.997383 -0.0563827
-1.44809 0.495208 0.893157 -0.251969 0.965922 0.0592164
-1.54438 0.466476 0.893157 -0.406508 0.903405 0.136417
-1.63312 0.419818 0.893157 -0.527211 0.83267 0.169441
-1.7109 0.357025 0.893157 -0.710394 0.6597 0.245227
-1.77473 0.280513 0.893157 -0.801959 0.527265 0.280808
-1.82217 0.193221 0.893157 -0.88072 0.368666 0.297351
-1.85137 0.0985031 0.893157 -0.928697 0.187978 0.319665
-1.86124 0 0.893157 -0.947949 -0.0020692 0.318416
-1.85137 -0.0985031 0.893157 -0.932926 -0.175749 0.314262
-1.82217 -0.193221 0.893157 -0.875451 -0.387983 0.288194
-1.77473 -0.280513 0.893157 -0.793925 -0.535939 0.287146
-1.7109 -0.357025 0.893157 -0.693726 -0.679385 0.239122
-1.63312 -0.419817 0.893157 -0.54212 -0.82006 0.183321
-1.54438 -0.466476 0.893157 -0.387317 -0.912256 0.133325
-1.44809 -0.495208 0.893157 -0.244628 -0.968156 0.0532017
-1.34796 -0.50491 0.893157 -0.0468471 -0.99779 -0.0471114
-1.24782 -0.495208 0.893157 0.0745051 -0.991623 -0.105515
-1.15154 -0.466476 0.893157 0.237291 -0.946376 -0.219238
-1.0628 -0.419817 0.893157 0.339739 -0.881406 -0.328178
-0.985017 -0.357025 0.893157 0.469456 -0.729603 -0.497283
-0.921184 -0.280513 0.893157 0.519459 -0.613419 -0.594877
-0.873752 -0.193221 0.893157 0.563931 -0.455534 -0.688819
-0.844544 -0.0985031 0.893157 0.59169 -0.230259 -0.772582
-0.834681 0 0.893157 0.59214 -0.000180171 -0.805835
-0.844544 0.0985031 0.893157 0.589078 0.217383 -0.778288
-0.873752 0.193221 0.893157 0.56574 0.439755 -0.697534
-0.921184 0.280513 0.893157 0.524153 0.612611 -0.591584
-0.985017 0.357025 0.893157 0.456527 0.730943 -0.507253
-1.0628 0.419818 0.893157 0.333125 0.880896 -0.336229
-1.15154 0.466476 0.893157 0.222105 0.9515 -0.21288
-1.24782 0.495208 0.893157 0.0741842 0.991173 -0.109873
1.656 0.501057 0.00279748 0.0818702 0.994548 -0.0645947
1.57485 0.491429 0.00279748 -0.148519 0.98702 -0.0611095
1.49681 0.462916 0.00279748 -0.384507 0.920318 -0.071895
1.42489 0.416614 0.00279748 -0.528136 0.845132 -0.0826074
1.36186 0.354301 0.00279748 -0.697185 0.711842 -0.0849373
1.31012 0.278372 0.00279748 -0.811028 0.578418 -0.0875547
1.27168 0.191746 0.00279748 -0.921803 0.380503 -0.074142
1.24801 0.0977514 0.00279748 -0.971932 0.225668 -0.0665042
1.24002 0 0.00279748 -0.995124 -0.0132519 -0.0977365
1.24801 -0.0977514 0.00279748 -0.971801 -0.226247 -0.066448
1.27168 -0.191746 0.00279748 -0.923473 -0.376839 -0.0720448
1.31012 -0.278372 0.00279748 -0.805299 -0.586505 -0.0866279
1.36186 -0.354301 0.00279748 -0.6941 -0.714593 -0.0870719
1.42489 -0.416614 0.00279748 -0.522169 -0.848891 -0.0819947
1.49681 -0.462916 0.00279748 -0.354234 -0.932732 -0.0673027
1.57485 -0.491429 0.00279748 -0.149695 -0.986339 -0.068752
1.656 -0.501057 0.00279748 0.0823496 -0.994561 -0.0637687
1.73716 -0.491429 0.00279748 0.245476 -0.968309 -0.0460368
1.81519 -0.462916 0.00279748 0.507456 -0.8603 -0.0487154
1.88711 -0.416614 0.00279748 0.596046 -0.801792 -0.0431101
1.95014 -0.354301 0.00279748 0.76314 -0.644062 -0.0529289
2.00188 -0.278372 0.00279748 0.858893 -0.510784 -0.037435
2.04032 -0.191746 0.00279748 0.93768 -0.346523 -0.0260201
2.06399 -0.0977514 0.00279748 0.986203 -0.160451 -0.0407338
2.07198 0 0.00279748 0.99951 0.00962605 -0.0297706
2.06399 0.0977514 0.00279748 0.986437 0.160638 -0.033715
2.04032 0.191746 0.00279748 0.93494 0.353623 -0.0289337
2.00188 0.278372 0.00279748 0.859814 0.508055 -0.0509923
1.95014 0.354301 0.00279748 0.758236 0.650479 -0.0442218
1.88711 0.416614 0.00279748 0.616881 0.785462 -0.0500779
1.81519 0.462916 0.00279748 0.492098 0.869536 -0.0418021
1.73716 0.491429 0.00279748 0.247663 0.967287 -0.0549455
-1.64609 0.501057 0.00279748 -0.0541742 0.998394 -0.0165698
-1.72724 0.491429 0.00279748 -0.270778 0.962504 -0.0162882
-1.80527 0.462916 0.00279748 -0.49656 0.867806 -0.0184691
-1.87719 0.416614 0.00279748 -0.609931 0.792324 -0.0144048
-1.94023 0.354301 0.00279748 -0.755204 0.655389 -0.0115265
-1.99196 0.278372 0.00279748 -0.876232 0.48182 -0.00813486
-2.0304 0.191746 0.00279748 -0.937378 0.348144 -0.0108951
-2.05407 0.0977514 0.00279748 -0.985192 0.171202 -0.00930686
-2.06207 0 0.00279748 -0.999914 -0.00954279 -0.00897837
-2.05407 -0.0977514 0.00279748 -0.984756 -0.173035 -0.0177408
-2.0304 -0.191746 0.00279748 -0.937338 -0.348372 -0.0058266
-1.99196 -0.278372 0.00279748 -0.868759 -0.495166 -0.00825582
-1.94023 -0.354301 0.00279748 -0.763002 -0.646242 -0.0141025
-1.87719 -0.416614 0.00279748 -0.632567 -0.774476 -0.00671589
-1.80527 -0.462916 0.00279748 -0.485762 -0.873932 -0.0166446
-1.72724 -0.491429 0.00279748 -0.241092 -0.970324 -0.0185987
-1.64609 -0.501057 0.00279748 -0.0773838 -0.996886 -0.0151389
-1.56493 -0.491429 0.00279748 0.160882 -0.986739 -0.0215109
-1.4869 -0.462916 0.00279748 0.402755 -0.914884 -0.0278458
-1.41498 -0.416614 0.00279748 0.521044 -0.853049 -0.0286452
-1.35194 -0.354301 0.00279748 0.702193 -0.711552 -0.0248775
-1.30021 -0.278372 0.00279748 0.823196 -0.566246 -0.0413959
-1.26177 -0.191746 0.00279748 0.918893 -0.393411 -0.0293821
-1.2381 -0.0977514 0.00279748 0.980445 -0.1951 -0.0257664
-1.2301 0 0.00279748 0.999031 -0.000549316 -0.0440127
-1.2381 0.0977514 0.00279748 0.973692 0.226295 -0.0267421
-1.26177 0.191746 0.00279748 0.925005 0.37914 -0.0248926
-1.30021 0.278372 0.00279748 0.811203 0.583192 -0.042859
-1.35194 0.354301 0.00279748 0.708006 0.705725 -0.0260804
-1.41498 0.416614 0.00279748 0.514858 0.857047 -0.0198167
-1.4869 0.462916 0.00279748 0.359352 0.932882 -0.0244284
-1.56493 0.491429 0.00279748 0.170947 0.984927 -0.0263906
1.35414 0.50491 0.893157 0.0635691 0.997958 0.00622957
1.254 0.495208 0.893157 -0.0859479 0.994322 -0.0627431
1.15771 0.466476 0.893157 -0.232187 0.957573 -0.170711
1.06897 0.419818 0.893157 -0.339932 0.892934 -0.295152
0.991194 0.357025 0.893157 -0.490513 0.741087 -0.458461
0.927361 0.280513 0.893157 -0.539427 0.621687 -0.567911
0.879929 0.193221 0.893157 -0.596036 0.439622 -0.671918
0.850721 0.0985031 0.893157 -0.627372 0.218708 -0.747376
0.840858 0 0.893157 -0.634973 -0.00460033 -0.772521
0.850721 -0.0985031 0.893157 -0.6209 -0.233735 -0.748232
0.879929 -0.193221 0.893157 -0.589987 -0.452175 -0.668919
0.927361 -0.280513 0.893157 -0.540985 -0.621385 -0.566759
0.991194 -0.357025 0.893157 -0.483906 -0.7475 -0.45506
1.06897 -0.419817 0.893157 -0.348767 -0.888387 -0.298547
1.15771 -0.466476 0.893157 -0.254399 -0.948265 -0.189931
1.254 -0.495208 0.893157 -0.0844952 -0.993695 -0.0736949
1.35414 -0.50491 0.893157 0.0530694 -0.998529 -0.0111001
1.45427 -0.495208 0.893157 0.260677 -0.960707 0.0953335
1.55056 -0.466476 0.893157 0.392556 -0.906904 0.153053
1.6393 -0.419817 0.893157 0.53566 -0.821776 0.194298
1.71708 -0.357025 0.893157 0.712615 -0.646125 0.273318
1.78091 -0.280513 0.893157 0.789826 -0.530482 0.307836
1.82834 -0.193221 0.893157 0.87168 -0.371858 0.319212
1.85755 -0.0985031 0.893157 0.923422 -0.18413 0.33673
1.86742 0 0.893157 0.941066 0.00491645 0.338188
1.85755 0.0985031 0.893157 0.925349 0.185374 0.330704
1.82834 0.193221 0.893157 0.870119 0.377384 0.316977
1.78091 0.280513 0.893157 0.776977 0.549011 0.308048
1.71708 0.357025 0.893157 0.710029 0.648474 0.274482
1.6393 0.419818 0.893157 0.534423 0.820674 0.202204
1.55056 0.466476 0.893157 0.382507 0.909957 0.160207
1.45427 0.495208 0.893157 0.232909 0.968136 0.0920086
-1.35958 0.50491 -0.894263 -0.0657193 0.996049 0.0597281
-1.45972 0.495208 -0.894263 -0.269235 0.962355 -0.0372296
-1.55601 0.466476 -0.894263 -0.388174 0.916576 -0.0959604
-1.64474 0.419818 -0.894263 -0.549731 0.819643 -0.161186
-1.72253 0.357025 -0.894263 -0.696622 0.688928 -0.200241
-1.78636 0.280513 -0.894263 -0.79607 0.552589 -0.246814
-1.83379 0.193221 -0.894263 -0.888366 0.371467 -0.269847
-1.863 0.0985031 -0.894263 -0.937382 0.184798 -0.295238
-1.87286 0 -0.894263 -0.959991 0.00796664 -0.279916
-1.863 -0.0985031 -0.894263 -0.940003 -0.164129 -0.299092
-1.83379 -0.193221 -0.894263 -0.884872 -0.386233 -0.260434
-1.78636 -0.280513 -0.894263 -0.787893 -0.559597 -0.257053
-1.72253 -0.357025 -0.894263 -0.700069 -0.683746 -0.205901
-1.64474 -0.419817 -0.894263 -0.538767 -0.828367 -0.153423
-1.55601 -0.466476 -0.894263 -0.383017 -0.917109 -0.110493
-1.45972 -0.495208 -0.894263 -0.272455 -0.961133 -0.0446309
-1.35958 -0.50491 -0.894263 -0.0493875 -0.99678 0.0631654
-1.25945 -0.495208 -0.894263 0.0769499 -0.989021 0.126156
-1.16316 -0.466476 -0.894263 0.2065 -0.951366 0.228605
-1.07442 -0.419817 -0.894263 0.324104 -0.881202 0.344151
-0.996641 -0.357025 -0.894263 0.447689 -0.732049 0.513497
-0.932808 -0.280513 -0.894263 0.505765 -0.603449 0.616484
-0.885376 -0.193221 -0.894263 0.548512 -0.439453 0.711348
-0.856168 -0.0985031 -0.894263 0.565882 -0.219917 0.794616
-0.846305 0 -0.894263 0.580667 -0.00604007 0.814119
-0.856168 0.0985031 -0.894263 0.566168 0.223836 0.793316
-0.885376 0.193221 -0.894263 0.546397 0.443259 0.710614
-0.932808 0.280513 -0.894263 0.506531 0.602232 0.617043
-0.996641 0.357025 -0.894263 0.444949 0.735796 0.510515
-1.07442 0.419818 -0.894263 0.319946 0.87864 0.354439
-1.16316 0.466476 -0.894263 0.194859 0.95505 0.223404
-1.25945 0.495208 -0.894263 0.0729769 0.989313 0.126228
1.35573 0.50491 -0.894263 0.0531778 0.9946 0.0891257
1.25559 0.495208 -0.894263 -0.0476316 0.989734 0.134748
1.15931 0.466476 -0.894263 -0.213848 0.944875 0.247953
1.07057 0.419818 -0.894263 -0.321237 0.872582 0.367978
0.992787 0.357025 -0.894263 -0.434104 0.724285 0.53569
0.928955 0.280513 -0.894263 -0.493212 0.595408 0.634217
0.881523 0.193221 -0.894263 -0.529925 0.445229 0.721769
0.852314 0.0985031 -0.894263 -0.55885 0.234132 0.795531
0.842452 0 -0.894263 -0.564278 0.000681164 0.825585
0.852314 -0.0985031 -0.894263 -0.557741 -0.250709 0.791246
0.881523 -0.193221 -0.894263 -0.529351 -0.461668 0.711794
0.928955 -0.280513 -0.894263 -0.494757 -0.598402 0.630183
0.992787 -0.357025 -0.894263 -0.428956 -0.737123 0.522156
1.07057 -0.419817 -0.894263 -0.316616 -0.869916 0.378154
1.15931 -0.466476 -0.894263 -0.222777 -0.935696 0.273575
1.25559 -0.495208 -0.894263 -0.073858 -0.981974 0.173989
1.35573 -0.50491 -0.894263 0.0623987 -0.99412 0.0885015
1.45587 -0.495208 -0.894263 0.26503 -0.964044 -0.019427
1.55215 -0.466476 -0.894263 0.396628 -0.914412 -0.080851
1.64089 -0.419817 -0.894263 0.537242 -0.835372 -0.116297
1.71867 -0.357025 -0.894263 0.709659 -0.678147 -0.191051
1.7825 -0.280513 -0.894263 0.809531 -0.535892 -0.239746
1.82994 -0.193221 -0.894263 0.885116 -0.391542 -0.251524
1.85915 -0.0985031 -0.894263 0.94122 -0.190663 -0.278842
1.86901 0 -0.894263 0.961789 0.000747079 -0.273792
1.85915 0.0985031 -0.894263 0.939777 0.192236 -0.282604
1.82994 0.193221 -0.894263 0.884222 0.401633 -0.238415
1.7825 0.280513 -0.894263 0.80589 0.539862 -0.243087
1.71867 0.357025 -0.894263 0.710465 0.675437 -0.197544
1.64089 0.419818 -0.894263 0.541075 0.831252 -0.127504
1.55215 0.466476 -0.894263 0.398067 0.913395 -0.0851562
1.45587 0.495208 -0.894263 0.243278 0.969913 -0.00917553
3.78944e-10 0.3225 1.93855 0.0137777 0.9373 0.348252
-0.144134 0.316303 1.93855 -0.00567542 0.937284 0.34852
-0.282729 0.297951 1.93855 -0.041337 0.882374 0.468729
-0.410459 0.268149 1.93855 -0.0962675 0.823069 0.559723
-0.522415 0.228042 1.93855 -0.183102 0.734016 0.653983
-0.614295 0.179171 1.93855 -0.249365 0.596229 0.763104
-0.682568 0.123415 1.93855 -0.322788 0.446521 0.834522
-0.72461 0.0629166 1.93855 -0.383454 0.269274 0.883433
-0.738806 0 1.93855 -0.420944 -0.00643183 0.907064
-0.72461 -0.0629166 1.93855 -0.383479 -0.277149 0.880983
-0.682568 -0.123415 1.93855 -0.325115 -0.458856 0.826892
-0.614295 -0.179171 1.93855 -0.246852 -0.608741 0.753988
-0.522415 -0.228042 1.93855 -0.176052 -0.74297 0.645756
-0.410459 -0.268149 1.93855 -0.0962512 -0.837743 0.537515
-0.282729 -0.297951 1.93855 -0.0370128 -0.877327 0.478464
-0.144134 -0.316303 1.93855 -0.00555743 -0.930824 0.365427
3.78944e-10 -0.3225 1.93855 0.0197039 -0.953068 0.302115
0.144134 -0.316303 1.93855 0.0283196 -0.917801 0.396029
0.282729 -0.297951 1.93855 0.0503044 -0.889223 0.4547
0.410459 -0.268149 1.93855 0.101066 -0.835722 0.539773
0.522415 -0.228042 1.93855 0.182006 -0.727152 0.661909
0.614295 -0.179171 1.93855 0.24484 -0.637139 0.730827
0.682568 -0.123415 1.93855 0.320169 -0.461923 0.827115
0.72461 -0.0629166 1.93855 0.378809 -0.274023 0.883977
0.738806 0 1.93855 0.415346 0.00871056 0.909622
0.72461 0.0629166 1.93855 0.38192 0.276187 0.881963
0.682568 0.123415 1.93855 0.326388 0.458771 0.826438
0.614295 0.179171 1.93855 0.254931 0.613372 0.747519
0.522415 0.228042 1.93855 0.185852 0.723284 0.66507
0.410459 0.268149 1.93855 0.10953 0.837743 0.534967
0.282729 0.297951 1.93855 0.0533718 0.884103 0.464235
0.144134 0.316303 1.93855 0.0289165 0.917651 0.396333
0 0.464985 -1.52929 0.00214363 0.896046 0.443956
-0.273381 0.469053 -1.52929 0.0522421 0.902706 0.427074
-0.536256 0.48092 -1.52929 0.0615164 0.960941 0.26983
-0.778522 0.487916 -1.52929 -0.0647424 0.993793 -0.0904645
-0.990871 0.448474 -1.52929 -0.238994 0.889664 -0.389077
-1.16514 0.378351 -1.52929 -0.418891 0.679156 -0.602725
-1.29463 0.253511 -1.52929 -0.538957 0.451409 -0.711165
-1.37438 0.105675 -1.52929 -0.607678 0.1952 -0.769821
-1.4013 0 -1.52929 -0.623124 -0.0058143 -0.782101
-1.37438 -0.105675 -1.52929 -0.60337 -0.213833 -0.768258
-1.29463 -0.253985 -1.52929 -0.530379 -0.467575 -0.707157
-1.16514 -0.361288 -1.52929 -0.415605 -0.676252 -0.60824
-0.990871 -0.445067 -1.52929 -0.234836 -0.886215 -0.399344
-0.778522 -0.47072 -1.5258 -0.0512094 -0.995732 -0.0767823
-0.536256 -0.481088 -1.52929 0.0536495 -0.963686 0.261595
-0.273381 -0.451319 -1.52929 0.0588693 -0.895377 0.4414
0 -0.445464 -1.52929 0.00170209 -0.889605 0.456727
0.273381 -0.448526 -1.52929 -0.0614172 -0.902627 0.426018
0.536256 -0.472339 -1.52929 -0.0696424 -0.962461 0.262335
0.778522 -0.484547 -1.52929 0.0547088 -0.993107 -0.103663
0.990871 -0.463909 -1.52929 0.222073 -0.89217 -0.39334
1.16514 -0.387603 -1.52929 0.400645 -0.689179 -0.603752
1.3302 -0.207289 -1.52929 0.563309 -0.379742 -0.733811
1.37438 -0.105675 -1.52929 0.608045 -0.187486 -0.771447
1.4013 0 -1.52929 0.626075 0.00337319 -0.779756
1.37438 0.105675 -1.52929 0.607335 0.211351 -0.765816
1.29463 0.247235 -1.52929 0.531747 0.470481 -0.704197
1.16514 0.36513 -1.52929 0.416662 0.675945 -0.607858
0.990871 0.443233 -1.52929 0.224121 0.896278 -0.382695
0.778522 0.480852 -1.52929 0.0567076 0.99438 -0.0893966
0.536256 0.485033 -1.52929 -0.0514739 0.965378 0.255725
0.273381 0.468212 -1.52929 -0.0552423 0.908035 0.415237
3.78944e-10 0.3225 -1.93371 0.00274387 0.93876 -0.344561
-0.144134 0.316303 -1.93371 -0.0184376 0.921699 -0.387466
-0.282729 0.297951 -1.93371 -0.0412341 0.899354 -0.435272
-0.410459 0.268149 -1.93371 -0.0948894 0.831599 -0.54721
-0.522415 0.228042 -1.93371 -0.173498 0.732951 -0.657786
-0.614295 0.179171 -1.93371 -0.247292 0.596771 -0.763355
-0.682568 0.123415 -1.93371 -0.312857 0.454624 -0.833929
-0.72461 0.0629166 -1.93371 -0.374402 0.26492 -0.888617
-0.738806 0 -1.93371 -0.409057 -0.00229297 -0.912506
-0.72461 -0.0629166 -1.93371 -0.373568 -0.2779 -0.884996
-0.682568 -0.123415 -1.93371 -0.31839 -0.462804 -0.827309
-0.614295 -0.179171 -1.93371 -0.244331 -0.613813 -0.750691
-0.522415 -0.228042 -1.93371 -0.165862 -0.745837 -0.645148
-0.410459 -0.268149 -1.93371 -0.0919569 -0.845755 -0.525588
-0.282729 -0.297951 -1.93371 -0.0304696 -0.900397 -0.434002
-0.144134 -0.316303 -1.93371 -0.0129462 -0.92076 -0.389914
3.78944e-10 -0.3225 -1.93371 0.0050686 -0.949937 -0.312401
0.144134 -0.316303 -1.93371 0.0112309 -0.937892 -0.346746
0.282729 -0.297951 -1.93371 0.0319958 -0.897177 -0.44051
0.410459 -0.268149 -1.93371 0.0894691 -0.820059 -0.565242
0.522415 -0.228042 -1.93371 0.16177 -0.737532 -0.655651
0.614295 -0.179171 -1.93371 0.229634 -0.610203 -0.758235
0.682568 -0.123415 -1.93371 0.30746 -0.444201 -0.841519
0.72461 -0.0629166 -1.93371 0.361514 -0.27958 -0.889462
0.738806 0 -1.93371 0.401302 0.0125537 -0.91586
0.72461 0.0629166 -1.93371 0.372203 0.268513 -0.888463
0.682568 0.123415 -1.93371 0.313154 0.447504 -0.83766
0.614295 0.179171 -1.93371 0.241497 0.585628 -0.77377
0.522415 0.228042 -1.93371 0.175383 0.741037 -0.648155
0.410459 0.268149 -1.93371 0.0963642 0.82506 -0.556767
0.282729 0.297951 -1.93371 0.0404417 0.879651 -0.473898
0.144134 0.316303 -1.93371 0.0130057 0.917533 -0.397446
