ply
format ascii 1.0
element vertex 241
property float x
property float y
property float z
property float nx
property float ny
property float nz
element face 0
property list uchar int vertex_index
end_header
-0.212845 0.84949 0.215112 0.171396 0.546567 0.819688
-0.669255 0.693293 -0.128158 -0.615742 0.632934 -0.469315
-0.0444338 -0.971016 0.112102 0.61259 -0.685697 0.393132
-0.456827 0.239128 -0.0867228 0.831635 -0.424374 -0.358177
-0.722571 -0.300893 0.247568 -0.125064 -0.0484088 0.990967
-0.86695 0.00328886 0.220829 -0.480052 0.00242634 0.877236
-0.151761 0.981936 -0.0504593 0.335361 0.910214 -0.242987
-0.101443 0.794942 -0.24434 0.539859 0.166751 -0.825074
-0.0643074 -0.513116 -0.0917357 0.709027 0.6433 -0.28887
-0.452231 -0.232039 -0.064064 0.848384 0.432226 -0.305655
-0.894883 0.197718 -0.185447 -0.637474 0.144355 -0.756828
-0.446454 0.88524 -0.0602311 -0.438213 0.853484 -0.282018
-0.272251 -0.55904 -0.214707 0.232886 0.39558 -0.888415
-0.772023 -0.399178 0.21942 -0.398114 -0.201534 0.894924
-0.719346 0.126406 -0.249066 0.0574867 -0.00815509 -0.998313
-0.695978 -0.65048 0.144552 -0.59074 -0.544641 0.595309
-0.612159 0.164159 -0.221574 0.422234 -0.107576 -0.900081
-0.782405 0.369358 0.221236 -0.445838 0.210215 0.870079
-0.423938 0.799637 0.195765 -0.324364 0.587142 0.741655
-0.984508 0.0626568 0.0771802 -0.944215 0.0714798 0.32148
-0.856737 -0.166892 0.217391 -0.471156 -0.0875284 0.877696
-0.476724 0.416149 0.2211 0.325824 -0.284414 0.901636
-0.983939 -0.109148 -0.0675292 -0.967379 -0.102134 -0.231831
-0.61206 -0.304266 0.240934 0.215827 0.100172 0.97128
-0.822116 0.140197 -0.234861 -0.332931 0.0589509 -0.941107
-0.537284 0.800159 0.128803 -0.498432 0.724542 0.476029
-0.753498 -0.644782 -0.0594955 -0.728937 -0.632333 -0.262309
-0.704739 -0.509945 0.218667 -0.377336 -0.271248 0.885461
-0.477727 0.196357 0.0888071 0.84255 -0.352235 0.40748
-0.302724 -0.459085 0.149587 0.411439 0.617813 0.670093
-0.935717 -0.165942 0.148039 -0.78266 -0.138515 0.606841
-0.21325 -0.454547 -0.0345077 0.540262 0.832692 -0.121411
-0.512702 0.347888 -0.213071 0.36354 -0.261706 -0.894063
-0.175694 -0.562886 0.191875 0.471386 0.470792 0.745755
-0.249007 -0.936047 -0.119208 0.00895517 -0.845153 -0.53445
0.725289 0.290727 0.247717 -0.588765 0.550685 0.591694
-0.844293 0.528602 -0.0357297 -0.829385 0.530892 -0.173992
-0.655696 -0.719962 -0.108358 -0.602425 -0.663865 -0.443133
-0.632323 0.328143 -0.246909 0.0738715 -0.0384052 -0.996528
-0.741601 -0.00197411 0.249592 0.0109332 0.000452182 0.99994
-0.40896 -0.291367 0.0342721 0.812418 0.562689 0.152837
-0.0513267 0.49834 0.021994 0.720463 -0.691468 0.0529724
-0.199885 -0.471438 0.0767332 0.528664 0.767763 0.362015
-0.106341 -0.48834 -0.00297744 0.662238 0.747614 0.0501424
-0.0324333 -0.997707 0.0142332 0.655499 -0.749574 0.0919757
-0.735633 0.567102 0.173432 -0.581433 0.450139 0.677725
-0.362972 -0.888178 -0.135841 -0.296808 -0.757189 -0.581867
-0.443592 0.53455 0.243589 0.134498 -0.156841 0.978423
-0.346143 -0.932794 -0.042825 -0.330988 -0.921118 -0.204913
-0.00434519 0.748617 0.249943 0.730709 0.0251763 0.682225
-0.959799 -0.0380458 0.132552 -0.835419 -0.0307423 0.548754
-0.366514 -0.385728 0.12296 0.582151 0.606391 0.541656
-0.253162 -0.688473 0.249234 0.213814 0.0360489 0.976209
-0.626761 -0.740253 0.117666 -0.55724 -0.649044 0.517905
-0.664411 0.0779756 0.236386 0.276307 -0.0264935 0.960704
-0.206461 0.801595 -0.237029 0.28333 0.25756 -0.923789
0.739095 -0.0825549 -0.24971 -0.563678 -0.117933 0.817533
-0.19713 0.597606 0.219097 0.417278 -0.459295 0.784173
-0.290003 -0.407862 0.0194624 0.581477 0.803553 0.127228
-0.678502 0.436781 -0.243012 -0.238501 0.16457 -0.957097
-0.92279 0.384417 0.00496409 -0.918984 0.394242 0.00645909
-0.187736 0.972255 0.0676335 0.215297 0.951726 0.21878
-0.645464 -0.647582 -0.187999 -0.439816 -0.433885 -0.786324
-0.614639 -0.186189 -0.225249 0.352778 0.107419 -0.929521
-0.0263908 -0.650656 -0.229846 0.684262 0.198133 -0.701804
0.51413 -0.12378 0.117672 0.449001 0.750344 0.485162
-0.896284 0.100261 0.197863 -0.622397 0.0724579 0.779341
-0.940833 -0.161751 -0.142038 -0.790619 -0.129184 -0.598526
-0.549131 -0.515159 0.249816 -0.0264963 -0.00672542 0.999626
-0.946974 0.297715 0.0570964 -0.926225 0.304944 0.221624
-0.288243 0.942228 0.0831717 -0.153781 0.945792 0.286057
-0.875019 0.0126204 -0.215811 -0.50441 0.00927743 -0.863414
-0.13128 -0.748288 0.249491 0.447706 -0.0987329 0.888713
-0.155346 0.514367 -0.130905 0.56919 -0.674361 -0.470383
-0.371534 -0.91133 0.0860586 -0.338475 -0.871026 0.356018
-0.40519 0.352254 -0.131051 0.603232 -0.582555 -0.544739
-0.779148 -0.555628 -0.138741 -0.678591 -0.478526 -0.557249
-0.897187 0.30504 -0.151322 -0.754104 0.270172 -0.598611
-0.297661 0.539715 0.21122 0.297172 -0.481783 0.824362
-0.770079 0.243293 -0.242885 -0.258581 0.0877446 -0.961996
-0.955346 -0.243524 -0.0786063 -0.924216 -0.225354 -0.308286
-0.759462 0.635897 0.0656836 -0.744144 0.630791 0.219892
-0.285877 0.644698 0.245886 0.116016 -0.160313 0.980224
-0.53329 0.577067 -0.246993 -0.170201 0.154146 -0.973278
-0.131747 0.783812 0.245664 0.489122 0.208222 0.846996
-0.00364166 -0.573636 0.177313 0.717772 0.409616 0.563044
-0.31866 0.794441 0.225902 -0.12778 0.407815 0.904079
-0.835788 -0.338302 -0.198155 -0.543976 -0.221641 -0.809299
-0.92596 0.193733 0.154323 -0.777428 0.162403 0.607644
-0.139927 0.931505 0.158777 0.379454 0.743242 0.551005
-0.461807 0.760689 -0.206338 -0.309513 0.494552 -0.81217
-0.992986 0.0695025 -0.0406551 -0.983148 0.0721417 -0.167976
-0.472884 -0.216765 0.0993872 0.825822 0.363649 0.431018
-0.416802 -0.587024 -0.248079 0.0268312 0.0695985 -0.997214
-0.306398 0.87499 -0.175226 -0.161558 0.675624 -0.719327
-0.266313 -0.951138 0.0745322 -0.0213835 -0.943918 0.329487
-0.0245678 0.933345 0.168198 0.671307 0.562022 0.483195
-0.516687 -0.0559507 -0.0975739 0.886524 0.0924937 -0.453344
0.205705 -0.557831 -0.196099 0.880482 0.314656 -0.354601
-0.83855 0.523936 0.0703271 -0.82454 0.521698 0.219007
-0.461461 0.660977 -0.243194 -0.185872 0.219383 -0.95777
0.685828 -0.725299 -0.0165173 0.379693 -0.685842 0.620849
-0.285057 0.410491 0.00244728 0.58178 -0.813345 0.00131492
0.200144 0.731236 -0.249564 0.871271 -0.118142 -0.476372
-0.490002 0.717714 0.219542 -0.30977 0.439038 0.843379
-0.498058 -0.518858 -0.24795 0.0695882 0.072912 -0.994908
-0.35145 0.93503 -0.000488851 -0.321001 0.945632 -0.0523241
-0.173635 -0.84244 -0.223995 0.268585 -0.410558 -0.87138
-0.560241 0.697616 -0.203231 -0.403727 0.47111 -0.784258
-0.896048 -0.440611 -0.00798332 -0.897963 -0.438958 -0.0312847
-0.420696 0.450904 -0.211618 0.318227 -0.374444 -0.870932
-0.765336 -0.472921 -0.199136 -0.477431 -0.296687 -0.827065
0.22619 0.738707 0.248887 0.923479 -0.0825638 0.37466
-0.359856 0.885751 0.140928 -0.317694 0.784389 0.532733
-0.433815 0.304831 0.119769 0.704677 -0.491087 0.512117
-0.49811 0.0786248 0.0490133 0.961616 -0.145326 0.232756
-0.742563 -0.353983 -0.238864 -0.238417 -0.117297 -0.964053
-0.804827 0.25973 0.230673 -0.362014 0.11937 0.924498
-0.551071 -0.785623 -0.134588 -0.468949 -0.67118 -0.574112
-0.455997 -0.880875 -0.0596945 -0.447977 -0.840917 -0.303604
-0.763631 -0.633552 0.0596318 -0.748596 -0.615572 0.246324
0.513488 0.292444 -0.19332 0.0238854 0.625002 0.780257
-0.063528 0.664921 0.235877 0.687857 -0.204315 0.696497
-0.299629 0.43399 -0.114019 0.512928 -0.740752 -0.433809
-0.881178 -0.41146 -0.111104 -0.806998 -0.365592 -0.463785
-0.508076 -0.255426 -0.172326 0.600538 0.300912 -0.740814
-0.391537 -0.465362 -0.205922 0.299923 0.375682 -0.876875
-0.638825 0.0422613 -0.224619 0.399226 -0.0241563 -0.916534
-0.952813 -0.0493117 -0.142441 -0.796349 -0.0388852 -0.603586
-0.155825 -0.974972 -0.0746965 0.331266 -0.899985 -0.283356
-0.134212 -0.930773 0.160503 0.424035 -0.656825 0.623518
-0.558543 0.332306 0.229254 0.306717 -0.187814 0.933086
-0.700156 -0.710592 0.0304633 -0.697838 -0.710845 0.0878764
-0.53283 0.844258 0.0146958 -0.552215 0.831786 0.0564895
-0.0739039 0.567647 0.176572 0.679575 -0.525866 0.51151
-0.32594 -0.827315 -0.207171 -0.149124 -0.504987 -0.850147
-0.636743 -0.399852 -0.249871 -0.00293072 -0.00357255 -0.999989
-0.601339 0.00813219 0.200919 0.6151 -0.0114532 0.788366
-0.663787 -0.0744246 0.235979 0.284438 0.0282346 0.958279
-0.175841 -0.516944 -0.144947 0.489361 0.643291 -0.588815
-0.499456 -0.0430445 0.0269754 0.986905 0.0952977 0.130142
-0.621208 -0.590534 0.225188 -0.303212 -0.28264 0.910042
-0.141209 -0.663453 -0.239553 0.433087 0.179142 -0.883371
-0.0770338 0.980504 0.086397 0.554076 0.795571 0.245087
-0.163024 -0.98271 0.0352934 0.297088 -0.946369 0.126983
0.780164 0.620784 -0.0323283 0.112548 0.727359 -0.676965
-0.357957 0.792555 -0.218858 -0.189075 0.44473 -0.87548
-0.794369 -0.0774645 -0.245285 -0.169309 -0.0130068 -0.985477
-0.816971 -0.574439 -0.00825144 -0.822094 -0.568859 -0.0236624
-0.516423 0.246025 -0.176221 0.599894 -0.299606 -0.741865
-0.489073 -0.863054 0.0579574 -0.479885 -0.851197 0.212543
-0.42242 -0.773287 -0.212299 -0.240182 -0.430652 -0.869972
-0.322117 -0.557692 0.226428 0.201448 0.333571 0.92095
-0.779881 0.112184 0.246668 -0.190911 0.0297463 0.981157
-0.0510042 -0.97811 -0.0964188 0.612934 -0.72453 -0.315229
-0.554817 -0.827651 -0.0401176 -0.542104 -0.812481 -0.214472
-0.954369 0.25606 -0.072734 -0.927071 0.253183 -0.276474
-0.660389 0.201449 0.242505 0.228211 -0.0619965 0.971636
-0.808644 0.478479 -0.161395 -0.671259 0.404528 -0.621103
-0.161234 0.518483 0.14026 0.571098 -0.70103 0.427087
-0.997248 -0.0383576 0.0176642 -0.99728 -0.0337703 0.0655117
-0.418095 -0.327172 -0.120909 0.659268 0.526474 -0.536835
-0.913064 -0.27277 0.145285 -0.762263 -0.232203 0.604184
-0.708601 -0.187828 0.249208 0.0326513 0.00903096 0.999426
-0.914013 -0.361808 0.08816 -0.860148 -0.341931 0.378456
-0.29218 0.597785 -0.235188 0.223571 -0.304183 -0.926007
-0.846498 -0.506141 -0.0775219 -0.815463 -0.492742 -0.303686
-0.361273 0.669261 -0.249475 -0.0328126 0.0479325 -0.998311
-0.859165 -0.160857 -0.216481 -0.444509 -0.082573 -0.89196
-0.307375 -0.671517 -0.249477 0.0295221 -0.000694839 -0.999564
-0.682397 0.354215 0.249054 -0.0948119 0.0460094 0.994431
-0.0254703 0.887831 -0.207727 0.681734 0.408173 -0.607152
-0.609316 -0.49848 -0.246898 -0.0910054 -0.0697049 -0.993408
-0.535833 -0.80262 0.126882 -0.468051 -0.706732 0.530526
-0.831008 -0.46104 0.148224 -0.700091 -0.380481 0.604241
-0.881106 0.406235 -0.115972 -0.801267 0.381518 -0.460886
-0.308338 -0.882538 0.166654 -0.14293 -0.68515 0.714241
0.925558 -0.291439 0.117162 -0.75059 0.12999 -0.647856
-0.319063 -0.794723 0.225712 -0.0584622 -0.365944 0.928799
-0.311624 -0.42073 -0.1066 0.506733 0.699418 -0.504019
-0.695135 0.716564 0.0210306 -0.701532 0.711957 0.0311393
0.386764 -0.533282 0.232829 -0.031514 -0.862998 -0.504224
-0.340989 0.392303 0.0983524 0.593059 -0.69036 0.414348
-0.028648 0.644223 -0.226856 0.734491 -0.274823 -0.62048
-0.395169 0.675976 0.247402 -0.0899343 0.149402 0.984678
-0.268302 0.470473 0.138881 0.465309 -0.711557 0.526473
-0.695739 -0.559445 -0.204702 -0.421278 -0.347765 -0.837607
-0.189557 0.899086 -0.183547 0.252608 0.671627 -0.696496
-0.722435 0.52327 -0.204782 -0.504053 0.375124 -0.777954
-0.761602 0.357941 -0.232092 -0.37115 0.181512 -0.91066
-0.620509 -0.781858 0.0237204 -0.617949 -0.783946 0.059732
-0.437939 -0.839711 0.152906 -0.34215 -0.667546 0.661299
-0.531613 0.820915 -0.100672 -0.513743 0.768296 -0.381823
-0.218727 0.726527 0.249567 0.241034 0.0632218 0.968455
-0.539993 -0.653525 0.229921 -0.224572 -0.264045 0.938002
-0.459702 -0.302926 0.150442 0.642804 0.417823 0.64205
-0.748232 0.470337 0.210412 -0.470968 0.300848 0.829265
-0.476795 0.152464 -0.0181267 0.954948 -0.290377 -0.0612904
-0.523495 0.476677 -0.246328 0.0569446 -0.0632239 -0.996373
-0.00795111 -0.696097 0.244009 0.681602 0.110548 0.723324
-0.818686 -0.2818 0.220972 -0.415114 -0.140275 0.89889
-0.596756 0.691969 0.187837 -0.46755 0.520454 0.71451
-0.492706 -0.373083 -0.21244 0.359271 0.283832 -0.889024
-0.552717 0.178506 0.184047 0.612899 -0.190041 0.766968
-0.0922366 0.572539 -0.18344 0.628654 -0.518521 -0.579594
-0.756328 0.614373 -0.109046 -0.706399 0.574272 -0.413778
-0.699394 -0.0382779 -0.245203 0.154706 0.0177357 -0.987801
-0.43478 -0.431109 0.208644 0.342692 0.346143 0.873354
-0.591039 0.593627 0.233795 -0.274461 0.260967 0.925509
-0.622246 0.437046 0.249457 -0.065182 0.0380217 0.997149
-0.479386 -0.144585 0.015348 0.958136 0.285838 0.0164867
-0.60681 -0.0769806 -0.208568 0.529598 0.0668363 -0.845611
-0.849984 0.44548 0.135334 -0.755225 0.393471 0.524229
-0.527899 0.0738481 -0.124764 0.842298 -0.0989485 -0.529853
0.249123 -0.966455 -0.0157273 0.918045 -0.396461 0.0034745
-0.954386 0.124624 -0.129491 -0.860065 0.117901 -0.496375
-0.0950709 -0.767026 -0.24884 0.504528 -0.116557 -0.855492
-0.5432 0.500757 0.249492 -0.0208122 0.0076283 0.999754
-0.944262 -0.324042 -0.0115054 -0.946549 -0.319731 -0.0426358
-0.252065 0.941868 -0.106043 -0.00637256 0.913443 -0.406918
-0.974909 -0.190434 0.0555603 -0.961437 -0.189568 0.199257
-0.0694586 0.962479 -0.125505 0.55899 0.715522 -0.418998
-0.890424 -0.251739 -0.177461 -0.659094 -0.191754 -0.727204
-0.217007 -0.865332 0.20467 0.17692 -0.500254 0.847611
-0.421339 -0.761204 0.218852 -0.207902 -0.390023 0.897028
-0.532591 -0.65503 -0.231422 -0.223378 -0.27466 -0.935235
-0.772435 -0.56578 0.137646 -0.665599 -0.48353 0.568486
-0.622559 0.751932 0.10532 -0.60722 0.710632 0.355367
-0.882493 0.297419 0.170763 -0.691765 0.236483 0.682302
-0.39839 -0.63877 0.249823 -0.0111976 -0.0177605 0.99978
-0.404963 0.293528 -0.0147977 0.800431 -0.596821 -0.05581
-0.0619374 -0.569587 -0.176752 0.665782 0.489296 -0.563315
-0.0724926 -0.903497 -0.194395 0.532217 -0.521763 -0.666715
-0.138829 0.660258 -0.238372 0.485203 -0.192816 -0.852878
-0.433819 0.890389 0.0632167 -0.448394 0.863029 0.232648
-0.197388 0.462715 0.0385674 0.583904 -0.808027 0.078406
-0.0850187 -0.518527 0.110457 0.649323 0.634686 0.418991
-0.557121 -0.172328 0.185921 0.620098 0.181948 0.763134
-0.62877 -0.408714 0.249983 0.000500257 0.00313886 0.999995
-0.401799 0.574756 -0.245288 0.0717346 -0.161416 -0.984276
-0.982256 0.180061 0.0152988 -0.980517 0.181449 0.0752453
