ply
format ascii 1.0
element vertex 88
property float x
property float y
property float z
element face 172
property list uchar int vertex_indices
end_header
0.313619 -0.675409 -0.667305 
0.313619 -0.0063138 -0.949689 
0.537388 -0.675409 -0.504363 
0.691483 -0.297545 -0.658458 
0.720975 0.0795811 -0.68795 
0.313619 0.0795811 -0.946003 
0.681898 -0.675409 -0.280594 
0.846315 -0.453115 -0.280594 
0.956172 0.0795811 -0.280594 
0.735721 -0.675409 0.0522944 
0.98124 -0.00778839 -0.193225 
0.978291 0.0795811 -0.190276 
0.564668 -0.675409 0.474396 
0.787331 -0.394131 0.474396 
0.876544 0.0795811 0.474396 
0.313619 -0.675409 0.667198 
0.313619 -0.33441 0.888387 
0.313619 0.0795811 0.945896 
0.313619 0.822406 0.474396 
-0.441371 0.761948 0.474396 
-0.441371 0.0795811 0.893548 
-0.393815 0.787016 0.474396 
-0.190322 0.0795811 0.978337 
-0.372434 0.834571 0.405459 
-0.441371 0.834571 0.329517 
0.313619 0.834571 0.452646 
-0.441371 0.852635 -0.280594 
0.212241 0.935949 -0.280594 
0.313619 0.907195 -0.280594 
-0.441371 0.834571 -0.329624 
-0.441371 0.848211 -0.294234 
-0.214653 0.834571 -0.507312 
-0.420358 0.855584 -0.301607 
0.313619 0.888762 -0.334785 
0.313619 0.834571 -0.452753 
-0.441371 0.0795811 -0.893655 
-0.441371 0.526013 -0.727026 
0.244682 0.0795811 -0.966647 
0.0765788 0.597531 -0.798544 
0.313619 0.563615 -0.764628 
-0.956372 0.0795811 -0.280594 
-0.834718 0.472928 -0.280594 
-0.474181 0.834571 -0.280594 
-0.441371 -0.0608736 -0.89513 
-0.441371 -0.675409 -0.590627 
-0.682098 -0.675409 -0.280594 
-0.943837 -0.172942 -0.280594 
-0.737395 -0.675409 0.0154297 
-0.904761 -0.383809 0.182796 
-0.966694 0.0795811 0.244728 
-0.564868 -0.675409 0.474396 
-0.833243 -0.283537 0.474396 
-0.876744 0.0795811 0.474396 
-0.50441 -0.675409 0.537435 
-0.68136 -0.160408 0.714385 
-0.687996 0.0795811 0.721021 
-0.441371 -0.293859 0.847836 
-0.441371 -0.675409 0.59052 
-0.479342 -0.71338 0.512367 
-0.441371 -0.762041 0.474396 
-0.441371 -0.726651 0.525638 
-0.283221 -0.833559 0.474396 
0.203394 -0.785635 0.584621 
0.313619 -0.822499 0.474396 
0.052248 -0.675409 0.735767 
0.313619 -0.764253 0.56324 
-0.441371 -0.851991 -0.280594 
-0.172627 -0.944153 -0.280594 
-0.441371 -0.895492 -0.0605117 
-0.00968473 -0.998713 0.0427096 
0.313619 -0.907288 -0.280594 
0.313619 -0.949314 -0.00668917 
0.0153833 -0.675409 -0.737349 
-0.572241 -0.806279 -0.149724 
0.405412 0.834571 -0.372387 
0.356014 0.876966 -0.322989 
0.473981 0.834571 -0.280594 
-0.452799 0.845999 -0.280594 
-0.507359 0.834571 -0.214606 
-0.912134 0.363808 0.190169 
-0.776472 0.414682 0.474396 
0.414997 -0.776787 0.474396 
-0.132813 -0.366851 0.920828 
0.936265 0.211926 -0.280594 
0.813874 0.579836 -0.0258588 
0.473243 -0.835033 -0.280594 
0.65683 0.422792 -0.623805 
0.246894 0.0128559 -0.968859 
3 1 2 0 
3 3 2 1 
3 3 1 5 
3 3 5 4 
3 3 6 2 
3 3 4 7 
3 3 7 6 
3 4 8 7 
3 9 6 7 
3 8 10 9 
3 8 9 7 
3 8 11 10 
3 10 12 9 
3 10 11 13 
3 10 13 12 
3 11 14 13 
3 15 12 13 
3 15 13 16 
3 14 16 13 
3 14 17 16 
3 18 17 14 
3 19 20 22 
3 19 22 21 
3 21 22 18 
3 18 22 17 
3 19 23 24 
3 21 23 19 
3 23 21 18 
3 23 18 25 
3 26 24 23 
3 26 23 27 
3 27 23 28 
3 28 23 25 
3 30 31 29 
3 32 31 30 
3 30 26 32 
3 33 34 31 
3 33 31 32 
3 33 32 26 
3 33 26 27 
3 27 28 33 
3 36 37 35 
3 38 37 36 
3 38 36 29 
3 38 29 31 
3 39 5 37 
3 39 37 38 
3 38 31 39 
3 31 34 39 
3 35 40 36 
3 40 41 36 
3 36 41 42 
3 36 42 29 
3 44 45 43 
3 45 46 43 
3 43 46 40 
3 43 40 35 
3 45 47 46 
3 40 46 47 
3 40 47 48 
3 40 48 49 
3 50 48 47 
3 48 50 51 
3 48 51 49 
3 49 51 52 
3 50 53 51 
3 52 51 53 
3 52 53 54 
3 52 54 55 
3 56 54 53 
3 56 53 57 
3 54 56 55 
3 55 56 20 
3 50 59 58 
3 50 58 53 
3 59 60 58 
3 58 60 53 
3 53 60 57 
3 59 61 60 
3 63 62 60 
3 63 60 61 
3 62 64 57 
3 62 57 60 
3 63 65 62 
3 62 65 64 
3 64 65 15 
3 66 67 68 
3 70 69 68 
3 70 68 67 
3 68 69 59 
3 70 71 69 
3 69 71 61 
3 69 61 59 
3 61 71 63 
3 72 66 44 
3 72 67 66 
3 72 0 70 
3 72 70 67 
3 45 66 73 
3 45 73 47 
3 66 68 73 
3 73 68 47 
3 47 68 59 
3 47 59 50 
3 44 66 45 
3 33 74 34 
3 75 74 33 
3 33 28 75 
3 75 76 74 
3 75 28 76 
3 29 42 30 
3 42 77 30 
3 77 26 30 
3 28 25 76 
3 42 78 77 
3 77 78 26 
3 26 78 24 
3 40 49 41 
3 42 41 49 
3 42 49 79 
3 42 79 78 
3 52 79 49 
3 79 52 80 
3 79 80 78 
3 78 80 19 
3 78 19 24 
3 52 55 80 
3 80 55 19 
3 19 55 20 
3 63 81 65 
3 12 65 81 
3 12 15 65 
3 56 57 64 
3 64 82 56 
3 82 22 20 
3 82 20 56 
3 16 82 64 
3 16 64 15 
3 82 16 22 
3 22 16 17 
3 11 8 83 
3 76 84 11 
3 76 11 83 
3 84 76 25 
3 84 25 18 
3 84 14 11 
3 84 18 14 
3 70 85 71 
3 6 71 85 
3 6 9 63 
3 6 63 71 
3 9 81 63 
3 9 12 81 
3 39 4 5 
3 86 4 39 
3 86 39 34 
3 86 34 74 
3 86 8 4 
3 86 74 83 
3 86 83 8 
3 74 76 83 
3 2 70 0 
3 2 85 70 
3 2 6 85 
3 43 72 44 
3 87 72 43 
3 87 43 35 
3 87 35 37 
3 1 0 72 
3 1 72 87 
3 87 37 1 
3 37 5 1 
