ply
format ascii 1.0
element vertex 615
property float x
property float y
property float z
property float nx
property float ny
property float nz
end_header
-0.006369 0.460308 -0.316504 -0.233427 0.923913 -0.303145 
-0.011684 0.451671 -0.335961 -0.41133 0.702272 -0.581052 
-0.015161 0.440969 -0.346939 -0.51008 0.406136 -0.758203 
-0.017675 0.429936 -0.350241 -0.619064 0.0487033 -0.783829 
-0.018141 0.416283 -0.348157 -0.645833 -0.309888 -0.697761 
-0.015642 0.408034 -0.33412 -0.629224 -0.526021 -0.57217 
-0.008427 0.390989 -0.277514 -0.212818 -0.96938 -0.12252 
-0.006203 0.400591 -0.28521 -0.228652 -0.96575 -0.122654 
-0.005222 0.396669 -0.254697 -0.249256 -0.949276 -0.191696 
-0.010291 0.376127 -0.215511 -0.320489 -0.860447 -0.396127 
-0.011227 0.337512 -0.168687 -0.293576 -0.698354 -0.652775 
-0.011665 0.310449 -0.144801 -0.307218 -0.524188 -0.794257 
-0.008997 0.271806 -0.124082 -0.163026 -0.352289 -0.921583 
-0.006997 0.239901 -0.111792 -0.13781 -0.15518 -0.978227 
-0.001121 0.186244 -0.10649 -0.0437254 -0.0381056 -0.998317 
0.001918 0.156172 -0.110922 0.00521437 0.0600923 -0.998179 
-0.007589 0.175128 -0.105222 -0.113349 0.00783618 -0.993524 
-0.012045 0.089447 -0.124294 -0.144147 0.165315 -0.97565 
-0.013327 0.049782 -0.128561 -0.20006 0.0120893 -0.979709 
-0.012768 0.014372 -0.127924 -0.220414 -0.208337 -0.952897 
-0.013775 -0.033009 -0.117618 -0.260461 -0.364839 -0.893897 
-0.011641 -0.069535 -0.099101 -0.22802 -0.526742 -0.818871 
-0.010936 -0.093902 -0.079221 -0.194141 -0.706988 -0.680056 
-0.013661 -0.106611 -0.055806 -0.156561 -0.779964 -0.605925 
-0.013846 -0.125082 -0.006093 -0.113931 -0.129579 -0.985002 
-0.002089 -0.090016 0.087647 -0.0724206 0.276683 0.958228 
-0.005629 -0.127047 0.093337 -0.159443 0.609714 0.77642 
-0.005343 -0.145709 0.101157 -0.138986 0.685439 0.714742 
-0.005112 -0.159887 0.111408 -0.114596 0.785406 0.608281 
-0.004232 -0.17134 0.125062 -0.0806556 0.877386 0.472957 
-0.004435 -0.183178 0.147728 -0.0471396 0.956618 0.287505 
-0.001154 -0.192069 0.186581 0.00868874 0.967025 0.254534 
-0.003869 -0.257947 0.186656 0.0285486 -0.998252 -0.051747 
-0.00475 -0.255763 0.228482 0.0609673 -0.86794 0.492912 
-0.005699 -0.257184 0.269102 0.0374031 -0.018293 0.999133 
-0.00238 0.459818 -0.313753 -0.153987 0.95051 -0.26985 
-0.002946 0.458471 -0.286827 -0.124243 0.992199 0.0102223 
0.001273 0.442004 -0.21091 -0.0549468 0.950154 0.306902 
-0.003784 0.419747 -0.148294 -0.18786 0.873156 0.449786 
-0.009062 0.402964 -0.113956 -0.271159 0.729854 0.627524 
-0.014171 0.373372 -0.068307 -0.342106 0.726484 0.595974 
-0.014685 0.359604 -0.055494 -0.354542 0.719461 0.597223 
-0.011671 0.342699 -0.051523 -0.355927 0.732646 0.580126 
-0.004063 0.346903 -0.041726 -0.19616 0.767992 0.60968 
-0.008523 0.336921 -0.024201 -0.248352 0.802795 0.542071 
-0.009742 0.320786 -0.000888 -0.227713 0.802334 0.551731 
-0.011092 0.279083 0.038738 -0.162633 0.690301 0.705007 
-0.01131 0.242817 0.061491 -0.139505 0.414241 0.899413 
-0.008809 0.201259 0.078675 -0.103924 0.185626 0.977109 
-0.006099 0.16419 0.085946 -0.0726878 0.0841779 0.993796 
-0.002644 0.138857 0.086661 -0.0295344 0.0564469 0.997969 
0.005704 0.049803 0.071112 0.0886786 -0.122543 0.988493 
0.00429 -0.015733 0.06273 0.07855 -0.0667491 0.994673 
0.003627 -0.041292 0.065832 0.0802205 0.0849143 0.993154 
-0.004349 -0.081422 0.085888 -0.101648 0.238665 0.965767 
-0.000101 -0.260332 0.180117 -0.0192249 -0.999698 -0.0153085 
-0.004447 -0.254593 0.116614 -0.0267414 -0.999375 0.0231347 
-0.003023 -0.249512 0.017945 -0.0101665 -0.992149 -0.12465 
-0.005149 -0.251082 -0.027258 -0.0679011 -0.997599 0.0136497 
-0.007753 -0.260519 -0.09259 -0.186829 -0.73961 -0.646585 
-0.006969 -0.182109 -0.081326 -0.0466712 0.778826 -0.625502 
-0.002215 -0.177171 -0.041016 0.0582088 0.943481 -0.326275 
-0.000857 -0.160393 -0.009595 0.0664629 0.633924 -0.770535 
7.9e-05 -0.147295 -0.003159 0.110812 0.40766 -0.906385 
-0.000311 -0.135919 -0.004036 0.127705 0.134825 -0.982606 
-0.00083 -0.124319 -0.012211 0.150718 -0.231367 -0.961121 
-0.004161 -0.116521 -0.027279 0.0942169 -0.60814 -0.788219 
-0.00227 -0.176272 -0.078526 -0.0308531 0.843654 -0.536001 
-0.0061 -0.18811 -0.103103 -0.0581993 0.620742 -0.781852 
-0.006735 -0.208333 -0.112346 -0.0919025 0.24095 -0.966177 
-0.006508 -0.232464 -0.108983 -0.133804 -0.263301 -0.955389 
-0.001384 -0.261109 -0.092057 -0.203089 -0.738679 -0.642735 
-0.005896 0.077472 -0.116419 -0.072844 0.154036 -0.985376 
-0.037508 0.074068 -0.10312 -0.524027 0.0579729 -0.849726 
-0.062066 0.073954 -0.076552 -0.750457 -0.0293123 -0.660269 
-0.080239 0.076565 -0.038293 -0.912944 0.017449 -0.407712 
-0.083591 0.080896 0.005729 -0.966733 0.0389837 0.252799 
-0.078586 0.083414 0.028302 -0.831853 0.013697 0.554826 
-0.06647 0.084519 0.044746 -0.653421 -0.0157995 0.75683 
-0.037459 0.081915 0.064248 -0.440895 -0.0480613 0.896271 
0.015481 0.070674 0.092899 0.161633 -0.0955375 0.982216 
0.007675 0.077472 -0.116419 0.115602 0.146622 -0.982414 
0.039286 0.074068 -0.10312 0.526404 0.0224836 -0.849937 
0.063845 0.073954 -0.076552 0.746088 -0.0711953 -0.66203 
0.082017 0.076565 -0.038293 0.916164 -0.00791983 -0.400725 
0.08537 0.080896 0.005729 0.967065 0.0322651 0.252477 
0.080364 0.083414 0.028302 0.828058 0.00536508 0.560616 
0.068249 0.084519 0.044746 0.645535 -0.0274374 0.763238 
0.039238 0.081915 0.064248 0.458616 -0.0728645 0.885642 
-0.013703 0.070674 0.092899 -0.149327 -0.0849311 0.985134 
-0.011866 -0.198561 -0.113587 -0.0798 0.393147 -0.916006 
-0.052293 -0.210279 -0.115514 -0.24159 0.227705 -0.943284 
-0.067571 -0.216455 -0.11175 -0.360435 0.149798 -0.920678 
-0.08863 -0.222975 -0.096381 -0.583966 0.184761 -0.790472 
-0.105257 -0.226471 -0.072732 -0.840241 0.202903 -0.502818 
-0.112116 -0.226685 -0.051094 -0.966264 0.224557 -0.126128 
-0.114665 -0.227672 -0.017895 -0.965656 0.151791 0.210874 
-0.104144 -0.233137 0.086924 -0.986537 -0.0935918 0.134109 
0.013645 -0.198561 -0.113587 0.0172292 0.424144 -0.905431 
0.054072 -0.210279 -0.115514 0.268526 0.256543 -0.928482 
0.06935 -0.216455 -0.11175 0.400125 0.161496 -0.902119 
0.090409 -0.222975 -0.096381 0.595174 0.187688 -0.781371 
0.107036 -0.226471 -0.072732 0.838204 0.215321 -0.501051 
0.113894 -0.226685 -0.051094 0.961149 0.2459 -0.125405 
0.116444 -0.227672 -0.017895 0.960557 0.177927 0.213712 
0.105922 -0.233137 0.086924 0.986154 -0.0956462 0.135473 
-0.103405 -0.2127 0.078479 -0.960453 0.270093 0.0676745 
-0.116732 -0.202243 0.173762 -0.941075 0.297049 -0.16168 
-0.112327 -0.20028 0.198641 -0.907254 0.40909 0.0976476 
-0.100475 -0.199276 0.223898 -0.710836 0.497798 0.496899 
-0.08694 -0.200976 0.237925 -0.51588 0.521181 0.679881 
-0.066402 -0.207582 0.249802 -0.344868 0.522016 0.780106 
-0.024592 -0.225813 0.26309 -0.140188 0.379173 0.914645 
0.001843 -0.239792 0.267823 0.0879078 0.157062 0.983668 
0.105183 -0.2127 0.078479 0.96087 0.269617 0.0635307 
0.11851 -0.202243 0.173762 0.942648 0.293663 -0.158671 
0.114106 -0.20028 0.198641 0.908385 0.406075 0.099693 
0.102253 -0.199276 0.223898 0.710937 0.497933 0.496619 
0.088719 -0.200976 0.237925 0.51328 0.523834 0.67981 
0.06818 -0.207582 0.249802 0.323673 0.526367 0.78624 
0.026371 -0.225813 0.26309 0.162457 0.377428 0.911678 
-6.4e-05 -0.239792 0.267823 0.0542388 0.153568 0.986648 
-0.004972 -0.185599 0.17691 -0.018917 0.972228 0.23327 
-0.039122 -0.176569 0.175807 -0.108722 0.976736 0.184843 
-0.072862 -0.18056 0.175967 -0.491106 0.871099 -0.00109917 
-0.084574 -0.193809 0.174852 -0.721353 0.679465 -0.134077 
-0.092813 -0.223231 0.176102 -0.987349 0.0203753 -0.157247 
0.006751 -0.185599 0.17691 0.0198378 0.97075 0.239271 
0.0409 -0.176569 0.175807 0.11997 0.965467 0.231258 
0.074641 -0.18056 0.175967 0.50372 0.863733 0.0152453 
0.086352 -0.193809 0.174852 0.730232 0.671451 -0.126155 
0.094592 -0.223231 0.176102 0.988146 0.0268916 -0.151144 
-0.003557 -0.163924 -0.034848 0.143822 0.914614 -0.377884 
-0.032706 -0.154327 -0.032733 -0.0787715 0.837324 -0.541003 
-0.059023 -0.158723 -0.031164 -0.507511 0.813298 -0.284568 
-0.070945 -0.169482 -0.030435 -0.640384 0.752077 -0.155847 
-0.100004 -0.21539 -0.024976 -0.93326 0.334962 0.129719 
0.005336 -0.163924 -0.034848 0.0949756 0.917375 -0.386527 
0.034485 -0.154327 -0.032733 0.141922 0.899975 -0.412193 
0.060801 -0.158723 -0.031164 0.442084 0.874837 -0.198045 
0.072724 -0.169482 -0.030435 0.590675 0.801174 -0.0960363 
0.101782 -0.21539 -0.024976 0.918177 0.371958 0.136376 
-0.066535 -0.206816 -0.10389 -0.389128 0.296844 -0.872045 
-0.06828 -0.180747 -0.090513 -0.408755 0.654847 -0.635684 
-0.068169 -0.16636 -0.076298 -0.446862 0.764498 -0.464605 
-0.068207 -0.15451 -0.040698 -0.568134 0.783645 -0.251247 
-0.070507 -0.152723 -0.016688 -0.702335 0.689257 -0.177905 
-0.074131 -0.159097 0.04118 -0.858548 0.501259 0.107867 
-0.073604 -0.167673 0.093987 -0.796277 0.581155 0.167932 
-0.07059 -0.176086 0.14327 -0.639474 0.768503 -0.0218155 
-0.061387 -0.188853 0.197967 -0.309267 0.904078 0.294952 
-0.059735 -0.198337 0.218997 -0.321509 0.756003 0.570168 
-0.062136 -0.208048 0.23324 -0.350984 0.601658 0.717508 
-0.065557 -0.219523 0.241049 -0.382005 0.471121 0.795058 
-0.07489 -0.230494 0.239049 -0.583485 0.301464 0.754099 
0.068314 -0.206816 -0.10389 0.415443 0.30066 -0.858493 
0.070058 -0.180747 -0.090513 0.436705 0.648421 -0.623569 
0.069948 -0.16636 -0.076298 0.457935 0.793357 -0.401099 
0.069985 -0.15451 -0.040698 0.517677 0.84008 -0.162103 
0.072286 -0.152723 -0.016688 0.637341 0.751822 -0.168999 
0.07591 -0.159097 0.04118 0.854687 0.517421 0.0422616 
0.075383 -0.167673 0.093987 0.818441 0.557409 0.139463 
0.072369 -0.176086 0.14327 0.675143 0.737677 -0.00389571 
0.063166 -0.188853 0.197967 0.298386 0.903059 0.308949 
0.061514 -0.198337 0.218997 0.303651 0.759884 0.574781 
0.063915 -0.208048 0.23324 0.334528 0.607142 0.720742 
0.067335 -0.219523 0.241049 0.364107 0.481893 0.796998 
0.076668 -0.230494 0.239049 0.57903 0.315412 0.751824 
-0.002928 -0.183917 0.180342 -0.00358596 0.969859 0.243641 
0.000453 -0.191345 0.211497 0.0254486 0.917474 0.39698 
0.001262 -0.204717 0.240165 0.0382721 0.7216 0.691251 
0.00168 -0.22998 0.26344 0.110824 0.341526 0.933316 
-0.001067 -0.249659 0.274772 0.0170752 0.0251343 0.999538 
-0.003856 -0.25789 0.277108 -0.000196071 -9.05936e-06 1 
-0.008987 -0.113929 -0.022953 -0.0249063 -0.623536 -0.781398 
-0.026619 -0.107433 -0.019454 -0.482893 -0.536212 -0.692309 
-0.044272 -0.099153 -0.00636 -0.834469 -0.384931 -0.394322 
-0.056539 -0.091447 0.00975 -0.959011 -0.279567 -0.0462527 
-0.05953 -0.08579 0.025856 -0.950373 -0.21997 0.220009 
-0.058388 -0.082757 0.035816 -0.909074 -0.175166 0.378023 
-0.054602 -0.081027 0.045567 -0.864421 -0.124342 0.48715 
-0.039868 -0.079584 0.064586 -0.730792 0.0290682 0.681981 
-0.025596 -0.081296 0.075007 -0.52915 0.150309 0.835109 
-0.001709 -0.087784 0.085861 -0.062987 0.22462 0.972409 
0.010766 -0.113929 -0.022953 0.314372 -0.62721 -0.712585 
0.028397 -0.107433 -0.019454 0.551726 -0.557868 -0.619985 
0.046051 -0.099153 -0.00636 0.797684 -0.450896 -0.400492 
0.058317 -0.091447 0.00975 0.937308 -0.332165 -0.105458 
0.061309 -0.08579 0.025856 0.953483 -0.25482 0.161052 
0.060166 -0.082757 0.035816 0.921887 -0.20015 0.33176 
0.05638 -0.081027 0.045567 0.883272 -0.140189 0.447413 
0.041647 -0.079584 0.064586 0.763504 0.0363134 0.644781 
0.027375 -0.081296 0.075007 0.552605 0.169598 0.816005 
0.003487 -0.087784 0.085861 0.0392646 0.278791 0.959549 
-0.04399 -0.098037 0.042529 -0.90818 -0.0365604 0.41698 
-0.035831 -0.105926 0.050272 -0.869776 0.049235 0.490985 
-0.031098 -0.117 0.056349 -0.845007 0.222298 0.48636 
-0.029565 -0.130778 0.061878 -0.815054 0.430915 0.387299 
-0.033428 -0.143517 0.065154 -0.785847 0.549696 0.283335 
-0.041631 -0.153751 0.065554 -0.787204 0.573123 0.227683 
-0.052872 -0.159806 0.06332 -0.816066 0.555582 0.159265 
-0.056979 -0.160322 0.062161 -0.821377 0.551164 0.146826 
-0.067392 -0.154275 0.059835 -0.826026 0.541293 0.157109 
0.045769 -0.098037 0.042529 0.937257 -0.0680092 0.341943 
0.03761 -0.105926 0.050272 0.91841 0.0482308 0.39268 
0.032877 -0.117 0.056349 0.895196 0.218972 0.38817 
0.031343 -0.130778 0.061878 0.849923 0.42596 0.310145 
0.035206 -0.143517 0.065154 0.804654 0.553582 0.214659 
0.043409 -0.153751 0.065554 0.800106 0.576289 0.166499 
0.05465 -0.159806 0.06332 0.82631 0.55339 0.104745 
0.058757 -0.160322 0.062161 0.830248 0.54935 0.0943496 
0.06917 -0.154275 0.059835 0.833018 0.543968 0.100894 
-0.002892 -0.147409 -0.007511 0.101868 0.430119 -0.897006 
-0.015741 -0.145578 -0.010415 0.0474804 0.445236 -0.894153 
-0.026058 -0.143961 -0.008499 -0.281792 0.517202 -0.808143 
-0.033659 -0.14301 -0.003672 -0.556295 0.524222 -0.644769 
-0.041005 -0.14297 0.007437 -0.782835 0.481793 -0.393757 
-0.045693 -0.143018 0.023684 -0.893963 0.445312 -0.0502668 
-0.046839 -0.142221 0.042689 -0.870344 0.451544 0.196493 
-0.04457 -0.140353 0.061999 -0.800513 0.538035 0.264001 
-0.039176 -0.137651 0.072714 -0.77608 0.555139 0.299201 
0.00467 -0.147409 -0.007511 0.159353 0.437013 -0.885226 
0.017519 -0.145578 -0.010415 0.271795 0.511208 -0.815348 
0.027837 -0.143961 -0.008499 0.404644 0.532405 -0.74351 
0.035438 -0.14301 -0.003672 0.533252 0.520489 -0.666883 
0.042784 -0.14297 0.007437 0.715671 0.499322 -0.488357 
0.047472 -0.143018 0.023684 0.863296 0.473455 -0.174815 
0.048618 -0.142221 0.042689 0.876877 0.471547 0.0934404 
0.046349 -0.140353 0.061999 0.816426 0.549314 0.178055 
0.040955 -0.137651 0.072714 0.794444 0.559769 0.235621 
-0.039247 -0.138137 0.066002 -0.792442 0.538095 0.287209 
-0.040149 -0.136102 0.071828 -0.78313 0.551751 0.286841 
-0.038661 -0.135229 0.077278 -0.737444 0.580063 0.345981 
-0.02889 -0.133958 0.091349 -0.546398 0.623098 0.55964 
-0.011436 -0.135173 0.103232 -0.199774 0.660596 0.723673 
0.005487 -0.139925 0.108904 -0.00705948 0.698397 0.715676 
0.041026 -0.138137 0.066002 0.810535 0.545314 0.213696 
0.041928 -0.136102 0.071828 0.799635 0.558548 0.220469 
0.04044 -0.135229 0.077278 0.760378 0.586526 0.278949 
0.030669 -0.133958 0.091349 0.552881 0.650026 0.521333 
0.013214 -0.135173 0.103232 0.144861 0.684257 0.714708 
-0.003709 -0.139925 0.108904 -0.101692 0.690719 0.715938 
-0.003518 -0.259259 -0.08775 -0.233723 -0.741033 -0.629479 
-0.028703 -0.252541 -0.090187 -0.0420538 -0.701795 -0.711137 
-0.050145 -0.241818 -0.093401 -0.114109 -0.47656 -0.871705 
-0.059582 -0.234192 -0.095087 -0.237207 -0.258609 -0.936405 
-0.063604 -0.228821 -0.096093 -0.329486 -0.0797374 -0.940788 
-0.068295 -0.214761 -0.099297 -0.411411 0.209666 -0.887007 
-0.069604 -0.210798 -0.102268 -0.415186 0.235581 -0.878705 
0.005297 -0.259259 -0.08775 -0.16917 -0.758505 -0.629326 
0.030482 -0.252541 -0.090187 0.00343711 -0.616225 -0.787563 
0.051924 -0.241818 -0.093401 0.202433 -0.375962 -0.904253 
0.061361 -0.234192 -0.095087 0.327275 -0.171572 -0.929222 
0.065383 -0.228821 -0.096093 0.39149 -0.0312271 -0.919652 
0.070073 -0.214761 -0.099297 0.446646 0.21137 -0.869385 
0.071383 -0.210798 -0.102268 0.444015 0.234565 -0.864771 
-0.005692 -0.262014 -0.008124 -0.0233387 -0.998191 0.0554155 
-0.030957 -0.267085 -0.009055 0.0590749 -0.995548 0.0734441 
-0.062195 -0.273621 -0.015394 -0.127584 -0.971765 0.198481 
-0.094041 -0.27465 -0.022635 -0.510682 -0.822457 0.250537 
0.007471 -0.262014 -0.008124 -0.0691645 -0.994441 0.0793881 
0.032735 -0.267085 -0.009055 -0.0742599 -0.987446 0.139414 
0.063973 -0.273621 -0.015394 0.147004 -0.960363 0.236841 
0.095819 -0.27465 -0.022635 0.526473 -0.808264 0.263694 
0.000933 -0.259894 0.098551 -0.00680393 -0.999006 0.0440501 
-0.033773 -0.267597 0.101995 -0.161637 -0.984806 0.0634905 
-0.062962 -0.273119 0.100726 -0.406596 -0.911427 0.0630916 
-0.078633 -0.273186 0.09857 -0.575193 -0.814196 0.0789815 
0.035551 -0.267597 0.101995 0.16482 -0.98456 0.0589541 
0.064741 -0.273119 0.100726 0.43438 -0.897775 0.0728903 
0.080412 -0.273186 0.09857 0.585901 -0.806239 0.0818495 
-0.081189 -0.256673 0.100204 -0.734762 -0.668261 0.116414 
-0.09521 -0.24752 0.094435 -0.912393 -0.388327 0.12939 
-0.105091 -0.235844 0.087374 -0.979598 -0.148951 0.134914 
-0.110848 -0.218512 0.080438 -0.987619 0.143409 0.0635742 
-0.109599 -0.21521 0.08018 -0.976984 0.203697 0.0633306 
-0.105445 -0.214123 0.080565 -0.965366 0.246903 0.0843094 
0.082968 -0.256673 0.100204 0.73449 -0.66905 0.113557 
0.096989 -0.24752 0.094435 0.910625 -0.392316 0.129809 
0.106869 -0.235844 0.087374 0.979011 -0.151118 0.136748 
0.112627 -0.218512 0.080438 0.98763 0.143673 0.0628092 
0.111378 -0.21521 0.08018 0.977318 0.202689 0.0613665 
0.107223 -0.214123 0.080565 0.965962 0.245545 0.0813903 
-0.000595 -0.262806 0.186048 -0.0144847 -0.998077 -0.0602631 
-0.086959 -0.265106 0.177961 -0.761669 -0.618695 -0.192552 
0.002374 -0.262806 0.186048 -0.0478393 -0.997121 -0.0588365 
0.088737 -0.265106 0.177961 0.781508 -0.593451 -0.192515 
-0.086603 -0.259173 0.183423 -0.804534 -0.567784 -0.174206 
-0.097697 -0.249462 0.18364 -0.899326 -0.391862 -0.194054 
-0.106319 -0.235524 0.181689 -0.973478 -0.144768 -0.177154 
-0.104369 -0.224405 0.17935 -0.986778 0.00441814 -0.16202 
-0.097266 -0.216357 0.178214 -0.981525 0.128153 -0.142077 
0.088382 -0.259173 0.183423 0.81831 -0.548363 -0.172239 
0.099476 -0.249462 0.18364 0.904633 -0.378882 -0.195161 
0.108098 -0.235524 0.181689 0.975592 -0.135769 -0.17259 
0.106147 -0.224405 0.17935 0.987725 0.0102938 -0.15586 
0.099044 -0.216357 0.178214 0.981766 0.130757 -0.13798 
-0.080135 -0.260921 0.098187 -0.693309 -0.712439 0.108411 
-0.086718 -0.257595 0.161991 -0.815468 -0.54568 -0.19299 
-0.09075 -0.258261 0.191079 -0.841527 -0.524236 -0.13042 
0.081914 -0.260921 0.098187 0.694313 -0.71161 0.107433 
0.088496 -0.257595 0.161991 0.825172 -0.530134 -0.195063 
0.092528 -0.258261 0.191079 0.849785 -0.511534 -0.127274 
-0.086983 -0.26036 0.187281 -0.806087 -0.57122 -0.154698 
-0.088832 -0.255227 0.216742 -0.923356 -0.340557 0.177298 
-0.088516 -0.248912 0.231597 -0.889747 -0.0993089 0.445519 
-0.086989 -0.243716 0.237812 -0.815685 0.0480374 0.576498 
-0.083859 -0.238368 0.241769 -0.716112 0.154658 0.680635 
-0.076588 -0.232141 0.24335 -0.579255 0.291492 0.761247 
-0.067 -0.226627 0.241393 -0.446165 0.405746 0.797689 
-0.059536 -0.225274 0.239876 -0.392983 0.444613 0.804912 
0.088761 -0.26036 0.187281 0.819341 -0.551717 -0.15585 
0.09061 -0.255227 0.216742 0.932142 -0.316071 0.176666 
0.090295 -0.248912 0.231597 0.88979 -0.0871842 0.447965 
0.088768 -0.243716 0.237812 0.81523 0.056305 0.576393 
0.085638 -0.238368 0.241769 0.716557 0.164378 0.677883 
0.078367 -0.232141 0.24335 0.576095 0.305557 0.758123 
0.068778 -0.226627 0.241393 0.429991 0.420673 0.798838 
0.061315 -0.225274 0.239876 0.363692 0.462271 0.808724 
-0.089233 -0.247175 0.236795 -0.853841 -0.00661219 0.520492 
-0.081712 -0.254286 0.257287 -0.688068 0.11889 0.71584 
-0.073012 -0.256127 0.264681 -0.546948 0.180092 0.817566 
-0.059914 -0.256501 0.271159 -0.346509 0.198599 0.916783 
-0.045265 -0.256214 0.275335 -0.166342 0.136439 0.976583 
-0.024913 -0.256468 0.276726 0.0221772 0.00784487 0.999723 
-0.007272 -0.257071 0.27582 0.0346404 0.0310897 0.998916 
0.007918 -0.258785 0.272135 -0.00845859 -0.113673 0.993482 
0.091012 -0.247175 0.236795 0.853152 0.00190938 0.521659 
0.08349 -0.254286 0.257287 0.698607 0.137218 0.702224 
0.07479 -0.256127 0.264681 0.560404 0.215186 0.799776 
0.061693 -0.256501 0.271159 0.363912 0.272322 0.890735 
0.047044 -0.256214 0.275335 0.134848 0.266482 0.95436 
0.026691 -0.256468 0.276726 -0.0278351 0.081928 0.996249 
0.00905 -0.257071 0.27582 -0.0101024 -0.0722961 0.997332 
-0.00614 -0.258785 0.272135 0.026833 -0.0787586 0.996533 
-0.089765 -0.261124 -0.004304 -0.596466 -0.724314 0.345829 
-0.086047 -0.258654 0.041088 -0.76064 -0.648371 0.0322802 
-0.080466 -0.260676 0.099739 -0.703767 -0.706272 0.0767601 
0.091543 -0.261124 -0.004304 0.60699 -0.709589 0.357836 
0.087826 -0.258654 0.041088 0.765483 -0.641531 0.0497417 
0.082245 -0.260676 0.099739 0.704205 -0.706059 0.0746651 
-0.000249 -0.258966 -0.08839 -0.216129 -0.751283 -0.623588 
-0.036657 -0.265952 -0.080774 0.0317526 -0.807819 -0.588575 
-0.060959 -0.268416 -0.079969 -0.0506327 -0.781169 -0.622263 
-0.084564 -0.271586 -0.082773 -0.238747 -0.71252 -0.659785 
0.002027 -0.258966 -0.08839 -0.172396 -0.760797 -0.625674 
0.038436 -0.265952 -0.080774 0.00569472 -0.818775 -0.574087 
0.062738 -0.268416 -0.079969 0.175329 -0.765397 -0.619216 
0.086342 -0.271586 -0.082773 0.317251 -0.704997 -0.634295 
-0.108817 -0.216889 -0.029469 -0.936791 0.334401 0.102949 
-0.113493 -0.224823 -0.024224 -0.959694 0.228603 0.163489 
-0.109754 -0.24137 -0.015698 -0.952784 -0.131831 0.273537 
-0.10082 -0.253392 -0.008515 -0.787415 -0.495458 0.366741 
-0.089313 -0.264352 -0.005499 -0.584035 -0.728809 0.357408 
0.110595 -0.216889 -0.029469 0.925612 0.362684 0.108174 
0.115272 -0.224823 -0.024224 0.952339 0.254066 0.16882 
0.111532 -0.24137 -0.015698 0.954774 -0.105033 0.278162 
0.102598 -0.253392 -0.008515 0.796787 -0.474654 0.373944 
0.091091 -0.264352 -0.005499 0.594213 -0.714426 0.369468 
-0.087669 -0.252718 -0.091318 -0.419993 -0.42459 -0.802078 
-0.09142 -0.234935 -0.098109 -0.567844 -0.0281729 -0.822654 
-0.090474 -0.222533 -0.099393 -0.582853 0.173922 -0.793747 
-0.087497 -0.214312 -0.097079 -0.578576 0.278298 -0.766681 
-0.078402 -0.211015 -0.086467 -0.584581 0.334209 -0.739303 
0.089448 -0.252718 -0.091318 0.474753 -0.386624 -0.790653 
0.093199 -0.234935 -0.098109 0.581684 0.00455194 -0.813402 
0.092253 -0.222533 -0.099393 0.592323 0.172738 -0.786966 
0.089275 -0.214312 -0.097079 0.595788 0.273723 -0.755058 
0.080181 -0.211015 -0.086467 0.60359 0.32902 -0.72624 
-0.08667 -0.260784 -0.087806 -0.333104 -0.568668 -0.752103 
-0.090476 -0.261505 -0.007049 -0.608358 -0.707543 0.35956 
0.088449 -0.260784 -0.087806 0.410762 -0.531774 -0.740602 
0.092255 -0.261505 -0.007049 0.619084 -0.692322 0.370709 
-0.0838 0.072651 0.006986 -0.961903 0.0646833 0.265628 
-0.116098 0.05279 0.005849 -0.98405 0.173961 0.0371772 
-0.122065 0.042193 0.00463 -0.991805 0.127071 -0.013224 
-0.122857 0.027921 0.004247 -0.998044 -0.0561711 -0.0274241 
-0.100814 -0.002532 0.013139 -0.851117 -0.466004 0.241745 
-0.061971 -0.034345 0.033951 -0.776928 -0.302164 0.55234 
-0.051256 -0.048259 0.042209 -0.758812 -0.190035 0.62297 
-0.044768 -0.067685 0.049596 -0.780343 -0.0948773 0.618112 
-0.046935 -0.090549 0.051897 -0.860692 -0.0378582 0.507716 
0.085578 0.072651 0.006986 0.962324 0.0584379 0.265551 
0.117877 0.05279 0.005849 0.984373 0.172617 0.0348384 
0.123843 0.042193 0.00463 0.992064 0.124743 -0.0157572 
0.124635 0.027921 0.004247 0.997636 -0.0611019 -0.0314544 
0.102593 -0.002532 0.013139 0.842931 -0.478821 0.245352 
0.063749 -0.034345 0.033951 0.770211 -0.319619 0.551923 
0.053034 -0.048259 0.042209 0.771426 -0.196878 0.605095 
0.046547 -0.067685 0.049596 0.805779 -0.103287 0.58314 
0.048713 -0.090549 0.051897 0.89506 -0.047339 0.443426 
-0.006449 0.304822 0.002961 -0.216063 0.814339 0.538674 
-0.028528 0.294938 0.014774 -0.439158 0.754773 0.487296 
-0.056466 0.278022 0.016853 -0.625957 0.707616 0.327807 
-0.08564 0.252135 0.01086 -0.837781 0.533778 0.114912 
-0.098131 0.22701 0.000511 -0.9356 0.353057 0.00185409 
-0.094215 0.200968 -0.020758 -0.953238 0.217999 -0.209315 
-0.079332 0.173875 -0.04833 -0.858334 0.101321 -0.502988 
-0.043717 0.126929 -0.088578 -0.485916 0.0992066 -0.868357 
-0.011561 0.080015 -0.119133 -0.150175 0.156349 -0.976218 
0.008227 0.304822 0.002961 0.112851 0.820306 0.56068 
0.030307 0.294938 0.014774 0.42108 0.754965 0.502712 
0.058245 0.278022 0.016853 0.645164 0.691349 0.325267 
0.087418 0.252135 0.01086 0.84726 0.52092 0.103892 
0.099909 0.22701 0.000511 0.936276 0.351234 -0.00468446 
0.095993 0.200968 -0.020758 0.951265 0.22317 -0.212813 
0.081111 0.173875 -0.04833 0.856644 0.109708 -0.504109 
0.045496 0.126929 -0.088578 0.493597 0.0749311 -0.866457 
0.01334 0.080015 -0.119133 0.172698 0.139948 -0.974982 
-0.009652 0.205651 -0.1099 -0.162757 -0.0823647 -0.983222 
-0.027965 0.219761 -0.100065 -0.432681 -0.0659135 -0.899134 
-0.043828 0.239727 -0.083368 -0.72021 0.0368176 -0.692779 
-0.052884 0.261349 -0.062198 -0.884181 0.314325 -0.345576 
-0.05557 0.276276 -0.045857 -0.873011 0.471623 -0.124194 
-0.051106 0.294746 -0.028262 -0.802532 0.591838 0.0753046 
-0.027674 0.310469 -0.006198 -0.491599 0.759495 0.426026 
-0.01811 0.312447 -0.002038 -0.349569 0.791438 0.501426 
0.011431 0.205651 -0.1099 0.122796 -0.0854121 -0.98875 
0.029744 0.219761 -0.100065 0.43583 -0.052731 -0.898483 
0.045607 0.239727 -0.083368 0.739114 0.0694628 -0.669989 
0.054663 0.261349 -0.062198 0.879984 0.30926 -0.360535 
0.057349 0.276276 -0.045857 0.875189 0.46024 -0.149077 
0.052885 0.294746 -0.028262 0.815232 0.577234 0.0468785 
0.029452 0.310469 -0.006198 0.502986 0.745806 0.436782 
0.019889 0.312447 -0.002038 0.324776 0.78556 0.526702 
-0.069124 0.079893 -0.081277 -0.754886 -0.0353123 -0.654905 
-0.089931 0.096281 -0.055711 -0.888205 -0.0452152 -0.457218 
-0.103226 0.119025 -0.02493 -0.982741 -0.0414481 -0.180285 
-0.10548 0.134338 -0.007448 -0.998709 -0.0494944 -0.0113898 
-0.095719 0.15773 0.021255 -0.913317 0.0153807 0.406959 
-0.082862 0.172229 0.041251 -0.733886 0.0250326 0.678811 
-0.06365 0.186398 0.057169 -0.569611 0.0504368 0.820365 
-0.024879 0.200051 0.071018 -0.250122 0.165794 0.953914 
0.010372 0.206366 0.079016 0.0679654 0.189012 0.97962 
0.070902 0.079893 -0.081277 0.74923 -0.0639592 -0.659214 
0.091709 0.096281 -0.055711 0.890676 -0.0638016 -0.450141 
0.105004 0.119025 -0.02493 0.982618 -0.0514503 -0.178367 
0.107259 0.134338 -0.007448 0.998283 -0.0573429 -0.0119794 
0.097498 0.15773 0.021255 0.912465 0.00961756 0.409041 
0.08464 0.172229 0.041251 0.728207 0.0173178 0.685138 
0.065428 0.186398 0.057169 0.574909 0.0306656 0.817643 
0.026657 0.200051 0.071018 0.242162 0.147647 0.958936 
-0.008594 0.206366 0.079016 -0.101461 0.199825 0.974564 
-0.036148 0.283161 -0.035285 -0.815497 0.577131 0.043408 
-0.05488 0.272696 -0.022066 -0.821123 0.569601 0.0362257 
-0.082554 0.246297 0.004961 -0.853861 0.515882 0.0691907 
-0.093918 0.224416 0.02106 -0.899935 0.318945 0.297306 
-0.093852 0.208095 0.031087 -0.864767 0.184089 0.467215 
-0.085506 0.185248 0.04107 -0.759448 0.0643102 0.647381 
-0.052321 0.146365 0.040924 -0.616555 0.0285789 0.786793 
0.037927 0.283161 -0.035285 0.825241 0.564386 0.0211109 
0.056659 0.272696 -0.022066 0.83179 0.555032 0.00799798 
0.084333 0.246297 0.004961 0.862228 0.503014 0.0595057 
0.095696 0.224416 0.02106 0.903539 0.316528 0.288837 
0.09563 0.208095 0.031087 0.866937 0.183907 0.463248 
0.087285 0.185248 0.04107 0.756996 0.0581329 0.650829 
0.0541 0.146365 0.040924 0.612501 0.0203658 0.790207 
-0.065199 0.152972 0.049527 -0.594775 0.00417853 0.803882 
-0.073673 0.132999 0.051775 -0.64009 0.0185081 0.768077 
-0.08432 0.113674 0.04429 -0.747347 0.00825845 0.664383 
-0.092193 0.093174 0.025884 -0.901947 0.0253624 0.431102 
-0.091896 0.074913 0.00383 -0.980458 0.0605274 0.187188 
0.066978 0.152972 0.049527 0.592813 -0.00787057 0.805302 
0.075451 0.132999 0.051775 0.633098 0.0120995 0.773977 
0.086098 0.113674 0.04429 0.741203 -0.00076433 0.67128 
0.093972 0.093174 0.025884 0.900777 0.0160685 0.433985 
0.093674 0.074913 0.00383 0.981053 0.0554377 0.18564 
-0.009333 -0.072772 -0.087982 -0.204365 -0.581355 -0.787566 
-0.028672 -0.04964 -0.079961 -0.511495 -0.423379 -0.747745 
-0.05881 -0.010978 -0.046583 -0.816115 -0.319836 -0.481313 
-0.07353 0.000289 -0.028488 -0.82817 -0.375211 -0.416354 
-0.090612 0.007557 -0.010843 -0.877245 -0.390847 -0.27871 
-0.127825 0.010846 0.021679 -0.921491 -0.285133 0.26373 
0.011111 -0.072772 -0.087982 0.177386 -0.602808 -0.777918 
0.03045 -0.04964 -0.079961 0.584927 -0.427538 -0.689255 
0.060588 -0.010978 -0.046583 0.806733 -0.343115 -0.481096 
0.075309 0.000289 -0.028488 0.821287 -0.384131 -0.421819 
0.092391 0.007557 -0.010843 0.873392 -0.396375 -0.282971 
0.129604 0.010846 0.021679 0.91862 -0.29369 0.264355 
-0.113765 0.013894 0.025389 -0.855218 -0.267595 0.443842 
-0.084546 0.025437 0.032683 -0.681841 -0.130785 0.719714 
-0.044123 0.02984 0.047601 -0.472615 -0.122349 0.872735 
-0.011249 0.026377 0.068347 -0.100607 -0.15252 0.983166 
0.00223 0.018986 0.085921 0.0154592 -0.0977663 0.995089 
0.115543 0.013894 0.025389 0.850672 -0.276698 0.446984 
0.086324 0.025437 0.032683 0.667868 -0.141166 0.73077 
0.045902 0.02984 0.047601 0.451246 -0.134277 0.88224 
0.013028 0.026377 0.068347 0.193389 -0.146107 0.970182 
-0.000452 0.018986 0.085921 0.0146365 -0.0969266 0.995184 
-0.003089 0.281175 -0.122916 -0.0814798 -0.401483 -0.912235 
-0.023165 0.287278 -0.115891 -0.541951 -0.289587 -0.788942 
-0.039525 0.296226 -0.104976 -0.873935 -0.107706 -0.473959 
-0.050233 0.309487 -0.090061 -0.985781 0.0705917 -0.152491 
-0.051795 0.318395 -0.080769 -0.980069 0.196569 0.0287191 
-0.049287 0.32668 -0.072202 -0.937688 0.304174 0.167988 
-0.041066 0.336101 -0.063606 -0.820184 0.458472 0.342201 
-0.019429 0.345668 -0.053849 -0.460824 0.696341 0.550228 
0.006275 0.349117 -0.044436 0.0416973 0.785288 0.617725 
0.004868 0.281175 -0.122916 0.0570366 -0.40565 -0.912247 
0.024944 0.287278 -0.115891 0.56848 -0.294364 -0.768232 
0.041303 0.296226 -0.104976 0.883296 -0.0943134 -0.459232 
0.052011 0.309487 -0.090061 0.982034 0.0716543 -0.174569 
0.053573 0.318395 -0.080769 0.982887 0.1839 -0.010708 
0.051065 0.32668 -0.072202 0.946512 0.295081 0.130545 
0.042845 0.336101 -0.063606 0.844237 0.444497 0.299478 
0.021207 0.345668 -0.053849 0.491829 0.702568 0.514297 
-0.004496 0.349117 -0.044436 -0.203162 0.761172 0.615908 
-0.009409 0.399799 -0.274234 -0.291622 -0.948728 -0.121952 
-0.039108 0.410403 -0.270256 -0.889919 -0.456029 -0.0089721 
-0.046436 0.419643 -0.267288 -0.978229 -0.202197 0.0467254 
-0.047592 0.427286 -0.2654 -0.996945 -0.0205758 0.0753444 
-0.037348 0.44121 -0.262337 -0.893599 0.428229 0.134539 
-0.006669 0.45056 -0.256163 -0.220567 0.955495 0.195908 
0.011187 0.399799 -0.274234 0.165143 -0.976463 -0.138739 
0.040886 0.410403 -0.270256 0.897705 -0.440565 0.00521731 
0.048215 0.419643 -0.267288 0.988203 -0.143619 0.0531859 
0.049371 0.427286 -0.2654 0.997168 0.0354653 0.0663159 
0.039127 0.44121 -0.262337 0.871117 0.480056 0.103446 
0.008448 0.45056 -0.256163 0.154315 0.970497 0.185264 
-0.006657 0.386716 -0.223239 -0.285635 -0.909152 -0.303075 
-0.024099 0.39351 -0.219746 -0.790826 -0.586342 -0.175491 
-0.031302 0.398581 -0.21687 -0.911364 -0.395826 -0.112861 
-0.036707 0.407205 -0.211136 -0.988419 -0.149924 -0.0234605 
-0.037311 0.416224 -0.204303 -0.988166 0.125519 0.088169 
-0.034866 0.424368 -0.199101 -0.921642 0.351356 0.164698 
-0.027791 0.4318 -0.193772 -0.74583 0.617446 0.249995 
-0.011346 0.435753 -0.18884 -0.340326 0.886208 0.314347 
-0.00198 0.434772 -0.18679 -0.147031 0.936694 0.317784 
0.008436 0.386716 -0.223239 0.0825679 -0.92726 -0.365202 
0.025877 0.39351 -0.219746 0.754954 -0.610194 -0.240223 
0.03308 0.398581 -0.21687 0.904885 -0.399159 -0.147836 
0.038486 0.407205 -0.211136 0.990982 -0.13033 -0.0311376 
0.039089 0.416224 -0.204303 0.980447 0.176341 0.0873366 
0.036645 0.424368 -0.199101 0.900023 0.406455 0.157329 
0.029569 0.4318 -0.193772 0.703955 0.668385 0.240227 
0.013125 0.435753 -0.18884 0.23369 0.916668 0.324205 
0.003758 0.434772 -0.18679 0.0122802 0.947313 0.320075 
-0.003476 0.352017 -0.166947 -0.152322 -0.757433 -0.634896 
-0.007379 0.351443 -0.163164 -0.269416 -0.733826 -0.62363 
-0.023664 0.358192 -0.155194 -0.820552 -0.472453 -0.321685 
-0.033251 0.368836 -0.145887 -0.992998 -0.101377 -0.0606375 
-0.034983 0.378056 -0.139017 -0.991315 0.0904081 0.0955078 
-0.022798 0.399742 -0.125183 -0.658872 0.586727 0.470786 
-0.008405 0.404645 -0.122297 -0.270615 0.745575 0.609004 
0.004671 0.406304 -0.118153 0.0927834 0.763143 0.639534 
0.005254 0.352017 -0.166947 0.0985824 -0.746582 -0.657949 
0.009158 0.351443 -0.163164 0.18195 -0.72819 -0.660783 
0.025443 0.358192 -0.155194 0.820343 -0.466027 -0.331446 
0.035029 0.368836 -0.145887 0.990334 -0.13841 0.00906626 
0.036761 0.378056 -0.139017 0.981377 0.0480642 0.185979 
0.024577 0.399742 -0.125183 0.633164 0.577804 0.51502 
0.010184 0.404645 -0.122297 0.234347 0.736018 0.635106 
-0.002893 0.406304 -0.118153 -0.114745 0.768342 0.62967 
-0.005977 0.447397 -0.346495 -0.321897 0.591833 -0.738997 
-0.020825 0.447774 -0.338399 -0.570007 0.550684 -0.609786 
-0.032729 0.447535 -0.326807 -0.738571 0.469412 -0.483906 
-0.040046 0.445396 -0.314227 -0.864218 0.374177 -0.336332 
-0.045056 0.440303 -0.29914 -0.955171 0.234447 -0.180783 
-0.045114 0.420446 -0.255617 -0.985141 -0.145341 0.0915007 
-0.037232 0.413224 -0.218403 -0.997007 -0.0732434 0.0247315 
-0.035126 0.40296 -0.175472 -0.989904 0.139834 0.0231828 
-0.038478 0.391246 -0.15646 -0.99064 0.124742 0.055425 
-0.031623 0.376061 -0.135484 -0.982425 0.107213 0.152793 
0.007755 0.447397 -0.346495 -0.00691832 0.671399 -0.741064 
0.022603 0.447774 -0.338399 0.382667 0.727949 -0.568908 
0.034507 0.447535 -0.326807 0.637592 0.679785 -0.362448 
0.041824 0.445396 -0.314227 0.81025 0.557248 -0.181577 
0.046834 0.440303 -0.29914 0.9253 0.37697 -0.0414017 
0.046892 0.420446 -0.255617 0.992161 -0.09945 0.0756662 
0.03901 0.413224 -0.218403 0.999449 -0.0331813 0.000889597 
0.036905 0.40296 -0.175472 0.984869 0.162968 0.0589383 
0.040256 0.391246 -0.15646 0.98822 0.111918 0.104386 
0.033401 0.376061 -0.135484 0.970929 0.0722426 0.228204 
-0.031082 0.377989 -0.139615 -0.98984 0.114007 0.0849654 
-0.035289 0.371536 -0.12817 -0.985282 0.131623 0.109064 
-0.039747 0.360402 -0.117137 -0.985537 0.140174 0.0952256 
-0.045905 0.326336 -0.097386 -0.981816 0.154607 -0.110152 
-0.055035 0.309967 -0.094266 -0.980406 0.057525 -0.188403 
0.032861 0.377989 -0.139615 0.982141 0.0736028 0.173151 
0.037067 0.371536 -0.12817 0.978447 0.103596 0.178633 
0.041526 0.360402 -0.117137 0.985417 0.119958 0.12068 
0.047684 0.326336 -0.097386 0.980232 0.14268 -0.137068 
0.056814 0.309967 -0.094266 0.977119 0.0584626 -0.204503 
-0.053061 0.309727 -0.091494 -0.983355 0.0651029 -0.169631 
-0.050843 0.308335 -0.074548 -0.980068 0.196871 0.026606 
-0.045027 0.302876 -0.059763 -0.934116 0.33104 0.133567 
-0.034401 0.286557 -0.041097 -0.847479 0.526111 0.0706227 
-0.034119 0.280635 -0.037204 -0.828383 0.55941 0.0290064 
-0.036403 0.279419 -0.038733 -0.842086 0.539343 0.000223037 
0.054839 0.309727 -0.091494 0.979665 0.0658616 -0.189521 
0.052621 0.308335 -0.074548 0.98433 0.176305 -0.00321679 
0.046805 0.302876 -0.059763 0.94474 0.312427 0.0992759 
0.036179 0.286557 -0.041097 0.858622 0.510389 0.0476628 
0.035898 0.280635 -0.037204 0.839346 0.543566 0.0058209 
0.038182 0.279419 -0.038733 0.854526 0.518509 -0.0305696 
-0.089593 -0.192553 -0.026085 -0.814624 0.579432 0.0254231 
-0.077239 -0.190834 0.005176 -0.86736 0.48962 0.0892136 
-0.068425 -0.192113 0.032185 -0.887188 0.446501 0.116336 
-0.065608 -0.192914 0.045557 -0.892617 0.437855 0.107324 
-0.06354 -0.194769 0.072611 -0.889768 0.444072 0.105418 
-0.06427 -0.19579 0.091054 -0.878314 0.465225 0.110136 
-0.068499 -0.195885 0.119457 -0.84689 0.531533 0.0158076 
-0.077008 -0.194357 0.148374 -0.779769 0.60852 -0.147185 
-0.0828 -0.196863 0.168272 -0.7503 0.634655 -0.185104 
-0.086205 -0.195705 0.172805 -0.739429 0.647686 -0.183705 
0.091372 -0.192553 -0.026085 0.781792 0.621718 0.04762 
0.079017 -0.190834 0.005176 0.825021 0.560976 0.0681702 
0.070203 -0.192113 0.032185 0.869203 0.489304 0.071193 
0.067386 -0.192914 0.045557 0.886891 0.456422 0.0714293 
0.065318 -0.194769 0.072611 0.894453 0.438401 0.0880793 
0.066049 -0.19579 0.091054 0.885941 0.455019 0.089816 
0.070277 -0.195885 0.119457 0.860505 0.509076 0.0193044 
0.078787 -0.194357 0.148374 0.79674 0.587978 -0.139601 
0.084579 -0.196863 0.168272 0.761249 0.623868 -0.176887 
0.087984 -0.195705 0.172805 0.749097 0.638346 -0.177111 
