ply
format ascii 1.0
element vertex 615
property float x
property float y
property float z
property float nx
property float ny
property float nz
end_header
-0.006369 0.460308 -0.316504 -0.260465 0.89671 -0.357868 
-0.011684 0.451671 -0.335961 -0.385337 0.659182 -0.645751 
-0.015161 0.440969 -0.346939 -0.492854 0.371165 -0.786976 
-0.017675 0.429936 -0.350241 -0.58464 0.0460439 -0.809985 
-0.018141 0.416283 -0.348157 -0.622374 -0.307561 -0.719762 
-0.015642 0.408034 -0.33412 -0.619934 -0.527884 -0.580535 
-0.008427 0.390989 -0.277514 -0.290809 -0.954427 -0.0670744 
-0.006203 0.400591 -0.28521 -0.317233 -0.946835 -0.053549 
-0.005222 0.396669 -0.254697 -0.366934 -0.921696 -0.125841 
-0.010291 0.376127 -0.215511 -0.635728 -0.604765 -0.479697 
-0.011227 0.337512 -0.168687 -0.376613 -0.501246 -0.779047 
-0.011665 0.310449 -0.144801 -0.31797 -0.632851 -0.705971 
-0.008997 0.271806 -0.124082 -0.197329 -0.390805 -0.899073 
-0.006997 0.239901 -0.111792 -0.181818 -0.207608 -0.961166 
-0.001121 0.186244 -0.10649 -0.0560446 -0.0123923 -0.998351 
0.001918 0.156172 -0.110922 0.0139446 0.00479432 -0.999891 
-0.007589 0.175128 -0.105222 -0.137525 -0.00269463 -0.990495 
-0.012045 0.089447 -0.124294 -0.107342 0.0939 -0.989778 
-0.013327 0.049782 -0.128561 -0.116938 0.077368 -0.990121 
-0.012768 0.014372 -0.127924 -0.216761 -0.13479 -0.966875 
-0.013775 -0.033009 -0.117618 -0.2814 -0.399783 -0.872346 
-0.011641 -0.069535 -0.099101 -0.230869 -0.55136 -0.801687 
-0.010936 -0.093902 -0.079221 -0.159471 -0.699552 -0.696561 
-0.013661 -0.106611 -0.055806 -0.143734 -0.741625 -0.655235 
-0.013846 -0.125082 -0.006093 -0.16683 -0.194142 -0.966683 
-0.002089 -0.090016 0.087647 -0.031803 0.0717231 0.996917 
-0.005629 -0.127047 0.093337 -0.140791 0.586138 0.797885 
-0.005343 -0.145709 0.101157 -0.144581 0.734621 0.662894 
-0.005112 -0.159887 0.111408 -0.137519 0.822731 0.551545 
-0.004232 -0.17134 0.125062 -0.110303 0.898194 0.425535 
-0.004435 -0.183178 0.147728 -0.0698784 0.976412 0.204296 
-0.001154 -0.192069 0.186581 -0.0180643 0.976189 0.216168 
-0.003869 -0.257947 0.186656 0.0153604 -0.998997 -0.04206 
-0.00475 -0.255763 0.228482 0.0115185 -0.610968 0.791572 
-0.005699 -0.257184 0.269102 -0.0234511 -0.00940523 0.999681 
-0.00238 0.459818 -0.313753 -0.193167 0.924688 -0.328082 
-0.002946 0.458471 -0.286827 -0.216583 0.974266 0.0624342 
0.001273 0.442004 -0.21091 -0.141362 0.958971 0.245746 
-0.003784 0.419747 -0.148294 -0.229763 0.890242 0.39329 
-0.009062 0.402964 -0.113956 -0.225949 0.697668 0.679858 
-0.014171 0.373372 -0.068307 -0.28645 0.776006 0.561926 
-0.014685 0.359604 -0.055494 -0.305471 0.786659 0.536521 
-0.011671 0.342699 -0.051523 -0.297993 0.810313 0.504572 
-0.004063 0.346903 -0.041726 -0.135897 0.827701 0.544466 
-0.008523 0.336921 -0.024201 -0.16411 0.806891 0.567446 
-0.009742 0.320786 -0.000888 -0.15814 0.790328 0.591924 
-0.011092 0.279083 0.038738 -0.183952 0.666436 0.722513 
-0.01131 0.242817 0.061491 -0.150676 0.421667 0.894144 
-0.008809 0.201259 0.078675 -0.0589547 0.152182 0.986593 
-0.006099 0.16419 0.085946 -0.0677186 0.0570815 0.99607 
-0.002644 0.138857 0.086661 -0.0257245 0.00522817 0.999655 
0.005704 0.049803 0.071112 0.0636692 -0.0734877 0.995262 
0.00429 -0.015733 0.06273 0.0378657 -0.0461104 0.998218 
0.003627 -0.041292 0.065832 0.0307725 0.0719253 0.996935 
-0.004349 -0.081422 0.085888 -0.0346043 0.0988218 0.994503 
-0.000101 -0.260332 0.180117 -0.0337332 -0.998708 -0.0379972 
-0.004447 -0.254593 0.116614 -0.0648282 -0.997841 0.0105398 
-0.003023 -0.249512 0.017945 -0.0190386 -0.995716 -0.0904848 
-0.005149 -0.251082 -0.027258 -0.0294886 -0.999564 -0.00164511 
-0.007753 -0.260519 -0.09259 -0.0901344 -0.668753 -0.738001 
-0.006969 -0.182109 -0.081326 -0.00611585 0.764724 -0.644329 
-0.002215 -0.177171 -0.041016 0.0294019 0.915468 -0.401316 
-0.000857 -0.160393 -0.009595 0.119959 0.582391 -0.804009 
7.9e-05 -0.147295 -0.003159 0.12404 0.274363 -0.953593 
-0.000311 -0.135919 -0.004036 -3.64689e-17 -1.16909e-16 -1 
-0.00083 -0.124319 -0.012211 0.0126966 -0.247378 -0.968836 
-0.004161 -0.116521 -0.027279 0.000347878 -0.511332 -0.859383 
-0.00227 -0.176272 -0.078526 -0.0072806 0.84055 -0.541686 
-0.0061 -0.18811 -0.103103 -0.0506089 0.599922 -0.798456 
-0.006735 -0.208333 -0.112346 -0.0760217 0.156576 -0.984736 
-0.006508 -0.232464 -0.108983 -0.0785 -0.272064 -0.959072 
-0.001384 -0.261109 -0.092057 -0.100367 -0.667559 -0.737761 
-0.005896 0.077472 -0.116419 -0.017979 0.0835055 -0.996345 
-0.037508 0.074068 -0.10312 -0.463993 0.0497808 -0.884439 
-0.062066 0.073954 -0.076552 -0.717473 -0.0018638 -0.696584 
-0.080239 0.076565 -0.038293 -0.941198 -1.15264e-16 -0.337855 
-0.083591 0.080896 0.005729 -0.952728 -1.16676e-16 0.303825 
-0.078586 0.083414 0.028302 -0.837427 -1.02555e-16 0.546549 
-0.06647 0.084519 0.044746 -0.704261 -8.62471e-17 0.709941 
-0.037459 0.081915 0.064248 -0.416066 -0.0643486 0.907055 
0.015481 0.070674 0.092899 0.159254 -0.0653719 0.985071 
0.007675 0.077472 -0.116419 0.0898708 0.0758907 -0.993058 
0.039286 0.074068 -0.10312 0.44537 0.00782608 -0.895312 
0.063845 0.073954 -0.076552 0.709519 -0.0288769 -0.704094 
0.082017 0.076565 -0.038293 0.933141 -0.0148372 -0.359204 
0.08537 0.080896 0.005729 0.95475 0.0754725 0.287676 
0.080364 0.083414 0.028302 0.831425 0.0419268 0.554053 
0.068249 0.084519 0.044746 0.685237 0.0254883 0.727874 
0.039238 0.081915 0.064248 0.392556 -0.0707604 0.917002 
-0.013703 0.070674 0.092899 -0.171161 -0.0700308 0.982751 
-0.011866 -0.198561 -0.113587 -0.0502011 0.328 -0.943343 
-0.052293 -0.210279 -0.115514 -0.148174 -1.81461e-17 -0.988961 
-0.067571 -0.216455 -0.11175 -0.224285 -2.74669e-17 -0.974524 
-0.08863 -0.222975 -0.096381 -0.527107 0.0136045 -0.84969 
-0.105257 -0.226471 -0.072732 -0.860301 0.0581485 -0.506459 
-0.112116 -0.226685 -0.051094 -0.988887 0.0922674 -0.116577 
-0.114665 -0.227672 -0.017895 -0.97858 0.0395028 0.20204 
-0.104144 -0.233137 0.086924 -0.985068 -0.170735 0.0221454 
0.013645 -0.198561 -0.113587 -0.0227341 0.332637 -0.942781 
0.054072 -0.210279 -0.115514 0.146611 -0.0163871 -0.989058 
0.06935 -0.216455 -0.11175 0.262064 0.0316991 -0.96453 
0.090409 -0.222975 -0.096381 0.539739 0.087248 -0.837299 
0.107036 -0.226471 -0.072732 0.868848 0.102167 -0.484422 
0.113894 -0.226685 -0.051094 0.985368 0.133579 -0.105863 
0.116444 -0.227672 -0.017895 0.975198 0.0838668 0.20483 
0.105922 -0.233137 0.086924 0.99227 -0.119717 0.0326821 
-0.103405 -0.2127 0.078479 -0.981005 0.176266 0.0809942 
-0.116732 -0.202243 0.173762 -0.951323 0.256211 -0.171293 
-0.112327 -0.20028 0.198641 -0.932072 0.352061 0.0854157 
-0.100475 -0.199276 0.223898 -0.736625 0.477237 0.479196 
-0.08694 -0.200976 0.237925 -0.48445 0.510385 0.710504 
-0.066402 -0.207582 0.249802 -0.184048 0.456446 0.870508 
-0.024592 -0.225813 0.26309 -0.109357 0.208782 0.971829 
0.001843 -0.239792 0.267823 0.000420696 -0.000832695 1 
0.105183 -0.2127 0.078479 0.962363 0.261449 0.0741827 
0.11851 -0.202243 0.173762 0.927601 0.332615 -0.170072 
0.114106 -0.20028 0.198641 0.909106 0.413777 0.04812 
0.102253 -0.199276 0.223898 0.731165 0.514797 0.44764 
0.088719 -0.200976 0.237925 0.480978 0.532593 0.696423 
0.06818 -0.207582 0.249802 0.173609 0.467154 0.866964 
0.026371 -0.225813 0.26309 0.115785 0.207795 0.971296 
-6.4e-05 -0.239792 0.267823 0.000311633 0.000417189 1 
-0.004972 -0.185599 0.17691 -0.0192573 0.980576 0.195193 
-0.039122 -0.176569 0.175807 -0.118771 0.98485 0.126345 
-0.072862 -0.18056 0.175967 -0.49415 0.869354 -0.00630836 
-0.084574 -0.193809 0.174852 -0.709908 0.69312 -0.12496 
-0.092813 -0.223231 0.176102 -0.985521 -0.00581046 -0.169454 
0.006751 -0.185599 0.17691 -0.0359974 0.979401 0.19869 
0.0409 -0.176569 0.175807 0.158185 0.974025 0.16203 
0.074641 -0.18056 0.175967 0.536214 0.843999 0.0118393 
0.086352 -0.193809 0.174852 0.733021 0.672999 -0.0987564 
0.094592 -0.223231 0.176102 0.975769 0.133553 -0.173318 
-0.003557 -0.163924 -0.034848 0.0414571 0.86956 -0.492084 
-0.032706 -0.154327 -0.032733 -0.0410616 0.815786 -0.576895 
-0.059023 -0.158723 -0.031164 -0.400179 0.859582 -0.317768 
-0.070945 -0.169482 -0.030435 -0.590723 0.792315 -0.152589 
-0.100004 -0.21539 -0.024976 -0.956668 0.250061 0.149183 
0.005336 -0.163924 -0.034848 0.0328121 0.87658 -0.480137 
0.034485 -0.154327 -0.032733 0.177886 0.85538 -0.4865 
0.060801 -0.158723 -0.031164 0.384372 0.893625 -0.231718 
0.072724 -0.169482 -0.030435 0.552889 0.827875 -0.0945308 
0.101782 -0.21539 -0.024976 0.938327 0.310918 0.151237 
-0.066535 -0.206816 -0.10389 -0.271666 0.224963 -0.935729 
-0.06828 -0.180747 -0.090513 -0.314268 0.65149 -0.690505 
-0.068169 -0.16636 -0.076298 -0.338317 0.811629 -0.476234 
-0.068207 -0.15451 -0.040698 -0.478146 0.832946 -0.278528 
-0.070507 -0.152723 -0.016688 -0.677093 0.711414 -0.188243 
-0.074131 -0.159097 0.04118 -0.874428 0.464274 0.140803 
-0.073604 -0.167673 0.093987 -0.74414 0.641495 0.186388 
-0.07059 -0.176086 0.14327 -0.599909 0.798477 -0.0504266 
-0.061387 -0.188853 0.197967 -0.326319 0.906824 0.266809 
-0.059735 -0.198337 0.218997 -0.247261 0.741955 0.623189 
-0.062136 -0.208048 0.23324 -0.168045 0.554941 0.81474 
-0.065557 -0.219523 0.241049 -0.168518 0.394569 0.903281 
-0.07489 -0.230494 0.239049 -0.462303 0.210541 0.861364 
0.068314 -0.206816 -0.10389 0.324667 0.227679 -0.918016 
0.070058 -0.180747 -0.090513 0.369117 0.658448 -0.655895 
0.069948 -0.16636 -0.076298 0.370595 0.846652 -0.38189 
0.069985 -0.15451 -0.040698 0.460654 0.865132 -0.198357 
0.072286 -0.152723 -0.016688 0.637575 0.75871 -0.133629 
0.07591 -0.159097 0.04118 0.870814 0.48594 0.0744619 
0.075383 -0.167673 0.093987 0.777847 0.613803 0.13491 
0.072369 -0.176086 0.14327 0.640939 0.76718 -0.0251341 
0.063166 -0.188853 0.197967 0.353101 0.90097 0.252138 
0.061514 -0.198337 0.218997 0.245329 0.75862 0.60358 
0.063915 -0.208048 0.23324 0.159934 0.569796 0.806073 
0.067335 -0.219523 0.241049 0.174733 0.40224 0.898706 
0.076668 -0.230494 0.239049 0.444001 0.214865 0.869883 
-0.002928 -0.183917 0.180342 -0.0192144 0.979606 0.200009 
0.000453 -0.191345 0.211497 -0.00412569 0.891544 0.452916 
0.001262 -0.204717 0.240165 0.0180384 0.594359 0.803997 
0.00168 -0.22998 0.26344 -0.00151314 0.121873 0.992545 
-0.001067 -0.249659 0.274772 -0.00658004 -0.0229082 0.999716 
-0.003856 -0.25789 0.277108 0.0056707 -0.027803 0.999597 
-0.008987 -0.113929 -0.022953 -0.0911013 -0.527103 -0.844904 
-0.026619 -0.107433 -0.019454 -0.467292 -0.469474 -0.749154 
-0.044272 -0.099153 -0.00636 -0.813931 -0.341645 -0.469888 
-0.056539 -0.091447 0.00975 -0.965083 -0.241503 -0.101442 
-0.05953 -0.08579 0.025856 -0.968677 -0.154246 0.194609 
-0.058388 -0.082757 0.035816 -0.929463 -0.0813893 0.359825 
-0.054602 -0.081027 0.045567 -0.882417 1.08065e-16 0.470468 
-0.039868 -0.079584 0.064586 -0.699272 -8.56362e-17 0.714855 
-0.025596 -0.081296 0.075007 -0.477964 0.0538211 0.876729 
-0.001709 -0.087784 0.085861 0.0200146 0.0102598 0.999747 
0.010766 -0.113929 -0.022953 0.204529 -0.496042 -0.843866 
0.028397 -0.107433 -0.019454 0.541806 -0.435903 -0.718634 
0.046051 -0.099153 -0.00636 0.831132 -0.347063 -0.434473 
0.058317 -0.091447 0.00975 0.951267 -0.289812 -0.10536 
0.061309 -0.08579 0.025856 0.957365 -0.219533 0.187767 
0.060166 -0.082757 0.035816 0.920695 -0.17146 0.350603 
0.05638 -0.081027 0.045567 0.882863 -0.129462 0.451433 
0.041647 -0.079584 0.064586 0.739275 -0.013607 0.673266 
0.027375 -0.081296 0.075007 0.524207 0.0796544 0.847857 
0.003487 -0.087784 0.085861 0.0597565 0.0826082 0.994789 
-0.04399 -0.098037 0.042529 -0.895437 -0.0427901 0.443128 
-0.035831 -0.105926 0.050272 -0.814786 -9.97825e-17 0.579762 
-0.031098 -0.117 0.056349 -0.777715 0.185539 0.600612 
-0.029565 -0.130778 0.061878 -0.751539 0.38574 0.535158 
-0.033428 -0.143517 0.065154 -0.733917 0.501538 0.458067 
-0.041631 -0.153751 0.065554 -0.750753 0.540442 0.379859 
-0.052872 -0.159806 0.06332 -0.780901 0.549718 0.296653 
-0.056979 -0.160322 0.062161 -0.791569 0.54631 0.273797 
-0.067392 -0.154275 0.059835 -0.814897 0.519596 0.256832 
0.045769 -0.098037 0.042529 0.918344 -0.0357293 0.394168 
0.03761 -0.105926 0.050272 0.872564 0.0611757 0.484654 
0.032877 -0.117 0.056349 0.831714 0.225217 0.507474 
0.031343 -0.130778 0.061878 0.793074 0.40043 0.459009 
0.035206 -0.143517 0.065154 0.774103 0.506432 0.379856 
0.043409 -0.153751 0.065554 0.786902 0.541735 0.29548 
0.05465 -0.159806 0.06332 0.814355 0.539186 0.21472 
0.058757 -0.160322 0.062161 0.822003 0.535353 0.194187 
0.06917 -0.154275 0.059835 0.835194 0.51913 0.181537 
-0.002892 -0.147409 -0.007511 0.111167 0.275129 -0.954959 
-0.015741 -0.145578 -0.010415 0.0113266 0.372286 -0.928049 
-0.026058 -0.143961 -0.008499 -0.26269 0.43749 -0.859998 
-0.033659 -0.14301 -0.003672 -0.501882 0.439094 -0.745192 
-0.041005 -0.14297 0.007437 -0.778682 0.422345 -0.463982 
-0.045693 -0.143018 0.023684 -0.914328 0.402019 -0.0488419 
-0.046839 -0.142221 0.042689 -0.873509 0.411992 0.259316 
-0.04457 -0.140353 0.061999 -0.774072 0.473561 0.420181 
-0.039176 -0.137651 0.072714 -0.716298 0.500379 0.486352 
0.00467 -0.147409 -0.007511 0.158985 0.258933 -0.952721 
0.017519 -0.145578 -0.010415 0.143694 0.34055 -0.929181 
0.027837 -0.143961 -0.008499 0.367615 0.38121 -0.848256 
0.035438 -0.14301 -0.003672 0.592379 0.384198 -0.708152 
0.042784 -0.14297 0.007437 0.817188 0.346607 -0.460509 
0.047472 -0.143018 0.023684 0.920759 0.366167 -0.134629 
0.048618 -0.142221 0.042689 0.897332 0.412035 0.158184 
0.046349 -0.140353 0.061999 0.813124 0.479959 0.329346 
0.040955 -0.137651 0.072714 0.770236 0.502784 0.392358 
-0.039247 -0.138137 0.066002 -0.756231 0.467344 0.457934 
-0.040149 -0.136102 0.071828 -0.74357 0.478453 0.467104 
-0.038661 -0.135229 0.077278 -0.70075 0.501609 0.507285 
-0.02889 -0.133958 0.091349 -0.510047 0.597815 0.618441 
-0.011436 -0.135173 0.103232 -0.20173 0.698125 0.686969 
0.005487 -0.139925 0.108904 -0.015638 0.759789 0.649982 
0.041026 -0.138137 0.066002 0.797166 0.477507 0.369477 
0.041928 -0.136102 0.071828 0.756416 0.513862 0.404698 
0.04044 -0.135229 0.077278 0.736969 0.520622 0.431078 
0.030669 -0.133958 0.091349 0.517891 0.640619 0.566918 
0.013214 -0.135173 0.103232 0.136579 0.726577 0.673373 
-0.003709 -0.139925 0.108904 -0.106581 0.751514 0.65105 
-0.003518 -0.259259 -0.08775 -0.0879533 -0.693858 -0.71472 
-0.028703 -0.252541 -0.090187 -0.035898 -0.579627 -0.81409 
-0.050145 -0.241818 -0.093401 -0.0534177 -0.396901 -0.916306 
-0.059582 -0.234192 -0.095087 -0.0806912 -0.274608 -0.958165 
-0.063604 -0.228821 -0.096093 -0.114551 -0.196445 -0.9738 
-0.068295 -0.214761 -0.099297 -0.266046 0.120564 -0.956391 
-0.069604 -0.210798 -0.102268 -0.281192 0.185197 -0.941612 
0.005297 -0.259259 -0.08775 -0.0973137 -0.692078 -0.715233 
0.030482 -0.252541 -0.090187 0.0159556 -0.545594 -0.837898 
0.051924 -0.241818 -0.093401 0.0936104 -0.362942 -0.927098 
0.061361 -0.234192 -0.095087 0.122774 -0.256062 -0.958832 
0.065383 -0.228821 -0.096093 0.170928 -0.171253 -0.970287 
0.070073 -0.214761 -0.099297 0.323534 0.123164 -0.938166 
0.071383 -0.210798 -0.102268 0.343387 0.187689 -0.920249 
-0.005692 -0.262014 -0.008124 -0.00798988 -0.999422 0.0330408 
-0.030957 -0.267085 -0.009055 0.092896 -0.993388 0.0674593 
-0.062195 -0.273621 -0.015394 -0.165242 -0.973675 0.157012 
-0.094041 -0.27465 -0.022635 -0.555686 -0.806531 0.201794 
0.007471 -0.262014 -0.008124 -0.0953829 -0.994491 0.0434715 
0.032735 -0.267085 -0.009055 -0.0995436 -0.990408 0.095831 
0.063973 -0.273621 -0.015394 0.166153 -0.971779 0.167449 
0.095819 -0.27465 -0.022635 0.562439 -0.802967 0.197245 
0.000933 -0.259894 0.098551 -0.038324 -0.998396 0.0416665 
-0.033773 -0.267597 0.101995 -0.134351 -0.990319 0.0348897 
-0.062962 -0.273119 0.100726 -0.391696 -0.920063 0.00762314 
-0.078633 -0.273186 0.09857 -0.574387 -0.818514 0.0106608 
0.035551 -0.267597 0.101995 0.119651 -0.992787 0.00757236 
0.064741 -0.273119 0.100726 0.409367 -0.912315 0.00999824 
0.080412 -0.273186 0.09857 0.579762 -0.81454 0.0200005 
-0.081189 -0.256673 0.100204 -0.746541 -0.664192 0.0390573 
-0.09521 -0.24752 0.094435 -0.901575 -0.431938 0.0243409 
-0.105091 -0.235844 0.087374 -0.974431 -0.22397 0.0179363 
-0.110848 -0.218512 0.080438 -0.998395 -1.22268e-16 0.0566321 
-0.109599 -0.21521 0.08018 -0.99238 0.103167 0.0673625 
-0.105445 -0.214123 0.080565 -0.985785 0.144084 0.0864219 
0.082968 -0.256673 0.100204 0.74357 -0.666191 0.0573893 
0.096989 -0.24752 0.094435 0.907939 -0.417757 0.0335605 
0.106869 -0.235844 0.087374 0.981865 -0.18732 0.0292038 
0.112627 -0.218512 0.080438 0.987491 0.145755 0.0601479 
0.111378 -0.21521 0.08018 0.975186 0.210828 0.0675582 
0.107223 -0.214123 0.080565 0.968045 0.237911 0.0792913 
-0.000595 -0.262806 0.186048 -0.0294842 -0.998398 -0.0482998 
-0.086959 -0.265106 0.177961 -0.747001 -0.621136 -0.237021 
0.002374 -0.262806 0.186048 -0.0521177 -0.99756 -0.0464417 
0.088737 -0.265106 0.177961 0.760566 -0.613453 -0.212637 
-0.086603 -0.259173 0.183423 -0.800298 -0.555776 -0.225026 
-0.097697 -0.249462 0.18364 -0.922968 -0.339482 -0.181332 
-0.106319 -0.235524 0.181689 -0.978248 -0.130647 -0.161127 
-0.104369 -0.224405 0.17935 -0.986147 -0.0187283 -0.164813 
-0.097266 -0.216357 0.178214 -0.986168 -1.20771e-16 -0.165747 
0.088382 -0.259173 0.183423 0.808265 -0.554783 -0.197293 
0.099476 -0.249462 0.18364 0.926715 -0.340988 -0.157882 
0.108098 -0.235524 0.181689 0.985676 -0.080387 -0.148261 
0.106147 -0.224405 0.17935 0.982878 0.095192 -0.157766 
0.099044 -0.216357 0.178214 0.959971 0.226791 -0.16438 
-0.080135 -0.260921 0.098187 -0.722256 -0.691045 0.0283368 
-0.086718 -0.257595 0.161991 -0.793319 -0.567387 -0.22072 
-0.09075 -0.258261 0.191079 -0.860827 -0.476489 -0.178703 
0.081914 -0.260921 0.098187 0.71969 -0.692652 0.0477411 
0.088496 -0.257595 0.161991 0.801416 -0.55157 -0.231307 
0.092528 -0.258261 0.191079 0.866127 -0.480096 -0.139038 
-0.086983 -0.26036 0.187281 -0.800708 -0.557763 -0.218556 
-0.088832 -0.255227 0.216742 -0.939933 -0.290532 0.179214 
-0.088516 -0.248912 0.231597 -0.837326 1.02543e-16 0.546704 
-0.086989 -0.243716 0.237812 -0.734484 0.0333271 0.677807 
-0.083859 -0.238368 0.241769 -0.633095 0.0939376 0.768353 
-0.076588 -0.232141 0.24335 -0.463922 0.189536 0.865363 
-0.067 -0.226627 0.241393 -0.224755 0.314486 0.922271 
-0.059536 -0.225274 0.239876 -0.160718 0.353745 0.921431 
0.088761 -0.26036 0.187281 0.810835 -0.555127 -0.185419 
0.09061 -0.255227 0.216742 0.912059 -0.328513 0.245412 
0.090295 -0.248912 0.231597 0.814703 -0.139478 0.562854 
0.088768 -0.243716 0.237812 0.713552 -0.0184614 0.700359 
0.085638 -0.238368 0.241769 0.605917 0.0779214 0.791702 
0.078367 -0.232141 0.24335 0.447986 0.18798 0.874055 
0.068778 -0.226627 0.241393 0.220865 0.322556 0.920422 
0.061315 -0.225274 0.239876 0.152668 0.363148 0.919139 
-0.089233 -0.247175 0.236795 -0.784739 -9.61028e-17 0.619826 
-0.081712 -0.254286 0.257287 -0.56995 0.102192 0.8153 
-0.073012 -0.256127 0.264681 -0.369602 0.142491 0.9182 
-0.059914 -0.256501 0.271159 -0.141779 0.138078 0.980221 
-0.045265 -0.256214 0.275335 -0.0274502 0.0885881 0.99569 
-0.024913 -0.256468 0.276726 0.000171352 0.00236308 0.999997 
-0.007272 -0.257071 0.27582 0.000931269 -0.00373253 0.999993 
0.007918 -0.258785 0.272135 0.0346985 -0.0642511 0.99733 
0.091012 -0.247175 0.236795 0.767694 -0.0793099 0.63589 
0.08349 -0.254286 0.257287 0.57265 0.0761176 0.816259 
0.07479 -0.256127 0.264681 0.366541 0.142277 0.919459 
0.061693 -0.256501 0.271159 0.135145 0.129172 0.98237 
0.047044 -0.256214 0.275335 0.0224365 0.0719971 0.997152 
0.026691 -0.256468 0.276726 0.00039026 -0.00230961 0.999997 
0.00905 -0.257071 0.27582 0.00696198 -0.0610238 0.998112 
-0.00614 -0.258785 0.272135 0.0047225 -0.00781657 0.999958 
-0.089765 -0.261124 -0.004304 -0.638951 -0.715894 0.281489 
-0.086047 -0.258654 0.041088 -0.76342 -0.641444 0.0757557 
-0.080466 -0.260676 0.099739 -0.707543 -0.704371 0.0569637 
0.091543 -0.261124 -0.004304 0.653449 -0.69854 0.291627 
0.087826 -0.258654 0.041088 0.777054 -0.626164 0.0640821 
0.082245 -0.260676 0.099739 0.702796 -0.707261 0.0765475 
-0.000249 -0.258966 -0.08839 -0.10962 -0.674893 -0.729728 
-0.036657 -0.265952 -0.080774 -0.00274808 -0.776374 -0.630267 
-0.060959 -0.268416 -0.079969 -0.0635762 -0.767999 -0.637287 
-0.084564 -0.271586 -0.082773 -0.271078 -0.717982 -0.641107 
0.002027 -0.258966 -0.08839 -0.111519 -0.671932 -0.732169 
0.038436 -0.265952 -0.080774 -0.0142317 -0.77717 -0.62913 
0.062738 -0.268416 -0.079969 0.116228 -0.751622 -0.649273 
0.086342 -0.271586 -0.082773 0.309863 -0.714586 -0.627178 
-0.108817 -0.216889 -0.029469 -0.963831 0.241699 0.1123 
-0.113493 -0.224823 -0.024224 -0.982063 0.104956 0.156644 
-0.109754 -0.24137 -0.015698 -0.944535 -0.221004 0.24292 
-0.10082 -0.253392 -0.008515 -0.814954 -0.502852 0.288079 
-0.089313 -0.264352 -0.005499 -0.615271 -0.739218 0.273859 
0.110595 -0.216889 -0.029469 0.948832 0.294011 0.115222 
0.115272 -0.224823 -0.024224 0.975486 0.150051 0.160969 
0.111532 -0.24137 -0.015698 0.949663 -0.189898 0.249155 
0.102598 -0.253392 -0.008515 0.824459 -0.481027 0.298128 
0.091091 -0.264352 -0.005499 0.628657 -0.723607 0.284927 
-0.087669 -0.252718 -0.091318 -0.386979 -0.437847 -0.811503 
-0.09142 -0.234935 -0.098109 -0.501471 -0.126011 -0.855949 
-0.090474 -0.222533 -0.099393 -0.527426 -6.4591e-17 -0.849601 
-0.087497 -0.214312 -0.097079 -0.518532 0.164548 -0.839076 
-0.078402 -0.211015 -0.086467 -0.50097 0.248114 -0.829137 
0.089448 -0.252718 -0.091318 0.412475 -0.430871 -0.80263 
0.093199 -0.234935 -0.098109 0.519412 -0.0794758 -0.85082 
0.092253 -0.222533 -0.099393 0.539988 0.0845506 -0.837415 
0.089275 -0.214312 -0.097079 0.543259 0.198774 -0.815695 
0.080181 -0.211015 -0.086467 0.533845 0.274857 -0.799664 
-0.08667 -0.260784 -0.087806 -0.336006 -0.572594 -0.747821 
-0.090476 -0.261505 -0.007049 -0.645853 -0.706157 0.2902 
0.088449 -0.260784 -0.087806 0.371581 -0.560982 -0.739748 
0.092255 -0.261505 -0.007049 0.660145 -0.68817 0.30105 
-0.0838 0.072651 0.006986 -0.945897 0.063296 0.318233 
-0.116098 0.05279 0.005849 -0.971675 0.0953249 0.216242 
-0.122065 0.042193 0.00463 -0.984476 0.0639203 0.163464 
-0.122857 0.027921 0.004247 -0.995774 -1.21947e-16 0.0918401 
-0.100814 -0.002532 0.013139 -0.923488 -0.331673 0.192778 
-0.061971 -0.034345 0.033951 -0.730004 -0.282441 0.622352 
-0.051256 -0.048259 0.042209 -0.779065 9.5408e-17 0.626943 
-0.044768 -0.067685 0.049596 -0.799675 9.79319e-17 0.600433 
-0.046935 -0.090549 0.051897 -0.832828 -0.0419691 0.551939 
0.085578 0.072651 0.006986 0.94872 0.0891946 0.303273 
0.117877 0.05279 0.005849 0.976484 0.118919 0.179828 
0.123843 0.042193 0.00463 0.991957 0.0375757 0.120869 
0.124635 0.027921 0.004247 0.990316 -0.130039 0.0486312 
0.102593 -0.002532 0.013139 0.907106 -0.385846 0.168172 
0.063749 -0.034345 0.033951 0.780155 -0.346096 0.52113 
0.053034 -0.048259 0.042209 0.777965 -0.245677 0.578285 
0.046547 -0.067685 0.049596 0.810588 -0.12749 0.57157 
0.048713 -0.090549 0.051897 0.871606 -0.0482512 0.487826 
-0.006449 0.304822 0.002961 -0.160784 0.781689 0.602587 
-0.028528 0.294938 0.014774 -0.488099 0.692216 0.531597 
-0.056466 0.278022 0.016853 -0.72815 0.614692 0.303235 
-0.08564 0.252135 0.01086 -0.840682 0.537901 0.0625846 
-0.098131 0.22701 0.000511 -0.921428 0.387308 -0.0310285 
-0.094215 0.200968 -0.020758 -0.943183 0.258792 -0.208404 
-0.079332 0.173875 -0.04833 -0.872702 0.135173 -0.46917 
-0.043717 0.126929 -0.088578 -0.508483 0.0964392 -0.855655 
-0.011561 0.080015 -0.119133 -0.0933517 0.0888567 -0.99166 
0.008227 0.304822 0.002961 0.15282 0.800122 0.580043 
0.030307 0.294938 0.014774 0.452808 0.735232 0.50438 
0.058245 0.278022 0.016853 0.694514 0.64746 0.313761 
0.087418 0.252135 0.01086 0.8523 0.50683 0.129259 
0.099909 0.22701 0.000511 0.938029 0.345486 0.0272345 
0.095993 0.200968 -0.020758 0.961373 0.218976 -0.166768 
0.081111 0.173875 -0.04833 0.876186 0.104474 -0.470514 
0.045496 0.126929 -0.088578 0.494775 0.066562 -0.866468 
0.01334 0.080015 -0.119133 0.141739 0.0715527 -0.987315 
-0.009652 0.205651 -0.1099 -0.184327 -0.0583956 -0.981129 
-0.027965 0.219761 -0.100065 -0.486617 -0.0422451 -0.872593 
-0.043828 0.239727 -0.083368 -0.817837 0.0592155 -0.572395 
-0.052884 0.261349 -0.062198 -0.974792 0.154208 -0.161249 
-0.05557 0.276276 -0.045857 -0.980096 0.197228 -0.0226633 
-0.051106 0.294746 -0.028262 -0.954613 0.275165 0.114008 
-0.027674 0.310469 -0.006198 -0.528697 0.677384 0.511497 
-0.01811 0.312447 -0.002038 -0.344958 0.749386 0.565176 
0.011431 0.205651 -0.1099 0.129862 -0.0331063 -0.990979 
0.029744 0.219761 -0.100065 0.425154 -0.0463709 -0.903933 
0.045607 0.239727 -0.083368 0.751913 0.0754684 -0.654929 
0.054663 0.261349 -0.062198 0.927468 0.255534 -0.272958 
0.057349 0.276276 -0.045857 0.912528 0.405144 -0.0561369 
0.052885 0.294746 -0.028262 0.874139 0.476089 0.0960204 
0.029452 0.310469 -0.006198 0.540911 0.72239 0.430775 
0.019889 0.312447 -0.002038 0.349861 0.779332 0.519846 
-0.069124 0.079893 -0.081277 -0.725559 -0.0015807 -0.688158 
-0.089931 0.096281 -0.055711 -0.886018 -1.08506e-16 -0.46365 
-0.103226 0.119025 -0.02493 -0.990024 -1.21243e-16 -0.140901 
-0.10548 0.134338 -0.007448 -0.997874 1.22204e-16 0.0651687 
-0.095719 0.15773 0.021255 -0.90696 0.00813806 0.421139 
-0.082862 0.172229 0.041251 -0.77617 -9.50534e-17 0.630524 
-0.06365 0.186398 0.057169 -0.624451 -7.64732e-17 0.781064 
-0.024879 0.200051 0.071018 -0.243352 0.146874 0.958753 
0.010372 0.206366 0.079016 0.0894004 0.152342 0.984276 
0.070902 0.079893 -0.081277 0.717102 -0.02612 -0.696479 
0.091709 0.096281 -0.055711 0.882837 -0.0121889 -0.469522 
0.105004 0.119025 -0.02493 0.989512 0.0109409 -0.144034 
0.107259 0.134338 -0.007448 0.997133 0.0221427 0.0723589 
0.097498 0.15773 0.021255 0.902547 0.000853839 0.43059 
0.08464 0.172229 0.041251 0.764864 -0.0128778 0.644063 
0.065428 0.186398 0.057169 0.608961 0.0259026 0.792777 
0.026657 0.200051 0.071018 0.266094 0.130694 0.955046 
-0.008594 0.206366 0.079016 -0.0940323 0.141748 0.985427 
-0.036148 0.283161 -0.035285 -0.984366 0.171714 0.0392164 
-0.05488 0.272696 -0.022066 -0.922444 0.380342 -0.0666108 
-0.082554 0.246297 0.004961 -0.846743 0.532001 0.00117154 
-0.093918 0.224416 0.02106 -0.906006 0.341195 0.250479 
-0.093852 0.208095 0.031087 -0.888004 0.182293 0.422159 
-0.085506 0.185248 0.04107 -0.798965 -9.7845e-17 0.601377 
-0.052321 0.146365 0.040924 -0.668719 0.0114721 0.743427 
0.037927 0.283161 -0.035285 0.872356 0.484644 0.0641507 
0.056659 0.272696 -0.022066 0.847724 0.530404 0.0059695 
0.084333 0.246297 0.004961 0.867383 0.48949 0.0896982 
0.095696 0.224416 0.02106 0.903971 0.306226 0.298432 
0.09563 0.208095 0.031087 0.873021 0.169154 0.457407 
0.087285 0.185248 0.04107 0.784113 0.0281006 0.619981 
0.0541 0.146365 0.040924 0.656557 0.0129826 0.754165 
-0.065199 0.152972 0.049527 -0.66461 -0.00580986 0.747168 
-0.073673 0.132999 0.051775 -0.695088 0.0240852 0.718521 
-0.08432 0.113674 0.04429 -0.773501 -9.47266e-17 0.633795 
-0.092193 0.093174 0.025884 -0.883352 -1.08179e-16 0.468711 
-0.091896 0.074913 0.00383 -0.961337 0.0632874 0.268004 
0.066978 0.152972 0.049527 0.649251 -0.00983829 0.76051 
0.075451 0.132999 0.051775 0.688386 0.0314919 0.72466 
0.086098 0.113674 0.04429 0.764711 0.0376158 0.643274 
0.093972 0.093174 0.025884 0.885517 0.0300934 0.463632 
0.093674 0.074913 0.00383 0.964922 0.100557 0.242514 
-0.009333 -0.072772 -0.087982 -0.197132 -0.596629 -0.777928 
-0.028672 -0.04964 -0.079961 -0.500748 -0.464934 -0.730129 
-0.05881 -0.010978 -0.046583 -0.782849 -0.361739 -0.506253 
-0.07353 0.000289 -0.028488 -0.856787 -0.333488 -0.393322 
-0.090612 0.007557 -0.010843 -0.951198 -0.256717 -0.171226 
-0.127825 0.010846 0.021679 -0.946082 -0.0872939 0.311942 
0.011111 -0.072772 -0.087982 0.188036 -0.609972 -0.76979 
0.03045 -0.04964 -0.079961 0.54196 -0.468667 -0.697589 
0.060588 -0.010978 -0.046583 0.777623 -0.384228 -0.497666 
0.075309 0.000289 -0.028488 0.849057 -0.371539 -0.375582 
0.092391 0.007557 -0.010843 0.929977 -0.328051 -0.165907 
0.129604 0.010846 0.021679 0.931401 -0.216077 0.292921 
-0.113765 0.013894 0.025389 -0.890688 1.09078e-16 0.454615 
-0.084546 0.025437 0.032683 -0.770056 -0.0182937 0.637714 
-0.044123 0.02984 0.047601 -0.482671 -0.0600683 0.873739 
-0.011249 0.026377 0.068347 -0.158561 -0.0540154 0.985871 
0.00223 0.018986 0.085921 0.0201843 -0.0109135 0.999737 
0.115543 0.013894 0.025389 0.882162 -0.180328 0.435055 
0.086324 0.025437 0.032683 0.767238 -0.108199 0.63217 
0.045902 0.02984 0.047601 0.462173 -0.0644291 0.884446 
0.013028 0.026377 0.068347 0.133083 -0.0516333 0.989759 
-0.000452 0.018986 0.085921 -0.0235739 -0.0132691 0.999634 
-0.003089 0.281175 -0.122916 -0.0430686 -0.41104 -0.910599 
-0.023165 0.287278 -0.115891 -0.608532 -0.326852 -0.723088 
-0.039525 0.296226 -0.104976 -0.889444 -0.170062 -0.424228 
-0.050233 0.309487 -0.090061 -0.988665 1.21076e-16 -0.150141 
-0.051795 0.318395 -0.080769 -0.986202 0.161998 -0.0341006 
-0.049287 0.32668 -0.072202 -0.94833 0.307758 0.0771729 
-0.041066 0.336101 -0.063606 -0.819385 0.514743 0.252285 
-0.019429 0.345668 -0.053849 -0.410808 0.77564 0.479186 
0.006275 0.349117 -0.044436 0.122643 0.829511 0.544857 
0.004868 0.281175 -0.122916 0.167097 -0.396015 -0.902912 
0.024944 0.287278 -0.115891 0.591477 -0.314257 -0.742561 
0.041303 0.296226 -0.104976 0.879322 -0.0960314 -0.466445 
0.052011 0.309487 -0.090061 0.977889 0.145799 -0.14992 
0.053573 0.318395 -0.080769 0.970663 0.239262 -0.0238348 
0.051065 0.32668 -0.072202 0.937593 0.338542 0.0794253 
0.042845 0.336101 -0.063606 0.842744 0.490771 0.221194 
0.021207 0.345668 -0.053849 0.508947 0.736885 0.444942 
-0.004496 0.349117 -0.044436 -0.148396 0.829992 0.537673 
-0.009409 0.399799 -0.274234 -0.375322 -0.925206 -0.0559142 
-0.039108 0.410403 -0.270256 -0.871088 -0.49107 0.00742344 
-0.046436 0.419643 -0.267288 -0.975595 -0.210968 0.0608818 
-0.047592 0.427286 -0.2654 -0.994529 1.21795e-16 0.104459 
-0.037348 0.44121 -0.262337 -0.904567 0.384408 0.184362 
-0.006669 0.45056 -0.256163 -0.3231 0.907076 0.269849 
0.011187 0.399799 -0.274234 0.124983 -0.989256 -0.0758398 
0.040886 0.410403 -0.270256 0.863199 -0.504805 -0.00766854 
0.048215 0.419643 -0.267288 0.981077 -0.189192 0.041159 
0.049371 0.427286 -0.2654 0.997306 0.00350424 0.0732669 
0.039127 0.44121 -0.262337 0.882039 0.445853 0.152389 
0.008448 0.45056 -0.256163 0.0991564 0.95671 0.273632 
-0.006657 0.386716 -0.223239 -0.617697 7.56461e-17 -0.786416 
-0.024099 0.39351 -0.219746 -0.847365 -0.337329 -0.410099 
-0.031302 0.398581 -0.21687 -0.922914 -0.272601 -0.271879 
-0.036707 0.407205 -0.211136 -0.981007 -0.109728 -0.159954 
-0.037311 0.416224 -0.204303 -0.989969 0.138874 -0.0259856 
-0.034866 0.424368 -0.199101 -0.924577 0.373334 0.0760227 
-0.027791 0.4318 -0.193772 -0.752166 0.634601 0.177564 
-0.011346 0.435753 -0.18884 -0.40947 0.877844 0.248442 
-0.00198 0.434772 -0.18679 -0.213777 0.937235 0.275482 
0.008436 0.386716 -0.223239 0.145151 -0.65834 -0.738593 
0.025877 0.39351 -0.219746 0.781152 -0.488601 -0.388677 
0.03308 0.398581 -0.21687 0.911892 -0.324505 -0.251298 
0.038486 0.407205 -0.211136 0.991122 -0.0668506 -0.114927 
0.039089 0.416224 -0.204303 0.970955 0.236786 0.0343377 
0.036645 0.424368 -0.199101 0.875785 0.465459 0.127864 
0.029569 0.4318 -0.193772 0.666984 0.713166 0.215702 
0.013125 0.435753 -0.18884 0.21596 0.936318 0.276892 
0.003758 0.434772 -0.18679 -0.056842 0.956854 0.284956 
-0.003476 0.352017 -0.166947 -0.325203 3.98258e-17 -0.945644 
-0.007379 0.351443 -0.163164 -0.484343 5.93149e-17 -0.874878 
-0.023664 0.358192 -0.155194 -0.884062 -0.0596571 -0.463547 
-0.033251 0.368836 -0.145887 -0.98437 -0.057379 -0.166502 
-0.034983 0.378056 -0.139017 -1 1.22465e-16 -0.00083922 
-0.022798 0.399742 -0.125183 -0.658831 0.581952 0.476732 
-0.008405 0.404645 -0.122297 -0.261067 0.700604 0.664077 
0.004671 0.406304 -0.118153 0.0858366 0.709156 0.699807 
0.005254 0.352017 -0.166947 0.112774 -0.340112 -0.933598 
0.009158 0.351443 -0.163164 0.311185 -0.389193 -0.867002 
0.025443 0.358192 -0.155194 0.862604 -0.246894 -0.44154 
0.035029 0.368836 -0.145887 0.995749 -0.017959 -0.0903448 
0.036761 0.378056 -0.139017 0.979922 0.134266 0.147395 
0.024577 0.399742 -0.125183 0.658429 0.535526 0.528851 
0.010184 0.404645 -0.122297 0.24529 0.692438 0.6785 
-0.002893 0.406304 -0.118153 -0.111171 0.696137 0.709249 
-0.005977 0.447397 -0.346495 -0.290804 0.559049 -0.776465 
-0.020825 0.447774 -0.338399 -0.553206 0.512483 -0.656753 
-0.032729 0.447535 -0.326807 -0.7594 0.418301 -0.498332 
-0.040046 0.445396 -0.314227 -0.895588 0.304112 -0.324711 
-0.045056 0.440303 -0.29914 -0.97817 0.160891 -0.131518 
-0.045114 0.420446 -0.255617 -0.977218 -0.155915 0.143998 
-0.037232 0.413224 -0.218403 -0.993089 -0.0996044 -0.0620805 
-0.035126 0.40296 -0.175472 -0.99174 0.128245 0.00234109 
-0.038478 0.391246 -0.15646 -0.994403 0.0771272 -0.0722142 
-0.031623 0.376061 -0.135484 -0.999317 -1.22381e-16 0.0369448 
0.007755 0.447397 -0.346495 0.00664973 0.599577 -0.800289 
0.022603 0.447774 -0.338399 0.38538 0.617696 -0.685517 
0.034507 0.447535 -0.326807 0.683441 0.560527 -0.467673 
0.041824 0.445396 -0.314227 0.862005 0.43489 -0.260418 
0.046834 0.440303 -0.29914 0.965937 0.251149 -0.0623706 
0.046892 0.420446 -0.255617 0.986695 -0.133665 0.0925522 
0.03901 0.413224 -0.218403 0.998545 -0.0129425 -0.0523571 
0.036905 0.40296 -0.175472 0.980014 0.1592 0.119283 
0.040256 0.391246 -0.15646 0.989544 0.126294 0.0696607 
0.033401 0.376061 -0.135484 0.961078 0.206361 0.183693 
-0.031082 0.377989 -0.139615 -0.999827 -1.22443e-16 -0.0186106 
-0.035289 0.371536 -0.12817 -0.998364 1.22264e-16 0.0571783 
-0.039747 0.360402 -0.117137 -0.977471 0.210994 0.0057059 
-0.045905 0.326336 -0.097386 -0.976733 0.170933 -0.129516 
-0.055035 0.309967 -0.094266 -0.9831 -1.20395e-16 -0.18307 
0.032861 0.377989 -0.139615 0.964572 0.206664 0.163983 
0.037067 0.371536 -0.12817 0.950212 0.196409 0.24191 
0.041526 0.360402 -0.117137 0.960848 0.235124 0.146588 
0.047684 0.326336 -0.097386 0.986031 0.147587 -0.0772059 
0.056814 0.309967 -0.094266 0.976785 0.113647 -0.181589 
-0.053061 0.309727 -0.091494 -0.987153 -1.20891e-16 -0.159779 
-0.050843 0.308335 -0.074548 -0.994682 0.0949638 -0.0398711 
-0.045027 0.302876 -0.059763 -0.988944 0.136785 0.0572621 
-0.034401 0.286557 -0.041097 -0.99301 -1.21609e-16 0.118029 
-0.034119 0.280635 -0.037204 -0.979064 0.201156 0.0311526 
-0.036403 0.279419 -0.038733 -0.976549 0.213825 0.0251028 
0.054839 0.309727 -0.091494 0.97707 0.139782 -0.160606 
0.052621 0.308335 -0.074548 0.97699 0.213139 -0.00793258 
0.046805 0.302876 -0.059763 0.953886 0.275328 0.119568 
0.036179 0.286557 -0.041097 0.892935 0.442258 0.0841077 
0.035898 0.280635 -0.037204 0.876038 0.479473 0.0516019 
0.038182 0.279419 -0.038733 0.891847 0.451914 0.0195577 
-0.089593 -0.192553 -0.026085 -0.823597 0.56297 0.0689434 
-0.077239 -0.190834 0.005176 -0.866616 0.477822 0.143746 
-0.068425 -0.192113 0.032185 -0.89449 0.433554 0.109174 
-0.065608 -0.192914 0.045557 -0.892686 0.439718 0.0987955 
-0.06354 -0.194769 0.072611 -0.855769 0.500063 0.13265 
-0.06427 -0.19579 0.091054 -0.835598 0.534687 0.126038 
-0.068499 -0.195885 0.119457 -0.817442 0.575995 -0.00427528 
-0.077008 -0.194357 0.148374 -0.773899 0.612722 -0.160162 
-0.0828 -0.196863 0.168272 -0.747159 0.640471 -0.177622 
-0.086205 -0.195705 0.172805 -0.749087 0.639928 -0.171351 
0.091372 -0.192553 -0.026085 0.783668 0.61556 0.0833643 
0.079017 -0.190834 0.005176 0.813494 0.569873 0.116073 
0.070203 -0.192113 0.032185 0.864429 0.496869 0.0767109 
0.067386 -0.192914 0.045557 0.876099 0.477953 0.0633385 
0.065318 -0.194769 0.072611 0.854029 0.511969 0.0923131 
0.066049 -0.19579 0.091054 0.835779 0.54257 0.0842085 
0.070277 -0.195885 0.119457 0.819188 0.573496 -0.0056785 
0.078787 -0.194357 0.148374 0.787611 0.603347 -0.125067 
0.084579 -0.196863 0.168272 0.764028 0.630503 -0.136845 
0.087984 -0.195705 0.172805 0.767326 0.626303 -0.137681 
