ply
format ascii 1.0
element vertex 1416
property float x
property float y
property float z
end_header
-14.224340 -1.534562 -0.010665
-22.880650 4.043560 -53.984940
-27.722099 6.697563 -58.091591
11.059870 0.728419 -6.970240
-49.731998 1.108248 -36.443939
20.974079 -4.292785 28.287371
-2.072176 0.584989 -0.881935
7.369605 -0.621068 12.655760
-0.987115 -0.099062 4.391916
-15.551370 5.699222 -46.765339
23.727320 -2.443631 17.237690
-13.187520 5.657989 -43.565922
40.125999 -7.752861 66.398933
14.690870 -0.498627 -0.986306
40.109180 -3.341738 32.412640
-31.727921 5.516237 -66.577888
-8.611353 0.419206 -20.454180
-1.048051 3.296655 -35.992729
-25.557489 7.001998 -62.967999
14.731590 1.976682 -0.970065
41.621620 -2.240595 42.721329
-9.246109 -0.961905 -11.328600
-51.696789 -0.507053 -34.977772
30.502750 -6.312209 63.963020
44.756901 -5.344984 51.223129
2.672296 -1.137739 -3.424066
-53.229000 3.522209 -52.054352
-0.951494 0.214167 -14.698430
-9.477959 -2.847248 5.417414
-49.556911 1.966347 -38.395569
-16.862770 6.923208 -59.286652
-35.970249 1.212351 -24.969070
-17.806870 5.585929 -57.952209
38.926151 -4.169506 37.399109
-17.956360 6.754965 -52.605270
7.300323 -1.786157 20.525709
-29.566160 6.001594 -54.330460
-13.346950 -1.278493 -11.511030
45.126381 -4.795911 45.008572
-0.937811 2.808859 -15.405720
-11.237760 5.148811 -37.432659
34.670719 -8.178303 61.963242
-19.792770 -0.687501 -19.261959
-39.337200 0.597699 -39.870979
9.901055 0.631802 5.567203
19.477840 -8.008112 53.610340
27.575171 -1.704887 15.012960
-3.463445 5.542483 -35.657890
34.221130 -2.816945 25.615761
-2.498223 5.077693 -31.888260
-21.619110 6.784714 -55.421059
24.513090 -5.381728 54.401661
32.500778 -2.594384 23.167480
-42.549809 3.138356 -50.977619
-4.730132 5.101898 -33.367119
-50.376759 1.021782 -49.530170
27.628740 -2.832061 22.047100
-33.582611 6.668940 -61.460159
19.535040 -3.599078 22.743429
1.432267 1.571735 -21.734440
-1.433308 4.343081 -42.643509
54.826920 -1.518614 43.389259
6.206174 1.741310 -13.158090
-2.263609 1.616388 -25.101210
17.392969 -0.940149 3.502901
4.583831 -1.521096 0.292921
-27.295071 3.376790 -51.993160
-32.436459 4.333830 -61.806160
0.716257 -1.408164 -2.681632
-4.409758 2.014644 -11.953730
53.678902 -2.487560 51.113251
-32.442841 7.351099 -65.870453
-0.017382 1.224151 -4.075493
8.509839 -5.362253 28.887039
39.329800 -2.857108 29.234060
-36.825050 -0.513073 -30.677879
-20.112970 5.735061 -46.776981
30.276640 -1.718511 18.519920
52.346809 -1.658127 43.954670
14.426840 -1.842974 24.923929
-31.315500 0.760838 -36.151711
-4.940604 3.874356 -42.255619
-7.106248 3.116710 -21.023970
-4.305892 3.408080 -38.656990
52.955212 -4.852520 49.745850
42.698238 -1.685011 31.415260
-4.594530 6.428640 -42.459949
-24.834000 2.160253 -42.020329
38.033562 -6.616222 53.357330
18.283760 -0.918968 20.822981
15.072730 0.733746 7.774816
27.912531 0.026125 16.134560
-31.253811 -1.397662 -21.239309
-30.176929 4.967633 -64.889122
-5.142786 -2.669179 2.596512
19.534269 -4.333379 44.624420
32.879951 -7.105030 53.795540
-20.780380 -1.692310 -12.930590
19.625910 -1.329265 7.408154
14.861120 -2.627544 30.507589
31.294821 -4.881400 54.775421
43.862869 -2.672741 43.283760
-28.895571 1.498646 -39.847569
-24.279310 1.919808 -39.870041
-11.130700 0.721637 -6.912222
-0.159002 1.777042 -24.985661
-19.200380 -1.008561 -16.724421
-1.041034 2.754586 -32.255371
45.125118 -2.639470 47.340309
16.813940 -0.530886 17.358570
55.719479 -2.863256 50.589931
-31.077869 6.728628 -60.347790
33.191509 -4.527437 53.430161
24.442410 0.030243 17.825871
-2.069473 -4.112307 15.069000
26.879200 -3.615027 26.954081
9.669636 -0.500744 13.126220
-42.792339 0.469298 -41.076900
4.016177 2.529304 -10.678840
9.717431 -2.934551 12.774360
-26.485760 0.345421 -13.289950
37.552349 -1.712058 28.035469
-30.485451 4.877906 -47.036678
23.463650 -4.091320 45.172112
-3.515851 4.383809 -27.668539
-15.548570 -1.739673 -9.567377
-45.401711 0.941890 -45.933842
-18.287960 1.921221 -19.225201
14.722000 -4.795341 28.196711
19.571890 -5.352330 51.479919
-23.716721 0.226489 -10.754370
-3.594921 0.125615 -15.582640
-2.641605 -3.352468 8.672988
17.081160 -1.280208 5.646101
-13.411810 1.427001 -13.034490
20.427641 -1.811604 11.125240
-21.680180 5.803910 -48.181789
-7.248019 1.389272 -26.369410
-54.547680 -0.031926 -44.704029
-7.509693 4.067669 -27.790730
30.506611 -7.069548 52.279690
28.978149 -4.888807 53.548149
-38.014568 2.663181 -36.205589
-17.719641 5.957859 -46.892380
14.724770 -1.794905 7.844841
33.736179 -0.470693 23.990471
32.504589 -0.583762 22.210680
-16.961130 -1.544780 -11.730650
33.064388 -4.186515 45.045528
55.504211 -4.130486 46.643631
-39.163670 -1.406569 -25.416929
23.356630 -4.636383 31.936581
-37.503860 -1.712056 -22.864349
51.122089 -4.202949 44.723301
-20.214890 0.990299 -13.952150
-39.286079 -1.705763 -15.780360
-20.817680 0.812760 -20.354811
-10.414020 3.955280 -28.679960
-6.963335 -2.963947 3.595922
5.322169 -1.979371 3.822490
-11.366540 5.437792 -39.515511
-2.360866 2.067069 -28.255541
1.407812 -0.176968 6.274991
14.169240 0.386461 9.620863
-18.010401 3.790339 -49.298698
-33.342209 4.767766 -65.372841
41.230091 -3.343208 49.900009
19.020090 -4.067444 25.640020
-6.073708 5.392611 -36.116119
40.198799 -1.066858 29.997869
-13.205760 3.968798 -34.786701
-32.625900 2.951034 -34.915970
-30.622700 4.315506 -60.575100
-42.292912 1.008016 -44.527821
-15.537360 4.726796 -54.393929
-14.087740 3.240584 -43.156582
-25.334530 4.611617 -58.142349
34.181671 -4.010829 50.544910
-27.773560 5.819318 -51.962811
-14.242500 2.012981 -21.917400
8.845478 0.327843 -9.558420
22.634890 -1.141590 24.772900
-8.311442 5.393980 -37.460720
17.221621 -2.271102 29.404551
-2.730310 -0.508079 -10.746370
-10.912910 3.013011 -39.726910
-8.466523 2.368434 -16.664280
4.452585 -4.192548 18.369631
-21.080370 6.558904 -53.103291
-53.302780 -0.181951 -42.957779
2.512533 3.109126 -17.835859
-6.762103 4.824217 -32.593559
-35.009510 0.095644 -16.726690
5.155236 0.312498 -11.908220
-25.629690 6.689283 -57.695179
54.709278 -4.534317 48.629929
-30.522751 4.370033 -43.513279
21.965000 -6.415275 57.691719
-31.394609 0.418949 -16.765060
14.399380 1.194673 4.267399
-28.755051 5.470599 -50.132919
-10.485300 0.044417 -1.941880
3.406935 0.340661 -13.095680
28.351320 -4.639059 51.528290
-49.738098 4.428153 -55.646778
-2.565096 4.191950 -25.814550
-5.907883 0.972320 -22.744699
8.656048 2.525811 -9.482373
-29.738041 3.117320 -51.654610
6.070430 0.110609 -10.018180
-46.011219 1.919657 -51.940689
2.748924 0.914076 -17.317480
37.796459 -5.203411 43.737961
18.758169 -2.658223 15.938440
23.143780 0.385817 14.668590
-37.268059 1.995864 -31.135290
-0.986193 -0.721357 -8.306804
-7.302099 3.152180 -38.600170
-8.577194 4.845316 -33.805672
-1.590153 3.421556 -19.966690
-7.655004 1.649290 -28.399420
-35.059528 0.397790 -18.823681
-37.442532 4.403147 -62.187099
51.092289 -2.889932 52.398090
-36.114429 4.383169 -60.454159
-51.032200 4.072801 -53.942200
-30.179560 1.091968 -20.644920
9.532505 -2.580489 27.193350
-23.434870 5.744032 -55.725639
11.040010 0.459596 7.391856
-27.703060 5.064902 -64.057533
-26.521851 1.921395 -39.057819
-2.228117 3.905501 -23.638580
42.173721 -3.228166 32.806332
-30.084999 0.185743 -14.366970
-3.269044 6.134796 -39.646370
-0.611078 1.228781 -21.467979
-46.443810 1.147059 -48.024921
-37.184921 0.641111 -21.775570
-33.326439 4.748237 -47.867970
-18.021990 5.185163 -41.707340
24.414419 -3.867779 42.948071
14.326070 -4.322618 24.742680
-8.526666 0.333376 -2.805421
-35.833481 1.381695 -43.232059
-25.334949 5.929362 -51.274311
-11.111940 2.057360 -33.077740
-36.829861 4.637525 -49.225700
-13.100860 -0.925711 -13.786500
-3.668801 2.415041 -14.256820
-15.647180 -2.656239 -3.385139
52.610901 -2.087387 47.828381
20.442060 -6.554483 43.258129
18.158039 -3.479063 21.173220
-34.994770 -1.661940 -21.673620
-25.187811 4.320663 -39.931339
-21.286680 -1.206694 -16.591961
-29.709660 -2.653322 -11.774130
-15.627600 7.547374 -56.752480
-24.404949 0.542259 -13.388820
20.249439 -6.202449 40.782421
-11.989350 4.311247 -33.056129
-5.260342 -1.076606 8.653912
8.457835 1.011196 2.163226
1.243129 -0.527996 -8.366935
-4.712874 -0.759987 -10.155180
-0.556906 1.526640 -6.449256
-2.617827 0.698627 -18.955629
5.113837 2.274441 -8.319677
9.620336 -0.517834 -3.713767
21.997641 1.170914 8.685788
-3.505969 -0.185132 -13.394830
49.506340 -4.114948 51.498539
0.170717 -2.581603 5.005178
17.166140 -5.195732 47.483059
8.880815 -0.281438 11.193380
45.017971 -5.118234 47.083111
-11.436510 4.391518 -43.316799
16.517540 -1.964496 9.975885
-38.618721 0.301458 -37.372990
18.142679 -1.720219 26.179550
-13.815990 -2.119934 -6.004040
13.814340 -0.245502 -2.910166
22.137320 -1.729211 28.500299
-7.066303 -0.510555 -13.199640
2.262255 -1.724248 17.287291
18.041639 1.020676 2.852804
9.078917 -4.223759 21.153509
-35.472099 4.528010 -47.636002
-15.657290 0.640520 -8.885080
-4.202443 0.373487 -17.619129
41.433022 -1.708099 39.021259
-14.652080 0.453321 -7.049643
-48.303429 3.210717 -54.746780
4.828599 0.640571 2.633004
-26.458321 5.416526 -48.356560
-37.846260 4.621073 -65.409081
-45.523991 1.499547 -49.900021
54.803650 -4.848063 50.812569
-27.737829 2.985501 -49.532269
-8.850543 3.187074 -22.503210
-38.589588 2.154859 -50.235958
3.786271 0.707932 -15.368010
-35.088871 3.622098 -57.513199
24.463520 -2.704424 33.318119
-22.883020 4.962264 -43.030251
-54.502380 1.970448 -49.173691
-11.650310 6.903662 -55.690208
29.773199 -1.066006 28.263330
-32.898491 0.502584 -18.257750
42.036419 -5.941522 51.112068
-5.024498 5.568986 -44.737709
-26.555990 -2.040065 -14.036950
-22.403549 1.563839 -19.200729
0.665757 4.365887 -37.299049
55.309509 -4.145353 53.533279
0.311794 0.280811 2.558359
-32.667519 5.527096 -52.897121
-16.400181 1.911023 -18.067640
-8.326621 -1.287870 7.320149
-34.229561 1.322929 -41.832489
-29.512970 -2.084592 -15.522120
-1.471662 3.603317 -38.374931
20.171320 -3.223620 20.556549
5.964422 -0.500816 -5.903961
28.165939 -7.735545 65.083191
-39.885971 2.916474 -39.110142
-9.804608 3.509607 -42.341671
-3.330289 -0.926173 -8.226959
4.917393 -2.022817 20.817459
5.161544 -2.539734 7.528272
24.954710 0.370212 15.806340
45.266769 -3.187301 51.100861
-27.872690 6.323080 -55.547321
49.823040 -2.731907 45.578819
11.317280 -0.065434 11.101310
-26.539120 -2.349591 -11.928130
-12.460830 1.956335 -26.459320
38.981758 -5.616489 63.505772
8.096525 -5.142911 26.845900
34.948460 -3.275775 46.004959
-4.752648 4.801703 -31.285049
-45.970379 2.905559 -42.747509
18.658159 -4.112965 42.669540
0.436767 -2.873430 18.659201
-8.225122 -1.673857 -5.910597
2.266098 -1.406166 15.111000
55.028198 -3.839781 44.567402
-3.082689 -1.248093 -5.901305
-2.962226 -2.488961 2.615620
-7.843268 4.336740 -29.862829
25.040550 0.685733 13.716740
3.019186 -2.733702 7.652031
-6.006644 6.080543 -40.867981
-29.485571 1.921846 -35.395069
17.771130 -3.009397 34.717770
-34.119419 0.696829 -37.420139
-1.166417 -0.420978 6.471964
-48.784100 1.502491 -51.936600
-9.107389 2.295671 -33.706741
-38.619659 -2.574105 -17.645790
15.817680 -2.903917 32.925461
-32.808079 4.343934 -44.733360
21.713499 -1.005183 7.204722
-8.028604 5.773891 -39.925331
20.716909 -2.673455 34.104679
-12.039650 0.129883 -3.390424
-15.346250 3.398239 -44.964298
-7.274343 0.708090 -4.641546
-10.795130 -0.169140 -17.659370
-25.392340 7.522208 -65.234161
-6.415568 3.527484 -40.688351
-15.921980 6.822590 -52.065029
0.205639 2.514714 -29.874069
-31.690121 5.083622 -49.197891
3.524750 -0.643368 10.640970
-24.007139 3.120841 -48.227901
47.380348 -3.063864 51.078590
-5.654933 2.773013 -17.831699
-36.277351 2.932863 -53.871059
24.926060 -0.746113 23.364590
19.354650 -0.426666 3.996802
-10.876190 -1.635450 3.733103
30.501480 0.154528 19.792379
-28.429119 1.931909 -37.750019
-7.129353 -2.509158 8.578501
-25.032310 3.841798 -53.877651
-44.314892 0.768642 -44.075211
-4.147133 0.440951 -1.056760
-3.204425 -0.515251 5.977400
-53.276070 1.935347 -40.473701
-53.450001 -1.444030 -34.238060
-0.166484 4.118887 -23.942650
-41.902439 2.666837 -38.591370
-37.354710 6.773058 -65.427391
28.226879 -3.933716 29.873060
-46.017601 4.042209 -50.709881
34.084049 -3.137082 27.700029
-47.232239 3.689093 -53.025040
43.639648 -5.581211 49.467541
-2.123951 2.929642 -34.092819
10.524400 -1.300737 2.103974
-24.772659 5.384967 -47.126900
-21.469870 4.365853 -39.403351
-14.290460 3.247079 -36.427731
-45.802860 0.209159 -41.082020
-11.973930 2.628527 -20.443100
12.278260 -5.421201 34.123779
-27.308599 4.324207 -41.243011
54.596119 -1.647852 46.007252
9.412986 1.521515 -0.771144
26.583401 -5.276173 54.825260
-8.641418 3.324846 -40.572880
44.085522 -2.447610 45.483002
-5.940238 -1.334924 -6.917473
43.010330 -2.826885 47.434448
36.634781 -2.996765 41.440010
-20.785530 5.138135 -42.993069
-35.044941 2.038970 -30.080151
-18.072571 4.656280 -55.396610
8.379484 -4.576827 23.147751
-33.208420 3.779201 -41.046558
-19.379919 6.914273 -55.686131
17.041470 -2.623256 14.741510
2.678278 1.171654 -2.199399
34.289310 -5.418157 59.985100
-37.934238 0.981926 -41.694820
-49.513100 2.415320 -56.269741
15.843050 -2.026762 26.982370
-25.646429 6.524139 -55.609421
-53.001671 3.326874 -49.960041
40.280590 -6.976831 64.427750
-29.895660 -0.576982 -25.363689
-27.543770 2.470622 -45.844009
-21.616171 4.439487 -55.665482
6.985779 -1.349079 0.453489
-15.119340 -0.276230 -19.382460
36.897560 -3.884985 51.153130
-29.961781 5.661474 -52.199989
40.211399 -3.925857 52.077240
36.771931 -2.769085 43.607330
11.449860 -3.355123 16.573790
-19.460199 2.971207 -44.472462
30.531349 -6.393677 56.861500
21.659781 -8.199849 54.984619
-12.857040 3.072105 -24.175791
-1.727073 0.438684 -16.659330
-11.323990 1.607355 -13.068480
-34.886730 2.666444 -51.597691
2.608689 -4.508529 19.478081
-6.458859 -1.074189 -8.998211
1.822379 -4.176901 16.767200
-10.565380 1.971641 -31.015961
-21.617300 6.226651 -51.111549
-15.417580 4.597743 -37.632408
12.688510 -1.220155 2.780505
-1.066786 -1.339224 -4.140576
-30.578770 6.266156 -56.815971
35.924919 -3.188220 29.060970
-27.767500 -1.533463 -18.241529
-37.488979 1.453917 -44.714531
-30.499880 -1.705942 -10.064800
-32.935589 2.239452 -30.174841
-21.573210 1.104622 -15.537130
-39.871620 0.743103 -35.068901
-37.862930 1.926432 -48.249569
6.957867 -1.036517 -1.664896
53.555592 -2.859897 53.559238
45.356560 -1.685023 36.144150
27.467979 -0.521038 23.260900
-31.447910 1.827202 -26.519800
52.244389 -4.455528 46.679871
-19.321131 0.221165 -7.929722
-35.676270 1.754487 -45.717018
25.882271 -2.896482 31.657881
30.262230 -4.295239 50.296589
29.799650 -2.656905 22.066740
16.365330 -0.675115 1.174331
12.420950 -4.595197 25.555300
30.088579 -3.717492 46.319931
-5.854012 0.129765 0.102898
-26.631550 -1.708174 -8.319901
4.702841 1.864747 -5.777858
-48.687359 2.684431 -42.946789
45.155151 -3.265100 34.765369
-16.306740 3.595046 -46.894081
-5.835403 3.980108 -26.238371
32.170269 -3.633615 46.897270
-42.318810 -0.556019 -22.864620
-16.728701 4.604471 -39.373440
40.975979 -2.950824 30.530500
-0.009010 4.109075 -39.811432
20.209740 -0.578926 19.594509
-10.722060 -1.312555 -9.784781
-9.279480 1.845832 -13.538200
-14.167470 7.042045 -53.191422
7.808878 0.353273 6.280275
-28.909531 -1.194851 -21.232519
-35.881290 4.430286 -55.713921
-3.461869 -2.844629 13.451270
-10.267170 4.343698 -31.304331
35.943199 -4.415821 54.206860
3.953102 -0.785930 -5.085075
-35.819481 4.470025 -64.794579
-26.092091 -1.577780 -16.930811
22.932560 -2.923522 36.612530
-6.364940 -0.279714 2.592114
-15.090540 -1.233955 -12.762060
14.432600 -5.133861 30.347919
-11.934650 1.264876 -11.076310
37.447929 -4.239088 38.928879
-20.590410 1.565706 -18.115730
0.253781 -1.806648 16.730499
-34.581779 7.132406 -65.346992
22.466640 -2.130595 31.403999
-41.490700 -2.716519 -18.085911
46.653568 -1.708418 34.069759
-0.868933 4.580107 -27.519569
21.947630 -4.514346 30.330450
2.752206 1.904245 -7.130445
-24.217180 -1.271942 -17.903469
-32.616638 2.117072 -46.408829
-6.447989 1.908105 -12.372000
-47.134880 3.062837 -44.539982
16.261129 -5.347461 40.042721
11.079760 -4.171577 21.931280
1.023402 3.150577 -27.134270
9.425259 -2.407081 9.015847
-27.153191 3.914520 -38.803200
3.545196 -0.950604 12.737010
0.441935 -1.731919 -0.614694
41.431412 -0.867801 33.355412
-40.695530 -0.496536 -16.741270
-20.454250 0.664645 -11.834320
2.620143 -1.849403 1.430263
-17.377609 3.097872 -44.100399
1.445676 3.328418 -31.371759
-8.310494 2.024333 -31.371901
-37.331501 2.536150 -52.066078
-36.124149 6.436723 -61.353691
-15.346620 1.643257 -15.615930
-1.334382 5.782297 -36.081421
-38.404110 0.454714 -26.035530
-17.846430 4.362016 -53.212631
-31.384800 3.877374 -57.954899
-22.959261 -0.462077 -20.373770
13.775690 -3.124293 33.283550
25.065359 -3.593187 25.817400
-0.164751 0.608962 0.042802
12.304990 -5.360703 30.661860
12.280420 0.733278 -5.276118
-2.684483 1.978658 -10.718460
29.510170 -0.720362 25.770149
-24.330931 -1.109404 -7.101520
-40.137131 1.159116 -44.268131
-0.344690 -0.199904 -11.513840
18.417601 -6.645257 42.742001
-10.365080 -1.896703 -5.579517
16.595819 -3.020413 17.187410
-19.336081 -1.884855 -10.711630
11.161400 -2.594904 11.255140
-29.240530 7.022362 -61.288231
46.126289 -2.233831 45.056019
-35.050800 -0.531737 -29.464560
19.611771 -3.492463 39.016499
-5.357840 0.723867 -3.682323
-33.806870 1.022378 -39.487259
-34.827709 5.888966 -56.775620
22.423241 0.624770 12.651770
-9.193906 0.704218 -5.703738
-44.525181 -1.712313 -20.423920
40.940479 -1.424511 36.855709
-13.538250 -2.403678 -3.911089
-41.423351 0.343181 -39.372059
-38.441849 5.906124 -63.245098
29.290100 0.065730 18.007740
28.000811 0.031547 19.819639
-8.372086 2.716918 -18.988079
-12.929340 2.193546 -18.006910
1.980033 -0.152982 -10.510630
-49.118450 3.434397 -48.342491
-32.179420 1.006036 -28.563730
-25.553070 3.364079 -50.850929
13.475770 -1.439831 4.717873
31.666439 -1.039171 29.139721
20.224449 -7.243979 47.768990
25.317909 -1.243230 26.966619
53.588959 -5.501839 56.055260
-29.458090 4.159961 -58.783230
23.519739 -6.687341 45.850990
-43.514542 3.015297 -41.979359
-27.284849 1.942787 -41.967831
9.386182 -4.216258 30.422470
-32.414188 1.833651 -44.308849
35.175121 -7.725760 66.725052
16.126350 -0.193450 14.671990
-50.712410 -0.383128 -39.966019
-43.096409 2.083843 -36.283260
-14.200440 5.080552 -56.056831
-8.906545 -0.135475 0.172431
-44.803730 0.879279 -37.094410
-46.891762 3.626278 -48.309189
7.136126 -1.663879 2.694386
31.533110 -4.453200 52.066959
16.834579 1.249789 5.260951
31.370859 -3.427106 28.181730
0.170177 -3.357190 10.279310
-36.266930 0.163068 -35.011162
-11.897880 5.707587 -41.703770
1.064777 3.134786 -33.454910
-7.877724 3.737595 -25.745951
36.551609 -3.348503 47.413361
43.540821 -4.712029 43.570339
13.100650 0.712596 6.823265
-33.428410 6.982866 -63.567360
-37.358101 3.718990 -43.177952
-7.396067 1.008983 -6.768585
32.016850 -7.484869 55.871731
34.052582 -0.505973 26.845840
48.205730 -2.639267 49.054852
-2.421755 1.648729 -8.326010
-31.114290 4.023850 -41.461578
-6.331591 5.728256 -38.577721
7.232443 -2.941921 11.422390
-28.633169 5.183200 -48.053749
-17.733030 -2.682967 -3.298361
-10.582210 2.092456 -15.962920
7.271762 1.477845 -1.700094
-13.366480 0.926775 -9.581366
-35.714371 3.681547 -41.877670
10.090640 -4.810458 25.691299
43.561310 -0.970993 35.245770
-31.404699 0.767807 -30.820990
5.365206 0.155317 6.257535
37.704521 -6.487155 66.812599
-18.683849 5.561459 -44.694820
-16.927660 7.100619 -54.396061
13.072800 2.045602 -2.270272
-22.024651 5.455563 -45.964630
-32.710011 6.230826 -57.858101
-33.246799 -1.685390 -20.468060
42.962742 -5.332220 47.420071
-37.416821 -2.765257 -15.601540
14.226950 -5.544364 32.991249
-41.500401 -0.102967 -36.167389
34.045040 -5.837734 45.955521
17.862230 -5.171751 32.471001
-35.848431 0.721403 -38.618839
-30.192080 6.873799 -66.134583
40.379311 -2.068099 40.893669
30.458679 -6.158317 46.170151
-33.891651 1.424775 -25.153410
-33.961430 0.368393 -35.024220
16.667219 1.756057 1.394659
8.302308 -2.133866 23.471380
28.126110 -1.407316 29.672609
-30.562241 2.572490 -48.330811
-3.580966 -3.140797 6.699750
-35.971741 1.684047 -28.203810
-27.595730 0.519022 -15.153510
39.028900 -1.176737 34.120239
-54.366772 1.585272 -38.708199
25.595289 -2.154048 16.329149
-33.234230 2.992636 -52.889061
-46.077751 3.410576 -46.322041
25.633390 -3.897943 45.064091
-51.170841 0.021855 -43.059860
-5.230380 3.127794 -20.013941
-0.193012 0.972178 -19.441250
2.408799 -3.259531 21.210661
-25.397610 0.911984 -19.738371
-30.984470 3.626866 -38.628738
-31.139799 -1.888244 -17.827959
3.910195 -2.380378 22.654470
-30.233950 1.896211 -43.410660
27.943529 -2.533266 31.427660
-33.157848 3.536430 -56.641781
-4.397139 0.728724 -20.177679
-0.186773 -0.986606 -6.052516
43.941898 -4.023911 41.643711
-2.247945 5.396392 -33.955582
-7.188712 4.350421 -43.421558
-28.491940 5.575506 -66.289558
22.493481 -3.738851 25.325121
22.554440 0.045636 16.666290
-15.764940 -1.718123 -1.504496
-36.701981 3.127944 -38.632229
-22.786070 -2.455630 -8.338598
-34.030128 3.946939 -60.041451
17.226780 -5.525069 34.523441
22.644230 -5.331838 37.767971
-32.164371 1.393839 -23.904869
9.788255 -2.074989 6.969738
-1.896627 0.295712 1.210396
-11.838050 2.667859 -37.859901
19.450239 0.755908 10.073580
18.619089 -7.152658 46.295540
-4.675336 -3.591124 9.158535
11.033790 -5.584360 32.317268
13.122550 -0.841712 0.451076
23.784651 -4.133477 28.752069
-34.650242 -0.798962 -27.397079
35.903400 -1.705052 26.374680
8.112844 -1.430031 18.568251
-4.589357 1.690203 -9.849830
-53.146229 0.982970 -50.813980
47.811779 -5.382556 50.602798
-22.340940 -0.385090 -5.887017
36.598850 -1.021873 31.729601
-14.911280 1.066286 -11.400320
-6.903546 2.667102 -35.006882
-52.030548 3.117046 -47.911530
-13.782630 5.420428 -40.821060
38.670189 -2.916795 45.647240
-9.726619 2.863853 -38.000408
44.512650 -1.699594 32.534500
20.853279 -2.988797 36.325031
-0.345609 5.417388 -33.000870
-49.273361 3.107469 -46.165821
50.036720 -4.611639 46.489738
-15.632720 4.368340 -49.514660
-9.856911 5.602115 -42.206532
-3.744168 -0.117867 2.965262
36.405560 -4.956081 42.137959
-26.907040 0.702477 -21.214670
-46.761929 0.744426 -37.866249
44.020851 -3.625085 36.492710
-2.953181 2.785490 -16.390421
11.795620 -2.010478 7.653483
-20.191389 2.599720 -42.294628
-19.418909 4.794801 -39.824471
-34.986031 5.302224 -58.780140
-21.090000 3.137233 -46.582180
14.666780 -0.587183 16.533701
30.568800 -2.887218 31.084560
41.266739 -5.644917 48.591030
45.720921 -5.396708 49.371159
26.660139 -3.266759 24.475321
-11.200350 -0.498445 -15.624940
37.805790 -6.512094 57.595921
-32.403389 -2.538215 -14.170250
-34.984989 0.704607 -20.899429
-17.401621 -0.297496 -3.520025
24.429310 -1.841421 30.560499
-27.531481 4.209605 -57.955719
5.378483 -2.865460 9.862229
-31.258221 3.569319 -55.729790
-38.715931 1.477502 -29.695950
-52.414268 -0.714382 -38.719120
36.889351 -5.776199 47.112179
13.523380 -2.374136 11.083670
-25.708719 2.783658 -46.871399
-42.281071 -0.481834 -18.138769
3.796104 -3.904595 16.035431
-30.112949 7.340880 -64.057190
-52.981411 -1.063157 -36.644581
1.307294 0.272890 -13.801040
13.519210 -3.017043 15.444660
17.992640 -5.269407 50.002151
-38.259602 4.215132 -47.134441
18.244671 -6.239776 39.919971
-4.217414 -2.876606 4.552105
0.056025 -4.143516 15.579310
-0.313807 -3.871186 13.502620
41.039639 -3.988799 37.304771
13.232740 -1.628744 22.801661
25.974920 -7.785151 54.742199
-35.777889 2.103947 -48.214859
21.979219 -4.562093 47.482971
51.001640 -2.594308 50.327229
39.382351 -5.346973 45.573212
30.255440 -2.920781 24.111601
-8.051602 -0.287245 -15.283440
-41.224869 0.813383 -42.503059
-32.119881 0.337639 -33.715988
-39.650261 3.845560 -45.403740
18.255520 -3.836726 40.586559
37.894650 -2.110900 39.805790
13.610530 0.051131 11.600010
-39.295361 0.616688 -22.894850
-16.280760 2.221548 -20.256430
-35.019749 -1.129983 -25.332649
19.538370 -7.765649 50.893391
-54.873650 0.712501 -33.925880
-13.575480 -0.539044 -16.709471
48.011028 -5.021688 48.125130
0.654063 2.606233 -13.117700
-1.658827 2.449867 -13.354240
-5.736534 4.415509 -29.198030
-20.076530 6.134861 -49.525921
5.500356 -3.402338 13.587910
-6.796163 2.369076 -32.898022
4.688310 -1.334161 15.991790
35.805660 -0.558047 28.171591
-1.777602 -2.186459 15.886820
-39.640030 -2.390230 -19.508560
-13.116920 -0.034650 -19.903820
2.552103 -1.550405 -0.643511
-10.823120 3.132005 -23.234011
19.403219 -5.288644 34.141258
-13.197880 7.459761 -57.129520
38.122650 -3.339633 31.298050
-30.531389 2.244757 -46.023178
-6.484807 3.630090 -24.194639
49.947620 -2.326441 47.945000
-14.041190 -0.175789 -2.419320
30.158159 -8.383259 61.927761
-22.755060 0.088349 -8.885342
11.465420 -3.593161 33.417648
53.583832 -3.400976 56.450699
35.385799 -6.668470 52.253681
34.095390 -7.259705 55.517891
3.781419 2.680869 -16.145430
0.133570 -2.083935 1.602932
36.790890 -2.876467 35.323299
7.963242 2.143895 -5.824379
9.949932 2.490097 -7.073070
7.429478 1.897267 -11.426990
-28.810181 4.693240 -44.734970
16.560360 -1.647209 24.797510
-0.889515 5.713660 -41.142559
-30.249790 -0.232224 -11.630760
-20.532360 -0.322569 -4.838969
-38.772541 3.273454 -40.913960
17.316681 -4.759513 29.420389
-43.530941 4.080772 -49.399361
-16.375700 0.104070 -21.079531
11.001860 0.993436 3.727172
-17.715851 -0.487083 -19.435360
-37.094631 0.090995 -17.958260
-37.978149 4.481522 -51.323330
-6.520873 0.579175 -20.366341
-55.715919 1.257896 -41.114948
3.114873 2.776856 -12.888730
19.670589 -1.886018 28.183380
-24.090580 2.609275 -44.683151
53.557899 -5.295858 53.075069
21.769011 -3.292544 21.914881
-43.514900 3.778978 -47.311199
7.560144 -0.955669 15.042830
27.772369 -7.490956 53.595100
8.308935 1.833519 -3.487499
24.034040 -5.348033 41.504360
12.650110 -0.953214 17.892050
26.896080 -4.525626 49.978550
-10.036480 3.614538 -26.130840
36.836159 -5.350468 60.809181
-22.751150 -1.550520 -15.105550
-5.084409 2.529486 -15.825890
-0.289934 -1.421391 13.862520
-6.287785 1.373871 -8.648558
20.565531 -5.715016 37.685982
-51.454418 1.927712 -39.293930
-33.898560 2.391820 -49.078659
-9.694263 1.588977 -29.117140
37.785191 -1.871286 36.873470
-24.252590 5.096668 -44.799591
-49.288429 4.042807 -52.667782
-17.115669 1.144088 -13.190820
-8.383242 0.744259 -22.560711
31.816059 -0.724226 27.079321
21.259670 -4.859226 32.273350
-1.969402 0.898667 -2.954654
23.704981 -4.660995 35.316391
-26.670420 6.178531 -53.824600
-26.910250 5.023952 -45.889481
2.391243 0.298206 3.590247
50.761379 -5.345934 52.667561
-2.168783 3.868064 -40.606010
-54.222599 1.189749 -35.864719
2.658950 0.851201 -0.026567
-51.487591 2.020041 -55.523540
-55.623829 -0.445371 -39.878780
11.502100 -2.953081 13.881530
6.707096 0.001644 8.052078
-33.170391 -1.363281 -22.640909
12.180120 -2.893646 30.821569
9.106883 -1.131691 0.179891
-31.710831 1.148916 -39.096088
-48.762600 -0.090851 -40.818169
36.554890 -7.135560 56.004608
-3.115124 3.550203 -21.705589
-8.079712 -2.195494 -2.271785
-34.158798 5.617779 -54.427780
5.065643 1.372500 -2.205795
-40.997398 4.101516 -48.041069
-42.067669 -2.279604 -21.712730
22.087530 -1.397944 9.244395
31.137510 -6.701135 61.102901
24.911579 -6.328276 44.241989
-15.231500 5.510442 -44.668560
2.376222 2.190114 -9.286327
-35.271130 5.006307 -50.815929
-18.344339 0.797352 -11.507310
-55.288391 1.536007 -45.919472
-52.258541 1.328953 -52.693661
-15.940540 6.315545 -48.736450
-11.301340 4.811221 -35.132259
33.104870 -7.945721 59.537460
47.174702 -4.752351 45.835289
20.130320 0.769209 5.581781
-24.821270 4.168662 -56.022308
23.663019 -7.902132 54.085030
-48.397240 0.811924 -46.870548
-38.016399 -0.171151 -33.746189
30.888350 -5.938452 59.120979
-50.768719 3.700519 -51.209740
9.992938 0.095908 9.257396
-40.171589 -1.987849 -22.561720
54.691479 -2.028899 48.620510
26.203751 -4.012529 29.282249
19.976049 -2.819253 17.704340
4.740441 0.962487 0.411683
39.589409 -4.425568 39.474159
-13.200550 5.116916 -38.367008
2.214041 1.563271 -5.125200
-28.887140 -0.868934 -23.306620
-40.647202 3.469504 -43.399250
-0.017158 1.867608 -8.449109
24.360729 -2.684928 19.246960
13.382770 -0.343326 14.147760
20.696930 -6.578526 56.012520
17.263901 0.189890 12.709850
39.889751 -6.040154 50.513081
-13.664620 0.710594 -23.529921
17.939939 -2.221431 12.518860
-3.758649 1.089040 -22.305220
26.905291 0.206699 18.026400
32.442379 -3.668208 30.599979
-37.518871 -1.064067 -27.275789
18.350840 0.001474 14.605760
22.440250 -1.753561 11.863960
-28.958691 4.722991 -62.423828
-5.124145 1.418424 -25.350241
42.828388 -4.043561 51.659790
1.102989 2.342529 -11.079270
31.780649 -2.322241 21.176920
9.366345 -3.455753 16.094490
32.381302 -6.738662 51.068272
-33.218781 3.482864 -38.978191
17.178379 -1.579182 7.723404
6.979356 -4.400581 21.175770
-55.611599 0.980088 -43.204010
5.069760 -2.897452 24.966650
-11.950130 -1.708951 -7.768060
-20.724100 0.355790 -9.750668
8.138197 0.686680 4.204571
28.275530 -2.109607 17.509821
39.043510 -4.103646 53.823269
-27.966949 -2.814966 -9.546964
-32.284660 0.071308 -14.910630
-1.630938 4.869589 -29.946190
17.299030 0.617818 9.824025
26.424089 -4.952006 52.568970
-11.433310 2.377112 -35.618340
-31.104959 -1.074876 -23.378620
15.811530 -3.291544 35.548512
-36.266258 -2.405876 -17.380470
-51.908051 2.792512 -45.622250
-8.924066 -0.847503 5.022594
-10.408970 0.647791 -23.060011
43.657219 -1.745256 37.389679
32.957470 -1.622533 30.997561
0.963806 4.690420 -34.975422
17.648020 0.950175 7.755975
-34.185410 1.058547 -22.826941
11.135080 1.340543 1.447574
15.352710 -4.147425 38.590321
-37.426121 -2.022775 -20.673161
-28.251770 1.279493 -22.738920
-0.912969 3.126618 -17.557119
7.458816 -2.449170 8.208431
34.812889 -3.662486 48.554710
-46.947899 0.608494 -44.572262
-4.815703 1.919601 -28.614660
10.545050 -1.219358 18.512131
6.099639 -4.768602 23.193159
-12.120180 -2.520920 -2.317968
6.092243 -5.077851 25.642160
-22.828951 -1.934819 -12.482830
-19.444401 4.023499 -51.799080
9.160720 -3.779827 18.178579
-13.075650 5.025087 -54.292160
-11.787100 -0.294976 -0.349610
-4.410799 1.123441 -5.874962
-14.619860 0.068572 -4.409584
-21.882811 2.792488 -44.659519
-36.157761 2.355059 -32.947769
-11.617660 2.188077 -28.487391
-6.246249 -2.196734 -1.206529
17.471201 -3.932732 23.867790
-21.487341 3.924972 -52.320259
19.596001 -1.378591 24.694941
-8.710540 0.081058 -18.186411
7.033453 1.159644 0.356575
-13.342030 -1.579647 -9.430508
-32.286480 -0.477649 -11.214030
-4.253187 3.877517 -24.631689
-5.972075 -0.080698 -15.523850
16.196640 -1.028892 20.391741
-27.669081 7.379306 -62.851990
-35.040531 -2.562870 -15.566850
22.333429 -0.277001 18.731371
-22.329880 0.740067 -13.479920
-11.655370 -0.639972 2.073012
33.448429 -7.607418 57.490959
40.585159 -3.708734 35.184250
15.906090 -2.309060 11.972460
-44.796692 2.413937 -38.615311
24.584129 -3.307042 23.585180
-5.153189 2.298252 -31.439421
-22.880960 2.446841 -42.830372
-7.199289 -0.845725 -10.954590
-13.929530 2.566272 -38.380192
32.316189 -8.496387 62.815651
38.541729 -3.682852 33.859112
39.155090 -7.668775 62.741730
-16.893801 -2.330694 -6.218400
21.573420 -7.421721 49.688271
38.616169 -4.826363 41.629051
-6.280715 0.255217 -17.994820
28.234591 -4.031229 47.409729
-32.737900 0.950333 -21.201811
-26.140341 4.995370 -62.622879
36.560959 -6.276579 50.232121
-27.656969 4.504501 -60.112289
34.123741 -4.734903 55.333290
21.090231 -1.023805 23.106220
-7.222851 2.216859 -14.915220
-30.340450 1.923983 -33.437981
2.158389 -3.702417 13.748040
-33.921509 -0.185344 -31.187309
34.100491 -6.414431 49.848499
-27.008619 -1.178416 -20.203440
-24.454439 -2.288940 -11.043990
34.983261 -3.646712 31.709949
-21.648849 2.249413 -40.726681
-29.296040 0.661223 -17.149670
-26.893021 3.942615 -55.715721
6.152811 -3.872364 17.145370
-27.090460 4.656777 -43.446098
23.794300 -0.409153 10.186450
-2.628204 5.664442 -44.667061
-9.086266 -3.031613 2.856583
-49.695599 0.390875 -44.715858
38.859760 -0.869914 31.961639
13.851430 -4.014421 22.385189
-12.418290 0.308540 -21.866190
-39.900101 3.485663 -51.259651
-29.059830 3.745825 -55.637138
25.496861 -4.240527 47.313419
10.860070 -3.833138 19.513550
-32.389198 5.938256 -55.609051
-18.065290 -2.017807 -9.041739
-50.857109 -0.838013 -36.896179
14.101820 -1.158837 20.093700
20.264509 -3.755595 41.165550
1.355590 2.955793 -15.122680
24.473061 -7.227485 50.000839
12.863070 1.286072 2.813775
-41.147758 3.102113 -41.178379
23.344999 -7.574976 51.741619
-51.912201 1.424934 -36.066311
21.922230 -5.467567 53.529709
2.625692 -0.645669 -6.786570
15.831270 -6.167179 38.168652
28.562510 -3.259153 25.479340
19.316750 0.408895 12.374410
5.711795 -0.463084 10.661250
30.927050 -6.578611 49.227928
-37.719769 -0.952616 -14.404800
-9.290969 1.321946 -27.072611
-26.105129 0.035172 -10.938980
-3.524125 -3.768149 10.992180
-7.639935 -2.649490 1.060283
-12.242550 -2.909122 1.922385
19.466829 -2.214797 30.299101
41.848980 -4.573608 41.696362
-47.671349 1.348140 -50.158279
25.999599 -1.672385 13.480670
26.229280 -0.875226 24.994061
9.876689 2.163099 -4.858994
-8.335142 1.624056 -11.498680
-52.068829 2.280051 -42.207001
-24.324430 6.398221 -53.937191
25.700520 -7.518236 52.652149
-2.467166 6.577558 -42.279301
-1.599087 -1.695255 -2.012169
25.987301 -1.492833 29.055740
34.844540 -1.636726 32.974419
-25.406910 0.724805 -15.232500
1.887548 -2.265756 3.840024
3.979915 -0.091156 -9.829030
24.795940 -1.490649 11.755430
-5.239439 -2.569007 11.115550
-32.215851 2.650341 -32.575069
0.525504 3.467293 -19.070650
15.659440 0.287306 11.153640
35.697090 -7.484823 57.900532
-15.673540 5.471621 -42.281109
-8.553421 -0.412322 2.271227
-44.014709 1.421803 -48.425781
25.663219 -0.183394 19.957050
36.420712 -7.867068 60.869350
0.636369 0.761414 -17.527210
-48.163139 3.883207 -50.868889
21.956949 -0.606011 20.756451
29.339930 -3.519365 27.688700
-19.031210 -2.346307 -7.130978
17.300699 -4.474493 44.308540
-33.184738 5.192811 -50.860680
30.379351 -8.817711 63.959019
-35.544060 -2.007513 -19.669260
36.535271 -3.729409 33.103840
41.445950 -5.218349 45.836182
12.005260 -1.327793 20.062880
-48.323410 0.252683 -42.930820
17.409630 -6.962299 44.547539
-40.987740 1.902238 -49.934582
-6.375355 -1.728179 -4.488926
24.048090 -5.097170 52.230770
-2.198410 -0.766683 8.273018
9.108076 -0.204784 -6.158755
-24.299410 5.747980 -49.362499
43.820831 -3.072107 49.520741
-14.084760 2.368922 -19.844740
22.182699 -2.935699 19.723921
-38.816559 -0.256721 -31.342501
-3.195522 3.113930 -35.963451
7.256462 -2.498553 25.363661
14.380410 -3.225235 17.341539
33.028580 -5.083225 57.101490
-19.682421 -1.346226 -14.683760
1.116852 4.445166 -29.031630
-5.814723 3.061683 -37.117630
39.276649 -2.454228 42.861629
35.291489 -4.138129 44.132469
-34.955811 4.228427 -45.219841
7.694010 -0.084741 -7.761977
20.501129 -2.334283 14.722370
-2.274016 -2.071664 0.149151
7.279208 -3.430986 14.788480
19.495359 -0.268200 17.071220
-22.893950 3.570930 -50.702011
2.249268 -3.078606 9.588705
-2.883219 -1.382113 12.062290
-9.817914 2.825234 -20.551910
-42.275269 0.014147 -20.557190
32.744640 -6.281709 64.956459
-53.937439 2.832534 -47.097740
-36.424419 -2.739475 -13.765220
38.731369 -3.343429 48.515911
-51.988621 0.225866 -44.993938
12.693530 -4.880624 27.644600
1.190224 3.592519 -21.226589
27.611059 -2.467293 19.552870
33.208012 -6.205469 47.956860
28.744381 -6.488811 47.416759
30.189720 -7.640878 65.795639
-26.527719 6.229218 -60.978691
26.355339 -6.847339 48.504379
-9.765938 -1.552898 -7.586885
-52.764759 0.699396 -48.749199
7.960022 -2.062319 5.856667
-53.540451 -0.520392 -40.761520
49.925251 -5.080659 49.583981
19.677771 -4.704893 30.347530
22.109810 -5.125773 51.363781
40.915119 -3.050192 47.786709
-55.077019 -1.099317 -36.798649
-40.250259 1.560693 -47.126720
-20.923361 -2.603198 -5.887410
-34.868240 -0.264733 -14.188220
-0.997424 6.144548 -38.425369
18.876560 -4.420237 27.970240
-15.904170 2.587100 -39.624451
11.579750 -0.757372 15.956300
-15.608910 5.213470 -57.782051
-8.562881 1.050063 -24.778910
-47.686939 2.276816 -39.426109
-39.123878 1.438477 -33.015339
-31.498650 -0.493813 -27.281660
51.702209 -4.140960 54.352371
21.946489 -3.986001 43.629009
14.290460 -2.658030 13.450650
-17.237869 0.312183 -7.486962
4.025167 -4.513884 23.211180
-10.770730 -2.803080 0.354971
-34.266819 2.392295 -32.053139
-26.100309 2.350955 -44.113991
-6.425682 0.372770 -1.886569
-9.216847 1.006710 -7.780849
35.280281 -4.894587 57.079651
33.936390 -0.865147 29.210859
24.100309 -4.773961 50.114151
-7.688043 6.073508 -42.314178
33.164589 -5.917391 62.724861
10.903420 -0.678783 -1.909709
37.966541 -8.268642 64.389236
3.393929 0.116416 5.415615
15.109950 -3.666235 20.743931
27.547150 -1.018988 26.718170
13.226630 -3.835141 35.755322
6.867268 -3.427640 27.220800
17.896641 -1.303977 23.220860
-12.620350 3.123846 -41.499168
-25.319981 4.640743 -42.255119
14.561890 -5.856239 35.290310
4.734787 -0.266498 8.771373
-41.963699 3.710273 -45.880650
22.741171 -5.695822 55.515869
-3.513627 -1.646610 -3.428369
-18.023741 1.573838 -16.687099
-20.528891 -2.224535 -8.894481
-1.879421 -2.660821 4.396805
23.853359 -2.123824 15.135120
21.996389 -3.521600 39.043159
-50.081940 2.345793 -41.402679
-50.289150 1.644717 -53.826321
8.265685 -2.933239 28.848740
34.812321 -6.168665 65.353470
-34.934078 -1.679144 -12.626810
32.770321 -3.900354 49.016548
36.638981 -5.040718 58.748112
-34.603130 4.291206 -62.816280
-43.530499 3.376066 -44.508991
-35.085899 2.708814 -34.749008
-17.441019 -1.100014 -15.092330
24.086020 -0.519573 21.374090
14.314290 -2.355376 28.382401
-54.543591 0.449987 -47.546398
24.521080 -6.718355 56.072361
-36.066181 5.273048 -53.170059
53.611401 -3.499011 43.028111
35.191521 -5.656931 62.099140
22.603991 -6.419168 43.546440
10.968500 -2.232563 25.663170
18.875540 -2.654104 32.945599
-10.752190 0.183777 -20.056391
16.783119 -5.308956 42.086369
-23.822550 1.205796 -17.576040
-18.692789 -0.004523 -5.939223
19.478420 -4.781184 47.593349
7.659768 -0.551375 -4.618145
-34.772598 3.148046 -37.611000
9.138143 -1.777043 21.516911
-35.800011 -0.149360 -32.566841
-10.793510 0.992864 -25.641090
22.665340 -8.339681 57.195950
32.454990 -8.789673 64.880676
27.019030 -7.144144 50.845890
26.902990 -6.456581 46.178188
21.631769 -5.364393 35.900959
2.230491 -2.051949 19.507790
38.568920 -6.798843 55.412151
0.414948 -0.535285 8.151952
0.928824 -2.946112 7.923998
-28.565840 0.100778 -12.859880
4.109605 -1.724547 18.327221
-24.416090 -1.873808 -13.883360
42.548531 -4.089471 38.835838
-0.935740 -2.926110 6.743982
20.450939 0.187704 14.503970
30.518950 -0.362884 23.884590
29.246670 -6.902663 50.481911
-15.605830 4.480504 -52.315479
-3.224986 3.095596 -18.665520
-38.310600 -0.762616 -29.182980
42.670368 -3.498310 34.907661
43.501362 -2.550844 40.236092
35.837479 -8.444519 64.366722
18.423759 -5.819036 37.187229
-0.759949 -0.953944 10.339130
-6.667401 -0.638135 4.868599
10.538440 -1.929773 23.335569
-32.558048 2.743692 -50.736591
32.116360 -2.980458 25.566311
-50.625198 2.642118 -43.795090
16.549919 -4.356085 26.211950
9.465500 -1.724487 4.420831
28.636600 -5.371351 55.961319
9.466692 -0.989726 16.335360
-19.449520 -2.100961 -4.398664
-51.443001 0.574643 -47.086281
12.388550 1.702942 -0.289422
7.280365 -4.063725 19.066530
22.925529 -3.558539 41.399361
37.727169 -4.575245 56.231251
41.291100 -2.586187 44.879360
4.308772 -3.214802 11.631180
-32.159199 1.557104 -42.215370
-20.761000 3.582291 -49.493759
-10.720130 -0.843180 -12.985910
-39.746208 0.278329 -20.842581
-53.885960 2.279882 -43.264179
-27.681089 -0.307680 -9.568613
4.925321 -1.037450 -2.822680
-33.373482 -2.234314 -16.799080
29.229509 -7.591241 55.092369
-31.895950 -2.814516 -11.962980
22.071659 -5.892808 39.767220
-43.404400 0.071696 -38.675911
-29.178631 3.964953 -39.875561
-2.156250 2.411505 -30.509140
-28.663919 -2.285971 -13.619860
10.356460 -5.111828 27.894119
-4.366926 -2.197606 -0.150236
39.025021 -5.721915 47.912121
2.555780 -0.382591 8.337704
17.102430 -3.429188 37.197300
47.670639 -2.388678 47.053459
-42.440590 1.359160 -47.049191
-19.187401 3.437155 -47.517368
-33.789650 1.761633 -27.396601
-21.761749 -2.096031 -10.618120
21.449100 0.818558 10.800080
-8.586616 -1.210278 -9.270310
31.447290 -7.853625 58.078918
-32.543789 -0.937988 -25.177830
-4.850966 2.773521 -34.548031
-7.373521 -3.304178 5.672359
2.197939 -3.397164 11.684640
39.421909 -1.755060 38.244362
-17.837429 2.768086 -42.082340
12.289420 -2.375707 27.402880
5.505923 -0.933869 13.729500
20.797550 -6.866147 45.559872
-13.275000 1.776394 -15.347390
-18.254459 6.437582 -50.559071
29.915171 -0.102735 21.794161
10.988490 1.868566 -2.220568
18.706650 -1.684084 9.295526
-2.212173 1.185301 -5.048025
36.866058 -5.924347 64.812447
1.226473 -1.097379 12.453280
-45.878319 2.604983 -40.584412
15.862610 -1.375270 22.548941
-28.763269 3.472377 -53.532200
-25.395069 -0.127757 -8.895121
-41.004581 2.475300 -36.705540
-26.508310 0.947567 -17.434299
-10.906510 1.076070 -9.212351
41.342628 -4.910731 43.728539
-28.247971 1.099458 -19.498079
20.609650 -4.953807 49.403839
6.011316 1.732732 -4.128144
-29.720320 3.472972 -36.781979
24.829660 -2.952621 21.297541
-30.216089 1.684921 -24.768520
-10.283650 -2.192894 -3.509850
19.923491 1.151629 7.671375
13.549410 -3.575307 19.250641
6.145669 -1.478364 17.802971
28.576429 -5.615205 45.244381
-16.094200 -0.732694 -16.804140
3.373636 -2.359826 5.309834
-31.567169 6.994541 -62.518299
7.337500 2.391390 -7.853456
14.100720 1.631286 1.141775
-15.694980 2.894886 -41.711842
11.323590 -1.719140 5.410846
21.069090 -1.488815 26.250401
14.754960 -1.018008 2.575239
10.658820 -2.791548 29.262489
-0.866793 3.767164 -21.913561
17.030331 -3.304098 19.341841
18.312441 -7.520695 48.618160
-39.192478 0.030509 -18.842421
1.391120 -0.745050 10.147430
24.310480 0.893480 11.728130
-25.780140 5.396241 -64.836128
-27.833771 7.520162 -65.727333
-40.638390 -0.445999 -24.191601
23.216930 -7.081589 48.325150
-8.808140 2.672538 -36.140072
-21.791260 -0.943750 -18.701269
37.988560 -0.636459 29.914249
-24.840900 -2.545433 -8.992949
-39.439659 4.444830 -49.462971
-37.077621 4.052005 -45.293919
0.609595 5.216370 -31.060690
-48.920589 -0.408785 -38.702579
-31.945881 4.663620 -63.815479
-18.001711 2.751910 -40.000080
-37.098049 -1.356917 -25.044519
-5.267959 -0.763271 6.499322
-1.464154 -3.685268 11.592370
0.512331 0.949453 -1.911875
-20.328341 4.268547 -54.034698
1.993549 1.960044 -19.621651
-36.099941 6.763820 -63.646980
-23.294060 4.638503 -41.010590
6.148792 -2.280369 23.253380
4.063506 -4.630205 21.099171
-29.693140 -1.548295 -19.288309
5.181421 -0.283494 -7.827837
-5.071145 3.516954 -22.601440
37.106621 -8.589807 66.279953
-28.211620 2.134985 -43.880070
19.179029 -5.939388 53.581890
-34.453911 3.170935 -54.866341
-31.142000 3.248631 -53.431709
36.868221 -1.302697 33.806561
-32.401169 3.270803 -37.003868
-3.348680 -1.121529 10.029080
21.235800 -7.837670 52.311939
-12.570110 0.383647 -5.410752
-10.778350 2.468068 -18.652399
-15.207440 -0.945731 -14.855630
-5.680210 -3.381185 7.149421
-14.686000 6.849020 -58.694038
-35.966419 1.011004 -40.710320
-4.303066 5.767477 -37.695721
-16.585609 0.072832 -5.497153
39.960312 -6.054601 52.658909
4.957708 2.920196 -14.406060
