ply
format ascii 1.0
element vertex 500
property float x
property float y
property float z
property float nx
property float ny
property float nz
end_header
-0.716441 -0.229363 -0.0991377 0.998924 -0.00151819 0.0463499 
0.41129 -0.138231 0.521132 -0.588886 -0.0104154 -0.808149 
-0.689098 0.128912 0.136004 0.962294 -0.000964702 -0.27201 
-0.195805 -0.509981 0.474822 -0.33971 -0.00802076 0.940496 
0.299373 0.551731 0.423462 0.448227 0.0964129 0.888705 
0.500947 0.554509 -0.337001 0.900085 0.0220681 -0.435156 
0.152368 0.00249752 0.487605 0.237815 -0.030341 0.970837 
-0.179751 0.606462 -0.607203 -0.315928 0.00908807 -0.94874 
-0.271373 0.302039 0.441255 -0.453558 -0.0311463 0.890682 
0.0295186 -0.0781551 0.651551 -0.0889347 0.0671767 -0.99377 
0.513367 -0.776569 -0.436941 0.3185 0.923907 -0.212023 
0.627529 0.24856 -0.404503 -0.891003 0.00791638 0.453928 
0.237464 0.309124 0.611008 -0.445929 -0.0714952 -0.892208 
-0.780903 0.620003 -0.056425 0.973171 0.22991 -0.00893465 
0.502348 -0.542051 -0.606558 -0.629136 -0.312229 0.711829 
0.596019 0.28553 0.330062 -0.842692 -0.0429057 -0.536683 
-0.0562514 0.263995 0.506012 -0.0553236 0.0822709 0.995073 
0.0432201 0.394294 0.506825 0.00442968 -0.0795644 0.99682 
0.110943 -0.111535 1.07811 -0.826082 0.160686 -0.540156 
-0.523098 0.137391 -0.299205 -0.910508 -0.000652546 -0.413492 
0.770494 -0.589148 -0.0854812 -0.970751 -0.235434 -0.04704 
-0.223318 -0.655082 -0.591192 -0.405542 0.0752174 -0.910976 
-0.567474 0.609165 0.0192015 -0.989836 0.0865293 0.112859 
-0.346024 -0.26176 0.56351 0.377665 0.080033 -0.922477 
0.60397 0.434607 0.318026 -0.854774 0.181248 -0.486323 
-0.521499 -0.234206 -0.301803 -0.909875 -0.00133389 -0.414881 
-0.32602 -0.512479 0.407665 -0.558674 -0.00569112 0.829368 
0.541169 0.66695 -0.244835 0.959574 -0.128706 -0.250303 
-0.505182 -0.613061 0.208556 -0.877187 -0.111253 0.467082 
0.396165 0.288779 0.531963 -0.550176 -0.0493499 -0.833589 
0.428944 -0.0777469 -0.44056 0.754017 -0.006293 -0.656825 
0.142858 -0.33586 0.745731 -0.995497 -0.0760161 -0.0566268 
0.398076 -0.741909 0.344635 0.620237 0.503804 0.601238 
-0.127895 -0.577923 0.693609 -0.0420254 -0.18708 -0.981445 
0.18632 -0.45717 0.626628 -0.621238 -0.124423 -0.773681 
0.484406 0.513541 0.238657 0.848801 0.0322094 0.527731 
-0.499263 -0.0821532 -0.34516 -0.873746 0.00143389 -0.48638 
0.554798 0.495118 -0.196596 0.960181 0.0149282 -0.278981 
0.74373 -0.736061 -0.0447808 -0.796331 0.604828 0.00630283 
0.401279 0.636684 0.343021 0.722369 0.0348967 0.690627 
0.712885 0.196524 -0.0931732 -0.999606 0.0085953 0.0267095 
0.305904 -0.677341 0.652575 -0.435266 0.122283 -0.891959 
0.157496 0.0288108 -0.61285 0.280218 -0.000994768 -0.959936 
0.753312 -0.692253 0.115309 -0.964055 0.180125 -0.19533 
0.00575446 -0.204399 -0.778529 -0.0170212 0.012375 0.999779 
-0.22437 0.30369 0.616502 0.333352 0.0280227 -0.942386 
0.701351 -0.221725 -0.198489 -0.98318 0.0240871 0.181045 
-0.208015 -0.652813 0.470471 -0.333668 0.00533401 0.942676 
0.164406 -0.600752 0.48421 0.249571 -0.101061 0.963069 
-0.559683 -0.336138 0.064098 -0.978972 0.0226089 0.20274 
0.613129 0.777999 -0.313219 0.22585 -0.971836 -0.0672722 
-0.432548 0.231546 0.507941 0.630187 -0.0535387 -0.774595 
-0.564835 0.0912468 -0.163594 -0.984458 -0.00498018 -0.175549 
0.555389 0.0973472 0.386015 -0.777014 0.00784647 -0.629435 
-0.540591 -0.728065 0.126399 -0.865937 0.388832 0.314584 
-0.435718 -0.521998 0.309367 -0.75509 -0.00822895 0.655569 
0.549015 -0.601731 0.0926879 0.963675 -0.108881 0.243876 
-0.337306 -0.106679 0.568426 0.455705 -0.00672871 -0.890106 
-0.139908 0.678167 -0.829538 0.212112 -0.0104549 0.977189 
0.443054 0.102042 -0.42326 0.774808 0.00641546 -0.632165 
0.712244 -0.234417 -0.0144881 -0.998129 0.0200518 -0.0577701 
-0.000385212 0.778009 -0.724934 0.0937265 -0.936413 -0.33815 
0.326167 0.245912 -0.699818 -0.454246 -0.0319816 0.890302 
0.00231554 -0.571835 -0.826159 0.00497558 -0.257117 0.966367 
0.117219 -0.774272 -0.661265 0.142213 0.77352 -0.61761 
-0.164613 0.303197 -0.612252 -0.288695 -0.005641 -0.957404 
-0.59578 -0.633212 -0.572669 0.749246 -0.343993 0.56595 
-0.573092 0.0171684 -0.0378517 -0.998974 -3.92249e-05 0.0452843 
0.257238 -0.240375 -0.730515 -0.350037 0.0644533 0.934516 
-0.284814 -0.0239441 -0.720548 0.392806 -0.00253922 0.919618 
-0.31863 -0.382724 -0.539725 -0.552437 0.0305169 -0.832996 
0.710953 -0.469545 0.00766216 -0.957349 -0.238972 -0.162405 
-0.178823 -0.778293 -0.68432 -0.00679497 0.954693 -0.297515 
-0.274688 0.410546 -0.566141 -0.485317 -0.0153915 -0.874203 
-0.139663 -0.102645 0.966067 0.9816 -0.0502844 0.184209 
0.603111 -0.102302 0.319759 -0.850068 -0.0128971 -0.526515 
-0.541804 -0.0113556 0.125094 -0.944288 0.00492494 0.329084 
-0.734399 -0.533724 -0.0614338 0.925455 -0.370253 0.0802902 
-0.675216 -0.693211 -0.446171 0.912805 -0.0170292 0.408041 
-0.421945 -0.470097 -0.452018 -0.74304 0.0102603 -0.669169 
0.396872 0.11315 0.531277 -0.567188 0.0310889 -0.823002 
-0.606714 -0.527352 -0.464665 0.824421 -0.315033 0.470196 
0.662212 -0.03259 -0.331637 -0.928041 -0.0164788 0.372112 
-0.397032 -0.775707 -0.524301 -0.431999 0.74459 -0.508884 
-0.413229 -0.0393966 -0.648743 0.576058 0.00148207 0.817407 
0.679427 0.299086 0.156065 -0.947332 -0.0531793 -0.315807 
0.304473 0.11459 -0.546881 0.533416 0.00695499 -0.845825 
-0.158871 -0.0148307 0.634679 0.207389 -0.0258775 -0.977916 
-0.0747479 -0.207448 1.08161 0.538374 0.373402 -0.755463 
-0.467437 -0.314926 0.480186 0.661644 0.0909544 -0.744281 
-0.0107298 0.132691 1.13214 0.0645307 -0.275363 -0.959172 
-0.702448 0.100479 -0.206626 0.978797 0.00111031 0.20483 
0.570646 -0.532878 -0.0746784 0.997069 -0.0732422 -0.0220915 
-0.14382 0.244541 0.930432 0.99764 -0.068171 -0.00820039 
0.635634 0.157214 0.261998 -0.89063 0.00680715 -0.454677 
0.137627 0.305659 0.752708 -0.99517 0.0895559 -0.0402137 
0.483814 0.287939 -0.589243 -0.660303 -0.0210151 0.750705 
0.74635 0.590463 0.133307 -0.917933 0.238357 -0.317152 
-0.343013 0.171099 0.395831 -0.580751 0.000198553 0.814082 
-0.53436 0.424679 0.146325 -0.931664 -0.0411228 0.360986 
0.327086 0.428861 -0.699202 -0.387622 0.151854 0.909225 
0.0320164 0.101377 0.507469 0.0442626 -0.0696557 0.996589 
0.17278 -0.204868 -0.608767 0.308008 0.00172123 -0.951382 
-0.522476 -0.638842 -0.299635 -0.918706 0.0413104 -0.392775 
0.559381 -0.396083 0.0517493 0.975525 0.0454111 0.215147 
-0.344275 0.568561 -0.521646 -0.58753 0.0234665 -0.808862 
-0.47149 -0.337912 -0.389472 -0.814029 0.00464054 -0.580805 
0.426529 -0.344904 0.51036 -0.655115 -0.0131339 -0.755415 
0.610928 -0.776659 -0.323189 -0.000555978 0.999139 -0.0414782 
0.568433 0.743109 -0.020402 0.895174 -0.445304 0.0191539 
-0.48128 -0.774814 0.319148 -0.414084 0.855155 0.31184 
-0.430669 0.487196 -0.441851 -0.747342 -0.0100847 -0.664363 
0.438495 -0.30189 -0.627749 -0.618694 0.00329882 0.785625 
-0.0644921 -0.43795 0.861884 0.434762 0.868661 -0.237507 
0.0107652 0.262484 1.07455 -0.0984086 -0.523886 -0.846085 
-0.0309445 -0.778297 -0.69841 0.0105313 0.925126 -0.379513 
0.213082 -0.480772 -0.745889 -0.320645 -0.330692 0.887598 
0.324597 -0.261668 0.406686 0.562679 -0.0231645 0.826351 
-0.515132 0.0123004 -0.561567 0.722987 0.0068001 0.690828 
0.163019 0.0102713 0.632811 -0.211827 -0.0934489 -0.972829 
0.0849785 0.0275981 0.894792 -0.639543 0.0531341 0.766917 
-0.430315 0.735691 -0.679012 0.49512 -0.625511 0.602985 
0.559044 0.0484579 0.0505872 0.980392 -0.00365599 0.197023 
0.555331 0.33034 -0.194323 0.975081 -0.0063698 -0.22176 
0.295238 0.330534 -0.552486 0.52261 -0.00307871 -0.852566 
-0.56635 -0.241376 0.37627 0.788024 0.00686589 -0.615607 
-0.566911 0.268742 -0.152208 -0.986957 0.0149644 -0.160289 
-0.712072 -0.143668 0.0199211 0.993628 -0.00885163 -0.112359 
-0.239752 0.471274 -0.738313 0.303553 0.200355 0.931511 
0.0959534 -0.435736 0.500441 0.141306 0.0255702 0.989636 
0.491416 0.691986 0.535911 -0.670313 -0.137833 -0.729166 
0.674204 -0.698672 -0.43165 -0.849498 0.326578 0.414367 
0.300965 -0.435431 0.422236 0.524751 0.0641816 0.848832 
0.00706433 -0.0357693 1.15123 -0.0593353 0.0675908 -0.995947 
0.340539 -0.231854 -0.522165 0.59964 -0.00731773 -0.800236 
0.262957 0.533037 0.618175 -0.173788 0.472998 -0.863754 
0.0829085 0.779454 0.582238 -0.0807417 -0.995835 0.0423448 
0.361266 0.0960917 -0.68006 -0.511894 0.0129983 0.85895 
-0.314271 -0.53679 -0.542786 -0.54204 -0.0525648 -0.838707 
0.333443 -0.607604 0.400369 0.621505 -0.126377 0.77315 
-0.432566 -0.210059 -0.439876 -0.752369 -0.00955413 -0.658672 
0.551931 0.613331 0.0819735 0.960196 0.113093 0.25541 
-0.112491 -0.67834 -0.831875 0.0965611 0.129642 0.986848 
0.502838 0.775062 0.269377 0.543519 -0.772485 0.32841 
0.600306 -0.295336 0.324105 -0.824531 0.0844809 -0.559474 
0.601231 0.511302 -0.446862 -0.688325 0.267046 0.674459 
0.610113 -0.488921 0.30716 -0.783849 -0.327405 -0.527623 
0.747883 0.730619 -0.0968955 -0.882814 -0.469403 0.0173394 
-0.339264 0.776328 0.514579 -0.00696331 -0.998482 0.0546315 
-0.568917 -0.6372 -0.140298 -0.989001 -0.0212073 -0.146378 
0.548988 -0.61302 -0.21897 0.965169 -0.0493151 -0.256936 
0.521739 -0.488032 0.424182 -0.730324 -0.367423 -0.575871 
-0.564943 -0.486915 -0.16395 -0.982475 0.0151723 -0.185778 
-0.274847 0.291624 -0.724575 0.373471 -0.0334689 0.927038 
0.42518 -0.370001 0.318387 0.736438 0.0421859 0.675188 
-0.530836 0.628182 -0.280211 -0.925152 0.110703 -0.363095 
-0.236721 -0.383926 -0.739569 0.328548 -0.086291 0.940537 
0.334738 -0.0532398 -0.695191 -0.48048 -0.0139005 0.876895 
-0.176656 0.0680281 -0.757193 0.246073 0.00526854 0.969237 
0.147855 0.356309 -0.61561 0.249024 -0.0175201 -0.968339 
0.748781 0.682937 -0.264109 -0.99219 -0.0591432 0.109823 
-0.693232 0.730418 0.224193 0.854769 -0.379246 -0.35432 
-0.709739 0.498602 -0.160016 0.948904 0.280315 0.14493 
0.710013 0.522816 -0.167058 -0.940031 0.308483 0.145535 
0.145973 0.778283 -0.688422 0.103541 -0.854778 -0.50856 
0.683228 -0.424584 -0.271029 -0.908683 -0.20165 0.365557 
0.271917 -0.349283 -0.565933 0.493694 0.00639722 -0.869612 
0.127172 -0.116042 0.932354 -0.939729 -0.129773 0.316337 
0.0746707 0.514641 -0.773948 -0.158216 0.296957 0.941692 
0.007723 0.643632 -0.635471 0.0229126 -0.109944 -0.993674 
-0.513538 0.221661 -0.563317 0.721295 -0.0395827 0.691496 
0.705041 0.605712 -0.390434 -0.821924 0.329982 0.464277 
-0.248577 -0.574665 -0.787536 0.351134 -0.272904 0.895672 
0.373658 0.448946 0.545988 -0.525587 0.148956 -0.837598 
-0.431107 0.651189 -0.441474 -0.782173 0.0136554 -0.622912 
0.13878 0.178355 0.9791 -0.99702 -0.0253495 -0.0728633 
-0.129742 -0.287249 0.953094 0.919919 0.232388 -0.315824 
-0.71626 0.14473 -0.0349797 0.998982 -0.00240915 -0.0450481 
0.544134 -0.752918 0.419363 -0.42662 0.793068 -0.434786 
-0.504007 -0.424394 0.210626 -0.851984 0.0428511 0.521811 
0.712821 -0.0874204 -0.100194 -0.998652 -0.00620707 0.0515342 
0.727 0.743219 0.0527877 -0.737989 -0.663734 -0.121779 
0.217729 -0.122754 0.617642 -0.172712 0.0983595 -0.980049 
-0.570913 -0.149336 -0.00710154 -0.994732 -0.000312502 0.10251 
-0.40339 -0.741078 0.555662 0.497709 0.643156 -0.581924 
-0.582623 0.114153 -0.481056 0.811654 0.01505 0.583945 
-0.418269 0.0706865 -0.455969 -0.728056 0.000469399 -0.685517 
0.648562 0.015616 0.235785 -0.907504 0.00134049 -0.420042 
0.0860539 0.370952 -0.773324 -0.145134 -0.0968035 0.984665 
0.114026 0.187281 -0.769373 -0.163802 0.0229409 0.986226 
0.304371 -0.661581 -0.547211 0.48342 0.121163 -0.866963 
0.0587357 0.483013 -0.632136 0.0940137 0.0200982 -0.995368 
-0.454359 0.204032 -0.41356 -0.79229 -0.0056306 -0.610119 
-0.330005 0.627749 0.405514 -0.578416 -0.0399356 0.814764 
-0.285884 -0.776099 0.481607 -0.203478 0.798671 0.566322 
-0.0873502 0.189662 0.803139 0.70102 0.429965 0.568947 
0.330094 0.595055 -0.529844 0.564886 0.0618254 -0.82285 
0.48382 -0.171618 -0.589123 -0.679876 -0.00173441 0.733325 
0.338644 -0.426361 -0.69313 -0.374087 -0.141651 0.916512 
0.458635 -0.581385 0.276882 0.787246 -0.141867 0.600098 
-0.75486 0.714142 -0.177636 0.893 -0.384783 0.233438 
0.408763 -0.36332 -0.462411 0.712653 0.00915722 -0.701457 
-0.506209 -0.493404 -0.333035 -0.88322 -0.0118111 -0.46881 
-0.669736 0.543405 0.255086 0.916623 0.231944 -0.325584 
-0.094292 0.249127 0.657701 0.666886 0.496033 -0.556071 
0.216204 0.0702739 -0.744912 -0.297667 -0.00191464 0.954668 
-0.380989 -0.0743109 -0.492023 -0.662247 0.00243987 -0.749281 
-0.0352001 0.189305 -0.778522 0.0433341 0.0196621 0.998867 
-0.717616 0.536027 0.0904633 0.919761 0.275041 -0.279988 
-0.682774 -0.0672122 -0.283029 0.95209 -0.0118733 0.305588 
-0.000149069 0.0684204 0.652702 0.00239886 -0.00377105 -0.99999 
-0.582972 0.769236 -0.172957 -0.648108 -0.740549 -0.177606 
-0.591953 0.691846 -0.568333 0.717391 -0.269709 0.642345 
0.378007 0.766349 -0.512156 0.568915 -0.563646 -0.598864 
-0.0372468 -0.404425 -0.634803 -0.0574653 0.0183216 -0.998179 
-0.429736 0.262819 0.316336 -0.751261 0.006245 0.659976 
0.504532 0.778186 -0.431752 0.343279 -0.803112 -0.487002 
-0.624933 -0.106791 -0.415232 0.867067 -0.0115186 0.498058 
-0.656566 0.768023 -0.323287 0.538684 -0.825595 0.167963 
0.190249 0.732418 0.475148 0.250505 -0.537743 0.805034 
-0.201548 0.529417 0.472592 -0.333438 0.0451032 0.941693 
-0.440775 0.0146499 0.501612 0.623807 0.0213389 -0.781287 
-0.00437295 -0.587916 0.50882 -0.0079102 -0.114095 0.993438 
0.483167 0.692841 -0.667242 -0.687216 -0.0296423 0.725848 
0.552811 0.2688 0.0787609 0.969341 0.0135893 0.245343 
-0.502344 0.770084 -0.372766 -0.663119 -0.664396 -0.344748 
-0.15801 -0.097707 -0.761308 0.220208 -0.00631087 0.975432 
-0.620359 -0.297378 -0.423314 0.866859 0.0376465 0.49713 
-0.713828 -0.744161 0.122108 0.660534 0.730779 -0.172215 
0.603151 0.775984 -0.16827 0.558163 -0.82776 0.057158 
0.42164 0.566362 -0.695578 -0.588959 0.306168 0.747923 
0.513837 -0.0495202 0.432963 -0.712244 -0.0104462 -0.701854 
0.69201 -0.539308 0.195323 -0.86731 -0.368343 -0.334809 
0.598541 0.572037 0.409931 -0.708753 0.30887 -0.634246 
0.561313 -0.108779 -0.167031 0.983376 0.00178848 -0.181571 
-0.0715106 -0.419231 0.505 -0.106782 0.0369045 0.993597 
0.606158 0.698505 -0.537476 -0.749775 0.0159892 0.661499 
-0.632435 0.423515 -0.401357 0.839476 0.180355 0.512594 
-0.436234 -0.583316 0.571986 0.60386 -0.284219 -0.744696 
0.152292 0.636193 0.705152 -0.17489 0.280761 -0.943709 
0.562545 0.441668 0.0328025 0.98356 -0.0516085 0.173049 
-0.343423 -0.770723 -0.667203 0.00944534 0.95239 0.304735 
0.284659 -0.00386341 0.431844 0.500251 -0.00176181 0.865879 
0.0327054 0.208106 -0.634789 0.0628918 0.00905785 -0.997979 
0.656328 0.116987 -0.344332 -0.919036 -0.000906182 0.394173 
-0.528949 -0.155263 0.158998 -0.920083 -0.0102305 0.39159 
0.616794 -0.605618 -0.534793 -0.739091 -0.237594 0.630312 
0.336478 0.325253 0.398632 0.584138 -0.01132 0.811576 
0.0215489 -0.307936 1.04152 -0.192406 0.601769 -0.775148 
0.700055 0.0958072 -0.202814 -0.981644 0.00738914 0.190578 
-0.50012 0.338096 -0.344793 -0.881817 0.00366182 -0.471577 
-0.508097 0.604523 -0.655402 0.63219 0.176023 0.754554 
0.679914 -0.681435 0.314255 -0.885638 0.135379 -0.444205 
-0.665872 0.59857 -0.467125 0.848395 0.223979 0.479645 
-0.676488 -0.492706 -0.299524 0.912886 -0.177718 0.367498 
0.694739 0.148372 0.101248 -0.975297 0.00369686 -0.220865 
0.387105 0.78074 0.464936 0.12254 -0.985242 0.119509 
-0.458771 0.403772 0.280607 -0.79314 -0.0119977 0.608921 
0.550721 -0.0660491 -0.518175 -0.765037 -0.00882268 0.643926 
0.41477 -0.605026 -0.456536 0.753054 -0.0225953 -0.657571 
0.713245 0.0549535 -0.0420611 -0.999696 -0.00439056 -0.0242699 
-0.607615 -0.771776 0.247343 0.263223 0.959809 -0.097365 
-0.300829 0.667676 -0.78575 0.369572 0.036751 0.928475 
0.555079 -0.437519 -0.196878 0.972864 0.0197293 -0.230534 
0.610784 -0.610868 0.420348 -0.748145 -0.300787 -0.591444 
-0.683197 -0.343522 -0.281105 0.946527 0.0594552 0.317099 
0.231911 0.495727 -0.586108 0.414969 0.0136974 -0.909732 
0.682115 0.433383 -0.275006 -0.974871 0.094175 0.201886 
-0.459117 0.396811 0.486567 0.594587 0.133065 -0.792944 
0.486176 -0.268077 0.236039 0.854387 -0.00954248 0.51955 
-0.51827 -0.779283 -0.444543 -0.34823 0.865352 -0.36042 
-0.304745 0.135659 -0.548787 -0.528216 0.00580005 -0.84909 
0.0897755 0.235567 0.501263 0.154542 0.0386982 0.987228 
-0.419366 0.573285 0.576427 0.525467 0.346731 -0.776957 
0.568092 -0.104617 -0.00800314 0.995162 0.00670623 0.0980178 
-0.181385 -0.305883 0.629144 0.69683 0.0502552 -0.715473 
0.01989 0.640617 -0.846019 -0.0334853 0.321943 0.946167 
0.509396 0.10789 0.193725 0.891408 -0.00473694 0.453178 
-0.338092 0.44724 0.399512 -0.612233 0.00339529 0.79067 
-0.0811287 0.582637 0.706066 0.212954 -0.0552553 -0.975499 
-0.714387 0.412178 -0.00256894 0.996104 0.0621547 -0.0625597 
0.0687261 -0.457832 0.807235 -0.354275 0.909742 -0.216468 
0.395932 -0.564868 -0.709476 -0.528452 -0.306478 0.791713 
0.527415 0.00222615 -0.282196 0.925488 0.00218137 -0.37877 
-0.0129167 0.349225 -0.635705 -0.0107173 -0.00595998 -0.999925 
-0.368313 0.553894 -0.723151 0.369344 0.347445 0.861897 
-0.0235235 -0.241888 -0.635706 -0.0385925 -0.00819207 -0.999221 
-0.437447 0.0914452 0.307372 -0.76499 -0.00268545 0.644037 
-0.47704 -0.649162 -0.686075 0.535485 -0.214824 0.816766 
-0.431869 0.6707 0.313974 -0.772147 -0.144053 0.6189 
-0.253804 0.160931 0.606037 0.187009 -0.0174261 -0.982204 
-0.562912 -0.176871 -0.175694 -0.9792 0.000853397 -0.202896 
0.228639 -0.15439 0.460634 0.400163 0.00914887 0.916398 
0.450027 0.246015 0.288444 0.789761 0.00778172 0.613366 
-0.607388 -0.712455 0.399228 0.71031 0.429105 -0.557967 
0.253419 0.215497 0.449326 0.439072 0.00920725 0.898405 
-0.638474 -0.0933182 0.26263 0.889744 -0.010759 -0.456334 
-0.598342 0.582007 0.417416 0.798959 0.20325 -0.565998 
-0.578065 -0.778336 -0.303321 -0.614681 0.77727 -0.134234 
0.515389 -0.0420339 0.181432 0.902635 0.00591052 0.430367 
0.150031 0.641263 -0.615022 0.263257 -0.0791136 -0.961476 
0.617422 -0.774948 -0.128299 0.405773 0.913766 0.0194842 
0.509344 -0.512292 -0.320857 0.883213 -0.0296234 -0.468036 
0.506102 0.271793 0.441006 -0.707809 -0.026633 -0.705902 
-0.621624 0.0667224 0.293449 0.865836 0.00296721 -0.500319 
0.172145 0.187699 -0.608512 0.307298 0.00480106 -0.951601 
-0.571189 -0.459092 -0.00930848 -0.997277 0.0358187 0.0644611 
0.694757 -0.337866 0.101166 -0.980235 0.0423247 -0.193256 
0.0107817 0.0355843 -0.635345 0.018124 -0.00446922 -0.999826 
-0.101649 0.123525 -0.626716 -0.17735 -0.00351544 -0.984142 
0.0217281 0.375767 0.978756 -0.1881 -0.709866 -0.678756 
-0.359995 0.152571 -0.68248 0.498716 0.00623342 0.866743 
-0.0741289 0.763217 0.509843 -0.0459612 -0.600814 0.798067 
-0.632062 0.222506 0.27511 0.873212 -0.0040975 -0.487324 
0.13796 0.302338 0.895799 -0.981215 -0.161497 -0.105522 
-0.543829 0.132122 0.119083 -0.946456 -0.00676624 0.322762 
0.101192 -0.206437 0.808738 -0.709609 -0.544812 0.446806 
0.133877 -0.591356 0.702357 -0.0766215 -0.166159 -0.983118 
0.591324 0.779338 0.140966 0.329914 -0.932241 0.148603 
0.708126 0.709653 0.220394 -0.871198 -0.360369 -0.333388 
-0.184314 -0.368969 -0.605667 -0.324074 0.00963585 -0.945983 
0.509796 0.221667 -0.320876 0.890862 0.00299092 -0.454265 
0.431214 -0.725033 -0.680718 -0.546338 0.48849 0.680362 
-0.0911044 -0.768618 0.523469 -0.0936745 0.665081 0.740872 
-0.166649 -0.512188 -0.611288 -0.293993 -0.0113492 -0.95574 
0.571181 0.364642 -0.49243 -0.788158 -0.116061 0.60443 
0.235816 -0.779909 0.542075 0.00732489 0.985182 0.171357 
-0.11357 0.450578 -0.624762 -0.18955 0.00420369 -0.981862 
-0.543115 0.775584 0.223909 -0.550631 -0.811428 0.195932 
-0.0435843 -0.200676 0.736549 0.260352 -0.965242 0.0229265 
-0.655942 0.778997 -0.0485631 -0.0839852 -0.995809 -0.0362072 
0.217727 0.758048 0.624338 -0.14533 -0.876711 -0.458537 
0.066542 -0.725312 -0.813595 -0.0198998 0.473446 0.880598 
0.56578 -0.722055 0.00987221 0.923601 0.377161 0.0686345 
-0.297969 -0.214966 -0.714718 0.411448 0.00736521 0.911403 
-0.534929 0.27857 0.144832 -0.929944 0.0107209 0.367544 
-0.535088 0.699933 0.492187 0.689337 -0.334445 -0.642621 
-0.0487485 -0.39163 -0.777079 0.0752019 -0.102432 0.991893 
-0.251999 0.734169 0.642222 0.196697 -0.613617 -0.764712 
-0.0740491 -0.0724755 0.504242 -0.103095 0.0473018 0.993546 
-0.202325 -0.360507 0.472499 -0.351391 0.0107092 0.936168 
0.509654 0.386824 -0.321086 0.898735 -0.00648682 -0.438443 
-0.57021 0.558544 -0.124214 -0.991217 0.0878538 -0.098847 
-0.608233 -0.775598 -0.143479 -0.647968 0.746028 -0.153554 
-0.53243 0.468 -0.276222 -0.924934 -0.0405081 -0.377964 
-0.676698 0.336786 0.174777 0.948861 0.00477811 -0.315658 
-0.265367 -0.637836 0.675245 0.353539 -0.0836992 -0.931668 
-0.641108 -0.274232 0.257581 0.897851 0.0489706 -0.437568 
0.549699 -0.779466 0.276713 0.103507 0.989452 0.101347 
-0.715586 0.294337 -0.104051 0.998391 -0.0324527 0.0465091 
0.442306 -0.107896 0.29756 0.773504 0.00635475 0.63376 
-0.540217 0.435125 -0.53473 0.763802 0.239485 0.599377 
-0.570641 0.293138 -0.00317265 -0.994648 0.0176681 0.101799 
0.0615233 -0.134451 0.505247 0.0997252 0.0700093 0.992549 
0.0114179 0.465228 0.838284 -0.147232 -0.949711 -0.276356 
-0.54154 -0.376638 -0.252444 -0.946934 0.00608127 -0.321371 
-0.479182 0.781574 -0.514677 -0.157932 -0.986343 0.0467463 
0.315363 -0.407697 0.577773 -0.294354 -0.0136716 -0.955599 
-0.0453121 0.00938529 -0.777543 0.0601327 -0.00136222 0.998189 
0.0939514 -0.344712 -0.627672 0.146678 0.00811509 -0.989151 
-0.196418 0.024863 0.474516 -0.334162 -0.00685607 0.942491 
-0.419509 -0.649559 -0.454402 -0.68847 0.0260521 -0.724797 
0.0589622 0.149795 0.825442 -0.522662 0.583795 0.621295 
-0.372062 0.299865 -0.499526 -0.634911 -0.000278216 -0.772586 
0.202174 -0.31622 0.471052 0.387411 0.00457055 0.921896 
0.679991 0.559131 0.263924 -0.850392 0.349846 -0.392989 
0.432199 0.640208 -0.436964 0.732845 0.0525172 -0.678366 
0.102034 -0.621668 -0.62626 0.20853 -0.0650197 -0.975852 
-0.313496 -0.261015 0.416227 -0.542178 0.00217088 0.840261 
0.512129 -0.403836 0.188776 0.903914 0.0474524 0.425074 
-0.43173 -0.195441 -0.635076 0.601282 -0.00419859 0.799026 
-0.533739 -0.367909 -0.541942 0.734753 0.0433187 0.676951 
-0.571054 0.464686 -0.00574802 -0.994721 -0.0374056 0.0955548 
-0.706997 0.548505 -0.323171 0.928537 0.299262 0.219683 
-0.355961 -0.00207567 0.386265 -0.618917 0.00395142 0.785447 
0.557455 0.153959 -0.185599 0.977847 0.0017941 -0.209315 
0.268534 -0.0603372 -0.568079 0.46596 0.000458662 -0.884805 
0.268885 -0.776597 -0.639367 0.0737262 0.904639 -0.419754 
-0.165932 -0.204192 -0.61159 -0.29089 -0.00665744 -0.956733 
0.710375 0.380543 0.00655526 -0.99342 0.0735246 -0.0878091 
-0.448984 0.336368 -0.621709 0.664525 0.0264635 0.746797 
-0.299861 0.596523 0.653806 0.318412 0.313921 -0.894465 
0.518484 0.375595 0.175467 0.908522 -0.0132063 0.417629 
-0.320204 -0.197343 -0.538596 -0.555592 -0.0118083 -0.831371 
-0.143199 -0.306009 0.804924 0.99462 -0.0562711 0.0869781 
0.205163 0.37361 0.470781 0.386308 -0.06157 0.920313 
-0.000910577 -0.50445 0.686833 0.130327 0.552045 -0.823566 
-0.203102 -0.454882 0.622978 0.488844 -0.302805 -0.818133 
0.0570165 -0.775126 0.541516 -0.000197501 0.827793 0.561034 
-0.598098 0.745557 0.366384 0.608093 -0.650204 -0.455475 
-0.744725 -0.693754 -0.281125 0.936752 -0.00642884 0.349934 
0.363032 0.449394 -0.504877 0.619359 -0.0191077 -0.784876 
0.677573 0.445439 0.161955 -0.907009 0.203693 -0.36857 
0.51024 -0.15523 -0.319253 0.893645 -0.0120387 -0.448612 
0.0600432 -0.108294 -0.632478 0.109362 0.0051719 -0.993989 
0.479591 0.532247 0.486506 -0.588813 0.359248 -0.724044 
-0.155184 0.775548 -0.724883 -0.0587042 -0.996142 -0.0652295 
-0.128123 -0.271223 -0.767797 0.170616 0.027028 0.984967 
-0.765395 -0.596545 0.0754948 0.942232 -0.276613 -0.188901 
0.0977097 -0.216009 0.645025 -0.507002 -0.524225 -0.684206 
-0.778841 -0.655169 -0.137394 0.987792 -0.135873 0.0761947 
-0.370072 -0.544125 -0.710574 0.527983 -0.343889 0.776514 
-0.565489 -0.601462 0.0334661 -0.977377 -0.0877095 0.192463 
0.312602 -0.00624825 0.579611 -0.463687 -0.0313357 -0.885445 
0.682588 0.267917 -0.273549 -0.952298 -0.014092 0.304843 
-0.0540472 -0.74421 0.669 -0.0404261 0.532092 -0.845721 
0.245836 -0.265222 0.608078 -0.311057 -0.0147442 -0.950277 
0.513893 -0.311317 -0.31131 0.902932 0.0191527 -0.429356 
-0.114961 0.407908 0.497187 -0.159552 -0.0291725 0.986758 
0.127292 0.183875 0.640489 -0.410367 0.369476 -0.833718 
-0.727333 -0.749841 -0.0232393 0.610761 0.780577 -0.132933 
-0.120444 0.438218 0.705577 0.811491 -0.137189 -0.568033 
-0.192569 -0.163051 0.626646 0.347515 -0.0127222 -0.937588 
0.567307 -0.259712 0.00107102 0.99178 -0.00764617 0.127724 
0.698233 -0.0630227 0.0870015 -0.976511 0.00133712 -0.215462 
0.531471 -0.412945 -0.541178 -0.760196 -0.0966985 0.642458 
-0.610862 -0.417081 0.311875 0.89566 -0.0903442 -0.435467 
0.0458521 -0.293943 0.506859 0.0501893 -0.0333598 0.998182 
-0.110596 -0.0660387 -0.62538 -0.189898 0.00554065 -0.981788 
0.269366 0.159562 0.598808 -0.29008 0.0249158 -0.956678 
-0.716132 -0.00639797 -0.0246962 0.998416 0.00332651 -0.0561628 
0.70958 0.337858 -0.138352 -0.992034 -0.0577774 0.111943 
0.0701137 -0.389266 0.933073 -0.534795 0.650742 -0.539007 
-0.483051 -0.478971 0.465504 0.653354 -0.284776 -0.701449 
-0.389308 -0.655184 0.357679 -0.704319 0.0401529 0.708747 
-0.573792 -0.277874 -0.0732526 -0.99986 -0.0136386 -0.00973065 
0.0119945 0.71389 0.697704 0.0608601 -0.430347 -0.90061 
0.730761 -0.595056 -0.319067 -0.910971 -0.221672 0.347841 
0.495458 0.117347 -0.578663 -0.687231 0.0129372 0.726323 
0.663955 -0.193472 0.199222 -0.931725 -0.0190468 -0.362664 
-0.520359 0.608648 0.178868 -0.893554 0.0958214 0.43861 
0.570023 0.177614 -0.0394127 0.999379 0.00491472 0.0349028 
-0.10525 -0.21486 0.4994 -0.195864 -0.0237298 0.980344 
-0.429746 -0.325341 0.316336 -0.760183 0.00716583 0.649669 
0.712021 -0.361037 -0.116454 -0.998079 -0.0479296 0.0392627 
-0.252174 -0.132917 0.45105 -0.430238 -0.0063282 0.902693 
0.427476 0.397897 0.31519 0.764337 -0.0272574 0.64424 
-0.0903903 0.540854 -0.798907 0.107219 0.357977 0.927554 
0.305045 0.664517 -0.780662 -0.375416 0.108601 0.920472 
-0.0788743 -0.651388 -0.630903 -0.133014 0.0310119 -0.990629 
-0.698706 -0.311353 0.0972996 0.963301 0.0389429 -0.265583 
-0.0300396 -0.0891337 0.853248 0.235473 -0.309846 0.921167 
0.0993167 -0.390887 -0.771816 -0.224327 -0.0697528 0.972014 
-0.477631 -0.155803 0.470853 0.677063 -0.031484 -0.735251 
-0.531415 0.114715 0.417456 0.743725 -0.00997773 -0.668412 
0.0170403 0.588186 0.50838 0.0204485 0.158465 0.987153 
0.255747 -0.517214 -0.574564 0.457676 -0.0354215 -0.888413 
0.104202 -0.0981781 -0.771007 -0.141251 -0.00210363 0.989972 
0.570133 0.586302 -0.0841576 0.989105 0.138413 -0.0501291 
0.148512 0.525326 0.48896 0.34081 0.171907 0.924282 
-0.367907 -0.356588 -0.678143 0.523487 0.00151212 0.852032 
-0.594807 0.776663 0.0877437 -0.518182 -0.82759 0.215828 
-0.245044 0.472387 0.609101 0.396483 0.305444 -0.86574 
-0.53908 -0.156418 -0.535674 0.748881 -0.0135484 0.662566 
-0.258037 -0.0347203 -0.575069 -0.447409 0.00189782 -0.894327 
0.658732 -0.245587 -0.340494 -0.918808 0.0748833 0.387536 
0.39372 -0.774811 0.490666 -0.12056 0.97178 -0.202752 
0.582048 -0.221629 -0.477398 -0.809085 0.0444495 0.586008 
-0.664972 -0.519031 0.207745 0.860872 -0.400271 -0.314138 
-0.694576 -0.0353058 0.113734 0.969272 0.00125539 -0.245989 
-0.654514 -0.579905 0.342065 0.854147 -0.311291 -0.416571 
0.300312 -0.663641 -0.783107 -0.43069 0.00211456 0.902497 
-0.56119 -0.0638608 0.38245 0.778274 0.000569655 -0.627925 
-0.199429 0.172716 0.473472 -0.403476 0.00996885 0.914936 
-0.580334 0.351005 0.357754 0.797871 0.0775181 -0.597824 
0.516424 -0.234217 0.4302 -0.71102 0.0352533 -0.702288 
0.167168 -0.610544 -0.824055 -0.20607 -0.236958 0.949413 
0.619467 -0.454242 -0.419389 -0.842728 -0.285235 0.456564 
0.361282 0.145506 0.378853 0.633549 -0.00603001 0.773679 
-0.101379 0.388486 0.89685 0.785008 -0.571335 -0.239455 
0.0784764 0.502376 0.646349 -0.674266 0.0671052 -0.735433 
-0.650932 0.0549517 -0.364283 0.907505 0.00503779 0.42001 
0.29602 0.777512 -0.628836 0.346334 -0.873494 -0.342142 
0.120448 0.0679264 1.07457 -0.875342 -0.0739383 -0.477818 
-0.485289 -0.527625 -0.605331 0.61467 -0.381057 0.690635 
-0.116804 0.0600292 0.923047 0.847677 0.13846 0.512125 
0.501963 0.509573 -0.570857 -0.806257 0.208888 0.553458 
0.426529 -0.557916 0.561738 -0.531142 -0.323986 -0.782893 
-0.615286 0.256389 -0.431067 0.846937 -0.0565356 0.528679 
-0.194718 0.677839 0.475254 -0.2334 -0.118511 0.965132 
-0.698035 0.366941 -0.22734 0.982923 -0.0407808 0.17944 
-0.71713 -0.37804 -0.0437295 0.999916 0.0114857 0.00608479 
-0.35997 -0.444272 0.555717 0.433697 -0.250963 -0.865404 
0.619757 -0.779028 0.140446 0.159766 0.98686 0.0241136 
-0.291207 0.780434 -0.64665 -0.118482 -0.962449 -0.244242 
-0.128583 0.133827 1.04953 0.904297 -0.113048 -0.411664 
0.245989 0.535863 -0.755164 -0.21182 0.35516 0.910491 
-0.431078 -0.113554 0.314856 -0.752661 -0.00302091 0.658402 
0.423877 0.322768 -0.446089 0.74452 -0.0134087 -0.667466 
0.10492 -0.736669 0.674873 0.000836948 0.564219 -0.825625 
0.38684 0.635243 0.616758 -0.514701 0.195465 -0.834791 
0.738872 -0.724736 -0.196724 -0.817451 0.556231 0.149603 
-0.740826 0.7279 0.0693578 0.864397 -0.460012 -0.202994 
0.168116 0.654816 -0.825737 -0.247109 0.281161 0.9273 
0.642609 0.706362 0.354071 -0.814627 -0.296798 -0.498292 
0.771416 0.593306 -0.0121486 -0.975904 0.209275 0.0617738 
-0.134866 0.33358 -0.766698 0.216194 -0.0318577 0.97583 
-0.567398 0.413401 -0.148356 -0.987076 -0.031785 -0.157069 
-0.676797 0.210165 -0.299838 0.944986 0.00536458 0.327068 
0.565401 -0.26516 -0.144205 0.988979 -0.00625172 -0.147926 
