ply
format ascii 1.0
element vertex 500
property float x
property float y
property float z
property float nx
property float ny
property float nz
end_header
0.343187 0.811296 0.206817 -0.444331 0.630104 -0.63682 
0.29537 0.707092 0.177284 -0.853465 0.39305 -0.342213 
0.324267 0.864015 0.299953 -0.815104 0.476247 -0.329841 
0.412369 0.496472 0.210088 0.416143 -0.477737 0.773688 
0.552445 -0.4773 -0.220977 0.679595 -0.378086 -0.628651 
0.61469 -0.0182315 -0.115738 0.383313 0.308226 -0.870671 
0.210152 -0.138371 0.065585 0.0300622 0.295964 0.954726 
0.274456 -0.805226 -0.00350579 0.265126 -0.743907 0.613441 
0.36711 0.122876 -0.149764 0.845001 0.177016 -0.504618 
0.0502836 0.93896 0.190713 0.0828641 0.5003 -0.861878 
0.33459 -0.515835 0.130861 0.173013 -0.148798 0.973615 
0.147265 -0.262923 -0.35622 -0.00497248 0.260899 -0.965353 
0.131631 0.862715 0.222731 0.939791 0.0751247 -0.333389 
-0.00156731 0.236271 0.0985573 0.157286 -0.289958 0.944026 
-0.175998 -0.745613 -0.48532 -0.0169078 -0.653182 -0.757012 
-0.181002 -0.487026 -0.398179 -0.240939 0.462392 -0.853312 
0.0359256 0.626249 0.019694 0.285453 0.383286 -0.878412 
0.474609 0.543296 0.15423 0.970392 -0.201085 0.133804 
0.0212635 0.0337019 0.0794493 0.0433539 -0.200114 0.978813 
-0.0696377 -0.247841 -0.338402 -0.187384 0.259498 -0.94739 
-0.263621 -0.283423 0.104386 0.273195 -0.089553 0.957781 
-0.30445 -0.192384 0.125872 0.304054 -0.166141 0.938056 
0.336902 -0.723947 0.042586 0.350097 -0.562989 0.748649 
0.253217 -0.01315 -0.277626 0.245706 0.178223 -0.95282 
-0.663543 0.327665 0.251844 -0.580384 -0.538099 0.611231 
-0.26757 -0.58368 0.101265 0.127155 -0.0427022 0.990963 
0.00485116 0.420816 -0.0826247 0.225355 0.4192 -0.879481 
-0.306488 0.88783 0.288771 -0.0317707 0.538107 -0.842277 
0.622589 0.191231 -0.0206038 0.194731 0.330333 -0.923558 
-0.0408323 -0.799058 0.0247079 -0.044478 -0.489976 0.870601 
0.0127372 0.50663 0.208359 0.097255 -0.276072 0.956204 
0.29343 0.756607 0.257448 -0.991597 0.127811 0.0199674 
-0.331233 -0.48885 0.108548 0.101921 0.00294639 0.994788 
-0.649116 0.285096 0.0817593 -0.801098 0.215886 -0.558243 
-0.0616228 0.902418 0.30801 -0.989175 -0.0588692 0.134416 
0.334014 0.0553577 -0.216579 0.640603 0.278181 -0.715711 
0.231482 0.231526 -0.175669 -0.278158 0.510419 -0.813696 
0.358586 0.0928794 0.0477735 0.638937 -0.178141 0.748348 
-0.215927 -0.0697486 0.12529 0.348159 -0.262627 0.899896 
-0.00463027 -0.8681 -0.18069 -0.0889464 -0.919768 -0.38225 
-0.203058 -0.723429 0.0731344 0.125643 -0.27183 0.954108 
0.125734 0.575794 0.128908 0.989572 -0.144025 -0.00195894 
-0.139667 -0.557607 -0.446549 -0.170193 0.447377 -0.878002 
0.368711 -0.519891 -0.352081 0.500753 -0.190107 -0.844456 
-0.413905 -0.637237 -0.357645 -0.718136 0.381897 -0.581752 
0.212088 -0.183232 -0.33094 0.023221 0.351806 -0.935785 
0.397468 0.316705 -0.0703504 0.788168 0.138925 -0.599575 
-0.606677 -0.270071 0.00420849 -0.99287 -0.111993 -0.040838 
-0.384247 0.408039 0.166424 -0.95668 -0.142352 0.253966 
0.101163 -0.63844 -0.461909 0.244672 0.39227 -0.886713 
0.317621 -0.172674 0.0548824 0.411865 0.415895 0.810801 
-0.39668 -0.809921 -0.0191368 -0.582305 -0.55778 0.591441 
-0.38156 0.505294 0.13785 -0.915382 0.160549 -0.369188 
-0.341001 0.084057 0.152208 -0.33047 0.403866 0.853043 
0.101163 0.428013 0.132229 0.828696 -0.118207 0.547074 
0.352577 -0.607473 -0.341153 0.636918 -0.259359 -0.725995 
0.358917 0.00771585 0.0202525 0.567653 -0.310785 0.762354 
-0.092415 -0.725354 0.055237 0.0715845 -0.227124 0.971231 
0.356649 -0.270618 0.0667807 0.443445 0.326008 0.83491 
-0.14706 -0.217409 0.0739293 0.281905 -0.0458764 0.958345 
0.291648 0.506166 -0.0172457 -0.355672 0.519536 -0.776904 
0.45046 0.446511 0.135341 0.864216 -0.302275 0.402194 
-0.677644 0.299902 0.168233 -0.978221 -0.203808 -0.0393097 
-0.486018 0.274629 0.0762593 0.785792 0.529073 -0.320333 
-0.564746 0.0415899 -0.0427915 -0.402155 0.167368 -0.900144 
-0.301192 0.164436 -0.0862386 -0.384809 0.367386 -0.846729 
0.396338 0.0384306 -0.102073 0.974027 0.159384 -0.160837 
0.127221 0.153467 0.0938322 -0.0426915 0.345187 0.937562 
-0.106981 -0.533078 0.0628754 0.174198 0.0231241 0.984439 
-0.106003 0.515398 0.0355011 -0.884408 0.260114 -0.38751 
0.14414 -0.205911 0.0799833 -0.216871 0.242874 0.945505 
0.0128805 0.413626 0.190187 0.15381 -0.233328 0.960156 
0.0982055 -0.339258 -0.37881 0.0391672 0.258237 -0.965287 
-0.636434 0.121743 0.130588 -0.840336 -0.312063 0.44323 
0.234322 -0.751803 -0.407329 0.581699 -0.335052 -0.741193 
-0.0238238 0.732953 0.297664 -0.366629 -0.262626 0.892531 
-0.185574 0.257986 0.150092 0.747419 -0.0336683 0.663499 
0.396475 0.114211 -0.0337412 0.995727 -0.0898492 0.0213288 
-0.324422 -0.863278 -0.0252893 -0.281303 -0.800466 0.529267 
-0.185332 0.380669 0.190783 0.842595 -0.176795 0.508701 
0.262979 -0.457902 -0.390886 0.0912485 0.112962 -0.9894 
-0.553195 0.541374 0.339867 0.893702 0.146122 0.424198 
-0.294332 -0.0904253 -0.211236 -0.420362 0.356789 -0.834265 
-0.108189 -0.833341 -0.264799 -0.0299061 -0.954798 -0.295747 
-0.609965 0.384494 0.306164 0.13334 -0.593397 0.793789 
-0.211486 0.817844 0.31887 0.960673 0.101222 -0.258576 
0.395354 0.650546 0.292399 0.0762242 -0.533431 0.842402 
-0.00146918 -0.441845 0.061808 -0.230814 0.0432411 0.972037 
0.5035 -0.394182 -0.292953 0.602487 -0.0247646 -0.797744 
0.232913 -0.872392 -0.223233 0.0849764 -0.971979 -0.21917 
-0.371274 0.804152 0.267177 -0.712541 0.319069 -0.624885 
0.396941 0.180475 0.0261841 0.897328 -0.26992 0.349207 
0.502523 -0.131261 -0.162163 0.00928154 0.618126 -0.786024 
-0.696057 0.448103 0.231027 -0.911281 0.210915 -0.35367 
-0.278405 -0.798161 0.0423024 -0.101201 -0.485386 0.868423 
0.027363 0.537004 -0.019292 0.375834 0.34836 -0.858717 
-0.114937 0.351876 -0.0565507 -0.81992 0.29586 -0.4901 
0.417591 -0.76839 -0.168366 0.779494 -0.562663 -0.275316 
-0.221253 0.461886 0.245008 0.591523 -0.224912 0.774284 
-0.13989 -0.448953 0.0677171 0.201792 0.011 0.979367 
-0.0726394 0.799398 0.245996 -0.981789 0.0882317 0.168241 
0.250132 0.543508 0.0650977 -0.819593 0.481371 -0.310724 
0.0883326 -0.180569 -0.339074 -0.03075 0.197783 -0.979763 
-0.210846 0.15054 -0.116707 -0.304059 0.609401 -0.732242 
-0.425022 -0.515406 0.103201 -0.220597 -0.153036 0.963285 
-0.228858 -0.472223 0.0896886 0.228811 0.0642317 0.97135 
-0.380114 0.143145 -0.0162273 -0.741355 0.436174 -0.510044 
0.559653 0.136104 0.153812 -0.561058 0.191329 0.805362 
-0.623361 0.2064 0.0297412 -0.724711 0.123944 -0.677814 
-0.265664 0.26757 0.20094 0.0721955 -0.38786 0.918887 
-0.0278294 -0.0499073 0.0679139 0.147801 -0.223578 0.963415 
-0.445298 -0.0386234 0.166647 -0.149023 0.183938 0.971576 
0.0410073 -0.498787 -0.42615 0.151004 0.261109 -0.953425 
-0.0899904 -0.477248 -0.418647 -0.17336 0.377894 -0.909474 
0.0486378 0.260229 -0.114545 0.724746 0.189844 -0.662346 
0.10524 -0.00464542 -0.284147 -0.125801 0.403939 -0.906094 
-0.618958 0.366525 0.10408 -0.343155 0.55827 -0.755367 
-0.0795998 -0.369733 -0.377027 -0.250349 0.3559 -0.900367 
0.279515 -0.268579 0.111443 0.257046 0.252163 0.932921 
-0.538808 0.360558 0.248439 0.740268 -0.288119 0.607446 
0.189327 -0.528766 0.128608 -0.165928 -0.0328358 0.985591 
0.432976 0.74906 0.159475 0.392355 0.48886 -0.779149 
-0.37545 -0.737928 0.0504806 -0.355995 -0.456706 0.815283 
-0.00291613 -0.734177 -0.50198 0.0646039 -0.425128 -0.902825 
-0.30477 0.676929 0.160777 -0.135295 0.507468 -0.850982 
0.491572 0.782871 0.231868 0.845086 0.288704 -0.449977 
-0.450372 -0.691705 0.0282436 -0.634551 -0.456836 0.623415 
-0.468653 -0.383357 -0.2269 -0.572618 0.230536 -0.786741 
0.537814 -0.589886 -0.0423199 0.805944 -0.472913 0.3561 
0.34462 0.222608 -0.147472 0.653111 0.202707 -0.729627 
-0.34696 -0.687062 -0.441689 -0.483117 0.295503 -0.824182 
0.039784 -0.20982 0.0585491 -0.157185 0.0847292 0.983928 
-0.602845 0.11347 -0.00471953 -0.649715 0.109907 -0.752191 
0.294592 0.139991 -0.210423 0.427932 0.337301 -0.838512 
0.417384 -0.209248 0.0379084 -0.126151 0.175611 0.976344 
-0.537338 -0.571442 -0.144558 -0.913393 -0.235018 -0.332385 
0.173762 0.161603 -0.202154 -0.384309 0.623969 -0.680418 
0.351059 -0.690167 -0.304235 0.690388 -0.323301 -0.64718 
0.120068 -0.368148 0.0984392 -0.296038 0.133015 0.945869 
-0.57707 -0.0991073 0.121365 -0.679698 0.0250473 0.733064 
-0.0347202 0.933112 0.221772 -0.695716 0.445113 -0.563785 
-0.352515 0.939044 0.34998 -0.58054 0.692685 -0.427972 
-0.333298 -0.860346 -0.162852 0.0162625 -0.925877 -0.377474 
-0.287986 0.176053 0.155661 -0.259773 -0.279224 0.92442 
-0.11571 0.394275 0.100068 -0.952602 -0.238632 0.188688 
-0.0419681 0.156956 -0.200887 0.0979082 0.492953 -0.864529 
0.0698769 -0.846177 -0.255378 -0.0954953 -0.926629 -0.363648 
0.0920901 0.407289 0.000172035 0.864572 0.166321 -0.474187 
-0.0384282 -0.562868 -0.453657 0.0712886 0.372762 -0.925185 
-0.519733 0.0932077 0.164078 0.235302 -0.225848 0.945318 
-0.349244 -0.827281 -0.255181 0.0457825 -0.942163 -0.332013 
-0.292314 0.364555 0.231352 -0.174349 -0.288871 0.941359 
-0.462929 -0.794153 -0.120452 -0.848402 -0.442029 0.291246 
0.636379 -0.272418 -0.0115257 0.898412 -0.230041 0.374082 
-0.277135 0.719525 0.37569 0.208058 -0.452898 0.866946 
-0.247706 -0.149748 -0.259577 -0.386975 0.302699 -0.87099 
-0.395787 -0.180766 0.154287 0.19023 -0.215503 0.957795 
-0.245321 0.0402737 -0.189816 -0.517377 0.398125 -0.757508 
-0.0913088 0.223659 0.102605 0.0952357 0.0628313 0.99347 
0.0692459 0.335716 -0.0688112 0.851062 0.116491 -0.511979 
0.185818 0.266033 -0.104445 -0.817618 0.432954 -0.379541 
0.248457 -0.837576 -0.309894 0.333966 -0.809671 -0.482596 
0.058246 -0.798967 0.0298022 -0.00482162 -0.56796 0.823042 
0.349388 -0.3374 -0.3641 0.211622 0.142678 -0.966881 
0.263159 -0.578801 0.126882 0.0523175 -0.211694 0.975935 
-0.407537 -0.754005 -0.408227 -0.553586 -0.411885 -0.723805 
-0.502879 -0.0398416 -0.0876335 -0.446042 0.322218 -0.834998 
0.379014 0.417936 0.183047 0.267913 -0.350061 0.897596 
-0.393511 0.851281 0.360297 -0.996326 0.0607724 0.0603353 
-0.154793 -0.784912 -0.395987 -0.0308775 -0.960224 -0.277518 
0.252842 -0.104358 -0.296666 0.135122 0.320207 -0.937662 
0.525669 -0.0334678 -0.122502 -0.340883 0.303201 -0.88987 
-0.365093 0.224969 0.127954 -0.743951 -0.424378 0.516179 
0.42846 0.277923 0.0274084 0.963287 -0.268269 0.0105031 
0.638117 0.271213 0.0180178 -0.0228987 0.651363 -0.758421 
-0.0550718 0.592962 0.0149559 -0.531254 0.431784 -0.728925 
0.0457388 0.774859 0.0966094 0.220328 0.489736 -0.843572 
-0.00785025 0.842472 0.349799 -0.337378 -0.509732 0.791422 
0.347223 0.686129 0.103132 -0.257883 0.584245 -0.769516 
0.474727 0.776855 0.348949 0.706489 -0.387432 0.592258 
0.445985 -0.229552 -0.282007 0.575005 0.431111 -0.695351 
0.477826 0.00214587 0.0668982 -0.789172 -0.039666 0.61289 
0.489017 -0.376415 0.0726761 0.339002 0.124087 0.932566 
0.557718 0.0296229 0.151701 -0.47868 -0.223138 0.849161 
-0.252689 0.534846 0.290761 0.312767 -0.369412 0.875049 
0.110805 -0.125329 0.0565685 -0.075113 0.036251 0.996516 
0.633889 0.100859 -0.0514638 0.460872 0.363629 -0.80955 
0.0178119 -0.635408 0.0748285 -0.279039 -0.0302986 0.959802 
-0.368809 0.374822 0.0577821 -0.872872 0.191691 -0.44872 
0.430281 0.469097 0.0109144 0.753888 0.15907 -0.637455 
0.46311 -0.712912 -0.0854556 0.790192 -0.597221 0.137563 
0.634985 -0.381543 -0.0724113 0.968421 -0.180938 0.171529 
0.332276 0.25625 0.130999 0.125791 -0.503836 0.854591 
-0.240617 -0.891111 -0.0850037 -0.0817133 -0.990789 -0.107986 
0.442645 -0.488905 0.100772 0.460308 -0.127631 0.878537 
0.0443986 0.589191 0.24166 0.212594 -0.480451 0.850865 
0.431949 -0.308508 -0.32828 0.4938 0.247955 -0.833474 
-0.504236 -0.472163 -0.213265 -0.743877 0.0723111 -0.664393 
-0.601587 0.441032 0.159836 0.039773 0.628711 -0.776622 
-0.0966231 -0.122093 -0.301614 -0.172437 0.247004 -0.953548 
-0.0812425 0.0779773 -0.244386 -0.0616031 0.419904 -0.905476 
0.129228 0.717073 0.163178 0.952149 0.12398 -0.279357 
-0.0997834 -0.363875 0.0620319 0.139321 -0.00254175 0.990244 
0.348157 -0.837938 -0.163428 0.541946 -0.837856 -0.0655141 
0.527721 -0.575559 -0.182888 0.748932 -0.437881 -0.497354 
-0.271405 -0.737466 -0.480662 -0.264777 -0.421244 -0.867437 
-0.575943 0.248772 0.216741 0.200852 -0.391572 0.897959 
0.3278 0.311883 -0.127482 0.349015 0.397503 -0.848634 
0.268183 -0.860961 -0.102306 0.302637 -0.905647 0.297008 
-0.313992 0.345277 -0.0129514 -0.342279 0.384507 -0.857321 
-0.495593 -0.287477 0.128755 -0.209831 -0.23212 0.949785 
-0.494877 -0.694297 -0.0568479 -0.863353 -0.451266 0.225788 
-0.302213 -0.406059 -0.327815 -0.258281 0.436278 -0.861947 
0.612655 -0.423124 -0.174536 0.868686 -0.252297 -0.426298 
-0.211998 0.614834 0.291209 0.781362 -0.177766 0.598225 
-0.309058 0.75731 0.209716 -0.109854 0.487814 -0.866008 
0.324062 -0.077307 0.0113162 0.432071 0.00655561 0.901816 
-0.302814 0.249716 -0.0551245 -0.335213 0.306461 -0.890906 
0.0167211 -0.303487 0.0591227 -0.183618 0.0551033 0.981452 
0.483769 0.711719 0.28785 0.791129 -0.411031 0.452955 
-0.293057 0.595088 0.113277 -0.0702555 0.492201 -0.867642 
0.150379 -0.794547 -0.40695 0.0736967 -0.858032 -0.508281 
0.38592 -0.0208787 -0.171284 0.929216 0.139631 -0.34214 
0.3829 0.566466 0.0218792 0.264402 0.517011 -0.81412 
-0.445899 -0.180471 -0.170921 -0.491981 0.239135 -0.83712 
-0.389104 -0.32963 0.124973 0.116816 -0.123307 0.985469 
0.439234 0.659131 0.108629 0.583631 0.407323 -0.702469 
0.475814 -0.651666 -0.192897 0.738574 -0.441639 -0.509375 
0.324793 0.343992 0.167828 -0.00789961 -0.267308 0.963579 
0.587855 -0.36228 0.0194435 0.659393 -0.203699 0.723676 
0.188473 -0.643596 0.111663 -0.0485641 -0.268252 0.962124 
0.207631 -0.360472 -0.37846 -0.000750464 0.14637 -0.98923 
-0.372992 0.697019 0.226061 -0.851007 0.217552 -0.477974 
-0.410396 -0.260334 -0.217946 -0.457752 0.314152 -0.831728 
0.0500984 -0.868239 -0.0325099 0.0906176 -0.805332 0.585857 
0.295488 0.463954 0.18659 -0.483803 -0.230008 0.844412 
-0.0470896 0.333693 -0.114966 -0.276932 0.338705 -0.899215 
0.62983 -0.330712 -0.14864 0.938459 0.0366964 -0.343435 
-0.142095 0.0341854 0.131946 0.247449 -0.220319 0.943519 
0.108135 0.666356 0.0911786 0.807954 0.235994 -0.539923 
-0.376844 -0.603429 0.0983112 -0.161713 -0.196627 0.967051 
-0.625215 0.0416113 0.0909104 -0.901705 -0.302751 0.308659 
0.71943 0.111695 0.136818 0.857056 -0.20143 0.474215 
0.238117 -0.376606 0.126839 -0.130863 0.122192 0.983841 
-0.00614398 -0.545761 0.0663471 -0.261374 0.0395554 0.964427 
-0.0765253 0.311463 0.126207 -0.488581 -0.371016 0.789706 
-0.25082 -0.548323 -0.413391 -0.23981 0.456308 -0.856898 
0.214238 0.0706384 0.095188 0.136401 -0.135559 0.981335 
0.220737 0.325694 0.124399 -0.655934 -0.214324 0.723751 
0.172261 0.271816 0.0320435 -0.934164 0.186655 0.304134 
0.0567515 0.892321 0.388185 0.189105 -0.490694 0.850564 
0.258631 0.590577 0.161103 -0.9757 0.154899 0.154974 
0.0490668 0.781059 0.316411 0.235079 -0.372697 0.897683 
0.0854319 1.08345 0.316216 0.451217 0.823952 -0.342791 
0.538559 -0.165584 0.0895577 -0.250544 -0.200556 0.947104 
-0.183078 -0.868796 -0.157151 -0.0451183 -0.902528 -0.428261 
-0.0219245 0.834568 0.147784 -0.501893 0.46646 -0.728368 
-0.0815237 0.660968 0.0961602 -0.833465 0.348792 -0.428578 
-0.409708 -0.800089 -0.329344 -0.180864 -0.914723 -0.361345 
0.490311 0.130592 0.00294335 -0.861564 0.405297 -0.305682 
-0.0726804 0.7444 0.146507 -0.859003 0.335262 -0.386928 
-0.56339 -0.00922007 0.133326 -0.459925 -0.144495 0.876122 
-0.222234 -0.165236 0.102682 0.325683 -0.159652 0.931902 
-0.39153 -0.417448 -0.289578 -0.499639 0.331025 -0.800489 
-0.00817259 1.07705 0.324109 -0.585582 0.728617 -0.355263 
0.531195 -0.481002 0.0350523 0.674663 -0.24859 0.695006 
-0.179214 0.10224 -0.189559 -0.478894 0.592581 -0.647694 
0.434322 -0.0606681 0.01913 -0.670129 0.107164 0.734468 
0.499318 0.107599 0.0904217 -0.856613 0.168731 0.487591 
-0.0937033 -0.86938 -0.164941 -0.032343 -0.901407 -0.431763 
-0.452098 0.137111 0.124568 0.77466 0.15363 0.613433 
0.00719589 -0.635502 -0.481064 0.172535 0.465638 -0.867993 
0.651163 0.0292298 0.161067 0.3031 -0.329843 0.894055 
0.0858856 -0.761851 -0.468621 0.177077 -0.677731 -0.71367 
-0.353463 0.764519 0.38717 -0.505282 -0.433066 0.746421 
-0.423629 -0.841695 -0.205406 -0.245792 -0.947096 -0.206385 
0.108808 -0.0880978 -0.317272 -0.0165255 0.295495 -0.955201 
0.0237887 0.0739968 -0.23406 0.0864303 0.502752 -0.860099 
0.0307378 -0.271911 -0.356264 -0.058285 0.286395 -0.956337 
-0.363374 -0.16297 -0.208487 -0.406723 0.293084 -0.865262 
-0.0513298 -0.23325 0.052973 0.073626 0.0118087 0.997216 
0.484142 -0.50393 -0.276303 0.634325 -0.345739 -0.691445 
-0.315582 0.626582 0.330975 -0.220057 -0.389383 0.894403 
-0.174228 0.469294 0.15982 0.963893 0.107238 0.243744 
0.69364 -0.0689311 0.0215584 0.965785 -0.258899 0.0151796 
-0.546245 -0.354578 -0.148914 -0.770762 0.135423 -0.622565 
-0.675718 0.450026 0.341211 -0.596277 -0.475765 0.646608 
-0.0989594 0.574377 0.16256 -0.913644 -0.0524842 0.403113 
-0.130182 0.319748 0.0472514 -0.794276 0.514336 0.323394 
-0.337482 0.0765132 -0.10986 -0.529715 0.434429 -0.728473 
0.656714 -0.18326 0.00987438 0.906355 -0.329993 0.263867 
0.451308 0.913487 0.393714 0.603213 0.507642 0.61517 
0.359618 -0.243434 -0.340053 0.319858 0.289904 -0.902024 
-0.318649 0.473221 0.262993 -0.290891 -0.390662 0.873364 
0.105574 0.0665537 0.0952999 -0.134899 -0.16468 0.977079 
0.396309 -0.604139 0.0848411 0.416742 -0.37438 0.828351 
-0.257941 0.944437 0.344057 0.406515 0.712778 -0.571571 
0.425176 0.348247 0.121311 0.771872 -0.304922 0.557886 
0.274886 0.000797744 0.0620903 0.325546 -0.358187 0.875056 
-0.16639 -0.618527 0.079092 0.263334 -0.0148298 0.964591 
-0.623969 0.512375 0.214183 -0.129419 0.584671 -0.800881 
-0.486903 -0.290422 -0.182697 -0.552313 0.287612 -0.782451 
-0.688271 0.526744 0.275477 -0.830534 0.36999 -0.416319 
-0.376929 0.607903 0.180804 -0.855585 0.274759 -0.438727 
-0.28014 -0.262112 -0.27781 -0.304819 0.24289 -0.920918 
-0.222605 -0.38155 0.0849957 0.236446 -0.019767 0.971443 
0.588358 -0.482485 -0.0393067 0.829922 -0.360887 0.425429 
-0.176485 -0.401321 -0.354955 -0.290822 0.41613 -0.861544 
-0.551599 0.258027 0.0118188 0.0339694 0.473015 -0.880399 
-0.542711 0.477567 0.229756 0.808703 0.394897 -0.435954 
0.425377 -0.581146 -0.288285 0.614926 -0.349647 -0.706833 
0.477606 -0.585939 0.0364664 0.621661 -0.388255 0.680291 
0.0938089 0.242922 -0.0349581 0.805855 0.511291 -0.298629 
-0.585447 0.459547 0.355762 0.450529 -0.466272 0.761324 
0.369802 -0.794014 -0.0543516 0.506597 -0.740119 0.442249 
0.0284868 -0.791045 -0.402165 -0.0662658 -0.968657 -0.2394 
-0.122888 -0.898632 -0.078725 0.0165095 -0.998345 0.0550928 
-0.213739 0.509669 0.0847183 0.500324 0.532183 -0.682977 
0.41235 -0.700266 -0.236275 0.681495 -0.36662 -0.633368 
0.0983603 -0.580593 0.105337 -0.308292 -0.0588859 0.949468 
0.00379266 1.01684 0.25926 -0.441519 0.53094 -0.7233 
0.52569 -0.275234 0.0620357 0.0388752 -0.125439 0.991339 
0.0728844 -0.0415739 0.0693429 -0.057824 -0.215685 0.974749 
-0.408197 0.0131411 -0.107563 -0.418179 0.57958 -0.699438 
0.16208 -0.714725 -0.458039 0.434106 -0.0437131 -0.899801 
0.455738 0.540162 0.0671805 0.839869 0.178924 -0.512451 
0.0757387 0.849413 0.153766 0.4469 0.401595 -0.799376 
0.210283 -0.7265 0.0769373 0.0805317 -0.490098 0.867939 
-0.0787063 -0.63676 0.0604871 0.0559545 0.0115586 0.998366 
0.504083 -0.300723 -0.271477 0.552987 0.314319 -0.771627 
0.399013 0.723472 0.352466 0.0358946 -0.617249 0.785949 
0.435663 0.368378 0.00739913 0.923302 0.0034473 -0.38406 
0.104528 -0.819926 -0.334784 -0.158272 -0.929595 -0.33287 
0.427885 -0.14918 -0.227103 0.593303 0.639028 -0.489525 
0.54641 -0.22697 -0.211149 0.454906 0.389036 -0.801069 
-0.181677 -0.812739 -0.31376 -0.0608008 -0.929986 -0.362532 
-0.48932 -0.789313 -0.24626 -0.883882 -0.431477 -0.1805 
-0.18998 0.426125 0.0608396 0.750396 -0.00136838 -0.660987 
0.119933 0.977437 0.246397 0.70721 0.35145 -0.613463 
0.313731 0.609096 0.060647 -0.404479 0.59372 -0.695624 
-0.332844 -0.0029078 -0.152828 -0.395916 0.400759 -0.826222 
-0.0614921 -0.00462685 -0.274902 -0.0271118 0.274058 -0.961331 
-0.158793 0.00108804 -0.25231 -0.360943 0.255025 -0.897041 
-0.495045 -0.164506 0.159888 -0.191048 -0.141473 0.971332 
-0.0663997 0.478016 -0.0396497 -0.549581 0.399523 -0.733718 
-0.663693 0.541442 0.381501 -0.52721 0.0924288 0.844693 
0.4884 0.666973 0.193679 0.985613 -0.0373915 -0.164831 
-0.47974 -0.696854 -0.271136 -0.920947 0.228378 -0.315752 
-0.225661 -0.338727 -0.313584 -0.228588 0.324762 -0.917756 
-0.213012 0.29007 -0.0290981 0.239694 0.599408 -0.763713 
-0.0876871 -0.134978 0.0627601 0.230837 -0.123023 0.965184 
-0.0731989 0.488811 0.182205 -0.608413 -0.122008 0.784186 
-0.0108124 0.709693 0.0640688 -0.28916 0.480872 -0.827737 
-0.154983 0.154285 0.136297 0.318314 0.123415 0.939917 
-0.165706 -0.249567 -0.310796 -0.309225 0.177959 -0.93419 
-0.607621 -0.104547 0.000576971 -0.944608 0.0528878 -0.323911 
0.317309 0.788022 0.34778 -0.819985 -0.226354 0.525727 
0.10829 0.478932 0.0575662 0.931908 0.108548 -0.346071 
-0.560743 -0.476678 -0.126826 -0.923932 -0.0985595 -0.369644 
-0.408099 -0.0642038 -0.155991 -0.379148 0.37861 -0.844335 
0.660675 -0.0680943 0.10592 0.585197 -0.448472 0.675587 
-0.189349 0.543962 0.228445 0.935926 -0.110599 0.334379 
-0.308702 -0.492292 -0.367923 -0.322215 0.401004 -0.857539 
-0.294638 -0.863334 -0.158891 -0.0569338 -0.917997 -0.392479 
0.658424 -0.159484 -0.0829586 0.937163 -0.109356 -0.331311 
-0.120906 -0.845459 -0.0032258 0.107249 -0.587326 0.802213 
-0.263954 -0.647379 -0.465454 -0.27636 0.475739 -0.835043 
0.676435 0.0093183 -0.0512261 0.818585 0.174892 -0.547111 
0.0859012 -0.479412 0.09924 -0.36469 0.0812488 0.927577 
0.621786 -0.235115 -0.151139 0.810607 0.0866962 -0.579137 
0.426366 -0.682491 0.0195169 0.559305 -0.521988 0.643977 
-0.0552578 1.00058 0.339982 -0.975269 0.218059 -0.0360622 
-0.528533 -0.396608 0.089359 -0.563863 -0.256634 0.784983 
-0.259761 -0.825238 -0.26946 -0.0613909 -0.937219 -0.343296 
0.603718 -0.141192 -0.151308 0.476607 0.192434 -0.857797 
0.575328 -0.350298 -0.235827 0.670987 0.105033 -0.733992 
-0.255555 0.00744759 0.154399 0.295176 -0.097266 0.950479 
0.123342 0.73886 0.253706 0.845031 -0.132396 0.518068 
0.0454507 1.0542 0.409225 0.0702046 0.38713 0.919348 
0.167511 -0.576641 -0.422403 0.200979 0.257717 -0.945087 
-0.224455 0.682286 0.200932 0.704772 0.428794 -0.565184 
-0.12876 -0.0605901 0.0938486 0.33923 -0.313258 0.887013 
-0.41074 -0.546939 -0.324628 -0.662499 0.221552 -0.715549 
-0.385698 0.718097 0.314597 -0.938123 -0.208836 0.276248 
-0.206277 0.578338 0.141273 0.703833 0.417914 -0.574428 
-0.567909 -0.499922 -0.0372542 -0.959576 -0.238249 0.149838 
0.179362 0.0546943 -0.268431 -0.0623038 0.374208 -0.925249 
-0.177627 -0.093446 -0.26955 -0.352932 0.261132 -0.898471 
-0.50089 -0.653702 -0.193787 -0.950332 -0.0821532 -0.300201 
0.646452 0.15975 0.177097 -0.0229157 0.116953 0.992873 
0.222265 -0.651343 -0.418739 0.434273 0.113669 -0.893581 
-0.48727 0.220952 0.153913 0.75906 0.0377033 0.649927 
0.259753 -0.464085 0.139379 -0.0696024 0.035137 0.996956 
0.429182 0.577102 0.247134 0.440222 -0.400394 0.803672 
-0.039174 -0.876466 -0.037206 0.0370316 -0.820999 0.569727 
0.280417 -0.576107 -0.394746 0.373795 -0.0319832 -0.92696 
0.259997 0.365112 -0.0927554 -0.372965 0.572082 -0.730493 
0.12047 0.872454 0.319099 0.79931 -0.398146 0.450092 
0.189698 -0.798026 0.02613 0.0757814 -0.699806 0.710302 
0.234137 0.226176 0.0959871 -0.383457 -0.198232 0.902034 
0.455101 0.0309874 -0.0199211 -0.799948 0.564908 -0.202391 
-0.0863574 -0.767446 -0.452224 -0.0558858 -0.921048 -0.385419 
0.0653187 0.151645 -0.170412 0.159756 0.68532 -0.710504 
0.115865 0.651845 0.229671 0.779043 -0.315078 0.54205 
0.222328 0.425854 0.124693 -0.766331 0.148678 0.625006 
-0.443989 -0.407825 0.117081 -0.10924 -0.144653 0.983434 
-0.434862 0.047403 0.137572 0.0189052 0.362053 0.931966 
0.00256936 -0.727986 0.0599837 -0.132549 -0.273088 0.952814 
-0.540791 -0.591113 -0.0455077 -0.918065 -0.358832 0.168514 
0.706186 0.159032 0.0338935 0.798331 -0.0317445 -0.601382 
0.560227 0.0521428 -0.0910537 -0.106364 0.459933 -0.88156 
-0.266025 0.808665 0.419606 0.317888 -0.391116 0.863699 
0.613853 0.266591 0.115284 -0.501187 0.659852 0.559827 
-0.64651 0.203365 0.167228 -0.783238 -0.341419 0.519587 
-0.0604881 -0.808875 -0.340308 -0.0131899 -0.940992 -0.338173 
-0.17778 -0.304004 0.0773868 0.247443 -0.051797 0.967517 
-0.232951 0.0973839 0.152635 0.120605 0.00219027 0.992698 
-0.492504 0.174925 -0.00497116 0.444709 0.268866 -0.854368 
-0.246583 -0.77948 -0.403237 -0.0268462 -0.980774 -0.193292 
0.0155851 0.130558 0.0930217 0.10314 0.0155486 0.994545 
-0.325444 -0.392173 0.108682 0.194273 -0.0493876 0.979703 
-0.381681 0.322608 0.136022 -0.955485 -0.0614677 0.288566 
-0.528945 -0.49321 0.0488281 -0.72222 -0.283378 0.630948 
-0.374194 0.14184 0.0813643 -0.682363 0.431633 0.589977 
0.18617 -0.0374899 0.0686829 0.0933041 -0.267966 0.9589 
0.159921 -0.478841 -0.398017 0.0977811 0.200095 -0.974885 
-0.208434 -0.862072 -0.00151951 0.0610113 -0.709662 0.701895 
-0.612927 -0.0148451 0.0179232 -0.957284 -0.102153 -0.270505 
0.0791086 0.251539 0.0572183 0.79458 0.0734818 0.602696 
-0.597817 -0.205918 0.086162 -0.854145 -0.148072 0.498508 
0.426244 0.862379 0.24648 0.197777 0.653161 -0.730934 
-0.444298 0.0627804 -0.0405074 -0.162758 0.624877 -0.76357 
-0.584315 -0.385266 0.0111976 -0.942361 -0.228107 0.244793 
-0.130084 0.17155 -0.161987 -0.531039 0.591791 -0.606449 
0.701205 0.287253 0.0899749 0.553002 0.830574 0.0658468 
0.174216 -0.292551 0.101933 -0.274267 0.12609 0.953351 
-0.208215 0.726826 0.276391 0.976861 0.175172 -0.122708 
-0.316578 -0.672549 0.088368 -0.0714746 -0.256701 0.963844 
0.342655 -0.795475 -0.252706 0.675371 -0.4887 -0.552309 
0.143416 -0.87283 -0.19982 -0.0916581 -0.939939 -0.328807 
0.171186 -0.890845 -0.115895 0.115677 -0.986807 0.113271 
0.214969 0.420568 0.00233609 -0.8072 0.398223 -0.435714 
-0.356276 -0.0959918 0.164923 0.191815 -0.222136 0.955961 
-0.0740142 0.095253 0.119248 0.33876 -0.00260765 0.940869 
0.044201 -0.410241 -0.400395 0.0805743 0.270205 -0.959425 
0.192492 0.338652 -0.0298912 -0.870874 0.36445 -0.329781 
-0.347276 -0.329708 -0.276445 -0.366723 0.344507 -0.864193 
0.424835 -0.449407 -0.339565 0.473717 -0.174145 -0.863288 
-0.39746 -0.865946 -0.12368 -0.368563 -0.929081 -0.0311384 
-0.0722202 0.252237 -0.14192 -0.411995 0.441093 -0.797306 
0.396197 0.824264 0.408805 -0.0530292 -0.355405 0.933207 
0.116077 0.192402 -0.108048 -0.0856441 0.873566 -0.479112 
-0.14567 0.245643 -0.0780074 -0.564459 0.485891 -0.667305 
0.493376 0.860992 0.313407 0.935874 0.307061 -0.172781 
0.140014 -0.851181 -0.0302468 0.111509 -0.779113 0.616886 
0.710127 0.0254692 0.0316933 0.975904 -0.0536453 -0.211505 
0.364424 0.935305 0.361507 -0.502863 0.863745 0.0327608 
-0.615399 0.60815 0.319993 0.0179749 0.989309 -0.144725 
0.336128 -0.03554 -0.24653 0.587545 0.255007 -0.76796 
0.304046 0.659338 0.263965 -0.72122 -0.241914 0.649091 
-0.355264 -0.00431749 0.174805 -0.0628029 0.107122 0.99226 
-0.309685 0.888957 0.446145 -0.0955337 -0.0337381 0.994854 
-0.371508 0.249909 0.0217782 -0.910152 0.0636993 -0.409348 
-0.386581 0.529898 0.230585 -0.919435 -0.193223 0.342496 
0.39762 0.224789 -0.0720897 0.914256 -0.0467549 -0.40243 
-0.0815907 0.643684 0.216972 -0.824271 -0.189488 0.533546 
-0.532347 0.373296 0.124735 0.591845 0.608712 -0.528383 
-0.34266 -0.597769 -0.399957 -0.49503 0.39519 -0.773802 
0.302089 0.165332 0.0883385 0.16534 -0.238348 0.957002 
0.237737 -0.273194 -0.363571 -0.0365442 0.245988 -0.968584 
0.0812215 -0.89045 -0.137336 -0.0406887 -0.979543 -0.197078 
-0.28384 0.458503 0.032319 -0.0881688 0.448133 -0.889608 
-0.49219 -0.579021 0.0512761 -0.651197 -0.296068 0.698775 
0.0961487 -0.692124 0.0854331 -0.165746 -0.287012 0.943479 
0.29468 -0.763129 -0.33346 0.739367 -0.346672 -0.577195 
0.00949931 -0.0664029 -0.294827 -0.102841 0.313426 -0.944027 
0.341375 0.543303 0.242709 -0.24438 -0.394999 0.885581 
0.138088 1.00863 0.334336 0.970565 0.227148 0.0800452 
-0.0955758 -0.699436 -0.510984 -0.0811315 -0.0551276 -0.995178 
0.342631 0.421421 -0.063581 0.234967 0.42465 -0.874336 
0.737934 0.20391 0.112674 0.984785 0.0356997 0.170071 
0.440763 -0.0764272 -0.114463 0.197551 0.632038 -0.749334 
0.0130064 0.316616 0.145365 0.203705 -0.567484 0.797788 
0.40038 -0.386368 0.104268 0.281318 0.318638 0.905169 
0.00716287 0.967517 0.410741 -0.245435 -0.171485 0.954125 
-0.177246 -0.655423 -0.487153 -0.165729 0.399953 -0.901427 
0.313497 -0.646911 0.0972537 0.241832 -0.393136 0.887108 
0.528649 0.200907 0.0525428 -0.808922 0.58722 0.0285947 
0.514471 -0.642139 -0.112259 0.825812 -0.555683 -0.0961811 
-0.572828 -0.315065 0.0772041 -0.748808 -0.257362 0.610779 
0.550894 -0.0733355 0.109747 -0.394663 -0.24578 0.885343 
-0.327866 -0.790246 -0.363266 0.0657669 -0.962703 -0.262447 
0.167453 -0.442386 0.119386 -0.239996 0.0978528 0.96583 
-0.570061 -0.258098 -0.0920765 -0.801694 0.150131 -0.578574 
0.00313464 -0.151413 -0.321197 -0.12974 0.277788 -0.951841 
0.0972612 0.338341 0.0869527 0.803678 -0.48377 0.34651 
0.313433 -0.168313 -0.323728 0.151049 0.460594 -0.874664 
0.593958 -0.504263 -0.12678 0.875744 -0.454857 -0.161794 
-0.56045 -0.163766 -0.0791346 -0.707564 0.160838 -0.688102 
-0.485843 -0.562088 -0.241333 -0.817132 -0.0155599 -0.576241 
