ply
format ascii 1.0
element vertex 241
property float x
property float y
property float z
property float nx
property float ny
property float nz
end_header
-0.212845 0.84949 0.215112 0.121709 -0.490266 -0.863033 
-0.669255 0.693293 -0.128158 0.594672 -0.618552 0.513574 
-0.0444338 -0.971016 0.112102 0.0425922 0.893784 -0.446471 
-0.456827 0.239128 -0.0867228 -0.831571 0.435822 0.34431 
-0.722571 -0.300893 0.247568 0.12389 0.0492263 -0.991074 
-0.86695 0.00328886 0.220829 0.471341 -0.00393333 -0.881942 
-0.151761 0.981936 -0.0504593 0.149586 -0.966699 0.207648 
-0.101443 0.794942 -0.24434 0.0271454 -0.207558 0.977846 
-0.0643074 -0.513116 -0.0917357 -0.108576 -0.922524 0.370353 
-0.452231 -0.232039 -0.064064 -0.858574 -0.444801 0.254956 
-0.894883 0.197718 -0.185447 0.654787 -0.14458 0.741856 
-0.446454 0.88524 -0.0602311 0.436422 -0.868033 0.236757 
-0.272251 -0.55904 -0.214707 -0.223084 -0.45904 0.859951 
-0.772023 -0.399178 0.21942 0.426334 0.219964 -0.877414 
-0.719346 0.126406 -0.249066 -0.0745949 0.0128309 0.997131 
-0.695978 -0.65048 0.144552 0.594358 0.553006 -0.583886 
-0.612159 0.164159 -0.221574 -0.445026 0.121612 0.887222 
-0.782405 0.369358 0.221236 0.419979 -0.198692 -0.885517 
-0.423938 0.799637 0.195765 0.290198 -0.549446 -0.783514 
-0.984508 0.0626568 0.0771802 0.949862 -0.0554737 -0.307709 
-0.856737 -0.166892 0.217391 0.487062 0.0959229 -0.868083 
-0.476724 0.416149 0.2211 -0.350507 0.304316 -0.88574 
-0.983939 -0.109148 -0.0675292 0.956588 0.102858 0.27269 
-0.61206 -0.304266 0.240934 -0.238227 -0.120227 -0.963739 
-0.822116 0.140197 -0.234861 0.334978 -0.0574101 0.940475 
-0.537284 0.800159 0.128803 0.477134 -0.7141 -0.512255 
-0.753498 -0.644782 -0.0594955 0.73714 0.631109 0.241509 
-0.704739 -0.509945 0.218667 0.391688 0.287508 -0.874025 
-0.477727 0.196357 0.0888071 -0.865239 0.353719 -0.35531 
-0.302724 -0.459085 0.149587 -0.442223 -0.666974 -0.599653 
-0.935717 -0.165942 0.148039 0.792829 0.13593 -0.594092 
-0.21325 -0.454547 -0.0345077 -0.423222 -0.895681 0.136527 
-0.512702 0.347888 -0.213071 -0.430751 0.290059 0.854587 
-0.175694 -0.562886 0.191875 -0.191604 -0.612247 -0.7671 
-0.249007 -0.936047 -0.119208 0.225028 0.85164 0.473363 
0.725289 0.290727 0.247717 -0.0854797 -0.00280736 -0.996336 
-0.844293 0.528602 -0.0357297 0.839384 -0.524413 0.142921 
-0.655696 -0.719962 -0.108358 0.60638 0.666563 0.433586 
-0.632323 0.328143 -0.246909 -0.132697 0.0669008 0.988896 
-0.741601 -0.00197411 0.249592 -0.0341877 -0.00184951 -0.999414 
-0.40896 -0.291367 0.0342721 -0.806664 -0.574887 -0.137102 
-0.0513267 0.49834 0.021994 -0.0905588 0.991824 -0.08991 
-0.199885 -0.471438 0.0767332 -0.371293 -0.875508 -0.309238 
-0.106341 -0.48834 -0.00297744 -0.205806 -0.978498 0.0135914 
-0.0324333 -0.997707 0.0142332 0.0320657 0.997794 -0.0581277 
-0.735633 0.567102 0.173432 0.569538 -0.438535 -0.695207 
-0.362972 -0.888178 -0.135841 0.315998 0.780976 0.538722 
-0.443592 0.53455 0.243589 -0.141201 0.167824 -0.975652 
-0.346143 -0.932794 -0.042825 0.340906 0.924492 0.170579 
-0.00434519 0.748617 0.249943 0.000499537 0.00675091 -0.999977 
-0.959799 -0.0380458 0.132552 0.848896 0.0338539 -0.527474 
-0.366514 -0.385728 0.12296 -0.599261 -0.630273 -0.493601 
-0.253162 -0.688473 0.249234 -0.0229545 -0.0598356 -0.997944 
-0.626761 -0.740253 0.117666 0.573124 0.670675 -0.470876 
-0.664411 0.0779756 0.236386 -0.319869 0.0376301 -0.946714 
-0.206461 0.801595 -0.237029 0.07931 -0.302715 0.949776 
0.739095 -0.0825549 -0.24971 0.0426708 -0.034168 0.998505 
-0.19713 0.597606 0.219097 -0.150687 0.457515 -0.876341 
-0.290003 -0.407862 0.0194624 -0.578207 -0.811984 -0.07974 
-0.678502 0.436781 -0.243012 0.194067 -0.125599 0.972915 
-0.92279 0.384417 0.00496409 0.922864 -0.384737 -0.017324 
-0.187736 0.972255 0.0676335 0.177862 -0.946575 -0.268998 
-0.645464 -0.647582 -0.187999 0.467663 0.47163 0.747567 
-0.614639 -0.186189 -0.225249 -0.412198 -0.122759 0.902786 
-0.0263908 -0.650656 -0.229846 -0.021107 -0.394693 0.918571 
0.51413 -0.12378 0.117672 0.785924 -0.177386 -0.592333 
-0.896284 0.100261 0.197863 0.607128 -0.0681536 -0.791676 
-0.940833 -0.161751 -0.142038 0.810349 0.139938 0.568992 
-0.549131 -0.515159 0.249816 0.0109384 0.00970979 -0.999893 
-0.946974 0.297715 0.0570964 0.929143 -0.288733 -0.230928 
-0.288243 0.942228 0.0831717 0.278985 -0.901954 -0.329616 
-0.875019 0.0126204 -0.215811 0.507147 -0.00825265 0.86182 
-0.13128 -0.748288 0.249491 0.00796732 0.0392609 -0.999197 
-0.155346 0.514367 -0.130905 -0.240857 0.816029 0.525438 
-0.371534 -0.91133 0.0860586 0.355407 0.869298 -0.343522 
-0.40519 0.352254 -0.131051 -0.641174 0.559243 0.525493 
-0.779148 -0.555628 -0.138741 0.679651 0.481029 0.553792 
-0.897187 0.30504 -0.151322 0.752213 -0.256619 0.606896 
-0.297661 0.539715 0.21122 -0.255827 0.465628 -0.847197 
-0.770079 0.243293 -0.242885 0.223515 -0.0700078 0.972183 
-0.955346 -0.243524 -0.0786063 0.918043 0.239439 0.316016 
-0.759462 0.635897 0.0656836 0.741062 -0.617279 -0.264185 
-0.285877 0.644698 0.245886 -0.0695384 0.162228 -0.9843 
-0.53329 0.577067 -0.246993 0.100647 -0.10736 0.989113 
-0.131747 0.783812 0.245664 0.0325513 -0.180981 -0.982948 
-0.00364166 -0.573636 0.177313 0.00102714 -0.699175 -0.71495 
-0.31866 0.794441 0.225902 0.155293 -0.394539 -0.905662 
-0.835788 -0.338302 -0.198155 0.565799 0.232885 0.790971 
-0.92596 0.193733 0.154323 0.769363 -0.162656 -0.617757 
-0.139927 0.931505 0.158777 0.108246 -0.761796 -0.638709 
-0.461807 0.760689 -0.206338 0.290684 -0.480676 0.827317 
-0.992986 0.0695025 -0.0406551 0.984329 -0.0667151 0.163232 
-0.472884 -0.216765 0.0993872 -0.834205 -0.382133 -0.397587 
-0.416802 -0.587024 -0.248079 -0.0697181 -0.0970972 0.99283 
-0.306398 0.87499 -0.175226 0.236086 -0.673793 0.70019 
-0.266313 -0.951138 0.0745322 0.253875 0.920177 -0.298031 
-0.0245678 0.933345 0.168198 0.030719 -0.736721 -0.675499 
-0.516687 -0.0559507 -0.0975739 -0.916485 -0.0961264 0.388349 
0.205705 -0.557831 -0.196099 0.216124 -0.550779 0.806184 
-0.83855 0.523936 0.0703271 0.812864 -0.511469 -0.278662 
-0.461461 0.660977 -0.243194 0.129946 -0.187724 0.973588 
0.685828 -0.725299 -0.0165173 -0.686284 0.725984 0.0442856 
-0.285057 0.410491 0.00244728 -0.572361 0.81995 -0.00919877 
0.200144 0.731236 -0.249564 -0.0229316 -0.00660793 0.999715 
-0.490002 0.717714 0.219542 0.270288 -0.392165 -0.87929 
-0.498058 -0.518858 -0.24795 -0.084454 -0.0892423 0.992423 
-0.35145 0.93503 -0.000488851 0.355891 -0.934514 0.00492649 
-0.173635 -0.84244 -0.223995 0.0902302 0.433977 0.896394 
-0.560241 0.697616 -0.203231 0.364301 -0.452715 0.813839 
-0.896048 -0.440611 -0.00798332 0.897122 0.440411 0.0347715 
-0.420696 0.450904 -0.211618 -0.36172 0.390993 0.846335 
-0.765336 -0.472921 -0.199136 0.513962 0.315688 0.797612 
0.22619 0.738707 0.248887 -0.0240493 -0.067978 -0.997397 
-0.359856 0.885751 0.140928 0.314064 -0.76601 -0.560885 
-0.433815 0.304831 0.119769 -0.716968 0.508284 -0.477079 
-0.49811 0.0786248 0.0490133 -0.969226 0.149926 -0.195251 
-0.742563 -0.353983 -0.238864 0.264363 0.128669 0.955801 
-0.804827 0.25973 0.230673 0.368435 -0.11981 -0.921901 
-0.551071 -0.785623 -0.134588 0.486785 0.685304 0.541663 
-0.455997 -0.880875 -0.0596945 0.44343 0.86532 0.233647 
-0.763631 -0.633552 0.0596318 0.748955 0.617495 -0.240347 
0.513488 0.292444 -0.19332 0.472666 0.25143 0.844612 
-0.063528 0.664921 0.235877 -0.0312337 0.324883 -0.945238 
-0.299629 0.43399 -0.114019 -0.508233 0.729875 0.457145 
-0.881178 -0.41146 -0.111104 0.81239 0.379584 0.442649 
-0.508076 -0.255426 -0.172326 -0.645534 -0.327449 0.689973 
-0.391537 -0.465362 -0.205922 -0.363851 -0.433002 0.824695 
-0.638825 0.0422613 -0.224619 -0.436482 0.0273468 0.899297 
-0.952813 -0.0493117 -0.142441 0.819611 0.0397904 0.571537 
-0.155825 -0.974972 -0.0746965 0.151046 0.942774 0.297259 
-0.134212 -0.930773 0.160503 0.109859 0.760093 -0.64046 
-0.558543 0.332306 0.229254 -0.340619 0.204465 -0.9177 
-0.700156 -0.710592 0.0304633 0.695391 0.708702 -0.119049 
-0.53283 0.844258 0.0146958 0.528421 -0.846978 -0.0583076 
-0.0739039 0.567647 0.176572 -0.0878518 0.700753 -0.707974 
-0.32594 -0.827315 -0.207171 0.202944 0.517309 0.831387 
-0.636743 -0.399852 -0.249871 0.00890974 0.00638564 0.99994 
-0.601339 0.00813219 0.200919 -0.592371 0.00967239 -0.805607 
-0.663787 -0.0744246 0.235979 -0.327046 -0.0367967 -0.944292 
-0.175841 -0.516944 -0.144947 -0.263958 -0.771468 0.578933 
-0.499456 -0.0430445 0.0269754 -0.991211 -0.0793767 -0.105834 
-0.621208 -0.590534 0.225188 0.317176 0.297615 -0.900458 
-0.141209 -0.663453 -0.239553 -0.0565924 -0.27809 0.958887 
-0.0770338 0.980504 0.086397 0.0768647 -0.933107 -0.351289 
-0.163024 -0.98271 0.0352934 0.159945 0.976948 -0.141385 
0.780164 0.620784 -0.0323283 -0.748235 -0.637488 0.183722 
-0.357957 0.792555 -0.218858 0.198587 -0.438917 0.876308 
-0.794369 -0.0774645 -0.245285 0.195831 0.0196476 0.980441 
-0.816971 -0.574439 -0.00825144 0.819853 0.571437 0.0360622 
-0.516423 0.246025 -0.176221 -0.643244 0.302725 0.703275 
-0.489073 -0.863054 0.0579574 0.476977 0.848077 -0.230778 
-0.42242 -0.773287 -0.212299 0.252979 0.460693 0.850743 
-0.322117 -0.557692 0.226428 -0.211989 -0.367179 -0.905671 
-0.779881 0.112184 0.246668 0.151068 -0.0218567 -0.988282 
-0.0510042 -0.97811 -0.0964188 0.047752 0.92223 0.383681 
-0.554817 -0.827651 -0.0401176 0.54992 0.819718 0.160156 
-0.954369 0.25606 -0.072734 0.923468 -0.245957 0.294468 
-0.660389 0.201449 0.242505 -0.226965 0.0699627 -0.971387 
-0.808644 0.478479 -0.161395 0.657733 -0.387149 0.646144 
-0.161234 0.518483 0.14026 -0.245962 0.79175 -0.559137 
-0.997248 -0.0383576 0.0176642 0.996711 0.0333869 -0.0738401 
-0.418095 -0.327172 -0.120909 -0.689816 -0.538988 0.48337 
-0.913064 -0.27277 0.145285 0.779323 0.23227 -0.581985 
-0.708601 -0.187828 0.249208 -0.0656113 -0.0160327 -0.997716 
-0.914013 -0.361808 0.08816 0.87052 0.347534 -0.348447 
-0.29218 0.597785 -0.235188 -0.149977 0.302845 0.941165 
-0.846498 -0.506141 -0.0775219 0.817067 0.486314 0.309678 
-0.361273 0.669261 -0.249475 0.0217924 -0.0408432 0.998928 
-0.859165 -0.160857 -0.216481 0.493209 0.0900824 0.865234 
-0.307375 -0.671517 -0.249477 -0.0184554 -0.0392129 0.99906 
-0.682397 0.354215 0.249054 0.0692084 -0.036951 -0.996918 
-0.0254703 0.887831 -0.207727 0.0265604 -0.554957 0.831455 
-0.609316 -0.49848 -0.246898 0.117346 0.0942745 0.988606 
-0.535833 -0.80262 0.126882 0.476904 0.720353 -0.50364 
-0.831008 -0.46104 0.148224 0.703904 0.392833 -0.591779 
-0.881106 0.406235 -0.115972 0.801834 -0.371236 0.468237 
-0.308338 -0.882538 0.166654 0.241962 0.701276 -0.670572 
0.925558 -0.291439 0.117162 -0.769821 0.289353 -0.568902 
-0.319063 -0.794723 0.225712 0.158617 0.400797 -0.902332 
-0.311624 -0.42073 -0.1066 -0.537165 -0.727176 0.427398 
-0.695135 0.716564 0.0210306 0.693138 -0.71607 -0.0824818 
0.386764 -0.533282 0.232829 0.177129 -0.299557 -0.937492 
-0.340989 0.392303 0.0983524 -0.603136 0.694568 -0.392176 
-0.028648 0.644223 -0.226856 -0.0185356 0.416796 0.908811 
-0.395169 0.675976 0.247402 0.0669259 -0.113917 -0.991233 
-0.268302 0.470473 0.138881 -0.413531 0.721387 -0.555511 
-0.695739 -0.559445 -0.204702 0.449658 0.355802 0.819275 
-0.189557 0.899086 -0.183547 0.139377 -0.666423 0.732431 
-0.722435 0.52327 -0.204782 0.463042 -0.334388 0.820839 
-0.761602 0.357941 -0.232092 0.33564 -0.157825 0.928675 
-0.620509 -0.781858 0.0237204 0.620783 0.778392 -0.0934636 
-0.437939 -0.839711 0.152906 0.364178 0.703047 -0.610818 
-0.531613 0.820915 -0.100672 0.497178 -0.769612 0.400638 
-0.218727 0.726527 0.249567 0.0113946 -0.0380862 -0.999209 
-0.539993 -0.653525 0.229921 0.252458 0.30093 -0.919623 
-0.459702 -0.302926 0.150442 -0.665324 -0.436917 -0.605349 
-0.748232 0.470337 0.210412 0.454583 -0.287504 -0.843028 
-0.476795 0.152464 -0.0181267 -0.951635 0.298488 0.0727738 
-0.523495 0.476677 -0.246328 -0.121422 0.112609 0.986193 
-0.00795111 -0.696097 0.244009 -0.00108554 -0.217321 -0.9761 
-0.818686 -0.2818 0.220972 0.439314 0.151737 -0.885426 
-0.596756 0.691969 0.187837 0.431858 -0.496489 -0.752992 
-0.492706 -0.373083 -0.21244 -0.419929 -0.316627 0.850533 
-0.552717 0.178506 0.184047 -0.643311 0.207017 -0.737086 
-0.0922366 0.572539 -0.18344 -0.102039 0.670135 0.735192 
-0.756328 0.614373 -0.109046 0.69885 -0.566094 0.437203 
-0.699394 -0.0382779 -0.245203 -0.197067 -0.0119795 0.980317 
-0.43478 -0.431109 0.208644 -0.390393 -0.388663 -0.834586 
-0.591039 0.593627 0.233795 0.250437 -0.251508 -0.934893 
-0.622246 0.437046 0.249457 0.036517 -0.0264163 -0.998984 
-0.479386 -0.144585 0.015348 -0.955268 -0.290055 -0.0577171 
-0.60681 -0.0769806 -0.208568 -0.547505 -0.0669713 0.834118 
-0.849984 0.44548 0.135334 0.74305 -0.391894 -0.54249 
-0.527899 0.0738481 -0.124764 -0.858346 0.120401 0.498743 
0.249123 -0.966455 -0.0157273 -0.244247 0.967495 0.065554 
-0.954386 0.124624 -0.129491 0.847947 -0.109454 0.518658 
-0.0950709 -0.767026 -0.24884 0.0135191 0.0934112 0.995536 
-0.5432 0.500757 0.249492 -0.031429 0.0296514 -0.999066 
-0.944262 -0.324042 -0.0115054 0.943837 0.326313 0.0518818 
-0.252065 0.941868 -0.106043 0.233929 -0.87495 0.423957 
-0.974909 -0.190434 0.0555603 0.956882 0.185295 -0.223703 
-0.0694586 0.962479 -0.125505 0.0727948 -0.860112 0.504884 
-0.890424 -0.251739 -0.177461 0.681729 0.191309 0.706149 
-0.217007 -0.865332 0.20467 0.142038 0.556835 -0.818389 
-0.421339 -0.761204 0.218852 0.231217 0.42266 -0.876298 
-0.532591 -0.65503 -0.231422 0.237421 0.296158 0.92516 
-0.772435 -0.56578 0.137646 0.671154 0.49223 -0.554313 
-0.622559 0.751932 0.10532 0.579893 -0.696838 -0.422067 
-0.882493 0.297419 0.170763 0.69096 -0.233781 -0.684048 
-0.39839 -0.63877 0.249823 0.00582962 0.0114956 -0.999917 
-0.404963 0.293528 -0.0147977 -0.805659 0.589281 0.0605102 
-0.0619374 -0.569587 -0.176752 -0.0771691 -0.703843 0.706151 
-0.0724926 -0.903497 -0.194395 0.0515155 0.628391 0.77619 
-0.138829 0.660258 -0.238372 -0.0608995 0.293801 0.953925 
-0.433819 0.890389 0.0632167 0.426621 -0.869757 -0.248027 
-0.197388 0.462715 0.0385674 -0.392854 0.907014 -0.151628 
-0.0850187 -0.518527 0.110457 -0.138572 -0.884065 -0.446347 
-0.557121 -0.172328 0.185921 -0.635274 -0.19739 -0.746635 
-0.62877 -0.408714 0.249983 0.000773784 0.00129025 -0.999999 
-0.401799 0.574756 -0.245288 -0.11022 0.156333 0.981535 
-0.982256 0.180061 0.0152988 0.982206 -0.178338 -0.0588876 
