ply
format ascii 1.0
element vertex 499
property float x
property float y
property float z
property float nx
property float ny
property float nz
end_header
0.204188 0.981237 -0.0938497 0.178165 0.912338 -0.368641 
-0.204188 -0.661902 -0.244413 0.109644 0.268009 -0.957157 
-0.816751 0.584098 -0.0869659 -0.755273 0.559141 -0.341941 
-0.816751 0.42586 -0.201729 -0.521542 0.27756 -0.806817 
0.204188 0.470789 -0.0362993 -0.428006 -0.893131 -0.138305 
0.816751 -4.09978e-05 -0.250017 0.135021 -0.00185117 -0.990841 
-0.561516 0.343477 -0.231487 0.336024 -0.219333 -0.915959 
-0.561516 0.20142 0.191076 0.587909 -0.229704 0.775629 
0.561516 -0.506916 0.254825 -0.0108038 0.0240404 0.999653 
-0.816751 -0.342966 -0.225096 -0.400458 -0.176812 -0.899095 
-0.204188 0.884754 -0.210676 -0.112936 0.547835 -0.828928 
-0.816751 -0.47561 0.180478 -0.590082 -0.37706 0.713883 
-0.816751 0.0889649 -0.248493 -0.158029 0.0265199 -0.987078 
0.561516 -0.0430554 -0.15548 -0.746052 0.0678199 -0.662425 
0.561516 -0.246993 0.205198 -0.511105 0.245026 0.823853 
-0.561516 -0.0367703 -0.155064 0.750853 0.0489776 -0.658651 
-0.561516 0.810995 0.126325 -0.503177 0.702388 0.503452 
0.816751 -0.59894 0.0578923 0.769853 -0.595428 0.229766 
0.561516 0.463758 0.252245 -0.0982435 -0.0913221 0.990963 
0.816751 0.0283684 0.249601 0.138433 0.0127656 0.99029 
-0.204188 -0.988944 -0.0728202 -0.181537 -0.940302 -0.287881 
-0.561516 0.578196 0.251307 -0.117141 0.121095 0.985705 
-0.816751 -0.483781 -0.175839 -0.600098 -0.381215 -0.703247 
0.561516 0.68509 0.225171 0.311598 0.360476 0.879183 
-0.204188 -0.959058 0.136489 -0.162786 -0.826918 0.538245 
0.204188 0.820948 -0.241371 0.0619144 0.307226 -0.94962 
0.816751 0.247717 -0.23934 0.288037 0.106509 -0.951678 
0.204188 0.537278 0.169382 -0.295596 -0.69446 0.656009 
-0.561516 0.699068 -0.218446 -0.332688 0.406814 -0.850776 
0.204188 0.477984 -0.0682932 -0.412196 -0.871879 -0.264428 
0.204188 0.90142 0.198642 0.124556 0.605881 0.785744 
0.561516 0.733582 0.198978 0.389713 0.504436 0.770498 
0.561516 0.300096 -0.219888 -0.419586 -0.2497 -0.872696 
0.561516 -0.844831 0.0558676 0.553025 -0.80448 0.216737 
0.204188 -0.735645 0.254698 -0.0228151 0.00871503 0.999702 
-0.561516 0.548435 -0.254215 -0.0649544 0.0511816 -0.996575 
-0.561516 0.773361 -0.168424 -0.448809 0.601948 -0.660476 
-0.561516 -0.317062 0.225097 0.38551 0.232532 0.892923 
-0.561516 -0.706739 -0.214795 -0.348407 -0.421344 -0.837306 
0.816751 0.562508 -0.117092 0.721192 0.524624 -0.452384 
-0.816751 -0.055496 -0.248939 -0.146357 -0.0218943 -0.98899 
-0.561516 0.0917499 0.162869 0.717498 -0.142261 0.681879 
0.204188 -0.769122 0.25293 0.011342 -0.118785 0.992855 
0.204188 0.998728 -0.0232382 0.188678 0.977939 -0.0896472 
-0.816751 0.162421 0.246008 -0.20802 0.0577093 0.976421 
-0.561516 -0.402536 -0.244244 0.216271 0.171677 -0.961121 
0.561516 -0.522419 -0.255132 0.0182842 -0.000370288 -0.999833 
-0.561516 -0.590396 -0.25033 -0.149467 -0.139544 -0.97887 
-0.816751 0.0546601 0.249343 -0.146115 0.0151971 0.989151 
0.816751 -0.478334 -0.178932 0.591912 -0.374128 -0.713911 
0.816751 0.328566 -0.227458 0.387107 0.165142 -0.907125 
0.204188 0.926626 0.176648 0.142408 0.699964 0.699836 
0.561516 0.198308 -0.190157 -0.591256 -0.222708 -0.775124 
-0.204188 -0.801895 0.24709 -0.0422083 -0.2397 0.969929 
-0.816751 0.244437 0.239596 -0.288904 0.106797 0.951383 
0.816751 0.538695 0.140513 0.687304 0.461151 0.561206 
-0.204188 -0.979709 0.0980212 -0.175894 -0.905683 0.385746 
-0.561516 0.832504 0.089256 -0.533709 0.768884 0.352095 
-0.561516 0.0552632 0.156294 0.743607 -0.0847884 0.663219 
0.204188 -0.957652 -0.138827 0.162053 -0.82008 -0.548824 
0.561516 0.078482 -0.160479 -0.726257 -0.102256 -0.679775 
-0.561516 -0.68425 0.225521 -0.310242 -0.36648 0.877179 
0.204188 -0.545364 0.177211 -0.283153 0.665896 0.690222 
-0.561516 -0.118264 0.168209 0.692463 0.149643 0.705764 
0.204188 -0.630983 0.233734 -0.149848 0.380526 0.912549 
0.204188 -0.878304 0.214905 0.105969 -0.522374 0.846106 
0.816751 -0.361787 0.220268 0.424974 -0.209782 0.880562 
0.561516 0.0651817 0.158259 -0.735808 -0.0993134 0.669868 
-0.561516 0.846833 -0.047586 -0.553986 0.813226 -0.178225 
0.561516 0.804835 -0.134161 0.496496 0.684508 -0.533797 
0.816751 -0.277078 -0.235806 0.31714 -0.134784 -0.938752 
0.561516 0.663263 -0.232419 0.273663 0.300491 -0.913682 
0.204188 -0.512223 -0.138817 -0.344024 0.775174 -0.52986 
0.816751 0.609514 -0.011751 0.789821 0.611015 -0.0533218 
-0.816751 0.393605 -0.211586 -0.475389 0.2419 -0.845866 
0.816751 -0.577989 -0.0976742 0.739162 -0.557701 -0.377636 
-0.204188 -0.898192 -0.2015 -0.120789 -0.591638 -0.797103 
0.204188 -0.880266 -0.213523 0.107522 -0.527319 -0.842837 
0.204188 -0.761657 -0.253648 0.00384703 -0.0953775 -0.995434 
-0.561516 0.697307 0.219057 -0.327537 0.401043 0.855502 
0.204188 0.467933 -0.00356714 -0.434513 -0.900553 -0.0142087 
-0.561516 -0.848223 0.0405022 -0.556192 -0.815785 0.158571 
-0.204188 0.639181 -0.237031 0.135941 -0.354717 -0.925038 
0.204188 -0.671683 -0.246885 -0.0964549 0.235129 -0.967166 
0.204188 0.738399 -0.254768 -0.0166751 -0.00159582 -0.99986 
-0.561516 0.824102 -0.105633 -0.522413 0.742314 -0.419589 
-0.561516 -0.506916 0.254825 0.0126377 0.0254324 0.999597 
-0.816751 -0.0907362 0.248649 -0.157562 -0.0285302 0.987097 
-0.816751 -0.584277 -0.0871925 -0.749373 -0.566976 -0.342021 
-0.561516 0.0337732 -0.155244 0.749778 -0.0392333 -0.660525 
0.816751 -0.381345 -0.215249 0.452738 -0.244406 -0.857493 
-0.204188 -0.960489 -0.13387 -0.16357 -0.83342 -0.527878 
0.204188 0.851714 -0.229411 0.0875433 0.423094 -0.901847 
0.204188 -0.510521 0.135674 -0.347503 0.777462 0.524209 
-0.816751 -0.433368 -0.199289 -0.525946 -0.29857 -0.79639 
0.204188 -0.810386 0.244492 0.049862 -0.273678 0.960528 
0.561516 0.699021 -0.218195 0.333736 0.406382 -0.850573 
-0.816751 -0.407637 0.207621 -0.491653 -0.243444 0.836069 
-0.561516 -0.843938 -0.0589053 -0.550658 -0.803145 -0.227451 
-0.816751 0.498571 -0.167108 -0.629742 0.390105 -0.671747 
-0.561516 -0.208922 0.193673 0.573576 0.235703 0.78451 
0.816751 -0.045089 -0.249462 0.14026 -0.0116687 -0.990046 
-0.204188 -0.658627 0.243458 0.112942 0.283178 0.952394 
-0.561516 -0.623148 -0.244244 -0.20788 -0.216492 -0.953896 
0.561516 -0.559913 0.253638 0.0908554 -0.0757063 0.992982 
0.561516 -0.117172 0.169652 -0.690475 0.166116 0.704024 
0.204188 -0.703216 0.252579 -0.058686 0.12301 0.990669 
-0.561516 0.544492 0.25415 -0.053375 0.0472731 0.997455 
-0.561516 0.804778 -0.134731 -0.494943 0.68646 -0.532733 
0.561516 0.247899 -0.204722 -0.512523 -0.24281 -0.823628 
0.816751 -0.547621 0.132035 0.693902 -0.487362 0.530074 
0.816751 -0.510926 0.16009 0.639293 -0.417266 0.645906 
-0.561516 -0.828979 0.0976742 -0.530306 -0.757735 0.380281 
0.204188 0.992947 -0.0574643 0.185225 0.954882 -0.232147 
0.204188 0.587274 -0.21051 -0.210776 -0.527866 -0.822758 
-0.816751 -0.172153 0.24542 -0.210396 -0.0570729 0.975949 
-0.561516 -0.546379 -0.254341 -0.0683461 -0.0485746 -0.996478 
0.204188 0.472159 0.0443288 -0.425206 -0.889824 0.165572 
0.204188 -0.999413 -0.0125737 0.187922 -0.981059 -0.0469887 
0.204188 -0.569329 -0.198017 -0.242426 0.590189 -0.770005 
0.816751 -0.47561 0.180478 0.58699 -0.376204 0.716878 
0.561516 -0.402536 0.244244 -0.217849 0.16963 0.961128 
0.816751 0.449623 -0.192274 0.556809 0.326451 -0.763802 
-0.204188 0.578879 0.205326 0.223634 -0.553673 0.802143 
-0.816751 0.602633 0.0453969 -0.784397 0.591872 0.185495 
0.561516 0.496704 0.254399 -0.0331742 -0.0409694 0.99861 
-0.561516 0.167428 -0.181257 0.634495 -0.210767 -0.743636 
-0.204188 -0.509835 -0.134629 0.34986 0.78113 -0.517141 
-0.204188 -0.477638 0.0664131 0.41536 0.872119 0.25862 
-0.816751 -0.560033 -0.120317 -0.713762 -0.517413 -0.472046 
-0.816751 -0.610564 2.0232e-08 -0.788686 -0.614795 0.000819704 
0.561516 -0.331725 -0.228666 -0.358547 0.235675 -0.903272 
0.561516 -0.476041 -0.2534 -0.0725398 0.0729534 -0.994694 
-0.561516 0.729015 -0.202071 -0.380787 0.488488 -0.785099 
-0.204188 0.526155 -0.157201 0.315628 -0.728269 -0.608278 
-0.816751 -0.5886 0.0799865 -0.756282 -0.568742 0.323372 
0.204188 -0.93216 -0.170598 0.145014 -0.725857 -0.672386 
0.561516 0.507545 -0.254368 -0.0137066 -0.0271023 -0.999539 
0.561516 0.60923 0.246815 0.179564 0.189888 0.965246 
0.561516 -0.799648 0.1418 0.490061 -0.666556 0.561733 
-0.204188 -0.926708 0.176648 -0.141204 -0.698661 0.70138 
-0.204188 0.475121 0.0572605 0.418268 -0.880045 0.224883 
-0.561516 -0.317062 -0.225096 0.384154 0.234258 -0.893056 
-0.561516 -0.513118 -0.25503 -0.00533392 0.00993641 -0.999936 
-0.561516 -0.797587 -0.144036 -0.486281 -0.660373 -0.572222 
0.561516 0.76889 0.172674 0.443778 0.585753 0.6782 
0.561516 0.594916 -0.249111 0.152165 0.168605 -0.973868 
0.816751 -0.0833429 0.248379 0.155071 -0.0144765 0.987797 
-0.561516 -0.852329 2.0232e-08 -0.561897 -0.827204 0.00245498 
0.816751 -0.0804838 -0.249026 0.151615 -0.0220922 -0.988193 
-0.561516 0.851362 -0.0140389 -0.559716 0.826937 -0.0537976 
0.561516 -0.208158 0.193561 -0.57438 0.238512 0.783071 
0.204188 0.673239 0.247278 -0.0928021 -0.236687 0.967144 
0.204188 0.925561 -0.17726 0.142196 0.699324 -0.700519 
0.561516 -0.685366 0.225097 0.313572 -0.369391 0.87477 
0.561516 0.85156 0.0109404 0.561447 0.826271 0.0453029 
-0.204188 0.998552 0.0263729 -0.189148 0.97613 0.106737 
-0.561516 -0.282764 -0.215654 0.448049 0.246154 -0.859454 
-0.816751 0.0940717 0.248523 -0.162236 0.0313079 0.986255 
0.816751 0.263869 0.237391 0.303654 0.115852 0.945713 
-0.204188 0.731232 -0.254949 0.0247638 -0.0148802 -0.999583 
0.816751 0.585389 -0.0845164 0.753973 0.570844 -0.325056 
0.204188 0.707798 0.253478 -0.0518605 -0.104831 0.993137 
-0.816751 0.393857 0.210646 -0.488118 0.231106 0.841624 
-0.561516 0.290446 0.217084 0.439639 -0.245385 0.864005 
-0.561516 -0.828979 -0.0976742 -0.530579 -0.757207 -0.38095 
-0.204188 -0.70788 0.253478 0.0534504 0.103938 0.993146 
0.561516 -0.840409 -0.0710808 0.547555 -0.790317 -0.274924 
-0.561516 -0.737099 -0.197299 -0.396193 -0.507004 -0.765492 
-0.816751 0.51868 0.153917 -0.667994 0.395336 0.630471 
-0.816751 -0.208025 0.242802 -0.242897 -0.0759891 0.967071 
0.204188 -0.90876 -0.193131 0.128692 -0.636356 -0.760585 
0.561516 -0.00925837 -0.153241 -0.754977 0.0128455 -0.655626 
-0.561516 -0.0837426 0.161919 0.720792 0.112861 0.683901 
0.561516 0.843962 -0.0584156 0.551495 0.801112 -0.232535 
0.561516 -0.626327 0.2434 0.212372 -0.217046 0.95278 
-0.561516 0.746925 0.190078 -0.407249 0.534785 0.740373 
-0.204188 -0.541809 0.174255 0.289388 0.677265 0.676436 
-0.204188 -0.469551 0.0294173 0.433543 0.893814 0.114619 
0.816751 -0.237558 0.239701 0.273478 -0.0952673 0.957149 
-0.816751 -0.226337 -0.240806 -0.263096 -0.0974753 -0.959833 
0.561516 0.472265 -0.252738 -0.0826931 -0.0705657 -0.994074 
0.204188 -0.983588 0.087864 0.178328 -0.920978 0.346408 
0.204188 -0.495329 -0.110217 -0.377491 0.823298 -0.423888 
0.561516 -0.826019 -0.102706 0.527425 -0.742116 -0.413627 
-0.816751 -0.439555 0.197298 -0.53711 -0.301598 0.787751 
-0.561516 0.486618 0.253803 0.0591612 -0.0518103 0.996903 
-0.204188 0.484157 -0.0857027 0.399199 -0.853464 -0.335022 
-0.816751 -0.128328 0.247266 -0.178322 -0.0369896 0.983277 
-0.816751 -0.191453 -0.244244 -0.229059 -0.0698 -0.970907 
-0.816751 -0.602342 -0.0497942 -0.776479 -0.595459 -0.206176 
-0.561516 -0.772728 -0.169343 -0.449972 -0.600765 -0.660762 
0.816751 -0.191453 0.244244 0.227643 -0.0689726 0.971299 
-0.816751 -0.261222 -0.237369 -0.300401 -0.10772 -0.947711 
0.561516 0.823423 0.106807 0.522813 0.73931 0.424368 
0.816751 -0.244485 -0.239628 0.279892 -0.093654 -0.955453 
-0.816751 -0.508291 0.161919 -0.638382 -0.403758 0.655323 
0.816751 0.214911 -0.241905 0.253295 0.0690157 -0.964924 
-0.816751 -0.125781 -0.247269 -0.178887 -0.0393444 -0.983083 
0.204188 0.999331 0.0125733 0.188921 0.980809 0.0481932 
0.204188 -0.474742 0.055481 -0.421335 0.879822 0.219975 
0.816751 -0.342966 -0.225096 0.400136 -0.181987 -0.898205 
-0.816751 0.472584 0.18079 -0.601307 0.388219 0.698366 
0.204188 0.703134 -0.252579 -0.0554657 -0.122259 -0.990947 
-0.561516 -0.623148 0.244244 -0.205061 -0.2114 0.955646 
-0.816751 0.263869 -0.237391 -0.304525 0.116703 -0.945328 
0.816751 -0.0377213 0.249297 0.140499 -0.0257027 0.989747 
-0.561516 -0.361052 -0.235806 0.298944 0.2092 -0.931058 
0.204188 0.495817 0.111336 -0.375004 -0.818973 0.434343 
0.561516 -0.0837426 0.161919 -0.722256 0.13813 0.677692 
-0.204188 -0.489257 0.0982847 0.390604 0.840666 0.375113 
-0.816751 0.0518203 -0.249354 -0.144542 0.017085 -0.989351 
-0.204188 0.961788 -0.131813 -0.16612 0.8381 -0.519609 
-0.561516 -0.170375 0.181889 0.630459 0.222852 0.743544 
0.561516 -0.771798 0.170168 0.449201 -0.594278 0.667122 
-0.816751 -0.0185642 -0.249683 -0.138788 -0.011747 -0.990252 
-0.204188 -0.999103 -0.0180134 -0.18767 -0.97943 -0.0741353 
0.204188 0.509753 -0.134629 -0.346353 -0.780744 -0.520075 
0.561516 -0.590396 -0.25033 0.146492 -0.144305 -0.97863 
-0.561516 -0.280254 0.214776 0.453709 0.252505 0.854628 
0.204188 0.561046 0.191684 -0.254409 -0.615379 0.746046 
0.561516 0.75623 -0.18258 0.424401 0.557284 -0.713665 
0.204188 0.965845 -0.125338 0.168676 0.850653 -0.497934 
-0.816751 -0.0201517 0.249769 -0.137993 -0.00799586 0.990401 
0.816751 -0.416327 -0.204863 0.501822 -0.263694 -0.823796 
-0.561516 0.232546 0.200262 0.53944 -0.237769 0.807757 
-0.561516 0.420522 -0.246944 0.184771 -0.149594 -0.97133 
0.816751 -0.545776 -0.134502 0.691793 -0.480504 -0.539016 
0.561516 -0.440141 0.249862 -0.142997 0.121047 0.982293 
0.561516 0.727565 -0.202499 0.379785 0.487134 -0.786425 
0.204188 -0.925644 0.17726 0.140408 -0.701858 0.698341 
0.561516 -0.170286 0.182347 -0.62976 0.203115 0.749764 
-0.561516 0.323771 0.226279 0.377787 -0.237286 0.894971 
-0.204188 0.910921 -0.191071 -0.131991 0.640539 -0.756497 
0.816751 -0.607819 -0.0277701 0.78341 -0.610603 -0.115901 
0.816751 0.563669 0.115254 0.723216 0.530269 0.442462 
-0.816751 0.220837 -0.24168 -0.25754 0.0819998 -0.962782 
0.204188 0.834392 0.236537 0.0721755 0.363065 0.928964 
-0.204188 0.995207 -0.0482812 -0.18697 0.965262 -0.182517 
0.816751 0.605353 0.0373582 0.783736 0.602049 0.152626 
0.204188 0.620169 0.228899 -0.163211 -0.416717 0.894265 
-0.204188 0.55875 -0.189911 0.257808 -0.618924 -0.741935 
-0.204188 0.978967 0.0998355 -0.177369 0.901543 0.394664 
-0.204188 -0.475572 -0.058684 0.42021 0.879846 -0.222024 
-0.816751 -0.308454 -0.230706 -0.356754 -0.138335 -0.923899 
0.816751 0.534281 -0.143824 0.680379 0.447788 -0.580147 
0.561516 -0.0461647 0.156435 -0.744622 0.0582636 0.664939 
0.561516 -0.706145 -0.215081 0.346778 -0.423401 -0.836945 
-0.561516 0.431216 0.248434 0.168517 -0.146003 0.974826 
-0.204188 -0.617535 0.227738 0.1687 0.426987 0.888382 
-0.561516 -0.475638 -0.253393 0.0692472 0.0720666 -0.994993 
-0.204188 0.820948 0.241371 -0.061964 0.308738 0.949127 
-0.816751 0.195227 0.243443 -0.237735 0.0748275 0.968444 
-0.204188 0.999205 -0.0153474 -0.189326 0.979989 -0.0614619 
0.816751 -0.609019 0.0187628 0.78499 -0.614297 0.0801857 
0.816751 0.132894 -0.247095 0.182576 0.0384891 -0.982438 
-0.561516 0.375158 -0.238596 0.27439 -0.197233 -0.941175 
0.561516 -0.473148 0.253157 -0.0773821 0.0747895 0.994192 
0.204188 0.995207 0.0482812 0.186525 0.964908 0.18483 
0.816751 0.145873 0.24648 0.190673 0.0382971 0.980906 
-0.204188 0.980802 -0.0955506 -0.178149 0.905107 -0.386062 
-0.204188 0.992403 0.0595119 -0.185411 0.953262 0.238568 
0.204188 -0.846141 0.231722 0.0804571 -0.398888 0.913463 
0.816751 0.398545 -0.209303 0.484051 0.246969 -0.839465 
-0.816751 0.590097 0.0756427 -0.767162 0.567486 0.299034 
0.816751 0.584098 0.0869659 0.752637 0.561833 0.343338 
-0.816751 0.609514 0.011751 -0.794019 0.605526 0.0535865 
0.561516 -0.676256 -0.228326 0.297474 -0.342781 -0.891072 
-0.816751 0.57238 0.103763 -0.742951 0.544194 0.389713 
0.816751 -0.11593 0.247723 0.17143 -0.0342475 0.984601 
0.204188 -0.849662 -0.230287 0.0833696 -0.418803 -0.904242 
-0.561516 0.394944 0.24203 0.240444 -0.180815 0.953673 
0.561516 0.135213 0.172781 -0.67359 -0.180587 0.716704 
0.204188 0.480393 0.0762662 -0.407498 -0.864302 0.294836 
-0.561516 0.628426 -0.242546 -0.212226 0.223662 -0.951281 
-0.204188 0.763682 -0.253414 -0.00861586 0.105704 -0.99436 
0.816751 0.438648 0.197614 0.539406 0.30767 0.783824 
-0.816751 -0.374334 0.217048 -0.444684 -0.23712 0.863731 
0.561516 -0.851076 0.02189 0.561403 -0.823575 0.0809372 
0.561516 -0.300177 -0.219888 -0.418752 0.239308 -0.876002 
-0.561516 0.6602 -0.233931 -0.267606 0.293749 -0.917659 
-0.204188 0.528779 0.159768 0.309543 -0.724183 0.616232 
-0.204188 0.621955 0.229448 0.158872 -0.413534 0.896521 
-0.204188 0.942982 -0.1585 -0.153971 0.768111 -0.621529 
0.816751 0.59995 -0.0532879 0.775203 0.593154 -0.217323 
0.816751 -0.00513446 0.249953 0.136394 -0.0040853 0.990646 
-0.561516 0.111195 -0.167066 0.699246 -0.152881 -0.698343 
0.204188 0.670731 -0.246618 -0.0942562 -0.239825 -0.96623 
0.204188 -0.543937 -0.176212 -0.285489 0.666487 -0.688688 
0.561516 0.244952 0.204341 -0.515605 -0.244053 0.821334 
0.561516 0.629723 -0.241867 0.215096 0.229972 -0.949129 
-0.561516 -0.242443 -0.203827 0.519036 0.24272 -0.819566 
0.204188 0.801813 0.24709 0.0437236 0.242689 0.969118 
-0.561516 -0.248322 0.205244 0.509939 0.244033 0.82487 
-0.204188 0.659006 0.243717 0.108916 -0.283578 0.952744 
0.561516 0.341528 -0.231073 -0.340644 -0.221122 -0.91382 
0.561516 0.147488 -0.175887 -0.659946 -0.202851 -0.723411 
0.816751 -0.150258 0.246141 0.194262 -0.0426797 0.980021 
-0.561516 -0.0215482 0.154055 0.752778 0.0372824 0.657218 
-0.204188 -0.510681 0.136361 0.347238 0.775747 0.526918 
-0.204188 -0.976479 -0.104961 -0.173782 -0.890263 -0.420989 
0.816751 -0.447875 -0.193418 0.547103 -0.322567 -0.772418 
0.816751 -0.204711 -0.24309 0.239033 -0.07753 -0.967911 
0.816751 0.172263 -0.245239 0.212907 0.0639803 -0.974976 
-0.204188 0.508037 0.132017 0.349246 -0.782381 0.515662 
0.816751 0.302523 0.231734 0.350898 0.15003 0.924317 
-0.204188 -0.799742 -0.247613 -0.0400358 -0.231529 -0.972004 
0.816751 -0.168936 -0.245616 0.206974 -0.0531523 -0.976902 
0.204188 0.516145 0.14407 -0.334797 -0.761186 0.555434 
0.816751 0.0968056 -0.248423 0.160841 0.0293807 -0.986543 
-0.204188 -0.534942 -0.167113 0.303006 0.700409 -0.646232 
-0.561516 -0.799648 0.1418 -0.488861 -0.667117 0.562112 
0.816751 -0.396248 0.211225 0.472626 -0.237982 0.848522 
0.816751 0.360875 0.220444 0.428462 0.21529 0.877536 
0.816751 0.113274 0.247755 0.169426 0.0377464 0.98482 
0.561516 0.529941 0.254881 0.0313273 0.0161497 0.999379 
-0.816751 0.0149672 -0.249742 -0.138255 0.00509226 -0.990384 
0.204188 -0.468138 -0.0102875 -0.435906 0.89899 -0.0424558 
-0.816751 -0.33835 0.226032 -0.395051 -0.189187 0.898968 
-0.816751 -0.532447 -0.145154 -0.672567 -0.447327 -0.589536 
-0.204188 0.84958 -0.230287 -0.0855816 0.415221 -0.905686 
-0.561516 -0.714862 0.210562 -0.360113 -0.454861 0.814506 
-0.204188 0.684705 -0.250027 0.0777143 -0.190353 -0.978635 
-0.204188 -0.76288 -0.253425 -0.0047581 -0.0884789 -0.996067 
-0.816751 -0.283206 0.234829 -0.325257 -0.127709 0.936962 
-0.816751 0.564775 -0.113902 -0.727073 0.530002 -0.436421 
-0.561516 -0.437007 0.249394 0.150574 0.124235 0.980762 
-0.561516 0.50265 -0.254686 0.0232629 -0.0305673 -0.999262 
0.561516 0.823482 -0.106608 0.523108 0.738483 -0.425442 
-0.561516 -0.676238 -0.228309 -0.298623 -0.342811 -0.890677 
-0.561516 0.016225 0.153708 0.754322 -0.0162872 0.656302 
-0.561516 0.645344 0.238331 -0.238892 0.258644 0.935967 
0.204188 -0.596806 -0.216732 -0.199253 0.501577 -0.841854 
-0.561516 0.583578 -0.251071 -0.130881 0.131933 -0.98258 
-0.561516 -0.351626 0.233511 0.31944 0.214453 0.923021 
0.561516 0.643283 0.238726 0.240217 0.252436 0.937322 
0.204188 0.886923 -0.20904 0.114657 0.560984 -0.819848 
0.561516 0.276236 0.21355 -0.461133 -0.246092 0.852523 
-0.204188 0.473772 -0.0532756 0.42194 -0.882507 -0.207722 
0.816751 0.360569 -0.220181 0.43039 0.231122 -0.872552 
0.204188 -0.993847 0.0543929 0.184659 -0.957916 0.219769 
-0.561516 0.843962 0.0584165 -0.549663 0.802312 0.232738 
-0.816751 -0.545776 0.134503 -0.693781 -0.486133 0.531359 
0.204188 0.545282 -0.17721 -0.280338 -0.668316 -0.689032 
-0.816751 0.280057 0.234587 -0.331824 0.1375 0.933267 
-0.561516 -0.443274 -0.25033 0.134269 0.116702 -0.984049 
-0.816751 0.122884 -0.247463 -0.176222 0.0354212 -0.983713 
-0.816751 0.302523 -0.231734 -0.351729 0.149666 -0.92406 
0.204188 -0.472898 -0.0479738 -0.425235 0.886335 -0.183263 
-0.204188 0.468258 -0.0130203 0.433957 -0.899413 -0.0523338 
-0.816751 0.128246 0.247266 -0.182595 0.0319514 0.982669 
-0.204188 0.586922 -0.210413 0.211988 -0.526601 -0.823257 
0.561516 0.428942 0.248103 -0.167463 -0.138203 0.976143 
-0.561516 -0.163974 -0.180478 0.639067 0.193976 -0.744289 
-0.204188 -0.582802 0.207706 0.220821 0.5444 0.809238 
0.204188 -0.967481 0.122901 0.16834 -0.857899 0.485459 
0.561516 0.205497 0.192558 -0.579155 -0.235766 0.780381 
0.204188 -0.639263 -0.237031 -0.138499 0.344754 -0.928419 
-0.816751 0.545694 0.134504 -0.706647 0.46814 0.530561 
0.561516 -0.848995 -0.0360291 0.558646 -0.819022 -0.130832 
-0.561516 0.248058 -0.20528 0.510689 -0.244569 -0.824247 
-0.561516 0.0786384 -0.160682 0.726683 -0.115828 -0.677137 
0.204188 0.591123 0.213122 -0.206133 -0.515343 0.831824 
-0.204188 -0.901502 0.198642 -0.123272 -0.609499 0.783145 
-0.204188 0.925562 0.17726 -0.142478 0.703285 0.696485 
0.816751 -0.439554 0.197298 0.534022 -0.308806 0.787058 
-0.204188 0.960407 0.13387 -0.165592 0.826939 0.537356 
0.561516 -0.556526 -0.254005 0.0834548 -0.0688516 -0.99413 
0.204188 -0.670812 0.246618 -0.0975209 0.234477 0.967218 
0.204188 0.772161 -0.252683 0.0174149 0.129989 -0.991363 
-0.561516 -0.556526 0.254005 -0.0827028 -0.0672834 0.9943 
-0.816751 0.361039 0.220047 -0.439982 0.230464 0.86793 
0.561516 0.375152 -0.238418 -0.275222 -0.191018 -0.942213 
0.561516 -0.43309 -0.248809 -0.158122 0.139163 -0.977564 
-0.816751 -0.0570213 0.249315 -0.145025 -0.0146484 0.98932 
0.561516 -0.170374 -0.181889 -0.630736 0.207209 -0.747821 
-0.561516 -0.131882 -0.173055 0.675625 0.158746 -0.719952 
-0.816751 0.465422 -0.185193 -0.579958 0.360802 -0.730391 
0.561516 0.804778 0.134731 0.496342 0.688145 0.529247 
0.204188 -0.987158 -0.0781232 0.180535 -0.931766 -0.31499 
-0.816751 -0.393154 -0.212219 -0.469075 -0.247691 -0.847714 
0.561516 -0.313944 0.224238 -0.390456 0.234641 0.890218 
0.816751 -0.277078 0.235806 0.317012 -0.112202 0.941761 
0.561516 0.167428 0.181257 -0.634183 -0.208826 0.744448 
0.561516 0.307823 0.222363 -0.403391 -0.237165 0.883758 
0.816751 -0.309327 -0.230662 0.357099 -0.145497 -0.922665 
-0.204188 -0.838871 0.234803 -0.0744214 -0.374984 0.924039 
0.561516 -0.623148 -0.244244 0.205654 -0.214969 -0.954722 
0.816751 -0.327278 0.227646 0.379144 -0.17683 0.908285 
0.561516 0.577104 0.251774 0.120596 0.114395 0.986088 
0.561516 -0.714584 0.210727 0.361028 -0.453508 0.814855 
-0.204188 -0.468015 -0.00356714 0.436845 0.899228 -0.0235607 
0.561516 -0.137854 -0.173467 -0.670293 0.182851 -0.719217 
0.561516 0.433904 -0.248748 -0.158615 -0.133951 -0.978212 
0.816751 0.0652215 0.249213 0.147259 0.0165347 0.98896 
0.204188 0.492912 -0.105434 -0.380305 -0.828185 -0.411676 
0.816751 -0.129695 -0.247216 0.178191 -0.0377848 -0.98327 
0.561516 0.0259845 -0.154355 -0.751059 -0.0489242 -0.65842 
-0.561516 0.790159 0.151667 -0.472721 0.646295 0.599031 
0.204188 -0.995741 -0.0452046 0.185781 -0.966504 -0.177075 
-0.204188 0.738399 0.254768 0.0166929 -0.00205503 0.999859 
0.561516 -0.830144 0.0950538 0.533035 -0.760512 0.370802 
0.816751 0.393605 0.211586 0.474914 0.236152 0.847755 
-0.204188 -0.87048 -0.219431 -0.0997788 -0.486879 -0.867752 
-0.204188 -0.768398 0.252901 -0.010502 -0.111082 0.993756 
-0.561516 0.210094 -0.193915 0.572438 -0.236929 -0.784971 
0.816751 0.214783 0.242151 0.250567 0.0824355 0.964583 
0.816751 0.283291 -0.234111 0.330457 0.139524 -0.933451 
0.204188 -0.998986 0.0201033 0.187701 -0.979394 0.0745353 
-0.816751 0.359086 -0.220898 -0.42661 0.211194 -0.879432 
-0.816751 0.188403 -0.244206 -0.226235 0.0655799 -0.971863 
-0.816751 0.155725 -0.246059 -0.198977 0.0477149 -0.978842 
0.204188 -0.469035 0.0235361 -0.43404 0.896037 0.0934152 
0.204188 0.960734 0.133566 0.164975 0.83421 0.526191 
-0.204188 -0.999035 0.0208948 -0.18771 -0.978636 0.0838815 
-0.204188 0.488553 0.0969044 0.389277 -0.841839 0.37386 
-0.561516 0.167036 0.181032 0.636545 -0.209544 0.742228 
-0.816751 -0.602342 0.0497932 -0.776666 -0.596288 0.203052 
-0.816751 0.436521 0.198426 -0.548718 0.293601 0.782756 
-0.204188 -0.630983 -0.233734 0.150866 0.37916 -0.91295 
-0.561516 -0.590396 0.25033 -0.145815 -0.145629 0.978535 
0.816751 -0.579561 0.0950538 0.741292 -0.55717 0.374229 
0.561516 0.0212098 0.154038 -0.753507 -0.017258 0.657213 
-0.816751 -0.569011 0.108995 -0.727598 -0.540765 0.422107 
-0.561516 -0.074349 -0.160548 0.729204 0.131267 -0.671588 
0.561516 0.393328 0.242296 -0.23808 -0.178823 0.954641 
-0.816751 0.605352 -0.0373582 -0.787009 0.597988 -0.151745 
-0.561516 -0.402536 0.244244 0.219049 0.169537 0.960872 
0.204188 -0.811747 -0.244189 0.0510325 -0.27194 -0.96096 
0.816751 0.0482247 -0.249422 0.14184 0.0175062 -0.989735 
-0.561516 0.610352 0.246252 -0.176422 0.181389 0.967457 
-0.204188 -0.568661 -0.197318 0.244863 0.587691 -0.771143 
0.204188 -0.48173 -0.0794116 -0.406043 0.859439 -0.310633 
-0.204188 -0.86884 0.220642 -0.0986896 -0.485855 0.86845 
0.561516 -0.267153 -0.211224 -0.477377 0.229468 -0.848208 
0.561516 0.357599 0.234774 -0.308329 -0.212844 0.927163 
0.204188 -0.711228 -0.253688 -0.0496459 0.0962799 -0.994115 
-0.561516 -0.205002 -0.192627 0.579674 0.238906 -0.779039 
0.816751 0.178457 0.244979 0.216432 0.059538 0.974481 
0.561516 0.8509 -0.0235489 0.560915 0.823401 -0.0859379 
-0.204188 0.772161 0.252683 -0.0173497 0.129814 0.991387 
0.561516 -0.279646 0.214795 -0.453718 0.245663 0.856615 
-0.816751 -0.158617 -0.245757 -0.201962 -0.0402706 -0.978565 
-0.561516 -0.76715 0.174292 -0.441044 -0.582254 0.682979 
-0.204188 -0.992604 0.058963 -0.183761 -0.954435 0.235131 
-0.561516 -0.00133799 -0.154437 0.754052 -0.00505628 -0.656795 
-0.204188 0.553388 0.185064 0.26573 -0.646046 0.71555 
-0.561516 0.462241 -0.252101 0.102305 -0.0934315 -0.990356 
0.816751 -0.598515 -0.0589053 0.769291 -0.593237 -0.237196 
-0.204188 -0.727137 -0.254488 0.0325356 0.0323031 -0.998948 
0.561516 -0.0128961 0.154642 -0.752285 0.0252262 0.658354 
0.561516 -0.375234 -0.238418 -0.273731 0.191264 -0.942597 
-0.816751 -0.2478 0.23934 -0.284085 -0.102866 0.953265 
0.561516 0.78254 -0.15935 0.463952 0.62613 -0.626665 
-0.561516 -0.474144 0.253211 0.0769184 0.0746247 0.994241 
0.561516 -0.217817 -0.196393 -0.560166 0.251023 -0.789431 
-0.816751 -0.0924277 -0.248196 -0.160546 -0.0202055 -0.986822 
0.204188 -0.973834 -0.110374 0.172271 -0.885432 -0.431663 
-0.561516 0.310636 -0.223139 0.398444 -0.237232 -0.885981 
-0.204188 0.851714 0.229411 -0.0876602 0.418441 0.904004 
0.204188 0.863964 0.223053 0.0962697 0.46856 0.87817 
-0.561516 0.8509 0.023549 -0.559291 0.824525 0.0857428 
0.816751 0.473158 0.181106 0.590603 0.381521 0.711076 
0.561516 -0.804986 -0.13464 0.497463 -0.689249 -0.52675 
-0.204188 -0.601627 -0.219323 0.193159 0.486788 -0.851896 
0.204188 0.947302 -0.152552 0.156727 0.77972 -0.606196 
-0.204188 0.696846 0.251764 0.0626198 -0.138887 0.988326 
0.561516 0.102188 0.164922 -0.707733 -0.148195 0.690762 
0.204188 0.620166 -0.228591 -0.161724 -0.417822 -0.894019 
0.561516 -0.781095 -0.161919 0.462781 -0.624084 -0.629565 
0.561516 0.844581 0.0564482 0.552267 0.805064 0.216504 
-0.816751 0.538696 -0.140514 -0.689142 0.461977 -0.558266 
0.816751 -0.508291 -0.161919 0.636217 -0.406403 -0.655793 
-0.816751 0.0160476 0.249819 -0.138139 0.0061831 0.990394 
-0.561516 0.131199 0.1716 0.679723 -0.172078 0.712997 
0.561516 0.561475 -0.253504 0.0899275 0.08179 -0.992584 
-0.816751 0.318865 0.228883 -0.381513 0.149145 0.912252 
0.204188 -0.591553 0.213103 -0.207278 0.520367 0.828404 
-0.204188 -0.693784 -0.251356 0.0703801 0.154105 -0.985545 
0.204188 0.741348 0.254711 -0.0153049 0.0215606 0.99965 
-0.561516 0.356812 0.234412 0.314622 -0.205463 0.926713 
-0.204188 -0.489724 -0.0990371 0.390328 0.836112 -0.385435 
-0.204188 0.813306 -0.243705 -0.0549391 0.27786 -0.959049 
0.561516 -0.734598 -0.198791 0.39208 -0.496816 -0.77424 
0.204188 -0.949422 0.149981 0.15653 -0.784601 0.599916 
0.204188 -0.492994 0.105434 -0.382542 0.829372 0.407191 
0.816751 0.481194 -0.176483 0.603194 0.379987 -0.701261 
0.204188 0.979627 0.0980212 0.176926 0.901882 0.394088 
0.561516 -0.742228 0.193561 0.404399 -0.522118 0.750902 
-0.204188 0.90039 0.199596 -0.124779 0.609664 0.782777 
0.561516 -0.105513 -0.165448 -0.704577 0.156304 -0.6922 
-0.204188 -0.937197 -0.165408 -0.148268 -0.747686 -0.647289 
0.561516 -0.361052 0.235806 -0.299844 0.210389 0.9305 
0.816751 0.508382 0.161155 0.642806 0.39441 0.656689 
0.561516 0.111652 -0.166456 -0.700404 -0.155838 -0.696527 
0.561516 -0.593671 0.249721 0.153544 -0.152759 0.976263 
-0.204188 0.468494 0.0203453 0.433512 -0.897696 0.0787992 
-0.204188 0.499801 -0.119167 0.366784 -0.811998 -0.454014 
-0.204188 -0.839074 -0.234611 -0.074394 -0.382203 -0.921079 
