ply
format ascii 1.0
element vertex 498
property float x
property float y
property float z
property float nx
property float ny
property float nz
end_header
0.76264 -0.0633837 0.344644 -0.746399 -0.639658 -0.183646 
0.193611 -0.418401 -0.570888 -0.202009 0.759287 0.618607 
0.666441 -0.674568 0.614904 -0.421822 0.627394 -0.654555 
-0.364309 0.690313 -0.0111298 0.976922 -0.193613 -0.0902118 
0.514075 0.216212 -0.420796 -0.862627 -0.268648 0.428605 
0.522644 -0.758745 0.111938 -0.188357 0.887897 0.419716 
0.347873 0.563412 0.324381 -0.647954 0.057654 -0.759494 
0.65031 -0.760222 0.516915 -0.399142 0.805589 -0.437849 
0.414446 0.938973 -0.021483 -0.86988 -0.468574 0.154101 
0.203983 1.09759 0.15885 -0.297841 -0.901223 -0.314784 
-0.0460029 0.498241 0.407583 0.247845 0.122664 -0.961003 
-0.671127 0.1539 0.0627905 0.345403 -0.817684 -0.460531 
0.874364 -0.474038 0.504465 -0.909411 0.165531 -0.381538 
-0.785317 -0.0271119 -0.407732 0.504828 -0.458307 0.731507 
0.299366 -0.600514 0.656304 0.511482 0.410055 -0.755143 
-0.956294 -0.43608 0.191083 0.659189 0.39994 -0.636803 
0.336933 -0.630459 -0.190635 -0.164661 0.857037 0.488236 
0.562332 -0.80803 0.262096 -0.190314 0.947153 0.258228 
-0.305241 0.0662001 -0.630154 0.420954 -0.29075 0.859222 
0.667981 -0.582024 0.680113 -0.413583 0.395035 -0.820303 
-0.0997102 0.714544 -0.400161 0.380473 -0.448998 0.808481 
-0.348106 0.488602 0.135033 0.868389 -0.13675 -0.476655 
-0.445264 -0.381725 0.292205 -0.109268 0.390238 -0.914207 
0.482644 -0.0219216 0.517242 -0.105624 -0.756989 -0.644835 
-0.41178 0.0351692 -0.588286 0.42315 -0.306702 0.852572 
-0.177787 0.522105 0.34474 0.612925 0.0692703 -0.787099 
-0.826948 -0.462706 0.256524 0.279744 0.480096 -0.831415 
0.485334 0.550752 -0.244511 -0.890528 -0.279449 0.358983 
0.482416 -0.141188 -0.578477 -0.779241 0.115623 0.615966 
-0.72039 -0.641467 -0.229748 0.121497 0.928578 0.350686 
-0.397271 -0.585281 -0.361339 -0.0247312 0.875799 0.482042 
-0.828043 0.0284058 0.147871 0.403758 -0.715782 -0.569768 
0.293089 -0.78416 0.222505 0.263947 0.954648 0.137762 
-0.860579 0.00498684 0.152514 0.44437 -0.685606 -0.57661 
0.38306 0.128355 -0.65053 -0.634051 -0.271724 0.723979 
-0.265067 0.811375 0.25067 0.839182 -0.163271 -0.518764 
0.335716 0.210015 0.366746 -0.307112 -0.411539 -0.85809 
0.413662 0.821683 -0.180721 -0.819069 -0.381447 0.428514 
0.501414 0.0665696 -0.522982 -0.845839 -0.198688 0.495055 
0.108092 0.888686 -0.349601 -0.0136114 -0.543806 0.839101 
0.177016 -0.478571 -0.494569 -0.159244 0.816883 0.554385 
-0.638271 -0.549855 -0.394946 0.113507 0.75065 0.650877 
-0.089933 0.492081 -0.523733 0.322161 -0.444128 0.83604 
-0.435475 -0.594192 -0.346879 -0.0226821 0.880564 0.473384 
0.412435 -0.698202 -0.044492 -0.145531 0.872183 0.46703 
-0.617046 -0.630574 -0.275264 0.0346082 0.906247 0.42133 
-0.685177 0.115326 0.119779 0.289503 -0.79791 -0.528704 
0.0282216 0.497047 0.418663 0.0538636 0.13674 -0.989141 
0.34295 -0.789287 0.192947 0.154647 0.961969 0.225169 
-0.244217 0.549533 0.282486 0.762184 0.0315117 -0.646594 
0.112697 -0.404331 -0.608047 -0.116873 0.751348 0.649474 
0.298543 0.323334 0.348115 -0.405531 -0.110447 -0.907384 
0.851782 -0.259777 0.194286 -0.944445 -0.231737 0.233068 
0.126405 0.990749 0.35699 -0.130592 -0.629944 -0.765583 
-0.0231572 1.13079 0.0713952 0.233196 -0.965923 -0.112307 
-0.0928183 1.02884 -0.173109 0.42799 -0.694274 0.578626 
0.165308 0.905774 0.398905 -0.254543 -0.370647 -0.893213 
0.340884 -0.0736988 0.566734 0.112682 -0.627985 -0.770025 
0.307059 -0.092532 0.575166 0.172992 -0.582875 -0.793934 
0.128078 -0.657099 0.377673 0.700829 0.609819 -0.37008 
0.810828 -0.124758 0.286691 -0.872081 -0.48931 0.0071071 
0.436107 0.87402 -0.0636166 -0.89565 -0.382266 0.227343 
0.657516 -0.0747489 -0.246565 -0.913747 -0.140719 0.381136 
-0.236803 -0.54665 -0.421491 -0.0143231 0.855149 0.518184 
-0.868412 -0.629357 -0.151121 0.364786 0.908426 0.204191 
-1.002 -0.168025 -0.299757 0.737759 -0.303806 0.602837 
-0.799107 -0.640553 -0.190613 0.225423 0.931249 0.286287 
0.472047 -0.614018 0.703812 0.0331991 0.456121 -0.889298 
-0.105894 0.118962 -0.698918 0.309022 -0.302699 0.901598 
-0.376289 0.0454936 -0.602213 0.423418 -0.300233 0.854738 
0.252954 -0.553496 -0.352111 -0.174994 0.843539 0.50776 
0.668999 -0.620086 0.657717 -0.420731 0.505323 -0.753415 
-0.00841481 -0.16264 -0.753763 0.148718 0.149984 0.977439 
-0.103059 0.841298 -0.324116 0.423239 -0.483803 0.766031 
0.843967 -0.213171 0.222771 -0.931474 -0.323249 0.16693 
-0.763682 0.159033 -0.199424 0.549596 -0.812284 0.195291 
-0.958549 -0.584655 -0.0851461 0.642526 0.766201 0.00978767 
-0.0838549 0.359383 -0.596817 0.300393 -0.448552 0.841763 
0.503229 -0.069228 -0.553825 -0.832373 -0.04049 0.552734 
-0.252077 0.806519 -0.228695 0.683879 -0.449185 0.574928 
0.266036 -0.591531 0.635601 0.60092 0.387374 -0.699169 
0.452451 0.801418 -0.106938 -0.900022 -0.333434 0.280681 
-0.787838 -0.465073 0.266032 0.190034 0.487499 -0.852192 
-1.0229 -0.499713 -0.0123431 0.831281 0.528168 -0.173232 
0.619686 -0.00850537 0.45032 -0.354584 -0.775743 -0.522009 
-0.899751 -0.0265485 0.156481 0.504866 -0.636614 -0.582952 
0.582904 -0.000876692 -0.390124 -0.896592 -0.161396 0.412401 
-0.0509378 1.12371 -0.0037259 0.312768 -0.944633 0.0992172 
0.0841029 0.50046 0.418436 -0.0798599 0.142185 -0.986613 
0.0925155 -0.377008 -0.640962 -0.0936806 0.710342 0.697595 
0.178755 0.513715 0.403218 -0.268553 0.146371 -0.952079 
0.792553 -0.219283 0.0328537 -0.925124 -0.162664 0.343053 
-1.01955 -0.173164 0.1443 0.798979 -0.269283 -0.537698 
0.12321 -0.448244 -0.550751 -0.119707 0.798856 0.58949 
0.296691 0.870523 -0.291414 -0.557198 -0.486799 0.672724 
-0.523332 0.21698 0.0895014 0.494204 -0.682051 -0.539044 
0.120836 -0.313658 0.560439 0.653874 0.0163291 -0.756428 
-0.963548 -0.147257 -0.332167 0.673238 -0.334971 0.659201 
0.607565 -0.813314 0.373196 -0.28657 0.958056 -0.00246827 
0.109402 -0.350275 0.547536 0.684178 0.0861265 -0.724212 
0.379861 0.84017 -0.221391 -0.750464 -0.416399 0.513239 
-0.103197 0.875054 -0.301953 0.430209 -0.507672 0.746451 
-0.208379 0.915305 0.273183 0.680314 -0.451512 -0.57733 
-0.777718 0.0611243 0.138994 0.352402 -0.75186 -0.557242 
-0.0915395 0.526684 -0.504728 0.329819 -0.442826 0.833742 
0.637686 -0.394557 0.728764 -0.32926 -0.0246725 -0.943917 
0.309527 1.06432 0.0908464 -0.575229 -0.803376 -0.153943 
0.813711 -0.474616 0.102932 -0.842589 0.268001 0.467139 
-0.0794292 -0.448132 0.330108 0.547282 0.481771 -0.684382 
-0.24977 0.84727 0.260553 0.802832 -0.248349 -0.542019 
-0.786497 0.0179429 -0.375772 0.523297 -0.518884 0.675958 
0.466946 -0.176405 -0.587943 -0.733214 0.213005 0.645775 
-0.55279 -0.00533118 0.278252 0.205321 -0.481643 -0.851976 
0.444411 0.840404 -0.08399 -0.899206 -0.355463 0.255099 
-0.0966868 1.00071 -0.201674 0.431529 -0.649316 0.626236 
-0.655481 0.139941 0.096854 0.314864 -0.804848 -0.50307 
-0.306285 0.591456 0.191964 0.866692 -0.029156 -0.49799 
0.0332845 1.10543 0.197501 0.0967684 -0.911406 -0.399968 
0.512941 -0.779516 0.155963 -0.137427 0.919021 0.369479 
-0.277508 0.774852 0.239084 0.861706 -0.0985044 -0.497755 
0.511891 0.25131 -0.402712 -0.862927 -0.277021 0.42263 
0.316902 0.145251 -0.689929 -0.44195 -0.309211 0.842062 
-0.087797 0.445857 -0.549137 0.313193 -0.446904 0.837966 
0.437967 -0.224955 -0.597231 -0.645926 0.355165 0.67575 
-0.110479 -0.516112 -0.46878 -0.0026928 0.844286 0.535886 
0.749175 -0.17178 -0.0588482 -0.918651 -0.152285 0.364541 
-0.053932 0.0352396 -0.737142 0.245844 -0.189182 0.950669 
0.270862 0.535091 0.371582 -0.453399 0.136071 -0.88086 
-0.468943 -0.627609 0.0311351 -0.133996 0.939105 -0.316429 
0.517668 0.11022 -0.473939 -0.862345 -0.225677 0.453245 
-0.0743695 -0.507341 -0.482278 -0.00554643 0.841425 0.540345 
0.0936513 -0.46363 0.496996 0.739457 0.253749 -0.62355 
0.23536 -0.145058 0.58648 0.329614 -0.445661 -0.83231 
-0.37186 0.4249 0.115831 0.844744 -0.217844 -0.488827 
-0.388041 0.389063 0.106413 0.821371 -0.276799 -0.49873 
0.253247 -0.386688 -0.584829 -0.285032 0.709234 0.644782 
0.322048 0.246577 0.356489 -0.345112 -0.318267 -0.882952 
-0.727973 -0.46554 0.274883 0.0773673 0.492368 -0.866942 
0.793437 -0.0974313 0.310301 -0.832882 -0.549766 -0.0637496 
0.476179 0.764157 -0.0591631 -0.950191 -0.27433 0.147917 
-0.070975 0.16524 -0.693647 0.278532 -0.345412 0.896164 
0.584794 -0.602955 0.698876 -0.195788 0.444115 -0.874316 
0.726418 -0.0379851 0.377404 -0.641473 -0.707009 -0.297742 
0.7033 -0.122994 -0.153203 -0.916679 -0.142705 0.373276 
-0.988783 -0.122048 0.153952 0.703755 -0.422638 -0.571057 
-0.524023 -0.659376 -0.152242 -0.0898547 0.992998 0.0766939 
-1.09555 -0.300753 -0.0722438 0.996222 0.0788137 -0.036468 
0.0338321 -0.478375 -0.521424 -0.0533131 0.824976 0.562647 
-0.323033 0.607038 0.15906 0.896086 -0.0545149 -0.440519 
-0.32591 0.567341 0.162289 0.873525 -0.0936319 -0.477689 
0.18483 0.849906 0.411118 -0.308421 -0.228488 -0.923401 
0.439658 0.00789139 0.495341 -0.111989 -0.681133 -0.723544 
0.515138 0.020925 -0.51598 -0.856455 -0.159851 0.490849 
0.138668 0.507093 0.411669 -0.1902 0.1458 -0.970859 
-0.489676 -0.164981 0.334534 0.0481326 -0.054761 -0.997339 
-0.783175 -0.06436 -0.430789 0.490999 -0.410179 0.768553 
-0.0101745 -0.490892 -0.505859 -0.0265109 0.833692 0.551593 
0.422856 0.0352428 0.471006 -0.117873 -0.6908 -0.713373 
-0.182683 -0.533514 -0.441723 -0.0083115 0.849656 0.527271 
0.113779 0.152015 -0.729315 0.0154965 -0.329539 0.944015 
0.663572 -0.536003 0.700031 -0.396755 0.268302 -0.877838 
0.225468 0.694165 0.410234 -0.386186 0.0263924 -0.922043 
0.515849 0.181005 -0.438732 -0.862665 -0.257681 0.435211 
0.42959 0.616197 0.22916 -0.843916 -0.0393503 -0.53503 
-0.471559 -0.602345 -0.333096 -0.0170439 0.884953 0.465368 
-0.51893 -0.0800979 0.316988 0.133425 -0.289476 -0.94784 
0.445874 -0.727058 0.0209996 -0.135709 0.883687 0.447973 
0.0688372 1.09504 0.224042 0.00255336 -0.899018 -0.437903 
-0.741016 0.179301 -0.118319 0.503657 -0.861808 -0.060142 
0.47524 0.084143 -0.558261 -0.816472 -0.211847 0.537116 
-0.00420597 0.877941 -0.341438 0.220972 -0.526056 0.821241 
0.437431 0.805088 -0.144978 -0.867323 -0.351898 0.352022 
0.234976 -0.580931 0.612285 0.665153 0.367686 -0.649907 
-0.0201637 -0.12155 -0.756134 0.177504 0.0591626 0.98234 
0.706861 -0.630814 0.079209 -0.629044 0.58089 0.516595 
-0.451349 0.287839 0.088467 0.678932 -0.505942 -0.532047 
0.400007 0.96945 0.000385937 -0.841082 -0.530658 0.104797 
0.484413 0.694036 0.0810376 -0.965276 -0.140465 -0.220252 
-0.726551 0.0915628 0.128596 0.34209 -0.762861 -0.548651 
-0.742768 -0.303292 -0.502065 0.386812 0.0814499 0.918554 
0.596488 -0.722177 0.0911577 -0.381413 0.787297 0.484446 
0.431883 -0.614764 0.699789 0.129762 0.455137 -0.880915 
0.653979 -0.0127152 0.429634 -0.434248 -0.76927 -0.46867 
-0.491282 -0.651066 -0.0515362 -0.126079 0.979507 -0.157068 
0.140212 -0.267692 0.57393 0.597009 -0.0954914 -0.796531 
0.0414476 -0.490204 0.422345 0.707864 0.395545 -0.585212 
0.53237 -0.609647 0.703968 -0.09131 0.452373 -0.887142 
-0.0376383 1.12946 0.0338122 0.272772 -0.962 -0.0123263 
0.786917 -0.524851 0.0912211 -0.785432 0.374356 0.492905 
0.274592 0.431204 0.359357 -0.428605 0.0952452 -0.898458 
-0.215187 0.822362 -0.255832 0.607363 -0.467662 0.642186 
0.272322 -0.115451 0.581965 0.245208 -0.523824 -0.815771 
0.549762 -0.164031 0.659696 -0.0939289 -0.63734 -0.764837 
0.00829322 1.12163 0.144976 0.1542 -0.945005 -0.288424 
-1.04872 -0.426241 0.035961 0.892401 0.366317 -0.2635 
-0.849758 -0.09902 -0.404185 0.538188 -0.381134 0.751725 
-0.347166 -0.42904 0.259784 -0.0794419 0.516617 -0.852524 
-1.07165 -0.22291 -0.209817 0.921152 -0.157385 0.355963 
0.499203 -0.0827676 0.585766 -0.0591328 -0.716161 -0.695426 
-0.093795 0.575653 -0.477782 0.34177 -0.441735 0.829496 
0.902438 -0.391538 0.359031 -0.997165 -0.05895 0.0467667 
-1.05069 -0.264342 0.115405 0.894706 -0.00922111 -0.44656 
-0.760541 -0.226596 -0.493003 0.430131 -0.0992858 0.89729 
0.233602 0.654997 0.404723 -0.395851 0.0706204 -0.915595 
-0.708323 0.177335 -0.0258158 0.427658 -0.854137 -0.295903 
-0.361406 0.667605 0.0343009 0.969328 -0.142239 -0.200429 
-0.782804 0.0917774 -0.307211 0.552561 -0.653928 0.516773 
0.147679 -0.541648 0.529577 0.752992 0.343427 -0.561302 
-0.251739 0.0815683 -0.650793 0.408284 -0.288661 0.866013 
-0.54122 -0.654517 -0.1979 -0.0637324 0.979744 0.189843 
-0.815703 -0.0869362 -0.42148 0.508252 -0.389455 0.768118 
0.476527 0.633989 -0.199832 -0.898668 -0.283628 0.33459 
0.47725 0.675793 0.116419 -0.947062 -0.114976 -0.299755 
0.357998 0.157983 0.38851 -0.250392 -0.521238 -0.815852 
-0.60635 -0.595553 -0.338982 0.0598642 0.836563 0.54459 
0.5087 0.295049 -0.37994 -0.864112 -0.284526 0.415156 
-0.123007 1.0002 0.272369 0.457307 -0.683107 -0.569417 
0.505112 0.338699 -0.357017 -0.866403 -0.289295 0.407006 
0.267608 0.469241 0.367025 -0.416052 0.0872406 -0.905146 
-0.900939 -0.618665 -0.129947 0.455222 0.878169 0.146943 
0.869365 -0.315796 0.217649 -0.955655 -0.163096 0.245201 
-0.933017 -0.132811 -0.354212 0.630645 -0.35181 0.691749 
0.205806 -0.569143 0.587063 0.709793 0.352752 -0.609721 
-0.359513 -0.576311 -0.375548 -0.0238536 0.870982 0.490736 
-0.33762 0.623191 0.125278 0.920037 -0.0619168 -0.386909 
0.069689 -0.467084 -0.533574 -0.0783177 0.816062 0.572634 
-0.509357 -0.610483 -0.318463 -0.00716198 0.889361 0.45715 
0.841738 -0.398637 0.127383 -0.90852 0.0939505 0.407141 
-1.05365 -0.204435 -0.240816 0.864217 -0.216176 0.45431 
0.0179804 0.141821 -0.723692 0.159164 -0.320738 0.933699 
-0.295786 -0.425693 0.260602 0.0306698 0.536137 -0.843574 
-0.101641 0.773302 -0.365866 0.399248 -0.461164 0.792419 
0.520422 -0.115401 0.617778 -0.0576801 -0.708446 -0.703404 
-0.102717 0.90792 -0.278828 0.431734 -0.540061 0.722454 
-0.677599 -0.0428117 -0.48281 0.449925 -0.368068 0.813691 
0.566392 -0.008604 0.479012 -0.243241 -0.772068 -0.58715 
-0.884943 -0.11245 -0.384599 0.574722 -0.370283 0.729785 
0.830261 -0.434776 0.114755 -0.880682 0.178123 0.438944 
-1.09096 -0.319839 -0.0371202 0.985959 0.124822 -0.110924 
-0.097244 0.653293 -0.434755 0.362628 -0.442448 0.820208 
-0.763324 -0.642199 -0.209001 0.172455 0.932337 0.317815 
-0.639645 0.123958 0.129864 0.29592 -0.775146 -0.558193 
-1.03922 -0.390409 0.0974113 0.871173 0.2889 -0.396982 
-0.213255 0.535118 0.31474 0.696365 0.0501743 -0.715932 
-0.482879 0.0145267 -0.560464 0.424714 -0.321493 0.846322 
0.151538 -0.697641 0.343907 0.644164 0.714304 -0.273537 
-0.722138 0.181095 -0.0626078 0.460005 -0.862827 -0.209585 
-1.09641 -0.281305 -0.107527 0.998422 0.0263437 0.0496014 
0.216345 0.521401 0.392368 -0.324728 0.151265 -0.933633 
-0.11388 -0.439883 0.310583 0.480886 0.50407 -0.717399 
0.453228 0.640143 0.184383 -0.893926 -0.0701741 -0.442687 
-0.450244 -0.345099 0.306622 -0.0883621 0.319643 -0.943409 
0.390557 -0.61337 0.69174 0.241394 0.449313 -0.860143 
0.238933 -0.768033 0.260112 0.399991 0.916418 0.0136476 
0.53791 -0.795615 0.208495 -0.158329 0.93055 0.330164 
0.466715 0.657764 0.15098 -0.922429 -0.0909862 -0.375295 
0.421934 0.112938 -0.617457 -0.725499 -0.245555 0.642926 
0.0761482 1.06419 0.278614 0.0105308 -0.833851 -0.551889 
0.269783 -0.569201 -0.319937 -0.175313 0.847372 0.501225 
-0.272951 -0.555437 -0.40798 -0.0177231 0.859573 0.510705 
0.671501 -0.665413 0.0802626 -0.554066 0.654825 0.514018 
-0.589073 0.171049 0.0995504 0.394006 -0.74714 -0.535295 
0.00364274 -0.199694 -0.747919 0.116484 0.24426 0.962688 
-0.230927 0.882208 0.268226 0.748559 -0.349605 -0.563415 
-0.187557 -0.428268 0.279732 0.301709 0.538356 -0.786857 
0.470869 -0.747771 0.070521 -0.126737 0.89439 0.428958 
-0.359226 0.716354 -0.0622364 0.963535 -0.260746 0.0601068 
-0.712671 -0.398804 -0.490439 0.29559 0.368983 0.88118 
0.578138 -0.813301 0.298638 -0.218201 0.95748 0.188736 
0.320165 -0.615248 -0.222982 -0.168905 0.855253 0.489911 
-0.447317 -0.576076 0.133784 -0.1404 0.837106 -0.528717 
-0.622272 -0.573892 -0.367787 0.0864719 0.795204 0.600144 
-0.0782347 0.254691 -0.652388 0.288783 -0.412739 0.863858 
0.720529 -0.141265 -0.117858 -0.916993 -0.146043 0.371209 
0.210789 -0.512916 -0.431889 -0.169852 0.831624 0.528727 
0.012481 -0.478262 0.396881 0.674422 0.416502 -0.609656 
-0.946889 -0.0713541 0.157933 0.59596 -0.550769 -0.584367 
-0.545617 -0.617818 -0.304194 0.00296893 0.893102 0.449844 
-1.05511 -0.391694 0.0558541 0.907792 0.290676 -0.30236 
-0.149984 -0.433151 0.293582 0.400249 0.523588 -0.752101 
-0.533449 -0.0457457 0.302174 0.167708 -0.381254 -0.909131 
-0.587152 -0.456436 0.277243 -0.0964562 0.489757 -0.866507 
0.150853 0.941 0.385762 -0.209611 -0.474523 -0.854922 
-0.308972 0.774023 -0.170851 0.820341 -0.397741 0.410905 
-0.53617 -0.000975965 -0.539552 0.427938 -0.333761 0.839924 
-0.647481 -0.461742 0.278774 -0.0330648 0.49271 -0.869565 
-0.171359 0.838019 -0.281775 0.529511 -0.481182 0.698629 
0.395652 -0.683381 -0.0771402 -0.149742 0.867523 0.474322 
0.0321669 1.08548 0.237435 0.122776 -0.868198 -0.48079 
0.623292 -0.804636 0.418832 -0.330116 0.932973 -0.143472 
-0.133966 0.849506 -0.300198 0.475303 -0.487702 0.73228 
-0.677362 -0.480293 -0.45281 0.197445 0.596196 0.778181 
-0.752291 -0.26488 -0.499315 0.410877 -0.014356 0.911578 
0.596379 -0.261364 0.712913 -0.210413 -0.381627 -0.900048 
0.066682 0.147912 -0.728191 0.0894919 -0.325839 0.94118 
-0.684354 -0.639003 -0.246266 0.0854891 0.922364 0.376743 
0.490679 0.495148 -0.274089 -0.883487 -0.282047 0.374032 
0.703594 -0.574286 0.662917 -0.517822 0.376674 -0.7681 
0.241144 0.615986 0.397822 -0.398873 0.0890696 -0.91267 
-0.0259039 -0.464334 0.366561 0.626699 0.444636 -0.639958 
-0.505139 -0.65783 -0.0967034 -0.114856 0.991554 -0.060245 
0.0851853 -0.510431 0.464768 0.739604 0.379131 -0.556099 
-0.296607 0.701002 0.212674 0.881042 -0.0330253 -0.471883 
-0.100899 0.95086 -0.245589 0.432483 -0.585904 0.685329 
0.739332 -0.593064 0.0813578 -0.693789 0.505871 0.512593 
0.763223 -0.549599 0.626245 -0.653129 0.328184 -0.682435 
0.17806 -0.556539 0.560563 0.738765 0.343668 -0.579757 
0.616884 -0.0334928 -0.326601 -0.906348 -0.149301 0.395274 
-0.0854337 0.393969 -0.577753 0.304948 -0.449656 0.839534 
-0.478737 -0.6402 -0.00691902 -0.131371 0.960987 -0.243404 
-0.785279 0.0645028 -0.335731 0.542624 -0.600622 0.587207 
-0.0903941 1.02347 0.26762 0.391964 -0.732415 -0.556715 
0.593282 -0.815258 0.335706 -0.250378 0.962714 0.102431 
0.517092 0.145654 -0.45648 -0.862716 -0.243352 0.443283 
-0.441438 -0.417527 0.275114 -0.120125 0.429083 -0.895242 
0.823465 -0.516343 0.574164 -0.77384 0.269412 -0.573226 
0.501856 0.375286 -0.337683 -0.869263 -0.29087 0.399721 
-1.08297 -0.338473 -0.00235529 0.969074 0.167875 -0.180868 
-0.215856 0.0915308 -0.664016 0.391818 -0.290074 0.873118 
0.646464 -0.433802 0.724838 -0.351225 0.0573796 -0.934531 
-0.931224 -0.603799 -0.107857 0.551328 0.830415 0.0803092 
-0.00776025 1.12809 0.108607 0.193982 -0.959728 -0.203208 
0.299828 -0.356924 -0.593299 -0.352533 0.66026 0.663156 
0.660061 -0.721639 0.567349 -0.415988 0.716473 -0.560018 
-1.00081 -0.537981 -0.0417482 0.774274 0.62315 -0.110383 
0.205636 -0.750285 0.287315 0.497086 0.863399 -0.0862974 
0.560137 0.0196508 -0.430287 -0.886857 -0.171273 0.429128 
-0.0800242 1.08129 -0.105714 0.402315 -0.813685 0.419595 
0.35265 0.852106 -0.248278 -0.694322 -0.440677 0.568964 
-1.05849 -0.338073 0.0835034 0.916042 0.166872 -0.364719 
-0.661943 -0.509813 -0.431623 0.160456 0.667794 0.726846 
0.488539 0.718423 0.0330981 -0.978136 -0.179638 -0.104785 
0.184548 0.154983 -0.725222 -0.103536 -0.331508 0.937754 
-0.0434314 0.871378 -0.333006 0.304888 -0.514724 0.801313 
0.853601 -0.329797 0.156837 -0.943664 -0.0959896 0.316678 
0.642109 -0.779933 0.482989 -0.379726 0.8606 -0.339375 
0.654006 -0.472794 0.717947 -0.369471 0.131308 -0.919918 
-0.440319 -0.536552 0.184927 -0.145736 0.74287 -0.65338 
-0.256442 -0.424889 0.26441 0.114741 0.543942 -0.831241 
0.429158 -0.712757 -0.0118247 -0.14063 0.877286 0.458903 
-0.0565867 1.04444 0.261171 0.332218 -0.771831 -0.542132 
0.486814 -0.770456 0.125292 -0.10869 0.916742 0.38441 
0.56181 -0.741594 0.0997458 -0.293475 0.838717 0.458722 
0.451619 0.0980765 -0.586614 -0.780817 -0.226264 0.582349 
-0.723148 -0.0568464 -0.463522 0.464039 -0.379613 0.800351 
-0.0679946 0.12623 -0.708559 0.273648 -0.30669 0.911624 
0.351148 0.137827 -0.671925 -0.544043 -0.292024 0.7866 
-0.577443 -0.628267 -0.282263 0.00920516 0.906938 0.421163 
-0.0471494 -0.00280452 -0.745333 0.232485 -0.135381 0.963132 
0.633338 -0.0499434 -0.294655 -0.909782 -0.144915 0.388967 
0.11391 -0.620961 0.404135 0.72555 0.53935 -0.427409 
0.263154 1.08457 0.123453 -0.437217 -0.865952 -0.242833 
0.115367 -0.52539 0.495853 0.758393 0.355149 -0.546544 
0.158628 -0.434122 -0.561316 -0.157155 0.781767 0.603442 
-0.179586 0.101151 -0.676559 0.368789 -0.293393 0.881995 
-0.559397 -0.644088 -0.242001 -0.0284013 0.950026 0.310877 
-0.0301864 0.134215 -0.716377 0.228323 -0.313347 0.921782 
0.0489569 0.884485 -0.348192 0.121204 -0.535849 0.835569 
0.581671 -0.226615 0.698819 -0.165577 -0.488247 -0.856854 
-0.583411 -0.0147952 -0.520882 0.432098 -0.345227 0.833132 
-0.277403 0.569362 0.239222 0.827874 0.00504368 -0.560891 
0.0675883 -0.338768 -0.678628 -0.0514387 0.63314 0.772326 
0.480354 0.599317 -0.218521 -0.895757 -0.280789 0.344641 
0.474482 -0.0456179 0.547902 -0.0329375 -0.769458 -0.637847 
-0.447349 0.0248415 -0.574365 0.423489 -0.313853 0.849796 
-0.0685109 1.10538 -0.0604736 0.369047 -0.885372 0.282701 
0.103659 -0.582823 0.429527 0.744308 0.455279 -0.488597 
0.227662 -0.529395 -0.400125 -0.172698 0.836894 0.519408 
0.200764 0.795913 0.415486 -0.344667 -0.119911 -0.931035 
-1.05638 -0.301348 0.100265 0.910108 0.080053 -0.406565 
0.303388 -0.600011 -0.255329 -0.172323 0.853253 0.492204 
0.223608 0.154589 -0.719288 -0.188922 -0.330167 0.924823 
0.381654 0.109503 0.41612 -0.19831 -0.598718 -0.776022 
0.0450967 -0.298204 -0.708565 0.000436647 0.528781 0.848758 
0.412743 -0.257569 -0.600641 -0.575656 0.446104 0.685282 
0.465707 0.720043 -0.152802 -0.901795 -0.299196 0.311846 
-0.555573 0.192959 0.0937061 0.418073 -0.734623 -0.534364 
0.68756 -0.10632 -0.185456 -0.91631 -0.140554 0.374993 
0.316563 0.550233 0.346877 -0.557321 0.0945813 -0.824892 
0.531595 0.0436516 -0.477505 -0.871076 -0.183987 0.455385 
0.309607 0.284464 0.350235 -0.379428 -0.213651 -0.900215 
-0.918465 -0.447908 0.217526 0.54387 0.434816 -0.717732 
0.566014 -0.194188 0.680764 -0.125266 -0.574683 -0.808732 
0.375598 -0.0573654 0.556515 0.0511603 -0.669276 -0.741251 
-0.0957389 0.61882 -0.453924 0.353125 -0.441483 0.824861 
0.341727 -0.325702 -0.598758 -0.41857 0.605564 0.676824 
0.611574 -0.303165 0.723541 -0.256713 -0.257276 -0.931615 
0.224059 0.884357 -0.327399 -0.346115 -0.528833 0.774945 
0.375771 0.578009 0.298674 -0.722767 0.0238106 -0.690682 
0.096163 -0.422142 0.517251 0.728968 0.238962 -0.641485 
0.216633 0.733404 0.414007 -0.373648 -0.0220623 -0.927308 
0.494339 -0.105431 -0.567003 -0.8108 0.0320624 0.584445 
-0.834291 -0.636434 -0.171322 0.288281 0.92442 0.249685 
0.438619 -0.0341101 0.534638 -0.0116497 -0.723644 -0.690076 
-0.336144 0.527909 0.148206 0.883601 -0.0714376 -0.46276 
0.286569 -0.584662 -0.287712 -0.174463 0.850625 0.495984 
-0.115248 0.506689 0.382681 0.443825 0.0995891 -0.890563 
-0.280031 0.792171 -0.203489 0.745548 -0.430153 0.509044 
-0.074389 0.203092 -0.677051 0.283147 -0.379148 0.880951 
-0.437953 -0.502319 0.218594 -0.146742 0.646875 -0.748344 
-0.456322 -0.307814 0.318391 -0.0645605 0.255291 -0.964706 
0.261901 0.152376 -0.710168 -0.285663 -0.325392 0.901397 
-0.778426 -0.115355 -0.457155 0.472946 -0.31529 0.822748 
-0.454068 -0.597752 0.0973498 -0.137167 0.883923 -0.447062 
0.623546 -0.341346 0.728415 -0.290687 -0.155046 -0.944173 
0.484348 0.74652 -0.0231822 -0.971298 -0.23382 0.0436843 
-1.09177 -0.258077 -0.148914 0.985359 -0.0431264 0.164945 
-0.731976 -0.341432 -0.500951 0.357382 0.185523 0.915347 
0.352102 -0.609782 0.680114 0.352627 0.437845 -0.827011 
0.260169 0.878718 -0.311967 -0.455503 -0.510834 0.729085 
0.819517 -0.250239 0.0924316 -0.931306 -0.171356 0.321414 
0.472441 0.668498 -0.181099 -0.900734 -0.287781 0.325361 
0.497186 0.42572 -0.310942 -0.874613 -0.288427 0.389694 
0.511531 -0.0169885 -0.532584 -0.849744 -0.117887 0.513846 
-0.142916 0.110319 -0.688238 0.343913 -0.297101 0.890761 
-0.308972 -0.56416 -0.394504 -0.0205934 0.864311 0.502536 
0.46057 0.754632 -0.133511 -0.901234 -0.311174 0.301577 
-0.47682 -0.21181 0.334765 0.00746545 0.0600246 -0.998169 
-0.087749 1.05487 -0.142907 0.419895 -0.747063 0.51535 
0.20593 -0.173586 0.587496 0.404323 -0.366477 -0.837984 
0.889918 -0.453157 0.468783 -0.957148 0.105602 -0.269657 
-0.146596 -0.524803 -0.45524 -0.00449621 0.846811 0.531875 
0.105565 1.10012 0.208453 -0.0998671 -0.912169 -0.39746 
0.447303 -0.77999 0.141508 -0.0370915 0.936276 0.349301 
-0.3321 0.754807 -0.135407 0.886415 -0.355774 0.29613 
0.0975959 -0.547281 0.451304 0.741945 0.445433 -0.501106 
0.600087 -0.0171223 -0.358452 -0.902245 -0.154663 0.402533 
0.893867 -0.361021 0.302701 -0.981834 -0.112642 0.152689 
0.250215 0.566468 0.387787 -0.412132 0.158915 -0.897159 
0.382522 0.997852 0.0227449 -0.797065 -0.602129 0.0461312 
-0.352397 0.645362 0.0795228 0.950246 -0.0976955 -0.295784 
0.400445 0.59351 0.270786 -0.779002 -0.0038549 -0.627009 
0.141893 1.10169 0.191356 -0.177632 -0.913489 -0.366041 
-0.583786 0.0494197 0.232052 0.250247 -0.607685 -0.753721 
0.174268 -0.72431 0.317758 0.586333 0.786947 -0.192165 
0.840608 -0.275992 0.141825 -0.939402 -0.176717 0.293761 
0.426269 0.907007 -0.0427916 -0.887082 -0.418518 0.194751 
-0.467486 -0.251472 0.330496 -0.024055 0.146735 -0.988883 
-0.427472 0.320151 0.0923899 0.742212 -0.420734 -0.521635 
-0.618788 -0.0252136 -0.506769 0.436507 -0.353979 0.82714 
-0.406471 0.354029 0.0984905 0.788126 -0.344589 -0.510016 
-0.308504 0.645572 0.191654 0.896525 0.03464 -0.441636 
-0.864963 -0.458421 0.243695 0.379936 0.46752 -0.798169 
-0.623694 0.105688 0.161411 0.288593 -0.733034 -0.615934 
-0.102477 0.807151 -0.345415 0.411207 -0.469647 0.781243 
0.901594 -0.423916 0.417469 -0.994093 0.0197404 -0.106722 
-0.599686 0.0736424 0.205321 0.266971 -0.659726 -0.702487 
0.172299 -0.214512 0.58432 0.499944 -0.247477 -0.829947 
-0.478029 -0.443914 0.269189 -0.1756 0.475778 -0.861859 
0.102023 1.03049 0.321715 -0.0570871 -0.747341 -0.661984 
-0.527018 -0.449772 0.273237 -0.112129 0.487949 -0.86564 
-0.686419 0.165499 0.0279103 0.378697 -0.833324 -0.402691 
-0.503717 -0.121094 0.328584 0.0904111 -0.172232 -0.980899 
0.62306 -0.596181 0.691742 -0.285408 0.431883 -0.855581 
0.829561 -0.165409 0.255415 -0.907891 -0.409358 0.0903318 
0.356218 -0.647937 -0.153425 -0.15945 0.859426 0.48576 
0.159163 -0.459427 -0.527042 -0.149647 0.805016 0.574069 
-0.0217994 1.06311 0.25312 0.26691 -0.808576 -0.52437 
0.371579 -0.300093 -0.601019 -0.475935 0.55277 0.684055 
-0.287794 0.738012 0.226281 0.87636 -0.0484124 -0.479218 
-0.486125 0.249865 0.0871509 0.582821 -0.608127 -0.538982 
0.767206 -0.191251 -0.0212268 -0.921 -0.156084 0.356926 
0.193906 -0.496011 -0.463397 -0.16533 0.824947 0.54049 
-0.347144 0.737716 -0.103236 0.928361 -0.316739 0.194481 
0.0169319 -0.235561 -0.738164 0.078486 0.346217 0.934866 
-1.0413 -0.227454 0.128673 0.867631 -0.106977 -0.485564 
0.633175 -0.697108 0.0844249 -0.470522 0.724715 0.503386 
-0.080748 0.296833 -0.630652 0.293364 -0.434483 0.851565 
-0.403562 -0.43499 0.26301 -0.0761263 0.497047 -0.864378 
0.762932 -0.561655 0.0849871 -0.736929 0.448472 0.505775 
-0.752659 0.172462 -0.157178 0.528122 -0.847433 0.0542656 
-0.698124 -0.435086 -0.477061 0.251489 0.478739 0.841167 
-0.0598403 0.0729155 -0.72699 0.258174 -0.242104 0.935271 
-0.778842 0.116368 -0.27652 0.557892 -0.711515 0.427205 
-0.168567 0.960589 0.275565 0.568492 -0.582227 -0.581229 
0.282918 0.389451 0.352613 -0.42591 0.0262309 -0.904385 
0.792534 -0.534676 0.603177 -0.707822 0.304163 -0.637552 
-0.438075 -0.468368 0.24489 -0.140125 0.575769 -0.805515 
0.390886 -0.787998 0.167763 0.0654611 0.955201 0.288628 
0.167236 0.888763 -0.342815 -0.175452 -0.54323 0.821047 
-1.03149 -0.186912 -0.269545 0.802379 -0.264298 0.535102 
-1.07171 -0.356573 0.0318812 0.94533 0.209314 -0.250076 
0.530814 -0.0125077 0.496167 -0.170755 -0.763243 -0.62314 
0.855731 -0.492298 0.534993 -0.856995 0.212875 -0.469301 
-0.340768 0.05585 -0.616191 0.423299 -0.29475 0.856703 
-1.03931 -0.459488 0.0152225 0.870152 0.438387 -0.22506 
-1.0061 -0.41298 0.142654 0.791259 0.341679 -0.507113 
0.378842 -0.668359 -0.109711 -0.153707 0.863485 0.480383 
-0.770753 -0.170163 -0.478096 0.45238 -0.205606 0.867801 
-0.771515 0.142061 -0.235271 0.557403 -0.771959 0.305582 
0.883937 -0.340081 0.263508 -0.969165 -0.139239 0.2033 
-0.687735 -0.464182 0.277807 0.0170408 0.493144 -0.869781 
0.697084 -0.0243148 0.400342 -0.55555 -0.741754 -0.375719 
0.856839 -0.297657 0.18318 -0.948407 -0.173357 0.265464 
0.493939 0.460463 -0.292503 -0.878946 -0.285199 0.38225 
0.346044 1.0384 0.0603307 -0.688944 -0.721999 -0.0638268 
-0.0317466 -0.0753208 -0.754657 0.201941 -0.0227451 0.979133 
0.405412 0.0653835 0.446899 -0.15578 -0.647258 -0.746183 
