ply
format ascii 1.0
element vertex 615
property float x
property float y
property float z
property float nx
property float ny
property float nz
end_header
-0.006369 0.460308 -0.316504 -0.167571 -0.969112 0.180949 
-0.011684 0.451671 -0.335961 0.119578 -0.874242 0.470533 
-0.015161 0.440969 -0.346939 0.500676 -0.478828 0.721142 
-0.017675 0.429936 -0.350241 0.676036 -0.199491 0.709351 
-0.018141 0.416283 -0.348157 0.790697 0.374108 0.484605 
-0.015642 0.408034 -0.33412 0.669533 0.741746 0.0392301 
-0.008427 0.390989 -0.277514 0.978963 0.152102 0.136005 
-0.006203 0.400591 -0.28521 0.913496 0.22514 0.338876 
-0.005222 0.396669 -0.254697 0.15278 0.977068 -0.148315 
-0.010291 0.376127 -0.215511 0.269527 0.623387 0.733992 
-0.011227 0.337512 -0.168687 0.160881 -0.415848 0.895091 
-0.011665 0.310449 -0.144801 0.0792147 0.907416 0.412699 
-0.008997 0.271806 -0.124082 0.189114 -0.0723111 0.979289 
-0.006997 0.239901 -0.111792 0.219809 0.274557 0.93611 
-0.001121 0.186244 -0.10649 0.0667665 0.163868 0.98422 
0.001918 0.156172 -0.110922 -0.00538339 -0.317201 0.948343 
-0.007589 0.175128 -0.105222 0.210013 -0.0683979 0.975303 
-0.012045 0.089447 -0.124294 0.065487 0.396052 0.91589 
-0.013327 0.049782 -0.128561 0.097654 -0.492833 0.864627 
-0.012768 0.014372 -0.127924 0.319855 0.288429 0.902497 
-0.013775 -0.033009 -0.117618 0.564711 0.0377253 0.824426 
-0.011641 -0.069535 -0.099101 0.391917 0.908713 0.143671 
-0.010936 -0.093902 -0.079221 0.37375 0.311933 0.873504 
-0.013661 -0.106611 -0.055806 0.447033 0.873324 0.193565 
-0.013846 -0.125082 -0.006093 0.570108 0.358286 0.739329 
-0.002089 -0.090016 0.087647 -0.137735 -0.617776 -0.774198 
-0.005629 -0.127047 0.093337 -0.134508 -0.837246 -0.530025 
-0.005343 -0.145709 0.101157 0.759801 0.617061 -0.204786 
-0.005112 -0.159887 0.111408 0.767675 -0.561313 -0.309197 
-0.004232 -0.17134 0.125062 0.392215 -0.706527 -0.589056 
-0.004435 -0.183178 0.147728 0.0940696 -0.936265 -0.338464 
-0.001154 -0.192069 0.186581 0.159544 -0.401768 -0.901736 
-0.003869 -0.257947 0.186656 0.960322 0.275683 -0.0421947 
-0.00475 -0.255763 0.228482 0.121612 0.835188 0.53635 
-0.005699 -0.257184 0.269102 -0.354226 -0.52498 -0.773899 
-0.00238 0.459818 -0.313753 -0.228142 -0.967897 0.105482 
-0.002946 0.458471 -0.286827 -0.0928381 -0.975527 -0.199319 
0.001273 0.442004 -0.21091 0.0116203 -0.976085 -0.217077 
-0.003784 0.419747 -0.148294 -0.00935641 -0.838882 -0.544234 
-0.009062 0.402964 -0.113956 0.442491 -0.873284 -0.203905 
-0.014171 0.373372 -0.068307 0.319759 -0.754013 -0.573776 
-0.014685 0.359604 -0.055494 0.316592 -0.42278 -0.849133 
-0.011671 0.342699 -0.051523 0.575357 -0.226615 -0.785882 
-0.004063 0.346903 -0.041726 0.582153 -0.594829 -0.554325 
-0.008523 0.336921 -0.024201 0.429038 -0.885961 -0.176065 
-0.009742 0.320786 -0.000888 0.264402 -0.323576 -0.90851 
-0.011092 0.279083 0.038738 -0.00876108 -0.738228 -0.674494 
-0.01131 0.242817 0.061491 0.129831 -0.495732 -0.858716 
-0.008809 0.201259 0.078675 0.327924 0.0563937 -0.94302 
-0.006099 0.16419 0.085946 0.235523 -0.102972 -0.966398 
-0.002644 0.138857 0.086661 0.133282 -0.0857495 -0.987362 
0.005704 0.049803 0.071112 -0.228587 0.627148 -0.744603 
0.00429 -0.015733 0.06273 -0.282049 0.402944 -0.87068 
0.003627 -0.041292 0.065832 -0.216291 -0.42946 -0.876802 
-0.004349 -0.081422 0.085888 -0.18734 0.00597249 -0.982277 
-0.000101 -0.260332 0.180117 0.410223 0.785015 0.464186 
-0.004447 -0.254593 0.116614 -0.035463 0.955737 -0.292078 
-0.003023 -0.249512 0.017945 -0.0499568 0.874126 -0.483122 
-0.005149 -0.251082 -0.027258 -0.0541435 0.854997 0.515798 
-0.007753 -0.260519 -0.09259 0.251208 0.964167 -0.0853066 
-0.006969 -0.182109 -0.081326 0.703369 -0.710819 0.0028663 
-0.002215 -0.177171 -0.041016 0.243164 -0.337281 0.909458 
-0.000857 -0.160393 -0.009595 0.0318434 -0.134214 0.990441 
7.9e-05 -0.147295 -0.003159 -0.174411 -0.940896 0.290337 
-0.000311 -0.135919 -0.004036 -0.18257 0.658237 0.730337 
-0.00083 -0.124319 -0.012211 0.0445522 0.613643 0.788326 
-0.004161 -0.116521 -0.027279 0.334179 0.941921 0.0333227 
-0.00227 -0.176272 -0.078526 0.78821 -0.613886 -0.0432425 
-0.0061 -0.18811 -0.103103 0.133611 -0.829813 0.54181 
-0.006735 -0.208333 -0.112346 -0.147431 0.122504 0.981457 
-0.006508 -0.232464 -0.108983 0.173423 0.085275 0.981149 
-0.001384 -0.261109 -0.092057 -0.0532481 0.922341 -0.38269 
-0.005896 0.077472 -0.116419 -0.181864 0.440036 0.879371 
-0.037508 0.074068 -0.10312 0.707369 0.27912 0.649401 
-0.062066 0.073954 -0.076552 0.478403 0.822534 0.307522 
-0.080239 0.076565 -0.038293 0.683019 0.552686 0.477518 
-0.083591 0.080896 0.005729 0.554335 0.171665 -0.814398 
-0.078586 0.083414 0.028302 0.672892 0.725196 -0.145969 
-0.06647 0.084519 0.044746 0.498834 0.442814 -0.745037 
-0.037459 0.081915 0.064248 0.744662 0.22381 -0.628799 
0.015481 0.070674 0.092899 -0.577857 0.54243 -0.609796 
0.007675 0.077472 -0.116419 0.1627 0.495236 0.853388 
0.039286 0.074068 -0.10312 -0.588237 0.479235 0.651392 
0.063845 0.073954 -0.076552 -0.486088 0.828556 0.277874 
0.082017 0.076565 -0.038293 -0.675841 0.558317 0.481166 
0.08537 0.080896 0.005729 -0.554141 0.172333 -0.814389 
0.080364 0.083414 0.028302 -0.674783 0.723324 -0.14653 
0.068249 0.084519 0.044746 -0.500402 0.439868 -0.745731 
0.039238 0.081915 0.064248 -0.744016 0.232448 -0.626425 
-0.013703 0.070674 0.092899 0.584357 0.49911 -0.639856 
-0.011866 -0.198561 -0.113587 -0.299165 -0.247257 0.92161 
-0.052293 -0.210279 -0.115514 -0.138335 0.885019 -0.444527 
-0.067571 -0.216455 -0.11175 -0.832005 0.414246 -0.369011 
-0.08863 -0.222975 -0.096381 0.875704 -0.216576 -0.431553 
-0.105257 -0.226471 -0.072732 0.680877 -0.486187 0.547749 
-0.112116 -0.226685 -0.051094 0.933682 -0.319818 0.161106 
-0.114665 -0.227672 -0.017895 0.967775 -0.24041 -0.0749284 
-0.104144 -0.233137 0.086924 0.543782 -0.318403 -0.77648 
0.013645 -0.198561 -0.113587 0.301084 0.00900488 0.953555 
0.054072 -0.210279 -0.115514 0.138187 0.898962 -0.415658 
0.06935 -0.216455 -0.11175 0.832907 0.405582 -0.376521 
0.090409 -0.222975 -0.096381 -0.87504 -0.217438 -0.432465 
0.107036 -0.226471 -0.072732 -0.680576 -0.482948 0.550979 
0.113894 -0.226685 -0.051094 -0.935198 -0.315993 0.159855 
0.116444 -0.227672 -0.017895 -0.969015 -0.236917 -0.0698565 
0.105922 -0.233137 0.086924 -0.529945 -0.318677 -0.785877 
-0.103405 -0.2127 0.078479 -0.131435 -0.839907 -0.526575 
-0.116732 -0.202243 0.173762 -0.0448341 -0.350329 0.935553 
-0.112327 -0.20028 0.198641 0.496791 -0.776589 -0.387437 
-0.100475 -0.199276 0.223898 0.732825 -0.38563 -0.560586 
-0.08694 -0.200976 0.237925 0.767869 -0.172079 -0.617062 
-0.066402 -0.207582 0.249802 -0.669103 0.354735 -0.653042 
-0.024592 -0.225813 0.26309 0.278654 -0.404325 -0.871133 
0.001843 -0.239792 0.267823 0.0650862 -0.660391 -0.748095 
0.105183 -0.2127 0.078479 0.162776 -0.82828 -0.53615 
0.11851 -0.202243 0.173762 0.111759 -0.399917 0.909712 
0.114106 -0.20028 0.198641 -0.427323 -0.834893 -0.346913 
0.102253 -0.199276 0.223898 -0.686838 -0.481786 -0.544184 
0.088719 -0.200976 0.237925 -0.74604 -0.307164 -0.590826 
0.06818 -0.207582 0.249802 0.807692 0.205421 -0.552663 
0.026371 -0.225813 0.26309 -0.0688266 -0.85017 -0.521991 
-6.4e-05 -0.239792 0.267823 -0.0153822 -0.597009 -0.802087 
-0.004972 -0.185599 0.17691 0.445791 -0.851979 0.274595 
-0.039122 -0.176569 0.175807 -0.405597 -0.802326 -0.437909 
-0.072862 -0.18056 0.175967 0.710865 -0.692049 -0.125452 
-0.084574 -0.193809 0.174852 0.456518 -0.819152 0.347248 
-0.092813 -0.223231 0.176102 0.525264 -0.0930071 0.845841 
0.006751 -0.185599 0.17691 -0.252015 -0.966693 -0.0446499 
0.0409 -0.176569 0.175807 0.304922 -0.833185 -0.46133 
0.074641 -0.18056 0.175967 -0.693355 -0.706439 -0.142136 
0.086352 -0.193809 0.174852 -0.467395 -0.818796 0.333339 
0.094592 -0.223231 0.176102 -0.540547 -0.0802236 0.83748 
-0.003557 -0.163924 -0.034848 -0.0354096 -0.815199 0.578097 
-0.032706 -0.154327 -0.032733 -0.232543 -0.938794 0.254146 
-0.059023 -0.158723 -0.031164 0.453818 -0.86699 -0.205859 
-0.070945 -0.169482 -0.030435 0.779421 -0.625003 -0.0432873 
-0.100004 -0.21539 -0.024976 0.383405 -0.822918 -0.419292 
0.005336 -0.163924 -0.034848 0.109047 -0.878286 0.465535 
0.034485 -0.154327 -0.032733 0.172419 -0.978766 0.110853 
0.060801 -0.158723 -0.031164 -0.439177 -0.865145 -0.242173 
0.072724 -0.169482 -0.030435 -0.777245 -0.626445 -0.0587903 
0.101782 -0.21539 -0.024976 -0.386414 -0.82251 -0.417327 
-0.066535 -0.206816 -0.10389 -0.531845 0.652998 -0.539199 
-0.06828 -0.180747 -0.090513 0.923545 0.0195158 -0.382992 
-0.068169 -0.16636 -0.076298 0.945535 -0.0531018 0.321159 
-0.068207 -0.15451 -0.040698 0.488427 -0.508278 -0.70929 
-0.070507 -0.152723 -0.016688 0.41416 -0.490739 0.766581 
-0.074131 -0.159097 0.04118 0.972898 0.184084 -0.139939 
-0.073604 -0.167673 0.093987 0.653592 0.169252 0.73768 
-0.07059 -0.176086 0.14327 0.869605 -0.490845 -0.0534637 
-0.061387 -0.188853 0.197967 -0.222094 -0.863974 -0.451911 
-0.059735 -0.198337 0.218997 -0.678091 -0.611299 -0.408051 
-0.062136 -0.208048 0.23324 -0.91631 -0.314962 -0.247333 
-0.065557 -0.219523 0.241049 -0.331931 0.222439 -0.916702 
-0.07489 -0.230494 0.239049 0.602182 -0.735066 -0.311537 
0.068314 -0.206816 -0.10389 0.527981 0.662391 -0.531483 
0.070058 -0.180747 -0.090513 -0.946472 0.0204833 -0.322135 
0.069948 -0.16636 -0.076298 -0.962928 -0.0454567 0.265899 
0.069985 -0.15451 -0.040698 -0.512836 -0.499794 -0.698001 
0.072286 -0.152723 -0.016688 -0.413198 -0.45371 0.789566 
0.07591 -0.159097 0.04118 -0.948328 0.302925 -0.0943918 
0.075383 -0.167673 0.093987 -0.836033 -0.132057 0.532551 
0.072369 -0.176086 0.14327 -0.872617 -0.485533 -0.0528881 
0.063166 -0.188853 0.197967 0.129409 -0.883508 -0.450185 
0.061514 -0.198337 0.218997 0.559837 -0.694228 -0.45236 
0.063915 -0.208048 0.23324 0.876583 -0.369019 -0.308913 
0.067335 -0.219523 0.241049 0.378393 0.245328 -0.892543 
0.076668 -0.230494 0.239049 -0.617435 -0.71559 -0.326658 
-0.002928 -0.183917 0.180342 0.280258 -0.958132 -0.0586366 
0.000453 -0.191345 0.211497 0.127664 -0.98152 0.142546 
0.001262 -0.204717 0.240165 -0.108691 -0.804031 -0.584569 
0.00168 -0.22998 0.26344 -0.0623551 -0.332633 -0.940993 
-0.001067 -0.249659 0.274772 0.936949 0.110637 -0.331489 
-0.003856 -0.25789 0.277108 -0.367878 -0.738496 0.565057 
-0.008987 -0.113929 -0.022953 0.506319 0.856615 0.0992524 
-0.026619 -0.107433 -0.019454 0.395272 0.88777 0.235848 
-0.044272 -0.099153 -0.00636 0.605097 0.774511 0.184362 
-0.056539 -0.091447 0.00975 0.740842 0.669176 0.0579359 
-0.05953 -0.08579 0.025856 0.853952 0.491638 -0.170462 
-0.058388 -0.082757 0.035816 0.900116 0.329917 -0.28451 
-0.054602 -0.081027 0.045567 0.837201 0.0937136 -0.538806 
-0.039868 -0.079584 0.064586 0.668585 -0.325858 -0.668439 
-0.025596 -0.081296 0.075007 0.564991 -0.34927 -0.747526 
-0.001709 -0.087784 0.085861 -0.144559 -0.472266 -0.869521 
0.010766 -0.113929 -0.022953 -0.414056 0.886734 0.205574 
0.028397 -0.107433 -0.019454 -0.420682 0.884426 0.202034 
0.046051 -0.099153 -0.00636 -0.573345 0.805346 0.150644 
0.058317 -0.091447 0.00975 -0.724271 0.688356 0.0399593 
0.061309 -0.08579 0.025856 -0.847297 0.501453 -0.175021 
0.060166 -0.082757 0.035816 -0.896177 0.343054 -0.281392 
0.05638 -0.081027 0.045567 -0.824054 0.113895 -0.554944 
0.041647 -0.079584 0.064586 -0.695308 -0.355406 -0.624687 
0.027375 -0.081296 0.075007 -0.428898 -0.376335 -0.82123 
0.003487 -0.087784 0.085861 0.00781188 -0.419327 -0.907802 
-0.04399 -0.098037 0.042529 0.648899 0.741462 -0.170775 
-0.035831 -0.105926 0.050272 0.756859 0.625308 0.190145 
-0.031098 -0.117 0.056349 0.605578 0.507899 0.612629 
-0.029565 -0.130778 0.061878 0.0810197 0.113744 0.990201 
-0.033428 -0.143517 0.065154 -0.603926 0.79182 -0.0910742 
-0.041631 -0.153751 0.065554 -0.333454 0.240077 -0.911686 
-0.052872 -0.159806 0.06332 0.209346 0.345975 -0.91459 
-0.056979 -0.160322 0.062161 0.220854 0.366633 -0.903772 
-0.067392 -0.154275 0.059835 0.642393 0.147709 -0.752006 
0.045769 -0.098037 0.042529 -0.61753 0.779509 -0.104985 
0.03761 -0.105926 0.050272 -0.595724 0.682375 0.423648 
0.032877 -0.117 0.056349 -0.182772 0.49338 0.850395 
0.031343 -0.130778 0.061878 0.186758 0.148112 0.971177 
0.035206 -0.143517 0.065154 -0.727378 0.0984731 0.679135 
0.043409 -0.153751 0.065554 -0.516983 -0.815674 -0.259625 
0.05465 -0.159806 0.06332 -0.355888 -0.398796 -0.845166 
0.058757 -0.160322 0.062161 -0.26104 -0.196463 -0.945125 
0.06917 -0.154275 0.059835 -0.445657 0.221785 -0.867296 
-0.002892 -0.147409 -0.007511 -0.41501 -0.779346 0.469453 
-0.015741 -0.145578 -0.010415 -0.101126 -0.660834 0.743688 
-0.026058 -0.143961 -0.008499 0.0886939 -0.842134 0.531924 
-0.033659 -0.14301 -0.003672 0.190015 -0.9386 0.287965 
-0.041005 -0.14297 0.007437 0.092446 -0.995346 0.0272136 
-0.045693 -0.143018 0.023684 -0.104384 -0.993391 -0.0477382 
-0.046839 -0.142221 0.042689 -0.240478 -0.944885 0.222177 
-0.04457 -0.140353 0.061999 0.165504 -0.869241 -0.465863 
-0.039176 -0.137651 0.072714 0.814285 0.505416 -0.285473 
0.00467 -0.147409 -0.007511 0.391881 -0.823502 0.410211 
0.017519 -0.145578 -0.010415 0.111124 -0.780973 0.614599 
0.027837 -0.143961 -0.008499 -0.0453299 -0.893099 0.44757 
0.035438 -0.14301 -0.003672 -0.118249 -0.969715 0.213708 
0.042784 -0.14297 0.007437 0.0573729 -0.997719 -0.0355784 
0.047472 -0.143018 0.023684 0.35716 -0.927815 -0.107685 
0.048618 -0.142221 0.042689 0.721589 -0.637844 0.269191 
0.046349 -0.140353 0.061999 0.410211 0.667463 -0.621466 
0.040955 -0.137651 0.072714 -0.90397 0.407048 -0.130959 
-0.039247 -0.138137 0.066002 0.964722 -0.248042 0.0882395 
-0.040149 -0.136102 0.071828 0.935557 0.345051 -0.0753176 
-0.038661 -0.135229 0.077278 0.773142 0.499827 -0.390415 
-0.02889 -0.133958 0.091349 0.50568 0.498812 -0.7039 
-0.011436 -0.135173 0.103232 0.629921 -0.161777 -0.759624 
0.005487 -0.139925 0.108904 -0.17645 -0.440634 -0.880175 
0.041026 -0.138137 0.066002 -0.398241 0.917153 0.0153139 
0.041928 -0.136102 0.071828 -0.833064 0.484396 -0.267143 
0.04044 -0.135229 0.077278 -0.919591 0.168032 -0.355131 
0.030669 -0.133958 0.091349 -0.601731 -0.473881 -0.642928 
0.013214 -0.135173 0.103232 -0.25394 -0.669463 -0.698093 
-0.003709 -0.139925 0.108904 0.378615 -0.0283226 -0.925121 
-0.003518 -0.259259 -0.08775 -0.160471 0.900598 -0.403945 
-0.028703 -0.252541 -0.090187 0.181008 0.520989 0.83415 
-0.050145 -0.241818 -0.093401 -0.126396 0.077845 0.988921 
-0.059582 -0.234192 -0.095087 -0.348161 -0.16561 0.92269 
-0.063604 -0.228821 -0.096093 -0.589689 -0.137617 0.795819 
-0.068295 -0.214761 -0.099297 -0.886497 -0.319001 0.335203 
-0.069604 -0.210798 -0.102268 -0.979903 0.0507001 -0.192922 
0.005297 -0.259259 -0.08775 0.16794 0.932861 -0.318695 
0.030482 -0.252541 -0.090187 -0.191125 0.497896 0.845914 
0.051924 -0.241818 -0.093401 0.116346 0.10127 0.988032 
0.061361 -0.234192 -0.095087 0.332414 -0.150444 0.931057 
0.065383 -0.228821 -0.096093 0.574593 -0.126189 0.808653 
0.070073 -0.214761 -0.099297 0.883366 -0.311699 0.350011 
0.071383 -0.210798 -0.102268 0.9812 0.0552818 -0.184904 
-0.005692 -0.262014 -0.008124 -0.0784868 0.990063 0.116683 
-0.030957 -0.267085 -0.009055 -0.228663 0.973501 -0.00289807 
-0.062195 -0.273621 -0.015394 -0.274695 0.94188 -0.193403 
-0.094041 -0.27465 -0.022635 0.61799 0.621536 -0.481437 
0.007471 -0.262014 -0.008124 0.0929032 0.993956 0.0584812 
0.032735 -0.267085 -0.009055 0.198633 0.974916 -0.100422 
0.063973 -0.273621 -0.015394 0.269195 0.934694 -0.232124 
0.095819 -0.27465 -0.022635 -0.622539 0.618122 -0.479969 
0.000933 -0.259894 0.098551 0.031697 0.987989 -0.151236 
-0.033773 -0.267597 0.101995 -0.254935 0.965691 0.0494794 
-0.062962 -0.273119 0.100726 -0.365655 0.843333 0.39381 
-0.078633 -0.273186 0.09857 0.659092 0.49263 0.568255 
0.035551 -0.267597 0.101995 0.212482 0.963092 0.165241 
0.064741 -0.273119 0.100726 0.375155 0.8256 0.421478 
0.080412 -0.273186 0.09857 -0.666234 0.49533 0.557477 
-0.081189 -0.256673 0.100204 0.963499 0.26652 0.0252277 
-0.09521 -0.24752 0.094435 0.439431 0.457638 -0.772961 
-0.105091 -0.235844 0.087374 0.587652 -0.291189 -0.7549 
-0.110848 -0.218512 0.080438 0.536858 -0.146922 -0.830781 
-0.109599 -0.21521 0.08018 0.420954 -0.422323 -0.802771 
-0.105445 -0.214123 0.080565 0.016866 -0.684564 -0.728758 
0.082968 -0.256673 0.100204 -0.965189 0.259825 0.0300138 
0.096989 -0.24752 0.094435 -0.431248 0.44318 -0.785886 
0.106869 -0.235844 0.087374 -0.578618 -0.289035 -0.762666 
0.112627 -0.218512 0.080438 -0.532073 -0.151195 -0.833089 
0.111378 -0.21521 0.08018 -0.419622 -0.413077 -0.80826 
0.107223 -0.214123 0.080565 -0.00569906 -0.672466 -0.740106 
-0.000595 -0.262806 0.186048 0.278417 0.954045 0.110823 
-0.086959 -0.265106 0.177961 0.96081 -0.0144372 -0.276832 
0.002374 -0.262806 0.186048 -0.112727 0.988732 0.0985021 
0.088737 -0.265106 0.177961 -0.962109 0.000496532 -0.272663 
-0.086603 -0.259173 0.183423 0.911216 0.402042 0.0897069 
-0.097697 -0.249462 0.18364 0.534547 0.67959 0.502411 
-0.106319 -0.235524 0.181689 0.443411 0.281902 0.850834 
-0.104369 -0.224405 0.17935 0.0821549 0.0708198 0.9941 
-0.097266 -0.216357 0.178214 0.251141 0.116783 0.96088 
0.088382 -0.259173 0.183423 -0.915699 0.391703 0.0898049 
0.099476 -0.249462 0.18364 -0.519066 0.67114 0.529284 
0.108098 -0.235524 0.181689 -0.398425 0.278664 0.873844 
0.106147 -0.224405 0.17935 -0.0573385 0.0826654 0.994926 
0.099044 -0.216357 0.178214 -0.256512 0.113085 0.959903 
-0.080135 -0.260921 0.098187 0.97724 0.120807 0.174375 
-0.086718 -0.257595 0.161991 0.969843 -0.179437 0.164945 
-0.09075 -0.258261 0.191079 0.636876 0.689948 0.344037 
0.081914 -0.260921 0.098187 -0.977207 0.120439 0.174818 
0.088496 -0.257595 0.161991 -0.973626 -0.167643 0.15475 
0.092528 -0.258261 0.191079 -0.627338 0.699972 0.341301 
-0.086983 -0.26036 0.187281 0.829364 0.465358 0.309189 
-0.088832 -0.255227 0.216742 0.956169 0.19489 -0.218537 
-0.088516 -0.248912 0.231597 0.927787 -0.280392 0.246153 
-0.086989 -0.243716 0.237812 0.817289 -0.571076 0.0768784 
-0.083859 -0.238368 0.241769 0.814703 -0.579848 0.00595529 
-0.076588 -0.232141 0.24335 0.422259 -0.898406 -0.120682 
-0.067 -0.226627 0.241393 0.115571 -0.412473 -0.903609 
-0.059536 -0.225274 0.239876 -0.235724 -0.475722 -0.847421 
0.088761 -0.26036 0.187281 -0.831565 0.465508 0.302988 
0.09061 -0.255227 0.216742 -0.934497 0.265514 -0.237104 
0.090295 -0.248912 0.231597 -0.939165 -0.251854 0.233536 
0.088768 -0.243716 0.237812 -0.810678 -0.579572 0.0830551 
0.085638 -0.238368 0.241769 -0.802723 -0.594241 0.0501302 
0.078367 -0.232141 0.24335 -0.439764 -0.895927 -0.0626287 
0.068778 -0.226627 0.241393 -0.112811 -0.448371 -0.8867 
0.061315 -0.225274 0.239876 0.196804 -0.528484 -0.825816 
-0.089233 -0.247175 0.236795 0.873201 -0.465703 0.143667 
-0.081712 -0.254286 0.257287 0.657427 -0.199308 -0.726681 
-0.073012 -0.256127 0.264681 0.495643 -0.367899 -0.786758 
-0.059914 -0.256501 0.271159 0.295351 -0.586578 -0.754118 
-0.045265 -0.256214 0.275335 0.10434 -0.739332 -0.665208 
-0.024913 -0.256468 0.276726 0.112074 -0.909157 -0.401089 
-0.007272 -0.257071 0.27582 -0.380943 -0.839365 0.387748 
0.007918 -0.258785 0.272135 0.145155 0.866237 -0.478083 
0.091012 -0.247175 0.236795 -0.880328 -0.451854 0.144395 
0.08349 -0.254286 0.257287 -0.717383 0.0744447 -0.69269 
0.07479 -0.256127 0.264681 -0.565714 0.106564 -0.817687 
0.061693 -0.256501 0.271159 -0.343778 0.140963 -0.92841 
0.047044 -0.256214 0.275335 -0.175276 0.270143 -0.946732 
0.026691 -0.256468 0.276726 -0.0076942 0.5873 -0.809333 
0.00905 -0.257071 0.27582 0.0567449 0.894644 -0.443161 
-0.00614 -0.258785 0.272135 -0.542517 -0.838145 -0.0564635 
-0.089765 -0.261124 -0.004304 0.919294 0.316964 -0.233307 
-0.086047 -0.258654 0.041088 0.305741 0.945086 0.11548 
-0.080466 -0.260676 0.099739 0.977028 0.0702677 0.201194 
0.091543 -0.261124 -0.004304 -0.918741 0.317815 -0.234325 
0.087826 -0.258654 0.041088 -0.262588 0.958009 0.115182 
0.082245 -0.260676 0.099739 -0.976891 0.0724399 0.201089 
-0.000249 -0.258966 -0.08839 -0.0954958 0.887015 -0.451757 
-0.036657 -0.265952 -0.080774 -0.178423 0.772029 0.610029 
-0.060959 -0.268416 -0.079969 -0.164213 0.713457 0.681185 
-0.084564 -0.271586 -0.082773 0.111302 0.576444 0.809521 
0.002027 -0.258966 -0.08839 0.0865046 0.904811 -0.416934 
0.038436 -0.265952 -0.080774 0.129792 0.757736 0.639523 
0.062738 -0.268416 -0.079969 0.175277 0.702067 0.690203 
0.086342 -0.271586 -0.082773 -0.118478 0.575804 0.808958 
-0.108817 -0.216889 -0.029469 0.577064 -0.765548 -0.284489 
-0.113493 -0.224823 -0.024224 0.906956 -0.420426 -0.0259365 
-0.109754 -0.24137 -0.015698 0.868765 0.442934 -0.221487 
-0.10082 -0.253392 -0.008515 0.602009 0.697029 -0.389533 
-0.089313 -0.264352 -0.005499 0.930382 0.218257 -0.294539 
0.110595 -0.216889 -0.029469 -0.575551 -0.76648 -0.285044 
0.115272 -0.224823 -0.024224 -0.908285 -0.417578 -0.0254468 
0.111532 -0.24137 -0.015698 -0.869404 0.445025 -0.214686 
0.102598 -0.253392 -0.008515 -0.601738 0.700856 -0.383031 
0.091091 -0.264352 -0.005499 -0.929601 0.219022 -0.29643 
-0.087669 -0.252718 -0.091318 0.446577 0.448463 0.774241 
-0.09142 -0.234935 -0.098109 0.984111 0.0625829 0.166161 
-0.090474 -0.222533 -0.099393 0.821219 -0.0800997 -0.564963 
-0.087497 -0.214312 -0.097079 0.741113 -0.231782 -0.630101 
-0.078402 -0.211015 -0.086467 0.585513 -0.807998 -0.0656707 
0.089448 -0.252718 -0.091318 -0.450705 0.447671 0.772306 
0.093199 -0.234935 -0.098109 -0.985835 0.0611873 0.15616 
0.092253 -0.222533 -0.099393 -0.820009 -0.0791741 -0.566848 
0.089275 -0.214312 -0.097079 -0.734692 -0.227834 -0.638998 
0.080181 -0.211015 -0.086467 -0.605476 -0.794531 -0.0460425 
-0.08667 -0.260784 -0.087806 0.305467 0.38289 0.871829 
-0.090476 -0.261505 -0.007049 0.883455 0.306328 -0.3545 
0.088449 -0.260784 -0.087806 -0.309864 0.383402 0.87005 
0.092255 -0.261505 -0.007049 -0.883659 0.306061 -0.354223 
-0.0838 0.072651 0.006986 0.375943 -0.375695 -0.847066 
-0.116098 0.05279 0.005849 0.744156 -0.641866 0.18504 
-0.122065 0.042193 0.00463 0.800396 -0.268207 0.536126 
-0.122857 0.027921 0.004247 0.62741 0.00734373 0.778655 
-0.100814 -0.002532 0.013139 0.530377 0.814538 -0.235005 
-0.061971 -0.034345 0.033951 0.693809 0.10386 -0.712631 
-0.051256 -0.048259 0.042209 0.586847 0.0271125 -0.809244 
-0.044768 -0.067685 0.049596 0.620705 -0.389236 -0.680603 
-0.046935 -0.090549 0.051897 0.814302 0.448581 -0.368358 
0.085578 0.072651 0.006986 -0.376564 -0.376375 -0.846488 
0.117877 0.05279 0.005849 -0.740336 -0.640058 0.205496 
0.123843 0.042193 0.00463 -0.788191 -0.268032 0.553998 
0.124635 0.027921 0.004247 -0.613519 0.0120479 0.789588 
0.102593 -0.002532 0.013139 -0.547682 0.801307 -0.24073 
0.063749 -0.034345 0.033951 -0.657898 0.0552177 -0.75108 
0.053034 -0.048259 0.042209 -0.532231 -0.0283615 -0.846124 
0.046547 -0.067685 0.049596 -0.591317 -0.387793 -0.707079 
0.048713 -0.090549 0.051897 -0.85031 0.383155 -0.360784 
-0.006449 0.304822 0.002961 0.00336033 -0.382818 -0.923817 
-0.028528 0.294938 0.014774 0.123278 -0.878306 -0.461932 
-0.056466 0.278022 0.016853 0.600194 -0.796044 -0.077984 
-0.08564 0.252135 0.01086 0.687269 -0.394066 0.610224 
-0.098131 0.22701 0.000511 0.870258 -0.481088 0.105861 
-0.094215 0.200968 -0.020758 0.87247 -0.0325216 0.487585 
-0.079332 0.173875 -0.04833 0.759865 -0.144018 0.633928 
-0.043717 0.126929 -0.088578 0.577807 -0.410627 0.705354 
-0.011561 0.080015 -0.119133 -0.140862 0.49011 0.860204 
0.008227 0.304822 0.002961 0.0205012 -0.432667 -0.901321 
0.030307 0.294938 0.014774 -0.150889 -0.866171 -0.476425 
0.058245 0.278022 0.016853 -0.587387 -0.808672 -0.0320308 
0.087418 0.252135 0.01086 -0.685088 -0.388818 0.616015 
0.099909 0.22701 0.000511 -0.874757 -0.475707 0.092211 
0.095993 0.200968 -0.020758 -0.879533 -0.0197865 0.475427 
0.081111 0.173875 -0.04833 -0.763294 -0.131348 0.632558 
0.045496 0.126929 -0.088578 -0.581466 -0.431674 0.689605 
0.01334 0.080015 -0.119133 0.0947813 0.519771 0.849031 
-0.009652 0.205651 -0.1099 0.273979 0.132316 0.95259 
-0.027965 0.219761 -0.100065 0.606312 -0.00914283 0.795174 
-0.043828 0.239727 -0.083368 0.75722 -0.169283 0.630841 
-0.052884 0.261349 -0.062198 0.6672 -0.33774 0.66391 
-0.05557 0.276276 -0.045857 0.624706 -0.754143 0.202512 
-0.051106 0.294746 -0.028262 0.964955 -0.0309022 0.260589 
-0.027674 0.310469 -0.006198 0.420324 -0.575436 -0.70157 
-0.01811 0.312447 -0.002038 0.415215 -0.348654 -0.84026 
0.011431 0.205651 -0.1099 -0.270573 0.127734 0.954188 
0.029744 0.219761 -0.100065 -0.614635 -0.0110726 0.788734 
0.045607 0.239727 -0.083368 -0.725631 -0.202899 0.657489 
0.054663 0.261349 -0.062198 -0.623273 -0.377377 0.684922 
0.057349 0.276276 -0.045857 -0.593128 -0.773342 0.223924 
0.052885 0.294746 -0.028262 -0.977709 0.0309342 0.207671 
0.029452 0.310469 -0.006198 -0.445656 -0.582427 -0.679831 
0.019889 0.312447 -0.002038 -0.33263 -0.476149 -0.814027 
-0.069124 0.079893 -0.081277 0.524007 0.734062 0.431936 
-0.089931 0.096281 -0.055711 0.87856 0.410681 0.24387 
-0.103226 0.119025 -0.02493 0.971641 0.0236204 0.23528 
-0.10548 0.134338 -0.007448 0.987903 -0.137904 0.0709289 
-0.095719 0.15773 0.021255 0.926865 -0.182691 -0.327941 
-0.082862 0.172229 0.041251 0.746559 0.0340891 -0.664445 
-0.06365 0.186398 0.057169 0.31724 0.237054 -0.91824 
-0.024879 0.200051 0.071018 0.435907 0.0448503 -0.898874 
0.010372 0.206366 0.079016 -0.290929 -0.05999 -0.954862 
0.070902 0.079893 -0.081277 -0.550473 0.736744 0.392668 
0.091709 0.096281 -0.055711 -0.873886 0.41403 0.254759 
0.105004 0.119025 -0.02493 -0.97161 0.0195908 0.235774 
0.107259 0.134338 -0.007448 -0.987321 -0.140381 0.0741013 
0.097498 0.15773 0.021255 -0.926661 -0.186803 -0.326196 
0.08464 0.172229 0.041251 -0.748239 0.0329338 -0.662612 
0.065428 0.186398 0.057169 -0.29381 0.26868 -0.917326 
0.026657 0.200051 0.071018 -0.444396 0.106398 -0.88949 
-0.008594 0.206366 0.079016 0.306202 -0.000790745 -0.951966 
-0.036148 0.283161 -0.035285 0.230011 -0.107194 0.967266 
-0.05488 0.272696 -0.022066 0.909433 -0.412072 -0.0559336 
-0.082554 0.246297 0.004961 0.624354 -0.442213 0.643918 
-0.093918 0.224416 0.02106 0.923736 -0.201692 -0.325625 
-0.093852 0.208095 0.031087 0.904298 -0.111543 -0.412071 
-0.085506 0.185248 0.04107 0.7632 0.188211 -0.618144 
-0.052321 0.146365 0.040924 -0.517195 0.0344959 -0.855172 
0.037927 0.283161 -0.035285 -0.236486 -0.101655 0.966303 
0.056659 0.272696 -0.022066 -0.890706 -0.447747 -0.0785232 
0.084333 0.246297 0.004961 -0.629346 -0.444768 0.637264 
0.095696 0.224416 0.02106 -0.931313 -0.193052 -0.308847 
0.09563 0.208095 0.031087 -0.913735 -0.099699 -0.393889 
0.087285 0.185248 0.04107 -0.768636 0.193098 -0.609845 
0.0541 0.146365 0.040924 0.528776 0.0146639 -0.848635 
-0.065199 0.152972 0.049527 -0.281837 0.0380632 -0.958707 
-0.073673 0.132999 0.051775 0.115484 -0.00706648 -0.993284 
-0.08432 0.113674 0.04429 0.516724 0.160827 -0.840911 
-0.092193 0.093174 0.025884 0.630308 0.752737 -0.189996 
-0.091896 0.074913 0.00383 0.235149 -0.368015 -0.899594 
0.066978 0.152972 0.049527 0.288755 0.0251826 -0.957072 
0.075451 0.132999 0.051775 -0.122058 -0.0046362 -0.992512 
0.086098 0.113674 0.04429 -0.516415 0.15938 -0.841376 
0.093972 0.093174 0.025884 -0.628747 0.754062 -0.189916 
0.093674 0.074913 0.00383 -0.235386 -0.367445 -0.899765 
-0.009333 -0.072772 -0.087982 0.41179 0.78703 0.459362 
-0.028672 -0.04964 -0.079961 0.91297 0.266132 0.30929 
-0.05881 -0.010978 -0.046583 0.803227 0.106595 0.586058 
-0.07353 0.000289 -0.028488 0.799963 0.0930661 0.592788 
-0.090612 0.007557 -0.010843 0.588794 0.288654 0.754984 
-0.127825 0.010846 0.021679 0.384891 0.755145 -0.530673 
0.011111 -0.072772 -0.087982 -0.452866 0.61065 0.64963 
0.03045 -0.04964 -0.079961 -0.831375 0.257845 0.492272 
0.060588 -0.010978 -0.046583 -0.793551 0.0417937 0.607067 
0.075309 0.000289 -0.028488 -0.791978 0.063942 0.607192 
0.092391 0.007557 -0.010843 -0.593382 0.271903 0.757606 
0.129604 0.010846 0.021679 -0.363668 0.777479 -0.513101 
-0.113765 0.013894 0.025389 -0.00355901 0.504247 -0.863552 
-0.084546 0.025437 0.032683 0.195096 -0.0332242 -0.980221 
-0.044123 0.02984 0.047601 0.451115 -0.0845157 -0.888455 
-0.011249 0.026377 0.068347 0.592601 -0.502839 -0.629267 
0.00223 0.018986 0.085921 -0.124621 -0.531406 -0.837901 
0.115543 0.013894 0.025389 0.00653044 0.523589 -0.851946 
0.086324 0.025437 0.032683 -0.190722 -0.0219104 -0.9814 
0.045902 0.02984 0.047601 -0.447039 -0.0404984 -0.893597 
0.013028 0.026377 0.068347 -0.598018 -0.494784 -0.630526 
-0.000452 0.018986 0.085921 0.120689 -0.536063 -0.835506 
-0.003089 0.281175 -0.122916 0.0444068 -0.0699807 0.996559 
-0.023165 0.287278 -0.115891 0.597736 0.295998 0.745048 
-0.039525 0.296226 -0.104976 0.678714 0.698236 0.227627 
-0.050233 0.309487 -0.090061 0.405575 0.718914 -0.56451 
-0.051795 0.318395 -0.080769 0.991042 -0.127354 0.0402055 
-0.049287 0.32668 -0.072202 0.894248 -0.443037 -0.0635504 
-0.041066 0.336101 -0.063606 0.755261 -0.533491 -0.380746 
-0.019429 0.345668 -0.053849 0.141862 -0.122167 -0.982319 
0.006275 0.349117 -0.044436 -0.371291 -0.785114 -0.495721 
0.004868 0.281175 -0.122916 -0.0981002 0.0599172 0.993371 
0.024944 0.287278 -0.115891 -0.568475 0.444474 0.692299 
0.041303 0.296226 -0.104976 -0.680317 0.708212 0.188693 
0.052011 0.309487 -0.090061 -0.398657 0.729261 -0.556103 
0.053573 0.318395 -0.080769 -0.987222 -0.152019 0.0477759 
0.051065 0.32668 -0.072202 -0.875394 -0.483022 0.0193486 
0.042845 0.336101 -0.063606 -0.662176 -0.725067 -0.189208 
0.021207 0.345668 -0.053849 -0.471022 -0.769948 -0.430486 
-0.004496 0.349117 -0.044436 0.578002 -0.576508 -0.57754 
-0.009409 0.399799 -0.274234 0.940709 0.240849 0.238868 
-0.039108 0.410403 -0.270256 0.505346 0.83322 0.224431 
-0.046436 0.419643 -0.267288 0.938868 0.34422 -0.00634525 
-0.047592 0.427286 -0.2654 0.988435 -0.0680509 -0.135517 
-0.037348 0.44121 -0.262337 0.565728 -0.773963 -0.284489 
-0.006669 0.45056 -0.256163 0.0893225 -0.970813 -0.222583 
0.011187 0.399799 -0.274234 -0.677877 0.714027 -0.175066 
0.040886 0.410403 -0.270256 -0.538548 0.840888 -0.0536054 
0.048215 0.419643 -0.267288 -0.921338 0.379729 -0.0833194 
0.049371 0.427286 -0.2654 -0.988681 -0.0778176 -0.128277 
0.039127 0.44121 -0.262337 -0.562695 -0.806394 -0.181943 
0.008448 0.45056 -0.256163 -0.0891469 -0.977167 -0.192867 
-0.006657 0.386716 -0.223239 0.169852 0.588601 0.790379 
-0.024099 0.39351 -0.219746 0.54642 0.64773 0.530915 
-0.031302 0.398581 -0.21687 0.73971 0.578836 0.343188 
-0.036707 0.407205 -0.211136 0.969966 0.229065 0.0818204 
-0.037311 0.416224 -0.204303 0.994877 -0.0736456 -0.0692568 
-0.034866 0.424368 -0.199101 0.909857 -0.380989 -0.164341 
-0.027791 0.4318 -0.193772 0.6029 -0.750738 -0.270009 
-0.011346 0.435753 -0.18884 0.0349026 -0.945267 -0.324425 
-0.00198 0.434772 -0.18679 -0.0316516 -0.946564 -0.320958 
0.008436 0.386716 -0.223239 -0.202397 0.705715 0.678971 
0.025877 0.39351 -0.219746 -0.539799 0.726098 0.42591 
0.03308 0.398581 -0.21687 -0.741331 0.605151 0.290209 
0.038486 0.407205 -0.211136 -0.96941 0.232192 0.079566 
0.039089 0.416224 -0.204303 -0.994812 -0.072914 -0.0709463 
0.036645 0.424368 -0.199101 -0.91113 -0.369992 -0.181518 
0.029569 0.4318 -0.193772 -0.607698 -0.733704 -0.303943 
0.013125 0.435753 -0.18884 -0.041489 -0.935855 -0.349934 
0.003758 0.434772 -0.18679 0.0301887 -0.944031 -0.328472 
-0.003476 0.352017 -0.166947 0.580834 0.303804 0.755205 
-0.007379 0.351443 -0.163164 0.621175 0.0628946 0.781144 
-0.023664 0.358192 -0.155194 0.601055 -0.0569612 0.797175 
-0.033251 0.368836 -0.145887 0.542898 0.206562 0.813998 
-0.034983 0.378056 -0.139017 0.0442438 -0.871639 -0.488147 
-0.022798 0.399742 -0.125183 0.771753 -0.520166 -0.365822 
-0.008405 0.404645 -0.122297 0.297605 -0.937068 -0.18258 
0.004671 0.406304 -0.118153 -0.237937 -0.970926 -0.0262583 
0.005254 0.352017 -0.166947 -0.493805 0.503238 0.70916 
0.009158 0.351443 -0.163164 -0.579144 0.448443 0.680802 
0.025443 0.358192 -0.155194 -0.721583 0.332343 0.607343 
0.035029 0.368836 -0.145887 -0.643518 0.361222 0.674836 
0.036761 0.378056 -0.139017 -0.0437917 -0.854021 -0.518393 
0.024577 0.399742 -0.125183 -0.787345 -0.592915 -0.168937 
0.010184 0.404645 -0.122297 -0.253608 -0.964132 -0.078309 
-0.002893 0.406304 -0.118153 0.267188 -0.961012 -0.0711872 
-0.005977 0.447397 -0.346495 0.234597 -0.800245 0.55188 
-0.020825 0.447774 -0.338399 0.359154 -0.668807 0.650926 
-0.032729 0.447535 -0.326807 0.723344 -0.497372 0.478952 
-0.040046 0.445396 -0.314227 0.87919 -0.362295 0.309463 
-0.045056 0.440303 -0.29914 0.96895 -0.215392 0.121415 
-0.045114 0.420446 -0.255617 0.948931 0.199823 -0.244133 
-0.037232 0.413224 -0.218403 0.987373 0.146626 0.0599579 
-0.035126 0.40296 -0.175472 0.994365 -0.0571707 0.0892713 
-0.038478 0.391246 -0.15646 0.994045 0.106905 -0.0211301 
-0.031623 0.376061 -0.135484 0.080054 -0.915709 -0.393787 
0.007755 0.447397 -0.346495 -0.143339 -0.869562 0.472562 
0.022603 0.447774 -0.338399 -0.268319 -0.882847 0.385468 
0.034507 0.447535 -0.326807 -0.442729 -0.857405 0.262387 
0.041824 0.445396 -0.314227 -0.629994 -0.772152 0.0830064 
0.046834 0.440303 -0.29914 -0.792722 -0.607196 -0.0538927 
0.046892 0.420446 -0.255617 -0.934641 0.290759 -0.204707 
0.03901 0.413224 -0.218403 -0.98765 0.148094 0.051147 
0.036905 0.40296 -0.175472 -0.987813 -0.151474 0.0357986 
0.040256 0.391246 -0.15646 -0.989362 -0.0754063 -0.124405 
0.033401 0.376061 -0.135484 -0.104521 -0.921415 -0.37426 
-0.031082 0.377989 -0.139615 -0.0579997 -0.884875 -0.462204 
-0.035289 0.371536 -0.12817 0.548413 -0.768936 -0.328605 
-0.039747 0.360402 -0.117137 0.890536 -0.372248 -0.261492 
-0.045905 0.326336 -0.097386 0.742287 -0.668216 0.0499618 
-0.055035 0.309967 -0.094266 0.799394 0.536415 -0.270608 
0.032861 0.377989 -0.139615 0.0498259 -0.870423 -0.489777 
0.037067 0.371536 -0.12817 -0.612845 -0.740929 -0.274675 
0.041526 0.360402 -0.117137 -0.919669 -0.322686 -0.22379 
0.047684 0.326336 -0.097386 -0.717488 -0.695554 0.0376138 
0.056814 0.309967 -0.094266 -0.793499 0.547015 -0.266708 
-0.053061 0.309727 -0.091494 0.479701 0.658991 -0.579325 
-0.050843 0.308335 -0.074548 0.892654 0.436642 0.111857 
-0.045027 0.302876 -0.059763 0.887541 0.42261 -0.183499 
-0.034401 0.286557 -0.041097 0.671279 0.736325 -0.084907 
-0.034119 0.280635 -0.037204 0.384209 -0.689143 0.614382 
-0.036403 0.279419 -0.038733 0.0249279 -0.951986 0.305126 
0.054839 0.309727 -0.091494 -0.475651 0.668608 -0.571594 
0.052621 0.308335 -0.074548 -0.869947 0.477555 0.12302 
0.046805 0.302876 -0.059763 -0.850242 0.516665 -0.100726 
0.036179 0.286557 -0.041097 -0.655129 0.753555 -0.0544093 
0.035898 0.280635 -0.037204 -0.378796 -0.688373 0.618592 
0.038182 0.279419 -0.038733 -0.0226419 -0.949302 0.313549 
-0.089593 -0.192553 -0.026085 0.910365 -0.366024 -0.193032 
-0.077239 -0.190834 0.005176 0.93546 -0.0466654 -0.350338 
-0.068425 -0.192113 0.032185 0.956232 -0.137141 -0.258483 
-0.065608 -0.192914 0.045557 0.92947 -0.323436 -0.177409 
-0.06354 -0.194769 0.072611 0.77199 -0.63398 -0.0458385 
-0.06427 -0.19579 0.091054 0.935066 -0.338692 0.104596 
-0.068499 -0.195885 0.119457 0.971353 0.102809 0.214251 
-0.077008 -0.194357 0.148374 0.979487 -0.118387 0.163062 
-0.0828 -0.196863 0.168272 0.659833 -0.521121 0.541344 
-0.086205 -0.195705 0.172805 0.461906 -0.739043 0.490365 
0.091372 -0.192553 -0.026085 -0.908666 -0.368415 -0.196457 
0.079017 -0.190834 0.005176 -0.935086 -0.0622548 -0.34891 
0.070203 -0.192113 0.032185 -0.961502 -0.0845635 -0.261465 
0.067386 -0.192914 0.045557 -0.974495 -0.158198 -0.159163 
0.065318 -0.194769 0.072611 -0.965571 -0.258151 -0.0321171 
0.066049 -0.19579 0.091054 -0.991276 0.0459332 0.123537 
0.070277 -0.195885 0.119457 -0.962674 0.179411 0.202659 
0.078787 -0.194357 0.148374 -0.978735 -0.119103 0.16701 
0.084579 -0.196863 0.168272 -0.661656 -0.51498 0.544984 
0.087984 -0.195705 0.172805 -0.472952 -0.736081 0.484253 
