ply
format ascii 1.0
element vertex 817
property float x
property float y
property float z
property float nx
property float ny
property float nz
end_header
0.133136 0.100093 -0.208432 0.837361 0.461011 -0.293763 
-0.0710092 0.0617231 0.166342 0.0598139 0.877429 0.475964 
0.167767 -0.125408 -0.0181719 0.86232 0.506364 0.000675649 
-0.168522 -0.0861959 -0.360296 -0.839347 0.236154 -0.489621 
-0.11248 0.0640702 0.163631 -0.188676 0.663364 0.72412 
-0.047927 -0.119567 -0.43515 -0.122647 0.300224 -0.945951 
0.151585 0.040535 0.0633483 0.996527 -0.0400544 0.073001 
0.152073 0.011637 -0.231827 0.936218 0.293776 -0.192849 
0.177984 -0.0591638 0.381118 0.698705 0.409528 0.586599 
0.171588 -0.118856 0.193619 0.794789 0.581678 -0.173092 
0.0864017 -0.0407344 0.406744 -0.359141 0.535424 0.764421 
-0.157314 0.0435127 -0.104304 -0.996306 0.0573498 -0.0639133 
0.143501 -0.0569005 0.409964 0.441164 0.0796653 0.893883 
0.157314 0.0435127 -0.104304 0.996306 0.0573498 -0.0639133 
0.168506 -0.125086 0.0489625 0.749713 0.661355 -0.0232342 
0.150655 0.0399548 0.0750506 0.995429 -0.0502589 0.0812057 
-0.0417271 -0.104101 0.44059 -0.0646913 0.00186658 0.997904 
-0.179621 -0.0464575 0.368225 -0.71211 0.503449 0.489325 
-0.077875 -0.0698594 -0.404321 -0.403034 0.513481 -0.757563 
0.114108 0.12773 0.115382 0.562554 0.668045 0.487082 
-0.0983106 0.0522479 -0.309493 -0.523197 0.532637 -0.665255 
-0.100237 -0.104829 0.433936 -0.181047 0.291326 0.939335 
0.121139 0.0822815 0.149775 0.422835 0.512024 0.747691 
0.0386779 -0.0892575 0.439919 0.216746 0.170439 0.961234 
-0.10661 0.00646846 -0.336145 -0.718135 0.449903 -0.530914 
0.17842 -0.0211668 -0.25246 0.753251 0.657728 -0.00274271 
0.0426993 0.124727 -0.251975 0.169429 0.81226 -0.558147 
-0.156028 0.0432972 -0.122568 -0.996062 0.0439353 -0.0770059 
-0.170478 -0.125024 -0.141346 -0.807163 0.589837 -0.0241019 
0.0639889 -0.11914 -0.43289 0.122884 0.344289 -0.930787 
-0.0660376 0.149605 0.111102 -0.141594 0.826443 0.544924 
-0.154397 0.0426852 0.0163901 -0.998155 0.0383544 0.0470654 
0.149221 0.0405041 -0.193505 0.968671 0.225629 -0.103771 
-0.0865642 -0.0243052 0.382669 0.523803 0.776185 0.350953 
-0.159802 -0.00277449 -0.205601 -0.947295 0.320284 0.00717118 
0.137661 -0.0163073 0.220835 0.94737 0.298791 -0.114955 
0.0312143 0.0665843 -0.318171 0.146368 0.788239 -0.597708 
0.160948 -0.0815475 -0.369203 0.752847 0.285431 -0.593086 
-0.17841 -0.0234221 -0.269603 -0.788029 0.597039 -0.150183 
0.132277 0.12376 0.063419 0.843419 0.527976 0.099428 
-0.139167 0.0770026 0.130687 -0.886999 0.279692 0.36743 
-0.179754 -0.0410559 -0.207059 -0.824963 0.416049 0.382543 
0 -0.0518238 0.435619 -2.4089e-08 0.332439 0.943125 
-0.140007 0.0138914 -0.272389 -0.786589 0.526846 -0.322041 
0.122344 0.0911438 0.142641 0.489104 0.532799 0.690582 
0.168262 -0.103698 -0.369595 0.833603 0.27227 -0.480598 
-0.165618 -0.00976653 0.322282 -0.648649 0.746427 0.148664 
0.143618 -0.081982 0.180887 0.982101 0.101396 -0.158733 
-0.145328 -0.0315692 -0.34812 -0.396976 0.75503 -0.521862 
-0.145399 0.106306 -0.0700576 -0.959297 0.281574 0.0215831 
-0.148361 -0.108742 0.129309 -0.817256 0.571586 0.0733639 
-0.151947 -0.107691 0.0904087 -0.800573 0.593874 0.0799831 
-0.153511 -0.107259 0.0709497 -0.8261 0.55856 0.0746306 
-0.112927 -0.0153934 0.400424 0.196051 0.836016 0.512485 
-0.0138066 -0.0961347 0.443594 -0.046084 -0.0826534 0.995512 
-0.142302 -0.0533401 0.195378 -0.955128 0.190684 -0.226648 
-0.0378345 0.173474 -0.0562192 -0.114426 0.993339 0.0135618 
-0.107333 -0.0218494 -0.355139 -0.441402 0.561387 -0.700006 
-0.150226 -0.108188 0.109862 -0.79038 0.605173 0.0952125 
0.0978444 -0.0470677 0.411858 -0.139543 0.248965 0.958407 
0 0.172763 -0.131258 -5.3445e-12 0.986829 -0.161765 
0 -0.0736751 0.441424 -2.28173e-08 0.17149 0.985186 
-0.0845588 -0.0618889 -0.395117 -0.394469 0.53786 -0.745051 
0.112471 0.00381399 0.340398 -0.517436 0.845885 0.129381 
0 0.0606837 0.244461 -2.74995e-10 0.998298 0.0583185 
0.129308 0.0972378 -0.222078 0.798186 0.48631 -0.355531 
0.137579 0.129364 -0.0243895 0.904923 0.418494 0.077309 
0.148268 0.086793 -0.0416815 0.978785 0.198141 0.0521592 
-0.168262 -0.103698 -0.369595 -0.833603 0.27227 -0.480598 
-0.157136 -0.106428 0.0125179 -0.906018 0.420752 0.0458199 
0.0465821 0.15121 0.111999 0.0478003 0.842139 0.537138 
-0.177206 -0.1079 0.211077 -0.770432 0.120665 -0.625999 
-0.162172 -0.0896178 0.408421 -0.457732 0.305358 0.835008 
-0.0746536 -0.048077 0.407843 0.159147 0.659798 0.734397 
-0.172066 -0.0985631 -0.35991 -0.862956 0.232985 -0.448358 
0.174806 -0.123328 0.183275 0.661202 0.750034 -0.0161407 
-0.136478 0.123364 -0.116108 -0.842414 0.527832 -0.108314 
0.105536 -0.00765249 0.37261 -0.488848 0.823362 0.288274 
0.173384 -0.1237 0.160866 0.399653 0.915875 -0.0381004 
0.0426048 0.0612038 0.16599 0.0127593 0.939134 0.343315 
-0.117914 0.130009 0.105691 -0.657217 0.679434 0.326242 
0.151102 0.0406701 -0.17616 0.984083 0.140697 -0.108555 
0.143535 0.0427824 0.133313 0.979945 0.0460165 0.193882 
-0.0161997 -0.119945 -0.438615 -0.0619627 0.266665 -0.961795 
-0.170033 -0.125106 -0.130142 -0.803619 0.593378 0.0458211 
0.102918 -0.0148618 0.388083 -0.502691 0.824934 0.258428 
-0.115875 -0.00733724 -0.335185 -0.667538 0.505998 -0.546223 
0.0906598 0.0675468 -0.300846 0.319979 0.645365 -0.693626 
-0.0386779 -0.0892575 0.439919 -0.216746 0.170439 0.961234 
0.157419 0.0431612 -0.0499266 0.982407 0.165345 0.0868226 
0.0660376 0.149605 0.111102 0.141594 0.826443 0.544924 
-0.135361 0.0111699 -0.286379 -0.725812 0.568308 -0.387586 
0.135361 0.0111699 -0.286379 0.725812 0.568308 -0.387586 
0.151517 0.0300593 -0.213742 0.929903 0.356258 -0.0914337 
0.077875 -0.0698594 -0.404321 0.403034 0.513481 -0.757563 
0.148203 0.0958152 -0.0698889 0.968574 0.243525 0.05059 
0 -0.0861394 -0.431212 -2.63318e-11 0.21526 -0.976557 
-0.14264 -0.0128122 0.144569 -0.997954 0.00186591 0.0639138 
0 0.134901 -0.240847 1.14869e-11 0.921301 -0.38885 
-0.0864017 -0.0407344 0.406744 0.359141 0.535424 0.764421 
-0.124277 0.0948906 -0.235624 -0.751144 0.528234 -0.395918 
0.0263972 -0.0959978 -0.431637 0.11616 0.235277 -0.964962 
0.06722 -0.0613856 0.418825 0.139256 0.574084 0.806868 
0.148501 0.0394029 0.0980542 0.993175 -0.0520983 0.104356 
0.070875 0.109123 -0.262991 0.218534 0.755709 -0.617371 
-0.119365 -0.0647624 0.416909 -0.0913493 0.188106 0.977891 
0 -0.0131901 -0.403422 -4.13547e-11 0.502853 -0.864372 
0.0586217 -0.0734887 0.428256 0.232945 0.461698 0.855904 
0.140849 0.072008 -0.216912 0.949064 0.233021 -0.212082 
-0.158274 0.0433184 -0.0874485 -0.995047 0.0877899 -0.0466292 
0.119063 0.0915386 -0.249078 0.697882 0.564188 -0.441195 
-0.154898 0.0429749 0.00487149 -0.996942 0.0656706 0.0423586 
0.0802363 -0.118491 -0.430454 0.126255 0.397328 -0.90895 
0 0.165091 -0.163502 -7.66338e-12 0.955988 -0.293407 
0.143868 -0.0956614 0.164898 0.993054 -0.116653 0.0153758 
0.168405 -0.0159329 -0.284857 0.690649 0.690358 -0.21543 
-0.143501 -0.0569005 0.409964 -0.441164 0.0796653 0.893883 
0.126708 0.0228359 0.235329 0.894093 0.426188 0.137697 
-0.131649 0.00388287 0.245755 -0.948014 0.315913 0.0383305 
0.10661 0.00646846 -0.336145 0.718135 0.449903 -0.530914 
-0.134705 0.110693 -0.179658 -0.847285 0.504898 -0.164882 
-0.0188453 0.0677314 -0.319281 -0.102686 0.809653 -0.577856 
0.13309 0.125549 0.0459451 0.849992 0.519299 0.0885529 
-0.134709 0.104963 -0.194454 -0.853028 0.473003 -0.220481 
-0.158572 -0.106315 -0.0264832 -0.929917 0.366967 0.0242839 
-0.118748 0.118527 0.121189 -0.596075 0.588216 0.546532 
0 0.0257491 0.373367 -7.33101e-09 0.833021 0.553241 
-0.0426048 0.0612038 0.16599 -0.0127593 0.939134 0.343315 
-0.11694 0.0542135 0.181729 -0.402817 0.876309 0.264236 
-0.139 0.126961 -0.0729249 -0.888669 0.457447 -0.031784 
0.135379 0.127796 0.00969915 0.873582 0.479209 0.0849331 
0 0.159793 -0.179353 -7.99931e-12 0.941313 -0.337535 
-0.134172 0.126781 0.0279316 -0.860063 0.503058 0.0849993 
-0.15759 -0.0123689 0.354012 -0.669849 0.684416 0.287883 
0.154454 0.0167755 -0.217124 0.97159 0.151523 -0.181808 
-0.178961 -0.0405172 -0.301263 -0.875053 0.379791 -0.300067 
0 -0.0314146 0.42652 -1.98723e-08 0.477988 0.878366 
0 0.0577193 0.278198 -1.12432e-09 0.992437 0.122752 
0.17327 -0.110021 -0.159811 0.717326 0.103184 0.689054 
0.122287 0.0399946 0.208664 0.717415 0.653796 0.240555 
-0.159292 -0.106794 -0.0850378 -0.919118 0.393784 -0.0125195 
0.179754 -0.0410559 -0.207059 0.824963 0.416049 0.382543 
-0.158995 -0.106393 -0.0459952 -0.932277 0.361506 0.0131899 
0.174969 -0.0905335 -0.349789 0.889176 0.213644 -0.404626 
-0.0561138 0.0641144 -0.314684 -0.170347 0.747494 -0.642055 
-0.013456 -0.0982797 -0.433325 -0.0579195 0.217639 -0.974309 
0.168053 -0.125411 -0.0517518 0.875063 0.483847 0.0125702 
-0.00956173 0.151138 0.111669 0.0628056 0.923166 0.379236 
-0.155739 0.0432672 -0.0167899 -0.991662 0.123231 0.0376813 
-0.174969 -0.0905335 -0.349789 -0.889176 0.213644 -0.404626 
-0.178715 -0.0634466 0.230093 -0.553514 0.385369 -0.738318 
-0.137435 0.0862508 0.126848 -0.853838 0.355478 0.380257 
-0.1435 -0.0812923 0.161576 -0.997494 0.0655327 0.0266828 
0.168824 -0.124985 0.060149 0.715841 0.697748 -0.0268148 
-0.108842 0.08076 -0.275023 -0.579834 0.597256 -0.554146 
-0.0312143 0.0665843 -0.318171 -0.146368 0.788239 -0.597708 
0.178388 -0.0780029 0.22306 0.597969 0.306605 -0.740558 
-0.143295 -0.0724944 0.185451 -0.97302 0.131327 -0.189696 
0.132151 0.116692 0.0939153 0.835565 0.522794 0.168872 
0.132989 0.0546568 0.156159 0.773391 0.397595 0.493746 
0.142577 0.056287 0.132904 0.956414 0.109549 0.270688 
-0.101226 -0.0225973 0.403122 0.494756 0.640302 0.587563 
-0.0191685 0.174941 -0.0560938 -0.0481004 0.998459 0.0276737 
0.049158 -0.0827794 0.43534 0.257728 0.34319 0.903215 
0.146467 -0.0712891 0.410444 0.416364 0.18356 0.890476 
-0.179015 -0.0239555 -0.235873 -0.762805 0.625561 0.163711 
-0.150769 0.0852433 -0.0700179 -0.972333 0.224354 0.0650717 
0.134709 0.104963 -0.194454 0.853028 0.473003 -0.220481 
-0.103533 -0.00207158 0.338063 0.559753 0.823578 0.0916305 
0.169658 -0.125171 -0.11894 0.83698 0.546516 0.0280307 
-0.173384 -0.1237 0.160866 -0.399653 0.915875 -0.0381004 
0.142833 -0.0027948 0.14197 0.997687 -0.00588669 0.0677251 
-0.108897 -0.00520996 -0.342442 -0.696255 0.395583 -0.598952 
0.15163 -0.0250081 -0.332723 0.463344 0.755707 -0.462839 
-0.06722 -0.0613856 0.418825 -0.139256 0.574084 0.806868 
0.142337 0.116692 -0.0709451 0.967177 0.253968 -0.00823936 
-0.155229 0.0640093 -0.0707208 -0.982073 0.180195 0.0553359 
0 0.0279382 -0.371869 -1.90874e-11 0.701923 -0.712253 
0.0746536 -0.048077 0.407843 -0.159147 0.659798 0.734397 
-0.151643 -0.0230918 0.385099 -0.719518 0.597938 0.35322 
-0.147278 0.0412988 -0.210927 -0.958295 0.278773 -0.062897 
-0.147264 0.0396864 0.109055 -0.991651 -0.0401479 0.122542 
-0.111756 -0.104548 0.431402 -0.216608 0.296134 0.930261 
-0.111196 -0.0143125 -0.345979 -0.588343 0.49184 -0.64183 
0.17841 -0.0234221 -0.269603 0.788029 0.597039 -0.150183 
0.138393 0.126152 -0.0847631 0.874677 0.475749 -0.0927543 
-0.168062 -0.12524 0.0265876 -0.803209 0.595487 -0.0158128 
0 -0.0217999 0.420799 -1.74821e-08 0.543527 0.839392 
-0.13205 0.00872997 -0.295672 -0.692303 0.584779 -0.422789 
0.11973 0.0474175 0.195016 0.583201 0.753966 0.302345 
-0.17327 -0.110021 -0.159811 -0.717326 0.103184 0.689054 
0.102829 0.0747402 -0.28671 0.493765 0.604936 -0.624698 
-0.0426993 0.124727 -0.251975 -0.169429 0.81226 -0.558147 
0 -0.0364154 -0.415123 -4.59459e-11 0.398188 -0.917304 
0.119419 0.009062 0.30642 -0.292904 0.951778 0.0912519 
-0.157419 0.0431612 -0.0499266 -0.982407 0.165345 0.0868226 
0.154522 -0.0168522 0.369692 0.675399 0.640778 0.365021 
-0.146467 -0.0712891 0.410444 -0.416364 0.18356 0.890476 
0.170952 -0.124361 0.116088 0.470325 0.881846 -0.0337945 
0.148361 -0.108742 0.129309 0.817256 0.571586 0.0733639 
0.114019 0.0866756 -0.262308 0.641788 0.585446 -0.495339 
-0.152073 0.011637 -0.231827 -0.936218 0.293776 -0.192849 
-0.177984 -0.0591638 0.381118 -0.698705 0.409528 0.586599 
0.139243 -0.0250372 0.213582 0.945854 0.278623 -0.166521 
-0.170923 -0.124943 -0.15255 -0.875909 0.404728 0.262637 
0 0.0621089 0.165484 -1.92215e-11 0.996148 0.0876873 
-0.148268 0.086793 -0.0416815 -0.978785 0.198141 0.0521592 
-0.157955 -0.106326 -0.00697825 -0.921287 0.387306 0.0349938 
-0.144211 -0.110009 0.168194 -0.805428 0.510958 -0.300347 
0.15311 0.0746245 -0.0702492 0.976782 0.203395 0.0672924 
-0.0975547 -0.0080322 0.353631 0.528246 0.836044 0.14828 
-0.139304 0.0480321 0.147271 -0.929462 0.191619 0.315251 
0 0.0619747 0.210639 1.1086e-11 0.999771 0.0213867 
0.0888346 0.0872946 -0.281609 0.279396 0.712969 -0.643127 
0.155632 0.00690734 -0.219699 0.957893 0.243168 -0.152675 
0.135598 0.12129 -0.132519 0.838056 0.53301 -0.11646 
0.111196 -0.0143125 -0.345979 0.588343 0.49184 -0.64183 
0.142302 -0.0533401 0.195378 0.955128 0.190684 -0.226648 
0 0.169938 0.0225644 -5.34287e-11 0.991924 0.126835 
-0.142539 -0.022819 0.147195 -0.997927 0.011508 0.0633184 
-0.168405 -0.0159329 -0.284857 -0.690649 0.690358 -0.21543 
0.159232 -0.106555 -0.0655143 0.928641 0.370951 0.00465814 
-0.133008 0.110842 0.105311 -0.82864 0.504812 0.241911 
0.123056 -0.103575 0.428207 0.256315 0.295431 0.920339 
-0.153791 -0.095151 0.414516 -0.393636 0.294938 0.870668 
0 0.175394 -0.0560479 -6.25287e-12 0.999457 0.0329379 
-0.164989 -0.116394 -0.147814 -0.800946 0.485838 0.349924 
-0.00906192 0.131415 -0.248465 -0.032194 0.892153 -0.450585 
-0.170457 -0.124502 0.104899 -0.529289 0.847748 -0.0343062 
-0.158747 0.0430323 -0.0738177 -0.992473 0.12197 -0.0110198 
0 -0.00388361 0.407255 -1.32004e-08 0.657855 0.753144 
0.0191685 0.174941 -0.0560938 0.0481004 0.998459 0.0276737 
-0.150435 0.0759191 -0.0419225 -0.979733 0.191562 0.0585339 
0.13472 0.115158 -0.164207 0.841846 0.521917 -0.137469 
0.177206 -0.1079 0.211077 0.770432 0.120665 -0.625999 
0.150226 -0.108188 0.109862 0.79038 0.605173 0.0952125 
-0.168506 -0.125086 0.0489625 -0.749713 0.661355 -0.0232342 
0 0.0192039 0.382553 -8.4966e-09 0.794865 0.606787 
0.121066 0.109224 0.12809 0.571566 0.562565 0.597354 
0.151947 -0.107691 0.0904087 0.800573 0.593874 0.0799831 
-0.135811 0.0951997 0.12129 -0.829807 0.417993 0.369733 
0 0.162693 0.0646261 -5.06212e-11 0.977674 0.210126 
0.154397 0.0426852 0.0163901 0.998155 0.0383543 0.0470654 
0.139167 0.0770026 0.130687 0.886999 0.279692 0.36743 
-0.16396 -0.0769698 -0.159499 -0.818646 0.19037 0.541829 
-0.15163 -0.0250081 -0.332723 -0.463344 0.755707 -0.462839 
-0.105536 -0.00765249 0.37261 0.488848 0.823362 0.288274 
0 0.174841 -0.0412806 -8.35278e-12 0.99912 0.0419535 
0.115875 -0.00733724 -0.335185 0.667538 0.505998 -0.546223 
0.159802 -0.00277449 -0.205601 0.947295 0.320284 0.00717118 
0.14263 -0.0426065 0.152286 0.997792 0.0279632 0.0602393 
0 0.0120609 0.391296 -9.84326e-09 0.75307 0.657941 
0.156667 0.0432901 -0.0386208 0.983943 0.171471 0.0495292 
0.10376 0.0181778 -0.330183 0.704602 0.44859 -0.549821 
0.153169 0.0417669 0.0398449 0.998231 -0.00747824 0.0589815 
-0.124416 -0.113204 -0.417958 -0.314189 0.473867 -0.822639 
0.169963 -0.124642 0.0937096 0.583782 0.811244 -0.0329001 
-0.163058 -0.0154207 -0.193867 -0.928707 0.32351 0.18123 
0.140967 0.0672872 0.132548 0.923476 0.191725 0.332315 
0.0740504 0.165556 -0.0561954 0.324683 0.94544 -0.0269089 
-0.124593 -0.0723028 -0.390927 -0.235986 0.501951 -0.832079 
-0.145895 0.0404979 0.119414 -0.989465 -0.0170483 0.143768 
-0.10376 0.0181778 -0.330183 -0.704602 0.44859 -0.549821 
0.150435 0.0759191 -0.0419225 0.979733 0.191562 0.0585339 
0.113203 -0.0657293 -0.389342 0.128469 0.527219 -0.839962 
-0.0388783 -0.0924762 -0.428802 -0.177314 0.269903 -0.946421 
0.111756 -0.104548 0.431402 0.216608 0.296134 0.930261 
-0.168205 -0.125398 -0.0629463 -0.874605 0.484573 0.0159413 
0.178961 -0.0405172 -0.301263 0.875053 0.379791 -0.300067 
-0.0993014 0.0644173 0.165122 -0.00972454 0.768666 0.639577 
0.106757 -0.0581713 0.415758 -0.0396529 0.253468 0.966531 
0 -0.0414303 0.431472 -2.22028e-08 0.407614 0.913154 
0 -0.0608593 -0.424289 -3.5197e-11 0.305459 -0.952205 
-0.16123 -0.00995992 0.338154 -0.665758 0.710382 0.228308 
-0.16794 -0.125294 0.0153984 -0.823422 0.567308 -0.0117502 
0.139304 0.0480321 0.147271 0.929462 0.191619 0.315251 
-0.0262488 0.129213 -0.249503 -0.120957 0.853384 -0.507056 
0.080963 -0.0353354 0.395767 -0.467243 0.755158 0.459805 
0.142539 -0.022819 0.147195 0.997927 0.0115099 0.0633179 
-0.0534735 -0.103871 0.439726 -0.0793361 0.1184 0.989792 
0.123389 0.139541 -0.0557132 0.488645 0.870165 -0.0635517 
0.147264 0.0396864 0.109055 0.991651 -0.0401478 0.122542 
-0.113203 -0.0657293 -0.389342 -0.128469 0.527219 -0.839962 
-0.0267637 -0.0937001 0.442504 -0.138676 0.000456262 0.990338 
-0.153824 0.0422808 0.0280879 -0.998517 0.0138429 0.0526456 
-0.108843 -0.00126358 0.356721 0.490407 0.851462 0.185777 
-0.142847 -0.0862763 -0.390877 -0.539056 0.450257 -0.71182 
0.137238 0.0887349 -0.211851 0.902125 0.338008 -0.268183 
-0.049158 -0.0827794 0.43534 -0.257728 0.34319 0.903215 
0.0144026 0.061912 0.165571 0.0233088 0.987281 0.157268 
0.125875 0.0104166 0.271961 0.626706 0.773549 0.0941373 
0.154906 -0.106899 0.0514818 0.856298 0.512298 0.065612 
0.146006 0.0976431 -0.0413627 0.97761 0.205271 0.0462957 
0.12218 0.100087 0.13537 0.533685 0.556223 0.637022 
0.158034 -0.108032 -0.388313 0.760969 0.354757 -0.543207 
0.145399 0.106306 -0.0700576 0.959297 0.281574 0.0215831 
-0.148652 -0.0308354 0.400225 -0.697257 0.410071 0.58794 
0 0.0455384 -0.352511 -1.09091e-11 0.774477 -0.632603 
0.0886041 -0.104631 0.43591 0.149519 0.277723 0.948954 
-0.169553 -0.124764 0.082523 -0.632804 0.773658 -0.0318292 
0 0.0536334 -0.342108 -1.05144e-11 0.801983 -0.597347 
-0.144069 -0.109406 -0.404643 -0.568903 0.440126 -0.694722 
0.155339 0.043163 -0.00627533 0.994719 0.0946424 0.0396992 
-0.136573 0.128691 -0.0081792 -0.890069 0.449438 0.0760395 
-0.177065 -0.0807731 -0.175926 -0.78666 0.247272 0.565705 
0.16123 -0.00995992 0.338154 0.665758 0.710382 0.228308 
0.142539 -0.0327578 0.149779 0.997808 0.0211121 0.0627168 
0.0769177 -0.104236 0.437455 0.121238 0.25061 0.960467 
-0.149221 0.0405041 -0.193505 -0.968671 0.225629 -0.103771 
-0.165472 -0.0612531 -0.167386 -0.842412 0.193469 0.502904 
0.0505788 -0.0880018 -0.424744 0.242156 0.326708 -0.913577 
0.13839 -0.0399273 -0.363356 0.331359 0.688041 -0.645601 
0.133975 -0.101781 0.42432 0.29864 0.292753 0.908355 
0 0.16846 0.0331964 -5.68211e-11 0.988885 0.148684 
0.14154 -0.0437474 0.200912 0.948745 0.222482 -0.224467 
0.137479 0.124962 -0.0997539 0.854351 0.510842 -0.0955216 
0.118821 -0.0486493 -0.376436 0.0945097 0.635602 -0.766211 
0.165927 -0.0454817 -0.175435 0.875404 0.231768 0.424207 
0.131912 0.120946 0.0797317 0.839362 0.529283 0.123821 
-0.126708 0.0228359 0.235329 -0.894093 0.426188 0.137697 
-0.176361 -0.122928 0.205697 -0.896299 0.313495 -0.313638 
0.140533 -0.0342599 0.206954 0.945705 0.252865 -0.204207 
0.167833 -0.125416 -0.0293646 0.869129 0.494561 0.00490294 
0.150769 0.0852433 -0.0700179 0.972333 0.224354 0.0650717 
0.157136 -0.106428 0.0125179 0.906018 0.420752 0.0458199 
-0.15311 0.0746245 -0.0702492 -0.976782 0.203395 0.0672924 
-0.123389 0.139541 -0.0557132 -0.488645 0.870165 -0.0635517 
-0.157114 0.0534621 -0.0718008 -0.985254 0.168947 0.0270373 
0.00641805 -0.105074 0.442088 0.0105095 -0.256164 0.966576 
-0.114019 0.0866756 -0.262308 -0.641788 0.585446 -0.495339 
0.179621 -0.0464575 0.368225 0.71211 0.503449 0.489325 
0.131649 0.00388287 0.245755 0.948014 0.315913 0.0383305 
0.140525 -0.0195799 0.398192 0.521421 0.680304 0.515079 
0.1679 -0.125424 -0.0405573 0.873347 0.487022 0.00866847 
0 0.0621566 0.199358 4.39203e-11 0.999955 0.00947272 
0.0845588 -0.0618889 -0.395117 0.394469 0.53786 -0.745051 
-0.137579 0.129364 -0.0243895 -0.904923 0.418494 0.077309 
0.0138066 -0.0961347 0.443594 0.046084 -0.0826534 0.995512 
-0.142794 -0.0523669 0.154707 -0.997918 0.0347003 0.0543736 
-0.169142 -0.124885 0.0713356 -0.676968 0.735437 -0.0290863 
-0.132151 0.116692 0.0939153 -0.835565 0.522794 0.168872 
0 0.0612762 -0.331262 -1.10014e-11 0.836743 -0.547596 
0.136478 0.123364 -0.116108 0.842414 0.527832 -0.108314 
0 0.0542365 0.300492 -2.06291e-09 0.981869 0.189558 
-0.168976 -0.125285 -0.0965396 -0.858339 0.512466 0.025162 
0.178876 -0.0530954 -0.314899 0.900493 0.292547 -0.321759 
-0.175333 -0.0952835 -0.167576 -0.770463 0.258495 0.582724 
0.143609 0.108433 -0.040794 0.971665 0.231842 0.0459991 
-0.032039 -0.119821 -0.437164 -0.104957 0.274702 -0.955784 
-0.178716 -0.0302172 -0.286128 -0.837948 0.484218 -0.251747 
-0.16867 -0.125335 -0.0853398 -0.866381 0.49887 0.0226424 
0.143128 -0.066872 0.158191 0.998596 0.0268488 0.0456602 
0.0561138 0.0641144 -0.314684 0.170347 0.747494 -0.642055 
0.177065 -0.0807731 -0.175926 0.78666 0.247272 0.565705 
0.147208 -0.063942 -0.375164 0.576021 0.369533 -0.72914 
0.143295 -0.0724944 0.185451 0.97302 0.131327 -0.189696 
-0.0906598 0.0675468 -0.300846 -0.319979 0.645365 -0.693626 
0.00650018 0.0683848 -0.319901 0.0398711 0.827947 -0.559387 
0.032039 -0.119821 -0.437164 0.104957 0.274702 -0.955784 
0.169553 -0.124764 0.082523 0.632804 0.773658 -0.0318292 
0 0.03167 0.363786 -6.31477e-09 0.867383 0.497641 
0.11694 0.0542135 0.181729 0.402817 0.876309 0.264236 
-0.121066 0.109224 0.12809 -0.571566 0.562565 0.597354 
-0.138204 0.12964 -0.0371214 -0.90635 0.422391 -0.0107581 
0.168062 -0.12524 0.0265876 0.803209 0.595487 -0.0158128 
0 0.0599296 0.255725 -4.7958e-10 0.997117 0.0758836 
0.065204 -0.103923 0.438697 0.0966182 0.201309 0.974751 
-0.135811 -0.0083607 0.228689 -0.948587 0.311124 -0.0581706 
0.164667 -0.11533 0.183286 0.613271 0.75386 -0.235783 
0.138204 0.12964 -0.0371214 0.90635 0.422391 -0.0107581 
0 0.141316 -0.225719 -4.53412e-12 0.92132 -0.388805 
-0.159232 -0.106555 -0.0655143 -0.928641 0.370951 0.00465814 
0.103533 -0.00207158 0.338063 -0.559753 0.823578 0.0916305 
0 0.174372 -0.0309921 -1.13539e-11 0.998779 0.0493992 
0.119365 -0.0647624 0.416909 0.0913493 0.188106 0.977891 
0.104981 -0.0698788 -0.393422 0.166158 0.557257 -0.813545 
0.177883 -0.0928983 0.216825 0.667244 0.2688 -0.694645 
0.134172 0.126781 0.0279316 0.860063 0.503058 0.0849993 
0.0993014 0.0644173 0.165122 0.00972454 0.768666 0.639577 
-0.133975 -0.101781 0.42432 -0.29864 0.292753 0.908355 
0 0.173098 -0.0097113 -2.88744e-11 0.997415 0.071857 
-0.104981 -0.0698788 -0.393422 -0.166158 0.557257 -0.813545 
0.0262488 0.129213 -0.249503 0.120957 0.853384 -0.507056 
0.163048 -0.0171136 -0.301113 0.62927 0.711798 -0.312031 
-0.0274136 0.151469 0.112145 0.00597222 0.877865 0.478871 
0.116635 -0.0576573 -0.383614 0.115385 0.56493 -0.817031 
-0.144265 0.0149617 -0.25848 -0.843967 0.467388 -0.263188 
0 0.056166 0.289378 -1.5612e-09 0.98816 0.153427 
0 0.147682 -0.210431 -7.39124e-12 0.925011 -0.379941 
0.147278 0.0412988 -0.210927 0.958295 0.278773 -0.062897 
-0.177681 -0.0193804 0.319152 -0.639105 0.751367 0.164295 
0.0417271 -0.104101 0.44059 0.0646913 0.00186658 0.997904 
0.153791 -0.095151 0.414516 0.393636 0.294938 0.870668 
0.013456 -0.0982797 -0.433325 0.0579195 0.217639 -0.974309 
0.156118 -0.10662 0.0320052 0.884006 0.464084 0.0562081 
0.164989 -0.116394 -0.147814 0.800946 0.485838 0.349924 
-0.17274 -0.123873 0.149669 -0.347391 0.937111 -0.0338091 
-0.0740504 0.165556 -0.0561954 -0.324683 0.94544 -0.0269089 
-0.145064 0.0521543 -0.214835 -0.985356 0.140871 -0.0960621 
0 0.169496 -0.147438 -6.70816e-12 0.972514 -0.232844 
-0.124934 0.0025106 -0.313941 -0.646423 0.582667 -0.492582 
0.148292 0.0144363 -0.24482 0.897701 0.385497 -0.213366 
-0.105608 0.136248 0.111537 -0.448281 0.761602 0.467981 
0.137435 0.0862508 0.126848 0.853838 0.355478 0.380257 
0.0436415 0.0652358 -0.316672 0.165722 0.768277 -0.618294 
-0.137238 0.0887349 -0.211851 -0.902125 0.338008 -0.268183 
-0.101439 0.0296734 -0.323824 -0.666576 0.458317 -0.587897 
-0.111442 -0.115871 -0.423521 -0.218339 0.466148 -0.857341 
0.156028 0.0432972 -0.122568 0.996062 0.0439353 -0.0770059 
-0.070875 0.109123 -0.262991 -0.218534 0.755709 -0.617371 
0.163058 -0.0154207 -0.193867 0.928707 0.32351 0.18123 
-0.14387 -0.0913962 0.176507 -0.989278 0.0877501 -0.11674 
0.167818 -0.125348 0.00421008 0.839807 0.542833 -0.00754538 
-0.140533 -0.0342599 0.206954 -0.945705 0.252865 -0.204207 
-0.154522 -0.0168522 0.369692 -0.675399 0.640778 0.365021 
0.142584 -0.0711963 -0.382048 0.51877 0.39126 -0.760127 
0 0.0369789 -0.362445 -1.44244e-11 0.740155 -0.672436 
0.151643 -0.0230918 0.385099 0.719518 0.597938 0.35322 
-0.156118 -0.10662 0.0320052 -0.884006 0.464084 0.0562081 
0.175333 -0.0952835 -0.167576 0.770463 0.258495 0.582724 
0.179688 -0.0310332 -0.220635 0.800359 0.523222 0.292684 
0.118748 0.118527 0.121189 0.596075 0.588216 0.546532 
0.16794 -0.125294 0.0153984 0.823422 0.567308 -0.0117502 
0 0.164828 0.0542105 -5.46275e-11 0.98155 0.191204 
0.144265 0.0149617 -0.25848 0.843967 0.467388 -0.263188 
0.0710092 0.0617231 0.166342 -0.0598139 0.877429 0.475964 
-0.0852829 0.0630803 0.166008 0.069229 0.833086 0.548795 
-0.159533 -0.0741422 0.404283 -0.492451 0.273916 0.826113 
0.145895 0.0404979 0.119414 0.989465 -0.0170483 0.143768 
0 0.157864 0.085385 -4.00493e-11 0.970218 0.242233 
0.0561968 0.170493 -0.0562669 0.210169 0.977647 -0.00589458 
-0.0801886 0.0647987 -0.307387 -0.220097 0.684013 -0.695473 
0.107333 -0.0218494 -0.355139 0.441402 0.561387 -0.700006 
-0.159182 -0.107106 -0.104566 -0.905953 0.423341 0.00563164 
-0.140849 0.072008 -0.216912 -0.949064 0.233021 -0.212082 
-0.14347 0.0214769 0.13637 -0.994086 -0.00218823 0.108569 
0.140007 0.0138914 -0.272389 0.786589 0.526846 -0.322041 
0.135121 -0.110723 -0.411538 0.433572 0.466349 -0.77106 
0 0.174813 -0.115094 -3.1309e-12 0.995876 -0.0907252 
-0.151585 0.040535 0.0633483 -0.996527 -0.0400544 0.073001 
-0.158909 -0.107489 -0.124098 -0.889271 0.443719 -0.110954 
-0.13377 -0.00152496 0.237051 -0.946348 0.323077 0.00685914 
0.154613 0.0541641 -0.0408947 0.978226 0.199907 0.0557735 
0.00956173 0.151138 0.111669 -0.0628056 0.923166 0.379236 
0 0.166755 0.043741 -5.66024e-11 0.985356 0.170509 
-0.142577 0.056287 0.132904 -0.956414 0.109549 0.270688 
-0.152543 0.0650416 -0.0418387 -0.980108 0.188673 0.0615712 
-0.139243 -0.0250372 0.213582 -0.945854 0.278623 -0.166521 
0.117914 0.130009 0.105691 0.657217 0.679434 0.326242 
0.157114 0.0534621 -0.0718008 0.985254 0.168947 0.0270373 
-0.146006 0.0976431 -0.0413627 -0.97761 0.205271 0.0462957 
0.142794 -0.0523669 0.154707 0.997918 0.0347009 0.0543734 
-0.152884 0.0415223 -0.158708 -0.9914 0.0821574 -0.101865 
-0.165139 -0.0299823 -0.184048 -0.905224 0.277956 0.321418 
-0.142337 0.116692 -0.0709451 -0.967177 0.253968 -0.00823936 
0 0.00835644 -0.388968 -3.11965e-11 0.609359 -0.792895 
-0.028498 0.0615703 0.165736 -0.0214365 0.965799 0.258403 
-0.143609 0.108433 -0.040794 -0.971665 0.231842 0.0459991 
-0.167833 -0.125416 -0.0293646 -0.869129 0.494561 0.00490294 
-0.13839 -0.0399273 -0.363356 -0.331359 0.688041 -0.645601 
-0.102918 -0.0148618 0.388083 0.502691 0.824934 0.258428 
0 -0.00218284 -0.396541 -3.83069e-11 0.556986 -0.830522 
0.107666 0.149765 -0.0558766 0.533449 0.84356 -0.0619636 
-0.0577987 0.117954 -0.256381 -0.199901 0.777481 -0.596291 
0.169142 -0.124885 0.0713356 0.676968 0.735437 -0.0290863 
0.16396 -0.0769698 -0.159499 0.818646 0.19037 0.541829 
-0.13253 -0.0644878 0.414693 -0.251096 0.115433 0.961055 
0.101439 0.0296734 -0.323824 0.666576 0.458317 -0.587897 
0.108843 -0.00126358 0.356721 -0.490407 0.851462 0.185777 
-0.158474 -0.10794 -0.143634 -0.883848 0.341784 0.319367 
0.179309 -0.0531935 -0.195294 0.825628 0.338188 0.451628 
0.159533 -0.0741422 0.404283 0.492451 0.273916 0.826113 
0.0963326 -0.117497 -0.427526 0.153075 0.441777 -0.883969 
0 -0.0851151 0.443071 -1.43956e-08 0.14104 0.990004 
0.134705 0.110693 -0.179658 0.847285 0.504898 -0.164882 
0 0.0622193 0.176781 3.32343e-11 0.999444 -0.0333371 
-0.155632 0.00690734 -0.219699 -0.957893 0.243168 -0.152675 
0.123978 0.0606528 0.161083 0.506224 0.556002 0.659242 
-0.148292 0.0144363 -0.24482 -0.897701 0.385497 -0.213366 
0 -0.0734093 -0.428018 -2.40033e-11 0.2659 -0.964001 
-0.121255 -0.00118145 -0.322735 -0.640456 0.558551 -0.527103 
0 -0.0990382 -0.43388 -4.46503e-11 0.210149 -0.977669 
-0.0769177 -0.104236 0.437455 -0.121238 0.25061 0.960467 
0.124934 0.0025106 -0.313941 0.646423 0.582667 -0.492582 
0.157469 -0.0201804 -0.317077 0.553594 0.739609 -0.382769 
0.0299683 -0.104489 0.441293 0.0659976 -0.119035 0.990694 
-0.142584 -0.0711963 -0.382048 -0.51877 0.39126 -0.760127 
-0.12218 0.100087 0.13537 -0.533685 0.556223 0.637022 
0.0267637 -0.0937001 0.442504 0.138676 0.000456252 0.990338 
0 0.172238 0.00107434 -3.90462e-11 0.996164 0.0875019 
0.178404 -0.0666318 -0.185054 0.810438 0.289896 0.509069 
-0.163572 -0.106589 -0.379088 -0.803326 0.314798 -0.505538 
-0.0639889 -0.11914 -0.43289 -0.122884 0.344289 -0.930787 
0.11248 0.0640702 0.163631 0.188676 0.663364 0.72412 
-0.135121 -0.110723 -0.411538 -0.433572 0.466349 -0.77106 
0.146354 -0.109351 0.148753 0.862948 0.467671 0.191322 
0.124277 0.0948906 -0.235624 0.751144 0.528234 -0.395918 
-0.158034 -0.108032 -0.388313 -0.760969 0.354757 -0.543207 
-0.11973 0.0474175 0.195016 -0.583201 0.753966 0.302345 
0.134991 0.118613 -0.148522 0.83836 0.530582 -0.125042 
0.169168 -0.0818327 0.401096 0.539263 0.324265 0.777205 
-0.152423 0.0411664 0.0516064 -0.997505 -0.0255427 0.0658186 
0.172066 -0.0985631 -0.35991 0.862956 0.232985 -0.448358 
0.155739 0.0432672 -0.0167899 0.991662 0.123231 0.0376813 
0.112927 -0.0153934 0.400424 -0.196051 0.836016 0.512485 
-0.174509 -0.0714665 0.392078 -0.631649 0.353009 0.690221 
-0.14009 -0.0986223 -0.400577 -0.498829 0.472891 -0.726322 
-0.154906 -0.106899 0.0514818 -0.856298 0.512298 0.065612 
0.174095 -0.123514 0.17207 0.523093 0.850372 -0.0569295 
-0.0702109 -0.0767534 -0.412502 -0.36735 0.467353 -0.804136 
0.152423 0.0411664 0.0516064 0.997505 -0.0255427 0.0658186 
-0.170952 -0.124361 0.116088 -0.470325 0.881846 -0.0337945 
0 0.152381 0.106167 -2.60665e-11 0.961831 0.273646 
0.12856 0.0058256 -0.304883 0.663807 0.589534 -0.460229 
0.11797 0.0733132 0.156762 0.283543 0.442661 0.850679 
-0.123056 -0.103575 0.428207 -0.256315 0.295431 0.920339 
-0.17842 -0.0211668 -0.25246 -0.753251 0.657728 -0.00274271 
0.100237 -0.104829 0.433936 0.181047 0.291326 0.939335 
-0.0561968 0.170493 -0.0562669 -0.210169 0.977647 -0.00589458 
0 0.0616807 0.221916 -4.49319e-11 0.999509 0.0313326 
-0.114108 0.12773 0.115382 -0.562554 0.668045 0.487082 
-0.154613 0.0541641 -0.0408947 -0.978226 0.199907 0.0557735 
-0.149548 -0.0445095 0.404526 -0.621613 0.159281 0.76696 
-0.121139 0.0822815 0.149775 -0.422835 0.512024 0.747691 
-0.113053 0.00493636 0.313873 0.489798 0.868426 0.077037 
-0.179756 -0.0349221 0.353467 -0.692577 0.606857 0.389952 
-0.165927 -0.0454817 -0.175435 -0.875404 0.231768 0.424207 
0.09565 -0.0339676 0.407021 -0.423583 0.406022 0.809768 
0.122648 0.00995565 0.289072 0.202981 0.977058 0.0644706 
-0.127883 0.0153087 0.24888 -0.912571 0.356489 0.200324 
0.158274 0.0433184 -0.0874485 0.995047 0.0877899 -0.0466292 
-0.174095 -0.123514 0.17207 -0.523093 0.850372 -0.0569295 
0.178716 -0.0302172 -0.286128 0.837948 0.484218 -0.251747 
0.0611199 -0.0827547 -0.41934 0.309222 0.398815 -0.863324 
0.158747 0.0430323 -0.0738177 0.992473 0.12197 -0.0110198 
0.163572 -0.106589 -0.379088 0.803326 0.314798 -0.505538 
0.0969534 -0.0428379 -0.375443 0.264707 0.589188 -0.763405 
0.174618 -0.0151876 0.290886 0.554642 0.825798 -0.102129 
-0.132277 0.12376 0.063419 -0.843419 0.527976 0.099428 
0 0.17578 -0.0989742 -1.29202e-12 0.999486 -0.0320519 
-0.154454 0.0167755 -0.217124 -0.97159 0.151523 -0.181808 
0.177015 -0.0795704 -0.338954 0.904846 0.215829 -0.366975 
0.14347 0.0214769 0.13637 0.994086 -0.00218812 0.108569 
0.124593 -0.0723028 -0.390927 0.235986 0.501951 -0.832079 
0.165139 -0.0299823 -0.184048 0.905224 0.277956 0.321418 
0.158572 -0.106315 -0.0264832 0.929917 0.366967 0.0242839 
0 0.171193 0.0118494 -4.77423e-11 0.994356 0.106092 
-0.135379 0.127796 0.00969915 -0.873582 0.479209 0.0849331 
-0.154535 0.0425598 -0.140873 -0.994677 0.0512568 -0.08939 
-0.143535 0.0427824 0.133313 -0.979945 0.0460165 0.193882 
-0.118821 -0.0486493 -0.376436 -0.0945097 0.635602 -0.766211 
-0.128617 0.00867698 0.258977 -0.860129 0.500605 0.0978423 
-0.168824 -0.124985 0.060149 -0.715841 0.697748 -0.0268148 
0.144211 -0.110009 0.168194 0.805428 0.510958 -0.300347 
-0.0886041 -0.104631 0.43591 -0.149519 0.277723 0.948954 
-0.0969534 -0.0428379 -0.375443 -0.264707 0.589188 -0.763405 
-0.143868 -0.0956614 0.164898 -0.993054 -0.116653 0.0153758 
-0.148366 -0.0545216 -0.36863 -0.575049 0.45402 -0.680576 
-0.0963326 -0.117497 -0.427526 -0.153075 0.441777 -0.883969 
-0.00641805 -0.105074 0.442088 -0.0105095 -0.256164 0.966576 
0.0983106 0.0522479 -0.309493 0.523197 0.532637 -0.665255 
-0.140967 0.0672872 0.132548 -0.923476 0.191725 0.332315 
0.116058 0.00721641 0.323611 -0.490406 0.870166 -0.0480955 
0.13377 -0.00152496 0.237051 0.946348 0.323077 0.00685914 
0.178849 -0.0497001 0.238423 0.521314 0.488112 -0.699984 
0.108897 -0.00520996 -0.342442 0.696255 0.395583 -0.598952 
0.121255 -0.00118145 -0.322735 0.640456 0.558551 -0.527103 
-0.178731 -0.0374556 0.248608 -0.498248 0.620268 -0.605819 
0.0997703 0.0409659 -0.316931 0.606139 0.48051 -0.633803 
-0.15844 0.0429413 -0.060676 -0.986866 0.146224 0.0686621 
0.155552 -0.112374 0.174784 0.371473 0.807295 -0.458567 
-0.169168 -0.0818327 0.401096 -0.539263 0.324265 0.777205 
0.168976 -0.125285 -0.0965396 0.858339 0.512466 0.025162 
-0.106757 -0.0581713 0.415758 0.0396529 0.253468 0.966531 
0.0388783 -0.0924762 -0.428802 0.177314 0.269903 -0.946421 
-0.131912 0.120946 0.0797317 -0.839362 0.529283 0.123821 
-0.122648 0.00995565 0.289072 -0.202981 0.977058 0.0644706 
-0.170402 -0.0116289 0.306523 -0.606718 0.793834 0.0414791 
-0.178278 -0.0666062 -0.327354 -0.909785 0.239749 -0.33884 
0.176361 -0.122928 0.205697 0.896299 0.313495 -0.313638 
-0.0888346 0.0872946 -0.281609 -0.279396 0.712969 -0.643127 
0.0567637 0.0611226 0.166256 -0.0195744 0.910886 0.412193 
0.0534735 -0.103871 0.439726 0.0793361 0.1184 0.989792 
0.0684475 0.0637788 -0.3118 0.180087 0.720492 -0.669672 
0.105608 0.136248 0.111537 0.448281 0.761602 0.467981 
0.179756 -0.0349221 0.353467 0.692577 0.606857 0.389952 
-0.0263972 -0.0959978 -0.431637 -0.11616 0.235277 -0.964962 
0.158909 -0.107489 -0.124098 0.889271 0.443719 -0.110954 
0.177169 -0.0202493 0.275456 0.51048 0.817222 -0.267502 
0.047927 -0.119567 -0.43515 0.122647 0.300224 -0.945951 
0 -0.0625759 0.438939 -2.47346e-08 0.259218 0.965819 
0.111442 -0.115871 -0.423521 0.218339 0.466148 -0.857341 
0.0274136 0.151469 0.112145 -0.00597222 0.877865 0.478871 
0.101226 -0.0225973 0.403122 -0.494756 0.640302 0.587563 
-0.0802363 -0.118491 -0.430454 -0.126255 0.397328 -0.90895 
0.0912277 0.158563 -0.056047 0.421257 0.905734 -0.046785 
-0.168053 -0.125411 -0.0517518 -0.875063 0.483847 0.0125702 
0.125239 -0.0416722 -0.369343 0.12828 0.688904 -0.713411 
0 0.0622361 0.188072 5.46292e-11 0.999951 0.00989944 
0.1435 -0.0812923 0.161576 0.997494 0.0655328 0.0266827 
0.154535 0.0425598 -0.140873 0.994677 0.0512568 -0.08939 
0.178731 -0.0374556 0.248608 0.498248 0.620268 -0.605819 
-0.177883 -0.0928983 0.216825 -0.667244 0.2688 -0.694645 
-0.0843089 0.145958 0.110177 -0.243457 0.820724 0.516857 
-0.14154 -0.0437474 0.200912 -0.948745 0.222482 -0.224467 
-0.125875 0.0104166 0.271961 -0.626706 0.773549 0.0941373 
-0.122344 0.0911438 0.142641 -0.489104 0.532799 0.690582 
0.142871 -0.0629398 0.190255 0.963796 0.159435 -0.213722 
0.167792 -0.125378 -0.00698089 0.852629 0.522506 -0.00331008 
0.168522 -0.0861959 -0.360296 0.839347 0.236154 -0.489621 
-0.167792 -0.125378 -0.00698089 -0.852629 0.522506 -0.00331008 
0 0.0518708 0.311512 -2.62174e-09 0.97291 0.231183 
-0.102829 0.0747402 -0.28671 -0.493765 0.604936 -0.624698 
0 -0.0126126 0.414358 -1.52344e-08 0.603362 0.797468 
-0.137661 -0.0163073 0.220835 -0.94737 0.298791 -0.114955 
0.178278 -0.0666062 -0.327354 0.909785 0.239749 -0.33884 
-0.13472 0.115158 -0.164207 -0.841846 0.521917 -0.137469 
0.108842 0.08076 -0.275023 0.579834 0.597256 -0.554146 
-0.146354 -0.109351 0.148753 -0.862948 0.467671 0.191322 
0.17274 -0.123873 0.149669 0.347391 0.937111 -0.0338091 
-0.160948 -0.0815475 -0.369203 -0.752847 0.285431 -0.593086 
-0.14309 0.0071334 0.1395 -0.996926 -0.00901483 0.0778251 
-0.164667 -0.11533 0.183286 -0.613271 0.75386 -0.235783 
-0.0436415 0.0652358 -0.316672 -0.165722 0.768277 -0.618294 
0.127883 0.0153087 0.24888 0.912571 0.356489 0.200324 
0.148366 -0.0545216 -0.36863 0.575049 0.45402 -0.680576 
0.179015 -0.0239555 -0.235873 0.762805 0.625561 0.163711 
-0.171524 -0.124204 0.12728 -0.413002 0.910088 -0.0342085 
0.157955 -0.106326 -0.00697825 0.921287 0.387306 0.0349938 
0.135811 -0.0083607 0.228689 0.948587 0.311124 -0.0581706 
-0.124643 0.0316364 0.222131 -0.827536 0.52099 0.209175 
-0.125239 -0.0416722 -0.369343 -0.12828 0.688904 -0.713411 
-0.0465821 0.15121 0.111999 -0.0478003 0.842139 0.537138 
-0.178404 -0.0666318 -0.185054 -0.810438 0.289896 0.509069 
0.177681 -0.0193804 0.319152 0.639105 0.751367 0.164295 
0.171524 -0.124204 0.12728 0.413002 0.910088 -0.0342085 
-0.141021 0.119114 -0.0395171 -0.979303 0.200642 0.0266323 
-0.153169 0.0417669 0.0398449 -0.998231 -0.00747823 0.0589815 
0 0.175962 -0.0825988 -1.5711e-12 0.999984 0.0056936 
-0.151102 0.0406701 -0.17616 -0.984083 0.140697 -0.108555 
-0.137479 0.124962 -0.0997539 -0.854351 0.510842 -0.0955216 
0.139 0.126961 -0.0729249 0.888669 0.457447 -0.031784 
0.0813277 0.0987037 -0.271632 0.243021 0.738279 -0.629194 
-0.172096 -0.124045 0.138472 -0.366294 0.9299 -0.0333988 
-0.080963 -0.0353354 0.395767 0.467243 0.755158 0.459805 
0.135811 0.0951997 0.12129 0.829807 0.417993 0.369733 
-0.123978 0.0606528 0.161083 -0.506224 0.556002 0.659242 
-0.0144026 0.061912 0.165571 -0.0233088 0.987281 0.157268 
-0.174618 -0.0151876 0.290886 -0.554642 0.825798 -0.102129 
0 -0.0485133 -0.420003 -4.25288e-11 0.350626 -0.936516 
0.0926035 -0.0682725 -0.395909 0.309867 0.557569 -0.770129 
0.138441 0.128126 -0.0555631 0.849818 0.527032 -0.00679562 
-0.152282 -0.0765697 -0.376475 -0.669144 0.327295 -0.667177 
-0.0813277 0.0987037 -0.271632 -0.243021 0.738279 -0.629194 
0.127339 -0.0139549 0.398489 0.162212 0.829035 0.535153 
-0.178912 -0.0256668 0.336976 -0.661915 0.699349 0.269778 
-0.127339 -0.0139549 0.398489 -0.162212 0.829035 0.535153 
-0.122287 0.0399946 0.208664 -0.717415 0.653796 0.240555 
-0.177169 -0.0202493 0.275456 -0.51048 0.817222 -0.267502 
0.170402 -0.0116289 0.306523 0.606718 0.793834 0.0414791 
-0.148203 0.0958152 -0.0698889 -0.968574 0.243525 0.05059 
0.154898 0.0429749 0.00487149 0.996942 0.0656706 0.0423586 
0.0919641 -0.0152971 0.368573 -0.511836 0.814591 0.272884 
0 0.00435266 0.399548 -1.14047e-08 0.707555 0.706658 
-0.116635 -0.0576573 -0.383614 -0.115385 0.56493 -0.817031 
-0.0919641 -0.0152971 0.368573 0.511836 0.814591 0.272884 
-0.0299683 -0.104489 0.441293 -0.0659976 -0.119035 0.990694 
-0.119419 0.009062 0.30642 0.292904 0.951778 0.0912519 
0.13205 0.00872997 -0.295672 0.692303 0.584779 -0.422789 
0 -0.0968941 0.443887 -7.00955e-09 -0.0941324 0.99556 
-0.0611199 -0.0827547 -0.41934 -0.309222 0.398815 -0.863324 
0.17822 -0.0274603 0.261002 0.489889 0.74673 -0.449891 
-0.147208 -0.063942 -0.375164 -0.576021 0.369533 -0.72914 
0.145328 -0.0315692 -0.34812 0.396976 0.75503 -0.521862 
-0.157469 -0.0201804 -0.317077 -0.553594 0.739609 -0.382769 
0.124643 0.0316364 0.222131 0.827536 0.52099 0.209175 
0.152884 0.0415223 -0.158708 0.9914 0.0821574 -0.101865 
0 0.0589564 0.266974 -7.62541e-10 0.995267 0.0971781 
-0.143128 -0.066872 0.158191 -0.998596 0.0268487 0.0456602 
0.0908462 -0.0528005 -0.385359 0.320597 0.568901 -0.757343 
0.152543 0.0650416 -0.0418387 0.980108 0.188673 0.0615712 
-0.178388 -0.0780029 0.22306 -0.597969 0.306605 -0.740558 
0.144069 -0.109406 -0.404643 0.568903 0.440126 -0.694722 
-0.167818 -0.125348 0.00421008 -0.839807 0.542833 -0.00754538 
0.174509 -0.0714665 0.392078 0.631649 0.353009 0.690221 
-0.134991 0.118613 -0.148522 -0.83836 0.530582 -0.125042 
-0.129308 0.0972378 -0.222078 -0.798186 0.48631 -0.355531 
0 0.1552 0.0957671 -3.34026e-11 0.96747 0.252984 
0.153824 0.0422808 0.0280879 0.998517 0.0138429 0.0526456 
-0.1679 -0.125424 -0.0405573 -0.873347 0.487022 0.00866847 
-0.112471 0.00381399 0.340398 0.517436 0.845885 0.129381 
0.14009 -0.0986223 -0.400577 0.498829 0.472891 -0.726322 
-0.0505788 -0.0880018 -0.424744 -0.242156 0.326708 -0.913577 
0.0378345 0.173474 -0.0562192 0.114426 0.993339 0.0135618 
0 0.1738 -0.0204334 -1.94419e-11 0.998243 0.0592478 
0.113053 0.00493636 0.313873 -0.489798 0.868426 0.077037 
-0.13309 0.125549 0.0459451 -0.849992 0.519299 0.0885529 
0.0577987 0.117954 -0.256381 0.199901 0.777481 -0.596291 
-0.138441 0.128126 -0.0555631 -0.849818 0.527032 -0.00679562 
0.170478 -0.125024 -0.141346 0.807163 0.589837 -0.0241019 
0.1343 0.10355 0.114214 0.822095 0.469993 0.32135 
0.0801886 0.0647987 -0.307387 0.220097 0.684013 -0.695473 
0.13253 -0.0644878 0.414693 0.251096 0.115433 0.961055 
-0.155339 0.043163 -0.00627533 -0.994719 0.0946424 0.0396992 
-0.178849 -0.0497001 0.238423 -0.521314 0.488112 -0.699984 
-0.135598 0.12129 -0.132519 -0.838056 0.53301 -0.11646 
-0.0684475 0.0637788 -0.3118 -0.180087 0.720492 -0.669672 
-0.116058 0.00721641 0.323611 0.490406 0.870166 -0.0480955 
0.0702109 -0.0767534 -0.412502 0.36735 0.467353 -0.804136 
0.158995 -0.106393 -0.0459952 0.932277 0.361506 0.0131899 
0 -0.0246204 -0.409609 -4.43689e-11 0.449317 -0.893372 
-0.0926035 -0.0682725 -0.395909 -0.309867 0.557569 -0.770129 
-0.16159 -0.0925354 -0.151597 -0.785661 0.0878089 0.612394 
0.170457 -0.124502 0.104899 0.529289 0.847748 -0.0343062 
0.170923 -0.124943 -0.15255 0.875909 0.404728 0.262637 
0 0.0415867 0.343614 -4.62065e-09 0.923223 0.384266 
-0.00650018 0.0683848 -0.319901 -0.0398711 0.827947 -0.559387 
0 -0.119992 -0.439169 -6.02055e-11 0.26664 -0.963796 
-0.107666 0.149765 -0.0558766 -0.533449 0.84356 -0.0619636 
0.169282 -0.125237 -0.107738 0.850976 0.524335 0.0302216 
0.14387 -0.0913962 0.176507 0.989278 0.0877501 -0.11674 
0.172096 -0.124045 0.138472 0.366294 0.9299 -0.0333988 
0.0852829 0.0630803 0.166008 -0.069229 0.833086 0.548795 
-0.119063 0.0915386 -0.249078 -0.697882 0.564188 -0.441195 
0.162172 -0.0896178 0.408421 0.457732 0.305358 0.835008 
-0.169963 -0.124642 0.0937096 -0.583782 0.811244 -0.0329001 
-0.065204 -0.103923 0.438697 -0.0966182 0.201309 0.974751 
0.16159 -0.0925354 -0.151597 0.785661 0.0878089 0.612394 
-0.132989 0.0546568 0.156159 -0.773391 0.397595 0.493746 
-0.14263 -0.0426065 0.152286 -0.997792 0.0279617 0.0602397 
0.165618 -0.00976653 0.322282 0.648649 0.746427 0.148664 
-0.144302 -0.0990497 0.41976 -0.343248 0.291747 0.892784 
-0.0978444 -0.0470677 0.411858 0.139543 0.248965 0.958407 
-0.11797 0.0733132 0.156762 -0.283543 0.442661 0.850679 
0.148652 -0.0308354 0.400225 0.697257 0.410071 0.58794 
-0.149628 0.0395354 0.0866575 -0.994301 -0.054841 0.0914188 
-0.168438 -0.125367 -0.0741435 -0.871986 0.489137 0.0196205 
-0.0567637 0.0611226 0.166256 0.0195744 0.910886 0.412193 
0.0865642 -0.0243052 0.382669 -0.523803 0.776185 0.350953 
-0.138393 0.126152 -0.0847631 -0.874677 0.475749 -0.0927543 
-0.09565 -0.0339676 0.407021 0.423583 0.406022 0.809768 
0.168284 -0.125163 0.037775 0.778698 0.627084 -0.019855 
-0.150655 0.0399548 0.0750506 -0.995429 -0.0502589 0.0812057 
-0.155552 -0.112374 0.174784 -0.371473 0.807295 -0.458567 
-0.142871 -0.0629398 0.190255 -0.963796 0.159435 -0.213722 
0.178715 -0.0634466 0.230093 0.553514 0.385369 -0.738318 
0.028498 0.0615703 0.165736 0.0214365 0.965799 0.258403 
0.136573 0.128691 -0.0081792 0.890069 0.449438 0.0760395 
-0.168284 -0.125163 0.037775 -0.778698 0.627084 -0.019855 
0 0.160366 0.07501 -4.61335e-11 0.973969 0.22668 
-0.102612 -0.032401 -0.365438 -0.289492 0.577347 -0.763456 
0.00906192 0.131415 -0.248465 0.032194 0.892153 -0.450585 
0.155229 0.0640093 -0.0707208 0.982073 0.180195 0.0553359 
0.159182 -0.107106 -0.104566 0.905953 0.423341 0.00563164 
-0.133136 0.100093 -0.208432 -0.837361 0.461011 -0.293763 
0 0.0184003 -0.380729 -2.38899e-11 0.658088 -0.752941 
0.0936093 0.0754837 -0.291834 0.338598 0.661358 -0.669296 
-0.142833 -0.0027948 0.14197 -0.997687 -0.00588785 0.0677254 
0.15759 -0.0123689 0.354012 0.669849 0.684416 0.287883 
0.165472 -0.0612531 -0.167386 0.842412 0.193469 0.502904 
-0.142539 -0.0327578 0.149779 -0.997808 0.0211102 0.0627173 
0.0188453 0.0677314 -0.319281 0.102686 0.809653 -0.577856 
-0.17822 -0.0274603 0.261002 -0.489889 0.74673 -0.449891 
-0.174806 -0.123328 0.183275 -0.661202 0.750034 -0.0161407 
-0.167767 -0.125408 -0.0181719 -0.86232 0.506364 0.000675649 
0.15844 0.0429413 -0.060676 0.986866 0.146224 0.0686621 
-0.151602 -0.10875 -0.396927 -0.686058 0.397124 -0.609604 
0.153511 -0.107259 0.0709497 0.8261 0.55856 0.0746306 
-0.156667 0.0432901 -0.0386208 -0.983943 0.171471 0.0495292 
-0.140525 -0.0195799 0.398192 -0.521421 0.680304 0.515079 
-0.151517 0.0300593 -0.213742 -0.929903 0.356258 -0.0914337 
-0.0586217 -0.0734887 0.428256 -0.232945 0.461698 0.855904 
0.168438 -0.125367 -0.0741435 0.871986 0.489137 0.0196205 
-0.179309 -0.0531935 -0.195294 -0.825628 0.338188 0.451628 
0.124416 -0.113204 -0.417958 0.314189 0.473867 -0.822639 
-0.171588 -0.118856 0.193619 -0.794789 0.581678 -0.173092 
0.149548 -0.0445095 0.404526 0.621613 0.159281 0.76696 
-0.177015 -0.0795704 -0.338954 -0.904846 0.215829 -0.366975 
0 0.0369498 0.353854 -5.42057e-09 0.897588 0.440835 
0.151602 -0.10875 -0.396927 0.686058 0.397124 -0.609604 
0.128617 0.00867698 0.258977 0.860129 0.500605 0.0978423 
0.0161997 -0.119945 -0.438615 0.0619627 0.266665 -0.961795 
-0.178876 -0.0530954 -0.314899 -0.900493 0.292547 -0.321759 
0.152282 -0.0765697 -0.376475 0.669144 0.327295 -0.667177 
0 0.153902 -0.194985 -8.31026e-12 0.930911 -0.365247 
-0.12856 0.0058256 -0.304883 -0.663807 0.589534 -0.460229 
-0.143618 -0.081982 0.180887 -0.982101 0.101396 -0.158733 
0.149628 0.0395354 0.0866575 0.994301 -0.054841 0.0914188 
-0.169282 -0.125237 -0.107738 -0.850976 0.524335 0.0302216 
-0.179688 -0.0310332 -0.220635 -0.800359 0.523222 0.292684 
0 0.0490088 0.322399 -3.23191e-09 0.960554 0.278092 
0.141021 0.119114 -0.0395171 0.979303 0.200642 0.0266323 
0.14264 -0.0128122 0.144569 0.997954 0.00186755 0.0639133 
-0.0997703 0.0409659 -0.316931 -0.606139 0.48051 -0.633803 
0.144302 -0.0990497 0.41976 0.343248 0.291747 0.892784 
0.170033 -0.125106 -0.130142 0.803619 0.593378 0.0458211 
0 0.0455958 0.333115 -3.89531e-09 0.944154 0.329504 
-0.163048 -0.0171136 -0.301113 -0.62927 0.711798 -0.312031 
-0.148501 0.0394029 0.0980542 -0.993175 -0.0520983 0.104356 
-0.169658 -0.125171 -0.11894 -0.83698 0.546516 0.0280307 
-0.0908462 -0.0528005 -0.385359 -0.320597 0.568901 -0.757343 
-0.0912277 0.158563 -0.056047 -0.421257 0.905734 -0.046785 
0.159292 -0.106794 -0.0850378 0.919118 0.393784 -0.0125195 
0.0843089 0.145958 0.110177 0.243457 0.820724 0.516857 
-0.1343 0.10355 0.114214 -0.822095 0.469993 0.32135 
0.178912 -0.0256668 0.336976 0.661915 0.699349 0.269778 
0.145064 0.0521543 -0.214835 0.985356 0.140871 -0.0960621 
0 0.0612577 0.23319 -1.34302e-10 0.999039 0.0438355 
0.14309 0.0071334 0.1395 0.996926 -0.00901432 0.077825 
-0.0936093 0.0754837 -0.291834 -0.338598 0.661358 -0.669296 
0.133008 0.110842 0.105311 0.82864 0.504812 0.241911 
0.142847 -0.0862763 -0.390877 0.539056 0.450257 -0.71182 
0.16867 -0.125335 -0.0853398 0.866381 0.49887 0.0226424 
0.102612 -0.032401 -0.365438 0.289492 0.577347 -0.763456 
0.158474 -0.10794 -0.143634 0.883848 0.341784 0.319367 
0.0975547 -0.0080322 0.353631 -0.528246 0.836044 0.14828 
0.168205 -0.125398 -0.0629463 0.874605 0.484573 0.0159413 
