ply
format ascii 1.0
element vertex 718
property float x
property float y
property float z
property float nx
property float ny
property float nz
end_header
0 0.012393 -0.125026 -1.59892e-07 -0.433966 0.900929 
-0.009932 0.012393 -0.124047 0.120935 -0.405525 0.906049 
-0.019864 0.012393 -0.123069 0.114294 -0.409508 0.905119 
-0.029592 0.012393 -0.121072 0.244262 -0.40664 0.88033 
-0.039142 0.012393 -0.118175 0.255425 -0.403378 0.87866 
-0.048645 0.012393 -0.115165 0.357265 -0.406708 0.840803 
-0.057447 0.012393 -0.110461 0.442036 -0.398496 0.80362 
-0.066248 0.012393 -0.105757 0.464948 -0.396905 0.791384 
-0.074404 0.012393 -0.100086 0.569308 -0.393808 0.721667 
-0.082118 0.012393 -0.093755 0.579285 -0.392745 0.714269 
-0.08966 0.012393 -0.087251 0.660639 -0.39636 0.637538 
-0.095991 0.012393 -0.079536 0.715297 -0.393098 0.577775 
-0.102322 0.012393 -0.071822 0.737865 -0.395138 0.547194 
-0.107586 0.012393 -0.063394 0.80425 -0.3948 0.444201 
-0.11229 0.012393 -0.054593 0.809329 -0.397142 0.43274 
-0.116656 0.012393 -0.045652 0.85377 -0.404689 0.327572 
-0.119552 0.012393 -0.036101 0.876654 -0.403771 0.261622 
-0.12245 0.012393 -0.026552 0.885139 -0.411488 0.217272 
-0.123967 0.012393 -0.016727 0.90852 -0.40939 0.083607 
-0.124946 0.012393 -0.006795 0.900828 -0.41086 0.140366 
-0.125435 0.012393 0.003137 0.900288 -0.424138 -0.0979226 
-0.124457 0.012393 0.013068 0.911652 -0.403188 -0.0795633 
-0.123478 0.012393 0.022999 0.899573 -0.40901 -0.15323 
-0.121001 0.012393 0.032633 0.878181 -0.39958 -0.262934 
-0.118105 0.012393 0.042183 0.87537 -0.39678 -0.276213 
-0.114643 0.012393 0.051499 0.831574 -0.396701 -0.388734 
-0.109938 0.012393 0.0603 0.813543 -0.392415 -0.429137 
-0.105233 0.012393 0.069101 0.775277 -0.39428 -0.493447 
-0.099157 0.012393 0.076986 0.710307 -0.389454 -0.586335 
-0.092826 0.012393 0.084701 0.702241 -0.389245 -0.59611 
-0.085976 0.012393 0.091896 0.615026 -0.391334 -0.684544 
-0.078262 0.012393 0.098227 0.590648 -0.391796 -0.705429 
-0.070547 0.012393 0.104557 0.519934 -0.397651 -0.756005 
-0.061848 0.012393 0.109415 0.42612 -0.395399 -0.813683 
-0.053046 0.012393 0.11412 0.414302 -0.398368 -0.818325 
-0.043917 0.012393 0.118034 0.29713 -0.402767 -0.865732 
-0.034367 0.012393 0.12093 0.276827 -0.404783 -0.871503 
-0.024817 0.012393 0.123826 0.185066 -0.417134 -0.889803 
-0.014897 0.012393 0.124865 0.0647839 -0.407912 -0.91072 
-0.004966 0.012393 0.125843 0.123175 -0.415867 -0.901045 
0.004965 0.012393 0.125843 -0.123184 -0.415875 -0.90104 
0.014897 0.012393 0.124865 -0.0647132 -0.407938 -0.910713 
0.024817 0.012393 0.123827 -0.185036 -0.417187 -0.889785 
0.034368 0.012393 0.12093 -0.276884 -0.404822 -0.871467 
0.043917 0.012393 0.118034 -0.297139 -0.402799 -0.865714 
0.053046 0.012393 0.11412 -0.414253 -0.398397 -0.818336 
0.061848 0.012393 0.109416 -0.426061 -0.395433 -0.813698 
0.070547 0.012393 0.104558 -0.519961 -0.397684 -0.755968 
0.078262 0.012393 0.098227 -0.59071 -0.391822 -0.705363 
0.085975 0.012393 0.091896 -0.615003 -0.391354 -0.684554 
0.092826 0.012393 0.084701 -0.70221 -0.389272 -0.596127 
0.099157 0.012393 0.076986 -0.71027 -0.389485 -0.58636 
0.105234 0.012393 0.069101 -0.775257 -0.394316 -0.493449 
0.109938 0.012393 0.0603 -0.813595 -0.392438 -0.429017 
0.114642 0.012393 0.051499 -0.831561 -0.396707 -0.388754 
0.118105 0.012393 0.042183 -0.875347 -0.396792 -0.276268 
0.121001 0.012393 0.032633 -0.878177 -0.399592 -0.26293 
0.123478 0.012393 0.023 -0.899564 -0.409023 -0.153247 
0.124457 0.012393 0.013068 -0.911651 -0.403193 -0.0795489 
0.125435 0.012393 0.003137 -0.900283 -0.424151 -0.0979125 
0.124946 0.012393 -0.006795 -0.900829 -0.410859 0.140362 
0.123967 0.012393 -0.016727 -0.908524 -0.409384 0.0836056 
0.12245 0.012393 -0.026552 -0.885143 -0.411479 0.217272 
0.119552 0.012393 -0.036101 -0.876659 -0.40376 0.261623 
0.116656 0.012393 -0.045652 -0.853776 -0.404675 0.327574 
0.11229 0.012393 -0.054593 -0.809336 -0.397126 0.432744 
0.107586 0.012393 -0.063394 -0.804258 -0.394781 0.444204 
0.102322 0.012393 -0.071822 -0.737872 -0.395117 0.547199 
0.095991 0.012393 -0.079536 -0.715306 -0.393073 0.577781 
0.08966 0.012393 -0.087251 -0.660644 -0.396333 0.63755 
0.082118 0.012393 -0.093755 -0.579307 -0.392714 0.714269 
0.074404 0.012393 -0.100086 -0.569268 -0.393773 0.721718 
0.066248 0.012393 -0.105756 -0.464963 -0.396861 0.791398 
0.057447 0.012393 -0.110461 -0.4421 -0.39846 0.803603 
0.048645 0.012393 -0.115165 -0.357255 -0.406677 0.840823 
0.039142 0.012393 -0.118175 -0.255432 -0.403354 0.878669 
0.029592 0.012393 -0.121072 -0.244263 -0.406623 0.880337 
0.019864 0.012393 -0.123069 -0.114295 -0.409497 0.905123 
0.009932 0.012393 -0.124047 -0.120935 -0.405519 0.906051 
0 -0.175698 -0.225563 1.10766e-08 -0.0718142 0.997418 
-0.009946 -0.175698 -0.224584 0.118457 -0.0112293 0.992896 
-0.019891 -0.175698 -0.223604 0.0953365 -0.00375504 0.995438 
-0.029836 -0.175698 -0.222625 0.0879781 -0.00554276 0.996107 
-0.039781 -0.175698 -0.221644 0.141119 -0.0101278 0.989941 
-0.049512 -0.175698 -0.219584 0.263453 -0.0164021 0.964533 
-0.059075 -0.175698 -0.216683 0.296592 -0.0237294 0.954709 
-0.068638 -0.175698 -0.213783 0.291028 -0.0318793 0.956183 
-0.078201 -0.175698 -0.210881 0.280135 -0.0405857 0.959102 
-0.087671 -0.175698 -0.207755 0.396515 -0.0494469 0.916695 
-0.096484 -0.175698 -0.203043 0.489177 -0.0571271 0.870312 
-0.105297 -0.175698 -0.198332 0.468926 -0.0645597 0.880875 
-0.114111 -0.175698 -0.193621 0.457471 -0.0716907 0.88633 
-0.122925 -0.175698 -0.188911 0.520955 -0.0782672 0.849988 
-0.13099 -0.175698 -0.18308 0.622505 -0.0830323 0.778199 
-0.138716 -0.175698 -0.17674 0.634806 -0.0867474 0.767787 
-0.14644 -0.175698 -0.170401 0.630163 -0.0897689 0.771256 
-0.154166 -0.175698 -0.164061 0.635475 -0.0920367 0.766616 
-0.161544 -0.175698 -0.157375 0.72569 -0.0930907 0.681695 
-0.167885 -0.175698 -0.14965 0.780096 -0.0916257 0.618914 
-0.174224 -0.175698 -0.141925 0.770336 -0.0891949 0.631369 
-0.180564 -0.175698 -0.134199 0.758136 -0.0859988 0.646401 
-0.186903 -0.175698 -0.126474 0.815523 -0.0819356 0.572895 
-0.191919 -0.175698 -0.117864 0.880685 -0.075527 0.467643 
-0.19663 -0.175698 -0.109051 0.880129 -0.0683388 0.46979 
-0.201341 -0.175698 -0.100238 0.877824 -0.0608459 0.475103 
-0.206052 -0.175698 -0.091424 0.890009 -0.053213 0.452827 
-0.210084 -0.175698 -0.082329 0.939892 -0.0452703 0.338458 
-0.212985 -0.175698 -0.072767 0.959698 -0.0368764 0.278604 
-0.215887 -0.175698 -0.063203 0.95735 -0.0288902 0.287483 
-0.218787 -0.175698 -0.05364 0.949741 -0.0215682 0.312293 
-0.221688 -0.175698 -0.044077 0.979067 -0.0150396 0.202981 
-0.222788 -0.175698 -0.034155 0.996812 -0.00903568 0.0792755 
-0.223767 -0.175698 -0.024211 0.994607 -0.00396361 0.103637 
-0.224747 -0.175698 -0.014265 0.995562 0.00149591 0.0940953 
-0.225726 -0.175698 -0.004319 0.994228 0.017054 0.10592 
-0.225726 -0.175698 0.005626 0.994231 0.0168966 -0.105922 
-0.224747 -0.175698 0.015572 0.995561 0.00102611 -0.0941139 
-0.223767 -0.175698 0.025516 0.994604 -0.00473112 -0.103638 
-0.222788 -0.175698 0.035462 0.996804 -0.0100879 -0.0792502 
-0.221688 -0.175698 0.045384 0.97904 -0.0163523 -0.20301 
-0.218787 -0.175698 0.054946 0.949711 -0.0230883 -0.312277 
-0.215887 -0.175698 0.06451 0.957301 -0.0305927 -0.287469 
-0.212985 -0.175698 0.074073 0.959629 -0.0387375 -0.278589 
-0.210084 -0.175698 0.083636 0.93981 -0.0472673 -0.338413 
-0.206052 -0.175698 0.092731 0.88992 -0.0553022 -0.452752 
-0.201342 -0.175698 0.101544 0.877705 -0.0629973 -0.475041 
-0.19663 -0.175698 0.110358 0.879984 -0.0705362 -0.469736 
-0.191919 -0.175698 0.119171 0.880516 -0.0777535 -0.467596 
-0.186903 -0.175698 0.12778 0.815383 -0.08417 -0.57277 
-0.180564 -0.175698 0.135506 0.757998 -0.088194 -0.646267 
-0.174224 -0.175698 0.143231 0.770143 -0.0913346 -0.631298 
-0.167885 -0.175698 0.150956 0.779987 -0.0937014 -0.61874 
-0.161544 -0.175698 0.158682 0.72554 -0.0950916 -0.681578 
-0.154166 -0.175698 0.165367 0.635325 -0.0939259 -0.766512 
-0.14644 -0.175698 0.171707 0.630058 -0.0915363 -0.771135 
-0.138716 -0.175698 0.178046 0.634769 -0.088391 -0.76763 
-0.13099 -0.175698 0.184387 0.622388 -0.0845517 -0.778129 
-0.122925 -0.175698 0.190217 0.520986 -0.0796583 -0.84984 
-0.114112 -0.175698 0.194929 0.457485 -0.0729442 -0.886221 
-0.105297 -0.175698 0.199639 0.468814 -0.0656774 -0.880852 
-0.096484 -0.175698 0.20435 0.489048 -0.0581163 -0.870318 
-0.087671 -0.175698 0.20906 0.396522 -0.0503141 -0.916645 
-0.078201 -0.175698 0.212188 0.280197 -0.0413251 -0.959053 
-0.068638 -0.175698 0.215089 0.290987 -0.0324968 -0.956175 
-0.059075 -0.175698 0.21799 0.296658 -0.0242361 -0.954676 
-0.049512 -0.175698 0.220891 0.263483 -0.0168135 -0.964517 
-0.039782 -0.175698 0.222951 0.140972 -0.0104638 -0.989958 
-0.029836 -0.175698 0.22393 0.0879876 -0.00581266 -0.996105 
-0.019891 -0.175698 0.224911 0.0954149 -0.00390844 -0.99543 
-0.009946 -0.175698 0.22589 0.11843 -0.0112718 -0.992898 
0 -0.175698 0.22687 -5.65641e-06 -0.0717795 -0.997421 
0.009945 -0.175698 0.22589 -0.118452 -0.0112748 -0.992896 
0.019891 -0.175698 0.224911 -0.0953265 -0.00391003 -0.995438 
0.029836 -0.175698 0.223931 -0.0879945 -0.00581375 -0.996104 
0.039781 -0.175698 0.222951 -0.14106 -0.0104648 -0.989946 
0.049512 -0.175698 0.220891 -0.263377 -0.0168149 -0.964547 
0.059075 -0.175698 0.217991 -0.296667 -0.024238 -0.954673 
0.068638 -0.175698 0.215089 -0.291055 -0.0324997 -0.956154 
0.078202 -0.175698 0.212188 -0.280105 -0.0413305 -0.959079 
0.087671 -0.175698 0.209061 -0.39655 -0.0503206 -0.916633 
0.096484 -0.175698 0.20435 -0.489067 -0.0581232 -0.870308 
0.105298 -0.175698 0.199639 -0.468821 -0.0656852 -0.880847 
0.114111 -0.175698 0.194929 -0.457563 -0.0729504 -0.88618 
0.122924 -0.175698 0.190217 -0.520923 -0.079665 -0.849878 
0.13099 -0.175698 0.184387 -0.622406 -0.0845603 -0.778113 
0.138715 -0.175698 0.178046 -0.634763 -0.0884 -0.767634 
0.14644 -0.175698 0.171707 -0.63006 -0.091547 -0.771132 
0.154165 -0.175698 0.165367 -0.635318 -0.0939376 -0.766516 
0.161545 -0.175698 0.158681 -0.725561 -0.0951055 -0.681554 
0.167884 -0.175698 0.150956 -0.78 -0.0937137 -0.618723 
0.174224 -0.175698 0.143231 -0.770099 -0.0913449 -0.63135 
0.180564 -0.175698 0.135506 -0.75801 -0.088202 -0.646252 
0.186903 -0.175698 0.12778 -0.815379 -0.0841759 -0.572776 
0.191919 -0.175698 0.119171 -0.880521 -0.0777573 -0.467586 
0.19663 -0.175698 0.110358 -0.879967 -0.070538 -0.469769 
0.201342 -0.175698 0.101545 -0.877704 -0.0629981 -0.475044 
0.206052 -0.175698 0.092731 -0.889943 -0.0553006 -0.452707 
0.210084 -0.175698 0.083636 -0.939792 -0.0472646 -0.338463 
0.212985 -0.175698 0.074074 -0.959651 -0.0387351 -0.278512 
0.215886 -0.175698 0.06451 -0.957308 -0.0305891 -0.287447 
0.218787 -0.175698 0.054946 -0.949684 -0.0230847 -0.312357 
0.221688 -0.175698 0.045384 -0.979045 -0.0163489 -0.202985 
0.222788 -0.175698 0.035462 -0.996803 -0.010085 -0.0792655 
0.223767 -0.175698 0.025517 -0.994604 -0.00472965 -0.103638 
0.224747 -0.175698 0.015572 -0.995561 0.00102892 -0.0941092 
0.225726 -0.175698 0.005626 -0.994231 0.0168886 -0.105925 
0.225726 -0.175698 -0.004319 -0.994226 0.0170527 0.105942 
0.224747 -0.175698 -0.014265 -0.995561 0.00149474 0.0941098 
0.223767 -0.175698 -0.02421 -0.994607 -0.00396626 0.103639 
0.222788 -0.175698 -0.034155 -0.996812 -0.00903999 0.0792671 
0.221688 -0.175698 -0.044077 -0.979066 -0.0150453 0.202986 
0.218787 -0.175698 -0.05364 -0.949743 -0.0215752 0.312286 
0.215887 -0.175698 -0.063203 -0.957343 -0.0288985 0.287506 
0.212985 -0.175698 -0.072766 -0.959698 -0.0368852 0.278602 
0.210084 -0.175698 -0.082329 -0.939896 -0.0452812 0.338446 
0.206052 -0.175698 -0.091424 -0.89002 -0.0532247 0.452803 
0.201342 -0.175698 -0.100237 -0.877824 -0.0608577 0.475102 
0.19663 -0.175698 -0.109051 -0.880113 -0.0683524 0.469818 
0.191919 -0.175698 -0.117864 -0.880687 -0.0755415 0.467636 
0.186903 -0.175698 -0.126474 -0.815526 -0.0819509 0.572889 
0.180564 -0.175698 -0.134199 -0.758115 -0.0860148 0.646424 
0.174224 -0.175698 -0.141924 -0.770292 -0.0892112 0.63142 
0.167884 -0.175698 -0.14965 -0.78014 -0.0916429 0.618856 
0.161545 -0.175698 -0.157374 -0.725703 -0.0931077 0.681679 
0.154165 -0.175698 -0.164061 -0.635461 -0.0920499 0.766626 
0.14644 -0.175698 -0.170401 -0.630204 -0.089779 0.771221 
0.138716 -0.175698 -0.17674 -0.6348 -0.0867539 0.767791 
0.13099 -0.175698 -0.18308 -0.622487 -0.0830349 0.778213 
0.122925 -0.175698 -0.188911 -0.521039 -0.0782661 0.849937 
0.114112 -0.175698 -0.193622 -0.457501 -0.0716886 0.886315 
0.105298 -0.175698 -0.198332 -0.468849 -0.0645562 0.880916 
0.096484 -0.175698 -0.203043 -0.489102 -0.0571215 0.870354 
0.087671 -0.175698 -0.207754 -0.396544 -0.0494404 0.916683 
0.078202 -0.175698 -0.210881 -0.280207 -0.0405814 0.959081 
0.068638 -0.175698 -0.213783 -0.290986 -0.0318755 0.956196 
0.059075 -0.175698 -0.216683 -0.296603 -0.0237268 0.954706 
0.049512 -0.175698 -0.219584 -0.26345 -0.0164005 0.964534 
0.039781 -0.175698 -0.221644 -0.14112 -0.010127 0.989941 
0.029836 -0.175698 -0.222625 -0.0879779 -0.00554246 0.996107 
0.019891 -0.175698 -0.223604 -0.0953366 -0.00375495 0.995438 
0.009946 -0.175698 -0.224584 -0.118457 -0.0112293 0.992896 
0 0.367221 -0.125026 -5.29279e-07 -0.731302 0.682054 
-0.009932 0.367221 -0.124047 0.0425944 -0.791165 0.610118 
-0.019864 0.367221 -0.123069 0.0825005 -0.803363 0.589748 
-0.029592 0.367221 -0.121072 0.146881 -0.828901 0.539768 
-0.039142 0.367221 -0.118175 0.147134 -0.853497 0.499895 
-0.048645 0.367221 -0.115165 0.19339 -0.866491 0.460211 
-0.057447 0.367221 -0.110461 0.225995 -0.884763 0.40758 
-0.066248 0.367221 -0.105757 0.227951 -0.892428 0.389371 
-0.074404 0.367221 -0.100086 0.270496 -0.899728 0.342522 
-0.082118 0.367221 -0.093755 0.268443 -0.904583 0.331162 
-0.08966 0.367221 -0.087251 0.307618 -0.904047 0.296765 
-0.095991 0.367221 -0.079536 0.331519 -0.904562 0.268074 
-0.102322 0.367221 -0.071822 0.353886 -0.897834 0.262029 
-0.107586 0.367221 -0.063394 0.397506 -0.890995 0.219354 
-0.11229 0.367221 -0.054593 0.416728 -0.881024 0.22391 
-0.116656 0.367221 -0.045652 0.47081 -0.863868 0.17908 
-0.119552 0.367221 -0.036101 0.50232 -0.851273 0.151685 
-0.12245 0.367221 -0.026552 0.552099 -0.822999 0.133639 
-0.123967 0.367221 -0.016727 0.590304 -0.805301 0.0550547 
-0.124946 0.367221 -0.006795 0.613114 -0.786656 0.0725478 
-0.125435 0.367221 0.003137 0.651186 -0.752195 -0.100798 
-0.124457 0.367221 0.013068 0.610656 -0.791651 -0.0196921 
-0.123478 0.367221 0.022999 0.590589 -0.799753 -0.107707 
-0.121001 0.367221 0.032633 0.533968 -0.830523 -0.15846 
-0.118105 0.367221 0.042183 0.502055 -0.850061 -0.159175 
-0.114643 0.367221 0.051499 0.454491 -0.865363 -0.21115 
-0.109938 0.367221 0.0603 0.416057 -0.882128 -0.220789 
-0.105233 0.367221 0.069101 0.386576 -0.889137 -0.244937 
-0.099157 0.367221 0.076986 0.339394 -0.897693 -0.280998 
-0.092826 0.367221 0.084701 0.331467 -0.90065 -0.280997 
-0.085976 0.367221 0.091896 0.289667 -0.901076 -0.322731 
-0.078262 0.367221 0.098227 0.278865 -0.901078 -0.332103 
-0.070547 0.367221 0.104557 0.253848 -0.893449 -0.370553 
-0.061848 0.367221 0.109415 0.214176 -0.88756 -0.407879 
-0.053046 0.367221 0.11412 0.219065 -0.874451 -0.432836 
-0.043917 0.367221 0.118034 0.165778 -0.85868 -0.48496 
-0.034367 0.367221 0.12093 0.163447 -0.843983 -0.510859 
-0.024817 0.367221 0.123826 0.120762 -0.810138 -0.573667 
-0.014897 0.367221 0.124865 0.0276682 -0.800909 -0.598146 
-0.004966 0.367221 0.125843 0.0941895 -0.771875 -0.628758 
0.004965 0.367221 0.125843 -0.0942125 -0.771887 -0.62874 
0.014897 0.367221 0.124865 -0.0276089 -0.800933 -0.598117 
0.024817 0.367221 0.123827 -0.120744 -0.810144 -0.573661 
0.034368 0.367221 0.12093 -0.163474 -0.84401 -0.510807 
0.043917 0.367221 0.118034 -0.16577 -0.858705 -0.484918 
0.053046 0.367221 0.11412 -0.219026 -0.874472 -0.432811 
0.061848 0.367221 0.109416 -0.214138 -0.887574 -0.40787 
0.070547 0.367221 0.104558 -0.253849 -0.893463 -0.370518 
0.078262 0.367221 0.098227 -0.278874 -0.901096 -0.332047 
0.085975 0.367221 0.091896 -0.28963 -0.901096 -0.322707 
0.092826 0.367221 0.084701 -0.331429 -0.900668 -0.280984 
0.099157 0.367221 0.076986 -0.339349 -0.897712 -0.280989 
0.105234 0.367221 0.069101 -0.38655 -0.889151 -0.244927 
0.109938 0.367221 0.0603 -0.416063 -0.882143 -0.220715 
0.114642 0.367221 0.051499 -0.454453 -0.865384 -0.211149 
0.118105 0.367221 0.042183 -0.502029 -0.850072 -0.159201 
0.121001 0.367221 0.032633 -0.533953 -0.830534 -0.158456 
0.123478 0.367221 0.023 -0.590577 -0.79976 -0.107716 
0.124457 0.367221 0.013068 -0.610647 -0.791658 -0.0196804 
0.125435 0.367221 0.003137 -0.651193 -0.752189 -0.100792 
0.124946 0.367221 -0.006795 -0.613121 -0.786651 0.0725463 
0.123967 0.367221 -0.016727 -0.590314 -0.805294 0.0550545 
0.12245 0.367221 -0.026552 -0.552112 -0.82299 0.133641 
0.119552 0.367221 -0.036101 -0.502336 -0.851263 0.151689 
0.116656 0.367221 -0.045652 -0.470829 -0.863857 0.179087 
0.11229 0.367221 -0.054593 -0.416748 -0.881011 0.223921 
0.107586 0.367221 -0.063394 -0.39753 -0.890982 0.219367 
0.102322 0.367221 -0.071822 -0.353911 -0.897819 0.262048 
0.095991 0.367221 -0.079536 -0.331546 -0.904545 0.268095 
0.08966 0.367221 -0.087251 -0.307644 -0.904029 0.296793 
0.082118 0.367221 -0.093755 -0.268477 -0.904563 0.33119 
0.074404 0.367221 -0.100086 -0.270501 -0.899706 0.342577 
0.066248 0.367221 -0.105756 -0.227974 -0.892409 0.389402 
0.057447 0.367221 -0.110461 -0.226045 -0.884737 0.407607 
0.048645 0.367221 -0.115165 -0.193398 -0.866467 0.460252 
0.039142 0.367221 -0.118175 -0.147144 -0.853477 0.499925 
0.029592 0.367221 -0.121072 -0.146887 -0.828885 0.539791 
0.019864 0.367221 -0.123069 -0.0825031 -0.80335 0.589764 
0.009932 0.367221 -0.124047 -0.0425948 -0.791157 0.610128 
0 0.006033 -0.132777 -2.76866e-06 -0.845557 0.533884 
0 -0.000328 -0.140526 -4.99642e-06 -0.749906 0.661544 
0 -0.006688 -0.148277 -6.7408e-06 -0.786158 0.618026 
0 -0.013048 -0.156028 -7.96331e-06 -0.741767 0.670657 
0 -0.02021 -0.162976 -8.75032e-06 -0.6549 0.755716 
0 -0.027961 -0.169336 -9.15629e-06 -0.629103 0.777322 
0 -0.035712 -0.175696 -9.21306e-06 -0.634374 0.773027 
0 -0.043461 -0.182056 -8.98948e-06 -0.639622 0.76869 
0 -0.05138 -0.188165 -8.54043e-06 -0.53945 0.842017 
0 -0.060222 -0.192891 -7.81315e-06 -0.453697 0.891156 
0 -0.069065 -0.197618 -6.89383e-06 -0.472318 0.881428 
0 -0.077907 -0.202344 -5.88195e-06 -0.485282 0.874358 
0 -0.086749 -0.20707 -4.86247e-06 -0.413636 0.910442 
0 -0.096141 -0.21047 -3.84636e-06 -0.297259 0.954797 
0 -0.105735 -0.21338 -2.86172e-06 -0.287648 0.957736 
0 -0.11533 -0.216291 -1.95312e-06 -0.293861 0.955848 
0 -0.124924 -0.219201 -1.17433e-06 -0.278603 0.960406 
0 -0.134636 -0.221518 -5.59366e-07 -0.157762 0.987477 
0 -0.144614 -0.222502 -7.71792e-08 -0.0816966 0.996657 
0 -0.154592 -0.223484 5.10399e-08 -0.103511 0.994628 
0 -0.16457 -0.224467 2.91519e-08 -0.0918484 0.995773 
0 -0.174547 -0.22545 1.12505e-08 -0.110257 0.993903 
0 -0.184525 -0.224694 3.51551e-09 0.143352 0.989672 
0 -0.194503 -0.223711 -2.36886e-08 0.0877332 0.996144 
0 -0.204481 -0.222728 -1.22175e-07 0.0931084 0.995656 
0 -0.214458 -0.221745 -2.92557e-07 0.128064 0.991766 
0 -0.224259 -0.219872 -4.72375e-07 0.251642 0.96782 
0 -0.233854 -0.216962 -5.79865e-07 0.299114 0.954217 
0 -0.243448 -0.214052 -6.26264e-07 0.293074 0.95609 
0 -0.253042 -0.211141 -6.23632e-07 0.270318 0.962771 
0 -0.262608 -0.208161 -5.87534e-07 0.387052 0.922058 
0 -0.27145 -0.203435 -4.7393e-07 0.492559 0.870279 
0 -0.280292 -0.198708 -3.44512e-07 0.468707 0.883354 
0 -0.289134 -0.193982 -2.14032e-07 0.460977 0.887412 
0 -0.297977 -0.189256 -9.10699e-08 0.514847 0.857282 
0 -0.306146 -0.183524 3.63672e-08 0.617728 0.786391 
0 -0.313897 -0.177164 1.5529e-07 0.63858 0.769556 
0 -0.321648 -0.170804 2.53494e-07 0.633739 0.773547 
0 -0.329398 -0.164443 3.3096e-07 0.632752 0.774355 
0 -0.336881 -0.157816 3.90683e-07 0.723906 0.689898 
0 -0.343241 -0.150065 4.35907e-07 0.784703 0.619872 
0 -0.349602 -0.142315 4.59907e-07 0.772755 0.634705 
0 -0.355962 -0.134565 4.66095e-07 0.762025 0.647548 
0 -0.362322 -0.126814 4.56514e-07 0.815085 0.579342 
0 -0.367426 -0.118224 4.33981e-07 0.880694 0.473686 
0 -0.372152 -0.109381 4.00052e-07 0.882801 0.469747 
0 -0.376878 -0.100539 3.56965e-07 0.879714 0.475504 
0 -0.381605 -0.091697 3.07852e-07 0.889625 0.456693 
0 -0.385703 -0.082595 2.56336e-07 0.939614 0.342237 
0 -0.388613 -0.073 2.03647e-07 0.96068 0.27766 
0 -0.391523 -0.063406 1.51401e-07 0.957618 0.288041 
0 -0.394434 -0.053812 1.02811e-07 0.950117 0.311894 
0 -0.397343 -0.044217 6.03996e-08 0.978873 0.204468 
0 -0.398475 -0.034268 2.72731e-08 0.99664 0.0819073 
0 -0.399457 -0.024291 3.89928e-09 0.994974 0.100135 
0 -0.40044 -0.014313 -7.69829e-09 0.994441 0.105293 
0 -0.401423 -0.004335 -5.92057e-09 0.997853 0.065491 
0 -0.401423 0.005642 9.19781e-09 0.997853 -0.0654894 
0 -0.40044 0.01562 3.57334e-08 0.994441 -0.1053 
0 -0.399457 0.025597 7.36683e-08 0.994974 -0.100136 
0 -0.398475 0.035575 1.2403e-07 0.996641 -0.0818916 
0 -0.397343 0.045524 1.86895e-07 0.978867 -0.204497 
0 -0.394434 0.055118 2.55779e-07 0.950116 -0.311896 
0 -0.391523 0.064713 3.37134e-07 0.957627 -0.288012 
0 -0.388613 0.074307 4.32022e-07 0.960671 -0.277691 
0 -0.385703 0.083901 5.40017e-07 0.939619 -0.342223 
0 -0.381605 0.093004 6.50526e-07 0.889636 -0.45667 
0 -0.376878 0.101846 7.68728e-07 0.879716 -0.4755 
0 -0.372152 0.110688 8.99411e-07 0.882782 -0.469783 
0 -0.367426 0.11953 1.0422e-06 0.880702 -0.473671 
0 -0.362322 0.128121 1.19043e-06 0.815076 -0.579354 
0 -0.355962 0.135871 1.32265e-06 0.762015 -0.647559 
0 -0.349602 0.143622 1.46407e-06 0.772798 -0.634653 
0 -0.343241 0.151372 1.61605e-06 0.784661 -0.619926 
0 -0.336881 0.159122 1.774e-06 0.723917 -0.689887 
0 -0.329398 0.16575 1.89945e-06 0.632796 -0.774319 
0 -0.321648 0.172111 2.03061e-06 0.633723 -0.77356 
0 -0.313897 0.178471 2.17482e-06 0.638597 -0.769542 
0 -0.306146 0.184831 2.32921e-06 0.617675 -0.786434 
0 -0.297977 0.190562 2.47568e-06 0.514848 -0.857281 
0 -0.289134 0.195289 2.60575e-06 0.461055 -0.887371 
0 -0.280292 0.200015 2.75438e-06 0.46863 -0.883395 
0 -0.27145 0.204741 2.91369e-06 0.492558 -0.87028 
0 -0.262608 0.209468 3.05918e-06 0.387134 -0.922024 
0 -0.253042 0.212448 3.13996e-06 0.270227 -0.962797 
0 -0.243448 0.215358 3.27183e-06 0.293079 -0.956088 
0 -0.233854 0.218269 3.42968e-06 0.299186 -0.954195 
0 -0.224259 0.221179 3.53743e-06 0.251624 -0.967825 
0 -0.214458 0.223052 3.39387e-06 0.128063 -0.991766 
0 -0.204481 0.224035 2.58606e-06 0.0931298 -0.995654 
0 -0.194503 0.225018 -5.14072e-07 0.0876492 -0.996151 
0 -0.184525 0.226 -5.03319e-06 0.143372 -0.989669 
0 -0.174547 0.226757 -5.71066e-06 -0.11029 -0.993899 
0 -0.16457 0.225773 -5.34153e-06 -0.091833 -0.995774 
0 -0.154592 0.224791 -1.11854e-06 -0.103508 -0.994629 
0 -0.144614 0.223808 2.34703e-06 -0.0817239 -0.996655 
0 -0.134636 0.222825 4.03172e-06 -0.157657 -0.987494 
0 -0.124924 0.220508 4.96173e-06 -0.278698 -0.960379 
0 -0.11533 0.217597 5.76007e-06 -0.293855 -0.95585 
0 -0.105735 0.214687 6.63593e-06 -0.287574 -0.957758 
0 -0.096141 0.211777 7.6402e-06 -0.297283 -0.954789 
0 -0.086749 0.208377 8.68568e-06 -0.413614 -0.910452 
0 -0.077907 0.203651 9.79917e-06 -0.485345 -0.874323 
0 -0.069065 0.198924 1.1007e-05 -0.472318 -0.881428 
0 -0.060222 0.194198 1.23064e-05 -0.453631 -0.89119 
0 -0.05138 0.189472 1.36481e-05 -0.539478 -0.842 
0 -0.043461 0.183363 1.48969e-05 -0.639578 -0.768726 
0 -0.035711 0.177003 1.61716e-05 -0.634377 -0.773024 
0 -0.027961 0.170643 1.75096e-05 -0.629136 -0.777295 
0 -0.02021 0.164283 1.87894e-05 -0.654917 -0.755701 
0 -0.013048 0.157335 1.97348e-05 -0.741682 -0.670752 
0 -0.006688 0.149584 1.93771e-05 -0.786447 -0.617658 
0 -0.000328 0.141833 1.52001e-05 -0.748678 -0.662933 
0 0.006033 0.134083 3.09238e-06 -0.848907 -0.528543 
0 0.012393 0.126333 -2.01203e-05 -0.438546 -0.898709 
0 0.022531 0.126333 -1.16476e-05 0.138867 -0.990311 
0 0.032669 0.126333 -3.07878e-06 -0.0368877 -0.999319 
0 0.042807 0.126333 -3.74274e-08 0.00989372 -0.999951 
0 0.052945 0.126333 1.44803e-09 -0.00264239 -0.999997 
0 0.063083 0.126333 -9.30528e-10 0.000713879 -1 
0 0.073221 0.126333 2.06223e-10 -0.000186949 -1 
0 0.083358 0.126333 -6.60423e-11 5.43653e-05 -1 
0 0.093496 0.126333 1.2829e-11 -9.6585e-06 -1 
0 0.103634 0.126333 -1.13401e-11 7.33816e-06 -1 
0 0.113772 0.126333 -4.9658e-12 2.55755e-06 -1 
0 0.123911 0.126333 -1.08171e-11 3.93366e-06 -1 
0 0.134049 0.126333 -1.90844e-11 3.91842e-06 -1 
0 0.144187 0.126333 -6.60427e-11 3.45008e-06 -1 
0 0.154324 0.126333 1.90821e-11 1.65825e-06 -1 
0 0.164462 0.126333 -1.71664e-12 -3.56666e-07 -1 
0 0.1746 0.126333 -5.58564e-12 -1.7291e-06 -1 
0 0.184738 0.126333 -4.78564e-12 -1.88375e-06 -1 
0 0.194876 0.126333 -3.01975e-12 -1.39637e-06 -1 
0 0.205014 0.126333 -2.27764e-12 -1.18087e-06 -1 
0 0.215152 0.126333 -1.63281e-12 -9.21592e-07 -1 
0 0.225289 0.126333 -1.69357e-12 -1.02056e-06 -1 
0 0.235427 0.126333 -2.75893e-13 -1.7537e-07 -1 
0 0.245565 0.126333 3.03655e-13 2.02294e-07 -1 
0 0.255703 0.126333 2.86061e-12 1.99776e-06 -1 
0 0.265841 0.126333 2.44678e-12 1.80877e-06 -1 
0 0.275979 0.126333 1.20073e-11 9.63977e-06 -1 
0 0.286118 0.126333 -2.05365e-11 -1.91231e-05 -1 
0 0.296256 0.126333 6.93199e-11 8.90863e-05 -1 
0 0.306393 0.126333 -3.57613e-11 -0.000324275 -1 
0 0.316531 0.126333 -1.40868e-09 0.00123423 -0.999999 
0 0.326669 0.126333 5.02419e-08 -0.00455018 -0.99999 
0 0.336807 0.126333 5.94861e-07 0.0172013 -0.999852 
0 0.346945 0.126333 4.11255e-06 -0.063218 -0.998 
0 0.357083 0.126333 -5.53162e-07 0.2377 -0.971339 
0 0.367221 0.126333 -6.06323e-06 -0.734843 -0.678237 
0 0.367221 0.116278 -1.89776e-05 -0.976605 0.215043 
0 0.367221 0.106224 -1.78469e-05 -0.998407 -0.0564249 
0 0.367221 0.096169 -1.71384e-05 -0.999882 0.015348 
0 0.367221 0.086115 -1.67469e-05 -0.999992 -0.00404873 
0 0.367221 0.076061 -1.58311e-05 -0.999999 0.00109215 
0 0.367221 0.066007 -1.43836e-05 -1 -0.000286595 
0 0.367221 0.055952 -1.25863e-05 -1 9.33241e-05 
0 0.367221 0.045898 -1.05576e-05 -1 -1.04453e-05 
0 0.367221 0.035843 -8.31333e-06 -1 1.81367e-05 
0 0.367221 0.025789 -5.89533e-06 -1 2.70277e-06 
0 0.367221 0.015735 -3.44926e-06 -1 8.14431e-06 
0 0.367221 0.005681 -1.13176e-06 -1 -4.33044e-05 
0 0.367221 -0.004374 1.17392e-06 -1 4.47802e-05 
0 0.367221 -0.014428 3.71974e-06 -1 -8.73197e-06 
0 0.367221 -0.024483 6.40192e-06 -1 -4.41656e-06 
0 0.367221 -0.034537 8.96268e-06 -1 -1.87966e-05 
0 0.367221 -0.044591 1.11704e-05 -1 8.81734e-06 
0 0.367221 -0.054645 1.28262e-05 -1 -9.11993e-05 
0 0.367221 -0.0647 1.3767e-05 -1 0.000269757 
0 0.367221 -0.074754 1.38702e-05 -0.999999 -0.00102487 
0 0.367221 -0.084809 1.30525e-05 -0.999993 0.00379508 
0 0.367221 -0.094862 1.12814e-05 -0.999897 -0.0143707 
0 0.367221 -0.104917 8.63736e-06 -0.998604 0.052822 
0 0.367221 -0.114971 5.17001e-06 -0.97907 -0.203523 
0 0.357083 -0.125026 -3.39157e-06 0.22371 0.974656 
0 0.346945 -0.125026 -1.51021e-06 -0.0589072 0.998263 
0 0.336807 -0.125026 1.19433e-06 0.0160211 0.999872 
0 0.326669 -0.125026 3.91094e-07 -0.00423941 0.999991 
0 0.316531 -0.125026 -3.46518e-08 0.00114999 0.999999 
0 0.306393 -0.125026 5.17403e-09 -0.00029712 1 
0 0.296256 -0.125026 -1.03612e-09 8.54474e-05 1 
0 0.286118 -0.125026 1.74812e-10 -1.9032e-05 1 
0 0.275979 -0.125026 -5.2034e-11 7.05736e-06 1 
0 0.265841 -0.125026 -2.47353e-12 4.01608e-07 1 
0 0.255703 -0.125026 -1.82136e-11 3.42975e-06 1 
0 0.245565 -0.125026 -6.33159e-12 1.34634e-06 1 
0 0.235427 -0.125026 -6.23675e-13 1.46139e-07 1 
0 0.225289 -0.125026 8.68195e-12 -2.18847e-06 1 
0 0.215152 -0.125026 1.02416e-11 -2.70631e-06 1 
0 0.205014 -0.125026 1.03322e-11 -2.77678e-06 1 
0 0.194876 -0.125026 6.72022e-12 -1.76663e-06 1 
0 0.184738 -0.125026 2.4121e-12 -5.86694e-07 1 
0 0.1746 -0.125026 -2.28023e-13 4.68992e-08 1 
0 0.164462 -0.125026 -1.58327e-12 2.30599e-07 1 
0 0.154324 -0.125026 -7.78119e-12 4.57324e-07 1 
0 0.144187 -0.125026 2.71644e-11 1.56538e-06 1 
0 0.134049 -0.125026 1.47578e-11 2.9902e-06 1 
0 0.123911 -0.125026 1.26613e-11 4.68107e-06 1 
0 0.113772 -0.125026 7.23346e-12 3.95376e-06 1 
0 0.103634 -0.125026 1.12764e-11 8.09341e-06 1 
0 0.093496 -0.125026 -1.0255e-11 -8.93332e-06 1 
0 0.083358 -0.125026 5.0819e-11 5.03125e-05 1 
0 0.073221 -0.125026 -1.50645e-10 -0.000172022 1 
0 0.063083 -0.125026 6.73014e-10 0.000656395 1 
0 0.052945 -0.125026 3.33241e-10 -0.00242603 0.999997 
0 0.042807 -0.125026 5.27707e-08 0.00909079 0.999959 
0 0.032669 -0.125026 8.07513e-07 -0.0338097 0.999428 
0 0.022531 -0.125026 1.35791e-06 0.128373 0.991726 
-0.125679 0.012393 0.000653 0.897531 -0.43756 -0.0545874 
-0.125679 0.022531 0.000653 0.990713 0.135905 -0.00423982 
-0.125679 0.032669 0.000653 0.999349 -0.0360029 0.0021011 
-0.125679 0.042807 0.000653 0.99995 0.00966469 0.00239113 
-0.125679 0.052945 0.000653 0.999994 -0.002581 0.00215264 
-0.125679 0.063083 0.000653 0.999998 0.000696273 0.00192203 
-0.125679 0.073221 0.000653 0.999998 -0.000182705 0.00173454 
-0.125679 0.083358 0.000653 0.999999 5.32873e-05 0.00155973 
-0.125679 0.093496 0.000653 0.999999 -8.90913e-06 0.00135954 
-0.125679 0.103634 0.000653 0.999999 8.17042e-06 0.0011078 
-0.125679 0.113772 0.000653 1 3.44782e-06 0.000801557 
-0.125679 0.123911 0.000653 1 4.22276e-06 0.000459545 
-0.125679 0.134049 0.000653 1 3.30375e-06 0.000109794 
-0.125679 0.144187 0.000653 1 2.50246e-06 -0.000224655 
-0.125679 0.154324 0.000653 1 1.19655e-06 -0.000532533 
-0.125679 0.164462 0.000653 1 -6.55685e-08 -0.000812731 
-0.125679 0.1746 0.000653 0.999999 -1.27615e-06 -0.00106829 
-0.125679 0.184738 0.000653 0.999999 -2.15349e-06 -0.00130335 
-0.125679 0.194876 0.000653 0.999999 -2.74621e-06 -0.00152583 
-0.125679 0.205014 0.000653 0.999998 -2.73535e-06 -0.00175247 
-0.125679 0.215152 0.000653 0.999998 -1.75768e-06 -0.00200791 
-0.125679 0.225289 0.000653 0.999997 -3.51668e-07 -0.00231511 
-0.125679 0.235427 0.000653 0.999996 1.77021e-06 -0.00268531 
-0.125679 0.245565 0.000653 0.999995 2.50254e-06 -0.00311562 
-0.125679 0.255703 0.000653 0.999994 3.95274e-06 -0.00359246 
-0.125679 0.265841 0.000653 0.999992 1.19981e-06 -0.00409302 
-0.125679 0.275979 0.000653 0.999989 9.3655e-06 -0.00458719 
-0.125679 0.286118 0.000653 0.999987 -1.95495e-05 -0.00504811 
-0.125679 0.296256 0.000653 0.999985 9.01019e-05 -0.00546521 
-0.125679 0.306393 0.000653 0.999983 -0.000315719 -0.00584348 
-0.125679 0.316531 0.000653 0.99998 0.00120509 -0.00619233 
-0.125679 0.326669 0.000653 0.999969 -0.00444166 -0.00654551 
-0.125679 0.336807 0.000653 0.999834 0.0167719 -0.00710406 
-0.125679 0.346945 0.000653 0.998058 -0.0616579 -0.00887275 
-0.125679 0.357083 0.000653 0.972406 0.23283 -0.0147413 
-0.125679 0.367221 0.000653 0.67874 -0.734246 -0.0139583 
-0.115624 0.367221 0.000653 -0.210444 -0.977586 -0.00624691 
-0.105571 0.367221 0.000653 0.0549415 -0.998488 0.00176937 
-0.095516 0.367221 0.000653 -0.0149383 -0.999882 0.00360054 
-0.085462 0.367221 0.000653 0.00393827 -0.999985 0.00372335 
-0.075407 0.367221 0.000653 -0.0010612 -0.999994 0.00335212 
-0.065353 0.367221 0.000653 0.000276494 -0.999996 0.00279878 
-0.055299 0.367221 0.000653 -8.44538e-05 -0.999998 0.00219877 
-0.045245 0.367221 0.000653 1.28534e-05 -0.999999 0.00161776 
-0.03519 0.367221 0.000653 -1.19806e-05 -0.999999 0.00108049 
-0.025136 0.367221 0.000653 -1.9852e-06 -1 0.000607978 
-0.015081 0.367221 0.000653 -4.66333e-06 -1 0.000238874 
-0.005027 0.367221 0.000653 5.13524e-05 -1 3.00355e-05 
0.005027 0.367221 0.000653 -5.135e-05 -1 2.77844e-05 
0.015081 0.367221 0.000653 4.66002e-06 -1 0.000232035 
0.025136 0.367221 0.000653 1.9871e-06 -1 0.00059703 
0.03519 0.367221 0.000653 1.1981e-05 -0.999999 0.00106627 
0.045245 0.367221 0.000653 -1.28515e-05 -0.999999 0.00160123 
0.055299 0.367221 0.000653 8.44479e-05 -0.999998 0.00218096 
0.065353 0.367221 0.000653 -0.0002765 -0.999996 0.00278081 
0.075407 0.367221 0.000653 0.00106119 -0.999994 0.00333514 
0.085462 0.367221 0.000653 -0.00393828 -0.999985 0.00370828 
0.095516 0.367221 0.000653 0.0149382 -0.999882 0.00358789 
0.105571 0.367221 0.000653 -0.0549416 -0.998488 0.00175961 
0.115624 0.367221 0.000653 0.210444 -0.977586 -0.00625488 
0.125679 0.367221 0.000653 -0.678732 -0.734253 -0.0139577 
0.125679 0.357083 0.000653 -0.972406 0.23283 -0.0147348 
0.125679 0.346945 0.000653 -0.998058 -0.061658 -0.00886389 
0.125679 0.336807 0.000653 -0.999834 0.0167718 -0.00709343 
0.125679 0.326669 0.000653 -0.999969 -0.00444168 -0.00653386 
0.125679 0.316531 0.000653 -0.99998 0.00120509 -0.0061799 
0.125679 0.306393 0.000653 -0.999983 -0.000315729 -0.00583043 
0.125679 0.296256 0.000653 -0.999985 9.00969e-05 -0.00545172 
0.125679 0.286118 0.000653 -0.999987 -1.95584e-05 -0.00503441 
0.125679 0.275979 0.000653 -0.99999 9.37004e-06 -0.00457344 
0.125679 0.265841 0.000653 -0.999992 1.21231e-06 -0.00407935 
0.125679 0.255703 0.000653 -0.999994 3.96379e-06 -0.0035791 
0.125679 0.245565 0.000653 -0.999995 2.49809e-06 -0.00310288 
0.125679 0.235427 0.000653 -0.999996 1.7579e-06 -0.00267343 
0.125679 0.225289 0.000653 -0.999997 -3.52471e-07 -0.00230422 
0.125679 0.215152 0.000653 -0.999998 -1.74127e-06 -0.00199815 
0.125679 0.205014 0.000653 -0.999998 -2.71894e-06 -0.00174398 
0.125679 0.194876 0.000653 -0.999999 -2.74824e-06 -0.00151872 
0.125679 0.184738 0.000653 -0.999999 -2.1696e-06 -0.00129767 
0.125679 0.1746 0.000653 -0.999999 -1.28859e-06 -0.00106411 
0.125679 0.164462 0.000653 -1 -6.68056e-08 -0.000810115 
0.125679 0.154324 0.000653 -1 1.20031e-06 -0.00053156 
0.125679 0.144187 0.000653 -1 2.50275e-06 -0.000225341 
0.125679 0.134049 0.000653 -1 3.30246e-06 0.000107461 
0.125679 0.123911 0.000653 -1 4.22373e-06 0.000455581 
0.125679 0.113772 0.000653 -1 3.44572e-06 0.000795992 
0.125679 0.103634 0.000653 -0.999999 8.16476e-06 0.00110071 
0.125679 0.093496 0.000653 -0.999999 -8.92279e-06 0.00135105 
0.125679 0.083358 0.000653 -0.999999 5.32936e-05 0.00155011 
0.125679 0.073221 0.000653 -0.999998 -0.000182705 0.00172423 
0.125679 0.063083 0.000653 -0.999998 0.000696299 0.00191164 
0.125679 0.052945 0.000653 -0.999994 -0.002581 0.00214292 
0.125679 0.042807 0.000653 -0.99995 0.00966476 0.00238289 
0.125679 0.032669 0.000653 -0.999349 -0.0360029 0.00209459 
0.125679 0.022531 0.000653 -0.990713 0.135905 -0.00424345 
0.125679 0.012393 0.000653 -0.897536 -0.437548 -0.0545886 
0.13343 0.006033 0.000653 -0.530362 -0.847721 -0.00926794 
0.14118 -0.000328 0.000653 -0.662463 -0.749089 -0.00291995 
0.14893 -0.006688 0.000653 -0.617822 -0.786314 -0.00248025 
0.156681 -0.013048 0.000653 -0.670675 -0.741747 -0.00258246 
0.16363 -0.02021 0.000653 -0.75567 -0.654947 -0.00264243 
0.16999 -0.027961 0.000653 -0.77733 -0.629088 -0.00262221 
0.17635 -0.035712 0.000653 -0.77302 -0.634377 -0.00255032 
0.18271 -0.043461 0.000653 -0.768691 -0.639616 -0.00245119 
0.188819 -0.05138 0.000653 -0.842008 -0.53946 -0.00233234 
0.193545 -0.060222 0.000653 -0.891177 -0.453651 -0.00216987 
0.198271 -0.069065 0.000653 -0.881463 -0.472249 -0.00199814 
0.202997 -0.077907 0.000653 -0.874312 -0.485362 -0.00182799 
0.207724 -0.086749 0.000653 -0.910454 -0.413608 -0.00165814 
0.211123 -0.096141 0.000653 -0.954796 -0.297258 -0.00146942 
0.214034 -0.105735 0.000653 -0.957725 -0.287682 -0.00127614 
0.216944 -0.11533 0.000653 -0.95589 -0.293724 -0.00108506 
0.219854 -0.124924 0.000653 -0.960336 -0.278843 -0.000899322 
0.222172 -0.134636 0.000653 -0.987566 -0.157206 -0.00071772 
0.223155 -0.144614 0.000653 -0.996493 -0.0836706 -0.000533103 
0.224138 -0.154592 0.000653 -0.995365 -0.0961658 -0.00035261 
0.22512 -0.16457 0.000653 -0.992837 -0.119479 -0.000177056 
0.226103 -0.174547 0.000653 -0.999994 -0.00342139 8.68175e-06 
0.225347 -0.184525 0.000653 -0.995095 0.0989223 0.00014065 
0.224365 -0.194503 0.000653 -0.995008 0.0997911 0.000270884 
0.223381 -0.204481 0.000653 -0.99595 0.0899039 0.000384793 
0.222399 -0.214458 0.000653 -0.991667 0.128825 0.000482412 
0.220526 -0.224259 0.000653 -0.967859 0.251492 0.000562335 
0.217615 -0.233854 0.000653 -0.954176 0.299245 0.000625654 
0.214705 -0.243448 0.000653 -0.956121 0.292973 0.000678985 
0.211795 -0.253042 0.000653 -0.96277 0.270322 0.000723896 
0.208814 -0.262608 0.000653 -0.922021 0.38714 0.00075882 
0.204088 -0.27145 0.000653 -0.870324 0.492479 0.000766713 
0.199362 -0.280292 0.000653 -0.883351 0.468712 0.000767153 
0.194635 -0.289134 0.000653 -0.88738 0.461038 0.000763693 
0.189909 -0.297977 0.000653 -0.857292 0.514831 0.000756171 
0.184177 -0.306146 0.000653 -0.786388 0.617732 0.000736541 
0.177817 -0.313897 0.000653 -0.769557 0.638578 0.00070986 
0.171457 -0.321648 0.000653 -0.773546 0.63374 0.000681125 
0.165096 -0.329398 0.000653 -0.774357 0.632748 0.000651298 
0.158469 -0.336881 0.000653 -0.689888 0.723916 0.000618665 
0.150718 -0.343241 0.000653 -0.619913 0.78467 0.000573622 
0.142969 -0.349602 0.000653 -0.634705 0.772755 0.000527744 
0.135218 -0.355962 0.000653 -0.647511 0.762056 0.000482904 
0.127467 -0.362322 0.000653 -0.579347 0.815081 0.000438896 
0.118877 -0.367426 0.000653 -0.473707 0.880683 0.000389134 
0.110035 -0.372152 0.000653 -0.469781 0.882783 0.000340149 
0.101193 -0.376878 0.000653 -0.47547 0.879732 0.000293891 
0.09235 -0.381605 0.000653 -0.456669 0.889637 0.000250656 
0.083248 -0.385703 0.000653 -0.342238 0.939613 0.000209484 
0.073653 -0.388613 0.000653 -0.277682 0.960673 0.00016887 
0.06406 -0.391523 0.000653 -0.288037 0.957619 0.00013186 
0.054465 -0.394434 0.000653 -0.31189 0.950118 9.89528e-05 
0.044871 -0.397343 0.000653 -0.204498 0.978867 7.02636e-05 
0.034922 -0.398475 0.000653 -0.0818928 0.996641 4.47242e-05 
0.024944 -0.399457 0.000653 -0.100131 0.994974 2.49393e-05 
0.014966 -0.40044 0.000653 -0.105294 0.994441 1.23874e-05 
0.004988 -0.401423 0.000653 -0.0654946 0.997853 7.2699e-06 
-0.004988 -0.401423 0.000653 0.0654946 0.997853 7.2547e-06 
-0.014966 -0.40044 0.000653 0.105294 0.994441 1.23465e-05 
-0.024944 -0.399457 0.000653 0.100131 0.994974 2.48809e-05 
-0.034922 -0.398475 0.000653 0.0818928 0.996641 4.46586e-05 
-0.044871 -0.397343 0.000653 0.204498 0.978867 7.02028e-05 
-0.054465 -0.394434 0.000653 0.31189 0.950118 9.89167e-05 
-0.06406 -0.391523 0.000653 0.288037 0.957619 0.000131865 
-0.073653 -0.388613 0.000653 0.277682 0.960673 0.000168932 
-0.083248 -0.385703 0.000653 0.342238 0.939613 0.000209622 
-0.09235 -0.381605 0.000653 0.456669 0.889637 0.000250896 
-0.101193 -0.376878 0.000653 0.47547 0.879732 0.000294261 
-0.110035 -0.372152 0.000653 0.469781 0.882783 0.000340675 
-0.118877 -0.367426 0.000653 0.473707 0.880683 0.000389838 
-0.127467 -0.362322 0.000653 0.579347 0.815081 0.000439798 
-0.135218 -0.355962 0.000653 0.647511 0.762056 0.00048401 
-0.142969 -0.349602 0.000653 0.634705 0.772755 0.000529057 
-0.150718 -0.343241 0.000653 0.619913 0.78467 0.000575143 
-0.158469 -0.336881 0.000653 0.689888 0.723916 0.0006204 
-0.165096 -0.329398 0.000653 0.774357 0.632748 0.000653252 
-0.171457 -0.321648 0.000653 0.773546 0.63374 0.000683332 
-0.177817 -0.313897 0.000653 0.769557 0.638578 0.000712355 
-0.184177 -0.306146 0.000653 0.786388 0.617732 0.000739344 
-0.189909 -0.297977 0.000653 0.857292 0.514831 0.000759271 
-0.194635 -0.289134 0.000653 0.88738 0.461038 0.000767055 
-0.199362 -0.280292 0.000653 0.883351 0.468712 0.000770769 
-0.204088 -0.27145 0.000653 0.870324 0.492479 0.000770574 
-0.208814 -0.262608 0.000653 0.922021 0.38714 0.000762877 
-0.211795 -0.253042 0.000653 0.96277 0.270322 0.000727971 
-0.214705 -0.243448 0.000653 0.956121 0.292973 0.000682931 
-0.217615 -0.233854 0.000653 0.954176 0.299245 0.000629293 
-0.220526 -0.224259 0.000653 0.967859 0.251492 0.000565456 
-0.222399 -0.214458 0.000653 0.991667 0.128825 0.00048478 
-0.223381 -0.204481 0.000653 0.99595 0.0899039 0.000386311 
-0.224365 -0.194503 0.000653 0.995008 0.0997911 0.000271901 
-0.225347 -0.184525 0.000653 0.995095 0.0989224 0.000142534 
-0.226103 -0.174547 0.000653 0.999994 -0.00343691 -1.48277e-05 
-0.22512 -0.16457 0.000653 0.992836 -0.119483 -0.000177864 
-0.224138 -0.154592 0.000653 0.995365 -0.0961673 -0.000356004 
-0.223155 -0.144614 0.000653 0.996493 -0.0836712 -0.000537662 
-0.222172 -0.134636 0.000653 0.987565 -0.157207 -0.000723087 
-0.219854 -0.124924 0.000653 0.960336 -0.278843 -0.000905383 
-0.216944 -0.11533 0.000653 0.95589 -0.293724 -0.00109189 
-0.214034 -0.105735 0.000653 0.957725 -0.287682 -0.00128383 
-0.211123 -0.096141 0.000653 0.954796 -0.297258 -0.00147795 
-0.207724 -0.086749 0.000653 0.910453 -0.413608 -0.00166746 
-0.202997 -0.077907 0.000653 0.874312 -0.485361 -0.00183796 
-0.198271 -0.069065 0.000653 0.881462 -0.47225 -0.00200863 
-0.193545 -0.060222 0.000653 0.891178 -0.453648 -0.00218071 
-0.188819 -0.05138 0.000653 0.842001 -0.539471 -0.00234332 
-0.18271 -0.043461 0.000653 0.76872 -0.639581 -0.00246205 
-0.17635 -0.035711 0.000653 0.77303 -0.634364 -0.00256101 
-0.16999 -0.027961 0.000653 0.777259 -0.629175 -0.00263264 
-0.163629 -0.02021 0.000653 0.755675 -0.654941 -0.00265252 
-0.156681 -0.013048 0.000653 0.670717 -0.741709 -0.00259213 
-0.14893 -0.006688 0.000653 0.61781 -0.786323 -0.00248918 
-0.14118 -0.000328 0.000653 0.662466 -0.749086 -0.00292762 
-0.13343 0.006033 0.000653 0.53036 -0.847722 -0.00927092 
