ply
format ascii 1.0
element vertex 718
property float x
property float y
property float z
property float nx
property float ny
property float nz
end_header
0 0.012393 -0.125026 0.00093363 0.430345 -0.902664 
-0.009932 0.012393 -0.124047 -0.171265 0.395646 -0.902293 
-0.019864 0.012393 -0.123069 -0.138263 0.398501 -0.906686 
-0.029592 0.012393 -0.121072 -0.242186 0.396438 -0.885541 
-0.039142 0.012393 -0.118175 -0.269182 0.393726 -0.878932 
-0.048645 0.012393 -0.115165 -0.381761 0.394024 -0.836064 
-0.057447 0.012393 -0.110461 -0.435772 0.378058 -0.816808 
-0.066248 0.012393 -0.105757 -0.482069 0.373579 -0.792495 
-0.074404 0.012393 -0.100086 -0.570782 0.360547 -0.737708 
-0.082118 0.012393 -0.093755 -0.597578 0.347507 -0.722592 
-0.08966 0.012393 -0.087251 -0.672425 0.342621 -0.656091 
-0.095991 0.012393 -0.079536 -0.725171 0.353613 -0.590834 
-0.102322 0.012393 -0.071822 -0.749428 0.370804 -0.548509 
-0.107586 0.012393 -0.063394 -0.803334 0.382629 -0.456344 
-0.11229 0.012393 -0.054593 -0.817952 0.387505 -0.4252 
-0.116656 0.012393 -0.045652 -0.849978 0.399082 -0.343904 
-0.119552 0.012393 -0.036101 -0.876574 0.398539 -0.269786 
-0.12245 0.012393 -0.026552 -0.884017 0.404526 -0.234249 
-0.123967 0.012393 -0.016727 -0.908192 0.40307 -0.112787 
-0.124946 0.012393 -0.006795 -0.900891 0.404329 -0.157839 
-0.125435 0.012393 0.003137 -0.903599 0.419862 0.0849968 
-0.124457 0.012393 0.013068 -0.906969 0.39634 0.142551 
-0.123478 0.012393 0.022999 -0.898041 0.40334 0.175609 
-0.121001 0.012393 0.032633 -0.882402 0.396031 0.254021 
-0.118105 0.012393 0.042183 -0.871636 0.396494 0.288171 
-0.114643 0.012393 0.051499 -0.828732 0.393892 0.397557 
-0.109938 0.012393 0.0603 -0.817732 0.382612 0.430026 
-0.105233 0.012393 0.069101 -0.773283 0.377248 0.509624 
-0.099157 0.012393 0.076986 -0.725514 0.362661 0.584898 
-0.092826 0.012393 0.084701 -0.708501 0.347689 0.614116 
-0.085976 0.012393 0.091896 -0.633617 0.341464 0.694213 
-0.078262 0.012393 0.098227 -0.595612 0.355551 0.720298 
-0.070547 0.012393 0.104557 -0.530698 0.373297 0.760927 
-0.061848 0.012393 0.109415 -0.434524 0.381807 0.815728 
-0.053046 0.012393 0.11412 -0.414357 0.389352 0.822626 
-0.043917 0.012393 0.118034 -0.303265 0.395345 0.867025 
-0.034367 0.012393 0.12093 -0.276692 0.398284 0.874535 
-0.024817 0.012393 0.123826 -0.208992 0.409611 0.887998 
-0.014897 0.012393 0.124865 -0.118068 0.402323 0.907852 
-0.004966 0.012393 0.125843 -0.116002 0.413363 0.903147 
0.004965 0.012393 0.125843 0.124496 0.408693 0.904141 
0.014897 0.012393 0.124865 0.116624 0.396972 0.910391 
0.024817 0.012393 0.123827 0.210247 0.405454 0.889609 
0.034368 0.012393 0.12093 0.275179 0.394483 0.876733 
0.043917 0.012393 0.118034 0.304545 0.3899 0.86904 
0.053046 0.012393 0.11412 0.415557 0.38221 0.825365 
0.061848 0.012393 0.109416 0.436234 0.373036 0.818868 
0.070547 0.012393 0.104558 0.533027 0.362892 0.764325 
0.078262 0.012393 0.098227 0.598 0.344462 0.7237 
0.085975 0.012393 0.091896 0.636394 0.33085 0.696807 
0.092826 0.012393 0.084701 0.711477 0.337273 0.616479 
0.099157 0.012393 0.076986 0.728203 0.35338 0.587233 
0.105234 0.012393 0.069101 0.775708 0.369504 0.511609 
0.109938 0.012393 0.0603 0.819925 0.376917 0.430879 
0.114642 0.012393 0.051499 0.830407 0.38946 0.398428 
0.118105 0.012393 0.042183 0.87289 0.393413 0.288597 
0.121001 0.012393 0.032633 0.883147 0.394242 0.254214 
0.123478 0.012393 0.023 0.898588 0.402472 0.174802 
0.124457 0.012393 0.013068 0.905835 0.396605 0.148889 
0.125435 0.012393 0.003137 0.90305 0.42112 0.0846129 
0.124946 0.012393 -0.006795 0.900831 0.404547 -0.157622 
0.123967 0.012393 -0.016727 0.908918 0.401249 -0.113437 
0.12245 0.012393 -0.026552 0.885235 0.401734 -0.234452 
0.119552 0.012393 -0.036101 0.878001 0.394438 -0.271171 
0.116656 0.012393 -0.045652 0.85205 0.394038 -0.344593 
0.11229 0.012393 -0.054593 0.820247 0.381275 -0.426408 
0.107586 0.012393 -0.063394 0.805974 0.375065 -0.457966 
0.102322 0.012393 -0.071822 0.75229 0.36209 -0.550409 
0.095991 0.012393 -0.079536 0.727755 0.344755 -0.592889 
0.08966 0.012393 -0.087251 0.674313 0.334309 -0.658437 
0.082118 0.012393 -0.093755 0.599251 0.33978 -0.724878 
0.074404 0.012393 -0.100086 0.572446 0.35438 -0.739405 
0.066248 0.012393 -0.105756 0.483025 0.369068 -0.794025 
0.057447 0.012393 -0.110461 0.435899 0.376367 -0.81752 
0.048645 0.012393 -0.115165 0.382179 0.393359 -0.836187 
0.039142 0.012393 -0.118175 0.26903 0.395276 -0.878282 
0.029592 0.012393 -0.121072 0.241499 0.399992 -0.884129 
0.019864 0.012393 -0.123069 0.139682 0.403939 -0.904059 
0.009932 0.012393 -0.124047 0.163354 0.402778 -0.900603 
0 -0.175698 -0.225563 -2.40732e-06 0.0721839 -0.997391 
-0.009946 -0.175698 -0.224584 -0.110031 0.0117167 -0.993859 
-0.019891 -0.175698 -0.223604 -0.0949905 -1.1633e-17 -0.995478 
-0.029836 -0.175698 -0.222625 -0.0915772 0.00119386 -0.995797 
-0.039781 -0.175698 -0.221644 -0.148327 0.00179194 -0.988937 
-0.049512 -0.175698 -0.219584 -0.255074 -3.12376e-17 -0.966922 
-0.059075 -0.175698 -0.216683 -0.294175 0.00248694 -0.955748 
-0.068638 -0.175698 -0.213783 -0.288271 0.00276918 -0.957545 
-0.078201 -0.175698 -0.210881 -0.285293 -3.49383e-17 -0.95844 
-0.087671 -0.175698 -0.207755 -0.402694 0.0117944 -0.915258 
-0.096484 -0.175698 -0.203043 -0.483613 0.0175511 -0.875106 
-0.105297 -0.175698 -0.198332 -0.46754 0.0282813 -0.883519 
-0.114111 -0.175698 -0.193621 -0.457176 0.0438533 -0.888294 
-0.122925 -0.175698 -0.188911 -0.518567 0.0515666 -0.853481 
-0.13099 -0.175698 -0.18308 -0.621371 0.0529916 -0.781723 
-0.138716 -0.175698 -0.17674 -0.635931 0.0503474 -0.770102 
-0.14644 -0.175698 -0.170401 -0.63057 0.0377975 -0.775211 
-0.154166 -0.175698 -0.164061 -0.644204 0.0302478 -0.764255 
-0.161544 -0.175698 -0.157375 -0.723618 0.0166709 -0.689999 
-0.167885 -0.175698 -0.14965 -0.778147 -9.52956e-17 -0.628082 
-0.174224 -0.175698 -0.141925 -0.77576 -9.50032e-17 -0.631028 
-0.180564 -0.175698 -0.134199 -0.760881 0.0175369 -0.648655 
-0.186903 -0.175698 -0.126474 -0.823914 0.029374 -0.565953 
-0.191919 -0.175698 -0.117864 -0.880829 0.0272502 -0.47265 
-0.19663 -0.175698 -0.109051 -0.882811 0.0201214 -0.469298 
-0.201341 -0.175698 -0.100238 -0.880486 0.0113453 -0.473936 
-0.206052 -0.175698 -0.091424 -0.895073 0.00725285 -0.445862 
-0.210084 -0.175698 -0.082329 -0.938869 -1.14978e-16 -0.344275 
-0.212985 -0.175698 -0.072767 -0.959394 0.00253724 -0.282058 
-0.215887 -0.175698 -0.063203 -0.958535 0.0022818 -0.284965 
-0.218787 -0.175698 -0.05364 -0.952575 -1.16657e-16 -0.304305 
-0.221688 -0.175698 -0.044077 -0.979048 -1.19899e-16 -0.203631 
-0.222788 -0.175698 -0.034155 -0.995719 -0.000275135 -0.0924339 
-0.223767 -0.175698 -0.024211 -0.995504 1.21914e-16 -0.0947241 
-0.224747 -0.175698 -0.014265 -0.995026 -0.00107378 -0.099607 
-0.225726 -0.175698 -0.004319 -0.994295 -0.0169127 -0.105318 
-0.225726 -0.175698 0.005626 -0.994129 -0.017325 0.106804 
-0.224747 -0.175698 0.015572 -0.995414 -0.000399282 0.0956613 
-0.223767 -0.175698 0.025516 -0.995432 7.16244e-05 0.095473 
-0.222788 -0.175698 0.035462 -0.99578 -1.21948e-16 0.0917742 
-0.221688 -0.175698 0.045384 -0.978581 0.0036031 0.205829 
-0.218787 -0.175698 0.054946 -0.952841 -1.16689e-16 0.303471 
-0.215887 -0.175698 0.06451 -0.957982 0.000109565 0.286827 
-0.212985 -0.175698 0.074073 -0.959684 -1.17527e-16 0.281082 
-0.210084 -0.175698 0.083636 -0.93892 0.00204725 0.344129 
-0.206052 -0.175698 0.092731 -0.895098 -1.09618e-16 0.445869 
-0.201342 -0.175698 0.101544 -0.8815 0.0125841 0.472016 
-0.19663 -0.175698 0.110358 -0.882431 0.0261463 0.469714 
-0.191919 -0.175698 0.119171 -0.880216 0.0333799 0.473397 
-0.186903 -0.175698 0.12778 -0.825542 0.0382052 0.563047 
-0.180564 -0.175698 0.135506 -0.764345 0.0227182 0.644407 
-0.174224 -0.175698 0.143231 -0.773877 -9.47726e-17 0.633336 
-0.167885 -0.175698 0.150956 -0.7824 0.0294641 0.622079 
-0.161544 -0.175698 0.158682 -0.724545 0.0429319 0.687889 
-0.154166 -0.175698 0.165367 -0.642647 0.0496897 0.764549 
-0.14644 -0.175698 0.171707 -0.628293 0.0535173 0.776134 
-0.138716 -0.175698 0.178046 -0.636711 0.0582206 0.768901 
-0.13099 -0.175698 0.184387 -0.618917 0.0585567 0.78327 
-0.122925 -0.175698 0.190217 -0.516025 0.0596051 0.854497 
-0.114112 -0.175698 0.194929 -0.463233 0.0413394 0.885272 
-0.105297 -0.175698 0.199639 -0.466804 0.023057 0.88406 
-0.096484 -0.175698 0.20435 -0.482888 -5.91368e-17 0.875682 
-0.087671 -0.175698 0.20906 -0.400504 0.000712765 0.916295 
-0.078201 -0.175698 0.212188 -0.286373 -3.50706e-17 0.958118 
-0.068638 -0.175698 0.215089 -0.288907 0.00288494 0.957353 
-0.059075 -0.175698 0.21799 -0.296848 0.00377227 0.954917 
-0.049512 -0.175698 0.220891 -0.256627 0.00436762 0.966501 
-0.039782 -0.175698 0.222951 -0.148808 0.00315646 0.988861 
-0.029836 -0.175698 0.22393 -0.089824 -1.10003e-17 0.995958 
-0.019891 -0.175698 0.224911 -0.0924755 0.0062576 0.995695 
-0.009946 -0.175698 0.22589 -0.122406 0.0183799 0.99231 
0 -0.175698 0.22687 2.74586e-05 0.0742897 0.997237 
0.009945 -0.175698 0.22589 0.12216 0.0182481 0.992343 
0.019891 -0.175698 0.224911 0.0936606 0.00668996 0.995582 
0.029836 -0.175698 0.223931 0.0916057 0.00429338 0.995786 
0.039781 -0.175698 0.222951 0.147512 0.00653323 0.989039 
0.049512 -0.175698 0.220891 0.257523 0.0106079 0.966214 
0.059075 -0.175698 0.217991 0.291391 0.0189615 0.956416 
0.068638 -0.175698 0.215089 0.289879 0.0301697 0.956588 
0.078202 -0.175698 0.212188 0.28525 0.0407812 0.957585 
0.087671 -0.175698 0.209061 0.402565 0.0519019 0.913919 
0.096484 -0.175698 0.20435 0.483291 0.0595241 0.873434 
0.105298 -0.175698 0.199639 0.465946 0.0739537 0.881717 
0.114111 -0.175698 0.194929 0.46138 0.096887 0.881897 
0.122924 -0.175698 0.190217 0.513569 0.116511 0.850101 
0.13099 -0.175698 0.184387 0.614059 0.122221 0.779739 
0.138715 -0.175698 0.178046 0.633669 0.130732 0.762478 
0.14644 -0.175698 0.171707 0.621902 0.140757 0.770341 
0.154165 -0.175698 0.165367 0.636439 0.143421 0.757876 
0.161545 -0.175698 0.158681 0.719084 0.146339 0.67934 
0.167884 -0.175698 0.150956 0.775826 0.143994 0.614296 
0.174224 -0.175698 0.143231 0.766827 0.142459 0.625845 
0.180564 -0.175698 0.135506 0.75692 0.139948 0.638347 
0.186903 -0.175698 0.12778 0.818473 0.13648 0.558099 
0.191919 -0.175698 0.119171 0.874008 0.122109 0.470319 
0.19663 -0.175698 0.110358 0.877518 0.103802 0.468174 
0.201342 -0.175698 0.101545 0.879705 0.0786089 0.468976 
0.206052 -0.175698 0.092731 0.893247 0.0630263 0.445126 
0.210084 -0.175698 0.083636 0.937383 0.0543578 0.344032 
0.212985 -0.175698 0.074074 0.958407 0.0430142 0.282146 
0.215886 -0.175698 0.06451 0.956819 0.0309219 0.289034 
0.218787 -0.175698 0.054946 0.952805 0.0250552 0.302547 
0.221688 -0.175698 0.045384 0.977123 0.0221509 0.211517 
0.222788 -0.175698 0.035462 0.995784 0.0136804 0.0907024 
0.223767 -0.175698 0.025517 0.995378 0.00803674 0.0956976 
0.224747 -0.175698 0.015572 0.995416 0.00164535 0.095627 
0.225726 -0.175698 0.005626 0.994134 -0.0169813 0.106816 
0.225726 -0.175698 -0.004319 0.994295 -0.0168938 -0.105317 
0.224747 -0.175698 -0.014265 0.995025 8.79551e-05 -0.0996214 
0.223767 -0.175698 -0.02421 0.995488 0.00526937 -0.0947455 
0.222788 -0.175698 -0.034155 0.995676 0.00944206 -0.0924144 
0.221688 -0.175698 -0.044077 0.978913 0.0158259 -0.203661 
0.218787 -0.175698 -0.05364 0.952391 0.0205125 -0.304187 
0.215887 -0.175698 -0.063203 0.958106 0.0281142 -0.285031 
0.212985 -0.175698 -0.072766 0.958646 0.0392535 -0.281883 
0.210084 -0.175698 -0.082329 0.937665 0.0492633 -0.34403 
0.206052 -0.175698 -0.091424 0.893924 0.0577376 -0.444485 
0.201342 -0.175698 -0.100237 0.87927 0.0712974 -0.470958 
0.19663 -0.175698 -0.109051 0.87858 0.0942314 -0.468206 
0.191919 -0.175698 -0.117864 0.875681 0.110965 -0.469967 
0.186903 -0.175698 -0.126474 0.818009 0.123874 -0.561709 
0.180564 -0.175698 -0.134199 0.754723 0.129568 -0.643121 
0.174224 -0.175698 -0.141924 0.767867 0.136507 -0.625897 
0.167884 -0.175698 -0.14965 0.772543 0.142911 -0.61867 
0.161545 -0.175698 -0.157374 0.717294 0.141017 -0.682351 
0.154165 -0.175698 -0.164061 0.638186 0.14002 -0.757043 
0.14644 -0.175698 -0.170401 0.624125 0.134444 -0.76967 
0.138716 -0.175698 -0.17674 0.632455 0.125001 -0.764445 
0.13099 -0.175698 -0.18308 0.616673 0.114543 -0.778842 
0.122925 -0.175698 -0.188911 0.516392 0.105428 -0.849838 
0.114112 -0.175698 -0.193622 0.460142 0.0888842 -0.883385 
0.105298 -0.175698 -0.198332 0.466622 0.0719465 -0.881526 
0.096484 -0.175698 -0.203043 0.481202 0.0584762 -0.874657 
0.087671 -0.175698 -0.207754 0.402124 0.0509777 -0.914165 
0.078202 -0.175698 -0.210881 0.285089 0.0407968 -0.957633 
0.068638 -0.175698 -0.213783 0.289274 0.0281934 -0.956831 
0.059075 -0.175698 -0.216683 0.293861 0.0189596 -0.95566 
0.049512 -0.175698 -0.219584 0.255116 0.0105378 -0.966853 
0.039781 -0.175698 -0.221644 0.148364 0.00733486 -0.988906 
0.029836 -0.175698 -0.222625 0.0916039 0.00319781 -0.99579 
0.019891 -0.175698 -0.223604 0.0949956 0.00260914 -0.995474 
0.009946 -0.175698 -0.224584 0.110062 0.0120226 -0.993852 
0 0.367221 -0.125026 7.79959e-06 0.673045 -0.739601 
-0.009932 0.367221 -0.124047 -0.0718605 0.706863 -0.703691 
-0.019864 0.367221 -0.123069 -0.0753332 0.719797 -0.690085 
-0.029592 0.367221 -0.121072 -0.176756 0.734965 -0.654663 
-0.039142 0.367221 -0.118175 -0.183412 0.74842 -0.63736 
-0.048645 0.367221 -0.115165 -0.26192 0.752233 -0.604602 
-0.057447 0.367221 -0.110461 -0.30817 0.763607 -0.567393 
-0.066248 0.367221 -0.105757 -0.321267 0.766738 -0.555788 
-0.074404 0.367221 -0.100086 -0.394473 0.770712 -0.500394 
-0.082118 0.367221 -0.093755 -0.395439 0.776331 -0.490854 
-0.08966 0.367221 -0.087251 -0.458504 0.772421 -0.439478 
-0.095991 0.367221 -0.079536 -0.495223 0.770184 -0.401959 
-0.102322 0.367221 -0.071822 -0.521027 0.761668 -0.385219 
-0.107586 0.367221 -0.063394 -0.573667 0.756778 -0.313357 
-0.11229 0.367221 -0.054593 -0.581297 0.753307 -0.307608 
-0.116656 0.367221 -0.045652 -0.624973 0.743498 -0.23795 
-0.119552 0.367221 -0.036101 -0.642697 0.741557 -0.192442 
-0.12245 0.367221 -0.026552 -0.668366 0.727033 -0.157195 
-0.123967 0.367221 -0.016727 -0.696253 0.716352 -0.0455144 
-0.124946 0.367221 -0.006795 -0.703247 0.705242 -0.0898723 
-0.125435 0.367221 0.003137 -0.717297 0.689823 0.0981287 
-0.124457 0.367221 0.013068 -0.700213 0.713661 0.0197259 
-0.123478 0.367221 0.022999 -0.686402 0.717407 0.119077 
-0.121001 0.367221 0.032633 -0.650771 0.735626 0.188019 
-0.118105 0.367221 0.042183 -0.637103 0.745049 0.19749 
-0.114643 0.367221 0.051499 -0.598943 0.751597 0.27635 
-0.109938 0.367221 0.0603 -0.573465 0.761769 0.301407 
-0.105233 0.367221 0.069101 -0.54679 0.762139 0.346647 
-0.099157 0.367221 0.076986 -0.495715 0.767217 0.406995 
-0.092826 0.367221 0.084701 -0.491408 0.766254 0.413972 
-0.085976 0.367221 0.091896 -0.429388 0.764641 0.480573 
-0.078262 0.367221 0.098227 -0.411918 0.765615 0.494123 
-0.070547 0.367221 0.104557 -0.369685 0.759852 0.53475 
-0.061848 0.367221 0.109415 -0.302701 0.756954 0.579131 
-0.053046 0.367221 0.11412 -0.295086 0.74942 0.5927 
-0.043917 0.367221 0.118034 -0.213242 0.743155 0.634231 
-0.034367 0.367221 0.12093 -0.203397 0.74141 0.639485 
-0.024817 0.367221 0.123826 -0.133088 0.72694 0.673681 
-0.014897 0.367221 0.124865 -0.0237333 0.72455 0.688814 
-0.004966 0.367221 0.125843 -0.103179 0.704403 0.702261 
0.004965 0.367221 0.125843 0.103082 0.704371 0.702307 
0.014897 0.367221 0.124865 0.0242631 0.724464 0.688885 
0.024817 0.367221 0.123827 0.130789 0.72683 0.67425 
0.034368 0.367221 0.12093 0.20331 0.742863 0.637824 
0.043917 0.367221 0.118034 0.212745 0.745398 0.63176 
0.053046 0.367221 0.11412 0.294792 0.752224 0.589285 
0.061848 0.367221 0.109416 0.301683 0.757781 0.578581 
0.070547 0.367221 0.104558 0.369329 0.761383 0.532815 
0.078262 0.367221 0.098227 0.411433 0.765876 0.494123 
0.085975 0.367221 0.091896 0.43003 0.763458 0.481878 
0.092826 0.367221 0.084701 0.493638 0.763717 0.416002 
0.099157 0.367221 0.076986 0.49921 0.763149 0.410357 
0.105234 0.367221 0.069101 0.552791 0.756607 0.349239 
0.109938 0.367221 0.0603 0.5769 0.758753 0.302456 
0.114642 0.367221 0.051499 0.600802 0.749924 0.276859 
0.118105 0.367221 0.042183 0.638504 0.743659 0.198202 
0.121001 0.367221 0.032633 0.650934 0.735444 0.188165 
0.123478 0.367221 0.023 0.686463 0.717402 0.11876 
0.124457 0.367221 0.013068 0.699753 0.714113 0.0196972 
0.125435 0.367221 0.003137 0.715293 0.691941 0.0978481 
0.124946 0.367221 -0.006795 0.701434 0.707035 -0.0899596 
0.123967 0.367221 -0.016727 0.695316 0.717293 -0.0450125 
0.12245 0.367221 -0.026552 0.667208 0.728162 -0.156886 
0.119552 0.367221 -0.036101 0.641372 0.742793 -0.192094 
0.116656 0.367221 -0.045652 0.623596 0.744828 -0.237402 
0.11229 0.367221 -0.054593 0.579636 0.754869 -0.306911 
0.107586 0.367221 -0.063394 0.571239 0.759226 -0.311868 
0.102322 0.367221 -0.071822 0.517836 0.764607 -0.383695 
0.095991 0.367221 -0.079536 0.494081 0.771707 -0.40044 
0.08966 0.367221 -0.087251 0.458207 0.772907 -0.438931 
0.082118 0.367221 -0.093755 0.396573 0.775399 -0.491413 
0.074404 0.367221 -0.100086 0.39547 0.768384 -0.503179 
0.066248 0.367221 -0.105756 0.323312 0.764944 -0.557073 
0.057447 0.367221 -0.110461 0.309003 0.76071 -0.570822 
0.048645 0.367221 -0.115165 0.263285 0.749896 -0.606908 
0.039142 0.367221 -0.118175 0.18388 0.746696 -0.639244 
0.029592 0.367221 -0.121072 0.177155 0.733689 -0.655985 
0.019864 0.367221 -0.123069 0.0754613 0.718917 -0.690987 
0.009932 0.367221 -0.124047 0.0718964 0.706374 -0.704178 
0 0.006033 -0.132777 -0.0128722 0.788869 -0.614426 
0 -0.000328 -0.140526 -0.00871961 0.759838 -0.650054 
0 -0.006688 -0.148277 -0.00565318 0.78097 -0.624543 
0 -0.013048 -0.156028 -0.0034506 0.751178 -0.660091 
0 -0.02021 -0.162976 -0.00152194 0.655952 -0.754801 
0 -0.027961 -0.169336 -0.000149039 0.633146 -0.774033 
0 -0.035712 -0.175696 0.00168958 0.633565 -0.773688 
0 -0.043461 -0.182056 0.00299403 0.638119 -0.769932 
0 -0.05138 -0.188165 0.00446622 0.5468 -0.837251 
0 -0.060222 -0.192891 0.00540303 0.458403 -0.888728 
0 -0.069065 -0.197618 0.00584213 0.468802 -0.883284 
0 -0.077907 -0.202344 0.00565203 0.480249 -0.877114 
0 -0.086749 -0.20707 0.00498984 0.394092 -0.919057 
0 -0.096141 -0.21047 0.00462107 0.303922 -0.952686 
0 -0.105735 -0.21338 0.00396628 0.28508 -0.958496 
0 -0.11533 -0.216291 0.00291308 0.293369 -0.955995 
0 -0.124924 -0.219201 0.00183201 0.269256 -0.963067 
0 -0.134636 -0.221518 0.00105495 0.172866 -0.984945 
0 -0.144614 -0.222502 0.000335539 0.0839477 -0.99647 
0 -0.154592 -0.223484 0.000331016 0.100671 -0.99492 
0 -0.16457 -0.224467 4.74325e-05 0.0910788 -0.995844 
0 -0.174547 -0.22545 -1.47634e-06 0.106388 -0.994325 
0 -0.184525 -0.224694 -2.07653e-05 -0.121711 -0.992566 
0 -0.194503 -0.223711 -6.44401e-05 -0.094376 -0.995537 
0 -0.204481 -0.222728 -0.000172859 -0.0974344 -0.995242 
0 -0.214458 -0.221745 -0.000374225 -0.138505 -0.990362 
0 -0.224259 -0.219872 -0.00096499 -0.244452 -0.969661 
0 -0.233854 -0.216962 -0.00223769 -0.292851 -0.956155 
0 -0.243448 -0.214052 -0.00376082 -0.290257 -0.956941 
0 -0.253042 -0.211141 -0.00497456 -0.27855 -0.960409 
0 -0.262608 -0.208161 -0.00636914 -0.40578 -0.913949 
0 -0.27145 -0.203435 -0.00758776 -0.474355 -0.880301 
0 -0.280292 -0.198708 -0.0090796 -0.469127 -0.883084 
0 -0.289134 -0.193982 -0.0104168 -0.46528 -0.885102 
0 -0.297977 -0.189256 -0.0116906 -0.51348 -0.858022 
0 -0.306146 -0.183524 -0.0124152 -0.614299 -0.788976 
0 -0.313897 -0.177164 -0.0130895 -0.636758 -0.770952 
0 -0.321648 -0.170804 -0.0137322 -0.632056 -0.774801 
0 -0.329398 -0.164443 -0.0135671 -0.638528 -0.769479 
0 -0.336881 -0.157816 -0.0130573 -0.729089 -0.684294 
0 -0.343241 -0.150065 -0.0118373 -0.780256 -0.625348 
0 -0.349602 -0.142315 -0.0101307 -0.774629 -0.632334 
0 -0.355962 -0.134565 -0.00811849 -0.761571 -0.648031 
0 -0.362322 -0.126814 -0.00715568 -0.811733 -0.583985 
0 -0.367426 -0.118224 -0.00602 -0.878794 -0.477163 
0 -0.372152 -0.109381 -0.00506913 -0.88336 -0.468667 
0 -0.376878 -0.100539 -0.00404687 -0.878742 -0.477279 
0 -0.381605 -0.091697 -0.00333031 -0.892251 -0.451527 
0 -0.385703 -0.082595 -0.00257719 -0.93985 -0.341579 
0 -0.388613 -0.073 -0.00198549 -0.959992 -0.280022 
0 -0.391523 -0.063406 -0.00139783 -0.958271 -0.285859 
0 -0.394434 -0.053812 -0.00091183 -0.954002 -0.299799 
0 -0.397343 -0.044217 -0.00054687 -0.979157 -0.203104 
0 -0.398475 -0.034268 -0.000226784 -0.995976 -0.0896211 
0 -0.399457 -0.024291 8.35338e-05 -0.995166 -0.0982119 
0 -0.40044 -0.014313 0.000383625 -0.994738 -0.102455 
0 -0.401423 -0.004335 0.000233553 -0.997908 -0.0646512 
0 -0.401423 0.005642 0.000488673 -0.9981 0.0616169 
0 -0.40044 0.01562 -6.41177e-06 -0.994673 0.103085 
0 -0.399457 0.025597 -0.000237204 -0.995259 0.0972594 
0 -0.398475 0.035575 -0.00041828 -0.996053 0.0887639 
0 -0.397343 0.045524 -0.000695491 -0.981162 0.193187 
0 -0.394434 0.055118 -0.00111645 -0.954611 0.297854 
0 -0.391523 0.064713 -0.00157124 -0.958905 0.283724 
0 -0.388613 0.074307 -0.00197063 -0.959702 0.281014 
0 -0.385703 0.083901 -0.00237526 -0.940369 0.340149 
0 -0.381605 0.093004 -0.00284704 -0.894128 0.447802 
0 -0.376878 0.101846 -0.00333334 -0.877595 0.479391 
0 -0.372152 0.110688 -0.00453647 -0.88239 0.470497 
0 -0.367426 0.11953 -0.00574784 -0.881535 0.472083 
0 -0.362322 0.128121 -0.00691746 -0.80926 0.58741 
0 -0.355962 0.135871 -0.00772338 -0.764692 0.64435 
0 -0.349602 0.143622 -0.00926297 -0.773229 0.634059 
0 -0.343241 0.151372 -0.010745 -0.78142 0.623914 
0 -0.336881 0.159122 -0.0117713 -0.732191 0.680997 
0 -0.329398 0.16575 -0.0123708 -0.637712 0.770176 
0 -0.321648 0.172111 -0.0127255 -0.63233 0.774595 
0 -0.313897 0.178471 -0.0123292 -0.635646 0.771882 
0 -0.306146 0.184831 -0.0117006 -0.613813 0.789364 
0 -0.297977 0.190562 -0.0110508 -0.518497 0.855008 
0 -0.289134 0.195289 -0.010382 -0.46605 0.884698 
0 -0.280292 0.200015 -0.00932313 -0.470627 0.882283 
0 -0.27145 0.204741 -0.00822801 -0.487251 0.873223 
0 -0.262608 0.209468 -0.00731644 -0.400507 0.916265 
0 -0.253042 0.212448 -0.00567997 -0.273061 0.96198 
0 -0.243448 0.215358 -0.00496355 -0.29014 0.956971 
0 -0.233854 0.218269 -0.00308068 -0.294873 0.955532 
0 -0.224259 0.221179 -0.00109233 -0.244658 0.969609 
0 -0.214458 0.223052 -8.56064e-05 -0.138138 0.990413 
0 -0.204481 0.224035 0.000698658 -0.0892727 0.996007 
0 -0.194503 0.225018 0.000296619 -0.0964361 0.995339 
0 -0.184525 0.226 0.000116642 -0.145762 0.98932 
0 -0.174547 0.226757 6.19084e-06 0.104988 0.994474 
0 -0.16457 0.225773 -4.03025e-05 0.0953533 0.995443 
0 -0.154592 0.224791 0.000172638 0.0973323 0.995252 
0 -0.144614 0.223808 0.000365788 0.0842054 0.996448 
0 -0.134636 0.222825 0.00119269 0.166609 0.986022 
0 -0.124924 0.220508 0.002018 0.270987 0.962581 
0 -0.11533 0.217597 0.00335297 0.292638 0.956217 
0 -0.105735 0.214687 0.0045663 0.284922 0.95854 
0 -0.096141 0.211777 0.00541037 0.30399 0.95266 
0 -0.086749 0.208377 0.00613569 0.39322 0.919424 
0 -0.077907 0.203651 0.0073938 0.482015 0.876132 
0 -0.069065 0.198924 0.00845469 0.468443 0.883453 
0 -0.060222 0.194198 0.00830713 0.458703 0.888551 
0 -0.05138 0.189472 0.00772274 0.533331 0.845871 
0 -0.043461 0.183363 0.00682178 0.641238 0.767311 
0 -0.035711 0.177003 0.00612103 0.630584 0.776097 
0 -0.027961 0.170643 0.00484846 0.635505 0.772082 
0 -0.02021 0.164283 0.00398634 0.656374 0.754426 
0 -0.013048 0.157335 0.00362813 0.749177 0.66236 
0 -0.006688 0.149584 0.00392274 0.779904 0.625887 
0 -0.000328 0.141833 0.00522092 0.76332 0.645999 
0 0.006033 0.134083 0.011662 0.785353 0.618939 
0 0.012393 0.126333 -0.00197851 0.436781 0.899565 
0 0.022531 0.126333 0.0014733 -0.0224632 0.999747 
0 0.032669 0.126333 -2.12281e-05 0.00849405 0.999964 
0 0.042807 0.126333 -8.43704e-06 -0.00260161 0.999997 
0 0.052945 0.126333 9.54769e-06 0.00112469 0.999999 
0 0.063083 0.126333 6.71984e-06 0.00108977 0.999999 
0 0.073221 0.126333 1.95927e-06 -0.00102867 0.999999 
0 0.083358 0.126333 2.58158e-06 -0.000556906 1 
0 0.093496 0.126333 -2.51234e-06 -0.000918803 1 
0 0.103634 0.126333 -2.67518e-06 -0.000929916 1 
0 0.113772 0.126333 -2.64736e-06 -0.000691831 1 
0 0.123911 0.126333 -3.89258e-06 -0.000874715 1 
0 0.134049 0.126333 -3.76035e-06 -0.000320647 1 
0 0.144187 0.126333 -2.29027e-06 -0.00019261 1 
0 0.154324 0.126333 -3.17234e-06 -0.000421641 1 
0 0.164462 0.126333 -5.22084e-07 -6.87564e-05 1 
0 0.1746 0.126333 -6.95331e-06 -0.00114055 0.999999 
0 0.184738 0.126333 6.74981e-06 0.00110304 0.999999 
0 0.194876 0.126333 0.000123505 -0.00469281 0.999989 
0 0.205014 0.126333 9.93983e-06 0.000140889 1 
0 0.215152 0.126333 0.00128969 -0.00425567 0.99999 
0 0.225289 0.126333 4.41059e-05 -0.00120368 0.999999 
0 0.235427 0.126333 3.35947e-05 -0.00172597 0.999999 
0 0.245565 0.126333 3.98848e-06 -0.00104645 0.999999 
0 0.255703 0.126333 2.58e-06 -0.000657153 1 
0 0.265841 0.126333 1.45613e-06 -0.000477565 1 
0 0.275979 0.126333 1.32799e-06 -0.00025401 1 
0 0.286118 0.126333 4.46091e-06 -0.000983673 1 
0 0.296256 0.126333 -3.30007e-06 0.00151364 0.999999 
0 0.306393 0.126333 2.83147e-06 -0.000149762 1 
0 0.316531 0.126333 2.51087e-05 -0.00135466 0.999999 
0 0.326669 0.126333 2.70895e-05 -0.000612286 1 
0 0.336807 0.126333 -8.85016e-05 -0.0167561 0.99986 
0 0.346945 0.126333 3.34082e-05 0.0514272 0.998677 
0 0.357083 0.126333 3.8263e-05 -0.207806 0.97817 
0 0.367221 0.126333 4.25951e-05 0.686343 0.727278 
0 0.367221 0.116278 6.35157e-06 0.969002 -0.247053 
0 0.367221 0.106224 0.00012193 0.998938 0.0460659 
0 0.367221 0.096169 0.000286521 0.999805 -0.0197601 
0 0.367221 0.086115 0.000477084 0.999991 -0.00426506 
0 0.367221 0.076061 0.000443644 0.999991 -0.00424103 
0 0.367221 0.066007 0.00024355 0.999998 -0.00179538 
0 0.367221 0.055952 -8.31309e-05 0.999987 0.00502761 
0 0.367221 0.045898 -0.000208333 0.999997 -0.00254716 
0 0.367221 0.035843 -0.000307577 1 -0.000374171 
0 0.367221 0.025789 -0.000445665 0.999998 -0.00172148 
0 0.367221 0.015735 -0.000690852 0.999999 -0.000926377 
0 0.367221 0.005681 -0.00123812 0.999986 -0.00511505 
0 0.367221 -0.004374 0.000448508 0.99999 0.00453553 
0 0.367221 -0.014428 0.000531405 0.999994 -0.00334082 
0 0.367221 -0.024483 0.000308704 1 0.000353593 
0 0.367221 -0.034537 0.00013633 0.999994 0.00341323 
0 0.367221 -0.044591 -4.19259e-05 0.999999 -0.00100315 
0 0.367221 -0.054645 -0.000281274 0.999997 -0.00258499 
0 0.367221 -0.0647 -0.000589311 0.999999 -0.00116467 
0 0.367221 -0.074754 -0.000759221 0.999985 0.00537882 
0 0.367221 -0.084809 -0.000774676 0.999991 -0.00425894 
0 0.367221 -0.094862 -0.000637982 0.999788 0.0205603 
0 0.367221 -0.104917 -0.000456377 0.998489 -0.0549474 
0 0.367221 -0.114971 -0.000254935 0.971461 0.237199 
0 0.357083 -0.125026 0.000143175 -0.1794 -0.983776 
0 0.346945 -0.125026 1.18805e-23 -1.22465e-16 -1 
0 0.336807 -0.125026 1.14632e-07 -0.00320422 -0.999995 
0 0.326669 -0.125026 5.02296e-09 0.00067392 -1 
0 0.316531 -0.125026 8.30832e-19 1.22462e-16 -1 
0 0.306393 -0.125026 3.36681e-18 1.22418e-16 -1 
0 0.296256 -0.125026 8.78379e-06 0.00255815 -0.999997 
0 0.286118 -0.125026 5.37247e-19 1.22464e-16 -1 
0 0.275979 -0.125026 7.17599e-19 1.22463e-16 -1 
0 0.265841 -0.125026 4.03659e-06 0.000510815 -1 
0 0.255703 -0.125026 1.23076e-18 1.22458e-16 -1 
0 0.245565 -0.125026 1.6611e-18 1.22453e-16 -1 
0 0.235427 -0.125026 5.10504e-18 1.22358e-16 -1 
0 0.225289 -0.125026 8.51695e-18 1.22168e-16 -1 
0 0.215152 -0.125026 1.44523e-17 1.21609e-16 -1 
0 0.205014 -0.125026 -1.15142e-05 -0.00215643 -0.999998 
0 0.194876 -0.125026 6.18848e-19 1.22463e-16 -1 
0 0.184738 -0.125026 -2.75804e-08 -0.000362232 -1 
0 0.1746 -0.125026 3.25503e-07 -0.000577737 -1 
0 0.164462 -0.125026 1.32435e-07 -7.42134e-05 -1 
0 0.154324 -0.125026 4.73223e-07 -0.000218337 -1 
0 0.144187 -0.125026 7.23916e-07 -0.000275944 -1 
0 0.134049 -0.125026 4.80265e-19 -1.22464e-16 -1 
0 0.123911 -0.125026 8.01596e-06 -0.000721478 -1 
0 0.113772 -0.125026 5.43553e-06 -0.000530372 -1 
0 0.103634 -0.125026 6.08911e-06 -0.000710962 -1 
0 0.093496 -0.125026 6.58389e-06 -0.00104789 -0.999999 
0 0.083358 -0.125026 6.6926e-19 -1.22463e-16 -1 
0 0.073221 -0.125026 8.12041e-06 -0.000929848 -1 
0 0.063083 -0.125026 2.32205e-08 -2.15499e-06 -1 
0 0.052945 -0.125026 4.29576e-19 -1.22464e-16 -1 
0 0.042807 -0.125026 -4.01316e-22 -1.22465e-16 -1 
0 0.032669 -0.125026 1.27547e-20 -1.22465e-16 -1 
0 0.022531 -0.125026 -0.0011763 -0.020391 -0.999791 
-0.125679 0.012393 0.000653 -0.898721 0.433834 0.0639423 
-0.125679 0.022531 0.000653 -0.998581 -0.052393 0.00950186 
-0.125679 0.032669 0.000653 -0.999969 -1.22461e-16 0.00786798 
-0.125679 0.042807 0.000653 -0.999964 -1.2246e-16 0.00844202 
-0.125679 0.052945 0.000653 -0.999967 -1.22461e-16 0.00807203 
-0.125679 0.063083 0.000653 -0.999968 -1.22461e-16 0.00798156 
-0.125679 0.073221 0.000653 -0.999978 -0.00104353 0.00661327 
-0.125679 0.083358 0.000653 -0.999984 -1.22463e-16 0.00558822 
-0.125679 0.093496 0.000653 -0.999988 -0.00084256 0.00480687 
-0.125679 0.103634 0.000653 -0.999991 -0.000578279 0.00427664 
-0.125679 0.113772 0.000653 -0.999992 -0.000293089 0.00402263 
-0.125679 0.123911 0.000653 -0.999991 -0.000532767 0.00411099 
-0.125679 0.134049 0.000653 -0.999993 -1.22464e-16 0.00373697 
-0.125679 0.144187 0.000653 -0.999993 -1.22464e-16 0.00366112 
-0.125679 0.154324 0.000653 -0.999993 -1.22464e-16 0.00373025 
-0.125679 0.164462 0.000653 -0.999992 -1.22464e-16 0.0038847 
-0.125679 0.1746 0.000653 -0.999988 -0.000270306 0.00479047 
-0.125679 0.184738 0.000653 -0.999985 -0.000153029 0.00550798 
-0.125679 0.194876 0.000653 -0.999979 1.22462e-16 0.00642792 
-0.125679 0.205014 0.000653 -0.99999 -0.00145494 0.00428019 
-0.125679 0.215152 0.000653 -0.999994 -0.00258974 0.00233975 
-0.125679 0.225289 0.000653 -1 1.22465e-16 0.000395761 
-0.125679 0.235427 0.000653 -0.999999 1.22465e-16 -0.00136536 
-0.125679 0.245565 0.000653 -0.999995 1.22464e-16 -0.00301541 
-0.125679 0.255703 0.000653 -0.999992 1.22464e-16 -0.00397376 
-0.125679 0.265841 0.000653 -0.999988 1.22463e-16 -0.00490191 
-0.125679 0.275979 0.000653 -0.999985 1.22463e-16 -0.0055541 
-0.125679 0.286118 0.000653 -0.999982 1.22462e-16 -0.00602286 
-0.125679 0.296256 0.000653 -0.999978 0.00290129 -0.00591381 
-0.125679 0.306393 0.000653 -0.999994 1.22464e-16 -0.00351694 
-0.125679 0.316531 0.000653 -1 1.22465e-16 0.000135625 
-0.125679 0.326669 0.000653 -0.999988 1.22463e-16 0.0048956 
-0.125679 0.336807 0.000653 -0.999994 -0.00316574 0.00157148 
-0.125679 0.346945 0.000653 -0.999964 -1.2246e-16 -0.00844257 
-0.125679 0.357083 0.000653 -0.984351 -0.176025 0.00820916 
-0.125679 0.367221 0.000653 -0.731963 0.680894 0.0247738 
-0.115624 0.367221 0.000653 0.225207 0.974121 0.0192553 
-0.105571 0.367221 0.000653 -0.0430547 0.998967 -0.0145144 
-0.095516 0.367221 0.000653 0.0163933 0.99985 0.00567345 
-0.085462 0.367221 0.000653 0.00248623 0.999801 0.0197732 
-0.075407 0.367221 0.000653 0.00510556 0.999864 0.0156634 
-0.065353 0.367221 0.000653 0.00223957 0.999841 0.0177017 
-0.055299 0.367221 0.000653 -0.00647863 0.999632 0.0263326 
-0.045245 0.367221 0.000653 0.000808826 0.999577 0.0290686 
-0.03519 0.367221 0.000653 0.000442759 0.999757 0.0220568 
-0.025136 0.367221 0.000653 0.000439419 0.999849 0.0173548 
-0.015081 0.367221 0.000653 1.37374e-05 0.999938 0.0111573 
-0.005027 0.367221 0.000653 0.00350622 0.999986 0.00390566 
0.005027 0.367221 0.000653 -0.00301092 0.999992 0.00266233 
0.015081 0.367221 0.000653 3.53175e-06 0.999953 0.00972706 
0.025136 0.367221 0.000653 -0.000445054 0.999864 0.0164575 
0.03519 0.367221 0.000653 -0.000434625 0.999771 0.0214093 
0.045245 0.367221 0.000653 -0.000820403 0.999595 0.028432 
0.055299 0.367221 0.000653 0.00650731 0.999656 0.0254023 
0.065353 0.367221 0.000653 -0.00224393 0.999864 0.0163236 
0.075407 0.367221 0.000653 -0.00516758 0.999883 0.014392 
0.085462 0.367221 0.000653 -0.00235326 0.999822 0.0187196 
0.095516 0.367221 0.000653 -0.0168359 0.999847 0.00483944 
0.105571 0.367221 0.000653 0.0448198 0.99888 -0.0151585 
0.115624 0.367221 0.000653 -0.225411 0.974081 0.0188497 
0.125679 0.367221 0.000653 0.729773 0.683242 0.0247606 
0.125679 0.357083 0.000653 0.982565 -0.18573 0.00843116 
0.125679 0.346945 0.000653 0.999157 0.0402272 -0.00818504 
0.125679 0.336807 0.000653 0.999927 -0.0118531 0.00220779 
0.125679 0.326669 0.000653 0.999983 0.00033819 0.00588874 
0.125679 0.316531 0.000653 0.999998 -0.0012967 0.00137537 
0.125679 0.306393 0.000653 0.999998 -0.000598749 -0.00209917 
0.125679 0.296256 0.000653 0.999986 0.0031977 -0.00431832 
0.125679 0.286118 0.000653 0.999991 -0.000457147 -0.00428102 
0.125679 0.275979 0.000653 0.999993 -0.000112761 -0.00363093 
0.125679 0.265841 0.000653 0.999996 3.90887e-05 -0.00277056 
0.125679 0.255703 0.000653 0.999999 -0.000381436 -0.00156142 
0.125679 0.245565 0.000653 1 -0.000425825 2.85579e-05 
0.125679 0.235427 0.000653 0.999998 -0.00149499 0.00126853 
0.125679 0.225289 0.000653 0.999996 -0.000763475 0.00267889 
0.125679 0.215152 0.000653 0.999988 -0.00240421 0.00430881 
0.125679 0.205014 0.000653 0.999982 -0.000720045 0.00601861 
0.125679 0.194876 0.000653 0.999963 -0.00303306 0.00798991 
0.125679 0.184738 0.000653 0.999977 0.000713067 0.00674669 
0.125679 0.1746 0.000653 0.999983 -0.000525956 0.00573193 
0.125679 0.164462 0.000653 0.99999 0.000331944 0.00453399 
0.125679 0.154324 0.000653 0.999991 2.45164e-05 0.0041614 
0.125679 0.144187 0.000653 0.999992 -5.49777e-05 0.00392523 
0.125679 0.134049 0.000653 0.999992 0.000457024 0.00387804 
0.125679 0.123911 0.000653 0.999991 -0.000618104 0.00431428 
0.125679 0.113772 0.000653 0.999991 -0.000253057 0.00431325 
0.125679 0.103634 0.000653 0.999989 -0.000547368 0.00467772 
0.125679 0.093496 0.000653 0.999985 -0.000941384 0.00535728 
0.125679 0.083358 0.000653 0.99998 0.000422218 0.00634863 
0.125679 0.073221 0.000653 0.999969 -0.00138995 0.00771837 
0.125679 0.063083 0.000653 0.999954 0.000949029 0.0095432 
0.125679 0.052945 0.000653 0.999947 0.000828243 0.0102921 
0.125679 0.042807 0.000653 0.999925 -0.00375557 0.0116776 
0.125679 0.032669 0.000653 0.999749 0.0183062 0.0129543 
0.125679 0.022531 0.000653 0.998227 -0.056396 0.019015 
0.125679 0.012393 0.000653 0.898054 0.435184 0.0641386 
0.13343 0.006033 0.000653 0.591188 0.806234 0.0219907 
0.14118 -0.000328 0.000653 0.653416 0.756829 0.0160432 
0.14893 -0.006688 0.000653 0.623174 0.781982 0.0125803 
0.156681 -0.013048 0.000653 0.661876 0.749557 0.00924028 
0.16363 -0.02021 0.000653 0.753861 0.656933 0.0115298 
0.16999 -0.027961 0.000653 0.774625 0.632359 0.00882213 
0.17635 -0.035712 0.000653 0.77033 0.637615 0.00626275 
0.18271 -0.043461 0.000653 0.76921 0.63896 0.00682945 
0.188819 -0.05138 0.000653 0.839988 0.542598 0.00273138 
0.193545 -0.060222 0.000653 0.888167 0.459496 0.00470723 
0.198271 -0.069065 0.000653 0.885064 0.465465 0.00191088 
0.202997 -0.077907 0.000653 0.875622 0.482993 0.00181984 
0.207724 -0.086749 0.000653 0.919797 0.392391 0.00174424 
0.211123 -0.096141 0.000653 0.952214 0.305428 0.00146071 
0.214034 -0.105735 0.000653 0.958354 0.285582 0.00101349 
0.216944 -0.11533 0.000653 0.955975 0.293445 0.000803033 
0.219854 -0.124924 0.000653 0.963348 0.268247 0.00192811 
0.222172 -0.134636 0.000653 0.983581 0.180461 0.00170276 
0.223155 -0.144614 0.000653 0.996213 0.0869458 0.000867873 
0.224138 -0.154592 0.000653 0.995658 0.0930917 -0.000174365 
0.22512 -0.16457 0.000653 0.992178 0.124829 0.000130572 
0.226103 -0.174547 0.000653 0.999986 0.00509557 -0.0014476 
0.225347 -0.184525 0.000653 0.995224 -0.0976127 -0.000296913 
0.224365 -0.194503 0.000653 0.995328 -0.0965262 -0.00205823 
0.223381 -0.204481 0.000653 0.99596 -0.0897771 -0.0019806 
0.222399 -0.214458 0.000653 0.99096 -0.134142 -0.00218446 
0.220526 -0.224259 0.000653 0.969047 -0.246863 -0.0025673 
0.217615 -0.233854 0.000653 0.953555 -0.301212 -0.00223797 
0.214705 -0.243448 0.000653 0.958324 -0.285677 -0.00193437 
0.211795 -0.253042 0.000653 0.958917 -0.283682 -0.00146771 
0.208814 -0.262608 0.000653 0.925379 -0.379039 -0.00165046 
0.204088 -0.27145 0.000653 0.871855 -0.489762 -0.00171144 
0.199362 -0.280292 0.000653 0.885043 -0.465506 -0.00181424 
0.194635 -0.289134 0.000653 0.888533 -0.458809 -0.00172701 
0.189909 -0.297977 0.000653 0.855327 -0.518086 -0.0017482 
0.184177 -0.306146 0.000653 0.792472 -0.609906 -0.00165698 
0.177817 -0.313897 0.000653 0.769746 -0.638348 -0.00191161 
0.171457 -0.321648 0.000653 0.776023 -0.630702 -0.00206943 
0.165096 -0.329398 0.000653 0.76936 -0.638812 -0.00206303 
0.158469 -0.336881 0.000653 0.699344 -0.714782 -0.00217069 
0.150718 -0.343241 0.000653 0.626559 -0.77937 -0.00238732 
0.142969 -0.349602 0.000653 0.631044 -0.775742 -0.00261345 
0.135218 -0.355962 0.000653 0.643429 -0.765504 -0.00148691 
0.127467 -0.362322 0.000653 0.573409 -0.819269 -0.000508615 
0.118877 -0.367426 0.000653 0.477003 -0.878901 0.000179485 
0.110035 -0.372152 0.000653 0.469303 -0.883037 -0.000350492 
0.101193 -0.376878 0.000653 0.475955 -0.879469 -0.000839997 
0.09235 -0.381605 0.000653 0.449967 -0.893045 -0.000476925 
0.083248 -0.385703 0.000653 0.339107 -0.940747 -0.00100833 
0.073653 -0.388613 0.000653 0.28176 -0.959483 -0.00171036 
0.06406 -0.391523 0.000653 0.286791 -0.957992 -0.00125148 
0.054465 -0.394434 0.000653 0.296798 -0.95494 -0.000113834 
0.044871 -0.397343 0.000653 0.213555 -0.97693 0.00136364 
0.034922 -0.398475 0.000653 0.0930041 -0.995664 0.00162162 
0.024944 -0.399457 0.000653 0.0953539 -0.995443 0.000735431 
0.014966 -0.40044 0.000653 0.103724 -0.994606 0.000237916 
0.004988 -0.401423 0.000653 0.0644284 -0.997922 0.000244138 
-0.004988 -0.401423 0.000653 -0.0632174 -0.998 2.95365e-05 
-0.014966 -0.40044 0.000653 -0.103627 -0.994616 0.000695952 
-0.024944 -0.399457 0.000653 -0.0953722 -0.995441 0.000991096 
-0.034922 -0.398475 0.000653 -0.0930169 -0.995663 0.00176016 
-0.044871 -0.397343 0.000653 -0.213551 -0.976931 0.0014113 
-0.054465 -0.394434 0.000653 -0.296799 -0.95494 -0.000151077 
-0.06406 -0.391523 0.000653 -0.286799 -0.95799 -0.00140427 
-0.073653 -0.388613 0.000653 -0.281767 -0.959481 -0.00189889 
-0.083248 -0.385703 0.000653 -0.339112 -0.940745 -0.00115463 
-0.09235 -0.381605 0.000653 -0.449966 -0.893045 -0.000595294 
-0.101193 -0.376878 0.000653 -0.475958 -0.879467 -0.000941826 
-0.110035 -0.372152 0.000653 -0.469319 -0.883029 -0.000363876 
-0.118877 -0.367426 0.000653 -0.47699 -0.878909 0.000256004 
-0.127467 -0.362322 0.000653 -0.573425 -0.819258 -0.000414877 
-0.135218 -0.355962 0.000653 -0.643416 -0.765516 -0.00137491 
-0.142969 -0.349602 0.000653 -0.631181 -0.775632 -0.00243063 
-0.150718 -0.343241 0.000653 -0.626548 -0.779379 -0.0025451 
-0.158469 -0.336881 0.000653 -0.699266 -0.714856 -0.00262681 
-0.165096 -0.329398 0.000653 -0.769621 -0.638495 -0.00271238 
-0.171457 -0.321648 0.000653 -0.776014 -0.630712 -0.00204218 
-0.177817 -0.313897 0.000653 -0.76965 -0.638465 -0.00131313 
-0.184177 -0.306146 0.000653 -0.792381 -0.610026 -0.000509386 
-0.189909 -0.297977 0.000653 -0.855328 -0.518087 -0.000620727 
-0.194635 -0.289134 0.000653 -0.888643 -0.458599 -0.000525457 
-0.199362 -0.280292 0.000653 -0.885106 -0.465389 -0.000524957 
-0.204088 -0.27145 0.000653 -0.871738 -0.489972 -0.000248327 
-0.208814 -0.262608 0.000653 -0.925325 -0.379176 -0.000113442 
-0.211795 -0.253042 0.000653 -0.959094 -0.283086 -5.92319e-05 
-0.214705 -0.243448 0.000653 -0.958359 -0.285567 -5.5373e-06 
-0.217615 -0.233854 0.000653 -0.953459 -0.301521 -4.88634e-05 
-0.220526 -0.224259 0.000653 -0.969272 -0.245992 -0.000156546 
-0.222399 -0.214458 0.000653 -0.990936 -0.134334 -0.000281522 
-0.223381 -0.204481 0.000653 -0.995969 -0.0896984 -0.000560139 
-0.224365 -0.194503 0.000653 -0.995319 -0.0966384 -0.00122803 
-0.225347 -0.184525 0.000653 -0.995216 -0.0976991 -4.3509e-05 
-0.226103 -0.174547 0.000653 -0.999986 0.00507621 -0.00148053 
-0.22512 -0.16457 0.000653 -0.99216 0.124972 -0.0001825 
-0.224138 -0.154592 0.000653 -0.995737 0.0922377 -0.000743534 
-0.223155 -0.144614 0.000653 -0.996192 0.087187 -4.41955e-05 
-0.222172 -0.134636 0.000653 -0.983584 0.180451 0.000546069 
-0.219854 -0.124924 0.000653 -0.963367 0.268187 0.000682177 
-0.216944 -0.11533 0.000653 -0.955979 0.293434 -0.000308418 
-0.214034 -0.105735 0.000653 -0.958362 0.285555 -6.03459e-05 
-0.211123 -0.096141 0.000653 -0.952174 0.305558 0.000274792 
-0.207724 -0.086749 0.000653 -0.919812 0.392358 0.000535342 
-0.202997 -0.077907 0.000653 -0.875658 0.482931 0.00081559 
-0.198271 -0.069065 0.000653 -0.885078 0.465441 0.001293 
-0.193545 -0.060222 0.000653 -0.88818 0.459479 0.00387957 
-0.188819 -0.05138 0.000653 -0.839757 0.542958 0.00212234 
-0.18271 -0.043461 0.000653 -0.769309 0.638849 0.00593202 
-0.17635 -0.035711 0.000653 -0.770293 0.63767 0.00504349 
-0.16999 -0.027961 0.000653 -0.774486 0.632548 0.00730943 
-0.163629 -0.02021 0.000653 -0.753894 0.656923 0.00979002 
-0.156681 -0.013048 0.000653 -0.661898 0.749561 0.00700279 
-0.14893 -0.006688 0.000653 -0.623218 0.781992 0.00940802 
-0.14118 -0.000328 0.000653 -0.653279 0.757036 0.0110754 
-0.13343 0.006033 0.000653 -0.590288 0.807099 0.0122712 
