ply
format ascii 1.0
element vertex 718
property float x
property float y
property float z
property float nx
property float ny
property float nz
end_header
0 0.012393 -0.125026 -0.00025905 0.432313 -0.901724 
-0.009932 0.012393 -0.124047 -0.169917 0.399686 -0.900766 
-0.019864 0.012393 -0.123069 -0.138247 0.402916 -0.904735 
-0.029592 0.012393 -0.121072 -0.24173 0.400323 -0.883917 
-0.039142 0.012393 -0.118175 -0.268625 0.396775 -0.87773 
-0.048645 0.012393 -0.115165 -0.381785 0.395054 -0.835567 
-0.057447 0.012393 -0.110461 -0.435722 0.377574 -0.817058 
-0.066248 0.012393 -0.105757 -0.482699 0.370917 -0.793361 
-0.074404 0.012393 -0.100086 -0.57163 0.356831 -0.738858 
-0.082118 0.012393 -0.093755 -0.598559 0.343562 -0.723666 
-0.08966 0.012393 -0.087251 -0.673469 0.338669 -0.657071 
-0.095991 0.012393 -0.079536 -0.726295 0.349663 -0.591804 
-0.102322 0.012393 -0.071822 -0.750578 0.367078 -0.549441 
-0.107586 0.012393 -0.063394 -0.804373 0.379788 -0.456886 
-0.11229 0.012393 -0.054593 -0.818452 0.38604 -0.42557 
-0.116656 0.012393 -0.045652 -0.85051 0.39767 -0.344226 
-0.119552 0.012393 -0.036101 -0.876981 0.397813 -0.269536 
-0.12245 0.012393 -0.026552 -0.883693 0.405094 -0.234491 
-0.123967 0.012393 -0.016727 -0.90833 0.402598 -0.113364 
-0.124946 0.012393 -0.006795 -0.900982 0.40438 -0.157188 
-0.125435 0.012393 0.003137 -0.902869 0.421429 0.0849983 
-0.124457 0.012393 0.013068 -0.907095 0.396266 0.141957 
-0.123478 0.012393 0.022999 -0.898177 0.402768 0.176225 
-0.121001 0.012393 0.032633 -0.882654 0.395526 0.253932 
-0.118105 0.012393 0.042183 -0.871648 0.396584 0.28801 
-0.114643 0.012393 0.051499 -0.829364 0.392022 0.398089 
-0.109938 0.012393 0.0603 -0.819083 0.378987 0.430664 
-0.105233 0.012393 0.069101 -0.775264 0.371093 0.511131 
-0.099157 0.012393 0.076986 -0.727575 0.355756 0.586577 
-0.092826 0.012393 0.084701 -0.710169 0.341735 0.61553 
-0.085976 0.012393 0.091896 -0.634703 0.336881 0.695459 
-0.078262 0.012393 0.098227 -0.596582 0.351536 0.721465 
-0.070547 0.012393 0.104557 -0.531565 0.369779 0.762038 
-0.061848 0.012393 0.109415 -0.434978 0.379088 0.816754 
-0.053046 0.012393 0.11412 -0.414915 0.387059 0.823426 
-0.043917 0.012393 0.118034 -0.30377 0.391482 0.8686 
-0.034367 0.012393 0.12093 -0.276797 0.395725 0.875663 
-0.024817 0.012393 0.123826 -0.209223 0.409713 0.887897 
-0.014897 0.012393 0.124865 -0.118437 0.40235 0.907792 
-0.004966 0.012393 0.125843 -0.116187 0.411994 0.903748 
0.004965 0.012393 0.125843 0.125028 0.411375 0.90285 
0.014897 0.012393 0.124865 0.116045 0.402948 0.907836 
0.024817 0.012393 0.123827 0.21013 0.410456 0.887339 
0.034368 0.012393 0.12093 0.274495 0.397191 0.875724 
0.043917 0.012393 0.118034 0.304251 0.391788 0.868293 
0.053046 0.012393 0.11412 0.414867 0.38675 0.823596 
0.061848 0.012393 0.109416 0.435135 0.378346 0.817014 
0.070547 0.012393 0.104558 0.531838 0.368493 0.76247 
0.078262 0.012393 0.098227 0.596636 0.34988 0.722225 
0.085975 0.012393 0.091896 0.635239 0.335859 0.695464 
0.092826 0.012393 0.084701 0.710461 0.340818 0.615702 
0.099157 0.012393 0.076986 0.727605 0.355492 0.5867 
0.105234 0.012393 0.069101 0.775046 0.371391 0.511246 
0.109938 0.012393 0.0603 0.818962 0.379619 0.430338 
0.114642 0.012393 0.051499 0.82909 0.392715 0.397975 
0.118105 0.012393 0.042183 0.871285 0.397417 0.287962 
0.121001 0.012393 0.032633 0.88227 0.396475 0.253784 
0.123478 0.012393 0.023 0.897994 0.403727 0.174963 
0.124457 0.012393 0.013068 0.905518 0.397429 0.148615 
0.125435 0.012393 0.003137 0.902847 0.421566 0.0845498 
0.124946 0.012393 -0.006795 0.901129 0.403932 -0.157498 
0.123967 0.012393 -0.016727 0.909145 0.400636 -0.113781 
0.12245 0.012393 -0.026552 0.884935 0.402362 -0.23451 
0.119552 0.012393 -0.036101 0.877688 0.395455 -0.270703 
0.116656 0.012393 -0.045652 0.851026 0.396574 -0.344216 
0.11229 0.012393 -0.054593 0.818631 0.385528 -0.42569 
0.107586 0.012393 -0.063394 0.804582 0.379137 -0.457059 
0.102322 0.012393 -0.071822 0.751095 0.365894 -0.549525 
0.095991 0.012393 -0.079536 0.726694 0.348491 -0.592005 
0.08966 0.012393 -0.087251 0.673271 0.338306 -0.657462 
0.082118 0.012393 -0.093755 0.598528 0.343275 -0.723828 
0.074404 0.012393 -0.100086 0.571705 0.357253 -0.738596 
0.066248 0.012393 -0.105756 0.482405 0.372132 -0.792971 
0.057447 0.012393 -0.110461 0.435324 0.38012 -0.81609 
0.048645 0.012393 -0.115165 0.381503 0.396922 -0.834811 
0.039142 0.012393 -0.118175 0.26851 0.397925 -0.877244 
0.029592 0.012393 -0.121072 0.241532 0.400277 -0.883991 
0.019864 0.012393 -0.123069 0.140264 0.402665 -0.904537 
0.009932 0.012393 -0.124047 0.16348 0.400938 -0.901401 
0 -0.175698 -0.225563 -8.62108e-07 0.0721326 -0.997395 
-0.009946 -0.175698 -0.224584 -0.110001 0.0130108 -0.993846 
-0.019891 -0.175698 -0.223604 -0.0949454 0.00532174 -0.995468 
-0.029836 -0.175698 -0.222625 -0.0916565 0.0069307 -0.995767 
-0.039781 -0.175698 -0.221644 -0.148472 0.010076 -0.988865 
-0.049512 -0.175698 -0.219584 -0.255063 0.01226 -0.966847 
-0.059075 -0.175698 -0.216683 -0.294136 0.0205757 -0.955542 
-0.068638 -0.175698 -0.213783 -0.28809 0.0305041 -0.957117 
-0.078201 -0.175698 -0.210881 -0.285105 0.0440818 -0.957482 
-0.087671 -0.175698 -0.207755 -0.402155 0.0537493 -0.913993 
-0.096484 -0.175698 -0.203043 -0.482804 0.0596347 -0.873696 
-0.105297 -0.175698 -0.198332 -0.466459 0.0730592 -0.88152 
-0.114111 -0.175698 -0.193621 -0.455659 0.095444 -0.885023 
-0.122925 -0.175698 -0.188911 -0.516179 0.107106 -0.849757 
-0.13099 -0.175698 -0.18308 -0.618147 0.11446 -0.777684 
-0.138716 -0.175698 -0.17674 -0.632201 0.119038 -0.765605 
-0.14644 -0.175698 -0.170401 -0.626314 0.121459 -0.770051 
-0.154166 -0.175698 -0.164061 -0.639226 0.125274 -0.758747 
-0.161544 -0.175698 -0.157375 -0.718126 0.125271 -0.684545 
-0.167885 -0.175698 -0.14965 -0.772129 0.126859 -0.622674 
-0.174224 -0.175698 -0.141925 -0.769559 0.124698 -0.626282 
-0.180564 -0.175698 -0.134199 -0.755292 0.12295 -0.643753 
-0.186903 -0.175698 -0.126474 -0.818116 0.123201 -0.561701 
-0.191919 -0.175698 -0.117864 -0.875561 0.111109 -0.470157 
-0.19663 -0.175698 -0.109051 -0.879548 0.0881626 -0.467571 
-0.201341 -0.175698 -0.100238 -0.878911 0.0614921 -0.473006 
-0.206052 -0.175698 -0.091424 -0.893908 0.0508534 -0.445357 
-0.210084 -0.175698 -0.082329 -0.937959 0.0442101 -0.343916 
-0.212985 -0.175698 -0.072767 -0.958804 0.0344136 -0.281977 
-0.215887 -0.175698 -0.063203 -0.958251 0.0232574 -0.284981 
-0.218787 -0.175698 -0.05364 -0.952465 0.0154208 -0.304258 
-0.221688 -0.175698 -0.044077 -0.978969 0.0114864 -0.203683 
-0.222788 -0.175698 -0.034155 -0.995695 0.00709461 -0.0924151 
-0.223767 -0.175698 -0.024211 -0.995501 0.00435032 -0.0946558 
-0.224747 -0.175698 -0.014265 -0.995029 0.000200174 -0.0995897 
-0.225726 -0.175698 -0.004319 -0.994302 -0.0169197 -0.105247 
-0.225726 -0.175698 0.005626 -0.994141 -0.0171387 0.106726 
-0.224747 -0.175698 0.015572 -0.995414 0.00154693 0.0956499 
-0.223767 -0.175698 0.025516 -0.995416 0.00675945 0.0953972 
-0.222788 -0.175698 0.035462 -0.995725 0.0106875 0.0917442 
-0.221688 -0.175698 0.045384 -0.978422 0.0169419 0.205919 
-0.218787 -0.175698 0.054946 -0.952689 0.0183424 0.303393 
-0.215887 -0.175698 0.06451 -0.957696 0.0241095 0.286771 
-0.212985 -0.175698 0.074073 -0.958966 0.0375228 0.281028 
-0.210084 -0.175698 0.083636 -0.93781 0.0479543 0.343821 
-0.206052 -0.175698 0.092731 -0.893813 0.0541511 0.445159 
-0.201342 -0.175698 0.101544 -0.879519 0.0689288 0.470846 
-0.19663 -0.175698 0.110358 -0.878426 0.0977058 0.467784 
-0.191919 -0.175698 0.119171 -0.874674 0.115882 0.470656 
-0.186903 -0.175698 0.12778 -0.819105 0.131328 0.558409 
-0.180564 -0.175698 0.135506 -0.758257 0.129103 0.639046 
-0.174224 -0.175698 0.143231 -0.767466 0.128245 0.628131 
-0.167885 -0.175698 0.150956 -0.77663 0.126676 0.617089 
-0.161544 -0.175698 0.158682 -0.71932 0.128272 0.682734 
-0.154166 -0.175698 0.165367 -0.63808 0.126205 0.759557 
-0.14644 -0.175698 0.171707 -0.624326 0.124073 0.771247 
-0.138716 -0.175698 0.178046 -0.633096 0.121266 0.764515 
-0.13099 -0.175698 0.184387 -0.615671 0.118527 0.779038 
-0.122925 -0.175698 0.190217 -0.51325 0.11675 0.850261 
-0.114112 -0.175698 0.194929 -0.461646 0.0947253 0.881992 
-0.105297 -0.175698 0.199639 -0.46562 0.0739442 0.88189 
-0.096484 -0.175698 0.20435 -0.482062 0.0585081 0.874181 
-0.087671 -0.175698 0.20906 -0.400016 0.0507178 0.915104 
-0.078201 -0.175698 0.212188 -0.286177 0.0421196 0.957251 
-0.068638 -0.175698 0.215089 -0.2887 0.0317445 0.956893 
-0.059075 -0.175698 0.21799 -0.296746 0.0226031 0.954689 
-0.049512 -0.175698 0.220891 -0.25667 0.0174535 0.966341 
-0.039782 -0.175698 0.222951 -0.148874 0.0137826 0.98876 
-0.029836 -0.175698 0.22393 -0.0898353 0.0110274 0.995896 
-0.019891 -0.175698 0.224911 -0.0924176 0.0103656 0.995666 
-0.009946 -0.175698 0.22589 -0.122452 0.0193943 0.992285 
0 -0.175698 0.22687 3.34568e-05 0.0737935 0.997274 
0.009945 -0.175698 0.22589 0.122173 0.0186277 0.992334 
0.019891 -0.175698 0.224911 0.0936142 0.00941542 0.995564 
0.029836 -0.175698 0.223931 0.0915601 0.0102402 0.995747 
0.039781 -0.175698 0.222951 0.147547 0.0127018 0.988973 
0.049512 -0.175698 0.220891 0.257559 0.0157073 0.966135 
0.059075 -0.175698 0.217991 0.291346 0.0227197 0.956348 
0.068638 -0.175698 0.215089 0.289809 0.0330489 0.956514 
0.078202 -0.175698 0.212188 0.285259 0.0427908 0.957495 
0.087671 -0.175698 0.209061 0.402557 0.0520702 0.913913 
0.096484 -0.175698 0.20435 0.483269 0.0594108 0.873454 
0.105298 -0.175698 0.199639 0.465912 0.0736846 0.881758 
0.114111 -0.175698 0.194929 0.461352 0.0975764 0.881835 
0.122924 -0.175698 0.190217 0.513529 0.117706 0.849961 
0.13099 -0.175698 0.184387 0.614342 0.118771 0.78005 
0.138715 -0.175698 0.178046 0.634339 0.123016 0.763204 
0.14644 -0.175698 0.171707 0.623059 0.127122 0.771776 
0.154165 -0.175698 0.165367 0.637835 0.12703 0.759625 
0.161545 -0.175698 0.158681 0.720906 0.128722 0.680973 
0.167884 -0.175698 0.150956 0.777715 0.125805 0.6159 
0.174224 -0.175698 0.143231 0.768167 0.129226 0.627073 
0.180564 -0.175698 0.135506 0.757852 0.13063 0.639215 
0.186903 -0.175698 0.12778 0.818791 0.133828 0.558276 
0.191919 -0.175698 0.119171 0.874334 0.119156 0.47047 
0.19663 -0.175698 0.110358 0.878113 0.0970129 0.468516 
0.201342 -0.175698 0.101545 0.880329 0.0691783 0.469293 
0.206052 -0.175698 0.092731 0.893738 0.0540295 0.445324 
0.210084 -0.175698 0.083636 0.937699 0.0474269 0.344195 
0.212985 -0.175698 0.074074 0.958645 0.0361418 0.2823 
0.215886 -0.175698 0.06451 0.957009 0.0242046 0.289047 
0.218787 -0.175698 0.054946 0.952955 0.0186581 0.302537 
0.221688 -0.175698 0.045384 0.977212 0.0169433 0.211586 
0.222788 -0.175698 0.035462 0.995821 0.0105013 0.0907249 
0.223767 -0.175698 0.025517 0.9954 0.00656285 0.0955816 
0.224747 -0.175698 0.015572 0.99542 0.00149456 0.095586 
0.225726 -0.175698 0.005626 0.99414 -0.0170932 0.106745 
0.225726 -0.175698 -0.004319 0.994301 -0.0169528 -0.105255 
0.224747 -0.175698 -0.014265 0.995028 0.000139582 -0.0995949 
0.223767 -0.175698 -0.02421 0.995501 0.00424481 -0.0946554 
0.222788 -0.175698 -0.034155 0.995698 0.00692655 -0.0923982 
0.221688 -0.175698 -0.044077 0.97897 0.0112328 -0.203694 
0.218787 -0.175698 -0.05364 0.952475 0.0151132 -0.30424 
0.215887 -0.175698 -0.063203 0.958238 0.0229572 -0.285048 
0.212985 -0.175698 -0.072766 0.958809 0.0340364 -0.282004 
0.210084 -0.175698 -0.082329 0.937903 0.0436026 -0.344147 
0.206052 -0.175698 -0.091424 0.894309 0.0499658 -0.444651 
0.201342 -0.175698 -0.100237 0.879732 0.0636487 -0.47119 
0.19663 -0.175698 -0.109051 0.878996 0.0890841 -0.468433 
0.191919 -0.175698 -0.117864 0.875817 0.109631 -0.470026 
0.186903 -0.175698 -0.126474 0.818169 0.12224 -0.561834 
0.180564 -0.175698 -0.134199 0.755439 0.122172 -0.643728 
0.174224 -0.175698 -0.141924 0.769159 0.124015 -0.626909 
0.167884 -0.175698 -0.14965 0.774265 0.126106 -0.62017 
0.161545 -0.175698 -0.157374 0.718963 0.124348 -0.683835 
0.154165 -0.175698 -0.164061 0.63952 0.124477 -0.75863 
0.14644 -0.175698 -0.170401 0.625103 0.121687 -0.770999 
0.138716 -0.175698 -0.17674 0.633008 0.118326 -0.765049 
0.13099 -0.175698 -0.18308 0.616762 0.113894 -0.778867 
0.122925 -0.175698 -0.188911 0.516333 0.106976 -0.84968 
0.114112 -0.175698 -0.193622 0.460079 0.0901683 -0.883288 
0.105298 -0.175698 -0.198332 0.466608 0.0713442 -0.881582 
0.096484 -0.175698 -0.203043 0.481234 0.058295 -0.874651 
0.087671 -0.175698 -0.207754 0.402106 0.0513493 -0.914152 
0.078202 -0.175698 -0.210881 0.285086 0.0418795 -0.957587 
0.068638 -0.175698 -0.213783 0.289203 0.0285044 -0.956843 
0.059075 -0.175698 -0.216683 0.293845 0.0191451 -0.955661 
0.049512 -0.175698 -0.219584 0.255143 0.0118339 -0.966831 
0.039781 -0.175698 -0.221644 0.148449 0.0101345 -0.988868 
0.029836 -0.175698 -0.222625 0.0916781 0.00674189 -0.995766 
0.019891 -0.175698 -0.223604 0.0949295 0.0050423 -0.995471 
0.009946 -0.175698 -0.224584 0.109999 0.0128089 -0.993849 
0 0.367221 -0.125026 8.23556e-06 0.679132 -0.734016 
-0.009932 0.367221 -0.124047 -0.0710396 0.711939 -0.698639 
-0.019864 0.367221 -0.123069 -0.0748064 0.724056 -0.685672 
-0.029592 0.367221 -0.121072 -0.174996 0.739969 -0.649479 
-0.039142 0.367221 -0.118175 -0.181726 0.754267 -0.630918 
-0.048645 0.367221 -0.115165 -0.259126 0.758445 -0.59801 
-0.057447 0.367221 -0.110461 -0.304651 0.769523 -0.561269 
-0.066248 0.367221 -0.105757 -0.317938 0.772456 -0.549752 
-0.074404 0.367221 -0.100086 -0.390447 0.775943 -0.495442 
-0.082118 0.367221 -0.093755 -0.392046 0.780691 -0.486643 
-0.08966 0.367221 -0.087251 -0.455321 0.776074 -0.436339 
-0.095991 0.367221 -0.079536 -0.491635 0.773939 -0.399142 
-0.102322 0.367221 -0.071822 -0.516963 0.765953 -0.382186 
-0.107586 0.367221 -0.063394 -0.568372 0.761946 -0.31047 
-0.11229 0.367221 -0.054593 -0.575609 0.758927 -0.304472 
-0.116656 0.367221 -0.045652 -0.618968 0.749143 -0.235929 
-0.119552 0.367221 -0.036101 -0.637169 0.746805 -0.19052 
-0.12245 0.367221 -0.026552 -0.663664 0.731576 -0.156038 
-0.123967 0.367221 -0.016727 -0.693158 0.719371 -0.0451335 
-0.124946 0.367221 -0.006795 -0.700997 0.707502 -0.0896858 
-0.125435 0.367221 0.003137 -0.713894 0.693392 0.0977844 
-0.124457 0.367221 0.013068 -0.697506 0.716321 0.0192128 
-0.123478 0.367221 0.022999 -0.682011 0.721631 0.118782 
-0.121001 0.367221 0.032633 -0.645498 0.740812 0.185825 
-0.118105 0.367221 0.042183 -0.631319 0.750365 0.19593 
-0.114643 0.367221 0.051499 -0.592961 0.757265 0.273765 
-0.109938 0.367221 0.0603 -0.567658 0.76744 0.297996 
-0.105233 0.367221 0.069101 -0.541655 0.767149 0.343646 
-0.099157 0.367221 0.076986 -0.491403 0.771907 0.403339 
-0.092826 0.367221 0.084701 -0.487134 0.770936 0.410315 
-0.085976 0.367221 0.091896 -0.42583 0.76904 0.476703 
-0.078262 0.367221 0.098227 -0.408437 0.770169 0.489917 
-0.070547 0.367221 0.104557 -0.366159 0.765128 0.529629 
-0.061848 0.367221 0.109415 -0.299465 0.762821 0.573084 
-0.053046 0.367221 0.11412 -0.292197 0.755065 0.586939 
-0.043917 0.367221 0.118034 -0.211514 0.748486 0.628515 
-0.034367 0.367221 0.12093 -0.201298 0.746626 0.634057 
-0.024817 0.367221 0.123826 -0.132327 0.731413 0.668973 
-0.014897 0.367221 0.124865 -0.0237234 0.727579 0.685613 
-0.004966 0.367221 0.125843 -0.10256 0.707323 0.699411 
0.004965 0.367221 0.125843 0.102434 0.70743 0.699321 
0.014897 0.367221 0.124865 0.0242493 0.727808 0.685352 
0.024817 0.367221 0.123827 0.129903 0.731795 0.66903 
0.034368 0.367221 0.12093 0.200992 0.748721 0.631679 
0.043917 0.367221 0.118034 0.21062 0.751552 0.625147 
0.053046 0.367221 0.11412 0.291341 0.7589 0.582402 
0.061848 0.367221 0.109416 0.297821 0.764731 0.571393 
0.070547 0.367221 0.104558 0.365024 0.767766 0.526586 
0.078262 0.367221 0.098227 0.407084 0.771547 0.488875 
0.085975 0.367221 0.091896 0.425613 0.768954 0.477036 
0.092826 0.367221 0.084701 0.488469 0.76941 0.41159 
0.099157 0.367221 0.076986 0.494106 0.768759 0.406041 
0.105234 0.367221 0.069101 0.546859 0.762517 0.345705 
0.109938 0.367221 0.0603 0.570304 0.765226 0.298636 
0.114642 0.367221 0.051499 0.59426 0.75617 0.273973 
0.118105 0.367221 0.042183 0.632444 0.749256 0.196544 
0.121001 0.367221 0.032633 0.645712 0.740592 0.185956 
0.123478 0.367221 0.023 0.68218 0.721461 0.118847 
0.124457 0.367221 0.013068 0.697707 0.716126 0.0192152 
0.125435 0.367221 0.003137 0.713914 0.693373 0.0977766 
0.124946 0.367221 -0.006795 0.700703 0.707796 -0.0896641 
0.123967 0.367221 -0.016727 0.692556 0.719955 -0.0450682 
0.12245 0.367221 -0.026552 0.662752 0.732455 -0.155789 
0.119552 0.367221 -0.036101 0.635842 0.748024 -0.190172 
0.116656 0.367221 -0.045652 0.617294 0.750753 -0.235198 
0.11229 0.367221 -0.054593 0.573447 0.760941 -0.303524 
0.107586 0.367221 -0.063394 0.565276 0.765014 -0.308572 
0.102322 0.367221 -0.071822 0.512999 0.769655 -0.380083 
0.095991 0.367221 -0.079536 0.489713 0.77626 -0.39699 
0.08966 0.367221 -0.087251 0.454247 0.777438 -0.435028 
0.082118 0.367221 -0.093755 0.392493 0.780644 -0.486358 
0.074404 0.367221 -0.100086 0.390803 0.7745 -0.497416 
0.066248 0.367221 -0.105756 0.319412 0.771601 -0.550098 
0.057447 0.367221 -0.110461 0.304968 0.767578 -0.563754 
0.048645 0.367221 -0.115165 0.260076 0.756996 -0.599431 
0.039142 0.367221 -0.118175 0.181951 0.753285 -0.632025 
0.029592 0.367221 -0.121072 0.175228 0.739261 -0.650222 
0.019864 0.367221 -0.123069 0.0748741 0.723552 -0.686198 
0.009932 0.367221 -0.124047 0.0710574 0.711643 -0.698939 
0 0.006033 -0.132777 -0.0136335 0.788643 -0.6147 
0 -0.000328 -0.140526 -0.0093412 0.75983 -0.650055 
0 -0.006688 -0.148277 -0.00615581 0.780906 -0.624618 
0 -0.013048 -0.156028 -0.00434997 0.751039 -0.660244 
0 -0.02021 -0.162976 -0.00300073 0.655831 -0.754902 
0 -0.027961 -0.169336 -0.00248574 0.633059 -0.7741 
0 -0.035712 -0.175696 -0.00234094 0.633549 -0.773699 
0 -0.043461 -0.182056 -0.00176321 0.638145 -0.769914 
0 -0.05138 -0.188165 -0.0015378 0.54669 -0.837333 
0 -0.060222 -0.192891 -0.00158163 0.458361 -0.888765 
0 -0.069065 -0.197618 -0.00145526 0.468744 -0.883333 
0 -0.077907 -0.202344 -0.00123488 0.480309 -0.877098 
0 -0.086749 -0.20707 -0.00105929 0.394135 -0.919052 
0 -0.096141 -0.21047 -0.000948619 0.303884 -0.952708 
0 -0.105735 -0.21338 -0.000861293 0.285005 -0.958525 
0 -0.11533 -0.216291 -0.000755525 0.293471 -0.955968 
0 -0.124924 -0.219201 -0.000656813 0.269258 -0.963068 
0 -0.134636 -0.221518 -0.00056978 0.172788 -0.984959 
0 -0.144614 -0.222502 -0.000421129 0.0839579 -0.996469 
0 -0.154592 -0.223484 -0.000318057 0.100798 -0.994907 
0 -0.16457 -0.224467 -0.00017058 0.0910914 -0.995843 
0 -0.174547 -0.22545 -1.44634e-05 0.106465 -0.994316 
0 -0.184525 -0.224694 6.59312e-05 -0.121544 -0.992586 
0 -0.194503 -0.223711 6.77707e-05 -0.0943858 -0.995536 
0 -0.204481 -0.222728 8.09547e-05 -0.0975009 -0.995235 
0 -0.214458 -0.221745 0.000218201 -0.138731 -0.99033 
0 -0.224259 -0.219872 0.000312917 -0.244242 -0.969714 
0 -0.233854 -0.216962 0.000167068 -0.292877 -0.95615 
0 -0.243448 -0.214052 0.0002755 -0.290197 -0.956967 
0 -0.253042 -0.211141 0.000724123 -0.278809 -0.960346 
0 -0.262608 -0.208161 0.00101309 -0.405802 -0.913961 
0 -0.27145 -0.203435 0.000781518 -0.474454 -0.88028 
0 -0.280292 -0.198708 0.000306047 -0.469059 -0.883167 
0 -0.289134 -0.193982 0.000286961 -0.465368 -0.885117 
0 -0.297977 -0.189256 0.000123819 -0.513505 -0.858086 
0 -0.306146 -0.183524 0.000276085 -0.614326 -0.789052 
0 -0.313897 -0.177164 0.000122915 -0.636778 -0.771047 
0 -0.321648 -0.170804 -2.80374e-05 -0.63217 -0.774829 
0 -0.329398 -0.164443 -5.63336e-05 -0.638656 -0.769492 
0 -0.336881 -0.157816 6.1313e-05 -0.729178 -0.684324 
0 -0.343241 -0.150065 8.17822e-05 -0.780295 -0.625411 
0 -0.349602 -0.142315 8.84331e-05 -0.774719 -0.632305 
0 -0.355962 -0.134565 0.000118054 -0.761595 -0.648053 
0 -0.362322 -0.126814 0.000158716 -0.811763 -0.583987 
0 -0.367426 -0.118224 0.000208222 -0.878836 -0.477124 
0 -0.372152 -0.109381 0.000216056 -0.883399 -0.468621 
0 -0.376878 -0.100539 0.000213071 -0.878728 -0.477323 
0 -0.381605 -0.091697 0.000188292 -0.89225 -0.451542 
0 -0.385703 -0.082595 0.000149754 -0.939854 -0.341576 
0 -0.388613 -0.073 0.000127946 -0.959979 -0.280073 
0 -0.391523 -0.063406 0.00012915 -0.958254 -0.285918 
0 -0.394434 -0.053812 0.000150965 -0.954004 -0.299794 
0 -0.397343 -0.044217 0.000184562 -0.979159 -0.203094 
0 -0.398475 -0.034268 0.000234011 -0.99597 -0.0896822 
0 -0.399457 -0.024291 0.00031826 -0.995171 -0.0981541 
0 -0.40044 -0.014313 0.000495509 -0.994737 -0.102461 
0 -0.401423 -0.004335 0.000264308 -0.997914 -0.0645505 
0 -0.401423 0.005642 0.000498974 -0.998113 0.0613953 
0 -0.40044 0.01562 8.02628e-05 -0.994669 0.103122 
0 -0.399457 0.025597 -3.70439e-05 -0.995257 0.0972816 
0 -0.398475 0.035575 -4.26991e-05 -0.99605 0.0887971 
0 -0.397343 0.045524 -3.43379e-05 -0.981172 0.193134 
0 -0.394434 0.055118 -2.68515e-05 -0.954634 0.297782 
0 -0.391523 0.064713 -1.68027e-05 -0.958915 0.283693 
0 -0.388613 0.074307 -9.37529e-06 -0.959683 0.281085 
0 -0.385703 0.083901 -4.62357e-07 -0.940366 0.340163 
0 -0.381605 0.093004 5.53971e-06 -0.894153 0.447761 
0 -0.376878 0.101846 6.18628e-06 -0.877572 0.479445 
0 -0.372152 0.110688 -1.04646e-05 -0.882366 0.470564 
0 -0.367426 0.11953 -3.06926e-05 -0.881506 0.472173 
0 -0.362322 0.128121 -2.52323e-05 -0.809294 0.587403 
0 -0.355962 0.135871 -1.10183e-05 -0.764742 0.644336 
0 -0.349602 0.143622 2.87524e-05 -0.773312 0.634025 
0 -0.343241 0.151372 7.02561e-05 -0.781429 0.623995 
0 -0.336881 0.159122 0.000100074 -0.73231 0.680971 
0 -0.329398 0.16575 5.49204e-05 -0.6378 0.770202 
0 -0.321648 0.172111 5.38026e-05 -0.632453 0.774599 
0 -0.313897 0.178471 3.18865e-05 -0.635708 0.771929 
0 -0.306146 0.184831 -1.23238e-05 -0.613825 0.789442 
0 -0.297977 0.190562 -1.45323e-05 -0.518582 0.855028 
0 -0.289134 0.195289 4.93355e-05 -0.466116 0.884723 
0 -0.280292 0.200015 0.000169702 -0.470609 0.882342 
0 -0.27145 0.204741 -4.74755e-05 -0.487133 0.873328 
0 -0.262608 0.209468 -0.000311499 -0.400631 0.91624 
0 -0.253042 0.212448 -0.000593135 -0.273168 0.961966 
0 -0.243448 0.215358 -0.00114869 -0.290161 0.956977 
0 -0.233854 0.218269 -0.000637122 -0.294802 0.955558 
0 -0.224259 0.221179 -6.42469e-07 -0.244613 0.969621 
0 -0.214458 0.223052 0.000205744 -0.138129 0.990414 
0 -0.204481 0.224035 0.0005936 -0.0894022 0.995995 
0 -0.194503 0.225018 0.00048064 -0.0963277 0.99535 
0 -0.184525 0.226 0.000392463 -0.145741 0.989323 
0 -0.174547 0.226757 -2.55445e-05 0.104646 0.99451 
0 -0.16457 0.225773 -0.00036527 0.0953534 0.995443 
0 -0.154592 0.224791 -0.000319844 0.097506 0.995235 
0 -0.144614 0.223808 -4.77423e-05 0.0841624 0.996452 
0 -0.134636 0.222825 0.000157599 0.166585 0.986027 
0 -0.124924 0.220508 0.000140706 0.271006 0.962578 
0 -0.11533 0.217597 0.000158543 0.29271 0.956201 
0 -0.105735 0.214687 -8.5624e-05 0.284873 0.958565 
0 -0.096141 0.211777 -0.000159426 0.303938 0.952692 
0 -0.086749 0.208377 -0.000236591 0.393303 0.919409 
0 -0.077907 0.203651 -0.000294545 0.482049 0.876144 
0 -0.069065 0.198924 -0.000336042 0.468452 0.883489 
0 -0.060222 0.194198 -0.000288189 0.458719 0.888581 
0 -0.05138 0.189472 -0.000254869 0.533229 0.845971 
0 -0.043461 0.183363 -0.000269026 0.641264 0.767321 
0 -0.035711 0.177003 -4.1474e-05 0.630566 0.776136 
0 -0.027961 0.170643 0.000427613 0.635496 0.772104 
0 -0.02021 0.164283 0.000672743 0.65637 0.754439 
0 -0.013048 0.157335 0.000910401 0.749003 0.662566 
0 -0.006688 0.149584 0.0013705 0.779797 0.626031 
0 -0.000328 0.141833 0.00340036 0.76342 0.645893 
0 0.006033 0.134083 0.011206 0.785172 0.619176 
0 0.012393 0.126333 -0.00219539 0.436531 0.899687 
0 0.022531 0.126333 0.0102857 -0.0221014 0.999703 
0 0.032669 0.126333 0.00261942 0.00822541 0.999963 
0 0.042807 0.126333 0.000658463 -0.00237594 0.999997 
0 0.052945 0.126333 0.000241201 0.000979164 0.999999 
0 0.063083 0.126333 0.000364447 0.0011136 0.999999 
0 0.073221 0.126333 0.000104046 -0.000986961 1 
0 0.083358 0.126333 -7.377e-05 -0.000605208 1 
0 0.093496 0.126333 -0.000193649 -0.000881071 1 
0 0.103634 0.126333 -0.000274446 -0.000938476 1 
0 0.113772 0.126333 -0.000327599 -0.000703513 1 
0 0.123911 0.126333 -0.000349709 -0.000863551 1 
0 0.134049 0.126333 -0.000434719 -0.000320659 1 
0 0.144187 0.126333 -0.000674064 -0.000203263 1 
0 0.154324 0.126333 -0.00103752 -0.000394181 0.999999 
0 0.164462 0.126333 -0.00130133 -7.24253e-05 0.999999 
0 0.1746 0.126333 -0.00143815 -0.00116917 0.999998 
0 0.184738 0.126333 -0.00153464 0.00113727 0.999998 
0 0.194876 0.126333 -0.00167611 -0.0047495 0.999987 
0 0.205014 0.126333 -0.00148274 0.000182221 0.999999 
0 0.215152 0.126333 -0.00140795 -0.00453494 0.999989 
0 0.225289 0.126333 -0.00122034 -0.00112389 0.999999 
0 0.235427 0.126333 -0.00106945 -0.0017615 0.999998 
0 0.245565 0.126333 -0.000954299 -0.00104651 0.999999 
0 0.255703 0.126333 -0.000886945 -0.00065907 0.999999 
0 0.265841 0.126333 -0.000856647 -0.000487998 1 
0 0.275979 0.126333 -0.000854067 -0.000262077 1 
0 0.286118 0.126333 -0.000864996 -0.00097941 0.999999 
0 0.296256 0.126333 -0.00088277 0.00150123 0.999998 
0 0.306393 0.126333 -0.000875351 -0.000133799 1 
0 0.316531 0.126333 -0.000874277 -0.00126797 0.999999 
0 0.326669 0.126333 -0.000765868 -0.00114024 0.999999 
0 0.336807 0.126333 -0.000495834 -0.014461 0.999895 
0 0.346945 0.126333 -0.00017575 0.0465039 0.998918 
0 0.357083 0.126333 -0.000115972 -0.204597 0.978846 
0 0.367221 0.126333 4.46785e-05 0.689163 0.724606 
0 0.367221 0.116278 0.000129409 0.970932 -0.239355 
0 0.367221 0.106224 0.000270039 0.99922 0.0394857 
0 0.367221 0.096169 0.000479316 0.999887 -0.0150178 
0 0.367221 0.086115 0.000726453 0.99998 -0.00624598 
0 0.367221 0.076061 0.00071102 0.99999 -0.00432841 
0 0.367221 0.066007 0.000484811 1 -0.000606484 
0 0.367221 0.055952 0.000118906 0.999989 0.00462984 
0 0.367221 0.045898 -5.66296e-05 0.999997 -0.00226166 
0 0.367221 0.035843 -0.000213636 1 -0.000456285 
0 0.367221 0.025789 -0.000395098 0.999998 -0.00168972 
0 0.367221 0.015735 -0.000653513 0.999999 -0.000920992 
0 0.367221 0.005681 -0.00122065 0.999987 -0.00502419 
0 0.367221 -0.004374 0.000409793 0.99999 0.0044336 
0 0.367221 -0.014428 0.000481727 0.999994 -0.00348371 
0 0.367221 -0.024483 0.000279955 1 0.000197653 
0 0.367221 -0.034537 9.81545e-05 0.999995 0.00325799 
0 0.367221 -0.044591 -3.93182e-05 0.999999 -0.00122976 
0 0.367221 -0.054645 -0.000155778 0.999997 -0.00233925 
0 0.367221 -0.0647 -0.00035641 0.999998 -0.00216777 
0 0.367221 -0.074754 -0.00049011 0.999986 0.00518132 
0 0.367221 -0.084809 -0.000485347 0.999997 -0.00234721 
0 0.367221 -0.094862 -0.000342885 0.999878 0.0156075 
0 0.367221 -0.104917 -0.00020733 0.998812 -0.048738 
0 0.367221 -0.114971 -0.000134814 0.974209 0.225647 
0 0.357083 -0.125026 7.78588e-05 -0.184625 -0.982809 
0 0.346945 -0.125026 7.18712e-06 0.0418252 -0.999125 
0 0.336807 -0.125026 -4.26253e-05 -0.012614 -0.99992 
0 0.326669 -0.125026 -0.000118964 0.00327221 -0.999995 
0 0.316531 -0.125026 -0.000272177 -0.00187744 -0.999998 
0 0.306393 -0.125026 -0.000499366 0.000196953 -1 
0 0.296256 -0.125026 -0.000728649 0.00267467 -0.999996 
0 0.286118 -0.125026 -0.000963571 -0.000677415 -0.999999 
0 0.275979 -0.125026 -0.00122715 0.000337998 -0.999999 
0 0.265841 -0.125026 -0.00151711 0.000383462 -0.999999 
0 0.255703 -0.125026 -0.00190287 0.000239852 -0.999998 
0 0.245565 -0.125026 -0.00242011 -0.00172269 -0.999996 
0 0.235427 -0.125026 -0.001947 -0.00173963 -0.999997 
0 0.225289 -0.125026 -0.00152484 -0.000950155 -0.999998 
0 0.215152 -0.125026 -0.00113195 -0.00377693 -0.999992 
0 0.205014 -0.125026 -0.000868911 -0.000338021 -1 
0 0.194876 -0.125026 -0.000588167 -0.00360437 -0.999993 
0 0.184738 -0.125026 -0.000367978 0.000615647 -1 
0 0.1746 -0.125026 -0.00025357 -0.000859427 -1 
0 0.164462 -0.125026 -0.000297609 3.36107e-06 -1 
0 0.154324 -0.125026 -0.00045878 -0.000206299 -1 
0 0.144187 -0.125026 -0.000530099 -0.000328432 -1 
0 0.134049 -0.125026 -0.000290159 0.000175158 -1 
0 0.123911 -0.125026 -0.000322136 -0.000754445 -1 
0 0.113772 -0.125026 -0.00036351 -0.00054761 -1 
0 0.103634 -0.125026 -0.000596332 -0.000683641 -1 
0 0.093496 -0.125026 -0.00110768 -0.00113668 -0.999999 
0 0.083358 -0.125026 -0.00187916 0.000336637 -0.999998 
0 0.073221 -0.125026 -0.00288426 -0.000931104 -0.999995 
0 0.063083 -0.125026 -0.00378972 -0.000366492 -0.999993 
0 0.052945 -0.125026 -0.0047147 0.00106364 -0.999988 
0 0.042807 -0.125026 -0.00609538 0.000307773 -0.999981 
0 0.032669 -0.125026 -0.00873014 0.00661222 -0.99994 
0 0.022531 -0.125026 -0.0123105 -0.0220116 -0.999682 
-0.125679 0.012393 0.000653 -0.89798 0.435397 0.0637326 
-0.125679 0.022531 0.000653 -0.998292 -0.057657 0.00942036 
-0.125679 0.032669 0.000653 -0.999798 0.0186764 0.00749214 
-0.125679 0.042807 0.000653 -0.999963 -0.0038185 0.00770899 
-0.125679 0.052945 0.000653 -0.999975 0.000927247 0.00703641 
-0.125679 0.063083 0.000653 -0.999976 0.000711749 0.00688926 
-0.125679 0.073221 0.000653 -0.999983 -0.00126979 0.00565945 
-0.125679 0.083358 0.000653 -0.999989 0.000358872 0.00478173 
-0.125679 0.093496 0.000653 -0.99999 -0.000929708 0.00429638 
-0.125679 0.103634 0.000653 -0.999991 -0.000551807 0.00419447 
-0.125679 0.113772 0.000653 -0.999991 -0.000279615 0.00422944 
-0.125679 0.123911 0.000653 -0.99999 -0.000625302 0.00442594 
-0.125679 0.134049 0.000653 -0.999991 0.00041455 0.00423151 
-0.125679 0.144187 0.000653 -0.999991 -7.95461e-05 0.00423124 
-0.125679 0.154324 0.000653 -0.999992 1.34497e-06 0.00393657 
-0.125679 0.164462 0.000653 -0.999994 0.000329399 0.00338368 
-0.125679 0.1746 0.000653 -0.999993 -0.000579729 0.00362396 
-0.125679 0.184738 0.000653 -0.999991 0.000776138 0.00404995 
-0.125679 0.194876 0.000653 -0.999983 -0.00319238 0.00490244 
-0.125679 0.205014 0.000653 -0.999996 -0.000642936 0.00288167 
-0.125679 0.215152 0.000653 -0.999996 -0.00263324 0.00129327 
-0.125679 0.225289 0.000653 -1 -0.000697154 -0.000402751 
-0.125679 0.235427 0.000653 -0.999996 -0.0015701 -0.00219273 
-0.125679 0.245565 0.000653 -0.999992 -0.00036424 -0.00391528 
-0.125679 0.255703 0.000653 -0.999989 -0.000441105 -0.00463875 
-0.125679 0.265841 0.000653 -0.999986 4.65238e-05 -0.00536608 
-0.125679 0.275979 0.000653 -0.999983 -0.00018363 -0.0058627 
-0.125679 0.286118 0.000653 -0.999981 -0.000488472 -0.00609498 
-0.125679 0.296256 0.000653 -0.999978 0.0031043 -0.00591554 
-0.125679 0.306393 0.000653 -0.999994 -0.000488295 -0.00349578 
-0.125679 0.316531 0.000653 -0.999999 -0.00138912 0.000328968 
-0.125679 0.326669 0.000653 -0.999986 0.000143211 0.00534624 
-0.125679 0.336807 0.000653 -0.999939 -0.0108067 0.00220416 
-0.125679 0.346945 0.000653 -0.999244 0.0380475 -0.00801742 
-0.125679 0.357083 0.000653 -0.982984 -0.183491 0.00862096 
-0.125679 0.367221 0.000653 -0.728654 0.684439 0.0246476 
-0.115624 0.367221 0.000653 0.21978 0.975359 0.0192618 
-0.105571 0.367221 0.000653 -0.0388536 0.999145 -0.0141487 
-0.095516 0.367221 0.000653 0.0120852 0.99991 0.00583917 
-0.085462 0.367221 0.000653 0.00432646 0.999804 0.0193223 
-0.075407 0.367221 0.000653 0.00528614 0.999881 0.014496 
-0.065353 0.367221 0.000653 0.00104621 0.999868 0.0162214 
-0.055299 0.367221 0.000653 -0.00599793 0.999682 0.0244784 
-0.045245 0.367221 0.000653 0.000458238 0.999643 0.0267071 
-0.03519 0.367221 0.000653 0.000370727 0.999804 0.0197944 
-0.025136 0.367221 0.000653 0.000276369 0.999878 0.015603 
-0.015081 0.367221 0.000653 8.02059e-06 0.999948 0.0101967 
-0.005027 0.367221 0.000653 0.00343567 0.999987 0.00367547 
0.005027 0.367221 0.000653 -0.00292864 0.999993 0.00248378 
0.015081 0.367221 0.000653 2.36476e-05 0.999961 0.00882121 
0.025136 0.367221 0.000653 -0.000272528 0.999892 0.0147153 
0.03519 0.367221 0.000653 -0.000370031 0.999816 0.0191889 
0.045245 0.367221 0.000653 -0.000447194 0.999658 0.0261436 
0.055299 0.367221 0.000653 0.00602152 0.999705 0.0235496 
0.065353 0.367221 0.000653 -0.0010536 0.999892 0.0146827 
0.075407 0.367221 0.000653 -0.00527525 0.999903 0.0129083 
0.085462 0.367221 0.000653 -0.00432282 0.999829 0.0179561 
0.095516 0.367221 0.000653 -0.0120899 0.999916 0.00476073 
0.105571 0.367221 0.000653 0.0388716 0.999133 -0.0149107 
0.115624 0.367221 0.000653 -0.219779 0.975368 0.0188425 
0.125679 0.367221 0.000653 0.728611 0.684484 0.0246502 
0.125679 0.357083 0.000653 0.982982 -0.183504 0.00849417 
0.125679 0.346945 0.000653 0.999242 0.0380479 -0.00820673 
0.125679 0.336807 0.000653 0.999938 -0.0108099 0.00265587 
0.125679 0.326669 0.000653 0.999979 0.000141087 0.00642762 
0.125679 0.316531 0.000653 0.999997 -0.00139074 0.00191427 
0.125679 0.306393 0.000653 0.999998 -0.00048231 -0.00198679 
0.125679 0.296256 0.000653 0.999985 0.00307849 -0.00443556 
0.125679 0.286118 0.000653 0.99999 -0.000482536 -0.00437818 
0.125679 0.275979 0.000653 0.999993 -0.000181735 -0.00378611 
0.125679 0.265841 0.000653 0.999996 3.38251e-05 -0.00292383 
0.125679 0.255703 0.000653 0.999999 -0.000386911 -0.00162998 
0.125679 0.245565 0.000653 1 -0.000411894 -0.000144042 
0.125679 0.235427 0.000653 0.999998 -0.0015003 0.00092883 
0.125679 0.225289 0.000653 0.999998 -0.000743817 0.0019891 
0.125679 0.215152 0.000653 0.999992 -0.00241935 0.00312735 
0.125679 0.205014 0.000653 0.999991 -0.000704947 0.0042866 
0.125679 0.194876 0.000653 0.999976 -0.00306383 0.00624995 
0.125679 0.184738 0.000653 0.999986 0.000720711 0.00527285 
0.125679 0.1746 0.000653 0.99999 -0.000549382 0.00444429 
0.125679 0.164462 0.000653 0.999993 0.000339344 0.00364776 
0.125679 0.154324 0.000653 0.999992 2.13453e-05 0.00393852 
0.125679 0.144187 0.000653 0.999991 -7.27969e-05 0.00414408 
0.125679 0.134049 0.000653 0.999991 0.00045679 0.00423671 
0.125679 0.123911 0.000653 0.999988 -0.000627744 0.00479554 
0.125679 0.113772 0.000653 0.999988 -0.000271268 0.00493932 
0.125679 0.103634 0.000653 0.999987 -0.000547449 0.0051256 
0.125679 0.093496 0.000653 0.999985 -0.000936646 0.00539865 
0.125679 0.083358 0.000653 0.999981 0.000385103 0.0061444 
0.125679 0.073221 0.000653 0.999972 -0.00133009 0.00742998 
0.125679 0.063083 0.000653 0.999958 0.000895882 0.00908252 
0.125679 0.052945 0.000653 0.999952 0.000838947 0.00974895 
0.125679 0.042807 0.000653 0.99993 -0.00369697 0.0112764 
0.125679 0.032669 0.000653 0.999752 0.0182568 0.0127389 
0.125679 0.022531 0.000653 0.998235 -0.0562702 0.0189783 
0.125679 0.012393 0.000653 0.897918 0.435462 0.0641601 
0.13343 0.006033 0.000653 0.591362 0.806129 0.0211538 
0.14118 -0.000328 0.000653 0.653387 0.756872 0.0151759 
0.14893 -0.006688 0.000653 0.623128 0.782033 0.0117114 
0.156681 -0.013048 0.000653 0.661957 0.74949 0.00885496 
0.16363 -0.02021 0.000653 0.754013 0.656773 0.0106477 
0.16999 -0.027961 0.000653 0.774709 0.632274 0.00742859 
0.17635 -0.035712 0.000653 0.770318 0.637639 0.00506757 
0.18271 -0.043461 0.000653 0.769215 0.638964 0.00582329 
0.188819 -0.05138 0.000653 0.840031 0.542534 0.0022672 
0.193545 -0.060222 0.000653 0.888167 0.459502 0.0041935 
0.198271 -0.069065 0.000653 0.885068 0.465459 0.00145414 
0.202997 -0.077907 0.000653 0.875598 0.483038 0.0015033 
0.207724 -0.086749 0.000653 0.919767 0.392461 0.00158965 
0.211123 -0.096141 0.000653 0.952223 0.305401 0.00133208 
0.214034 -0.105735 0.000653 0.958369 0.285531 0.000922443 
0.216944 -0.11533 0.000653 0.955925 0.29361 0.000806328 
0.219854 -0.124924 0.000653 0.96338 0.268131 0.00190216 
0.222172 -0.134636 0.000653 0.983584 0.180445 0.00161942 
0.223155 -0.144614 0.000653 0.996205 0.0870399 0.00070028 
0.224138 -0.154592 0.000653 0.995684 0.0928087 -0.000332303 
0.22512 -0.16457 0.000653 0.992164 0.124941 4.69781e-05 
0.226103 -0.174547 0.000653 0.999987 0.00496538 -0.00144996 
0.225347 -0.184525 0.000653 0.995243 -0.0974247 -0.000260531 
0.224365 -0.194503 0.000653 0.995326 -0.0965529 -0.00191684 
0.223381 -0.204481 0.000653 0.995959 -0.089789 -0.00176381 
0.222399 -0.214458 0.000653 0.990948 -0.134233 -0.00191348 
0.220526 -0.224259 0.000653 0.969049 -0.246858 -0.00224644 
0.217615 -0.233854 0.000653 0.953585 -0.301119 -0.00187235 
0.214705 -0.243448 0.000653 0.958329 -0.285662 -0.0016164 
0.211795 -0.253042 0.000653 0.958911 -0.283704 -0.00121779 
0.208814 -0.262608 0.000653 0.925383 -0.37903 -0.00151601 
0.204088 -0.27145 0.000653 0.871912 -0.48966 -0.00144831 
0.199362 -0.280292 0.000653 0.885079 -0.46544 -0.00101516 
0.194635 -0.289134 0.000653 0.888518 -0.458841 -0.000445749 
0.189909 -0.297977 0.000653 0.855237 -0.518237 -0.000510115 
0.184177 -0.306146 0.000653 0.792465 -0.609917 -0.000739571 
0.177817 -0.313897 0.000653 0.769789 -0.638297 -0.00139137 
0.171457 -0.321648 0.000653 0.776046 -0.630674 -0.00156897 
0.165096 -0.329398 0.000653 0.769286 -0.638903 -0.00112921 
0.158469 -0.336881 0.000653 0.699343 -0.714785 -0.00130506 
0.150718 -0.343241 0.000653 0.626603 -0.779335 -0.00249849 
0.142969 -0.349602 0.000653 0.631078 -0.775713 -0.00309799 
0.135218 -0.355962 0.000653 0.643456 -0.76548 -0.00221199 
0.127467 -0.362322 0.000653 0.57343 -0.819254 -0.000621198 
0.118877 -0.367426 0.000653 0.476977 -0.878916 7.91648e-05 
0.110035 -0.372152 0.000653 0.469292 -0.883043 -0.000775598 
0.101193 -0.376878 0.000653 0.475954 -0.87947 -0.00112724 
0.09235 -0.381605 0.000653 0.449929 -0.893064 -0.000243558 
0.083248 -0.385703 0.000653 0.33913 -0.940739 -0.00015287 
0.073653 -0.388613 0.000653 0.281841 -0.959461 -0.000897375 
0.06406 -0.391523 0.000653 0.286785 -0.957995 -0.000876824 
0.054465 -0.394434 0.000653 0.29684 -0.954927 -0.000202923 
0.044871 -0.397343 0.000653 0.213572 -0.976927 0.000850721 
0.034922 -0.398475 0.000653 0.09308 -0.995658 0.000904645 
0.024944 -0.399457 0.000653 0.0952703 -0.995451 7.67236e-05 
0.014966 -0.40044 0.000653 0.103663 -0.994613 -0.000176427 
0.004988 -0.401423 0.000653 0.064266 -0.997933 0.000146223 
-0.004988 -0.401423 0.000653 -0.0630619 -0.99801 -3.58558e-05 
-0.014966 -0.40044 0.000653 -0.103586 -0.99462 0.000292153 
-0.024944 -0.399457 0.000653 -0.0953077 -0.995448 0.000387724 
-0.034922 -0.398475 0.000653 -0.0930726 -0.995659 0.00114143 
-0.044871 -0.397343 0.000653 -0.213559 -0.97693 0.00102765 
-0.054465 -0.394434 0.000653 -0.296836 -0.954928 -7.67432e-05 
-0.06406 -0.391523 0.000653 -0.286789 -0.957993 -0.000806556 
-0.073653 -0.388613 0.000653 -0.281839 -0.959461 -0.000865327 
-0.083248 -0.385703 0.000653 -0.339129 -0.94074 -0.000135427 
-0.09235 -0.381605 0.000653 -0.449929 -0.893064 -0.000192236 
-0.101193 -0.376878 0.000653 -0.475953 -0.87947 -0.00102475 
-0.110035 -0.372152 0.000653 -0.469293 -0.883043 -0.000641493 
-0.118877 -0.367426 0.000653 -0.476978 -0.878915 0.000211492 
-0.127467 -0.362322 0.000653 -0.573428 -0.819256 -0.000521585 
-0.135218 -0.355962 0.000653 -0.643455 -0.765481 -0.00214445 
-0.142969 -0.349602 0.000653 -0.631088 -0.775706 -0.00305666 
-0.150718 -0.343241 0.000653 -0.626621 -0.77932 -0.00243786 
-0.158469 -0.336881 0.000653 -0.699278 -0.714848 -0.00124903 
-0.165096 -0.329398 0.000653 -0.769462 -0.638692 -0.00117746 
-0.171457 -0.321648 0.000653 -0.775798 -0.630979 -0.00147915 
-0.177817 -0.313897 0.000653 -0.769841 -0.638235 -0.00136806 
-0.184177 -0.306146 0.000653 -0.792456 -0.609928 -0.000639619 
-0.189909 -0.297977 0.000653 -0.855228 -0.518252 -0.000532304 
-0.194635 -0.289134 0.000653 -0.888548 -0.458784 -0.000544199 
-0.199362 -0.280292 0.000653 -0.885066 -0.465463 -0.00126742 
-0.204088 -0.27145 0.000653 -0.871903 -0.489675 -0.00172878 
-0.208814 -0.262608 0.000653 -0.925339 -0.379136 -0.00164221 
-0.211795 -0.253042 0.000653 -0.959051 -0.28323 -0.0013751 
-0.214705 -0.243448 0.000653 -0.958357 -0.285572 -0.00119177 
-0.217615 -0.233854 0.000653 -0.953509 -0.301364 -0.0011706 
-0.220526 -0.224259 0.000653 -0.969276 -0.245972 -0.00122848 
-0.222399 -0.214458 0.000653 -0.990917 -0.13447 -0.00127413 
-0.223381 -0.204481 0.000653 -0.995962 -0.0897708 -0.00134343 
-0.224365 -0.194503 0.000653 -0.995326 -0.0965599 -0.00171268 
-0.225347 -0.184525 0.000653 -0.995244 -0.0974094 -0.00018711 
-0.226103 -0.174547 0.000653 -0.999987 0.00495048 -0.00145856 
-0.22512 -0.16457 0.000653 -0.992162 0.124957 1.33765e-05 
-0.224138 -0.154592 0.000653 -0.995686 0.0927867 -0.000308922 
-0.223155 -0.144614 0.000653 -0.996204 0.0870486 0.000612636 
-0.222172 -0.134636 0.000653 -0.983586 0.180433 0.00142157 
-0.219854 -0.124924 0.000653 -0.963389 0.268103 0.00165056 
-0.216944 -0.11533 0.000653 -0.955914 0.293647 0.000587441 
-0.214034 -0.105735 0.000653 -0.958405 0.285412 0.000714594 
-0.211123 -0.096141 0.000653 -0.952198 0.305478 0.000980526 
-0.207724 -0.086749 0.000653 -0.919777 0.392439 0.00118114 
-0.202997 -0.077907 0.000653 -0.8756 0.483035 0.00113779 
-0.198271 -0.069065 0.000653 -0.88505 0.465495 0.0012228 
-0.193545 -0.060222 0.000653 -0.888227 0.459388 0.00397005 
-0.188819 -0.05138 0.000653 -0.839999 0.542584 0.00206891 
-0.18271 -0.043461 0.000653 -0.769242 0.638932 0.00571701 
-0.17635 -0.035711 0.000653 -0.77034 0.637616 0.0046997 
-0.16999 -0.027961 0.000653 -0.774573 0.63245 0.00668851 
-0.163629 -0.02021 0.000653 -0.754027 0.656775 0.00954184 
-0.156681 -0.013048 0.000653 -0.662006 0.749462 0.00736352 
-0.14893 -0.006688 0.000653 -0.623086 0.782096 0.00951176 
-0.14118 -0.000328 0.000653 -0.653704 0.756669 0.011044 
-0.13343 0.006033 0.000653 -0.590196 0.807172 0.0118951 
