ply
format ascii 1.0
element vertex 499
property float x
property float y
property float z
property float nx
property float ny
property float nz
end_header
0.204188 0.981237 -0.0938497 -0.17152 -0.929005 0.322023 
-0.204188 -0.661902 -0.244413 -0.106766 -0.263694 0.953927 
-0.816751 0.584098 -0.0869659 0.754898 -0.548106 0.344293 
-0.816751 0.42586 -0.201729 0.473615 -0.289222 0.825425 
0.204188 0.470789 -0.0362993 0.44552 0.855025 0.151711 
0.816751 -4.09978e-05 -0.250017 0.0467025 0.00272699 0.991027 
-0.561516 0.343477 -0.231487 -0.265411 0.213808 0.932745 
-0.561516 0.20142 0.191076 -0.480857 0.214978 -0.840442 
0.561516 -0.506916 0.254825 0.0278501 -0.0359879 -0.992778 
-0.816751 -0.342966 -0.225096 0.321392 0.191874 0.923015 
-0.204188 0.884754 -0.210676 0.114804 -0.58323 0.799101 
-0.816751 -0.47561 0.180478 0.56638 0.354272 -0.735947 
-0.816751 0.0889649 -0.248493 -0.0156857 -0.0359593 0.996408 
0.561516 -0.0430554 -0.15548 0.646893 -0.0700525 0.74506 
0.561516 -0.246993 0.205198 0.432101 -0.226652 -0.862315 
-0.561516 -0.0367703 -0.155064 -0.644395 -0.0630667 0.750571 
-0.561516 0.810995 0.126325 0.485242 -0.716738 -0.491478 
0.816751 -0.59894 0.0578923 -0.772708 0.581834 -0.228966 
0.561516 0.463758 0.252245 0.0821204 0.0933546 -0.989183 
0.816751 0.0283684 0.249601 0.0370404 -0.0117149 -0.995962 
-0.204188 -0.988944 -0.0728202 0.175513 0.952008 0.246769 
-0.561516 0.578196 0.251307 0.10343 -0.100397 -0.983995 
-0.816751 -0.483781 -0.175839 0.575165 0.370033 0.720043 
0.561516 0.68509 0.225171 -0.286517 -0.359117 -0.882353 
-0.204188 -0.959058 0.136489 0.163703 0.85544 -0.486122 
0.204188 0.820948 -0.241371 -0.067089 -0.331735 0.93473 
0.816751 0.247717 -0.23934 -0.170064 -0.120247 0.974576 
0.204188 0.537278 0.169382 0.315105 0.677985 -0.650709 
-0.561516 0.699068 -0.218446 0.308762 -0.391719 0.861536 
0.204188 0.477984 -0.0682932 0.434417 0.840216 0.273614 
0.204188 0.90142 0.198642 -0.132805 -0.657856 -0.73689 
0.561516 0.733582 0.198978 -0.367467 -0.493187 -0.779033 
0.561516 0.300096 -0.219888 0.33316 0.230202 0.901947 
0.561516 -0.844831 0.0558676 -0.522187 0.817468 -0.210737 
0.204188 -0.735645 0.254698 0.0147781 0.00989083 -0.995347 
-0.561516 0.548435 -0.254215 0.0476731 -0.0361807 0.991623 
-0.561516 0.773361 -0.168424 0.431545 -0.604851 0.660658 
-0.561516 -0.317062 0.225097 -0.328747 -0.229667 -0.907551 
-0.561516 -0.706739 -0.214795 0.317765 0.420056 0.844623 
0.816751 0.562508 -0.117092 -0.714421 -0.511412 0.470141 
-0.816751 -0.055496 -0.248939 -0.0275315 0.0213514 0.996901 
-0.561516 0.0917499 0.162869 -0.606236 0.128682 -0.77306 
0.204188 -0.769122 0.25293 -0.0219676 0.127569 -0.988355 
0.204188 0.998728 -0.0232382 -0.177877 -0.978394 0.0932346 
-0.816751 0.162421 0.246008 0.0422373 -0.0597109 -0.994396 
-0.561516 -0.402536 -0.244244 -0.18021 -0.172943 0.959351 
0.561516 -0.522419 -0.255132 0.00471701 -0.0168559 0.993138 
-0.561516 -0.590396 -0.25033 0.11327 0.122394 0.979023 
-0.816751 0.0546601 0.249343 -0.0394108 -0.0109083 -0.995752 
0.816751 -0.478334 -0.178932 -0.571068 0.353952 0.734165 
0.816751 0.328566 -0.227458 -0.294577 -0.181567 0.933319 
0.204188 0.926626 0.176648 -0.147682 -0.742528 -0.649334 
0.561516 0.198308 -0.190157 0.487934 0.215583 0.833126 
-0.204188 -0.801895 0.24709 0.0472441 0.256588 -0.961684 
-0.816751 0.244437 0.239596 0.153307 -0.114794 -0.977967 
0.816751 0.538695 0.140513 -0.67878 -0.468217 -0.56049 
-0.204188 -0.979709 0.0980212 0.171972 0.917443 -0.35395 
-0.561516 0.832504 0.089256 0.512355 -0.781268 -0.345467 
-0.561516 0.0552632 0.156294 -0.635713 0.0905284 -0.755516 
0.204188 -0.957652 -0.138827 -0.158637 0.844177 0.508326 
0.561516 0.078482 -0.160479 0.619973 0.11465 0.76335 
-0.561516 -0.68425 0.225521 0.275313 0.361418 -0.884432 
0.204188 -0.545364 0.177211 0.296497 -0.643642 -0.6876 
-0.561516 -0.118264 0.168209 -0.583621 -0.152043 -0.783441 
0.204188 -0.630983 0.233734 0.155425 -0.355149 -0.914743 
0.204188 -0.878304 0.214905 -0.114264 0.545321 -0.824962 
0.816751 -0.361787 0.220268 -0.357051 0.209722 -0.905828 
0.561516 0.0651817 0.158259 0.618488 0.095427 -0.768377 
-0.561516 0.846833 -0.047586 0.528443 -0.822406 0.175266 
0.561516 0.804835 -0.134161 -0.481695 -0.700368 0.518603 
0.816751 -0.277078 -0.235806 -0.222595 0.141765 0.961095 
0.561516 0.663263 -0.232419 -0.254811 -0.297303 0.914742 
0.204188 -0.512223 -0.138817 0.359711 -0.743265 0.548494 
0.816751 0.609514 -0.011751 -0.779523 -0.600533 0.051939 
-0.816751 0.393605 -0.211586 0.414973 -0.248132 0.86956 
0.816751 -0.577989 -0.0976742 -0.742378 0.53578 0.391512 
-0.204188 -0.898192 -0.2015 0.130836 0.643236 0.750249 
0.204188 -0.880266 -0.213523 -0.116794 0.581225 0.799961 
0.204188 -0.761657 -0.253648 -0.0114906 0.0989634 0.989212 
-0.561516 0.697307 0.219057 0.310062 -0.391691 -0.857924 
0.204188 0.467933 -0.00356714 0.441414 0.848132 0.0149363 
-0.561516 -0.848223 0.0405022 0.521222 0.829005 -0.155621 
-0.204188 0.639181 -0.237031 -0.151286 0.335166 0.923217 
0.204188 -0.671683 -0.246885 0.0977806 -0.230689 0.962789 
0.204188 0.738399 -0.254768 0.0228798 -0.00793172 0.995978 
-0.561516 0.824102 -0.105633 0.50332 -0.755786 0.404906 
-0.561516 -0.506916 0.254825 -0.038127 -0.0435271 -0.991073 
-0.816751 -0.0907362 0.248649 -0.0165487 0.0304742 -0.996681 
-0.816751 -0.584277 -0.0871925 0.750877 0.549478 0.351743 
-0.561516 0.0337732 -0.155244 -0.640239 0.0661732 0.754992 
0.816751 -0.381345 -0.215249 -0.395304 0.239113 0.881922 
-0.204188 -0.960489 -0.13387 0.16467 0.872892 0.451118 
0.204188 0.851714 -0.229411 -0.0951594 -0.450636 0.882677 
0.204188 -0.510521 0.135674 0.362272 -0.751973 -0.526183 
-0.816751 -0.433368 -0.199289 0.482154 0.293265 0.817112 
0.204188 -0.810386 0.244492 -0.0622414 0.28525 -0.950046 
0.561516 0.699021 -0.218195 -0.315196 -0.391938 0.859586 
-0.816751 -0.407637 0.207621 0.43891 0.257407 -0.854638 
-0.561516 -0.843938 -0.0589053 0.518472 0.815114 0.233607 
-0.816751 0.498571 -0.167108 0.606387 -0.398928 0.677651 
-0.561516 -0.208922 0.193673 -0.48244 -0.216723 -0.836578 
0.816751 -0.045089 -0.249462 0.030618 0.0133171 0.996494 
-0.204188 -0.658627 0.243458 -0.120739 -0.269852 -0.948956 
-0.561516 -0.623148 -0.244244 0.171696 0.198442 0.959736 
0.561516 -0.559913 0.253638 -0.0644709 0.0618033 -0.989276 
0.561516 -0.117172 0.169652 0.588327 -0.142026 -0.781979 
0.204188 -0.703216 0.252579 0.0545318 -0.102793 -0.98778 
-0.561516 0.544492 0.25415 0.0455121 -0.0329806 -0.991875 
-0.561516 0.804778 -0.134731 0.477812 -0.698114 0.523371 
0.561516 0.247899 -0.204722 0.41678 0.234121 0.865471 
0.816751 -0.547621 0.132035 -0.692463 0.481165 -0.525739 
0.816751 -0.510926 0.16009 -0.627405 0.417637 -0.648307 
-0.561516 -0.828979 0.0976742 0.497928 0.772759 -0.379484 
0.204188 0.992947 -0.0574643 -0.175701 -0.962265 0.201368 
0.204188 0.587274 -0.21051 0.233562 0.507542 0.817615 
-0.816751 -0.172153 0.24542 0.0614073 0.0654108 -0.993269 
-0.561516 -0.546379 -0.254341 0.0374337 0.0314798 0.992879 
0.204188 0.472159 0.0443288 0.441514 0.850925 -0.185286 
0.204188 -0.999413 -0.0125737 -0.180466 0.98037 0.048561 
0.204188 -0.569329 -0.198017 0.25528 -0.569611 0.771617 
0.816751 -0.47561 0.180478 -0.561909 0.362637 -0.735569 
0.561516 -0.402536 0.244244 0.189005 -0.174916 -0.958615 
0.816751 0.449623 -0.192274 -0.511099 -0.324721 0.790371 
-0.204188 0.578879 0.205326 -0.242407 0.54685 -0.791999 
-0.816751 0.602633 0.0453969 0.783264 -0.586999 -0.174041 
0.561516 0.496704 0.254399 0.0328597 0.0461658 -0.992344 
-0.561516 0.167428 -0.181257 -0.521366 0.192798 0.817387 
-0.204188 -0.509835 -0.134629 -0.361972 -0.745098 0.529764 
-0.204188 -0.477638 0.0664131 -0.428075 -0.83938 -0.277778 
-0.816751 -0.560033 -0.120317 0.710769 0.500494 0.487134 
-0.816751 -0.610564 2.0232e-08 0.782484 0.599305 0.00611295 
0.561516 -0.331725 -0.228666 0.293695 -0.217982 0.921364 
0.561516 -0.476041 -0.2534 0.0736521 -0.0871159 0.986359 
-0.561516 0.729015 -0.202071 0.360548 -0.476278 0.795443 
-0.204188 0.526155 -0.157201 -0.342767 0.694501 0.614255 
-0.816751 -0.5886 0.0799865 0.763721 0.559491 -0.309334 
0.204188 -0.93216 -0.170598 -0.145001 0.760753 0.627303 
0.561516 0.507545 -0.254368 0.00879171 0.0284517 0.994541 
0.561516 0.60923 0.246815 -0.154523 -0.169503 -0.968056 
0.561516 -0.799648 0.1418 -0.468007 0.686535 -0.548146 
-0.204188 -0.926708 0.176648 0.146122 0.743307 -0.649321 
-0.204188 0.475121 0.0572605 -0.439287 0.845256 -0.234809 
-0.561516 -0.317062 -0.225096 -0.318178 -0.225034 0.911915 
-0.561516 -0.513118 -0.25503 -0.017678 -0.0291467 0.994294 
-0.561516 -0.797587 -0.144036 0.459534 0.68289 0.558219 
0.561516 0.76889 0.172674 -0.423422 -0.595194 -0.673892 
0.561516 0.594916 -0.249111 -0.13501 -0.135737 0.976195 
0.816751 -0.0833429 0.248379 0.00906172 0.0211172 -0.996449 
-0.561516 -0.852329 2.0232e-08 0.520802 0.836411 0.00974136 
0.816751 -0.0804838 -0.249026 0.0102666 0.0233405 0.996853 
-0.561516 0.851362 -0.0140389 0.527883 -0.83174 0.0436142 
0.561516 -0.208158 0.193561 0.486719 -0.212188 -0.83559 
0.204188 0.673239 0.247278 0.0917066 0.213171 -0.968495 
0.204188 0.925561 -0.17726 -0.145766 -0.747928 0.640905 
0.561516 -0.685366 0.225097 -0.285224 0.358465 -0.883581 
0.561516 0.85156 0.0109404 -0.529082 -0.830198 -0.0464238 
-0.204188 0.998552 0.0263729 0.176614 -0.978371 -0.0983302 
-0.561516 -0.282764 -0.215654 -0.371882 -0.225656 0.890366 
-0.816751 0.0940717 0.248523 -0.0153399 -0.0278498 -0.997341 
0.816751 0.263869 0.237391 -0.191278 -0.117165 -0.970534 
-0.204188 0.731232 -0.254949 -0.0295207 0.0356598 0.994895 
0.816751 0.585389 -0.0845164 -0.753472 -0.557458 0.33446 
0.204188 0.707798 0.253478 0.0449811 0.0899535 -0.995311 
-0.816751 0.393857 0.210646 0.414288 -0.25189 -0.867827 
-0.561516 0.290446 0.217084 -0.347478 0.227667 -0.899655 
-0.561516 -0.828979 -0.0976742 0.501024 0.772944 0.377597 
-0.204188 -0.70788 0.253478 -0.0576759 -0.102959 -0.987026 
0.561516 -0.840409 -0.0710808 -0.516582 0.807591 0.271444 
-0.561516 -0.737099 -0.197299 0.367406 0.507373 0.773251 
-0.816751 0.51868 0.153917 0.647855 -0.432126 -0.615325 
-0.816751 -0.208025 0.242802 0.106465 0.0806664 -0.986273 
0.204188 -0.90876 -0.193131 -0.132534 0.679553 0.718616 
0.561516 -0.00925837 -0.153241 0.659543 -0.00881429 0.737762 
-0.561516 -0.0837426 0.161919 -0.611576 -0.10955 -0.768102 
0.561516 0.843962 -0.0584156 -0.528474 -0.813058 0.224572 
0.561516 -0.626327 0.2434 -0.183206 0.206897 -0.954768 
-0.561516 0.746925 0.190078 0.391655 -0.528759 -0.744741 
-0.204188 -0.541809 0.174255 -0.308356 -0.656169 -0.6754 
-0.204188 -0.469551 0.0294173 -0.441117 -0.861189 -0.125845 
0.816751 -0.237558 0.239701 -0.160586 0.0978203 -0.976541 
-0.816751 -0.226337 -0.240806 0.14117 0.103795 0.980854 
0.561516 0.472265 -0.252738 0.0625301 0.0799292 0.990286 
0.204188 -0.983588 0.087864 -0.176213 0.933718 -0.303644 
0.204188 -0.495329 -0.110217 0.390531 -0.788612 0.445213 
0.561516 -0.826019 -0.102706 -0.499007 0.766691 0.393723 
-0.816751 -0.439555 0.197298 0.498218 0.300856 -0.809367 
-0.561516 0.486618 0.253803 -0.0419685 0.0598758 -0.992099 
-0.204188 0.484157 -0.0857027 -0.425514 0.820307 0.339365 
-0.816751 -0.128328 0.247266 0.0139041 0.0443634 -0.995572 
-0.816751 -0.191453 -0.244244 0.0960089 0.0787214 0.988915 
-0.816751 -0.602342 -0.0497942 0.777704 0.58612 0.201918 
-0.561516 -0.772728 -0.169343 0.42332 0.611058 0.661224 
0.816751 -0.191453 0.244244 -0.0977761 0.0711607 -0.988774 
-0.816751 -0.261222 -0.237369 0.188885 0.121688 0.970083 
0.561516 0.823423 0.106807 -0.501922 -0.753667 -0.411986 
0.816751 -0.244485 -0.239628 -0.173392 0.118214 0.974953 
-0.816751 -0.508291 0.161919 0.627046 0.409885 -0.654538 
0.816751 0.214911 -0.241905 -0.123472 -0.101789 0.983437 
-0.816751 -0.125781 -0.247269 0.0249111 0.0500611 0.996596 
0.204188 0.999331 0.0125733 -0.180028 -0.980973 -0.0361901 
0.204188 -0.474742 0.055481 0.431227 -0.854213 -0.214783 
0.816751 -0.342966 -0.225096 -0.32844 0.200998 0.918373 
-0.816751 0.472584 0.18079 0.560543 -0.362693 -0.733799 
0.204188 0.703134 -0.252579 0.0637424 0.116245 0.984863 
-0.561516 -0.623148 0.244244 0.16608 0.203099 -0.957723 
-0.816751 0.263869 -0.237391 0.189696 -0.122607 0.969899 
0.816751 -0.0377213 0.249297 0.0341065 0.00526904 -0.995801 
-0.561516 -0.361052 -0.235806 -0.244727 -0.206292 0.938033 
0.204188 0.495817 0.111336 0.394784 0.7914 -0.437731 
0.561516 -0.0837426 0.161919 0.616574 -0.113929 -0.766711 
-0.204188 -0.489257 0.0982847 -0.406382 -0.807741 -0.398401 
-0.816751 0.0518203 -0.249354 -0.037282 -0.0170202 0.996189 
-0.204188 0.961788 -0.131813 0.162338 -0.877282 0.444637 
-0.561516 -0.170375 0.181889 -0.528297 -0.194717 -0.812778 
0.561516 -0.771798 0.170168 -0.42786 0.605524 -0.663585 
-0.816751 -0.0185642 -0.249683 -0.0442157 0.00770774 0.995463 
-0.204188 -0.999103 -0.0180134 0.178361 0.978632 0.0797014 
0.204188 0.509753 -0.134629 0.372935 0.750991 0.514867 
0.561516 -0.590396 -0.25033 -0.109559 0.122876 0.979903 
-0.561516 -0.280254 0.214776 -0.382614 -0.235108 -0.884305 
0.204188 0.561046 0.191684 0.269784 0.599015 -0.743122 
0.561516 0.75623 -0.18258 -0.41015 -0.555929 0.717308 
0.204188 0.965845 -0.125338 -0.166371 -0.884139 0.433594 
-0.816751 -0.0201517 0.249769 -0.0500902 0.00693443 -0.995516 
0.816751 -0.416327 -0.204863 -0.458375 0.272152 0.839916 
-0.561516 0.232546 0.200262 -0.435861 0.22556 -0.861083 
-0.561516 0.420522 -0.246944 -0.1404 0.143861 0.972179 
0.816751 -0.545776 -0.134502 -0.689452 0.471711 0.541939 
0.561516 -0.440141 0.249862 0.130831 -0.130094 -0.977298 
0.561516 0.727565 -0.202499 -0.36325 -0.472063 0.798078 
0.204188 -0.925644 0.17726 -0.146071 0.745835 -0.64392 
0.561516 -0.170286 0.182347 0.534561 -0.188069 -0.811277 
-0.561516 0.323771 0.226279 -0.298322 0.219433 -0.922173 
-0.204188 0.910921 -0.191071 0.133294 -0.689909 0.707038 
0.816751 -0.607819 -0.0277701 -0.78674 0.597698 0.114399 
0.816751 0.563669 0.115254 -0.721357 -0.512828 -0.4542 
-0.816751 0.220837 -0.24168 0.127793 -0.0974203 0.982778 
0.204188 0.834392 0.236537 -0.0817967 -0.378922 -0.916428 
-0.204188 0.995207 -0.0482812 0.175126 -0.970666 0.157612 
0.816751 0.605353 0.0373582 -0.782728 -0.596026 -0.142568 
0.204188 0.620169 0.228899 0.170132 0.402663 -0.893518 
-0.204188 0.55875 -0.189911 -0.283333 0.59639 0.738558 
-0.204188 0.978967 0.0998355 0.171916 -0.91977 -0.349259 
-0.204188 -0.475572 -0.058684 -0.427758 -0.840516 0.243354 
-0.816751 -0.308454 -0.230706 0.262533 0.160056 0.94662 
0.816751 0.534281 -0.143824 -0.664572 -0.454872 0.583335 
0.561516 -0.0461647 0.156435 0.642014 -0.0663842 -0.756341 
0.561516 -0.706145 -0.215081 -0.315491 0.416917 0.846014 
-0.561516 0.431216 0.248434 -0.12677 0.133781 -0.977128 
-0.204188 -0.617535 0.227738 -0.18122 -0.411552 -0.886272 
-0.561516 -0.475638 -0.253393 -0.0723225 -0.0835442 0.989364 
-0.204188 0.820948 0.241371 0.0694877 -0.337425 -0.930651 
-0.816751 0.195227 0.243443 0.0813319 -0.0838129 -0.990305 
-0.204188 0.999205 -0.0153474 0.175514 -0.980868 0.0560791 
0.816751 -0.609019 0.0187628 -0.780359 0.599282 -0.0697939 
0.816751 0.132894 -0.247095 -0.0266327 -0.0452844 0.995444 
-0.561516 0.375158 -0.238596 -0.212353 0.188744 0.951282 
0.561516 -0.473148 0.253157 0.0807325 -0.0860802 -0.988676 
0.204188 0.995207 0.0482812 -0.17965 -0.968952 -0.160792 
0.816751 0.145873 0.24648 -0.0400569 -0.0513199 -0.995341 
-0.204188 0.980802 -0.0955506 0.170175 -0.932029 0.314972 
-0.204188 0.992403 0.0595119 0.175004 -0.959693 -0.209931 
0.204188 -0.846141 0.231722 -0.0938304 0.431361 -0.891886 
0.816751 0.398545 -0.209303 -0.416785 -0.25569 0.864771 
-0.816751 0.590097 0.0756427 0.767094 -0.561785 -0.295448 
0.816751 0.584098 0.0869659 -0.754161 -0.552606 -0.340463 
-0.816751 0.609514 0.011751 0.784183 -0.596693 -0.0445135 
0.561516 -0.676256 -0.228326 -0.264709 0.337079 0.896794 
-0.816751 0.57238 0.103763 0.738392 -0.524894 -0.412918 
0.816751 -0.11593 0.247723 -0.0175855 0.0358089 -0.99643 
0.204188 -0.849662 -0.230287 -0.0940833 0.455976 0.880886 
-0.561516 0.394944 0.24203 -0.182215 0.171909 -0.961159 
0.561516 0.135213 0.172781 0.556078 0.164939 -0.804392 
0.204188 0.480393 0.0762662 0.425147 0.831536 -0.312538 
-0.561516 0.628426 -0.242546 0.187554 -0.210614 0.953149 
-0.204188 0.763682 -0.253414 0.00880782 -0.0891133 0.989961 
0.816751 0.438648 0.197614 -0.494772 -0.304412 -0.808587 
-0.816751 -0.374334 0.217048 0.37583 0.220094 -0.894308 
0.561516 -0.851076 0.02189 -0.52277 0.83103 -0.0773367 
0.561516 -0.300177 -0.219888 0.344249 -0.227556 0.900955 
-0.561516 0.6602 -0.233931 0.243044 -0.290001 0.920648 
-0.204188 0.528779 0.159768 -0.330538 0.693498 -0.619292 
-0.204188 0.621955 0.229448 -0.171996 0.39445 -0.893013 
-0.204188 0.942982 -0.1585 0.152403 -0.808005 0.564711 
0.816751 0.59995 -0.0532879 -0.774572 -0.5855 0.210797 
0.816751 -0.00513446 0.249953 0.0456 -0.00477674 -0.992754 
-0.561516 0.111195 -0.167066 -0.581375 0.145267 0.787174 
0.204188 0.670731 -0.246618 0.107379 0.229952 0.961318 
0.204188 -0.543937 -0.176212 0.300524 -0.650254 0.685699 
0.561516 0.244952 0.204341 0.418685 0.230076 -0.870353 
0.561516 0.629723 -0.241867 -0.197034 -0.21474 0.950972 
-0.561516 -0.242443 -0.203827 -0.432063 -0.219484 0.863096 
0.204188 0.801813 0.24709 -0.051001 -0.244462 -0.964856 
-0.561516 -0.248322 0.205244 -0.428668 -0.230145 -0.86431 
-0.204188 0.659006 0.243717 -0.120318 0.281918 -0.946532 
0.561516 0.341528 -0.231073 0.268422 0.209952 0.931534 
0.561516 0.147488 -0.175887 0.554325 0.182799 0.800237 
0.816751 -0.150258 0.246141 -0.0511863 0.0525831 -0.99414 
-0.561516 -0.0215482 0.154055 -0.648559 -0.0369749 -0.746963 
-0.204188 -0.510681 0.136361 -0.36548 -0.747733 -0.53435 
-0.204188 -0.976479 -0.104961 0.172332 0.920976 0.346481 
0.816751 -0.447875 -0.193418 -0.515751 0.310373 0.793403 
0.816751 -0.204711 -0.24309 -0.114541 0.0880944 0.986272 
0.816751 0.172263 -0.245239 -0.0687516 -0.0707458 0.992264 
-0.204188 0.508037 0.132017 -0.37177 0.753125 -0.51399 
0.816751 0.302523 0.231734 -0.252904 -0.145129 -0.950772 
-0.204188 -0.799742 -0.247613 0.0537477 0.240438 0.96489 
0.816751 -0.168936 -0.245616 -0.0691634 0.063082 0.992844 
0.204188 0.516145 0.14407 0.355636 0.738788 -0.555862 
0.816751 0.0968056 -0.248423 0.00337297 -0.0275284 0.996686 
-0.204188 -0.534942 -0.167113 -0.316034 -0.677446 0.65084 
-0.561516 -0.799648 0.1418 0.457801 0.687757 -0.552761 
0.816751 -0.396248 0.211225 -0.41747 0.249946 -0.867002 
0.816751 0.360875 0.220444 -0.354556 -0.205245 -0.906296 
0.816751 0.113274 0.247755 -0.0105802 -0.0390908 -0.99624 
0.561516 0.529941 0.254881 -0.0156502 -0.00521531 -0.994498 
-0.816751 0.0149672 -0.249742 -0.0523596 -0.00274812 0.992001 
0.204188 -0.468138 -0.0102875 0.433368 -0.853922 0.0495656 
-0.816751 -0.33835 0.226032 0.312327 0.1827 -0.927234 
-0.816751 -0.532447 -0.145154 0.662189 0.450483 0.589904 
-0.204188 0.84958 -0.230287 0.0882133 -0.428873 0.893665 
-0.561516 -0.714862 0.210562 0.327661 0.44573 -0.82494 
-0.204188 0.684705 -0.250027 -0.0861341 0.183868 0.974972 
-0.204188 -0.76288 -0.253425 0.0186252 0.103693 0.989702 
-0.816751 -0.283206 0.234829 0.220375 0.130835 -0.961421 
-0.816751 0.564775 -0.113902 0.724514 -0.511783 0.452711 
-0.561516 -0.437007 0.249394 -0.143658 -0.137689 -0.97482 
-0.561516 0.50265 -0.254686 -0.0216385 0.0392137 0.994449 
0.561516 0.823482 -0.106608 -0.505067 -0.753653 0.4106 
-0.561516 -0.676238 -0.228309 0.266085 0.334881 0.897512 
-0.561516 0.016225 0.153708 -0.653548 0.0338793 -0.740813 
-0.561516 0.645344 0.238331 0.220763 -0.25516 -0.9348 
0.204188 -0.596806 -0.216732 0.210033 -0.485032 0.842387 
-0.561516 0.583578 -0.251071 0.10834 -0.10794 0.982681 
-0.561516 -0.351626 0.233511 -0.274673 -0.214869 -0.927518 
0.561516 0.643283 0.238726 -0.214344 -0.25114 -0.937181 
0.204188 0.886923 -0.20904 -0.121365 -0.594475 0.78571 
0.561516 0.276236 0.21355 0.374995 0.238227 -0.8888 
-0.204188 0.473772 -0.0532756 -0.443959 0.846314 0.214094 
0.816751 0.360569 -0.220181 -0.349808 -0.214711 0.90743 
0.204188 -0.993847 0.0543929 -0.180878 0.965089 -0.182363 
-0.561516 0.843962 0.0584165 0.525156 -0.814664 -0.228968 
-0.816751 -0.545776 0.134503 0.692741 0.475727 -0.536167 
0.204188 0.545282 -0.17721 0.305873 0.641451 0.683264 
-0.816751 0.280057 0.234587 0.212031 -0.137155 -0.962525 
-0.561516 -0.443274 -0.25033 -0.120356 -0.126237 0.978594 
-0.816751 0.122884 -0.247463 0.0119553 -0.0530775 0.996107 
-0.816751 0.302523 -0.231734 0.252305 -0.152524 0.950303 
0.204188 -0.472898 -0.0479738 0.432874 -0.851716 0.207778 
-0.204188 0.468258 -0.0130203 -0.446384 0.847225 0.0498465 
-0.816751 0.128246 0.247266 0.010136 -0.0429902 -0.995997 
-0.204188 0.586922 -0.210413 -0.234301 0.502367 0.82077 
0.561516 0.428942 0.248103 0.133811 0.137073 -0.975724 
-0.561516 -0.163974 -0.180478 -0.538832 -0.184428 0.812746 
-0.204188 -0.582802 0.207706 -0.237487 -0.526863 -0.807005 
0.204188 -0.967481 0.122901 -0.169746 0.883926 -0.432558 
0.561516 0.205497 0.192558 0.471495 0.207034 -0.847787 
0.204188 -0.639263 -0.237031 0.142789 -0.341886 0.921688 
-0.816751 0.545694 0.134504 0.692595 -0.476864 -0.536955 
0.561516 -0.848995 -0.0360291 -0.526448 0.830827 0.143361 
-0.561516 0.248058 -0.20528 -0.410989 0.230198 0.870641 
-0.561516 0.0786384 -0.160682 -0.610159 0.110701 0.772325 
0.204188 0.591123 0.213122 0.217419 0.502316 -0.827767 
-0.204188 -0.901502 0.198642 0.130942 0.655228 -0.737496 
-0.204188 0.925562 0.17726 0.146111 -0.752273 -0.634547 
0.816751 -0.439554 0.197298 -0.495052 0.311205 -0.806025 
-0.204188 0.960407 0.13387 0.164213 -0.868972 -0.461159 
0.561516 -0.556526 -0.254005 -0.0505158 0.0485622 0.991618 
0.204188 -0.670812 0.246618 0.0979108 -0.216903 -0.964654 
0.204188 0.772161 -0.252683 -0.0152792 -0.13243 0.987116 
-0.561516 -0.556526 0.254005 0.044872 0.0506102 -0.990476 
-0.816751 0.361039 0.220047 0.354642 -0.212536 -0.906153 
0.561516 0.375152 -0.238418 0.212655 0.185683 0.949931 
0.561516 -0.43309 -0.248809 0.133558 -0.137962 0.973086 
-0.816751 -0.0570213 0.249315 -0.0363046 0.01999 -0.99659 
0.561516 -0.170374 -0.181889 0.532612 -0.195326 0.810844 
-0.561516 -0.131882 -0.173055 -0.572134 -0.163924 0.79129 
-0.816751 0.465422 -0.185193 0.544916 -0.349805 0.756955 
0.561516 0.804778 0.134731 -0.476437 -0.699598 -0.522301 
0.204188 -0.987158 -0.0781232 -0.174183 0.944732 0.27435 
-0.816751 -0.393154 -0.212219 0.409009 0.242653 0.872483 
0.561516 -0.313944 0.224238 0.329374 -0.230156 -0.907014 
0.816751 -0.277078 0.235806 -0.216782 0.121701 -0.963743 
0.561516 0.167428 0.181257 0.51956 0.184075 -0.82277 
0.561516 0.307823 0.222363 0.325434 0.236402 -0.90657 
0.816751 -0.309327 -0.230662 -0.273494 0.170161 0.942463 
-0.204188 -0.838871 0.234803 0.0853049 0.414764 -0.901554 
0.561516 -0.623148 -0.244244 -0.169295 0.2016 0.957851 
0.816751 -0.327278 0.227646 -0.297148 0.169153 -0.934056 
0.561516 0.577104 0.251774 -0.0973049 -0.098664 -0.984208 
0.561516 -0.714584 0.210727 -0.335559 0.440085 -0.826845 
-0.204188 -0.468015 -0.00356714 -0.433354 -0.848815 0.010111 
0.561516 -0.137854 -0.173467 0.570882 -0.170629 0.791913 
0.561516 0.433904 -0.248748 0.120403 0.127021 0.978221 
0.816751 0.0652215 0.249213 0.0216047 -0.0208252 -0.99712 
0.204188 0.492912 -0.105434 0.404995 0.798212 0.409725 
0.816751 -0.129695 -0.247216 -0.0284327 0.0417138 0.995224 
0.561516 0.0259845 -0.154355 0.649543 0.0514479 0.746195 
-0.561516 0.790159 0.151667 0.456365 -0.65356 -0.595358 
0.204188 -0.995741 -0.0452046 -0.178188 0.968131 0.169585 
-0.204188 0.738399 0.254768 -0.0198709 0.00110255 -0.993343 
0.561516 -0.830144 0.0950538 -0.507107 0.774982 -0.36207 
0.816751 0.393605 0.211586 -0.411964 -0.243561 -0.872096 
-0.204188 -0.87048 -0.219431 0.113281 0.53932 0.829197 
-0.204188 -0.768398 0.252901 0.0137417 0.134356 -0.985358 
-0.561516 0.210094 -0.193915 -0.464832 0.215644 0.847498 
0.816751 0.214783 0.242151 -0.119478 -0.0863028 -0.984841 
0.816751 0.283291 -0.234111 -0.224545 -0.150462 0.958701 
0.204188 -0.998986 0.0201033 -0.181655 0.980148 -0.0644646 
-0.816751 0.359086 -0.220898 0.34946 -0.207394 0.907543 
-0.816751 0.188403 -0.244206 0.08441 -0.0820116 0.989786 
-0.816751 0.155725 -0.246059 0.0448693 -0.066712 0.994156 
0.204188 -0.469035 0.0235361 0.440181 -0.866982 -0.092352 
0.204188 0.960734 0.133566 -0.166089 -0.863126 -0.471094 
-0.204188 -0.999035 0.0208948 0.179219 0.980042 -0.0661865 
-0.204188 0.488553 0.0969044 -0.412178 0.809318 -0.385466 
-0.561516 0.167036 0.181032 -0.52754 0.197364 -0.816413 
-0.816751 -0.602342 0.0497932 0.781521 0.586086 -0.191106 
-0.816751 0.436521 0.198426 0.493031 -0.309677 -0.808841 
-0.204188 -0.630983 -0.233734 -0.15255 -0.369666 0.909965 
-0.561516 -0.590396 0.25033 0.106975 0.126144 -0.980462 
0.816751 -0.579561 0.0950538 -0.74409 0.542566 -0.377286 
0.561516 0.0212098 0.154038 0.64282 0.0464242 -0.752915 
-0.816751 -0.569011 0.108995 0.732289 0.520214 -0.428381 
-0.561516 -0.074349 -0.160548 -0.62124 -0.0998901 0.764261 
0.561516 0.393328 0.242296 0.187899 0.176329 -0.960294 
-0.816751 0.605352 -0.0373582 0.787004 -0.589706 0.147535 
-0.561516 -0.402536 0.244244 -0.195181 -0.17514 -0.955952 
0.204188 -0.811747 -0.244189 -0.0616823 0.303068 0.945477 
0.816751 0.0482247 -0.249422 0.0310708 -0.00948532 0.995808 
-0.561516 0.610352 0.246252 0.159933 -0.17161 -0.96647 
-0.204188 -0.568661 -0.197318 -0.253357 -0.568812 0.769232 
0.204188 -0.48173 -0.0794116 0.417242 -0.828807 0.33305 
-0.204188 -0.86884 0.220642 0.107641 0.526886 -0.839994 
0.561516 -0.267153 -0.211224 0.397717 -0.229783 0.878105 
0.561516 0.357599 0.234774 0.245241 0.208244 -0.93907 
0.204188 -0.711228 -0.253688 0.0482571 -0.0964524 0.98911 
-0.561516 -0.205002 -0.192627 -0.486504 -0.204399 0.838298 
0.816751 0.178457 0.244979 -0.0733592 -0.0634796 -0.991666 
0.561516 0.8509 -0.0235489 -0.534452 -0.832884 0.0928094 
-0.204188 0.772161 0.252683 0.0179439 -0.128418 -0.986437 
0.561516 -0.279646 0.214795 0.384402 -0.232057 -0.884856 
-0.816751 -0.158617 -0.245757 0.05774 0.0624729 0.992867 
-0.561516 -0.76715 0.174292 0.411066 0.595976 -0.679725 
-0.204188 -0.992604 0.058963 0.177443 0.963367 -0.189553 
-0.561516 -0.00133799 -0.154437 -0.651027 -0.00744061 0.743328 
-0.204188 0.553388 0.185064 -0.284623 0.619578 -0.716418 
-0.561516 0.462241 -0.252101 -0.0786592 0.0924824 0.987631 
0.816751 -0.598515 -0.0589053 -0.773558 0.577505 0.238362 
-0.204188 -0.727137 -0.254488 -0.0229188 -0.0361077 0.993158 
0.561516 -0.0128961 0.154642 0.651381 -0.0162769 -0.743517 
0.561516 -0.375234 -0.238418 0.220155 -0.190558 0.9463 
-0.816751 -0.2478 0.23934 0.165781 0.104872 -0.976608 
0.561516 0.78254 -0.15935 -0.449799 -0.633252 0.622825 
-0.561516 -0.474144 0.253211 -0.0886101 -0.0917476 -0.985403 
0.561516 -0.217817 -0.196393 0.469661 -0.22147 0.842507 
-0.816751 -0.0924277 -0.248196 -0.00410634 0.0338669 0.995699 
0.204188 -0.973834 -0.110374 -0.168014 0.905539 0.384307 
-0.561516 0.310636 -0.223139 -0.314631 0.228718 0.911715 
-0.204188 0.851714 0.229411 0.0943977 -0.454541 -0.880713 
0.204188 0.863964 0.223053 -0.105056 -0.498985 -0.854839 
-0.561516 0.8509 0.023549 0.531585 -0.834221 -0.101646 
0.816751 0.473158 0.181106 -0.560708 -0.357759 -0.737973 
0.561516 -0.804986 -0.13464 -0.471241 0.706468 0.518113 
-0.204188 -0.601627 -0.219323 -0.197504 -0.464382 0.855193 
0.204188 0.947302 -0.152552 -0.158102 -0.829413 0.531071 
-0.204188 0.696846 0.251764 -0.066538 0.145206 -0.97767 
0.561516 0.102188 0.164922 0.588951 0.139655 -0.785016 
0.204188 0.620166 -0.228591 0.181199 0.398087 0.890304 
0.561516 -0.781095 -0.161919 -0.436074 0.63488 0.630234 
0.561516 0.844581 0.0564482 -0.526818 -0.813816 -0.218689 
-0.816751 0.538696 -0.140514 0.679281 -0.466829 0.560471 
0.816751 -0.508291 -0.161919 -0.625483 0.403178 0.659308 
-0.816751 0.0160476 0.249819 -0.0562311 0.000420614 -0.991036 
-0.561516 0.131199 0.1716 -0.567274 0.165055 -0.794002 
0.561516 0.561475 -0.253504 -0.0769716 -0.0665568 0.989345 
-0.816751 0.318865 0.228883 0.278544 -0.166787 -0.940837 
0.204188 -0.591553 0.213103 0.217089 -0.489275 -0.830185 
-0.204188 -0.693784 -0.251356 -0.0633909 -0.153473 0.980743 
0.204188 0.741348 0.254711 0.00483784 -0.0366748 -0.995686 
-0.561516 0.356812 0.234412 -0.245482 0.202428 -0.942016 
-0.204188 -0.489724 -0.0990371 -0.402158 -0.805828 0.397922 
-0.204188 0.813306 -0.243705 0.05796 -0.282448 0.95228 
0.561516 -0.734598 -0.198791 -0.363191 0.497825 0.779636 
0.204188 -0.949422 0.149981 -0.160326 0.831148 -0.528785 
0.204188 -0.492994 0.105434 0.395518 -0.801988 -0.410552 
0.816751 0.481194 -0.176483 -0.569199 -0.36731 0.725654 
0.204188 0.979627 0.0980212 -0.1744 -0.920003 -0.345198 
0.561516 -0.742228 0.193561 -0.38063 0.518127 -0.760369 
-0.204188 0.90039 0.199596 0.130721 -0.654428 -0.738772 
0.561516 -0.105513 -0.165448 0.601236 -0.142748 0.773813 
-0.204188 -0.937197 -0.165408 0.152517 0.784149 0.596397 
0.561516 -0.361052 0.235806 0.254492 -0.209685 -0.935967 
0.816751 0.508382 0.161155 -0.627008 -0.417904 -0.649574 
0.561516 0.111652 -0.166456 0.592451 0.150316 0.781164 
0.561516 -0.593671 0.249721 -0.125345 0.132327 -0.978029 
-0.204188 0.468494 0.0203453 -0.452441 0.861251 -0.0901354 
-0.204188 0.499801 -0.119167 -0.393731 0.775049 0.46785 
-0.204188 -0.839074 -0.234611 0.0903867 0.410257 0.900604 
