ply
format ascii 1.0
element vertex 499
property float x
property float y
property float z
property float nx
property float ny
property float nz
end_header
0.204188 0.981237 -0.0938497 -0.173254 -0.910394 0.366823 
-0.204188 -0.661902 -0.244413 -0.149231 -0.265098 0.947129 
-0.816751 0.584098 -0.0869659 0.756199 -0.551727 0.337124 
-0.816751 0.42586 -0.201729 0.48011 -0.282307 0.82344 
0.204188 0.470789 -0.0362993 0.479007 0.843009 0.13259 
0.816751 -4.09978e-05 -0.250017 0.0395865 0.00225511 0.990839 
-0.561516 0.343477 -0.231487 -0.266291 0.223119 0.929913 
-0.561516 0.20142 0.191076 -0.493623 0.243546 -0.824988 
0.561516 -0.506916 0.254825 0.0260196 -0.0247168 -0.992835 
-0.816751 -0.342966 -0.225096 0.33492 0.181511 0.919335 
-0.204188 0.884754 -0.210676 0.0962176 -0.548789 0.826731 
-0.816751 -0.47561 0.180478 0.570303 0.379229 -0.721184 
-0.816751 0.0889649 -0.248493 -0.00681087 -0.0261624 0.996659 
0.561516 -0.0430554 -0.15548 0.667483 -0.0770142 0.726095 
0.561516 -0.246993 0.205198 0.439271 -0.253303 -0.850707 
-0.561516 -0.0367703 -0.155064 -0.670082 -0.0616611 0.727544 
-0.561516 0.810995 0.126325 0.488108 -0.705492 -0.504731 
0.816751 -0.59894 0.0578923 -0.774003 0.583175 -0.225066 
0.561516 0.463758 0.252245 0.0829264 0.0915185 -0.987288 
0.816751 0.0283684 0.249601 0.0301652 -0.0124898 -0.995853 
-0.204188 -0.988944 -0.0728202 0.184067 0.937961 0.285705 
-0.561516 0.578196 0.251307 0.104664 -0.120608 -0.981353 
-0.816751 -0.483781 -0.175839 0.587366 0.380459 0.705215 
0.561516 0.68509 0.225171 -0.286383 -0.360939 -0.879777 
-0.204188 -0.959058 0.136489 0.161294 0.828059 -0.530744 
0.204188 0.820948 -0.241371 -0.0304162 -0.310025 0.945382 
0.816751 0.247717 -0.23934 -0.174449 -0.108158 0.97434 
0.204188 0.537278 0.169382 0.351648 0.674307 -0.634763 
-0.561516 0.699068 -0.218446 0.308473 -0.40773 0.85396 
0.204188 0.477984 -0.0682932 0.468743 0.829039 0.251132 
0.204188 0.90142 0.198642 -0.116801 -0.610662 -0.779596 
0.561516 0.733582 0.198978 -0.367605 -0.505917 -0.77159 
0.561516 0.300096 -0.219888 0.339112 0.256167 0.892686 
0.561516 -0.844831 0.0558676 -0.529925 0.809808 -0.218029 
0.204188 -0.735645 0.254698 0.0548295 -0.00753181 -0.993726 
-0.561516 0.548435 -0.254215 0.051566 -0.0501591 0.990315 
-0.561516 0.773361 -0.168424 0.430112 -0.60518 0.663077 
-0.561516 -0.317062 0.225097 -0.325483 -0.235903 -0.906646 
-0.561516 -0.706739 -0.214795 0.317809 0.424073 0.842734 
0.816751 0.562508 -0.117092 -0.720977 -0.520218 0.449018 
-0.816751 -0.055496 -0.248939 -0.0168619 0.0220379 0.997031 
-0.561516 0.0917499 0.162869 -0.625821 0.15534 -0.752079 
0.204188 -0.769122 0.25293 0.022124 0.117723 -0.989222 
0.204188 0.998728 -0.0232382 -0.189494 -0.975205 0.0945806 
-0.816751 0.162421 0.246008 0.0579088 -0.0569211 -0.993093 
-0.561516 -0.402536 -0.244244 -0.181364 -0.171808 0.95839 
0.561516 -0.522419 -0.255132 -0.00082889 -0.00117851 0.992809 
-0.561516 -0.590396 -0.25033 0.113076 0.138463 0.976528 
-0.816751 0.0546601 0.249343 -0.0294778 -0.0147266 -0.995785 
0.816751 -0.478334 -0.178932 -0.572861 0.377426 0.721363 
0.816751 0.328566 -0.227458 -0.301711 -0.167112 0.932626 
0.204188 0.926626 0.176648 -0.135312 -0.69576 -0.700906 
0.561516 0.198308 -0.190157 0.501664 0.235939 0.819377 
-0.204188 -0.801895 0.24709 0.0146159 0.232944 -0.968749 
-0.816751 0.244437 0.239596 0.173285 -0.108742 -0.974689 
0.816751 0.538695 0.140513 -0.684532 -0.45906 -0.55858 
-0.204188 -0.979709 0.0980212 0.175892 0.900427 -0.39194 
-0.561516 0.832504 0.089256 0.516974 -0.773411 -0.353906 
-0.561516 0.0552632 0.156294 -0.655774 0.0963723 -0.736771 
0.204188 -0.957652 -0.138827 -0.153948 0.816046 0.552457 
0.561516 0.078482 -0.160479 0.643003 0.112325 0.743978 
-0.561516 -0.68425 0.225521 0.279795 0.367967 -0.879724 
0.204188 -0.545364 0.177211 0.337239 -0.645345 -0.666559 
-0.561516 -0.118264 0.168209 -0.601413 -0.164793 -0.767062 
0.204188 -0.630983 0.233734 0.19504 -0.375092 -0.897787 
0.204188 -0.878304 0.214905 -0.093476 0.516411 -0.846338 
0.816751 -0.361787 0.220268 -0.367439 0.214672 -0.900616 
0.561516 0.0651817 0.158259 0.649147 0.107643 -0.741686 
-0.561516 0.846833 -0.047586 0.532996 -0.817529 0.178472 
0.561516 0.804835 -0.134161 -0.482039 -0.68802 0.535168 
0.816751 -0.277078 -0.235806 -0.22298 0.136858 0.961533 
0.561516 0.663263 -0.232419 -0.253909 -0.300785 0.913632 
0.204188 -0.512223 -0.138817 0.401474 -0.747941 0.509819 
0.816751 0.609514 -0.011751 -0.782837 -0.596432 0.0530339 
-0.816751 0.393605 -0.211586 0.420145 -0.247272 0.867428 
0.816751 -0.577989 -0.0976742 -0.742975 0.548793 0.372219 
-0.204188 -0.898192 -0.2015 0.112996 0.592005 0.794054 
0.204188 -0.880266 -0.213523 -0.0996566 0.530901 0.836613 
0.204188 -0.761657 -0.253648 0.0305204 0.09507 0.990159 
-0.561516 0.697307 0.219057 0.310315 -0.400424 -0.853593 
0.204188 0.467933 -0.00356714 0.473932 0.834983 0.013034 
-0.561516 -0.848223 0.0405022 0.529774 0.822715 -0.161186 
-0.204188 0.639181 -0.237031 -0.18542 0.351121 0.909519 
0.204188 -0.671683 -0.246885 0.136332 -0.231734 0.957646 
0.204188 0.738399 -0.254768 0.0604482 0.00112758 0.994472 
-0.561516 0.824102 -0.105633 0.504763 -0.746243 0.420511 
-0.561516 -0.506916 0.254825 -0.0341029 -0.026166 -0.991052 
-0.816751 -0.0907362 0.248649 -0.00351186 0.0277012 -0.996685 
-0.816751 -0.584277 -0.0871925 0.754402 0.556032 0.336328 
-0.561516 0.0337732 -0.155244 -0.66628 0.0494574 0.734267 
0.816751 -0.381345 -0.215249 -0.399958 0.24941 0.876873 
-0.204188 -0.960489 -0.13387 0.163821 0.834579 0.516837 
0.204188 0.851714 -0.229411 -0.0622025 -0.420086 0.900719 
0.204188 -0.510521 0.135674 0.4017 -0.747821 -0.502824 
-0.816751 -0.433368 -0.199289 0.497229 0.300388 0.80483 
0.204188 -0.810386 0.244492 -0.0219909 0.271549 -0.956321 
0.561516 0.699021 -0.218195 -0.313497 -0.407116 0.852416 
-0.816751 -0.407637 0.207621 0.446594 0.247609 -0.853972 
-0.561516 -0.843938 -0.0589053 0.526597 0.809973 0.229376 
-0.816751 0.498571 -0.167108 0.616369 -0.389767 0.674953 
-0.561516 -0.208922 0.193673 -0.491339 -0.24745 -0.822456 
0.816751 -0.045089 -0.249462 0.0222992 0.0115369 0.996556 
-0.204188 -0.658627 0.243458 -0.152055 -0.278099 -0.941573 
-0.561516 -0.623148 -0.244244 0.171545 0.217025 0.95574 
0.561516 -0.559913 0.253638 -0.0642727 0.0750426 -0.988008 
0.561516 -0.117172 0.169652 0.612072 -0.17282 -0.757478 
0.204188 -0.703216 0.252579 0.0919357 -0.122086 -0.982602 
-0.561516 0.544492 0.25415 0.0470276 -0.0455535 -0.990602 
-0.561516 0.804778 -0.134731 0.477546 -0.689903 0.535104 
0.561516 0.247899 -0.204722 0.42707 0.252407 0.855403 
0.816751 -0.547621 0.132035 -0.698338 0.479335 -0.519878 
0.816751 -0.510926 0.16009 -0.634011 0.414975 -0.643984 
-0.561516 -0.828979 0.0976742 0.505446 0.765032 -0.38288 
0.204188 0.992947 -0.0574643 -0.182176 -0.95364 0.229588 
0.204188 0.587274 -0.21051 0.271077 0.514536 0.800474 
-0.816751 -0.172153 0.24542 0.0750487 0.0578682 -0.99266 
-0.561516 -0.546379 -0.254341 0.0373749 0.0486704 0.991777 
0.204188 0.472159 0.0443288 0.47548 0.841699 -0.156363 
0.204188 -0.999413 -0.0125737 -0.185811 0.978748 0.0455629 
0.204188 -0.569329 -0.198017 0.298255 -0.574561 0.751964 
0.816751 -0.47561 0.180478 -0.569146 0.377744 -0.722471 
0.561516 -0.402536 0.244244 0.186313 -0.169711 -0.959501 
0.816751 0.449623 -0.192274 -0.522233 -0.332789 0.778064 
-0.204188 0.578879 0.205326 -0.28214 0.544946 -0.778404 
-0.816751 0.602633 0.0453969 0.783484 -0.585626 -0.182671 
0.561516 0.496704 0.254399 0.0329363 0.0408461 -0.993408 
-0.561516 0.167428 -0.181257 -0.538468 0.226869 0.797423 
-0.204188 -0.509835 -0.134629 -0.402666 -0.748158 0.496537 
-0.204188 -0.477638 0.0664131 -0.462963 -0.832389 -0.247704 
-0.816751 -0.560033 -0.120317 0.717297 0.510123 0.465626 
-0.816751 -0.610564 2.0232e-08 0.78471 0.597527 0.000387201 
0.561516 -0.331725 -0.228666 0.292214 -0.238651 0.916043 
0.561516 -0.476041 -0.2534 0.0698024 -0.0736107 0.986879 
-0.561516 0.729015 -0.202071 0.359207 -0.491019 0.787409 
-0.204188 0.526155 -0.157201 -0.377857 0.70042 0.584973 
-0.816751 -0.5886 0.0799865 0.762545 0.558351 -0.316445 
0.204188 -0.93216 -0.170598 -0.137072 0.725463 0.668447 
0.561516 0.507545 -0.254368 0.00744594 0.0267786 0.994236 
0.561516 0.60923 0.246815 -0.153429 -0.189468 -0.964328 
0.561516 -0.799648 0.1418 -0.47095 0.670974 -0.564379 
-0.204188 -0.926708 0.176648 0.137073 0.695681 -0.701242 
-0.204188 0.475121 0.0572605 -0.474349 0.834427 -0.21287 
-0.561516 -0.317062 -0.225096 -0.322875 -0.238276 0.906244 
-0.561516 -0.513118 -0.25503 -0.0180789 -0.011895 0.994379 
-0.561516 -0.797587 -0.144036 0.462811 0.665708 0.575613 
0.561516 0.76889 0.172674 -0.424737 -0.588088 -0.679962 
0.561516 0.594916 -0.249111 -0.136224 -0.168413 0.970521 
0.816751 -0.0833429 0.248379 -0.000384017 0.0136445 -0.996386 
-0.561516 -0.852329 2.0232e-08 0.530276 0.829541 0.000275827 
0.816751 -0.0804838 -0.249026 0.00180025 0.0216722 0.996771 
-0.561516 0.851362 -0.0140389 0.533413 -0.827665 0.0538582 
0.561516 -0.208158 0.193561 0.498607 -0.249038 -0.817917 
0.204188 0.673239 0.247278 0.128856 0.232377 -0.957818 
0.204188 0.925561 -0.17726 -0.13401 -0.696876 0.698788 
0.561516 -0.685366 0.225097 -0.284224 0.370235 -0.877914 
0.561516 0.85156 0.0109404 -0.535494 -0.825905 -0.0469634 
-0.204188 0.998552 0.0263729 0.188377 -0.973902 -0.110834 
-0.561516 -0.282764 -0.215654 -0.379349 -0.251265 0.879749 
-0.816751 0.0940717 0.248523 -0.00592058 -0.0314942 -0.997103 
0.816751 0.263869 0.237391 -0.198611 -0.118209 -0.968855 
-0.204188 0.731232 -0.254949 -0.0656176 0.0194081 0.992696 
0.816751 0.585389 -0.0845164 -0.756779 -0.56279 0.320228 
0.204188 0.707798 0.253478 0.0829365 0.106168 -0.98631 
-0.816751 0.393857 0.210646 0.427601 -0.238531 -0.865009 
-0.561516 0.290446 0.217084 -0.35232 0.252595 -0.890739 
-0.561516 -0.828979 -0.0976742 0.507717 0.763935 0.382909 
-0.204188 -0.70788 0.253478 -0.0861181 -0.107662 -0.984228 
0.561516 -0.840409 -0.0710808 -0.528006 0.796474 0.275341 
-0.561516 -0.737099 -0.197299 0.367932 0.510934 0.770719 
-0.816751 0.51868 0.153917 0.658343 -0.396523 -0.628552 
-0.816751 -0.208025 0.242802 0.119069 0.0759482 -0.985228 
0.204188 -0.90876 -0.193131 -0.120468 0.633944 0.760185 
0.561516 -0.00925837 -0.153241 0.680913 -0.0136572 0.718065 
-0.561516 -0.0837426 0.161919 -0.631034 -0.122118 -0.750528 
0.561516 0.843962 -0.0584156 -0.534106 -0.806008 0.232618 
0.561516 -0.626327 0.2434 -0.181147 0.217141 -0.953072 
-0.561516 0.746925 0.190078 0.392109 -0.53582 -0.739571 
-0.204188 -0.541809 0.174255 -0.346455 -0.657409 -0.653216 
-0.204188 -0.469551 0.0294173 -0.474863 -0.847703 -0.107868 
0.816751 -0.237558 0.239701 -0.169541 0.0967907 -0.974975 
-0.816751 -0.226337 -0.240806 0.152922 0.0998264 0.979157 
0.561516 0.472265 -0.252738 0.0613852 0.0704678 0.990467 
0.204188 -0.983588 0.087864 -0.17654 0.919054 -0.34322 
0.204188 -0.495329 -0.110217 0.430567 -0.788771 0.407113 
0.561516 -0.826019 -0.102706 -0.508686 0.747385 0.416294 
-0.816751 -0.439555 0.197298 0.504842 0.306231 -0.802459 
-0.561516 0.486618 0.253803 -0.0408329 0.0516635 -0.991844 
-0.204188 0.484157 -0.0857027 -0.459834 0.811642 0.317303 
-0.816751 -0.128328 0.247266 0.0277918 0.0367049 -0.995445 
-0.816751 -0.191453 -0.244244 0.107509 0.0702687 0.987746 
-0.816751 -0.602342 -0.0497942 0.78071 0.582834 0.200541 
-0.561516 -0.772728 -0.169343 0.424692 0.60591 0.666339 
0.816751 -0.191453 0.244244 -0.107656 0.0669996 -0.9875 
-0.816751 -0.261222 -0.237369 0.200929 0.107256 0.969086 
0.561516 0.823423 0.106807 -0.506448 -0.742552 -0.425482 
0.816751 -0.244485 -0.239628 -0.174676 0.0956333 0.977277 
-0.816751 -0.508291 0.161919 0.62914 0.404193 -0.656897 
0.816751 0.214911 -0.241905 -0.128381 -0.0700435 0.985268 
-0.816751 -0.125781 -0.247269 0.0366718 0.0400936 0.996443 
0.204188 0.999331 0.0125733 -0.186732 -0.978367 -0.0485142 
0.204188 -0.474742 0.055481 0.4687 -0.837621 -0.207764 
0.816751 -0.342966 -0.225096 -0.33442 0.185662 0.91854 
-0.816751 0.472584 0.18079 0.573954 -0.391644 -0.7089 
0.204188 0.703134 -0.252579 0.0996284 0.121039 0.980987 
-0.561516 -0.623148 0.244244 0.171109 0.21124 -0.955497 
-0.816751 0.263869 -0.237391 0.195857 -0.118249 0.96899 
0.816751 -0.0377213 0.249297 0.0257323 0.0254183 -0.995453 
-0.561516 -0.361052 -0.235806 -0.246677 -0.210179 0.936026 
0.204188 0.495817 0.111336 0.431093 0.784286 -0.415778 
0.561516 -0.0837426 0.161919 0.643834 -0.153192 -0.737244 
-0.204188 -0.489257 0.0982847 -0.442939 -0.806423 -0.360142 
-0.816751 0.0518203 -0.249354 -0.0280369 -0.0167503 0.996309 
-0.204188 0.961788 -0.131813 0.160589 -0.839075 0.512329 
-0.561516 -0.170375 0.181889 -0.541384 -0.23708 -0.792323 
0.561516 -0.771798 0.170168 -0.429154 0.59837 -0.670647 
-0.816751 -0.0185642 -0.249683 -0.0342303 0.0113087 0.995599 
-0.204188 -0.999103 -0.0180134 0.187272 0.975451 0.0809085 
0.204188 0.509753 -0.134629 0.408477 0.746391 0.494528 
0.561516 -0.590396 -0.25033 -0.116115 0.143282 0.97647 
-0.561516 -0.280254 0.214776 -0.38255 -0.259269 -0.877099 
0.204188 0.561046 0.191684 0.30567 0.599929 -0.727289 
0.561516 0.75623 -0.18258 -0.407577 -0.560203 0.716351 
0.204188 0.965845 -0.125338 -0.164225 -0.84899 0.497664 
-0.816751 -0.0201517 0.249769 -0.0378385 0.00648878 -0.995807 
0.816751 -0.416327 -0.204863 -0.460149 0.267222 0.840236 
-0.561516 0.232546 0.200262 -0.445207 0.25068 -0.849086 
-0.561516 0.420522 -0.246944 -0.13829 0.149953 0.971084 
0.816751 -0.545776 -0.134502 -0.691144 0.476801 0.534097 
0.561516 -0.440141 0.249862 0.128052 -0.119903 -0.978483 
0.561516 0.727565 -0.202499 -0.36076 -0.489046 0.789432 
0.204188 -0.925644 0.17726 -0.134454 0.704005 -0.693006 
0.561516 -0.170286 0.182347 0.551627 -0.216165 -0.792454 
-0.561516 0.323771 0.226279 -0.301706 0.242697 -0.914643 
-0.204188 0.910921 -0.191071 0.120712 -0.641813 0.753696 
0.816751 -0.607819 -0.0277701 -0.787004 0.597635 0.113562 
0.816751 0.563669 0.115254 -0.725492 -0.522928 -0.436362 
-0.816751 0.220837 -0.24168 0.133137 -0.0825039 0.983296 
0.204188 0.834392 0.236537 -0.0510874 -0.365067 -0.925042 
-0.204188 0.995207 -0.0482812 0.182921 -0.964207 0.179731 
0.816751 0.605353 0.0373582 -0.785265 -0.591416 -0.149628 
0.204188 0.620169 0.228899 0.205604 0.411577 -0.88119 
-0.204188 0.55875 -0.189911 -0.318649 0.602312 0.717739 
-0.204188 0.978967 0.0998355 0.175135 -0.897725 -0.397526 
-0.204188 -0.475572 -0.058684 -0.463053 -0.833907 0.212195 
-0.816751 -0.308454 -0.230706 0.275648 0.14079 0.945681 
0.816751 0.534281 -0.143824 -0.674195 -0.446197 0.577403 
0.561516 -0.0461647 0.156435 0.671628 -0.0640679 -0.730823 
0.561516 -0.706145 -0.215081 -0.319775 0.424863 0.840575 
-0.561516 0.431216 0.248434 -0.126453 0.145595 -0.974448 
-0.204188 -0.617535 0.227738 -0.216083 -0.421033 -0.872767 
-0.561516 -0.475638 -0.253393 -0.0729345 -0.071415 0.989323 
-0.204188 0.820948 0.241371 0.0357165 -0.312914 -0.942431 
-0.816751 0.195227 0.243443 0.101381 -0.0768702 -0.98852 
-0.204188 0.999205 -0.0153474 0.184788 -0.97768 0.0657933 
0.816751 -0.609019 0.0187628 -0.781521 0.598566 -0.0771824 
0.816751 0.132894 -0.247095 -0.0343582 -0.0382755 0.995375 
-0.561516 0.375158 -0.238596 -0.211592 0.198589 0.949076 
0.561516 -0.473148 0.253157 0.0780072 -0.0739002 -0.98969 
0.204188 0.995207 0.0482812 -0.185296 -0.963113 -0.182881 
0.816751 0.145873 0.24648 -0.0483449 -0.038775 -0.99522 
-0.204188 0.980802 -0.0955506 0.173629 -0.903394 0.384738 
-0.204188 0.992403 0.0595119 0.182368 -0.951192 -0.235439 
0.204188 -0.846141 0.231722 -0.0638303 0.401818 -0.908427 
0.816751 0.398545 -0.209303 -0.427404 -0.251273 0.860831 
-0.816751 0.590097 0.0756427 0.766971 -0.563438 -0.296115 
0.816751 0.584098 0.0869659 -0.756607 -0.552496 -0.33769 
-0.816751 0.609514 0.011751 0.785529 -0.594933 -0.0527295 
0.561516 -0.676256 -0.228326 -0.269442 0.343854 0.892809 
-0.816751 0.57238 0.103763 0.740801 -0.539996 -0.390271 
0.816751 -0.11593 0.247723 -0.0272647 0.0344039 -0.995961 
0.204188 -0.849662 -0.230287 -0.0688525 0.416239 0.903161 
-0.561516 0.394944 0.24203 -0.182512 0.182494 -0.958776 
0.561516 0.135213 0.172781 0.582186 0.195818 -0.778557 
0.204188 0.480393 0.0762662 0.460533 0.823003 -0.283439 
-0.561516 0.628426 -0.242546 0.189284 -0.223508 0.95036 
-0.204188 0.763682 -0.253414 -0.0283157 -0.107234 0.988198 
0.816751 0.438648 0.197614 -0.505104 -0.314106 -0.797048 
-0.816751 -0.374334 0.217048 0.385392 0.242182 -0.884951 
0.561516 -0.851076 0.02189 -0.531618 0.824109 -0.0805112 
0.561516 -0.300177 -0.219888 0.343604 -0.246023 0.895961 
-0.561516 0.6602 -0.233931 0.243868 -0.294297 0.918554 
-0.204188 0.528779 0.159768 -0.369324 0.697674 -0.592273 
-0.204188 0.621955 0.229448 -0.210006 0.401043 -0.881589 
-0.204188 0.942982 -0.1585 0.144674 -0.766165 0.622116 
0.816751 0.59995 -0.0532879 -0.777301 -0.582613 0.212245 
0.816751 -0.00513446 0.249953 0.0384085 0.00321249 -0.992333 
-0.561516 0.111195 -0.167066 -0.604288 0.167812 0.765334 
0.204188 0.670731 -0.246618 0.143549 0.237345 0.953812 
0.204188 -0.543937 -0.176212 0.343318 -0.647029 0.666081 
0.561516 0.244952 0.204341 0.429864 0.25538 -0.857479 
0.561516 0.629723 -0.241867 -0.197152 -0.229532 0.94793 
-0.561516 -0.242443 -0.203827 -0.443858 -0.252299 0.847624 
0.204188 0.801813 0.24709 -0.0150037 -0.236572 -0.967321 
-0.561516 -0.248322 0.205244 -0.432526 -0.253129 -0.855517 
-0.204188 0.659006 0.243717 -0.15713 0.285716 -0.938641 
0.561516 0.341528 -0.231073 0.271757 0.224079 0.926628 
0.561516 0.147488 -0.175887 0.572095 0.216699 0.778686 
0.816751 -0.150258 0.246141 -0.0615665 0.0436183 -0.993663 
-0.561516 -0.0215482 0.154055 -0.669787 -0.0474133 -0.727746 
-0.204188 -0.510681 0.136361 -0.402987 -0.747059 -0.506152 
-0.204188 -0.976479 -0.104961 0.176401 0.888588 0.418841 
0.816751 -0.447875 -0.193418 -0.517583 0.32785 0.784387 
0.816751 -0.204711 -0.24309 -0.119715 0.0779144 0.986688 
0.816751 0.172263 -0.245239 -0.0754887 -0.0643334 0.991976 
-0.204188 0.508037 0.132017 -0.408642 0.74898 -0.491802 
0.816751 0.302523 0.231734 -0.260131 -0.151792 -0.948008 
-0.204188 -0.799742 -0.247613 0.0152293 0.226238 0.969746 
0.816751 -0.168936 -0.245616 -0.0766928 0.0531615 0.992871 
0.204188 0.516145 0.14407 0.392303 0.73453 -0.535039 
0.816751 0.0968056 -0.248423 -0.00462097 -0.0285799 0.996512 
-0.204188 -0.534942 -0.167113 -0.357632 -0.680468 0.622352 
-0.561516 -0.799648 0.1418 0.463798 0.672315 -0.566305 
0.816751 -0.396248 0.211225 -0.427689 0.240832 -0.864908 
0.816751 0.360875 0.220444 -0.36205 -0.219794 -0.899753 
0.816751 0.113274 0.247755 -0.0183434 -0.0373203 -0.995893 
0.561516 0.529941 0.254881 -0.01495 -0.0136803 -0.993143 
-0.816751 0.0149672 -0.249742 -0.0426245 -0.00463757 0.992144 
0.204188 -0.468138 -0.0102875 0.469649 -0.838801 0.0394596 
-0.816751 -0.33835 0.226032 0.322649 0.192947 -0.921287 
-0.816751 -0.532447 -0.145154 0.671625 0.443145 0.584199 
-0.204188 0.84958 -0.230287 0.059383 -0.413143 0.90423 
-0.561516 -0.714862 0.210562 0.331792 0.456807 -0.817703 
-0.204188 0.684705 -0.250027 -0.120931 0.186385 0.969516 
-0.204188 -0.76288 -0.253425 -0.0221255 0.0914932 0.991434 
-0.816751 -0.283206 0.234829 0.231275 0.129327 -0.959282 
-0.816751 0.564775 -0.113902 0.727026 -0.524748 0.433497 
-0.561516 -0.437007 0.249394 -0.139074 -0.123503 -0.975772 
-0.561516 0.50265 -0.254686 -0.0178743 0.0318106 0.994174 
0.561516 0.823482 -0.106608 -0.507626 -0.741731 0.427203 
-0.561516 -0.676238 -0.228309 0.265877 0.344156 0.89414 
-0.561516 0.016225 0.153708 -0.673808 0.022111 -0.723398 
-0.561516 0.645344 0.238331 0.221101 -0.257645 -0.933602 
0.204188 -0.596806 -0.216732 0.251532 -0.493294 0.824108 
-0.561516 0.583578 -0.251071 0.111499 -0.130994 0.979069 
-0.561516 -0.351626 0.233511 -0.269607 -0.216291 -0.92783 
0.561516 0.643283 0.238726 -0.213413 -0.252788 -0.93729 
0.204188 0.886923 -0.20904 -0.0982764 -0.560663 0.814083 
0.561516 0.276236 0.21355 0.381888 0.253964 -0.880997 
-0.204188 0.473772 -0.0532756 -0.479166 0.83369 0.195676 
0.816751 0.360569 -0.220181 -0.359059 -0.237503 0.897428 
0.204188 -0.993847 0.0543929 -0.185255 0.956026 -0.218338 
-0.561516 0.843962 0.0584165 0.531219 -0.80825 -0.233765 
-0.816751 -0.545776 0.134503 0.693443 0.48284 -0.527442 
0.204188 0.545282 -0.17721 0.342814 0.644366 0.662389 
-0.816751 0.280057 0.234587 0.226657 -0.140563 -0.95869 
-0.561516 -0.443274 -0.25033 -0.12148 -0.116486 0.979271 
-0.816751 0.122884 -0.247463 0.0199035 -0.0355489 0.996512 
-0.816751 0.302523 -0.231734 0.259478 -0.152406 0.948431 
0.204188 -0.472898 -0.0479738 0.470312 -0.842262 0.174026 
-0.204188 0.468258 -0.0130203 -0.480159 0.833049 0.0490626 
-0.816751 0.128246 0.247266 0.0212356 -0.0324613 -0.995888 
-0.204188 0.586922 -0.210413 -0.269437 0.511829 0.803094 
0.561516 0.428942 0.248103 0.134118 0.137979 -0.976469 
-0.561516 -0.163974 -0.180478 -0.560269 -0.205235 0.792466 
-0.204188 -0.582802 0.207706 -0.274217 -0.531922 -0.79104 
0.204188 -0.967481 0.122901 -0.167971 0.855532 -0.484882 
0.561516 0.205497 0.192558 0.488949 0.248851 -0.826069 
0.204188 -0.639263 -0.237031 0.181901 -0.339893 0.91462 
-0.816751 0.545694 0.134504 0.70164 -0.468362 -0.529175 
0.561516 -0.848995 -0.0360291 -0.537306 0.824752 0.133695 
-0.561516 0.248058 -0.20528 -0.420638 0.255601 0.85863 
-0.561516 0.0786384 -0.160682 -0.635962 0.127305 0.749053 
0.204188 0.591123 0.213122 0.252681 0.505542 -0.815134 
-0.204188 -0.901502 0.198642 0.118261 0.611047 -0.77641 
-0.204188 0.925562 0.17726 0.136189 -0.701953 -0.690911 
0.816751 -0.439554 0.197298 -0.503943 0.312917 -0.799061 
-0.204188 0.960407 0.13387 0.161304 -0.828752 -0.528933 
0.561516 -0.556526 -0.254005 -0.0568941 0.06738 0.989879 
0.204188 -0.670812 0.246618 0.135293 -0.231445 -0.956325 
0.204188 0.772161 -0.252683 0.024219 -0.127808 0.987676 
-0.561516 -0.556526 0.254005 0.0494534 0.0659395 -0.989233 
-0.816751 0.361039 0.220047 0.367745 -0.237472 -0.893846 
0.561516 0.375152 -0.238418 0.214049 0.192821 0.947785 
0.561516 -0.43309 -0.248809 0.13056 -0.138093 0.972622 
-0.816751 -0.0570213 0.249315 -0.0232607 0.0147839 -0.996863 
0.561516 -0.170374 -0.181889 0.544216 -0.221404 0.795934 
-0.561516 -0.131882 -0.173055 -0.594844 -0.17534 0.77201 
-0.816751 0.465422 -0.185193 0.555024 -0.366121 0.74162 
0.561516 0.804778 0.134731 -0.479542 -0.691031 -0.530922 
0.204188 -0.987158 -0.0781232 -0.1756 0.931527 0.312904 
-0.816751 -0.393154 -0.212219 0.423726 0.250117 0.863056 
0.561516 -0.313944 0.224238 0.330268 -0.238402 -0.903754 
0.816751 -0.277078 0.235806 -0.225287 0.111941 -0.962673 
0.561516 0.167428 0.181257 0.542106 0.224371 -0.797598 
0.561516 0.307823 0.222363 0.329308 0.243043 -0.902915 
0.816751 -0.309327 -0.230662 -0.276061 0.148954 0.94512 
-0.204188 -0.838871 0.234803 0.0578325 0.379955 -0.91984 
0.561516 -0.623148 -0.244244 -0.175315 0.214633 0.95428 
0.816751 -0.327278 0.227646 -0.306421 0.178996 -0.929234 
0.561516 0.577104 0.251774 -0.0965631 -0.114235 -0.982482 
0.561516 -0.714584 0.210727 -0.33506 0.456046 -0.818367 
-0.204188 -0.468015 -0.00356714 -0.466339 -0.836282 0.020455 
0.561516 -0.137854 -0.173467 0.585854 -0.19662 0.774583 
0.561516 0.433904 -0.248748 0.119875 0.132959 0.976711 
0.816751 0.0652215 0.249213 0.0143563 -0.0155928 -0.996974 
0.204188 0.492912 -0.105434 0.440062 0.789019 0.392267 
0.816751 -0.129695 -0.247216 -0.0370054 0.0375306 0.995084 
0.561516 0.0259845 -0.154355 0.672217 0.0562286 0.725477 
-0.561516 0.790159 0.151667 0.458097 -0.648096 -0.601302 
0.204188 -0.995741 -0.0452046 -0.18319 0.964118 0.18121 
-0.204188 0.738399 0.254768 -0.0579674 0.00389088 -0.992107 
0.561516 -0.830144 0.0950538 -0.513063 0.765548 -0.371835 
0.816751 0.393605 0.211586 -0.420644 -0.242393 -0.86843 
-0.204188 -0.87048 -0.219431 0.0902311 0.486283 0.864722 
-0.204188 -0.768398 0.252901 -0.0175075 0.116118 -0.988361 
-0.561516 0.210094 -0.193915 -0.478012 0.250075 0.830457 
0.816751 0.214783 0.242151 -0.12748 -0.0831865 -0.984065 
0.816751 0.283291 -0.234111 -0.229141 -0.143226 0.958213 
0.204188 -0.998986 0.0201033 -0.18808 0.977605 -0.0749142 
-0.816751 0.359086 -0.220898 0.356301 -0.21438 0.90305 
-0.816751 0.188403 -0.244206 0.0904224 -0.0665452 0.990228 
-0.816751 0.155725 -0.246059 0.0519143 -0.0477532 0.994698 
0.204188 -0.469035 0.0235361 0.478231 -0.850187 -0.0898397 
0.204188 0.960734 0.133566 -0.160062 -0.835177 -0.519787 
-0.204188 -0.999035 0.0208948 0.190443 0.974901 -0.0913729 
-0.204188 0.488553 0.0969044 -0.448269 0.803304 -0.356513 
-0.561516 0.167036 0.181032 -0.544061 0.226189 -0.797866 
-0.816751 -0.602342 0.0497932 0.781416 0.583708 -0.199109 
-0.816751 0.436521 0.198426 0.507404 -0.299682 -0.800823 
-0.204188 -0.630983 -0.233734 -0.194819 -0.374522 0.898725 
-0.561516 -0.590396 0.25033 0.111834 0.145793 -0.977162 
0.816751 -0.579561 0.0950538 -0.747101 0.54608 -0.36725 
0.561516 0.0212098 0.154038 0.673296 0.0250006 -0.727448 
-0.816751 -0.569011 0.108995 0.731525 0.532818 -0.415909 
-0.561516 -0.074349 -0.160548 -0.646391 -0.136575 0.737311 
0.561516 0.393328 0.242296 0.188565 0.178913 -0.958515 
-0.816751 0.605352 -0.0373582 0.786989 -0.589699 0.14923 
-0.561516 -0.402536 0.244244 -0.190314 -0.169161 -0.957971 
0.204188 -0.811747 -0.244189 -0.0254758 0.273397 0.957235 
0.816751 0.0482247 -0.249422 0.0237218 -0.0167062 0.995693 
-0.561516 0.610352 0.246252 0.160693 -0.181042 -0.964863 
-0.204188 -0.568661 -0.197318 -0.295855 -0.571962 0.75122 
0.204188 -0.48173 -0.0794116 0.455858 -0.822747 0.297364 
-0.204188 -0.86884 0.220642 0.0870551 0.481461 -0.869007 
0.561516 -0.267153 -0.211224 0.399285 -0.236534 0.875083 
0.561516 0.357599 0.234774 0.246488 0.214922 -0.937134 
0.204188 -0.711228 -0.253688 0.0878299 -0.0975668 0.98632 
-0.561516 -0.205002 -0.192627 -0.503542 -0.248147 0.815648 
0.816751 0.178457 0.244979 -0.0820357 -0.0590902 -0.990999 
0.561516 0.8509 -0.0235489 -0.541048 -0.827911 0.0882427 
-0.204188 0.772161 0.252683 -0.0220621 -0.127222 -0.986931 
0.561516 -0.279646 0.214795 0.388223 -0.251548 -0.876989 
-0.816751 -0.158617 -0.245757 0.0695771 0.04026 0.992931 
-0.561516 -0.76715 0.174292 0.415899 0.586663 -0.686187 
-0.204188 -0.992604 0.058963 0.18384 0.953855 -0.224933 
-0.561516 -0.00133799 -0.154437 -0.676124 0.00219212 0.721724 
-0.204188 0.553388 0.185064 -0.324281 0.624039 -0.693603 
-0.561516 0.462241 -0.252101 -0.0754645 0.0924004 0.987266 
0.816751 -0.598515 -0.0589053 -0.774218 0.580908 0.231758 
-0.204188 -0.727137 -0.254488 -0.0642093 -0.033818 0.991707 
0.561516 -0.0128961 0.154642 0.680626 -0.0295187 -0.717981 
0.561516 -0.375234 -0.238418 0.217694 -0.192703 0.945907 
-0.816751 -0.2478 0.23934 0.177057 0.104925 -0.974632 
0.561516 0.78254 -0.15935 -0.448351 -0.628746 0.629556 
-0.561516 -0.474144 0.253211 -0.0843945 -0.0743745 -0.987815 
0.561516 -0.217817 -0.196393 0.475673 -0.263324 0.826643 
-0.816751 -0.0924277 -0.248196 0.00727168 0.0193787 0.995956 
0.204188 -0.973834 -0.110374 -0.165404 0.886062 0.42708 
-0.561516 0.310636 -0.223139 -0.317885 0.24251 0.906637 
-0.204188 0.851714 0.229411 0.0658719 -0.414049 -0.903537 
0.204188 0.863964 0.223053 -0.0811123 -0.464751 -0.877195 
-0.561516 0.8509 0.023549 0.537993 -0.82996 -0.0877095 
0.816751 0.473158 0.181106 -0.567826 -0.383884 -0.7202 
0.561516 -0.804986 -0.13464 -0.478617 0.694 0.529346 
-0.204188 -0.601627 -0.219323 -0.240055 -0.476909 0.835575 
0.204188 0.947302 -0.152552 -0.152139 -0.781419 0.600089 
-0.204188 0.696846 0.251764 -0.103339 0.135113 -0.975929 
0.561516 0.102188 0.164922 0.617883 0.164539 -0.757825 
0.204188 0.620166 -0.228591 0.218457 0.40914 0.875891 
0.561516 -0.781095 -0.161919 -0.442069 0.628111 0.633579 
0.561516 0.844581 0.0564482 -0.532907 -0.808768 -0.216225 
-0.816751 0.538696 -0.140514 0.686036 -0.460824 0.555172 
0.816751 -0.508291 -0.161919 -0.626813 0.405897 0.656941 
-0.816751 0.0160476 0.249819 -0.0450935 -0.00465637 -0.991092 
-0.561516 0.131199 0.1716 -0.58597 0.187243 -0.775182 
0.561516 0.561475 -0.253504 -0.0785895 -0.0795652 0.986796 
-0.816751 0.318865 0.228883 0.289143 -0.151491 -0.939814 
0.204188 -0.591553 0.213103 0.257761 -0.50678 -0.807484 
-0.204188 -0.693784 -0.251356 -0.105516 -0.15239 0.976935 
0.204188 0.741348 0.254711 0.0422744 -0.0260751 -0.992857 
-0.561516 0.356812 0.234412 -0.247432 0.208054 -0.939606 
-0.204188 -0.489724 -0.0990371 -0.440849 -0.800271 0.36742 
-0.204188 0.813306 -0.243705 0.0227979 -0.277468 0.956139 
0.561516 -0.734598 -0.198791 -0.367592 0.499656 0.777169 
0.204188 -0.949422 0.149981 -0.155377 0.785329 -0.595553 
0.204188 -0.492994 0.105434 0.434479 -0.793947 -0.389793 
0.816751 0.481194 -0.176483 -0.579424 -0.38334 0.709387 
0.204188 0.979627 0.0980212 -0.174567 -0.899008 -0.394555 
0.561516 -0.742228 0.193561 -0.380742 0.525153 -0.756101 
-0.204188 0.90039 0.199596 0.114733 -0.608989 -0.780112 
0.561516 -0.105513 -0.165448 0.618743 -0.171593 0.75353 
-0.204188 -0.937197 -0.165408 0.143365 0.743305 0.648765 
0.561516 -0.361052 0.235806 0.252846 -0.211505 -0.935163 
0.816751 0.508382 0.161155 -0.632128 -0.396596 -0.658769 
0.561516 0.111652 -0.166456 0.614515 0.171556 0.758605 
0.561516 -0.593671 0.249721 -0.123785 0.152458 -0.975021 
-0.204188 0.468494 0.0203453 -0.48735 0.845324 -0.0755652 
-0.204188 0.499801 -0.119167 -0.429427 0.777159 0.433785 
-0.204188 -0.839074 -0.234611 0.0604662 0.383086 0.916358 
