ply
format ascii 1.0
element vertex 1005
property float x
property float y
property float z
property float nx
property float ny
property float nz
end_header
165 190 0 -0.110072 -0.563641 -0.818653 
160 194.343 0 -0.816722 -0.265324 -0.512415 
159.657 200.657 0 -0.879693 0.332113 0.340354 
164.192 205.192 0 -0.382529 0.498354 0.778019 
167.728 210.728 0 -0.141824 0.0642707 0.987803 
167 217.201 0 -0.109624 -0.0448077 0.992963 
165 223.373 0 -0.145882 -0.00648946 0.989281 
167.544 229 0 -0.0354748 0.129921 0.99089 
173.716 227 0 0.0287372 0.0106566 0.99953 
180.302 226 0 -0.00938311 -0.0651822 0.997829 
185.213 223.787 0 -0.12888 -0.0168562 0.991517 
186 217.113 0 -0.720099 0.0529928 0.691845 
185.373 210.373 0 -0.934627 0.246135 -0.256691 
183 204.355 0 -0.503053 0.274257 -0.819586 
179.009 199.009 0 -0.0779396 0.090167 -0.992872 
174.669 194 0 0.175897 -0.18686 -0.966511 
169.23 190.23 0 0.14689 -0.481143 -0.864248 
151 181 8 -0.329008 -0.467273 -0.820616 
151 188 8 -0.639766 0.328073 -0.69503 
154.757 193 8 -0.598519 0.725083 -0.340631 
160.364 196.364 8 -0.535967 0.828403 0.162753 
165.899 199.899 8 -0.446301 0.828088 0.339242 
171.615 203 8 -0.498332 0.798029 0.338842 
176.971 206.971 8 -0.557233 0.787298 0.263919 
182.506 210.506 8 -0.597755 0.798018 0.0765261 
187.749 214.749 8 -0.639716 0.758145 0.126415 
192.991 218.991 8 -0.751637 0.654622 0.0806957 
196.527 224.527 8 -0.730504 0.682258 -0.0298083 
202.088 228 8 -0.376457 0.778833 -0.501696 
208.26 230 8 -0.0304738 0.702548 -0.710983 
214.598 228.402 8 0.383063 0.473515 -0.793124 
215.988 221.988 8 0.783138 -0.193488 -0.59098 
214 215.811 8 0.90321 -0.233634 -0.360038 
212.452 209.452 8 0.948423 -0.264349 -0.174967 
210 203.468 8 0.811293 -0.577988 0.0879401 
205.088 199.088 8 0.626252 -0.71085 0.320158 
200.139 194.139 8 0.556404 -0.785949 0.269626 
194.31 191.31 8 0.405381 -0.895799 0.182234 
188.482 188.482 8 0.426519 -0.904412 0.0109954 
182.51 186 8 0.345101 -0.91165 -0.223156 
176.338 184 8 0.290413 -0.860818 -0.417913 
170.167 182 8 0.208952 -0.811716 -0.545395 
163.581 181 8 0.0187349 -0.84003 -0.542217 
156.581 181 8 0.0606685 -0.759332 -0.647869 
147 175 16 -0.173102 -0.897802 -0.404954 
144.172 180.828 16 -0.732148 -0.186311 -0.65517 
141.05 185.95 16 -0.401702 -0.344209 -0.84862 
136.929 190.071 16 -0.32291 -0.28193 -0.903463 
140.686 192 16 0.14839 0.348076 -0.925648 
147.686 192 16 -0.263129 0.827157 -0.496563 
153.858 194 16 -0.208055 0.97799 -0.0157996 
160.444 195 16 -0.24403 0.944638 0.219337 
166.435 197.435 16 -0.376203 0.863318 0.336384 
172.373 200 16 -0.477042 0.825046 0.30287 
177.799 203.799 16 -0.648644 0.743322 0.163504 
182.749 208.749 16 -0.721136 0.691279 0.0457841 
187.698 213.698 16 -0.733518 0.671384 -0.105805 
191.941 218.941 16 -0.756914 0.649249 -0.074541 
196.184 224.184 16 -0.81789 0.573136 0.0507145 
199.012 230.012 16 -0.949303 0.311736 -0.0405572 
202 235.775 16 -0.520935 0.823152 -0.225936 
207.962 236.038 16 0.156821 0.929104 -0.334923 
214.376 235.376 16 -0.223461 0.839237 -0.495728 
219.619 238.381 16 0.0342957 0.713033 -0.700291 
223 232.782 16 0.713789 0.260212 -0.650227 
224 226.196 16 0.7609 -0.270369 -0.589857 
219.603 221.603 16 0.650512 -0.727046 -0.219631 
216.067 216.067 16 0.94659 -0.319738 0.0416593 
213.946 209.946 16 0.903266 -0.426679 -0.0453328 
209.704 204.704 16 0.643525 -0.764534 -0.0369252 
204.168 201.168 16 0.596439 -0.7854 -0.165552 
199.218 196.218 16 0.660083 -0.685085 -0.308139 
193.966 192 16 0.510381 -0.786654 -0.347399 
188.44 188.44 16 0.503778 -0.802386 -0.319974 
182.905 184.905 16 0.481221 -0.830414 -0.280785 
177.369 181.369 16 0.544169 -0.787202 -0.290162 
171.765 178 16 0.251689 -0.920357 -0.299326 
164.765 178 16 -0.0565059 -0.962012 -0.267094 
157.765 178 16 0.116079 -0.963653 -0.240623 
151.419 176.419 16 0.357719 -0.886041 -0.294904 
142 176 24 -0.35991 -0.93104 -0.0602473 
138 180.172 24 -0.779986 -0.505885 -0.368379 
135.05 185.95 24 -0.849533 -0.425145 -0.312321 
132.222 191.778 24 -0.943574 -0.325409 0.0614566 
130 197.858 24 -0.448793 -0.0792808 0.890112 
130.728 200.272 24 -0.120758 0.366304 0.922626 
136.556 197.444 24 0.329334 0.703396 0.6299 
142.678 195.322 24 0.303715 0.896054 0.323798 
148.799 193.201 24 0.227562 0.944243 0.237951 
155.302 192 24 0.0860352 0.937308 0.337716 
162.302 192 24 -0.0494981 0.856504 0.513761 
168.887 193 24 -0.197742 0.707673 0.678304 
174.456 196.456 24 -0.673909 0.414415 0.611643 
176.577 202.577 24 -0.8189 0.502339 0.277595 
181 207.745 24 -0.79929 0.599643 0.039559 
184.503 213 24 -0.741534 0.669919 -0.0365521 
189.891 216.891 24 -0.522107 0.842123 0.135027 
195.603 220 24 -0.361657 0.750195 0.553545 
200.962 222.038 24 -0.0453145 0.485889 0.872845 
206.497 218.503 24 0.329269 0.481353 0.812331 
212.461 216 24 0.300562 0.876103 0.37697 
218.74 215.74 24 -0.203958 -2.49776e-17 -0.97898 
221.782 214 24 0.136769 -0.283789 -0.949083 
216.31 210.31 24 0.530072 -0.294905 -0.795019 
212.775 204.775 24 0.723608 -0.376997 -0.578156 
211 198.51 24 0.765018 -0.10123 -0.636003 
209.946 191.946 24 0.688893 -0.428431 -0.584699 
204.411 188.411 24 0.33026 -0.873322 -0.358103 
198.409 186 24 0.379996 -0.839388 -0.388627 
192.461 183.461 24 0.348674 -0.783268 -0.514701 
186.48 181 24 0.297565 -0.7723 -0.561255 
180.309 179 24 0.299138 -0.802982 -0.515497 
174.137 177 24 0.215399 -0.941227 -0.260182 
167.551 176 24 0.0561835 -0.985041 -0.162905 
160.551 176 24 -0.0201245 -0.981416 -0.190834 
153.551 176 24 0.0538818 -0.997637 -0.0426333 
146.551 176 24 0.0482563 -0.997319 0.055014 
146 174 32 -0.132597 -0.837069 -0.530785 
139.828 176 32 -0.240863 -0.877498 -0.414706 
133.243 177 32 -0.260778 -0.780406 -0.568297 
127.343 179.657 32 -0.244382 -0.681163 -0.690141 
120.899 181 32 -0.121073 -0.775284 -0.6199 
114.314 182 32 -0.0813412 -0.907199 -0.412763 
107.314 182 32 0.0239856 -0.997347 -0.0687226 
100.314 182 32 -0.14246 -0.902468 0.406517 
94.3934 184.607 32 -0.50527 -0.546668 0.667725 
92 190.615 32 -0.70138 0.0198501 0.712511 
94.5563 196.556 32 -0.486647 0.580221 0.653083 
100.544 199 32 -0.165656 0.856443 0.488941 
107.544 199 32 0.0364752 0.998117 0.0493205 
114.544 199 32 -0.0238342 0.940974 -0.337638 
121.544 199 32 0.0965108 0.866083 -0.490495 
128.092 197.908 32 0.199243 0.822894 -0.532116 
134.213 195.787 32 0.243058 0.88761 -0.391244 
140.335 193.665 32 0.268627 0.931659 -0.244647 
146.645 192 32 0.217321 0.956507 -0.194593 
153.23 191 32 0.127099 0.976278 -0.175292 
159.87 190.13 32 0.323407 0.938361 -0.122007 
165.574 187 32 0.292702 0.949647 -0.111784 
172.159 188 32 -0.322711 0.928027 0.186073 
177.941 190.941 32 -0.510794 0.674009 0.533668 
182 196.26 32 -0.537758 0.260561 0.801826 
184 202.431 32 -0.479807 0.157739 0.863078 
186.426 208.426 32 -0.423525 0.264794 0.86632 
191.36 212 32 -0.081712 0.470245 0.878745 
197.962 211.038 32 0.19241 0.322581 0.926779 
201.497 205.503 32 0.13302 0.150085 0.979684 
207.875 204 32 0.151071 0.1406 0.978473 
214.461 205 32 -0.542741 0.0126289 0.839805 
214.431 204.431 32 -0.539878 0.0433837 0.840625 
209.482 199.482 32 0.134781 0.099847 0.985832 
205.239 194.239 32 0.279032 -0.23613 0.930797 
200.996 188.996 32 0.69809 -0.671856 0.247548 
196.047 184.047 32 0.707925 -0.696669 -0.11617 
191.511 179.511 32 0.541051 -0.811818 -0.219579 
185.683 176.683 32 0.436917 -0.866639 -0.240915 
179.794 174 32 0.145021 -0.949303 -0.278913 
173.208 175 32 -0.116553 -0.951571 -0.284479 
166.622 174 32 0.150472 -0.924345 -0.350634 
159.622 174 32 -0.00890513 -0.876449 -0.481412 
152.622 174 32 0.0412754 -0.834721 -0.549125 
146 165 40 -0.0687459 -0.680074 -0.729914 
139.879 167.121 40 -0.24747 -0.536489 -0.806807 
134.05 169.95 40 -0.247363 -0.543085 -0.802415 
128.222 172.778 40 -0.266208 -0.640279 -0.720538 
122.101 174.899 40 -0.188345 -0.682344 -0.706352 
115.979 177.021 40 -0.330246 -0.677234 -0.657489 
110.213 180 40 -0.329791 -0.829182 -0.451326 
104.322 182.678 40 -0.642788 -0.759496 -0.0999512 
101.494 188.506 40 -0.970113 -0.147294 0.192837 
103 194.473 40 -0.732043 0.594147 0.333321 
107.87 198.87 40 -0.451138 0.845075 0.286921 
113.988 201 40 -0.223 0.96927 0.103859 
120.574 202 40 -0.0821647 0.984068 -0.157669 
127.574 202 40 -0.0293039 0.874624 -0.483916 
134.574 202 40 0.0268337 0.711313 -0.702363 
141.406 201.594 40 0.0464657 0.568386 -0.821449 
147.745 200 40 0.298474 0.520188 -0.800199 
153.088 196 40 0.410576 0.624336 -0.664554 
158.891 193.109 40 0.356398 0.855112 -0.376515 
165.017 191 40 0.370874 0.919307 -0.131636 
171.134 188.866 40 0.22547 0.973787 0.0300255 
177.775 188 40 0.0121802 0.973763 0.227239 
184.775 188 40 -0.0898259 0.88914 0.448733 
191.255 189.255 40 -0.286479 0.7949 0.534849 
197.118 192 40 -0.295543 0.833818 0.466264 
203.289 194 40 -0.360522 0.924509 -0.123723 
208.632 198 40 -0.671352 0.686361 -0.279633 
213.69 202.69 40 -0.721464 0.624925 -0.298259 
217 208.319 40 -0.941282 0.326528 -0.0858351 
219.347 214.347 40 -0.93539 0.353096 0.0192129 
221 220.662 40 -0.989687 0.0820385 -0.11743 
221 227.662 40 -0.960971 0.126521 -0.246022 
223 233.833 40 -0.770122 0.365828 -0.522572 
227.125 239.125 40 -0.366476 0.510035 -0.778177 
232.934 242 40 -0.159698 0.403447 -0.900959 
238.782 244.782 40 0.124372 0.148139 -0.981115 
240 238.723 40 0.323358 0.0239076 -0.945975 
240 231.723 40 0.520161 -0.0229187 -0.85376 
240 224.723 40 0.650391 0.010955 -0.759521 
239.804 217.804 40 0.644392 -0.125713 -0.754291 
237.683 211.683 40 0.670652 -0.291991 -0.681885 
234.854 205.854 40 0.663245 -0.414276 -0.623283 
231 200.451 40 0.64803 -0.513118 -0.56282 
227.076 195.076 40 0.688986 -0.503514 -0.521317 
222.833 189.833 40 0.623311 -0.64374 -0.44394 
217.421 186 40 0.441944 -0.717293 -0.53868 
211.762 182.762 40 0.361234 -0.654576 -0.664108 
205.934 179.934 40 0.210027 -0.606378 -0.766938 
199.52 178.52 40 0.125721 -0.592021 -0.796056 
193.149 177 40 0.239493 -0.681328 -0.69169 
186.978 175 40 0.250666 -0.802805 -0.540991 
180.806 173 40 0.279395 -0.861808 -0.42335 
174.449 171.449 40 0.129523 -0.815825 -0.563607 
168.049 170 40 0.217096 -0.76833 -0.602112 
161.877 168 40 0.24234 -0.747529 -0.618443 
155.706 166 40 0.196996 -0.770511 -0.606222 
127 160 48 -0.208783 -0.862425 -0.461122 
121.243 163 48 -0.304188 -0.766233 -0.566001 
115.071 165 48 -0.456481 -0.70637 -0.540986 
110.808 170.192 48 -0.741757 -0.533728 -0.406116 
106.565 175.435 48 -0.821822 -0.542791 -0.173166 
103.737 181.263 48 -0.896166 -0.420587 0.141397 
100.908 187.092 48 -0.846196 -0.532554 -0.0183989 
98.8873 192 48 -0.908934 0.409132 -0.0803157 
105.059 194 48 -0.283098 0.957292 -0.0587226 
110.87 196.87 48 -0.49908 0.866541 0.00519446 
116.698 199.698 48 -0.446207 0.892537 -0.0654039 
122.234 203.234 48 -0.544147 0.800371 -0.251615 
127.77 206.77 48 -0.316569 0.895698 -0.312264 
134.184 208.184 48 -0.288278 0.876464 -0.385625 
140.017 211 48 -0.282954 0.814102 -0.507124 
147.017 211 48 0.137441 0.69286 -0.707852 
153.189 209 48 0.207184 0.512855 -0.8331 
158 205.64 48 0.59001 0.30801 -0.746337 
159.669 199.331 48 0.749553 0.199583 -0.631139 
162 193.296 48 0.794924 0.518026 -0.315823 
166.74 188.26 48 0.508776 0.860831 0.010818 
173.218 187 48 0.0363151 0.997449 -0.0614512 
180.218 187 48 0.0179452 0.985887 -0.166449 
187.218 187 48 -0.0443852 0.9822 -0.182519 
193.804 188 48 -0.326549 0.935118 -0.137549 
199.561 191 48 -0.525731 0.84341 -0.110755 
204.933 194.933 48 -0.642093 0.749462 -0.161317 
209.882 199.882 48 -0.734509 0.658685 -0.163187 
214 205.177 48 -0.814556 0.528503 -0.23913 
216.953 210.953 48 -0.893993 0.377306 -0.241693 
219 217.106 48 -0.961583 0.159465 -0.22345 
219 224.106 48 -0.975826 -0.0348466 -0.215752 
219 231.106 48 -0.975458 -0.0375271 -0.216966 
219 238.106 48 -0.968448 0.186281 -0.165552 
221.489 243.489 48 -0.724466 0.685058 -0.0764536 
227.024 247.024 48 -0.455668 0.855929 -0.244443 
232.56 250.56 48 -0.617604 0.734224 -0.281921 
237.803 254.803 48 -0.451044 0.87315 -0.184848 
243.924 255.076 48 0.62604 0.778583 -0.0433833 
246.045 248.955 48 0.902022 0.416551 -0.113323 
251.407 245 48 0.320457 0.829157 -0.458045 
257.579 243 48 0.145263 0.56645 -0.811192 
264.579 243 48 1.59465e-17 -1.21422e-16 -1 
271.579 243 48 0.186642 0.120617 -0.974995 
270.884 236.884 48 0.214863 -0.100267 -0.971484 
268 231.078 48 0.273665 -0.163253 -0.947869 
264 225.735 48 0.306802 -0.220445 -0.925893 
260.277 220.277 48 0.342574 -0.280446 -0.896656 
255.742 215.742 48 0.353817 -0.382507 -0.853523 
250.499 211.499 48 0.357486 -0.519595 -0.776031 
244.963 207.963 48 0.501457 -0.575624 -0.645909 
240.014 203.014 48 0.575938 -0.759145 -0.303307 
234.478 199.478 48 0.52071 -0.850143 0.0782165 
229.235 195.235 48 0.617435 -0.698301 0.362145 
223.993 190.993 48 0.551759 -0.672884 0.492737 
218.75 186.75 48 0.545158 -0.656539 0.521305 
213.508 182.508 48 0.50902 -0.720337 0.471183 
207.972 178.972 48 0.499138 -0.752626 0.429436 
202.437 175.437 48 0.455502 -0.835013 0.30866 
196.608 172.608 48 0.420347 -0.89452 0.152125 
190.688 170 48 0.262895 -0.962297 -0.0697909 
184.103 169 48 0.220267 -0.96408 -0.148431 
177.931 167 48 0.221884 -0.972753 -0.0672232 
171.345 166 48 0.138836 -0.990315 0.000456926 
164.759 165 48 0.160737 -0.980743 0.11094 
158.174 164 48 0.124426 -0.964891 0.231307 
151.588 163 48 0.255755 -0.934556 0.247374 
145.416 161 48 0.250455 -0.966217 0.0607976 
138.831 160 48 0.023369 -0.98219 -0.186429 
131.831 160 48 0.0548337 -0.927431 -0.369952 
130 174 56 -0.038441 -0.112138 0.992949 
124.243 177 56 -0.119295 -0.239593 0.963516 
118.636 180.364 56 -0.284242 -0.508363 0.81288 
113.101 183.899 56 -0.453488 -0.805914 0.380594 
107.565 187.435 56 -0.475558 -0.802985 0.359248 
102.029 190.971 56 -0.783548 0.0163096 0.621118 
103.799 193.799 56 -0.596987 0.682193 0.42216 
109 198.059 56 -0.641281 0.767303 0.00228206 
113.87 201.87 56 -0.555129 0.820495 -0.136451 
119.574 205 56 -0.404389 0.906051 -0.124664 
125.745 207 56 -0.29531 0.951023 -0.0913658 
131.917 209 56 -0.403087 0.879419 -0.253266 
137.477 212.477 56 -0.510708 0.71188 -0.482083 
143.012 216.012 56 -0.398143 0.605289 -0.68928 
147.962 220.962 56 -0.435941 0.32425 -0.839534 
150.79 226.79 56 -0.590983 0.114345 -0.798539 
152.205 233.205 56 -0.591422 0.439061 -0.676347 
157.461 236 56 -0.141167 0.98992 0.0114574 
164.326 235.674 56 0.358083 0.847632 0.391531 
168.139 232.139 56 0.829353 0.378232 0.411236 
168 225.196 56 0.884921 -0.303725 0.35308 
165 219.439 56 0.899118 -0.43729 -0.0190575 
163.189 213.189 56 0.896587 -0.0472459 -0.440339 
164 206.681 56 0.702239 0.306847 -0.642422 
168.468 201.532 56 0.390328 0.41924 -0.819684 
173.711 197.289 56 0.277132 0.364159 -0.889149 
179.348 194 56 0.112978 0.471128 -0.8748 
186.348 194 56 0.00115836 0.570886 -0.821029 
193.246 194.246 56 -0.176148 0.578661 -0.796319 
198.782 197.782 56 -0.402677 0.62249 -0.671087 
204.317 201.317 56 -0.484954 0.627997 -0.608637 
209.267 206.267 56 -0.641638 0.514383 -0.568956 
213 211.721 56 -0.759323 0.371053 -0.534554 
215 217.892 56 -0.847731 0.228067 -0.478892 
216.338 224.338 56 -0.928745 0.114014 -0.352751 
217 231.064 56 -0.972727 0.0799627 -0.217735 
218.459 237.459 56 -0.898036 0.384347 -0.214031 
222.702 242.702 56 -0.73264 0.66132 -0.160917 
226.945 247.945 56 -0.626636 0.773689 -0.0934475 
232.48 251.48 56 -0.479358 0.843503 0.242319 
238.437 254 56 0.0461167 0.874894 0.482114 
241.723 251.277 56 0.695732 0.54007 0.473584 
245.966 246.034 56 0.702419 0.597472 0.386827 
251.501 242.499 56 -0.0298112 0.187331 0.981844 
251.534 239 56 -0.187947 2.30169e-17 0.982179 
245.842 235.842 56 0.345496 -0.301293 0.888738 
240.892 230.892 56 0.394186 -0.328894 0.858165 
237 225.505 56 0.238579 -0.169799 0.956163 
233.821 219.821 56 -0.0727952 0.0964442 0.992673 
230.286 214.286 56 -0.210337 0.111877 0.971206 
226.043 209.043 56 0.719881 -0.41531 0.556137 
223 203.304 56 0.764513 -0.504136 0.401705 
218.972 197.972 56 0.54616 -0.630176 0.551894 
213.617 194 56 0.458895 -0.655613 0.599656 
208.274 190 56 0.365534 -0.584777 0.724169 
202.658 186.658 56 0.334875 -0.527576 0.780719 
197.174 183 56 0.265271 -0.439909 0.857969 
191.416 180 56 0.170261 -0.379931 0.909211 
185.466 177.466 56 0.109191 -0.379388 0.918772 
179.073 176 56 0.115334 -0.425893 0.897393 
172.638 174.638 56 0.0568949 -0.425122 0.903346 
165.902 174 56 0.0249108 -0.446611 0.894381 
158.902 174 56 0.0206368 -0.487283 0.873 
151.902 174 56 0.00105003 -0.513339 0.858186 
144.902 174 56 -0.0177646 -0.287125 0.957728 
137.902 174 56 0.0196252 -0.127766 0.99161 
152 181 64 -0.112101 -0.654736 0.747499 
147.05 185.95 64 -0.49977 -0.71075 0.495041 
140.899 188 64 -0.104747 -0.981913 0.15772 
133.899 188 64 0.0641944 -0.989668 0.128202 
127.314 187 64 0.23801 -0.95202 0.192379 
121.142 185 64 0.26006 -0.938543 0.226949 
114.971 183 64 0.276892 -0.949433 0.148014 
108.385 182 64 -0.276242 -0.960531 -0.0327221 
104.678 186.678 64 -0.931727 -0.208633 -0.297249 
107 192.716 64 -0.815972 0.572398 -0.0809321 
110.627 197.627 64 -0.746784 0.653801 0.121895 
115.87 201.87 64 -0.554924 0.827135 0.0889195 
121.406 205.406 64 -0.556921 0.817292 -0.147894 
126.648 209.648 64 -0.643753 0.603838 -0.470066 
130 215.26 64 -0.665876 0.271535 -0.694894 
132 221.431 64 -0.629352 0.209832 -0.748256 
134 227.603 64 -0.706661 0.236017 -0.667028 
137 233.36 64 -0.556941 0.645054 -0.523184 
142.532 236 64 -0.351782 0.866071 -0.355205 
148.704 238 64 0.164725 0.986201 -0.0165393 
154.033 233.967 64 0.597232 0.755596 0.26905 
159 229.61 64 0.660216 0.62213 0.420795 
162 223.853 64 0.912147 0.240583 0.331826 
164 217.681 64 0.889967 0.431356 -0.147953 
168.468 212.532 64 0.459307 0.669418 -0.583881 
174.296 209.704 64 0.377373 0.61436 -0.69293 
179.539 205.461 64 0.43108 0.55641 -0.710336 
185.368 202.632 64 0.186767 0.707987 -0.681082 
192.106 202 64 -0.0547759 0.772104 -0.633131 
198.489 203.489 64 -0.363015 0.712542 -0.60042 
203.731 207.731 64 -0.588247 0.580597 -0.562914 
208 212.963 64 -0.723892 0.47035 -0.504729 
211 218.721 64 -0.828371 0.313051 -0.464545 
213 224.892 64 -0.854284 0.274656 -0.441321 
215 231.064 64 -0.909998 0.153919 -0.384984 
215 238.064 64 -0.916704 -0.095726 -0.387931 
215 245.064 64 -0.821067 0.478969 -0.310545 
219.65 248 64 -0.281743 0.930331 -0.234746 
226.235 249 64 -0.107275 0.990903 -0.0812627 
233.235 249 64 -0.0713355 0.997443 0.00438743 
239.821 250 64 -0.248401 0.952958 -0.173686 
245.702 252.702 64 0.0615228 0.950477 -0.304646 
250 250.421 64 0.35463 0.545625 -0.759297 
253.945 245.055 64 -0.0388892 -0.452949 -0.890688 
258.773 241.227 64 -0.925236 -0.377564 0.0371944 
256 235.563 64 -0.780522 0.455551 0.428087 
254 229.392 64 -0.656098 0.374238 0.655349 
249.034 225.034 64 -0.491659 0.615682 0.615798 
244.085 220.085 64 -0.535122 0.527581 0.659775 
238.842 215.842 64 -0.395172 0.563372 0.72557 
233.434 212 64 -0.308941 0.271485 0.91151 
228.064 208.064 64 0.485427 -0.504212 0.714235 
223.235 204.235 64 0.519966 -0.730073 0.443429 
217.7 200.7 64 0.493577 -0.743603 0.45104 
212.164 197.164 64 0.368811 -0.789009 0.49137 
206.061 195 64 0.307384 -0.782223 0.541888 
200.304 192 64 0.399556 -0.733098 0.550384 
194.386 189.386 64 0.233435 -0.777998 0.583289 
187.972 187.972 64 0.170712 -0.781839 0.599654 
181.789 186 64 0.271278 -0.726173 0.631729 
175.617 184 64 0.124546 -0.724579 0.677845 
168.729 183.729 64 0.0393455 -0.720405 0.692437 
162.032 183 64 0.083206 -0.699451 0.70982 
155.446 182 64 0.240933 -0.638285 0.731125 
108 186 72 -0.0263861 -0.986194 0.163481 
101.879 188.121 72 -0.928792 -0.370058 -0.0200507 
101.929 191 72 -0.892699 0.45005 -0.0233028 
107.485 194.485 72 -0.538246 0.838691 -0.0829918 
112 199.615 72 -0.759015 0.612465 -0.220867 
116.678 204.678 72 -0.695404 0.572353 -0.43454 
120.213 210.213 72 -0.707351 0.397784 -0.584314 
123 216.059 72 -0.759756 0.289484 -0.582211 
125.163 222.163 72 -0.770389 0.374509 -0.515989 
128.698 227.698 72 -0.763107 0.461616 -0.452304 
132.234 233.234 72 -0.643696 0.656133 -0.393884 
138.062 236.062 72 -0.341296 0.864262 -0.369552 
144.26 238 72 -0.00774361 0.923141 -0.384384 
150.431 236 72 0.378034 0.856328 -0.351841 
156.426 233.574 72 0.304892 0.790228 -0.531584 
162.36 231 72 0.568364 0.489617 -0.661239 
163.962 225.038 72 0.717515 0.273887 -0.640436 
168.289 220 72 0.338458 0.601075 -0.723985 
174.619 218.381 72 0.178727 0.661661 -0.728191 
180.632 216 72 0.282882 0.592618 -0.754177 
186.569 213.431 72 0.182582 0.514158 -0.838037 
193.39 213 72 -0.0755759 0.504575 -0.860053 
199.561 215 72 -0.258314 0.485289 -0.835325 
204.64 219.64 72 -0.56746 0.350948 -0.744865 
207.468 225.468 72 -0.710665 0.317597 -0.627763 
210.296 231.296 72 -0.785237 0.346012 -0.513496 
212.418 237.418 72 -0.951573 0.219717 -0.21502 
214.125 243.125 72 -0.846063 0.513685 0.142496 
219.66 246.66 72 -0.386585 0.912633 0.132863 
225.691 249 72 -0.383194 0.906899 -0.175205 
231.61 251.61 72 -0.279189 0.869203 -0.408093 
238.034 253 72 -0.0174556 0.913307 -0.406898 
244.62 252 72 -0.0380235 0.97069 -0.237308 
251.206 253 72 -0.0649763 0.954836 -0.289943 
258.206 253 72 -0.000258904 0.904686 -0.426079 
265.206 253 72 0.166763 0.968841 -0.183132 
270 250.208 72 0.870124 0.385936 0.306492 
267.733 244.733 72 0.703662 -0.691041 0.165295 
262.197 241.197 72 0.39218 -0.890996 -0.228737 
256.369 238.369 72 0.337093 -0.857612 -0.388419 
250.35 236 72 0.311078 -0.891635 -0.328964 
244.419 233.419 72 0.413978 -0.905147 -0.0965949 
238.591 230.591 72 0.483429 -0.872046 0.0763643 
233.055 227.055 72 0.570689 -0.791664 0.218131 
227.813 222.813 72 0.570389 -0.695196 0.437447 
222.57 218.57 72 0.458734 -0.559508 0.6903 
217.327 214.327 72 0.338727 -0.432748 0.83546 
212.085 210.085 72 0.270371 -0.401539 0.875024 
206.549 206.549 72 0.248363 -0.387188 0.88792 
201.014 203.014 72 0.211431 -0.423127 0.881056 
195.262 200 72 0.225371 -0.420044 0.879074 
189.357 197.357 72 0.200019 -0.472086 0.858561 
183.235 195.235 72 0.144272 -0.558772 0.816676 
176.747 194 72 0.117926 -0.624058 0.772428 
170.161 193 72 0.104022 -0.685462 0.72064 
163.576 192 72 0.0931346 -0.706235 0.701825 
156.99 191 72 0.160208 -0.714231 0.681328 
150.579 189.579 72 0.150351 -0.813007 0.562507 
144.233 188 72 0.188338 -0.943256 0.273489 
137.647 187 72 0.0594926 -0.99637 0.0608882 
130.647 187 72 0.109255 -0.993953 0.0109553 
124.061 186 72 0.0997314 -0.99467 0.0261683 
117.061 186 72 0.0443199 -0.985311 0.164915 
98 178 80 -0.571571 6.99973e-17 -0.820552 
101.536 183.536 80 -0.466266 5.71011e-17 -0.884645 
103 189.929 80 -0.877054 0.429712 -0.214764 
107.192 195.192 80 -0.735967 0.663895 -0.132649 
110.728 200.728 80 -0.875294 0.475308 -0.089128 
113.556 206.556 80 -0.892634 0.404726 -0.198495 
116.385 212.385 80 -0.839056 0.485967 -0.244583 
120 217.887 80 -0.857509 0.493252 -0.146226 
122.749 223.749 80 -0.893736 0.437459 -0.0993228 
126 229.402 80 -0.829772 0.530895 -0.17213 
129.82 234.82 80 -0.784644 0.583555 -0.209279 
133.648 239.648 80 -0.638324 0.676537 -0.367205 
139.184 243.184 80 -0.389599 0.701357 -0.596918 
145.017 246 80 -0.191308 0.662896 -0.723858 
151.426 246.574 80 0.0542324 0.614124 -0.787344 
157.548 244.452 80 0.37126 0.472231 -0.799478 
162 239.296 80 0.511228 0.49956 -0.699346 
166.74 234.26 80 0.575567 0.526323 -0.625865 
171.69 229.31 80 0.442869 0.533111 -0.720874 
177.319 226 80 0.292257 0.630501 -0.719065 
183.347 223.653 80 0.178217 0.666675 -0.723729 
190.076 223 80 -0.0312685 0.64954 -0.759684 
196.468 224.468 80 -0.290587 0.583724 -0.758172 
201.711 228.711 80 -0.542991 0.464261 -0.69973 
206 233.934 80 -0.600968 0.522388 -0.604936 
210.903 238.903 80 -0.684938 0.563702 -0.461628 
214.731 243.731 80 -0.710095 0.581738 -0.396669 
219.681 248.681 80 -0.564843 0.62275 -0.541419 
224.892 253 80 -0.4085 0.771545 -0.487694 
231.064 255 80 -0.148005 0.93273 -0.328798 
237.65 256 80 -0.25511 0.910702 -0.32487 
243.874 257.874 80 -0.0345873 0.913729 -0.40485 
250.407 257 80 0.144885 0.94936 -0.278791 
257.407 257 80 -0.194208 0.959272 -0.205137 
263.993 258 80 0.368816 0.920959 -0.125735 
267 253.421 80 0.911561 0.370777 -0.177712 
269 247.25 80 0.94326 0.11491 -0.311537 
268 240.664 80 0.7843 -0.563207 -0.260138 
263.348 237.348 80 0.330504 -0.939941 -0.0853144 
256.907 236 80 0.164381 -0.985312 -0.0462425 
250.321 235 80 0.159205 -0.986569 -0.0365521 
243.813 233.813 80 0.249624 -0.968311 0.00788693 
237.691 231.691 80 0.400837 -0.915998 -0.0166476 
231.863 228.863 80 0.457742 -0.88741 0.0545494 
226.034 226.034 80 0.420116 -0.901307 0.105584 
220.206 223.206 80 0.46666 -0.878831 0.0994259 
214.534 220 80 0.452694 -0.874389 0.174679 
208.842 216.842 80 0.511046 -0.819417 0.259592 
203.307 213.307 80 0.415638 -0.839847 0.349145 
197.262 211 80 0.343758 -0.854697 0.389004 
191.505 208 80 0.399802 -0.808042 0.432696 
185.528 205.528 80 0.367257 -0.83642 0.406846 
179.7 202.7 80 0.393543 -0.793264 0.464602 
173.818 200 80 0.341657 -0.832663 0.435824 
167.647 198 80 0.203175 -0.901402 0.382353 
161.061 197 80 0.174867 -0.955966 0.235693 
154.629 195.629 80 0.2625 -0.951793 0.158696 
148.304 194 80 0.220965 -0.918895 0.326811 
142.132 192 80 0.199057 -0.802557 0.562387 
135.679 190.679 80 0.157235 -0.789346 0.593473 
129.375 189 80 0.253202 -0.841296 0.477607 
123.144 187.144 80 0.21613 -0.935489 0.279549 
116.617 186 80 0.233477 -0.972335 -0.0073389 
110.446 184 80 0.275976 -0.914892 -0.294636 
104.274 182 80 0.20472 -0.543268 -0.814217 
94 172 88 -0.757615 9.2781e-17 -0.652702 
95 178.586 88 -0.933168 0.055521 -0.355126 
96.1213 185.121 88 -0.875047 0.442658 -0.195821 
100.364 190.364 88 -0.736692 0.66779 -0.106496 
105.314 195.314 88 -0.621515 0.783381 -0.00575471 
110.849 198.849 88 -0.668712 0.717581 0.194685 
114 204.544 88 -0.881158 0.29651 0.368296 
116 210.716 88 -0.827273 0.420381 0.372692 
120 216.059 88 -0.76543 0.54345 0.344644 
123 221.816 88 -0.869296 0.391903 0.301225 
125.698 227.698 88 -0.861171 0.433047 0.266187 
129 233.331 88 -0.823719 0.532063 0.195947 
132.77 238.77 88 -0.818171 0.561523 0.123644 
136.305 244.305 88 -0.791617 0.60942 0.0441672 
141.255 249.255 88 -0.588725 0.804532 -0.0782998 
147.083 252.083 88 -0.254306 0.935507 -0.245266 
153.704 253 88 -0.117069 0.895822 -0.428715 
160.704 253 88 0.35907 0.655767 -0.664107 
164.326 247.674 88 0.619497 0.379368 -0.687243 
168.569 242.431 88 0.449399 0.539271 -0.712199 
174.147 239 88 0.351546 0.535416 -0.767948 
179.64 235.36 88 0.233473 0.542893 -0.806695 
186.49 235 88 -0.0699544 0.522875 -0.849534 
192.761 236.761 88 -0.210917 0.436945 -0.87441 
198.004 241.004 88 -0.411982 0.254751 -0.874856 
201 246.762 88 -0.420529 0.335011 -0.843162 
206 251.106 88 -0.421759 0.44549 -0.78972 
210.196 255.196 88 -0.396487 0.617295 -0.679518 
216.449 257 88 -0.103775 0.770324 -0.629151 
223.449 257 88 -0.0159377 0.827952 -0.560572 
230.449 257 88 -0.0138141 0.913344 -0.406954 
237.034 258 88 -0.29304 0.907055 -0.30229 
243.146 259.854 88 0.142386 0.983614 -0.110591 
248.974 257.026 88 0.382794 0.916535 0.115894 
255.549 256 88 0.0696494 0.97064 0.230231 
262.135 255 88 0.1465 0.929417 0.338707 
268.721 254 88 0.274541 0.958626 -0.0752552 
274.892 252 88 0.117122 0.749477 -0.651587 
281.338 252.662 88 -0.00486954 0.628329 -0.777933 
279.955 247.955 88 0.188695 -0.485044 -0.853889 
274.419 244.419 88 0.424617 -0.808902 -0.406668 
268.421 242 88 0.332208 -0.92285 0.194901 
262.25 240 88 0.252838 -0.85327 0.456074 
256.078 238 88 0.364053 -0.839137 0.404122 
250.227 235.227 88 0.285332 -0.921072 0.264977 
243.813 233.813 88 0.30557 -0.935132 0.17932 
237.984 230.984 88 0.381027 -0.908451 0.17186 
231.863 228.863 88 0.319268 -0.906056 0.277723 
226.034 226.034 88 0.425598 -0.829482 0.361698 
220.206 223.206 88 0.359099 -0.857007 0.369578 
214.12 221 88 0.309536 -0.8428 0.440313 
208.256 218.256 88 0.427882 -0.815928 0.388817 
202.428 215.428 88 0.391794 -0.838179 0.379411 
196.434 213 88 0.272764 -0.886691 0.373335 
190.262 211 88 0.371404 -0.821447 0.432763 
184.505 208 88 0.334142 -0.836535 0.434233 
178.333 206 88 0.343418 -0.809168 0.476771 
172.576 203 88 0.374735 -0.807086 0.456274 
166.404 201 88 0.286963 -0.854244 0.433497 
160.457 198.457 88 0.406094 -0.837839 0.364848 
154.629 195.629 88 0.292298 -0.934944 0.201102 
147.922 195.078 88 -0.0601165 -0.984446 0.16508 
141.304 196 88 -0.00772695 -0.993672 0.112057 
134.718 195 88 0.271153 -0.960225 0.0666574 
128.679 192.679 88 0.398175 -0.913122 0.0875527 
122.851 189.851 88 0.491734 -0.870519 0.0198754 
117.315 186.315 88 0.470333 -0.875498 -0.110865 
111.487 183.487 88 0.409018 -0.893435 -0.185683 
105.658 180.658 88 0.443072 -0.877034 -0.185737 
100.174 177 88 0.663146 -0.698451 -0.26908 
96 175 96 -0.287206 0.15446 0.945333 
98 181.172 96 -0.430993 0.098051 0.897012 
100.95 186.95 96 -0.582154 0.384114 0.716626 
105 192.272 96 -0.69602 0.565289 0.442724 
109.728 196.728 96 -0.596466 0.786996 0.157686 
114.971 200.971 96 -0.746632 0.658547 0.0941118 
118.506 206.506 96 -0.907635 0.389921 0.155434 
121 212.473 96 -0.917213 0.390017 0.0812844 
123.456 218.456 96 -0.920976 0.388152 -0.0337699 
126.284 224.284 96 -0.903159 0.422029 -0.078712 
129 230.159 96 -0.929318 0.356954 -0.0946156 
131.234 236.234 96 -0.848726 0.467788 -0.246656 
135.477 241.477 96 -0.748749 0.626507 -0.216481 
139.719 246.719 96 -0.729849 0.673318 -0.118165 
144.36 251 96 -0.551899 0.829358 -0.0870194 
150.118 254 96 -0.421607 0.880807 -0.215469 
155.875 257 96 -0.406437 0.792929 -0.453952 
162.047 259 96 0.0624432 0.780169 -0.622445 
167.804 256 96 0.333937 0.549969 -0.76552 
173.69 253.31 96 0.222022 0.447038 -0.866524 
179.319 250 96 0.19084 0.379481 -0.905303 
185.905 249 96 -0.0925488 0.383321 -0.918966 
191.468 252.468 96 -0.313122 0.401271 -0.860776 
197.005 256 96 -0.254385 0.551811 -0.794224 
203.177 258 96 -0.231436 0.656279 -0.718147 
209.246 260.246 96 -0.266324 0.694243 -0.668654 
215.368 262.368 96 -0.207635 0.67391 -0.709037 
221.691 264 96 -0.0907783 0.714308 -0.693918 
228.691 264 96 0.190948 0.805187 -0.561438 
234.863 262 96 0.173306 0.881257 -0.439716 
241.449 261 96 0.308993 0.943526 -0.119508 
247.206 258 96 0.401386 0.901996 -0.159034 
253.56 256.44 96 0.218371 0.921285 -0.32179 
259.681 254.319 96 0.362064 0.917364 -0.165388 
266.135 253 96 0.0958189 0.991941 0.0828981 
272.51 251.49 96 0.33947 0.74355 0.576103 
278.478 249 96 -0.136537 0.0271264 0.990263 
284.65 247 96 0.161151 -0.809827 0.564101 
280.35 247 96 -0.138947 -0.44343 0.885474 
273.765 246 96 0.279409 -0.601042 0.748785 
266.765 246 96 -0.0149991 -0.785978 0.618072 
260.419 244.419 96 0.310441 -0.738711 0.598275 
254.421 242 96 0.329273 -0.748235 0.575955 
248.47 239.47 96 0.303396 -0.740885 0.5992 
242.348 237.348 96 0.287419 -0.775795 0.561722 
236.321 235 96 0.272777 -0.803333 0.529385 
229.735 234 96 0.0563578 -0.922175 0.382645 
222.735 234 96 0.0911845 -0.991378 0.0940991 
216.398 232.398 96 0.304793 -0.950273 0.0638889 
210.277 230.277 96 0.324223 -0.906517 0.270381 
204.449 227.449 96 0.318068 -0.665916 0.674825 
198.62 224.62 96 0.233979 -0.48192 0.844398 
192.792 221.792 96 0.226279 -0.442893 0.86755 
187.256 218.256 96 0.309137 -0.462497 0.830982 
181.605 215 96 0.3006 -0.583589 0.754363 
175.892 211.892 96 0.392875 -0.646179 0.654295 
170.357 208.357 96 0.480557 -0.685601 0.546824 
164.747 205 96 0.367868 -0.84654 0.384764 
158.7 202.7 96 0.443081 -0.841864 0.308129 
153.164 199.164 96 0.516638 -0.841494 0.158028 
147.336 196.336 96 0.372347 -0.913962 -0.161345 
141.508 193.508 96 0.346658 -0.813836 -0.466368 
135.546 191 96 0.269517 -0.743287 -0.612279 
129.558 188.558 96 0.361965 -0.639647 -0.678109 
124.022 185.022 96 0.30458 -0.677843 -0.669149 
117.86 183 96 0.297198 -0.765687 -0.570435 
112.073 180.073 96 0.304342 -0.874436 -0.377807 
105.658 178.658 96 0.114509 -0.967334 0.226169 
99.3452 177 96 0.196067 -0.200194 0.959938 
107 174 104 -0.38667 -4.73534e-17 -0.922218 
108 180.586 104 -0.997276 1.22131e-16 -0.0737614 
108 187.586 104 -0.963797 0.0127664 0.266332 
109 194.172 104 -0.88169 0.445705 0.154823 
113.364 199.364 104 -0.749203 0.661766 0.0275961 
117 204.858 104 -0.859443 0.501739 0.0980632 
120 210.615 104 -0.874857 0.431633 0.219816 
122.556 216.556 104 -0.921829 0.283444 0.264368 
124 222.958 104 -0.95405 0.238812 0.180992 
126.092 229.092 104 -0.911427 0.39048 0.129713 
128.92 234.92 104 -0.935734 0.315368 0.157941 
131.042 241.042 104 -0.88259 0.465379 0.0667643 
135.284 246.284 104 -0.657066 0.753774 0.00947698 
140.745 250 104 -0.526912 0.847184 0.0681365 
146.355 253.355 104 -0.518082 0.852184 0.0733093 
151.846 257 104 -0.623039 0.780477 0.0517504 
157.189 261 104 -0.421655 0.900116 0.109535 
163.548 262.548 104 -0.188984 0.978514 0.08244 
169.946 264 104 -0.118569 0.974346 -0.191291 
176.946 264 104 0.0116051 0.872762 -0.488007 
183.946 264 104 -0.0562561 0.72594 -0.685454 
190.532 265 104 -0.170918 0.675506 -0.717272 
196.704 267 104 -0.214902 0.675812 -0.70505 
202.875 269 104 -0.288979 0.672187 -0.681657 
208.74 271.74 104 -0.2192 0.767698 -0.602155 
215.632 272 104 0.0795728 0.86162 -0.501278 
222.154 270.846 104 0.287458 0.857172 -0.427344 
227.976 268 104 0.341344 0.858672 -0.382317 
234.104 265.896 104 0.332332 0.830531 -0.446961 
239.933 263.067 104 0.39043 0.83478 -0.388211 
246.076 261 104 0.133179 0.865864 -0.482227 
253.076 261 104 0.114833 0.873987 -0.472187 
259.248 259 104 0.424508 0.834723 -0.350758 
265.004 255.996 104 0.409083 0.876538 -0.253638 
270.539 252.461 104 0.835388 0.548599 -0.0341425 
271.066 251 104 0.993784 0.101301 -0.0461726 
264.894 249 104 -0.0550568 -0.983855 -0.170286 
258.511 247.511 104 0.391951 -0.909875 -0.136025 
252.39 245.39 104 0.368081 -0.918229 -0.146191 
246.561 242.561 104 0.433764 -0.897916 -0.0748087 
240.622 240 104 0.417008 -0.904839 -0.0858557 
234.905 236.905 104 0.538637 -0.822616 -0.182134 
229.662 232.662 104 0.547782 -0.768259 -0.33123 
224.179 229 104 0.409434 -0.718976 -0.561638 
218.591 225.591 104 0.394776 -0.592226 -0.702439 
213.055 222.055 104 -0.194733 2.38479e-17 -0.980856 
207.813 217.813 104 -0.282427 0.685764 -0.670792 
201.984 214.984 104 -0.367688 0.736041 -0.568375 
196.22 212 104 -0.370164 0.679363 -0.633596 
190.62 208.62 104 -0.388287 0.527693 -0.755496 
185.378 204.378 104 -0.270763 0.403439 -0.874028 
179.549 201.549 104 -0.118651 0.29832 -0.947062 
173.721 198.721 104 -0.061798 0.120845 -0.990746 
168.185 195.185 104 3.92691e-17 -1.15998e-16 -1 
162.65 191.65 104 0.0350364 -0.050235 -0.998123 
157.114 188.114 104 0.0500464 -0.112892 -0.992346 
150.993 185.993 104 0.0464743 -0.114986 -0.992279 
145.164 183.164 104 -5.29127e-17 1.10444e-16 -1 
139.336 180.336 104 -4.49868e-17 1.13903e-16 -1 
133.304 178 104 0.0496417 -0.255736 -0.965471 
126.718 177 104 0.0754217 -0.524166 -0.84827 
120.132 176 104 0.0887969 -0.666473 -0.740223 
113.546 175 104 0.168688 -0.588616 -0.790617 
110 177 112 -0.143162 0.478681 0.866238 
110.707 183.707 112 -0.395955 -0.0921478 0.913635 
111.414 190.414 112 -0.687857 -0.0829321 0.721093 
112 197.172 112 -0.863779 0.498225 0.0752168 
116.657 201.657 112 -0.636909 0.764247 0.101358 
121.607 206.607 112 -0.80678 0.552366 0.209758 
125.142 212.142 112 -0.861982 0.453694 0.226161 
128 217.958 112 -0.883202 0.318216 0.344517 
130 224.13 112 -0.822104 0.32372 0.468348 
132.92 229.92 112 -0.808792 0.343085 0.477649 
135.042 236.042 112 -0.787464 0.277649 0.550284 
138 241.816 112 -0.635912 0.484194 0.600975 
142.82 246.82 112 -0.559319 0.657754 0.504502 
148.062 251.062 112 -0.54785 0.722385 0.421924 
153.431 255 112 -0.547313 0.756578 0.357823 
159.189 258 112 -0.346323 0.900462 0.263114 
165.36 260 112 -0.370916 0.927653 0.0433807 
171.083 263.083 112 -0.503831 0.854407 -0.127054 
176.619 266.619 112 -0.48371 0.767606 -0.420482 
182.154 270.154 112 -0.323528 0.71768 -0.616656 
188.276 272.276 112 -0.210343 0.666364 -0.715342 
194.561 274 112 -0.144873 0.645574 -0.74983 
201.147 275 112 -0.138213 0.658076 -0.740157 
207.733 276 112 0.0084446 0.750918 -0.660341 
214.319 275 112 0.138435 0.853191 -0.502893 
220.905 274 112 0.22762 0.845489 -0.48305 
227.076 272 112 0.161658 0.816997 -0.553519 
234.076 272 112 0.0981201 0.751222 -0.652716 
240.248 270 112 0.255023 0.678337 -0.689074 
246.419 268 112 0.170122 0.678073 -0.715035 
252.591 266 112 0.368821 0.68811 -0.62488 
257.953 262.047 112 0.499066 0.74936 -0.435193 
263.489 258.511 112 0.555654 0.731357 -0.39543 
268.62 254 112 0.554767 0.719878 -0.417144 
274.267 250.733 112 0.5208 0.597558 -0.609665 
279.307 246 112 0.20004 0.187773 -0.961626 
282.936 243 112 -9.04468e-17 -8.2565e-17 -1 
275.936 243 112 0.0454611 -0.367697 -0.928834 
268.936 243 112 -0.0338814 -0.686699 -0.726152 
261.955 242.955 112 0.150309 -0.728205 -0.668674 
255.765 241 112 0.205601 -0.842615 -0.497724 
249.179 240 112 0.171711 -0.921455 -0.348478 
243.007 238 112 0.41472 -0.882438 -0.222058 
237.25 235 112 0.433625 -0.892678 -0.12286 
231.348 232.348 112 0.468844 -0.879541 0.0811982 
225.813 228.813 112 0.493398 -0.830745 0.257724 
219.978 226 112 0.392404 -0.84663 0.359496 
213.806 224 112 0.212939 -0.917911 0.334809 
208.034 221.034 112 -0.218642 0.871225 -0.439502 
201.913 218.913 112 -0.393019 0.827566 -0.400836 
196.085 216.085 112 -0.374236 0.8717 -0.316366 
189.963 213.963 112 -0.309697 0.892975 -0.326625 
183.842 211.842 112 -0.272003 0.881218 -0.386612 
177.605 210 112 -0.302112 0.892696 -0.3344 
171.434 208 112 -0.205884 0.972977 -0.104534 
164.892 206.892 112 -0.266134 0.944555 0.192325 
159.09 204 112 -0.425375 0.834953 0.349155 
152.943 201.943 112 -0.201478 0.769467 0.606076 
147.161 199 112 -0.403459 0.490939 0.77214 
142.164 194.164 112 -0.490703 0.556741 0.670262 
136.629 190.629 112 -0.314828 0.688072 0.65379 
130.718 188 112 -0.264422 0.540386 0.798789 
124.96 185 112 -0.203335 0.351925 0.913676 
119.203 182 112 -0.0649552 0.140152 0.987997 
113.608 178.608 112 -0.167848 0.155895 0.973408 
112 175 120 -0.179732 0.829403 -0.528949 
106.464 178.536 120 0.611656 0.32746 -0.720171 
105 184.929 120 0.545987 0.0253518 -0.83741 
106 191.515 120 0.331387 -0.236133 -0.913468 
104.485 197.485 120 -0.309798 0.509389 -0.802837 
110.029 201 120 -0.440528 0.625926 -0.643546 
115.556 204.556 120 -0.499648 0.67699 -0.540403 
120.506 209.506 120 -0.757696 0.534254 -0.374792 
124.042 215.042 120 -0.804398 0.556863 -0.206995 
128.284 220.284 120 -0.815278 0.562936 -0.135737 
131.82 225.82 120 -0.836673 0.542743 0.0735444 
135.355 231.355 120 -0.831327 0.509869 0.221198 
138.891 236.891 120 -0.755127 0.542816 0.367607 
143.134 242.134 120 -0.687287 0.605974 0.40054 
148.083 247.083 120 -0.593275 0.710728 0.378009 
153.326 251.326 120 -0.689332 0.657164 0.304889 
157.569 256.569 120 -0.705308 0.69644 0.132332 
162.397 260.397 120 -0.579393 0.814664 -0.0250498 
167.64 264.64 120 -0.684395 0.696007 -0.217206 
172.589 269.589 120 -0.589201 0.750998 -0.298066 
178.125 273.125 120 -0.494343 0.846951 -0.195702 
183.66 276.66 120 -0.541614 0.818791 -0.190356 
189.196 280.196 120 -0.461008 0.847639 -0.262642 
195.034 283 120 -0.450929 0.813443 -0.367388 
200.56 286.56 120 -0.495904 0.739597 -0.455055 
206.095 290.095 120 -0.399724 0.716562 -0.571629 
212.307 292 120 -0.0608898 0.590876 -0.804461 
218.631 290.369 120 0.253489 0.337748 -0.90646 
223.874 286.126 120 0.184711 0.371944 -0.909692 
229.995 284.005 120 0.247753 0.441596 -0.862329 
235.238 279.762 120 0.330952 0.490806 -0.805965 
241.066 276.934 120 0.200812 0.6907 -0.6947 
247.48 275.52 120 0.285444 0.836267 -0.468166 
253.309 272.691 120 0.59476 0.767436 -0.239378 
258.365 268 120 0.550749 0.813057 -0.188713 
264.087 264.913 120 0.564949 0.788072 -0.244488 
268.622 260.378 120 0.708824 0.679783 -0.188318 
273.572 255.428 120 0.738384 0.673129 0.0410562 
277.108 249.892 120 0.776029 0.490608 0.396336 
281.495 245 120 0.357985 0.582048 0.730114 
286.593 240.407 120 0.563494 -0.21581 0.797434 
283.404 238 120 0.170873 -0.767105 0.618347 
276.404 238 120 -0.0970253 -0.928096 0.359479 
269.818 239 120 -0.158291 -0.976966 0.143113 
263.233 240 120 -0.0887019 -0.982979 0.160884 
256.233 240 120 0.0440704 -0.971634 0.232346 
249.233 240 120 0.0634724 -0.979245 0.192484 
242.75 238.75 120 0.337001 -0.920241 0.198964 
236.889 236 120 0.397938 -0.89889 0.183419 
230.718 234 120 0.282913 -0.951169 0.123439 
224.546 232 120 0.335258 -0.916951 0.21634 
218.558 229.558 120 0.36427 -0.815829 0.449144 
212.729 226.729 120 0.210271 -0.545798 0.811104 
206.901 223.901 120 -0.28843 0.785466 0.547588 
201.103 221 120 -0.480949 0.860757 0.166689 
195.537 217.537 120 -0.467911 0.883681 0.0129227 
189.588 215 120 -0.333214 0.941899 0.042368 
183.416 213 120 -0.282669 0.95736 0.059658 
177.245 211 120 -0.403503 0.909789 0.0973135 
171.638 207.638 120 -0.541792 0.829202 0.137421 
166.102 204.102 120 -0.445663 0.8409 0.307036 
160.274 201.274 120 -0.464895 0.826852 0.316526 
154.738 197.738 120 -0.519122 0.779649 0.350228 
149.202 194.202 120 -0.456238 0.846984 0.272883 
143.374 191.374 120 -0.434269 0.89615 0.0912447 
137.546 188.546 120 -0.391656 0.917528 -0.0688983 
131.6 186 120 -0.418134 0.883027 -0.213137 
125.889 182.889 120 -0.486272 0.80464 -0.340725 
120.353 179.353 120 -0.488 0.757314 -0.433971 
114.742 176 120 -0.377001 0.776993 -0.504135 
115 187 128 -0.0743988 0.591153 -0.80312 
109.464 190.536 128 0.857485 0.480909 0.182884 
107 195.101 128 0.491287 0.383873 0.781843 
111.192 199.192 128 -0.439297 5.37984e-17 0.898342 
115 204.615 128 -0.545636 0.646973 0.532641 
119.787 208 128 -0.477986 0.72035 0.502618 
125.092 212.092 128 -0.652189 0.456204 0.605416 
127.92 217.92 128 -0.787416 0.46781 0.40141 
132.163 223.163 128 -0.731227 0.606157 0.312859 
136.406 228.406 128 -0.740342 0.620933 0.257557 
141.355 233.355 128 -0.667893 0.67255 0.318741 
145.598 238.598 128 -0.666333 0.545806 0.508032 
149.841 243.841 128 -0.741216 0.571331 0.352391 
154.083 249.083 128 -0.820639 0.570031 0.0402027 
157.619 254.619 128 -0.791041 0.611761 -0.00151042 
162.569 259.569 128 -0.704642 0.704001 -0.0886721 
166.811 264.811 128 -0.823999 0.510792 -0.245189 
170.49 270 128 -0.612995 0.720648 -0.323888 
176.468 272.468 128 -0.313401 0.937362 -0.152091 
182.296 275.296 128 -0.522249 0.852772 -0.00608074 
187.762 279 128 -0.601911 0.798321 -0.0196478 
193.075 283.075 128 -0.581728 0.796751 -0.163647 
198.61 286.61 128 -0.468528 0.874452 -0.125757 
204.146 290.146 128 -0.686004 0.724976 -0.061713 
208 295.549 128 -0.761596 0.46049 -0.455983 
211 301.307 128 -0.583635 0.315048 -0.748408 
214.752 306.752 128 -0.433931 0.502295 -0.747933 
220.288 310.288 128 -0.214654 0.567802 -0.794685 
226.579 310 128 0.296969 0.460102 -0.836729 
229.823 305.177 128 0.579243 0.174287 -0.796305 
230 298.25 128 0.641492 0.118805 -0.757874 
233.359 292.641 128 0.569392 0.523258 -0.63403 
238.437 288 128 0.530944 0.708831 -0.464389 
243.137 283.863 128 0.809369 0.555005 -0.19207 
246 278.049 128 0.877971 0.42843 0.213578 
249 272.291 128 0.714323 0.341181 0.611014 
251 266.12 128 0.53319 0.177157 0.827239 
253.744 260.256 128 0.267261 0.141158 0.953229 
255.158 253.842 128 0.120881 -0.067033 0.990401 
252 248.848 128 0.337244 -0.129109 0.932522 
249.064 243.064 128 0.348719 -0.569047 0.744702 
242.943 240.943 128 0.377469 -0.818319 0.43344 
237.407 237.407 128 0.591817 -0.79307 0.144198 
232.164 233.164 128 0.604442 -0.757516 -0.246614 
226.889 229 128 0.389784 -0.561625 -0.729826 
221.093 226.093 128 -8.37872e-17 8.93158e-17 -1 
215.265 223.265 128 -0.289486 0.721403 -0.629107 
209.203 221 128 -0.303257 0.945668 -0.117245 
203.022 219.022 128 -0.292496 0.939062 0.180576 
196.86 217 128 -0.394269 0.894705 0.209891 
191.073 214.073 128 -0.376068 0.900215 0.219515 
184.931 212 128 -0.363609 0.888012 0.281466 
179.123 209.123 128 -0.337937 0.877038 0.341471 
173.002 207 128 -0.465191 0.845316 0.262749 
167.659 203 128 -0.539173 0.817648 0.201849 
161.93 199.93 128 -0.480121 0.858139 0.181879 
156.395 196.395 128 -0.513063 0.846722 0.140816 
150.566 193.566 128 -0.329515 0.944143 0.00386142 
144.215 192 128 -0.202304 0.961806 -0.184399 
137.738 190.738 128 -0.144555 0.901952 -0.406923 
131.044 190 128 -0.119181 0.759756 -0.639192 
124.617 188.617 128 -0.0851708 0.618298 -0.781315 
117.872 188 128 -0.189637 0.493479 -0.848833 
151 233 136 0.155838 0.710027 0.686714 
145.464 236.536 136 0.582929 0.507346 -0.63466 
143 242.515 136 -1.22455e-16 -1.50932e-18 -1 
145.485 248.485 136 -0.285039 0.187706 -0.939957 
150.435 253.435 136 -0.397213 0.467751 -0.789576 
155.678 257.678 136 -0.595247 0.474938 -0.648163 
158.506 263.506 136 -0.682148 0.169289 -0.711347 
160 269.887 136 -0.508406 0.122925 -0.852299 
162 276.059 136 -0.347963 0.053198 -0.935998 
162.042 283.042 136 -0.313393 0.0712623 -0.946946 
164 289.23 136 -0.317901 0.0278769 -0.947714 
164.163 296.163 136 -0.311945 0.186281 -0.93166 
168.402 298 136 -0.0197691 0.28694 -0.957745 
175.402 298 136 -0.00411544 0.243009 -0.970015 
182.402 298 136 -0.00547988 0.237556 -0.971358 
189.402 298 136 0.000843227 0.256758 -0.966475 
195.698 299.698 136 -0.220627 0.336516 -0.915467 
200.941 303.941 136 -0.479634 0.805783 -0.347368 
207.088 306 136 0.074101 0.740633 0.667811 
210 301.912 136 0.31993 0.00999772 0.947388 
212.891 296.109 136 -0.0795204 0.0509476 0.99553 
212 289.569 136 -0.100684 0.0214665 0.994687 
210 283.397 136 -0.00789394 0.00286517 0.999965 
207 277.64 136 0.13151 -0.0553706 0.989767 
203.21 272.21 136 0.138388 -0.108656 0.9844 
199 266.953 136 0.136218 -0.107125 0.98487 
195.431 261.431 136 0.12938 -0.098663 0.986674 
191 256.267 136 0.185699 -0.163748 0.968867 
186.239 251.239 136 0.235271 -0.259382 0.93668 
180.996 246.996 136 0.269183 -0.326592 0.906023 
175.754 242.754 136 0.280888 -0.372571 0.884473 
170.218 239.218 136 0.213278 -0.399091 0.891762 
164.39 236.39 136 0.134493 -0.299046 0.944713 
158.561 233.561 136 0.00550171 -0.0268905 0.999623 
160 267 144 -0.0225673 -0.313051 0.949468 
155.464 271.536 144 -0.734421 -0.528343 0.426004 
152 277.101 144 -0.89633 -0.340597 -0.283879 
151 283.686 144 -0.853618 0.120791 -0.506702 
154.314 289.314 144 -0.696517 0.470633 -0.541635 
157.142 295.142 144 -0.819188 0.222668 -0.528535 
158 301.787 144 -0.747809 -9.15802e-17 -0.663914 
157.971 307.971 144 -0.550598 0.133688 -0.823996 
160.799 313.799 144 -0.336561 0.149972 -0.929642 
161 320.716 144 -0.226641 -2.77555e-17 -0.973978 
161.627 326.627 144 -0.146698 0.0507366 -0.987879 
168 327.941 144 1.14369e-17 -1.21929e-16 -1 
172.284 322.716 144 0.143465 0.14084 -0.979583 
177.527 318.473 144 0.207956 0.358891 -0.909918 
183.062 314.938 144 0.437715 0.504183 -0.74445 
188.012 309.988 144 0.588881 0.688229 -0.423745 
193.255 305.745 144 0.70108 0.671052 0.241195 
196 299.882 144 0.70565 0.0497557 0.706812 
195 293.296 144 0.714156 -0.0947849 0.693539 
195 286.296 144 0.628146 -0.12334 0.768258 
191.381 281.381 144 0.384092 -0.485499 0.785344 
185.782 278 144 0.245307 -0.589893 0.769318 
179.61 276 144 0.21046 -0.65859 0.722472 
173.603 273.603 144 0.271088 -0.59925 0.753267 
167.681 271 144 0.264403 -0.528536 0.806685 
161.946 267.946 144 0.209957 -0.323673 0.92258 
