ply
format ascii 1.0
element vertex 498
property float x
property float y
property float z
property float nx
property float ny
property float nz
element face 0
property list uchar int vertex_index
end_header
0.76264 -0.0633837 0.344644 0.758705 0.618752 0.203746
0.193611 -0.418401 -0.570888 0.292809 -0.670179 -0.681999
0.666441 -0.674568 0.614904 0.427809 -0.758192 0.492062
-0.364309 0.690313 -0.0111298 -0.935083 0.338634 -0.104628
0.514075 0.216212 -0.420796 0.841291 0.344409 -0.416667
0.522644 -0.758745 0.111938 0.285575 -0.857403 -0.428143
0.347873 0.563412 0.324381 0.751015 0.068518 0.65672
0.65031 -0.760222 0.516915 0.378468 -0.874504 0.303324
0.414446 0.938973 -0.021483 0.753132 0.652431 -0.0844163
0.203983 1.09759 0.15885 0.461502 0.864654 0.198468
-0.0460029 0.498241 0.407583 -0.317263 -0.033628 0.947741
-0.671127 0.1539 0.0627905 -0.487464 0.802022 0.345166
0.874364 -0.474038 0.504465 0.941362 -0.131896 0.31055
-0.785317 -0.0271119 -0.407732 -0.546442 0.512513 -0.662368
0.299366 -0.600514 0.656304 -0.431161 -0.471216 0.769451
-0.956294 -0.43608 0.191083 -0.484723 -0.422433 0.765894
0.336933 -0.630459 -0.190635 0.159004 -0.884159 -0.439295
0.562332 -0.80803 0.262096 0.238822 -0.970307 -0.0383309
-0.305241 0.0662001 -0.630154 -0.450031 0.255401 -0.855712
0.667981 -0.582024 0.680113 0.435278 -0.441113 0.784827
-0.0997102 0.714544 -0.400161 -0.331701 0.446737 -0.830903
-0.348106 0.488602 0.135033 -0.822131 0.226548 0.522281
-0.445264 -0.381725 0.292205 -0.00621421 -0.284014 0.9588
0.482644 -0.0219216 0.517242 0.233442 0.725784 0.647103
-0.41178 0.0351692 -0.588286 -0.44207 0.255777 -0.859739
-0.177787 0.522105 0.34474 -0.44506 -0.0187229 0.895305
-0.826948 -0.462706 0.256524 -0.303093 -0.458833 0.835229
0.485334 0.550752 -0.244511 0.874155 0.306813 -0.376455
0.482416 -0.141188 -0.578477 0.696696 -0.279573 -0.660646
-0.72039 -0.641467 -0.229748 -0.260915 -0.923075 -0.282588
-0.397271 -0.585281 -0.361339 0.0249239 -0.879196 -0.475807
-0.828043 0.0284058 0.147871 -0.532898 0.635279 0.558964
0.293089 -0.78416 0.222505 -0.365906 -0.929954 -0.0360465
-0.860579 0.00498684 0.152514 -0.562857 0.597666 0.570953
0.38306 0.128355 -0.65053 0.482017 0.299327 -0.823446
-0.265067 0.811375 0.25067 -0.775894 0.295709 0.557265
0.335716 0.210015 0.366746 0.362132 0.374116 0.853755
0.413662 0.821683 -0.180721 0.687449 0.482028 -0.543197
0.501414 0.0665696 -0.522982 0.785368 0.19721 -0.586776
0.108092 0.888686 -0.349601 0.182287 0.582469 -0.79215
0.177016 -0.478571 -0.494569 0.197409 -0.827235 -0.526034
-0.638271 -0.549855 -0.394946 -0.232732 -0.593912 -0.770133
-0.089933 0.492081 -0.523733 -0.300981 0.480121 -0.823951
-0.435475 -0.594192 -0.346879 0.0311218 -0.874218 -0.484535
0.412435 -0.698202 -0.044492 0.119922 -0.87631 -0.466582
-0.617046 -0.630574 -0.275264 -0.117283 -0.916774 -0.381798
-0.685177 0.115326 0.119779 -0.418037 0.71932 0.554819
0.0282216 0.497047 0.418663 -0.230232 -0.0443354 0.972125
0.34295 -0.789287 0.192947 -0.32283 -0.943992 -0.0682658
-0.244217 0.549533 0.282486 -0.570106 -0.00728192 0.821539
0.112697 -0.404331 -0.608047 0.0451491 -0.627609 -0.777219
0.298543 0.323334 0.348115 0.39485 0.219109 0.892236
0.851782 -0.259777 0.194286 0.941923 0.293224 -0.163712
0.126405 0.990749 0.35699 0.211908 0.499394 0.84006
-0.0231572 1.13079 0.0713952 -0.236281 0.965724 -0.10746
-0.0928183 1.02884 -0.173109 -0.335408 0.82096 -0.462089
0.165308 0.905774 0.398905 0.280211 0.366579 0.887187
0.340884 -0.0736988 0.566734 -0.258583 0.453037 0.853166
0.307059 -0.092532 0.575166 -0.313924 0.39096 0.865218
0.128078 -0.657099 0.377673 -0.544921 -0.813816 0.2019
0.810828 -0.124758 0.286691 0.817989 0.563322 0.116455
0.436107 0.87402 -0.0636166 0.828839 0.54139 -0.14115
0.657516 -0.0747489 -0.246565 0.939833 0.100694 -0.326457
-0.236803 -0.54665 -0.421491 -0.0250924 -0.856971 -0.514753
-0.868412 -0.629357 -0.151121 -0.476529 -0.856942 -0.196393
-1.002 -0.168025 -0.299757 -0.828861 0.219777 -0.514477
-0.799107 -0.640553 -0.190613 -0.386435 -0.888631 -0.246987
0.472047 -0.614018 0.703812 -0.199569 -0.518702 0.831337
-0.105894 0.118962 -0.698918 -0.332855 0.274207 -0.902229
-0.376289 0.0454936 -0.602213 -0.450897 0.264364 -0.852528
0.252954 -0.553496 -0.352111 0.199639 -0.878265 -0.434506
0.668999 -0.620086 0.657717 0.445695 -0.619715 0.645995
-0.00841481 -0.16264 -0.753763 -0.125876 -0.244954 -0.961329
-0.103059 0.841298 -0.324116 -0.340576 0.505973 -0.792464
0.843967 -0.213171 0.222771 0.901696 0.430914 -0.035451
-0.763682 0.159033 -0.199424 -0.602455 0.768811 -0.214424
-0.958549 -0.584655 -0.0851461 -0.578978 -0.808961 -0.101817
-0.0838549 0.359383 -0.596817 -0.276265 0.482315 -0.831294
0.503229 -0.069228 -0.553825 0.754005 -0.167194 -0.635234
-0.252077 0.806519 -0.228695 -0.798537 0.423917 -0.427356
0.266036 -0.591531 0.635601 -0.477548 -0.445872 0.757064
0.452451 0.801418 -0.106938 0.888107 0.393792 -0.237053
-0.787838 -0.465073 0.266032 -0.237274 -0.482632 0.843071
-1.0229 -0.499713 -0.0123431 -0.727069 -0.684 0.05928
0.619686 -0.00850537 0.45032 0.592542 0.694386 0.408315
-0.899751 -0.0265485 0.156481 -0.587456 0.573664 0.570794
0.582904 -0.000876692 -0.390124 0.924606 0.0834155 -0.37168
-0.0509378 1.12371 -0.0037259 -0.287047 0.92627 -0.24419
0.0841029 0.50046 0.418436 -0.150026 -0.0466044 0.987583
0.0925155 -0.377008 -0.640962 0.000486162 -0.545793 -0.83792
0.178755 0.513715 0.403218 0.0476296 -0.0735015 0.996157
0.792553 -0.219283 0.0328537 0.918792 0.145813 -0.366824
-1.01955 -0.173164 0.1443 -0.720508 0.412442 0.557458
0.12321 -0.448244 -0.550751 0.0771862 -0.767645 -0.636211
0.296691 0.870523 -0.291414 0.448342 0.552965 -0.702296
-0.523332 0.21698 0.0895014 -0.622525 0.60421 0.497386
0.120836 -0.313658 0.560439 -0.52701 0.12695 0.840324
-0.963548 -0.147257 -0.332167 -0.806626 0.223115 -0.547333
0.607565 -0.813314 0.373196 0.299176 -0.945907 0.12551
0.109402 -0.350275 0.547536 -0.552123 0.086668 0.829246
0.379861 0.84017 -0.221391 0.583859 0.512004 -0.630048
-0.103197 0.875054 -0.301953 -0.380919 0.579885 -0.720162
-0.208379 0.915305 0.273183 -0.697305 0.421464 0.57977
-0.777718 0.0611243 0.138994 -0.493867 0.655269 0.571592
-0.0915395 0.526684 -0.504728 -0.297611 0.47421 -0.828585
0.637686 -0.394557 0.728764 0.349205 0.226389 0.909288
0.309527 1.06432 0.0908464 0.589798 0.804669 0.0681657
0.813711 -0.474616 0.102932 0.803446 -0.369026 -0.46722
-0.0794292 -0.448132 0.330108 -0.470796 -0.554489 0.686216
-0.24977 0.84727 0.260553 -0.744323 0.364189 0.559776
-0.786497 0.0179429 -0.375772 -0.575472 0.612644 -0.541756
0.466946 -0.176405 -0.587943 0.665745 -0.338515 -0.664975
-0.55279 -0.00533118 0.278252 -0.229261 0.304366 0.924554
0.444411 0.840404 -0.08399 0.848853 0.489192 -0.200351
-0.0966868 1.00071 -0.201674 -0.343984 0.789069 -0.508964
-0.655481 0.139941 0.096854 -0.426766 0.759739 0.490579
-0.306285 0.591456 0.191964 -0.777249 0.0265231 0.628634
0.0332845 1.10543 0.197501 -0.13259 0.947643 0.290503
0.512941 -0.779516 0.155963 0.161474 -0.957781 -0.23787
-0.277508 0.774852 0.239084 -0.797153 0.254794 0.547382
0.511891 0.25131 -0.402712 0.844429 0.350353 -0.405206
0.316902 0.145251 -0.689929 0.392678 0.311306 -0.865386
-0.087797 0.445857 -0.549137 -0.285958 0.484728 -0.826599
0.437967 -0.224955 -0.597231 0.630141 -0.375484 -0.679657
-0.110479 -0.516112 -0.46878 -0.0518172 -0.845537 -0.531397
0.749175 -0.17178 -0.0588482 0.930974 0.146739 -0.334298
-0.053932 0.0352396 -0.737142 -0.179058 0.0170486 -0.983691
0.270862 0.535091 0.371582 0.489491 -0.0364136 0.871248
-0.468943 -0.627609 0.0311351 0.0971985 -0.95612 0.276382
0.517668 0.11022 -0.473939 0.844303 0.25862 -0.469327
-0.0743695 -0.507341 -0.482278 -0.0582804 -0.83409 -0.548542
0.0936513 -0.46363 0.496996 -0.680929 -0.175435 0.711026
0.23536 -0.145058 0.58648 -0.390317 0.304922 0.86872
-0.37186 0.4249 0.115831 -0.813654 0.312717 0.490076
-0.388041 0.389063 0.106413 -0.787296 0.355308 0.503907
0.253247 -0.386688 -0.584829 0.414186 -0.59078 -0.692408
0.322048 0.246577 0.356489 0.368948 0.322869 0.871569
-0.727973 -0.46554 0.274883 -0.193169 -0.483852 0.853565
0.793437 -0.0974313 0.310301 0.784131 0.598041 0.165787
0.476179 0.764157 -0.0591631 0.964328 0.263628 -0.0239002
-0.070975 0.16524 -0.693647 -0.253287 0.39009 -0.885254
0.584794 -0.602955 0.698876 0.0866941 -0.504015 0.859333
0.726418 -0.0379851 0.377404 0.721743 0.640879 0.261461
0.7033 -0.122994 -0.153203 0.935915 0.103931 -0.336543
-0.988783 -0.122048 0.153952 -0.674034 0.465412 0.573646
-0.524023 -0.659376 -0.152242 0.0978619 -0.993261 0.0620913
-1.09555 -0.300753 -0.0722438 -0.982476 0.0677818 -0.173629
0.0338321 -0.478375 -0.521424 -0.0419635 -0.807506 -0.588365
-0.323033 0.607038 0.15906 -0.905782 0.108889 0.409514
-0.32591 0.567341 0.162289 -0.860666 0.109426 0.497272
0.18483 0.849906 0.411118 0.295567 0.278773 0.913743
0.439658 0.00789139 0.495341 0.171178 0.666401 0.725678
0.515138 0.020925 -0.51598 0.826343 0.0470832 -0.561196
0.138668 0.507093 0.411669 -0.0697754 -0.0676237 0.995268
-0.489676 -0.164981 0.334534 -0.160627 0.137757 0.977355
-0.783175 -0.06436 -0.430789 -0.511481 0.390993 -0.765187
-0.0101745 -0.490892 -0.505859 -0.0556894 -0.824965 -0.562434
0.422856 0.0352428 0.471006 0.22995 0.624446 0.746451
-0.182683 -0.533514 -0.441723 -0.0451769 -0.846338 -0.530727
0.113779 0.152015 -0.729315 0.144649 0.328772 -0.933266
0.663572 -0.536003 0.700031 0.432182 -0.188103 0.88195
0.225468 0.694165 0.410234 0.33669 0.111147 0.935033
0.515849 0.181005 -0.438732 0.837846 0.327277 -0.436925
0.42959 0.616197 0.22916 0.875277 0.134949 0.464413
-0.471559 -0.602345 -0.333096 0.044064 -0.893083 -0.44773
-0.51893 -0.0800979 0.316988 -0.196516 0.221046 0.955259
0.445874 -0.727058 0.0209996 0.0933627 -0.876738 -0.471821
0.0688372 1.09504 0.224042 0.10986 0.890106 0.442315
-0.741016 0.179301 -0.118319 -0.60446 0.787006 -0.123492
0.47524 0.084143 -0.558261 0.697559 0.229562 -0.678759
-0.00420597 0.877941 -0.341438 0.00220259 0.581939 -0.81323
0.437431 0.805088 -0.144978 0.791908 0.422295 -0.441077
0.234976 -0.580931 0.612285 -0.50819 -0.450328 0.73413
-0.0201637 -0.12155 -0.756134 -0.136734 -0.196412 -0.970941
0.706861 -0.630814 0.079209 0.685459 -0.537243 -0.491442
-0.451349 0.287839 0.088467 -0.706127 0.507363 0.49393
0.400007 0.96945 0.000385937 0.71405 0.698971 -0.0396591
0.484413 0.694036 0.0810376 0.945053 0.168274 0.280285
-0.726551 0.0915628 0.128596 -0.447335 0.687977 0.57147
-0.742768 -0.303292 -0.502065 -0.372769 -0.240964 -0.896091
0.596488 -0.722177 0.0911577 0.529498 -0.68986 -0.493685
0.431883 -0.614764 0.699789 -0.261075 -0.511309 0.818781
0.653979 -0.0127152 0.429634 0.636099 0.679825 0.364987
-0.491282 -0.651066 -0.0515362 0.0991257 -0.980547 0.169414
0.140212 -0.267692 0.57393 -0.498746 0.168583 0.850195
0.0414476 -0.490204 0.422345 -0.649408 -0.455653 0.60881
0.53237 -0.609647 0.703968 -0.0761281 -0.527367 0.84622
-0.0376383 1.12946 0.0338122 -0.246411 0.954739 -0.166598
0.786917 -0.524851 0.0912211 0.773545 -0.408235 -0.484739
0.274592 0.431204 0.359357 0.403084 0.0784322 0.911796
-0.215187 0.822362 -0.255832 -0.734556 0.450947 -0.507024
0.272322 -0.115451 0.581965 -0.358522 0.341945 0.86864
0.549762 -0.164031 0.659696 0.20301 0.508583 0.836738
0.00829322 1.12163 0.144976 -0.181063 0.978722 0.0965421
-1.04872 -0.426241 0.035961 -0.828393 -0.518664 0.211547
-0.849758 -0.09902 -0.404185 -0.644657 0.313063 -0.69743
-0.347166 -0.42904 0.259784 -0.098595 -0.62017 0.778247
-1.07165 -0.22291 -0.209817 -0.915274 0.149156 -0.374199
0.499203 -0.0827676 0.585766 0.130435 0.632615 0.763404
-0.093795 0.575653 -0.477782 -0.301393 0.468343 -0.830552
0.902438 -0.391538 0.359031 0.993674 -0.0399151 0.104974
-1.05069 -0.264342 0.115405 -0.795619 0.267834 0.543373
-0.760541 -0.226596 -0.493003 -0.420786 -0.0987621 -0.901768
0.233602 0.654997 0.404723 0.345976 0.0748071 0.935257
-0.708323 0.177335 -0.0258158 -0.580884 0.811238 0.0668377
-0.361406 0.667605 0.0343009 -0.950574 0.30954 -0.0243801
-0.782804 0.0917774 -0.307211 -0.593516 0.703756 -0.390469
0.147679 -0.541648 0.529577 -0.662449 -0.393013 0.637732
-0.251739 0.0815683 -0.650793 -0.437257 0.237169 -0.867501
-0.54122 -0.654517 -0.1979 0.0887094 -0.995906 -0.0173948
-0.815703 -0.0869362 -0.42148 -0.5764 0.32923 -0.747911
0.476527 0.633989 -0.199832 0.885062 0.286195 -0.367093
0.47725 0.675793 0.116419 0.93456 0.157434 0.319081
0.357998 0.157983 0.38851 0.342173 0.429542 0.83571
-0.60635 -0.595553 -0.338982 -0.13248 -0.777719 -0.614493
0.5087 0.295049 -0.37994 0.846365 0.348765 -0.402528
-0.123007 1.0002 0.272369 -0.591499 0.54014 0.598646
0.505112 0.338699 -0.357017 0.854851 0.345211 -0.387374
0.267608 0.469241 0.367025 0.392972 0.0224492 0.919276
-0.900939 -0.618665 -0.129947 -0.502768 -0.846271 -0.176208
0.869365 -0.315796 0.217649 0.984607 0.0941986 -0.147224
-0.933017 -0.132811 -0.354212 -0.766084 0.274812 -0.581028
0.205806 -0.569143 0.587063 -0.567146 -0.438772 0.697012
-0.359513 -0.576311 -0.375548 0.00530487 -0.868006 -0.496525
-0.33762 0.623191 0.125278 -0.951412 0.177077 0.251909
0.069689 -0.467084 -0.533574 0.00155283 -0.804779 -0.593573
-0.509357 -0.610483 -0.318463 0.0345956 -0.88978 -0.455076
0.841738 -0.398637 0.127383 0.874241 -0.222371 -0.431572
-1.05365 -0.204435 -0.240816 -0.88561 0.203727 -0.417362
0.0179804 0.141821 -0.723692 -0.0163403 0.327833 -0.944594
-0.295786 -0.425693 0.260602 -0.154496 -0.655916 0.738854
-0.101641 0.773302 -0.365866 -0.338891 0.450624 -0.825888
0.520422 -0.115401 0.617778 0.169509 0.572689 0.802056
-0.102717 0.90792 -0.278828 -0.37282 0.651915 -0.660312
-0.677599 -0.0428117 -0.48281 -0.430191 0.331661 -0.839605
0.566392 -0.008604 0.479012 0.494874 0.723063 0.481954
-0.884943 -0.11245 -0.384599 -0.705195 0.292354 -0.645933
0.830261 -0.434776 0.114755 0.84102 -0.296584 -0.452464
-1.09096 -0.319839 -0.0371202 -0.993453 -0.010305 -0.113776
-0.097244 0.653293 -0.434755 -0.328413 0.456722 -0.826771
-0.763324 -0.642199 -0.209001 -0.334281 -0.914966 -0.22604
-0.639645 0.123958 0.129864 -0.369939 0.677206 0.636032
-1.03922 -0.390409 0.0974113 -0.772637 -0.314653 0.551385
-0.213255 0.535118 0.31474 -0.499299 -0.0132745 0.866328
-0.482879 0.0145267 -0.560464 -0.446453 0.294063 -0.845108
0.151538 -0.697641 0.343907 -0.502374 -0.849559 0.16084
-0.722138 0.181095 -0.0626078 -0.606407 0.794724 -0.0261743
-1.09641 -0.281305 -0.107527 -0.96317 0.0984387 -0.250226
0.216345 0.521401 0.392368 0.173251 -0.080976 0.981543
-0.11388 -0.439883 0.310583 -0.41295 -0.584785 0.698211
0.453228 0.640143 0.184383 0.901736 0.152189 0.404612
-0.450244 -0.345099 0.306622 -0.0449954 -0.160379 0.986029
0.390557 -0.61337 0.69174 -0.326052 -0.498611 0.803167
0.238933 -0.768033 0.260112 -0.412003 -0.91097 0.0196783
0.53791 -0.795615 0.208495 0.223913 -0.967339 -0.118819
0.466715 0.657764 0.15098 0.912652 0.153558 0.378796
0.421934 0.112938 -0.617457 0.551866 0.281173 -0.785102
0.0761482 1.06419 0.278614 0.118186 0.723753 0.679863
0.269783 -0.569201 -0.319937 0.188415 -0.887931 -0.419617
-0.272951 -0.555437 -0.40798 -0.0167407 -0.860782 -0.508698
0.671501 -0.665413 0.0802626 0.640894 -0.584551 -0.497549
-0.589073 0.171049 0.0995504 -0.475491 0.66723 0.573334
0.00364274 -0.199694 -0.747919 -0.103467 -0.301308 -0.947896
-0.230927 0.882208 0.268226 -0.72561 0.392901 0.564907
-0.187557 -0.428268 0.279732 -0.299617 -0.621036 0.724254
0.470869 -0.747771 0.070521 0.111154 -0.886025 -0.450116
-0.359226 0.716354 -0.0622364 -0.91438 0.363202 -0.178867
-0.712671 -0.398804 -0.490439 -0.328639 -0.350603 -0.876969
0.578138 -0.813301 0.298638 0.256817 -0.965748 0.0371009
0.320165 -0.615248 -0.222982 0.177737 -0.881078 -0.438305
-0.447317 -0.576076 0.133784 0.0781944 -0.910636 0.405744
-0.622272 -0.573892 -0.367787 -0.196962 -0.680972 -0.705325
-0.0782347 0.254691 -0.652388 -0.262931 0.463767 -0.846042
0.720529 -0.141265 -0.117858 0.93243 0.107527 -0.344983
0.210789 -0.512916 -0.431889 0.229735 -0.845807 -0.48149
0.012481 -0.478262 0.396881 -0.607201 -0.50413 0.614133
-0.946889 -0.0713541 0.157933 -0.630167 0.524534 0.572498
-0.545617 -0.617818 -0.304194 0.0127977 -0.906948 -0.421048
-1.05511 -0.391694 0.0558541 -0.876766 -0.373898 0.30246
-0.149984 -0.433151 0.293582 -0.358372 -0.605402 0.710674
-0.533449 -0.0457457 0.302174 -0.209064 0.252619 0.944709
-0.587152 -0.456436 0.277243 -0.0491886 -0.522213 0.851396
0.150853 0.941 0.385762 0.240044 0.402403 0.883431
-0.308972 0.774023 -0.170851 -0.856329 0.397327 -0.329897
-0.53617 -0.000975965 -0.539552 -0.438964 0.304966 -0.845167
-0.647481 -0.461742 0.278774 -0.107856 -0.502839 0.857625
-0.171359 0.838019 -0.281775 -0.659055 0.472691 -0.584987
0.395652 -0.683381 -0.0771402 0.121931 -0.885968 -0.44743
0.0321669 1.08548 0.237435 -0.118398 0.844287 0.522649
0.623292 -0.804636 0.418832 0.330548 -0.92651 0.179769
-0.133966 0.849506 -0.300198 -0.515361 0.513409 -0.686159
-0.677362 -0.480293 -0.45281 -0.285491 -0.473291 -0.833361
-0.752291 -0.26488 -0.499315 -0.388402 -0.169856 -0.9057
0.596379 -0.261364 0.712913 0.261129 0.396817 0.87997
0.066682 0.147912 -0.728191 0.0946967 0.328123 -0.939877
-0.684354 -0.639003 -0.246266 -0.204051 -0.928426 -0.310466
0.490679 0.495148 -0.274089 0.876277 0.309519 -0.369237
0.703594 -0.574286 0.662917 0.635988 -0.385388 0.668577
0.241144 0.615986 0.397822 0.3731 0.0239629 0.927481
-0.0259039 -0.464334 0.366561 -0.541871 -0.552128 0.633664
-0.505139 -0.65783 -0.0967034 0.104285 -0.985003 0.137458
0.0851853 -0.510431 0.464768 -0.714009 -0.401092 0.573861
-0.296607 0.701002 0.212674 -0.838389 0.164037 0.519803
-0.100899 0.95086 -0.245589 -0.369243 0.72697 -0.578942
0.739332 -0.593064 0.0813578 0.716749 -0.498567 -0.487547
0.763223 -0.549599 0.626245 0.785138 -0.31309 0.534353
0.17806 -0.556539 0.560563 -0.608384 -0.422667 0.67173
0.616884 -0.0334928 -0.326601 0.934847 0.0723394 -0.347603
-0.0854337 0.393969 -0.577753 -0.288897 0.480797 -0.827872
-0.478737 -0.6402 -0.00691902 0.101547 -0.967894 0.229933
-0.785279 0.0645028 -0.335731 -0.580713 0.679103 -0.448989
-0.0903941 1.02347 0.26762 -0.530181 0.600262 0.598827
0.593282 -0.815258 0.335706 0.282067 -0.956281 0.0772333
0.517092 0.145654 -0.45648 0.85186 0.29821 -0.430588
-0.441438 -0.417527 0.275114 0.0487186 -0.462294 0.885387
0.823465 -0.516343 0.574164 0.893892 -0.189108 0.406442
0.501856 0.375286 -0.337683 0.854612 0.341144 -0.391483
-1.08297 -0.338473 -0.00235529 -0.998018 -0.0539689 0.0323533
-0.215856 0.0915308 -0.664016 -0.42672 0.245492 -0.870427
0.646464 -0.433802 0.724838 0.345229 0.151146 0.926268
-0.931224 -0.603799 -0.107857 -0.541003 -0.829756 -0.13719
-0.00776025 1.12809 0.108607 -0.224591 0.974428 -0.00705662
0.299828 -0.356924 -0.593299 0.480887 -0.538449 -0.691969
0.660061 -0.721639 0.567349 0.382009 -0.83522 0.395572
-1.00081 -0.537981 -0.0417482 -0.634613 -0.77223 -0.0304434
0.205636 -0.750285 0.287315 -0.446047 -0.893137 0.0578673
0.560137 0.0196508 -0.430287 0.912943 0.0963802 -0.396543
-0.0800242 1.08129 -0.105714 -0.353016 0.862988 -0.361429
0.35265 0.852106 -0.248278 0.523615 0.531921 -0.665498
-1.05849 -0.338073 0.0835034 -0.875925 -0.0288148 0.481586
-0.661943 -0.509813 -0.431623 -0.271229 -0.523223 -0.807881
0.488539 0.718423 0.0330981 0.9592 0.18471 0.214052
0.184548 0.154983 -0.725222 0.251779 0.322418 -0.912499
-0.0434314 0.871378 -0.333006 -0.120154 0.572833 -0.810818
0.853601 -0.329797 0.156837 0.930674 -0.0430331 -0.363311
0.642109 -0.779933 0.482989 0.358334 -0.901594 0.242333
0.654006 -0.472794 0.717947 0.382192 0.0188157 0.923891
-0.440319 -0.536552 0.184927 0.0889247 -0.878602 0.469203
-0.256442 -0.424889 0.26441 -0.214458 -0.63239 0.744372
0.429158 -0.712757 -0.0118247 0.12847 -0.866234 -0.48284
-0.0565867 1.04444 0.261171 -0.42948 0.652941 0.623872
0.486814 -0.770456 0.125292 0.0771889 -0.934217 -0.348254
0.56181 -0.741594 0.0997458 0.430256 -0.772624 -0.466832
0.451619 0.0980765 -0.586614 0.620625 0.267863 -0.736935
-0.723148 -0.0568464 -0.463522 -0.439241 0.341115 -0.831088
-0.0679946 0.12623 -0.708559 -0.247417 0.301806 -0.920705
0.351148 0.137827 -0.671925 0.428505 0.314901 -0.846889
-0.577443 -0.628267 -0.282263 -0.0202457 -0.931863 -0.362245
-0.0471494 -0.00280452 -0.745333 -0.183632 -0.0518691 -0.981626
0.633338 -0.0499434 -0.294655 0.93663 0.0772428 -0.341697
0.11391 -0.620961 0.404135 -0.590804 -0.761214 0.267402
0.263154 1.08457 0.123453 0.540298 0.833122 0.118262
0.115367 -0.52539 0.495853 -0.708167 -0.392029 0.587208
0.158628 -0.434122 -0.561316 0.197967 -0.718296 -0.666978
-0.179586 0.101151 -0.676559 -0.405813 0.246899 -0.879976
-0.559397 -0.644088 -0.242001 0.0531968 -0.988355 -0.142566
-0.0301864 0.134215 -0.716377 -0.116652 0.319966 -0.94022
0.0489569 0.884485 -0.348192 0.0984336 0.577524 -0.810418
0.581671 -0.226615 0.698819 0.208469 0.428715 0.879059
-0.583411 -0.0147952 -0.520882 -0.431252 0.312083 -0.846538
-0.277403 0.569362 0.239222 -0.655616 -0.000882892 0.755094
0.0675883 -0.338768 -0.678628 -0.0359689 -0.476989 -0.878173
0.480354 0.599317 -0.218521 0.880704 0.293784 -0.371554
0.474482 -0.0456179 0.547902 0.114928 0.684007 0.720365
-0.447349 0.0248415 -0.574365 -0.4447 0.278923 -0.851143
-0.0685109 1.10538 -0.0604736 -0.284159 0.905912 -0.313969
0.103659 -0.582823 0.429527 -0.638953 -0.686647 0.346778
0.227662 -0.529395 -0.400125 0.231308 -0.860332 -0.45423
0.200764 0.795913 0.415486 0.281159 0.213136 0.935694
-1.05638 -0.301348 0.100265 -0.836734 0.1467 0.527594
0.303388 -0.600011 -0.255329 0.192173 -0.876798 -0.440789
0.223608 0.154589 -0.719288 0.283478 0.321572 -0.903456
0.381654 0.109503 0.41612 0.309764 0.498609 0.80959
0.0450967 -0.298204 -0.708565 -0.0712758 -0.412835 -0.908013
0.412743 -0.257569 -0.600641 0.609427 -0.404334 -0.681991
0.465707 0.720043 -0.152802 0.897696 0.287335 -0.334037
-0.555573 0.192959 0.0937061 -0.551341 0.621562 0.556492
0.68756 -0.10632 -0.185456 0.93758 0.0984029 -0.333558
0.316563 0.550233 0.346877 0.667263 0.0225047 0.744482
0.531595 0.0436516 -0.477505 0.88153 0.127805 -0.4545
0.309607 0.284464 0.350235 0.398145 0.270648 0.876487
-0.918465 -0.447908 0.217526 -0.408562 -0.41726 0.81177
0.566014 -0.194188 0.680764 0.217139 0.475359 0.852575
0.375598 -0.0573654 0.556515 -0.202324 0.520149 0.829765
-0.0957389 0.61882 -0.453924 -0.318205 0.460712 -0.828547
0.341727 -0.325702 -0.598758 0.523037 -0.496363 -0.692861
0.611574 -0.303165 0.723541 0.278769 0.340197 0.898083
0.224059 0.884357 -0.327399 0.326314 0.562411 -0.759745
0.375771 0.578009 0.298674 0.808657 0.0992539 0.579847
0.096163 -0.422142 0.517251 -0.635003 -0.05867 0.770279
0.216633 0.733404 0.414007 0.315488 0.153195 0.936482
0.494339 -0.105431 -0.567003 0.724093 -0.235094 -0.648399
-0.834291 -0.636434 -0.171322 -0.404885 -0.893864 -0.192549
0.438619 -0.0341101 0.534638 0.00613842 0.654514 0.756025
-0.336144 0.527909 0.148206 -0.836163 0.168482 0.521962
0.286569 -0.584662 -0.287712 0.195504 -0.879318 -0.434256
-0.115248 0.506689 0.382681 -0.374373 -0.028497 0.92684
-0.280031 0.792171 -0.203489 -0.826588 0.411792 -0.38364
-0.074389 0.203092 -0.677051 -0.264142 0.437552 -0.859522
-0.437953 -0.502319 0.218594 0.0939486 -0.814219 0.572906
-0.456322 -0.307814 0.318391 -0.0916353 -0.041162 0.994942
0.261901 0.152376 -0.710168 0.31914 0.320253 -0.891957
-0.778426 -0.115355 -0.457155 -0.470832 0.196153 -0.86014
-0.454068 -0.597752 0.0973498 0.0828997 -0.938383 0.335507
0.623546 -0.341346 0.728415 0.313542 0.292735 0.903326
0.484348 0.74652 -0.0231822 0.96924 0.215297 0.119256
-1.09177 -0.258077 -0.148914 -0.937739 0.100631 -0.332445
-0.731976 -0.341432 -0.500951 -0.361161 -0.288202 -0.88685
0.352102 -0.609782 0.680114 -0.380747 -0.498315 0.778919
0.260169 0.878718 -0.311967 0.391184 0.557751 -0.732044
0.819517 -0.250239 0.0924316 0.917952 0.161651 -0.362261
0.472441 0.668498 -0.181099 0.879787 0.288763 -0.377613
0.497186 0.42572 -0.310942 0.858558 0.333468 -0.389457
0.511531 -0.0169885 -0.532584 0.802665 -0.0525929 -0.594106
-0.142916 0.110319 -0.688238 -0.380363 0.259835 -0.887587
-0.308972 -0.56416 -0.394504 -0.00264743 -0.873524 -0.486774
0.46057 0.754632 -0.133511 0.902054 0.301486 -0.308877
-0.47682 -0.21181 0.334765 -0.147164 0.0921731 0.984808
-0.087749 1.05487 -0.142907 -0.33149 0.848516 -0.412473
0.20593 -0.173586 0.587496 -0.428206 0.264898 0.863984
0.889918 -0.453157 0.468783 0.963541 -0.111111 0.243401
-0.146596 -0.524803 -0.45524 -0.0415609 -0.855611 -0.515948
0.105565 1.10012 0.208453 0.260792 0.90109 0.346445
0.447303 -0.77999 0.141508 -0.0935024 -0.966116 -0.240578
-0.3321 0.754807 -0.135407 -0.873484 0.389527 -0.292051
0.0975959 -0.547281 0.451304 -0.690821 -0.559224 0.458295
0.600087 -0.0171223 -0.358452 0.930736 0.0884937 -0.354823
0.893867 -0.361021 0.302701 0.998988 -0.00115311 0.0449522
0.250215 0.566468 0.387787 0.356566 -0.0412283 0.93336
0.382522 0.997852 0.0227449 0.69613 0.717778 -0.0140813
-0.352397 0.645362 0.0795228 -0.961073 0.256684 0.102232
0.400445 0.59351 0.270786 0.836897 0.118576 0.534362
0.141893 1.10169 0.191356 0.397319 0.870116 0.291608
-0.583786 0.0494197 0.232052 -0.261387 0.397384 0.879638
0.174268 -0.72431 0.317758 -0.484576 -0.867222 0.114503
0.840608 -0.275992 0.141825 0.928253 0.165952 -0.332876
0.426269 0.907007 -0.0427916 0.783445 0.610684 -0.115234
-0.467486 -0.251472 0.330496 -0.128479 0.0373404 0.991009
-0.427472 0.320151 0.0923899 -0.74087 0.445257 0.50285
-0.618788 -0.0252136 -0.506769 -0.425343 0.310162 -0.850225
-0.406471 0.354029 0.0984905 -0.765426 0.415756 0.491192
-0.308504 0.645572 0.191654 -0.853735 0.104929 0.510025
-0.864963 -0.458421 0.243695 -0.329902 -0.4818 0.811809
-0.623694 0.105688 0.161411 -0.323027 0.590996 0.739174
-0.102477 0.807151 -0.345415 -0.345285 0.464017 -0.815761
0.901594 -0.423916 0.417469 0.977139 -0.06402 0.202734
-0.599686 0.0736424 0.205321 -0.285512 0.460941 0.840247
0.172299 -0.214512 0.58432 -0.451775 0.233362 0.86107
-0.478029 -0.443914 0.269189 0.0664021 -0.553262 0.830357
0.102023 1.03049 0.321715 0.176761 0.57591 0.798175
-0.527018 -0.449772 0.273237 0.0122912 -0.526804 0.849898
-0.686419 0.165499 0.0279103 -0.546904 0.813671 0.197069
-0.503717 -0.121094 0.328584 -0.177463 0.186271 0.966339
0.62306 -0.596181 0.691742 0.220563 -0.508984 0.832038
0.829561 -0.165409 0.255415 0.858692 0.510606 0.0439293
0.356218 -0.647937 -0.153425 0.169319 -0.877121 -0.449432
0.159163 -0.459427 -0.527042 0.173618 -0.790705 -0.587062
-0.0217994 1.06311 0.25312 -0.331688 0.740477 0.584532
0.371579 -0.300093 -0.601019 0.552107 -0.46853 -0.68968
-0.287794 0.738012 0.226281 -0.811704 0.197035 0.549831
-0.486125 0.249865 0.0871509 -0.646454 0.56426 0.513524
0.767206 -0.191251 -0.0212268 0.924011 0.147118 -0.352929
0.193906 -0.496011 -0.463397 0.209043 -0.84318 -0.495327
-0.347144 0.737716 -0.103236 -0.890329 0.37987 -0.251025
0.0169319 -0.235561 -0.738164 -0.0859272 -0.349311 -0.933058
-1.0413 -0.227454 0.128673 -0.769421 0.335306 0.543656
0.633175 -0.697108 0.0844249 0.603022 -0.629899 -0.48948
-0.080748 0.296833 -0.630652 -0.258941 0.475062 -0.840991
-0.403562 -0.43499 0.26301 0.0172669 -0.617066 0.786722
0.762932 -0.561655 0.0849871 0.747823 -0.451915 -0.486348
-0.752659 0.172462 -0.157178 -0.610335 0.775197 -0.162975
-0.698124 -0.435086 -0.477061 -0.32306 -0.404014 -0.855807
-0.0598403 0.0729155 -0.72699 -0.214274 0.120957 -0.969255
-0.778842 0.116368 -0.27652 -0.593638 0.731773 -0.334816
-0.168567 0.960589 0.275565 -0.641565 0.475777 0.60169
0.282918 0.389451 0.352613 0.413807 0.148985 0.898091
0.792534 -0.534676 0.603177 0.847144 -0.249459 0.469167
-0.438075 -0.468368 0.24489 0.0902924 -0.713653 0.694656
0.390886 -0.787998 0.167763 -0.246807 -0.959582 -0.135236
0.167236 0.888763 -0.342815 0.254686 0.571456 -0.780111
-1.03149 -0.186912 -0.269545 -0.876401 0.192413 -0.441474
-1.07171 -0.356573 0.0318812 -0.973261 -0.136217 0.184953
0.530814 -0.0125077 0.496167 0.389253 0.73735 0.552084
0.855731 -0.492298 0.534993 0.911021 -0.174434 0.373649
-0.340768 0.05585 -0.616191 -0.453096 0.26742 -0.850406
-1.03931 -0.459488 0.0152225 -0.779921 -0.616093 0.110234
-1.0061 -0.41298 0.142654 -0.617853 -0.397363 0.678498
0.378842 -0.668359 -0.109711 0.153239 -0.877729 -0.453992
-0.770753 -0.170163 -0.478096 -0.440977 0.0288122 -0.897056
-0.771515 0.142061 -0.235271 -0.596234 0.752408 -0.279978
0.883937 -0.340081 0.263508 0.999166 0.0348605 -0.0212734
-0.687735 -0.464182 0.277807 -0.147583 -0.509578 0.847673
0.697084 -0.0243148 0.400342 0.689616 0.654467 0.310005
0.856839 -0.297657 0.18318 0.961731 0.121242 -0.24571
0.493939 0.460463 -0.292503 0.863417 0.32275 -0.387742
0.346044 1.0384 0.0603307 0.644435 0.7629 0.0518444
-0.0317466 -0.0753208 -0.754657 -0.149716 -0.142762 -0.978368
0.405412 0.0653835 0.446899 0.276035 0.563033 0.778973
