ply
format ascii 1.0
element vertex 50
property float x
property float y
property float z
property float nx
property float ny
property float nz
end_header
-0.152945 -0.813124 0.237378 0.0544171 0.250261 -0.966059 
-0.255387 -0.447786 0.0871892 -0.442658 -0.811333 -0.375748 
-0.270748 0.42036 0.00711631 -0.51858 0.851595 -0.00817338 
-0.464248 -0.883138 0.0295921 0.469426 0.874287 -0.117392 
0.534273 0.645807 -0.233601 -0.191645 -0.138235 0.970723 
-0.600283 -0.103088 0.206784 -0.589146 -0.112896 -0.79828 
0.635311 -0.443989 -0.248618 0.0124174 -0.01184 0.998959 
0.874768 0.478155 0.0343471 -0.865295 -0.481731 -0.133401 
-0.0203024 -0.812189 -0.241586 0.0183564 0.182144 0.982171 
0.711551 0.284684 0.249175 -0.0045834 -0.000613037 -0.999159 
-0.925116 0.342081 0.0775029 0.887351 -0.323429 -0.326853 
-0.812014 0.170478 -0.236541 0.256478 0.0096614 0.965622 
-0.662652 0.272458 0.247472 -0.182944 0.0613665 -0.979914 
0.751976 -0.63498 0.0849935 -0.673015 0.632273 -0.381819 
0.989059 0.0983004 0.0536481 -0.970908 -0.104835 -0.21192 
-0.708243 -0.675748 -0.0982322 0.68157 0.629219 0.372017 
0.51961 0.845233 0.0563046 -0.468703 -0.831893 -0.295157 
0.365487 -0.599877 -0.2455 0.13691 -0.225137 0.963844 
-0.784092 0.61835 0.0133768 0.781311 -0.616287 -0.0920243 
0.449054 -0.220041 0.0126803 0.910937 -0.397327 -0.0789792 
-0.438277 -0.652932 0.247021 0.0636812 0.0735556 -0.994494 
-0.445856 -0.246051 -0.0676526 -0.847184 -0.47669 0.225198 
0.223679 0.606567 -0.227619 0.131717 0.428237 0.892773 
-0.618374 0.427775 -0.249881 -0.0712897 0.0459446 0.99554 
0.33247 0.522781 0.213242 0.272584 0.43725 -0.85514 
0.0927198 -0.518024 -0.111795 0.164665 -0.844757 0.504914 
-0.999023 0.0124489 0.00743087 0.999501 0.00794942 -0.00624322 
0.227023 0.950237 0.10174 -0.251035 -0.860484 -0.441974 
0.820299 0.225896 -0.228151 -0.369653 -0.0879072 0.924537 
-0.131969 0.964774 0.108568 0.153224 -0.879251 -0.449782 
-0.465599 0.718528 -0.225754 0.186085 -0.34864 0.918166 
0.460194 0.286623 -0.139697 0.684712 0.396543 0.607511 
0.0355582 0.728401 0.249025 0.00116177 0.100627 -0.99424 
-0.0046456 -0.999148 0.0126894 -0.0244551 0.996588 -0.0719191 
0.637003 -0.393158 0.249971 0.114223 -0.0341958 -0.992091 
-0.100987 0.859039 -0.221543 0.0897974 -0.410712 0.906229 
0.831422 -0.0862866 -0.234397 -0.302751 0.0139379 0.952267 
0.105606 -0.597217 0.204807 0.0828812 -0.531272 -0.841484 
-0.510068 0.644839 0.239161 0.191498 -0.217356 -0.956406 
0.0500732 0.498423 0.0199338 0.114307 0.985505 -0.10903 
0.390286 -0.919973 -0.00572716 -0.361755 0.931532 -0.00146786 
-0.859623 -0.474853 0.091031 0.80043 0.463808 -0.377274 
0.954717 -0.280953 0.0462485 -0.940991 0.279311 -0.188117 
-0.43916 -0.60326 -0.249855 -0.0873233 -0.0559234 0.993551 
-0.451125 0.887029 0.0437271 0.419992 -0.891789 -0.166009 
0.591402 6.10348e-11 0.193252 0.609793 0.00820043 -0.790892 
0.783475 -0.0814389 0.24681 -0.116832 0.000993714 -0.992694 
0.472568 -0.722052 0.222626 -0.231486 0.333035 -0.91336 
-0.502545 0.159082 -0.113361 -0.82774 0.242465 0.501974 
-0.892161 -0.275734 -0.168778 0.700275 0.173116 0.691813 
