ply
format ascii 1.0
element vertex 320
property float x
property float y
property float z
property float nx
property float ny
property float nz
end_header
0 0.464985 1.51776 -0.00357714 -0.988048 0.154105 
-0.273381 0.469053 1.51776 -0.0310133 -0.998572 0.0434962 
-0.536256 0.48092 1.51776 -0.0620291 -0.990969 -0.118879 
-0.778522 0.487916 1.51776 0.059568 -0.962505 -0.264644 
-0.990871 0.448474 1.51776 0.242077 -0.86468 -0.440145 
-1.16514 0.378351 1.51776 0.419182 -0.680099 -0.601458 
-1.29463 0.253511 1.51776 0.567297 -0.404104 -0.717547 
-1.37438 0.105675 1.51776 0.569934 -0.238508 -0.786314 
-1.4013 0 1.51776 0.58644 0.00252521 -0.809988 
-1.37438 -0.105675 1.51776 0.573348 0.226405 -0.787409 
-1.29463 -0.253985 1.51776 0.533067 0.439659 -0.722869 
-1.16514 -0.361288 1.51776 0.430268 0.667669 -0.607526 
-0.990871 -0.445067 1.51776 0.235414 0.86207 -0.448794 
-0.778522 -0.47072 1.52125 0.0655549 0.958426 -0.27771 
-0.536256 -0.481088 1.51776 -0.0407121 0.993645 -0.104939 
-0.273381 -0.451319 1.51776 -0.0966129 0.994943 0.0274792 
0 -0.445464 1.51776 -0.00096266 0.9922 0.124651 
0.273381 -0.448526 1.51776 0.0600851 0.997805 0.0278293 
0.536256 -0.472339 1.51776 0.0849152 0.989758 -0.114751 
0.778522 -0.484547 1.51776 0.00250269 0.965692 -0.259679 
0.990871 -0.463909 1.51776 -0.210801 0.878218 -0.429297 
1.16514 -0.387603 1.51776 -0.447076 0.674027 -0.588056 
1.3302 -0.207289 1.51776 -0.592645 0.317251 -0.740354 
1.37438 -0.105675 1.51776 -0.583475 0.223767 -0.780696 
1.4013 0 1.51776 -0.591262 0.00639666 -0.806454 
1.37438 0.105675 1.51776 -0.571397 -0.244034 -0.783551 
1.29463 0.247235 1.51776 -0.555659 -0.427184 -0.713272 
1.16514 0.365129 1.51776 -0.434929 -0.676896 -0.593842 
0.990871 0.443233 1.51776 -0.253269 -0.867409 -0.428317 
0.778522 0.480852 1.51776 -0.082262 -0.965958 -0.245273 
0.536256 0.485033 1.51776 0.0411125 -0.996266 -0.0759164 
0.273381 0.468212 1.51776 0.0529773 -0.996785 0.0601134 
-1.34796 0.50491 0.893158 -0.0067581 -0.988896 0.148456 
-1.44809 0.495208 0.893158 0.193025 -0.98056 0.0352666 
-1.54438 0.466476 0.893158 0.375766 -0.924357 -0.066065 
-1.63312 0.419818 0.893158 0.543155 -0.825807 -0.151745 
-1.7109 0.357025 0.893158 0.68405 -0.696348 -0.217196 
-1.77473 0.280513 0.893158 0.799164 -0.540557 -0.262935 
-1.82217 0.193221 0.893158 0.878025 -0.379693 -0.291385 
-1.85137 0.0985031 0.893158 0.930911 -0.190394 -0.311696 
-1.86124 0 0.893158 0.947227 0.000390466 -0.320562 
-1.85137 -0.0985031 0.893158 0.930386 0.188799 -0.314226 
-1.82217 -0.193221 0.893158 0.877158 0.379878 -0.293747 
-1.77473 -0.280513 0.893158 0.798563 0.540043 -0.265803 
-1.7109 -0.357025 0.893158 0.683348 0.696006 -0.220479 
-1.63312 -0.419818 0.893158 0.542841 0.825335 -0.155391 
-1.54438 -0.466476 0.893158 0.375475 0.924176 -0.0701273 
-1.44809 -0.495208 0.893158 0.193022 0.980723 0.0304123 
-1.34796 -0.50491 0.893158 -0.00645508 0.989673 0.143196 
-1.24782 -0.495208 0.893158 -0.185287 0.951258 0.246531 
-1.15154 -0.466476 0.893158 -0.353494 0.866041 0.353576 
-1.0628 -0.419818 0.893158 -0.488029 0.743639 0.456977 
-0.985017 -0.357025 0.893158 -0.583059 0.594367 0.553869 
-0.921184 -0.280513 0.893158 -0.637889 0.433239 0.636712 
-0.873752 -0.193221 0.893158 -0.657572 0.276892 0.700664 
-0.844544 -0.0985031 0.893158 -0.656128 0.134048 0.742649 
-0.834681 0 0.893158 -0.647495 0.000199354 0.76207 
-0.844544 0.0985031 0.893158 -0.654681 -0.133563 0.744012 
-0.873752 0.193221 0.893158 -0.655515 -0.276215 0.702855 
-0.921184 0.280513 0.893158 -0.635733 -0.432026 0.639685 
-0.985017 0.357025 0.893158 -0.581185 -0.59267 0.557644 
-1.0628 0.419818 0.893158 -0.486838 -0.741986 0.460917 
-1.15154 0.466476 0.893158 -0.352133 -0.864859 0.357801 
-1.24782 0.495208 0.893158 -0.185518 -0.949271 0.253905 
1.656 0.501057 0.00279748 0.00245466 -0.999991 0.00349281 
1.57485 0.491429 0.00279748 0.231667 -0.972788 0.00368918 
1.49681 0.462916 0.00279748 0.445195 -0.895423 0.0044287 
1.42489 0.416614 0.00279748 0.627899 -0.778275 0.00551894 
1.36186 0.354301 0.00279748 0.767712 -0.640758 0.00686873 
1.31012 0.278372 0.00279748 0.874709 -0.484581 0.00812796 
1.27168 0.191746 0.00279748 0.945313 -0.326034 0.00919285 
1.24801 0.0977514 0.00279748 0.98676 -0.16188 0.0100283 
1.24002 0 0.00279748 0.999942 0.000101759 0.0107779 
1.24801 -0.0977514 0.00279748 0.986773 0.161792 0.0100724 
1.27168 -0.191746 0.00279748 0.945269 0.326159 0.00928579 
1.31012 -0.278372 0.00279748 0.875059 0.483946 0.00827218 
1.36186 -0.354301 0.00279748 0.767841 0.640602 0.00703419 
1.42489 -0.416614 0.00279748 0.626596 0.779323 0.0057255 
1.49681 -0.462916 0.00279748 0.445283 0.895378 0.00467192 
1.57485 -0.491429 0.00279748 0.233564 0.972333 0.00393927 
1.656 -0.501057 0.00279748 0.00200495 0.999991 0.00373095 
1.73716 -0.491429 0.00279748 -0.230667 0.973027 0.00338378 
1.81519 -0.462916 0.00279748 -0.444534 0.895757 0.00287306 
1.88711 -0.416614 0.00279748 -0.625368 0.780327 0.0022619 
1.95014 -0.354301 0.00279748 -0.768366 0.640008 0.00172928 
2.00188 -0.278372 0.00279748 -0.873441 0.486928 0.00126333 
2.04032 -0.191746 0.00279748 -0.945078 0.326843 0.00130314 
2.06399 -0.0977514 0.00279748 -0.986514 0.163671 0.00151932 
2.07198 0 0.00279748 -0.999998 -0.00150805 0.00137107 
2.06399 0.0977514 0.00279748 -0.986688 -0.16262 0.00145357 
2.04032 0.191746 0.00279748 -0.945078 -0.326844 0.00118677 
2.00188 0.278372 0.00279748 -0.873713 -0.48644 0.00116406 
1.95014 0.354301 0.00279748 -0.768426 -0.639936 0.00169845 
1.88711 0.416614 0.00279748 -0.625015 -0.78061 0.00219041 
1.81519 0.462916 0.00279748 -0.444332 -0.895858 0.00273411 
1.73716 0.491429 0.00279748 -0.23091 -0.97297 0.00318462 
-1.64609 0.501057 0.00279748 -0.00159626 -0.999988 -0.00454562 
-1.72724 0.491429 0.00279748 0.230089 -0.973153 -0.00563169 
-1.80527 0.462916 0.00279748 0.444707 -0.895651 -0.0066902 
-1.87719 0.416614 0.00279748 0.625064 -0.780537 -0.00746202 
-1.94023 0.354301 0.00279748 0.767914 -0.640501 -0.00811754 
-1.99196 0.278372 0.00279748 0.873984 -0.485882 -0.00842243 
-2.0304 0.191746 0.00279748 0.945206 -0.326357 -0.00876247 
-2.05407 0.0977514 0.00279748 0.986278 -0.164832 -0.00923747 
-2.06207 0 0.00279748 0.999953 0.000154744 -0.0097108 
-2.05407 -0.0977514 0.00279748 0.986405 0.164064 -0.00936482 
-2.0304 -0.191746 0.00279748 0.945239 0.326255 -0.00900341 
-1.99196 -0.278372 0.00279748 0.874105 0.485659 -0.00868854 
-1.94023 -0.354301 0.00279748 0.767385 0.641132 -0.00837428 
-1.87719 -0.416614 0.00279748 0.625385 0.780278 -0.00774333 
-1.80527 -0.462916 0.00279748 0.444502 0.89575 -0.00705036 
-1.72724 -0.491429 0.00279748 0.230068 0.973155 -0.00611658 
-1.64609 -0.501057 0.00279748 -0.00185013 0.999985 -0.00511601 
-1.56493 -0.491429 0.00279748 -0.233913 0.972249 -0.00411838 
-1.4869 -0.462916 0.00279748 -0.443498 0.896271 -0.00281505 
-1.41498 -0.416614 0.00279748 -0.626632 0.779315 -0.00075173 
-1.35194 -0.354301 0.00279748 -0.769566 0.638565 0.00146936 
-1.30021 -0.278372 0.00279748 -0.874379 0.48523 0.00358459 
-1.26177 -0.191746 0.00279748 -0.945245 0.326314 0.00549487 
-1.2381 -0.0977514 0.00279748 -0.986837 0.161574 0.00676237 
-1.2301 0 0.00279748 -0.999972 -0.00019979 0.0075304 
-1.2381 0.0977514 0.00279748 -0.986858 -0.161445 0.00688279 
-1.26177 0.191746 0.00279748 -0.945183 -0.326491 0.00574848 
-1.30021 0.278372 0.00279748 -0.87462 -0.484793 0.00396477 
-1.35194 0.354301 0.00279748 -0.768392 -0.639976 0.00196865 
-1.41498 0.416614 0.00279748 -0.628357 -0.777925 -0.000160658 
-1.4869 0.462916 0.00279748 -0.442925 -0.896556 -0.00218044 
-1.56493 0.491429 0.00279748 -0.234249 -0.97217 -0.00348332 
1.35414 0.50491 0.893158 0.00399256 -0.992477 0.122363 
1.254 0.495208 0.893158 0.187765 -0.954638 0.231108 
1.15771 0.466476 0.893158 0.354248 -0.87143 0.33929 
1.06897 0.419818 0.893158 0.49052 -0.747706 0.447578 
0.991194 0.357025 0.893158 0.585719 -0.596201 0.549069 
0.927361 0.280513 0.893158 0.638202 -0.434897 0.635265 
0.879929 0.193221 0.893158 0.656577 -0.276527 0.701741 
0.850721 0.0985031 0.893158 0.653958 -0.132568 0.744825 
0.840858 0 0.893158 0.644018 0.000195692 0.765011 
0.850721 -0.0985031 0.893158 0.652544 0.131709 0.746217 
0.879929 -0.193221 0.893158 0.654328 0.276017 0.704038 
0.927361 -0.280513 0.893158 0.635161 0.433183 0.639471 
0.991194 -0.357025 0.893158 0.582463 0.592919 0.556043 
1.06897 -0.419818 0.893158 0.48724 0.743844 0.457486 
1.15771 -0.466476 0.893158 0.353556 0.866361 0.352727 
1.254 -0.495208 0.893158 0.185702 0.952022 0.243245 
1.35414 -0.50491 0.893158 0.00402767 0.990881 0.134677 
1.45427 -0.495208 0.893158 -0.192382 0.981093 0.021109 
1.55056 -0.466476 0.893158 -0.375397 0.923451 -0.0794748 
1.6393 -0.419818 0.893158 -0.542094 0.823997 -0.164809 
1.71708 -0.357025 0.893158 -0.681555 0.694506 -0.230531 
1.78091 -0.280513 0.893158 -0.796832 0.537059 -0.276814 
1.82834 -0.193221 0.893158 -0.873715 0.379533 -0.304265 
1.85755 -0.0985031 0.893158 -0.92686 0.188667 -0.324554 
1.86742 0 0.893158 -0.942951 -0.000562766 -0.332932 
1.85755 0.0985031 0.893158 -0.926427 -0.187524 -0.326448 
1.82834 0.193221 0.893158 -0.872973 -0.379551 -0.306364 
1.78091 0.280513 0.893158 -0.795929 -0.53699 -0.279533 
1.71708 0.357025 0.893158 -0.680898 -0.693816 -0.234515 
1.6393 0.419818 0.893158 -0.541458 -0.823349 -0.17006 
1.55056 0.466476 0.893158 -0.375053 -0.923013 -0.0859154 
1.45427 0.495208 0.893158 -0.192801 -0.981146 0.0134034 
-1.35958 0.50491 -0.894263 -0.00371559 -0.991563 -0.129574 
-1.45972 0.495208 -0.894263 0.19231 -0.981086 -0.022088 
-1.55601 0.466476 -0.894263 0.375807 -0.923684 0.0746851 
-1.64474 0.419818 -0.894263 0.542589 -0.825382 0.156018 
-1.72253 0.357025 -0.894263 0.684635 -0.6955 0.218068 
-1.78636 0.280513 -0.894263 0.797615 -0.543634 0.261292 
-1.83379 0.193221 -0.894263 0.879876 -0.37638 0.290097 
-1.863 0.0985031 -0.894263 0.931404 -0.191742 0.309389 
-1.87286 0 -0.894263 0.948265 0.000408637 0.317479 
-1.863 -0.0985031 -0.894263 0.930907 0.190069 0.311908 
-1.83379 -0.193221 -0.894263 0.878909 0.376568 0.292772 
-1.78636 -0.280513 -0.894263 0.796809 0.54303 0.264981 
-1.72253 -0.357025 -0.894263 0.683659 0.694874 0.22307 
-1.64474 -0.419818 -0.894263 0.542015 0.824532 0.162375 
-1.55601 -0.466476 -0.894263 0.375389 0.923211 0.0822424 
-1.45972 -0.495208 -0.894263 0.192387 0.981232 -0.0130536 
-1.35958 -0.50491 -0.894263 -0.00362005 0.992822 -0.119545 
-1.25945 -0.495208 -0.894263 -0.185169 0.956709 -0.224544 
-1.16316 -0.466476 -0.894263 -0.356346 0.871557 -0.336757 
-1.07442 -0.419818 -0.894263 -0.491246 0.749767 -0.443314 
-0.996641 -0.357025 -0.894263 -0.588045 0.598933 -0.543583 
-0.932808 -0.280513 -0.894263 -0.642066 0.437023 -0.62989 
-0.885376 -0.193221 -0.894263 -0.66154 0.278695 -0.696199 
-0.856168 -0.0985031 -0.894263 -0.65974 0.134407 -0.739377 
-0.846305 0 -0.894263 -0.650612 -0.00057988 -0.75941 
-0.856168 0.0985031 -0.894263 -0.658503 -0.133359 -0.740668 
-0.885376 0.193221 -0.894263 -0.659369 -0.278292 -0.698417 
-0.932808 0.280513 -0.894263 -0.639587 -0.435809 -0.633245 
-0.996641 0.357025 -0.894263 -0.58587 -0.596757 -0.548304 
-1.07442 0.419818 -0.894263 -0.490111 -0.747471 -0.448418 
-1.16316 0.466476 -0.894263 -0.353894 -0.87032 -0.342494 
-1.25945 0.495208 -0.894263 -0.186611 -0.95341 -0.237036 
1.35573 0.50491 -0.894263 0.00419184 -0.990062 -0.140572 
1.25559 0.495208 -0.894263 0.187229 -0.950747 -0.247034 
1.15931 0.466476 -0.894263 0.352528 -0.867206 -0.351679 
1.07057 0.419818 -0.894263 0.48829 -0.744147 -0.455871 
0.992788 0.357025 -0.894263 0.583218 -0.594689 -0.553354 
0.928955 0.280513 -0.894263 0.637919 -0.433882 -0.636243 
0.881523 0.193221 -0.894263 0.658395 -0.277348 -0.69971 
0.852314 0.0985031 -0.894263 0.658459 -0.134114 -0.740571 
0.842452 0 -0.894263 0.650932 0.000915697 -0.759136 
0.852314 -0.0985031 -0.894263 0.657101 0.132969 -0.741982 
0.881523 -0.193221 -0.894263 0.656271 0.276953 -0.701858 
0.928955 -0.280513 -0.894263 0.635152 0.432313 -0.640068 
0.992788 -0.357025 -0.894263 0.580173 0.591391 -0.56005 
1.07057 -0.419818 -0.894263 0.485461 0.739756 -0.465927 
1.15931 -0.466476 -0.894263 0.350366 0.862595 -0.364929 
1.25559 -0.495208 -0.894263 0.186483 0.946989 -0.261602 
1.35573 -0.50491 -0.894263 0.00382788 0.987896 -0.155073 
1.45587 -0.495208 -0.894263 -0.192141 0.980543 -0.0402152 
1.55215 -0.466476 -0.894263 -0.375915 0.924614 0.0614558 
1.64089 -0.419818 -0.894263 -0.54355 0.826154 0.148402 
1.71867 -0.357025 -0.894263 -0.684001 0.697004 0.215239 
1.78251 -0.280513 -0.894263 -0.800257 0.539303 0.262186 
1.82994 -0.193221 -0.894263 -0.877678 0.381346 0.290271 
1.85915 -0.0985031 -0.894263 -0.931052 0.189559 0.311786 
1.86901 0 -0.894263 -0.947053 -0.000568457 0.321078 
1.85915 0.0985031 -0.894263 -0.930695 -0.188428 0.313532 
1.82994 0.193221 -0.894263 -0.876894 -0.381323 0.292659 
1.78251 0.280513 -0.894263 -0.799294 -0.539232 0.265251 
1.71867 0.357025 -0.894263 -0.683289 -0.696251 0.219889 
1.64089 0.419818 -0.894263 -0.542861 -0.825429 0.154821 
1.55215 0.466476 -0.894263 -0.37554 -0.924185 0.0696536 
1.45587 0.495208 -0.894263 -0.192748 -0.980774 -0.0304951 
3.78944e-10 0.3225 1.93855 0.00358395 -0.693442 -0.720503 
-0.144134 0.316303 1.93855 0.0537147 -0.679026 -0.732147 
-0.282729 0.297951 1.93855 0.112333 -0.633041 -0.765924 
-0.410459 0.268149 1.93855 0.165928 -0.569602 -0.804998 
-0.522415 0.228042 1.93855 0.205048 -0.485094 -0.850082 
-0.614295 0.179171 1.93855 0.248819 -0.380806 -0.890548 
-0.682568 0.123415 1.93855 0.282722 -0.269344 -0.92061 
-0.72461 0.0629166 1.93855 0.31855 -0.143896 -0.93692 
-0.738806 0 1.93855 0.337573 0.00134374 -0.941298 
-0.72461 -0.0629166 1.93855 0.31993 0.142499 -0.936663 
-0.682568 -0.123415 1.93855 0.285077 0.269836 -0.919739 
-0.614295 -0.179171 1.93855 0.253031 0.383447 -0.888225 
-0.522415 -0.228042 1.93855 0.211407 0.494696 -0.842961 
-0.410459 -0.268149 1.93855 0.172501 0.594383 -0.785463 
-0.282729 -0.297951 1.93855 0.119041 0.678634 -0.724765 
-0.144134 -0.316303 1.93855 0.0613704 0.73429 -0.676056 
3.78944e-10 -0.3225 1.93855 -0.00325806 0.75276 -0.658288 
0.144134 -0.316303 1.93855 -0.0584278 0.734393 -0.676205 
0.282729 -0.297951 1.93855 -0.120745 0.678895 -0.724239 
0.410459 -0.268149 1.93855 -0.172855 0.596225 -0.783988 
0.522415 -0.228042 1.93855 -0.209424 0.49324 -0.844308 
0.614295 -0.179171 1.93855 -0.247471 0.379773 -0.891365 
0.682568 -0.123415 1.93855 -0.276767 0.263837 -0.924008 
0.72461 -0.0629166 1.93855 -0.30843 0.139576 -0.940951 
0.738806 0 1.93855 -0.325639 -0.00117294 -0.945493 
0.72461 0.0629166 1.93855 -0.308052 -0.137167 -0.941429 
0.682568 0.123415 1.93855 -0.272149 -0.257693 -0.927108 
0.614295 0.179171 1.93855 -0.238589 -0.361464 -0.901343 
0.522415 0.228042 1.93855 -0.197601 -0.460885 -0.865181 
0.410459 0.268149 1.93855 -0.161145 -0.548069 -0.820763 
0.282729 0.297951 1.93855 -0.109699 -0.624388 -0.773373 
0.144134 0.316303 1.93855 -0.0575281 -0.679815 -0.731124 
0 0.464985 -1.52929 -0.00346996 -0.991695 -0.128563 
-0.273381 0.469053 -1.52929 -0.03085 -0.999356 -0.0183256 
-0.536256 0.48092 -1.52929 -0.0615782 -0.988033 0.14142 
-0.778522 0.487916 -1.52929 0.059461 -0.957763 0.281343 
-0.990871 0.448474 -1.52929 0.240576 -0.85926 0.451438 
-1.16514 0.378351 -1.52929 0.416272 -0.675408 0.608721 
-1.29463 0.253511 -1.52929 0.562212 -0.400714 0.723427 
-1.37438 0.105675 -1.52929 0.563756 -0.235987 0.791511 
-1.4013 0 -1.52929 0.579666 0.00262521 0.81485 
-1.37438 -0.105675 -1.52929 0.568056 0.224158 0.791875 
-1.29463 -0.253985 -1.52929 0.52969 0.437689 0.726538 
-1.16514 -0.361288 -1.52929 0.430129 0.664412 0.611184 
-0.990871 -0.445067 -1.52929 0.228434 0.862081 0.452365 
-0.778522 -0.47072 -1.5258 0.0583371 0.960003 0.273846 
-0.536256 -0.481088 -1.52929 -0.035329 0.993058 0.112196 
-0.273381 -0.451319 -1.52929 -0.0976323 0.995193 -0.00765895 
0 -0.445464 -1.52929 5.90481e-05 0.995133 -0.0985387 
0.273381 -0.448526 -1.52929 0.0593377 0.998235 -0.00226733 
0.536256 -0.472339 -1.52929 0.0844136 0.986706 0.13887 
0.778522 -0.484547 -1.52929 0.00252282 0.959861 0.280463 
0.990871 -0.463909 -1.52929 -0.208876 0.870278 0.446081 
1.16514 -0.387603 -1.52929 -0.442168 0.666555 0.600161 
1.3302 -0.207289 -1.52929 -0.585254 0.313362 0.747852 
1.37438 -0.105675 -1.52929 -0.576055 0.220933 0.786988 
1.4013 0 -1.52929 -0.583673 0.00631708 0.811964 
1.37438 0.105675 -1.52929 -0.564241 -0.241024 0.789645 
1.29463 0.247235 -1.52929 -0.549012 -0.422109 0.721395 
1.16514 0.365129 -1.52929 -0.430072 -0.669412 0.605744 
0.990871 0.443233 -1.52929 -0.250987 -0.859509 0.445252 
0.778522 0.480852 -1.52929 -0.0817744 -0.960178 0.267152 
0.536256 0.485033 -1.52929 0.0408696 -0.994054 0.100928 
0.273381 0.468212 -1.52929 0.0528349 -0.998021 -0.0340863 
3.78944e-10 0.3225 -1.93371 0.00373628 -0.694411 0.719569 
-0.144134 0.316303 -1.93371 0.0535014 -0.679434 0.731783 
-0.282729 0.297951 -1.93371 0.112065 -0.631615 0.76714 
-0.410459 0.268149 -1.93371 0.164744 -0.565977 0.807793 
-0.522415 0.228042 -1.93371 0.202196 -0.479045 0.854185 
-0.614295 0.179171 -1.93371 0.243639 -0.373032 0.895258 
-0.682568 0.123415 -1.93371 0.274608 -0.261784 0.925235 
-0.72461 0.0629166 -1.93371 0.307627 -0.139108 0.941283 
-0.738806 0 -1.93371 0.32528 0.00124011 0.945617 
-0.72461 -0.0629166 -1.93371 0.308865 0.137736 0.94108 
-0.682568 -0.123415 -1.93371 0.27675 0.261978 0.924542 
-0.614295 -0.179171 -1.93371 0.247439 0.374902 0.893433 
-0.522415 -0.228042 -1.93371 0.207962 0.487189 0.848174 
-0.410459 -0.268149 -1.93371 0.170714 0.589402 0.789596 
-0.282729 -0.297951 -1.93371 0.118972 0.67715 0.726164 
-0.144134 -0.316303 -1.93371 0.0592656 0.736108 0.674264 
3.78944e-10 -0.3225 -1.93371 -0.00232557 0.7533 0.657672 
0.144134 -0.316303 -1.93371 -0.0587234 0.735701 0.674756 
0.282729 -0.297951 -1.93371 -0.120616 0.679568 0.723629 
0.410459 -0.268149 -1.93371 -0.172329 0.594689 0.78527 
0.522415 -0.228042 -1.93371 -0.207335 0.489001 0.847284 
0.614295 -0.179171 -1.93371 -0.243426 0.373731 0.895024 
0.682568 -0.123415 -1.93371 -0.270129 0.257655 0.927709 
0.72461 -0.0629166 -1.93371 -0.299394 0.135595 0.944445 
0.738806 0 -1.93371 -0.31557 -0.00111695 0.948902 
0.72461 0.0629166 -1.93371 -0.299176 -0.133328 0.944837 
0.682568 0.123415 -1.93371 -0.26576 -0.251705 0.9306 
0.614295 0.179171 -1.93371 -0.234635 -0.355501 0.904746 
0.522415 0.228042 -1.93371 -0.195448 -0.456338 0.868076 
0.410459 0.268149 -1.93371 -0.160355 -0.545627 0.822543 
0.282729 0.297951 -1.93371 -0.109523 -0.623958 0.773745 
0.144134 0.316303 -1.93371 -0.0575629 -0.680687 0.73031 
