ply
format ascii 1.0
element vertex 499
property float x
property float y
property float z
property float nx
property float ny
property float nz
end_header
0.204188 0.981237 -0.0938497 -0.155477 -0.916184 0.369371 
-0.204188 -0.661902 -0.244413 -0.155522 -0.266235 0.951279 
-0.816751 0.584098 -0.0869659 0.762607 -0.551884 0.337423 
-0.816751 0.42586 -0.201729 0.492441 -0.282215 0.823321 
0.204188 0.470789 -0.0362993 0.48738 0.862713 0.134862 
0.816751 -4.09978e-05 -0.250017 0.0250302 0.00263547 0.999683 
-0.561516 0.343477 -0.231487 -0.276707 0.22436 0.934396 
-0.561516 0.20142 0.191076 -0.506498 0.24416 -0.82695 
0.561516 -0.506916 0.254825 0.0322298 -0.0250731 -0.999166 
-0.816751 -0.342966 -0.225096 0.349656 0.181593 0.919111 
-0.204188 0.884754 -0.210676 0.0809508 -0.551383 0.830316 
-0.816751 -0.47561 0.180478 0.581001 0.378899 -0.720329 
-0.816751 0.0889649 -0.248493 0.0117085 -0.0262867 0.999586 
0.561516 -0.0430554 -0.15548 0.682142 -0.0772694 0.727126 
0.561516 -0.246993 0.205198 0.451762 -0.254579 -0.855044 
-0.561516 -0.0367703 -0.155064 -0.684111 -0.0618632 0.726749 
-0.561516 0.810995 0.126325 0.496451 -0.706031 -0.505031 
0.816751 -0.59894 0.0578923 -0.7809 0.582738 -0.22497 
0.561516 0.463758 0.252245 0.0853712 0.0918889 -0.992103 
0.816751 0.0283684 0.249601 0.0173419 -0.0123451 -0.999773 
-0.204188 -0.988944 -0.0728202 0.164855 0.943705 0.28678 
-0.561516 0.578196 0.251307 0.100428 -0.121401 -0.98751 
-0.816751 -0.483781 -0.175839 0.596735 0.380954 0.706244 
0.561516 0.68509 0.225171 -0.294364 -0.362717 -0.884187 
-0.204188 -0.959058 0.136489 0.14815 0.832844 -0.533313 
0.204188 0.820948 -0.241371 -0.0218594 -0.311551 0.949978 
0.816751 0.247717 -0.23934 -0.187402 -0.108467 0.976276 
0.204188 0.537278 0.169382 0.351574 0.681621 -0.641707 
-0.561516 0.699068 -0.218446 0.317094 -0.408645 0.855839 
0.204188 0.477984 -0.0682932 0.474085 0.842796 0.254828 
0.204188 0.90142 0.198642 -0.106727 -0.612946 -0.782884 
0.561516 0.733582 0.198978 -0.377354 -0.507782 -0.774443 
0.561516 0.300096 -0.219888 0.350819 0.258324 0.900108 
0.561516 -0.844831 0.0558676 -0.54245 0.811234 -0.218285 
0.204188 -0.735645 0.254698 -1.18519e-16 -3.08352e-17 -1 
-0.561516 0.548435 -0.254215 0.0495267 -0.050585 0.997491 
-0.561516 0.773361 -0.168424 0.441784 -0.604782 0.66262 
-0.561516 -0.317062 0.225097 -0.335748 -0.23747 -0.911527 
-0.561516 -0.706739 -0.214795 0.326395 0.42497 0.844314 
0.816751 0.562508 -0.117092 -0.725684 -0.520969 0.449415 
-0.816751 -0.055496 -0.248939 0.00188918 0.0223395 0.999749 
-0.561516 0.0917499 0.162869 -0.639228 0.155508 -0.75313 
0.204188 -0.769122 0.25293 -0.0247848 0.115796 -0.992964 
0.204188 0.998728 -0.0232382 -0.166438 -0.981434 0.0953205 
-0.816751 0.162421 0.246008 0.0765392 -0.057173 -0.995426 
-0.561516 -0.402536 -0.244244 -0.19068 -0.173278 0.966238 
0.561516 -0.522419 -0.255132 0.00160768 1.96885e-19 0.999999 
-0.561516 -0.590396 -0.25033 0.11355 0.139568 0.98368 
-0.816751 0.0546601 0.249343 -0.00936215 -0.0150285 -0.999843 
0.816751 -0.478334 -0.178932 -0.584419 0.376132 0.719012 
0.816751 0.328566 -0.227458 -0.313238 -0.167405 0.934803 
0.204188 0.926626 0.176648 -0.12431 -0.699222 -0.704014 
0.561516 0.198308 -0.190157 0.514644 0.23736 0.823894 
-0.204188 -0.801895 0.24709 0.0140824 0.233722 -0.972202 
-0.816751 0.244437 0.239596 0.182874 -0.108964 -0.977079 
0.816751 0.538695 0.140513 -0.691798 -0.458522 -0.557829 
-0.204188 -0.979709 0.0980212 0.159209 0.904909 -0.394706 
-0.561516 0.832504 0.089256 0.527795 -0.772357 -0.353407 
-0.561516 0.0552632 0.156294 -0.670107 0.0964147 -0.735976 
0.204188 -0.957652 -0.138827 -0.137472 0.820342 0.555104 
0.561516 0.078482 -0.160479 0.656387 0.112578 0.745977 
-0.561516 -0.68425 0.225521 0.286336 0.369718 -0.883923 
0.204188 -0.545364 0.177211 0.332311 -0.656058 -0.677611 
-0.561516 -0.118264 0.168209 -0.615592 -0.165663 -0.770456 
0.204188 -0.630983 0.233734 0.177282 -0.379531 -0.908035 
0.204188 -0.878304 0.214905 -0.0998723 0.518567 -0.849184 
0.816751 -0.361787 0.220268 -0.377078 0.214837 -0.90092 
0.561516 0.0651817 0.158259 0.661613 0.107717 -0.742068 
-0.561516 0.846833 -0.047586 0.548365 -0.816986 0.178409 
0.561516 0.804835 -0.134161 -0.495885 -0.685468 0.533134 
0.816751 -0.277078 -0.235806 -0.236799 0.136976 0.961854 
0.561516 0.663263 -0.232419 -0.261269 -0.301804 0.916871 
0.204188 -0.512223 -0.138817 0.404596 -0.755858 0.514764 
0.816751 0.609514 -0.011751 -0.795616 -0.603426 0.0535836 
-0.816751 0.393605 -0.211586 0.43296 -0.247171 0.866863 
0.816751 -0.577989 -0.0976742 -0.749656 0.547745 0.371472 
-0.204188 -0.898192 -0.2015 0.0972031 0.594816 0.797964 
0.204188 -0.880266 -0.213523 -0.0829436 0.533888 0.841477 
0.204188 -0.761657 -0.253648 0.0350048 0.0955365 0.99481 
-0.561516 0.697307 0.219057 0.312463 -0.403421 -0.860011 
0.204188 0.467933 -0.00356714 0.491383 0.870844 0.0131787 
-0.561516 -0.848223 0.0405022 0.545471 0.822487 -0.161169 
-0.204188 0.639181 -0.237031 -0.191745 0.353727 0.915484 
0.204188 -0.671683 -0.246885 0.142684 -0.2328 0.962001 
0.204188 0.738399 -0.254768 0.0675382 -8.27104e-18 0.997717 
-0.561516 0.824102 -0.105633 0.518548 -0.744927 0.419752 
-0.561516 -0.506916 0.254825 -0.0360422 -0.0266287 -0.998995 
-0.816751 -0.0907362 0.248649 0.0148272 0.0278901 -0.999501 
-0.816751 -0.584277 -0.0871925 0.761253 0.554914 0.335506 
-0.561516 0.0337732 -0.155244 -0.679268 0.0493914 0.732226 
0.816751 -0.381345 -0.215249 -0.41198 0.249418 0.876392 
-0.204188 -0.960489 -0.13387 0.148222 0.840811 0.520641 
0.204188 0.851714 -0.229411 -0.0508305 -0.422224 0.905065 
0.204188 -0.510521 0.135674 0.400725 -0.76028 -0.511267 
-0.816751 -0.433368 -0.199289 0.508542 0.301246 0.80662 
0.204188 -0.810386 0.244492 -0.0545832 0.273173 -0.960415 
0.561516 0.699021 -0.218195 -0.323223 -0.40778 0.853957 
-0.816751 -0.407637 0.207621 0.458879 0.247325 -0.853382 
-0.561516 -0.843938 -0.0589053 0.541941 0.808613 0.22901 
-0.816751 0.498571 -0.167108 0.622209 -0.391605 0.677865 
-0.561516 -0.208922 0.193673 -0.503592 -0.248989 -0.827285 
0.816751 -0.045089 -0.249462 0.00800017 0.0108857 0.999909 
-0.204188 -0.658627 0.243458 -0.152335 -0.280045 -0.947823 
-0.561516 -0.623148 -0.244244 0.174278 0.218047 0.960251 
0.561516 -0.559913 0.253638 -0.0604915 0.0755937 -0.995302 
0.561516 -0.117172 0.169652 0.624958 -0.173693 -0.76109 
0.204188 -0.703216 0.252579 0.054897 -0.12503 -0.990633 
-0.561516 0.544492 0.25415 0.0414107 -0.0458829 -0.998088 
-0.561516 0.804778 -0.134731 0.490383 -0.688641 0.534133 
0.561516 0.247899 -0.204722 0.439235 0.254296 0.86163 
0.816751 -0.547621 0.132035 -0.707059 0.479399 -0.51985 
0.816751 -0.510926 0.16009 -0.643786 0.414496 -0.64322 
-0.561516 -0.828979 0.0976742 0.519832 0.763953 -0.382296 
0.204188 0.992947 -0.0574643 -0.162133 -0.959447 0.230595 
0.204188 0.587274 -0.21051 0.275736 0.519772 0.808583 
-0.816751 -0.172153 0.24542 0.0911099 0.0580355 -0.994148 
-0.561516 -0.546379 -0.254341 0.0346467 0.0488972 0.998203 
0.204188 0.472159 0.0443288 0.483085 0.860889 -0.159687 
0.204188 -0.999413 -0.0125737 -0.169356 0.984487 0.0458724 
0.204188 -0.569329 -0.198017 0.301058 -0.57903 0.757686 
0.816751 -0.47561 0.180478 -0.58054 0.37723 -0.721575 
0.561516 -0.402536 0.244244 0.195441 -0.171121 -0.965671 
0.816751 0.449623 -0.192274 -0.531465 -0.333214 0.77879 
-0.204188 0.578879 0.205326 -0.272331 0.551765 -0.788284 
-0.816751 0.602633 0.0453969 0.790337 -0.584862 -0.182491 
0.561516 0.496704 0.254399 0.0341 0.04051 -0.998597 
-0.561516 0.167428 -0.181257 -0.552621 0.228227 0.801575 
-0.204188 -0.509835 -0.134629 -0.408675 -0.760423 0.504719 
-0.204188 -0.477638 0.0664131 -0.469869 -0.84611 -0.251635 
-0.816751 -0.560033 -0.120317 0.724113 0.509371 0.464976 
-0.816751 -0.610564 2.0232e-08 0.798329 0.602221 0.000214707 
0.561516 -0.331725 -0.228666 0.302577 -0.240457 0.922295 
0.561516 -0.476041 -0.2534 0.0736198 -0.0740901 0.99453 
-0.561516 0.729015 -0.202071 0.369413 -0.491698 0.788522 
-0.204188 0.526155 -0.157201 -0.381678 0.709437 0.59247 
-0.816751 -0.5886 0.0799865 0.769409 0.555682 -0.315005 
0.204188 -0.93216 -0.170598 -0.120775 0.729909 0.67279 
0.561516 0.507545 -0.254368 0.00928095 0.0271101 0.999589 
0.561516 0.60923 0.246815 -0.157467 -0.190273 -0.96902 
0.561516 -0.799648 0.1418 -0.477928 0.672201 -0.565447 
-0.204188 -0.926708 0.176648 0.125101 0.698707 -0.704385 
-0.204188 0.475121 0.0572605 -0.477867 0.851134 -0.217287 
-0.561516 -0.317062 -0.225096 -0.335379 -0.239547 0.911119 
-0.561516 -0.513118 -0.25503 -0.0230218 -0.0112204 0.999672 
-0.561516 -0.797587 -0.144036 0.476334 0.665144 0.575056 
0.561516 0.76889 0.172674 -0.435489 -0.588865 -0.680873 
0.561516 0.594916 -0.249111 -0.138525 -0.169245 0.97579 
0.816751 -0.0833429 0.248379 -0.0103047 0.0143769 -0.999844 
-0.561516 -0.852329 2.0232e-08 0.549547 0.835463 0.0002345 
0.816751 -0.0804838 -0.249026 -0.0139949 0.0218268 0.999664 
-0.561516 0.851362 -0.0140389 0.551693 -0.832304 0.0538939 
0.561516 -0.208158 0.193561 0.511531 -0.250313 -0.821997 
0.204188 0.673239 0.247278 0.125751 0.234028 -0.964063 
0.204188 0.925561 -0.17726 -0.11664 -0.701374 0.703185 
0.561516 -0.685366 0.225097 -0.285682 0.37245 -0.882987 
0.561516 0.85156 0.0109404 -0.555201 -0.83037 -0.0473025 
-0.204188 0.998552 0.0263729 0.169835 -0.979095 -0.11193 
-0.561516 -0.282764 -0.215654 -0.393068 -0.252509 0.884159 
-0.816751 0.0940717 0.248523 0.0157711 -0.0315806 -0.999377 
0.816751 0.263869 0.237391 -0.210179 -0.118521 -0.970452 
-0.204188 0.731232 -0.254949 -0.0710252 0.0197051 0.99728 
0.816751 0.585389 -0.0845164 -0.761432 -0.563395 0.320635 
0.204188 0.707798 0.253478 0.0788867 0.106717 -0.991155 
-0.816751 0.393857 0.210646 0.43928 -0.238931 -0.865993 
-0.561516 0.290446 0.217084 -0.36442 0.254113 -0.895893 
-0.561516 -0.828979 -0.0976742 0.522448 0.762278 0.382074 
-0.204188 -0.70788 0.253478 -0.0871201 -0.108451 -0.990277 
0.561516 -0.840409 -0.0710808 -0.540995 0.794882 0.274751 
-0.561516 -0.737099 -0.197299 0.378365 0.511505 0.771494 
-0.816751 0.51868 0.153917 0.66902 -0.396408 -0.628708 
-0.816751 -0.208025 0.242802 0.13375 0.0760808 -0.98809 
0.204188 -0.90876 -0.193131 -0.104128 0.63714 0.763682 
0.561516 -0.00925837 -0.153241 0.6958 -0.013611 0.718106 
-0.561516 -0.0837426 0.161919 -0.645879 -0.122572 -0.753536 
0.561516 0.843962 -0.0584156 -0.549564 -0.802691 0.23166 
0.561516 -0.626327 0.2434 -0.180582 0.218531 -0.958976 
-0.561516 0.746925 0.190078 0.396192 -0.538679 -0.743543 
-0.204188 -0.541809 0.174255 -0.348105 -0.665083 -0.660673 
-0.204188 -0.469551 0.0294173 -0.48556 -0.867226 -0.110227 
0.816751 -0.237558 0.239701 -0.181664 0.0971719 -0.978548 
-0.816751 -0.226337 -0.240806 0.17098 0.100024 0.980184 
0.561516 0.472265 -0.252738 0.0650452 0.07101 0.995353 
0.204188 -0.983588 0.087864 -0.165874 0.923795 -0.345093 
0.204188 -0.495329 -0.110217 0.43531 -0.800153 0.412626 
0.561516 -0.826019 -0.102706 -0.521067 0.745667 0.415296 
-0.816751 -0.439555 0.197298 0.515473 0.305577 -0.800569 
-0.561516 0.486618 0.253803 -0.0482456 0.0517502 -0.997494 
-0.204188 0.484157 -0.0857027 -0.46345 0.825091 0.323171 
-0.816751 -0.128328 0.247266 0.045598 0.0367523 -0.998284 
-0.816751 -0.191453 -0.244244 0.126756 0.0703228 0.989438 
-0.816751 -0.602342 -0.0497942 0.787826 0.582336 0.200536 
-0.561516 -0.772728 -0.169343 0.436675 0.605237 0.665585 
0.816751 -0.191453 0.244244 -0.119677 0.0671983 -0.990536 
-0.816751 -0.261222 -0.237369 0.218032 0.107299 0.970025 
0.561516 0.823423 0.106807 -0.519736 -0.741259 -0.424747 
0.816751 -0.244485 -0.239628 -0.189054 0.0954967 0.977312 
-0.816751 -0.508291 0.161919 0.638752 0.403133 -0.655348 
0.816751 0.214911 -0.241905 -0.142699 -0.0700774 0.987282 
-0.816751 -0.125781 -0.247269 0.0570356 0.0401849 0.997563 
0.204188 0.999331 0.0125733 -0.169674 -0.984293 -0.0487713 
0.204188 -0.474742 0.055481 0.473163 -0.855043 -0.212176 
0.816751 -0.342966 -0.225096 -0.345661 0.185928 0.919755 
-0.816751 0.472584 0.18079 0.584767 -0.392654 -0.709838 
0.204188 0.703134 -0.252579 0.107138 0.122043 0.986725 
-0.561516 -0.623148 0.244244 0.173596 0.212541 -0.961609 
-0.816751 0.263869 -0.237391 0.209741 -0.118622 0.970535 
0.816751 -0.0377213 0.249297 0.0151082 0.0252257 -0.999568 
-0.561516 -0.361052 -0.235806 -0.257524 -0.211711 0.942794 
0.204188 0.495817 0.111336 0.433755 0.796425 -0.421384 
0.561516 -0.0837426 0.161919 0.65537 -0.15368 -0.739509 
-0.204188 -0.489257 0.0982847 -0.44713 -0.816806 -0.364558 
-0.816751 0.0518203 -0.249354 -0.0102592 -0.0167604 0.999807 
-0.204188 0.961788 -0.131813 0.145416 -0.844543 0.515366 
-0.561516 -0.170375 0.181889 -0.554681 -0.23853 -0.79714 
0.561516 -0.771798 0.170168 -0.433953 0.599842 -0.672216 
-0.816751 -0.0185642 -0.249683 -0.0164772 0.0106399 0.999808 
-0.204188 -0.999103 -0.0180134 0.170471 0.981956 0.0818714 
0.204188 0.509753 -0.134629 0.414062 0.758788 0.502786 
0.561516 -0.590396 -0.25033 -0.116592 0.144719 0.98258 
-0.561516 -0.280254 0.214776 -0.393445 -0.260812 -0.881577 
0.204188 0.561046 0.191684 0.305496 0.605798 -0.73463 
0.561516 0.75623 -0.18258 -0.419844 -0.559082 0.714953 
0.204188 0.965845 -0.125338 -0.146286 -0.853447 0.500229 
-0.816751 -0.0201517 0.249769 -0.0200924 0.00646069 -0.999777 
0.816751 -0.416327 -0.204863 -0.474182 0.266704 0.839059 
-0.561516 0.232546 0.200262 -0.458552 0.251605 -0.852306 
-0.561516 0.420522 -0.246944 -0.14591 0.151025 0.977702 
0.816751 -0.545776 -0.134502 -0.699581 0.475869 0.533042 
0.561516 -0.440141 0.249862 0.136138 -0.121144 -0.983255 
0.561516 0.727565 -0.202499 -0.371866 -0.488837 0.789148 
0.204188 -0.925644 0.17726 -0.132928 0.706165 -0.695458 
0.561516 -0.170286 0.182347 0.564674 -0.217206 -0.796219 
-0.561516 0.323771 0.226279 -0.312058 0.243682 -0.91828 
-0.204188 0.910921 -0.191071 0.104566 -0.64469 0.757259 
0.816751 -0.607819 -0.0277701 -0.793853 0.597434 0.113445 
0.816751 0.563669 0.115254 -0.732273 -0.522919 -0.43627 
-0.816751 0.220837 -0.24168 0.149257 -0.0825976 0.985343 
0.204188 0.834392 0.236537 -0.0475877 -0.366473 -0.929211 
-0.204188 0.995207 -0.0482812 0.164918 -0.969637 0.180572 
0.816751 0.605353 0.0373582 -0.7919 -0.592007 -0.149737 
0.204188 0.620169 0.228899 0.204635 0.414267 -0.886852 
-0.204188 0.55875 -0.189911 -0.322556 0.608535 0.725012 
-0.204188 0.978967 0.0998355 0.164155 -0.901968 -0.399383 
-0.204188 -0.475572 -0.058684 -0.473624 -0.853527 0.217192 
-0.816751 -0.308454 -0.230706 0.291301 0.140868 0.946203 
0.816751 0.534281 -0.143824 -0.680842 -0.447681 0.579686 
0.561516 -0.0461647 0.156435 0.680967 -0.063996 -0.729512 
0.561516 -0.706145 -0.215081 -0.327938 0.426213 0.843089 
-0.561516 0.431216 0.248434 -0.134724 0.146374 -0.980012 
-0.204188 -0.617535 0.227738 -0.21566 -0.424336 -0.879448 
-0.561516 -0.475638 -0.253393 -0.079148 -0.0718379 0.994271 
-0.204188 0.820948 0.241371 0.0621329 -0.314763 -0.947134 
-0.816751 0.195227 0.243443 0.116015 -0.0768113 -0.990273 
-0.204188 0.999205 -0.0153474 0.16796 -0.983562 0.0662933 
0.816751 -0.609019 0.0187628 -0.793999 0.602942 -0.077638 
0.816751 0.132894 -0.247095 -0.0497294 -0.0384448 0.998023 
-0.561516 0.375158 -0.238596 -0.220889 0.199856 0.954602 
0.561516 -0.473148 0.253157 0.0853116 -0.0748843 -0.993536 
0.204188 0.995207 0.0482812 -0.167031 -0.968721 -0.18352 
0.816751 0.145873 0.24648 -0.062899 -0.0384617 -0.997279 
-0.204188 0.980802 -0.0955506 0.156694 -0.908535 0.387314 
-0.204188 0.992403 0.0595119 0.168777 -0.956814 -0.236689 
0.204188 -0.846141 0.231722 -0.0803768 0.402942 -0.911689 
0.816751 0.398545 -0.209303 -0.438252 -0.251689 0.862895 
-0.816751 0.590097 0.0756427 0.772747 -0.561808 -0.295353 
0.816751 0.584098 0.0869659 -0.762459 -0.552022 -0.337533 
-0.816751 0.609514 0.011751 0.798516 -0.599638 -0.0529758 
0.561516 -0.676256 -0.228326 -0.275976 0.345498 0.896922 
-0.816751 0.57238 0.103763 0.74738 -0.538574 -0.389052 
0.816751 -0.11593 0.247723 -0.038695 0.0343686 -0.99866 
0.204188 -0.849662 -0.230287 -0.0536632 0.417974 0.906873 
-0.561516 0.394944 0.24203 -0.19131 0.183611 -0.964203 
0.561516 0.135213 0.172781 0.59354 0.196337 -0.780488 
0.204188 0.480393 0.0762662 0.464997 0.837333 -0.287491 
-0.561516 0.628426 -0.242546 0.193143 -0.224637 0.955109 
-0.204188 0.763682 -0.253414 -0.033482 -0.10795 0.993592 
0.816751 0.438648 0.197614 -0.513587 -0.314602 -0.798282 
-0.816751 -0.374334 0.217048 0.397713 0.242369 -0.884919 
0.561516 -0.851076 0.02189 -0.549093 0.831774 -0.0815359 
0.561516 -0.300177 -0.219888 0.355463 -0.24772 0.901266 
-0.561516 0.6602 -0.233931 0.250093 -0.295449 0.922043 
-0.204188 0.528779 0.159768 -0.366492 0.709186 -0.602277 
-0.204188 0.621955 0.229448 -0.194977 0.406175 -0.892752 
-0.204188 0.942982 -0.1585 0.129875 -0.769693 0.625065 
0.816751 0.59995 -0.0532879 -0.783059 -0.584374 0.212899 
0.816751 -0.00513446 0.249953 0.0270334 0.00318699 -0.999629 
-0.561516 0.111195 -0.167066 -0.618095 0.16835 0.767865 
0.204188 0.670731 -0.246618 0.150246 0.238696 0.959401 
0.204188 -0.543937 -0.176212 0.346282 -0.653845 0.672737 
0.561516 0.244952 0.204341 0.440023 0.256306 -0.860632 
0.561516 0.629723 -0.241867 -0.201935 -0.230432 0.951905 
-0.561516 -0.242443 -0.203827 -0.458304 -0.253557 0.85186 
0.204188 0.801813 0.24709 -0.0154309 -0.237579 -0.971246 
-0.561516 -0.248322 0.205244 -0.443609 -0.254379 -0.859362 
-0.204188 0.659006 0.243717 -0.134733 0.288272 -0.948022 
0.561516 0.341528 -0.231073 0.281893 0.225453 0.932581 
0.561516 0.147488 -0.175887 0.585353 0.217382 0.781093 
0.816751 -0.150258 0.246141 -0.073385 0.0438172 -0.996341 
-0.561516 -0.0215482 0.154055 -0.683804 -0.0475942 -0.728112 
-0.204188 -0.510681 0.136361 -0.406153 -0.756574 -0.51248 
-0.204188 -0.976479 -0.104961 0.15853 0.893058 0.421088 
0.816751 -0.447875 -0.193418 -0.530788 0.326932 0.781907 
0.816751 -0.204711 -0.24309 -0.134275 0.0781108 0.987861 
0.816751 0.172263 -0.245239 -0.0905978 -0.0645012 0.993797 
-0.204188 0.508037 0.132017 -0.408932 0.762743 -0.500997 
0.816751 0.302523 0.231734 -0.270999 -0.152179 -0.950474 
-0.204188 -0.799742 -0.247613 0.00395524 0.227189 0.973843 
0.816751 -0.168936 -0.245616 -0.0915914 0.0533424 0.994367 
0.204188 0.516145 0.14407 0.393016 0.74347 -0.541102 
0.816751 0.0968056 -0.248423 -0.0203861 -0.0287537 0.999379 
-0.204188 -0.534942 -0.167113 -0.362112 -0.687874 0.62905 
-0.561516 -0.799648 0.1418 0.476347 0.672454 -0.566479 
0.816751 -0.396248 0.211225 -0.437569 0.241136 -0.866249 
0.816751 0.360875 0.220444 -0.37196 -0.220305 -0.901727 
0.816751 0.113274 0.247755 -0.0329729 -0.0375632 -0.99875 
0.561516 0.529941 0.254881 -0.0152638 -0.0139945 -0.999786 
-0.816751 0.0149672 -0.249742 -0.0255581 -0.004453 0.999663 
0.204188 -0.468138 -0.0102875 0.485451 -0.873282 0.0414308 
-0.816751 -0.33835 0.226032 0.334567 0.193066 -0.922383 
-0.816751 -0.532447 -0.145154 0.679803 0.443257 0.584287 
-0.204188 0.84958 -0.230287 0.0478365 -0.414961 0.908581 
-0.561516 -0.714862 0.210562 0.340129 0.458581 -0.820985 
-0.204188 0.684705 -0.250027 -0.127371 0.187209 0.974027 
-0.204188 -0.76288 -0.253425 -0.0313322 0.0918846 0.995277 
-0.816751 -0.283206 0.234829 0.24305 0.129656 -0.96131 
-0.816751 0.564775 -0.113902 0.732163 -0.525299 0.433588 
-0.561516 -0.437007 0.249394 -0.143922 -0.124315 -0.98175 
-0.561516 0.50265 -0.254686 -0.0222443 0.0319168 0.999243 
0.561516 0.823482 -0.106608 -0.522347 -0.738936 0.42559 
-0.561516 -0.676238 -0.228309 0.272786 0.345632 0.897846 
-0.561516 0.016225 0.153708 -0.689495 0.0221405 -0.723952 
-0.561516 0.645344 0.238331 0.220661 -0.259503 -0.940195 
0.204188 -0.596806 -0.216732 0.255198 -0.496695 0.829559 
-0.561516 0.583578 -0.251071 0.111754 -0.131814 0.984955 
-0.561516 -0.351626 0.233511 -0.279165 -0.218209 -0.935121 
0.561516 0.643283 0.238726 -0.219258 -0.254057 -0.942009 
0.204188 0.886923 -0.20904 -0.0835869 -0.565074 0.820795 
0.561516 0.276236 0.21355 0.39156 0.254855 -0.884155 
-0.204188 0.473772 -0.0532756 -0.484464 0.851556 0.200368 
0.816751 0.360569 -0.220181 -0.369829 -0.237868 0.898134 
0.204188 -0.993847 0.0543929 -0.169799 0.960739 -0.219429 
-0.561516 0.843962 0.0584165 0.543609 -0.806303 -0.233162 
-0.816751 -0.545776 0.134503 0.701623 0.481164 -0.525553 
0.204188 0.545282 -0.17721 0.347949 0.653736 0.671982 
-0.816751 0.280057 0.234587 0.237255 -0.141105 -0.961145 
-0.561516 -0.443274 -0.25033 -0.128897 -0.117089 0.984721 
-0.816751 0.122884 -0.247463 0.038966 -0.0355227 0.998609 
-0.816751 0.302523 -0.231734 0.27163 -0.152573 0.950231 
0.204188 -0.472898 -0.0479738 0.478 -0.860071 0.178308 
-0.204188 0.468258 -0.0130203 -0.494054 0.867902 0.0515396 
-0.816751 0.128246 0.247266 0.0425733 -0.0325732 -0.998562 
-0.204188 0.586922 -0.210413 -0.274245 0.516847 0.810961 
0.561516 0.428942 0.248103 0.13828 0.13888 -0.980608 
-0.561516 -0.163974 -0.180478 -0.573053 -0.205465 0.793344 
-0.204188 -0.582802 0.207706 -0.274148 -0.536658 -0.798023 
0.204188 -0.967481 0.122901 -0.158109 0.859154 -0.486678 
0.561516 0.205497 0.192558 0.499574 0.249887 -0.829447 
0.204188 -0.639263 -0.237031 0.187789 -0.342199 0.920671 
-0.816751 0.545694 0.134504 0.70995 -0.466737 -0.527378 
0.561516 -0.848995 -0.0360291 -0.550594 0.824006 0.133641 
-0.561516 0.248058 -0.20528 -0.433666 0.257188 0.86359 
-0.561516 0.0786384 -0.160682 -0.649143 0.127502 0.749904 
0.204188 0.591123 0.213122 0.252529 0.509897 -0.822334 
-0.204188 -0.901502 0.198642 0.106922 0.614904 -0.78132 
-0.204188 0.925562 0.17726 0.136001 -0.706143 -0.694885 
0.816751 -0.439554 0.197298 -0.514607 0.312752 -0.798352 
-0.204188 0.960407 0.13387 0.155321 -0.832717 -0.531467 
0.561516 -0.556526 -0.254005 -0.0556512 0.0682909 0.996112 
0.204188 -0.670812 0.246618 0.109407 -0.233273 -0.966237 
0.204188 0.772161 -0.252683 0.030733 -0.127952 0.991304 
-0.561516 -0.556526 0.254005 0.0490465 0.0662871 -0.996594 
-0.816751 0.361039 0.220047 0.379857 -0.237576 -0.894017 
0.561516 0.375152 -0.238418 0.223097 0.194385 0.955218 
0.561516 -0.43309 -0.248809 0.135763 -0.139169 0.980918 
-0.816751 -0.0570213 0.249315 -0.005124 0.0147752 -0.999878 
0.561516 -0.170374 -0.181889 0.557178 -0.222556 0.800014 
-0.561516 -0.131882 -0.173055 -0.60881 -0.175786 0.773595 
-0.816751 0.465422 -0.185193 0.562569 -0.366021 0.741313 
0.561516 0.804778 0.134731 -0.491761 -0.690485 -0.530473 
0.204188 -0.987158 -0.0781232 -0.158587 0.935908 0.314526 
-0.816751 -0.393154 -0.212219 0.436786 0.250323 0.864035 
0.561516 -0.313944 0.224238 0.341252 -0.239781 -0.908874 
0.816751 -0.277078 0.235806 -0.237229 0.112168 -0.964956 
0.561516 0.167428 0.181257 0.553783 0.225517 -0.80154 
0.561516 0.307823 0.222363 0.338909 0.244621 -0.908461 
0.816751 -0.309327 -0.230662 -0.288549 0.149035 0.945795 
-0.204188 -0.838871 0.234803 0.0533609 0.381185 -0.922958 
0.561516 -0.623148 -0.244244 -0.177996 0.216082 0.960013 
0.816751 -0.327278 0.227646 -0.317925 0.179318 -0.931004 
0.561516 0.577104 0.251774 -0.0990211 -0.114986 -0.988419 
0.561516 -0.714584 0.210727 -0.337382 0.458317 -0.822264 
-0.204188 -0.468015 -0.00356714 -0.486949 -0.873168 0.0213929 
0.561516 -0.137854 -0.173467 0.597868 -0.197287 0.776938 
0.561516 0.433904 -0.248748 0.125692 0.133864 0.982996 
0.816751 0.0652215 0.249213 0.000502613 -0.0156876 -0.999877 
0.204188 0.492912 -0.105434 0.445355 0.801747 0.398573 
0.816751 -0.129695 -0.247216 -0.0527648 0.0374367 0.997905 
0.561516 0.0259845 -0.154355 0.685914 0.0563123 0.725501 
-0.561516 0.790159 0.151667 0.464337 -0.649272 -0.602359 
0.204188 -0.995741 -0.0452046 -0.164518 0.969434 0.182018 
-0.204188 0.738399 0.254768 1.20145e-16 2.37224e-17 -1 
0.561516 -0.830144 0.0950538 -0.523214 0.766566 -0.372322 
0.816751 0.393605 0.211586 -0.429865 -0.242745 -0.86965 
-0.204188 -0.87048 -0.219431 0.0744641 0.488886 0.869164 
-0.204188 -0.768398 0.252901 -0.0170819 0.116755 -0.993014 
-0.561516 0.210094 -0.193915 -0.491083 0.251152 0.834123 
0.816751 0.214783 0.242151 -0.14056 -0.0833082 -0.986561 
0.816751 0.283291 -0.234111 -0.241135 -0.143496 0.959824 
0.204188 -0.998986 0.0201033 -0.170638 0.982462 -0.0751708 
-0.816751 0.359086 -0.220898 0.368523 -0.214758 0.904472 
-0.816751 0.188403 -0.244206 0.107821 -0.066729 0.991928 
-0.816751 0.155725 -0.246059 0.0705099 -0.0478609 0.996362 
0.204188 -0.469035 0.0235361 0.484541 -0.869936 -0.0918222 
0.204188 0.960734 0.133566 -0.147957 -0.839709 -0.522491 
-0.204188 -0.999035 0.0208948 0.170772 0.980966 -0.0924254 
-0.204188 0.488553 0.0969044 -0.449604 0.816396 -0.362426 
-0.561516 0.167036 0.181032 -0.556202 0.226604 -0.799556 
-0.816751 -0.602342 0.0497932 0.78857 0.582044 -0.19845 
-0.816751 0.436521 0.198426 0.517533 -0.299584 -0.801504 
-0.204188 -0.630983 -0.233734 -0.200931 -0.376874 0.904208 
-0.561516 -0.590396 0.25033 0.112552 0.146531 -0.982782 
0.816751 -0.579561 0.0950538 -0.753991 0.545063 -0.36661 
0.561516 0.0212098 0.154038 0.685847 0.025012 -0.727316 
-0.816751 -0.569011 0.108995 0.739341 0.530779 -0.414305 
-0.561516 -0.074349 -0.160548 -0.661077 -0.13654 0.73779 
0.561516 0.393328 0.242296 0.19445 0.180489 -0.964164 
-0.816751 0.605352 -0.0373582 0.793579 -0.589903 0.149153 
-0.561516 -0.402536 0.244244 -0.197218 -0.170546 -0.965412 
0.204188 -0.811747 -0.244189 -0.0166942 0.274594 0.961415 
0.816751 0.0482247 -0.249422 0.00712842 -0.017098 0.999828 
-0.561516 0.610352 0.246252 0.158174 -0.18209 -0.970476 
-0.204188 -0.568661 -0.197318 -0.301016 -0.577701 0.758717 
0.204188 -0.48173 -0.0794116 0.460958 -0.834477 0.301937 
-0.204188 -0.86884 0.220642 0.0784051 0.48323 -0.871976 
0.561516 -0.267153 -0.211224 0.411935 -0.237905 0.879608 
0.561516 0.357599 0.234774 0.254035 0.21641 -0.942673 
0.204188 -0.711228 -0.253688 0.0935864 -0.0980272 0.990774 
-0.561516 -0.205002 -0.192627 -0.517464 -0.249102 0.818645 
0.816751 0.178457 0.244979 -0.0958468 -0.0594099 -0.993622 
0.561516 0.8509 -0.0235489 -0.55721 -0.825701 0.0879514 
-0.204188 0.772161 0.252683 0.0252221 -0.126332 -0.991667 
0.561516 -0.279646 0.214795 0.399831 -0.25267 -0.881075 
-0.816751 -0.158617 -0.245757 0.0895984 0.0403132 0.995162 
-0.561516 -0.76715 0.174292 0.426594 0.587747 -0.687438 
-0.204188 -0.992604 0.058963 0.168027 0.959589 -0.225734 
-0.561516 -0.00133799 -0.154437 -0.69222 0.00221707 0.721683 
-0.204188 0.553388 0.185064 -0.318096 0.633954 -0.704924 
-0.561516 0.462241 -0.252101 -0.0813171 0.0928847 0.992351 
0.816751 -0.598515 -0.0589053 -0.780855 0.580242 0.231485 
-0.204188 -0.727137 -0.254488 -0.0719384 -0.0340295 0.996828 
0.561516 -0.0128961 0.154642 0.694011 -0.0294995 -0.71936 
0.561516 -0.375234 -0.238418 0.225815 -0.194611 0.954534 
-0.816751 -0.2478 0.23934 0.189707 0.105153 -0.976194 
0.561516 0.78254 -0.15935 -0.461519 -0.626893 0.627698 
-0.561516 -0.474144 0.253211 -0.0874572 -0.0749777 -0.993343 
0.561516 -0.217817 -0.196393 0.488943 -0.264843 0.83114 
-0.816751 -0.0924277 -0.248196 0.0272655 0.0193266 0.999441 
0.204188 -0.973834 -0.110374 -0.150602 0.890574 0.429181 
-0.561516 0.310636 -0.223139 -0.329615 0.244095 0.912015 
-0.204188 0.851714 0.229411 0.0828696 -0.415006 -0.906037 
0.204188 0.863964 0.223053 -0.0736365 -0.467201 -0.881079 
-0.561516 0.8509 0.023549 0.552406 -0.828971 -0.0874931 
0.816751 0.473158 0.181106 -0.577032 -0.384226 -0.720698 
0.561516 -0.804986 -0.13464 -0.490374 0.693007 0.528464 
-0.204188 -0.601627 -0.219323 -0.245793 -0.480521 0.841835 
0.204188 0.947302 -0.152552 -0.134599 -0.785867 0.60357 
-0.204188 0.696846 0.251764 -0.0682627 0.137884 -0.988093 
0.561516 0.102188 0.164922 0.629891 0.16483 -0.758992 
0.204188 0.620166 -0.228591 0.223652 0.412528 0.883063 
0.561516 -0.781095 -0.161919 -0.453003 0.627681 0.633091 
0.561516 0.844581 0.0564482 -0.548594 -0.807729 -0.215914 
-0.816751 0.538696 -0.140514 0.690074 -0.462063 0.557042 
0.816751 -0.508291 -0.161919 -0.637091 0.405161 0.655713 
-0.816751 0.0160476 0.249819 -0.0277653 -0.0046119 -0.999604 
-0.561516 0.131199 0.1716 -0.599189 0.188062 -0.778206 
0.561516 0.561475 -0.253504 -0.079093 -0.0800831 0.993645 
-0.816751 0.318865 0.228883 0.302261 -0.151503 -0.941109 
0.204188 -0.591553 0.213103 0.24712 -0.515128 -0.820716 
-0.204188 -0.693784 -0.251356 -0.112238 -0.153199 0.981801 
0.204188 0.741348 0.254711 0.0379471 -0.0263526 -0.998932 
-0.561516 0.356812 0.234412 -0.256809 0.208917 -0.943612 
-0.204188 -0.489724 -0.0990371 -0.446908 -0.812957 0.373329 
-0.204188 0.813306 -0.243705 0.0148129 -0.27864 0.960281 
0.561516 -0.734598 -0.198791 -0.377226 0.500894 0.778978 
0.204188 -0.949422 0.149981 -0.148354 0.788042 -0.597479 
0.204188 -0.492994 0.105434 0.435656 -0.807941 -0.39678 
0.816751 0.481194 -0.176483 -0.588408 -0.384484 0.7113 
0.204188 0.979627 0.0980212 -0.158432 -0.904028 -0.397031 
0.561516 -0.742228 0.193561 -0.383798 0.526823 -0.758391 
-0.204188 0.90039 0.199596 0.118815 -0.610901 -0.782741 
0.561516 -0.105513 -0.165448 0.6317 -0.17211 0.755866 
-0.204188 -0.937197 -0.165408 0.127297 0.747319 0.652158 
0.561516 -0.361052 0.235806 0.262775 -0.212954 -0.941063 
0.816751 0.508382 0.161155 -0.640529 -0.396016 -0.657946 
0.561516 0.111652 -0.166456 0.626922 0.171925 0.759876 
0.561516 -0.593671 0.249721 -0.12162 0.15339 -0.980653 
-0.204188 0.468494 0.0203453 -0.493175 0.8665 -0.0771793 
-0.204188 0.499801 -0.119167 -0.432404 0.787253 0.439614 
-0.204188 -0.839074 -0.234611 0.0460503 0.385171 0.921696 
