ply
format ascii 1.0
element vertex 241
property float x
property float y
property float z
property float nx
property float ny
property float nz
end_header
-0.212845 0.84949 0.215112 0.122303 -0.489529 -0.863367 
-0.669255 0.693293 -0.128158 0.597483 -0.615634 0.513818 
-0.0444338 -0.971016 0.112102 0.0484802 0.895339 -0.442739 
-0.456827 0.239128 -0.0867228 -0.835383 0.431694 0.340259 
-0.722571 -0.300893 0.247568 0.115545 0.0435086 -0.992349 
-0.86695 0.00328886 0.220829 0.468688 -0.00234155 -0.88336 
-0.151761 0.981936 -0.0504593 0.149126 -0.967277 0.205272 
-0.101443 0.794942 -0.24434 0.0216058 -0.206553 0.978197 
-0.0643074 -0.513116 -0.0917357 -0.137745 -0.921113 0.364113 
-0.452231 -0.232039 -0.064064 -0.861068 -0.444199 0.247484 
-0.894883 0.197718 -0.185447 0.651941 -0.145717 0.744137 
-0.446454 0.88524 -0.0602311 0.437783 -0.866676 0.239203 
-0.272251 -0.55904 -0.214707 -0.222854 -0.462212 0.85831 
-0.772023 -0.399178 0.21942 0.42045 0.226728 -0.878531 
-0.719346 0.126406 -0.249066 -0.0884574 0.0155194 0.995959 
-0.695978 -0.65048 0.144552 0.594653 0.553305 -0.583302 
-0.612159 0.164159 -0.221574 -0.445304 0.12008 0.887291 
-0.782405 0.369358 0.221236 0.420492 -0.196739 -0.885709 
-0.423938 0.799637 0.195765 0.289271 -0.548246 -0.784696 
-0.984508 0.0626568 0.0771802 0.949697 -0.0537398 -0.308524 
-0.856737 -0.166892 0.217391 0.48958 0.0910346 -0.867193 
-0.476724 0.416149 0.2211 -0.347204 0.299106 -0.888811 
-0.983939 -0.109148 -0.0675292 0.954851 0.101608 0.27917 
-0.61206 -0.304266 0.240934 -0.239078 -0.122628 -0.963226 
-0.822116 0.140197 -0.234861 0.338407 -0.0543326 0.93943 
-0.537284 0.800159 0.128803 0.480366 -0.712805 -0.511036 
-0.753498 -0.644782 -0.0594955 0.73804 0.629582 0.242741 
-0.704739 -0.509945 0.218667 0.388859 0.288671 -0.874904 
-0.477727 0.196357 0.0888071 -0.86882 0.348918 -0.351296 
-0.302724 -0.459085 0.149587 -0.439856 -0.661221 -0.607712 
-0.935717 -0.165942 0.148039 0.79208 0.134024 -0.595522 
-0.21325 -0.454547 -0.0345077 -0.420571 -0.897436 0.133145 
-0.512702 0.347888 -0.213071 -0.432154 0.290248 0.853815 
-0.175694 -0.562886 0.191875 -0.188593 -0.615984 -0.764851 
-0.249007 -0.936047 -0.119208 0.225461 0.852059 0.472401 
0.725289 0.290727 0.247717 -1.22028e-16 -1.03288e-17 -1 
-0.844293 0.528602 -0.0357297 0.840392 -0.522595 0.143653 
-0.655696 -0.719962 -0.108358 0.60551 0.667576 0.433244 
-0.632323 0.328143 -0.246909 -0.133985 0.0653251 0.988828 
-0.741601 -0.00197411 0.249592 -0.0399237 0.000670926 -0.999203 
-0.40896 -0.291367 0.0342721 -0.80593 -0.576074 -0.136436 
-0.0513267 0.49834 0.021994 -0.127096 0.987424 -0.0940237 
-0.199885 -0.471438 0.0767332 -0.378542 -0.874079 -0.304454 
-0.106341 -0.48834 -0.00297744 -0.224167 -0.974502 0.00972545 
-0.0324333 -0.997707 0.0142332 0.017602 0.997819 -0.0636199 
-0.735633 0.567102 0.173432 0.566272 -0.440318 -0.696747 
-0.362972 -0.888178 -0.135841 0.313915 0.780427 0.540732 
-0.443592 0.53455 0.243589 -0.144319 0.172105 -0.97445 
-0.346143 -0.932794 -0.042825 0.339896 0.924876 0.170512 
-0.00434519 0.748617 0.249943 7.06532e-17 -1.00029e-16 -1 
-0.959799 -0.0380458 0.132552 0.848539 0.0372712 -0.527819 
-0.366514 -0.385728 0.12296 -0.596998 -0.630056 -0.496611 
-0.253162 -0.688473 0.249234 -0.031701 -0.0717184 -0.996921 
-0.626761 -0.740253 0.117666 0.572588 0.671937 -0.469728 
-0.664411 0.0779756 0.236386 -0.31774 0.036067 -0.947492 
-0.206461 0.801595 -0.237029 0.0788498 -0.299094 0.95096 
0.739095 -0.0825549 -0.24971 0.237615 2.90994e-17 0.971359 
-0.19713 0.597606 0.219097 -0.150614 0.462328 -0.873824 
-0.290003 -0.407862 0.0194624 -0.577667 -0.812507 -0.0783178 
-0.678502 0.436781 -0.243012 0.188624 -0.125385 0.974012 
-0.92279 0.384417 0.00496409 0.922755 -0.384956 -0.0181942 
-0.187736 0.972255 0.0676335 0.176023 -0.947351 -0.267475 
-0.645464 -0.647582 -0.187999 0.468753 0.470071 0.747866 
-0.614639 -0.186189 -0.225249 -0.417653 -0.123107 0.900228 
-0.0263908 -0.650656 -0.229846 -0.0214004 -0.406872 0.913234 
0.51413 -0.12378 0.117672 0.830507 -0.192288 -0.522765 
-0.896284 0.100261 0.197863 0.607007 -0.063727 -0.792137 
-0.940833 -0.161751 -0.142038 0.810716 0.133918 0.569917 
-0.549131 -0.515159 0.249816 0.0024291 0.0104895 -0.999942 
-0.946974 0.297715 0.0570964 0.928558 -0.287562 -0.234708 
-0.288243 0.942228 0.0831717 0.278995 -0.901997 -0.329488 
-0.875019 0.0126204 -0.215811 0.506767 -0.0111972 0.86201 
-0.13128 -0.748288 0.249491 0.00230935 0.0190141 -0.999817 
-0.155346 0.514367 -0.130905 -0.25163 0.811183 0.527886 
-0.371534 -0.91133 0.0860586 0.355145 0.870084 -0.341797 
-0.40519 0.352254 -0.131051 -0.646217 0.550266 0.528782 
-0.779148 -0.555628 -0.138741 0.679474 0.477894 0.556716 
-0.897187 0.30504 -0.151322 0.749651 -0.257552 0.609664 
-0.297661 0.539715 0.21122 -0.256911 0.467692 -0.845731 
-0.770079 0.243293 -0.242885 0.220983 -0.075343 0.972363 
-0.955346 -0.243524 -0.0786063 0.918239 0.23928 0.315566 
-0.759462 0.635897 0.0656836 0.736841 -0.621034 -0.267175 
-0.285877 0.644698 0.245886 -0.0741878 0.16852 -0.982902 
-0.53329 0.577067 -0.246993 0.0918512 -0.111978 0.989457 
-0.131747 0.783812 0.245664 0.0283875 -0.180516 -0.983162 
-0.00364166 -0.573636 0.177313 -0.02276 -0.708841 -0.705001 
-0.31866 0.794441 0.225902 0.154339 -0.393566 -0.906248 
-0.835788 -0.338302 -0.198155 0.566184 0.233274 0.790581 
-0.92596 0.193733 0.154323 0.770927 -0.165394 -0.615074 
-0.139927 0.931505 0.158777 0.0998176 -0.761609 -0.640303 
-0.461807 0.760689 -0.206338 0.294292 -0.477824 0.827693 
-0.992986 0.0695025 -0.0406551 0.984276 -0.0669794 0.163443 
-0.472884 -0.216765 0.0993872 -0.834164 -0.38565 -0.394266 
-0.416802 -0.587024 -0.248079 -0.0731794 -0.0981199 0.99248 
-0.306398 0.87499 -0.175226 0.23313 -0.672463 0.702455 
-0.266313 -0.951138 0.0745322 0.253817 0.91947 -0.300254 
-0.0245678 0.933345 0.168198 0.0379916 -0.728843 -0.683626 
-0.516687 -0.0559507 -0.0975739 -0.915916 -0.104577 0.387507 
0.205705 -0.557831 -0.196099 0.217387 -0.603442 0.767203 
-0.83855 0.523936 0.0703271 0.812669 -0.511252 -0.279625 
-0.461461 0.660977 -0.243194 0.137921 -0.182958 0.973398 
0.685828 -0.725299 -0.0165173 -0.705847 0.687277 0.171555 
-0.285057 0.410491 0.00244728 -0.572057 0.820029 -0.0173979 
0.200144 0.731236 -0.249564 0.0221165 0.0943698 0.995292 
-0.490002 0.717714 0.219542 0.269585 -0.390855 -0.880089 
-0.498058 -0.518858 -0.24795 -0.0828826 -0.0893858 0.992543 
-0.35145 0.93503 -0.000488851 0.356466 -0.934308 0.000644953 
-0.173635 -0.84244 -0.223995 0.091366 0.433836 0.896347 
-0.560241 0.697616 -0.203231 0.356732 -0.44819 0.819676 
-0.896048 -0.440611 -0.00798332 0.895234 0.444157 0.0357809 
-0.420696 0.450904 -0.211618 -0.368431 0.391139 0.843368 
-0.765336 -0.472921 -0.199136 0.51857 0.320094 0.792859 
0.22619 0.738707 0.248887 -3.19544e-17 -1.18222e-16 -1 
-0.359856 0.885751 0.140928 0.315215 -0.765083 -0.561505 
-0.433815 0.304831 0.119769 -0.715301 0.510873 -0.476816 
-0.49811 0.0786248 0.0490133 -0.970486 0.150449 -0.188475 
-0.742563 -0.353983 -0.238864 0.264255 0.115143 0.957555 
-0.804827 0.25973 0.230673 0.361818 -0.124566 -0.923889 
-0.551071 -0.785623 -0.134588 0.488788 0.684383 0.541023 
-0.455997 -0.880875 -0.0596945 0.444431 0.864337 0.23538 
-0.763631 -0.633552 0.0596318 0.749158 0.616366 -0.242599 
0.513488 0.292444 -0.19332 0.505798 0.290518 0.812261 
-0.063528 0.664921 0.235877 -0.0415893 0.333087 -0.941979 
-0.299629 0.43399 -0.114019 -0.504126 0.727938 0.464718 
-0.881178 -0.41146 -0.111104 0.80937 0.38531 0.443234 
-0.508076 -0.255426 -0.172326 -0.647988 -0.329235 0.686815 
-0.391537 -0.465362 -0.205922 -0.367907 -0.440014 0.819166 
-0.638825 0.0422613 -0.224619 -0.433634 0.0304775 0.900574 
-0.952813 -0.0493117 -0.142441 0.819067 0.0466147 0.5718 
-0.155825 -0.974972 -0.0746965 0.151933 0.943048 0.295935 
-0.134212 -0.930773 0.160503 0.104987 0.770852 -0.628304 
-0.558543 0.332306 0.229254 -0.34022 0.202681 -0.918243 
-0.700156 -0.710592 0.0304633 0.693126 0.710613 -0.120856 
-0.53283 0.844258 0.0146958 0.532532 -0.844357 -0.0589215 
-0.0739039 0.567647 0.176572 -0.107729 0.702872 -0.703111 
-0.32594 -0.827315 -0.207171 0.201849 0.519017 0.830589 
-0.636743 -0.399852 -0.249871 -0.00426808 -0.00133556 0.99999 
-0.601339 0.00813219 0.200919 -0.589846 0.00908915 -0.807464 
-0.663787 -0.0744246 0.235979 -0.32833 -0.0337976 -0.943958 
-0.175841 -0.516944 -0.144947 -0.263712 -0.771437 0.579086 
-0.499456 -0.0430445 0.0269754 -0.991648 -0.0815251 -0.0999413 
-0.621208 -0.590534 0.225188 0.316087 0.297075 -0.901019 
-0.141209 -0.663453 -0.239553 -0.0686508 -0.291337 0.954154 
-0.0770338 0.980504 0.086397 0.0780149 -0.932517 -0.3526 
-0.163024 -0.98271 0.0352934 0.161569 0.976197 -0.144691 
0.780164 0.620784 -0.0323283 -0.94387 1.15591e-16 0.330318 
-0.357957 0.792555 -0.218858 0.197024 -0.442525 0.874844 
-0.794369 -0.0774645 -0.245285 0.18835 0.0220842 0.981854 
-0.816971 -0.574439 -0.00825144 0.821765 0.568826 0.0337539 
-0.516423 0.246025 -0.176221 -0.647061 0.302703 0.699773 
-0.489073 -0.863054 0.0579574 0.478909 0.846383 -0.232987 
-0.42242 -0.773287 -0.212299 0.257019 0.459962 0.849927 
-0.322117 -0.557692 0.226428 -0.216237 -0.375145 -0.901392 
-0.779881 0.112184 0.246668 0.144957 -0.0242835 -0.98914 
-0.0510042 -0.97811 -0.0964188 0.0375065 0.922258 0.38475 
-0.554817 -0.827651 -0.0401176 0.549983 0.820517 0.155792 
-0.954369 0.25606 -0.072734 0.923763 -0.248836 0.291107 
-0.660389 0.201449 0.242505 -0.225154 0.0705135 -0.971768 
-0.808644 0.478479 -0.161395 0.655638 -0.388014 0.647753 
-0.161234 0.518483 0.14026 -0.237821 0.788688 -0.566933 
-0.997248 -0.0383576 0.0176642 0.996685 0.0326032 -0.0745415 
-0.418095 -0.327172 -0.120909 -0.689182 -0.535919 0.487667 
-0.913064 -0.27277 0.145285 0.779035 0.234228 -0.581586 
-0.708601 -0.187828 0.249208 -0.0726823 -0.0214719 -0.997124 
-0.914013 -0.361808 0.08816 0.871974 0.343541 -0.34877 
-0.29218 0.597785 -0.235188 -0.149049 0.303436 0.941122 
-0.846498 -0.506141 -0.0775219 0.818305 0.483386 0.310991 
-0.361273 0.669261 -0.249475 0.0119119 -0.0336362 0.999363 
-0.859165 -0.160857 -0.216481 0.494528 0.0938828 0.864076 
-0.307375 -0.671517 -0.249477 -0.0221511 -0.045359 0.998725 
-0.682397 0.354215 0.249054 0.0674913 -0.0325178 -0.99719 
-0.0254703 0.887831 -0.207727 0.0315751 -0.548418 0.835608 
-0.609316 -0.49848 -0.246898 0.11007 0.0937948 0.989488 
-0.535833 -0.80262 0.126882 0.476522 0.721088 -0.50295 
-0.831008 -0.46104 0.148224 0.703999 0.393558 -0.591183 
-0.881106 0.406235 -0.115972 0.802431 -0.366822 0.470687 
-0.308338 -0.882538 0.166654 0.237915 0.70138 -0.67191 
0.925558 -0.291439 0.117162 -0.752378 0.329556 -0.570369 
-0.319063 -0.794723 0.225712 0.158508 0.402196 -0.901728 
-0.311624 -0.42073 -0.1066 -0.533622 -0.726132 0.433567 
-0.695135 0.716564 0.0210306 0.69482 -0.714132 -0.085091 
0.386764 -0.533282 0.232829 0.27709 -0.427396 -0.860554 
-0.340989 0.392303 0.0983524 -0.608153 0.691581 -0.389699 
-0.028648 0.644223 -0.226856 -0.0379125 0.416563 0.908316 
-0.395169 0.675976 0.247402 0.0683911 -0.109163 -0.991668 
-0.268302 0.470473 0.138881 -0.419152 0.719118 -0.554239 
-0.695739 -0.559445 -0.204702 0.44971 0.357821 0.818367 
-0.189557 0.899086 -0.183547 0.135182 -0.666261 0.733364 
-0.722435 0.52327 -0.204782 0.462264 -0.33597 0.820632 
-0.761602 0.357941 -0.232092 0.33377 -0.155531 0.929735 
-0.620509 -0.781858 0.0237204 0.619852 0.779332 -0.0917881 
-0.437939 -0.839711 0.152906 0.363745 0.704909 -0.608928 
-0.531613 0.820915 -0.100672 0.493031 -0.770914 0.403251 
-0.218727 0.726527 0.249567 0.00890369 -0.0385687 -0.999216 
-0.539993 -0.653525 0.229921 0.251605 0.298304 -0.920711 
-0.459702 -0.302926 0.150442 -0.668403 -0.435865 -0.60271 
-0.748232 0.470337 0.210412 0.453195 -0.285583 -0.844427 
-0.476795 0.152464 -0.0181267 -0.949096 0.307281 0.069249 
-0.523495 0.476677 -0.246328 -0.126819 0.120959 0.984523 
-0.00795111 -0.696097 0.244009 0.000393394 -0.237401 -0.971412 
-0.818686 -0.2818 0.220972 0.441237 0.146252 -0.885393 
-0.596756 0.691969 0.187837 0.42687 -0.496741 -0.755665 
-0.492706 -0.373083 -0.21244 -0.419653 -0.320042 0.849391 
-0.552717 0.178506 0.184047 -0.646414 0.213417 -0.732532 
-0.0922366 0.572539 -0.18344 -0.115524 0.674922 0.728789 
-0.756328 0.614373 -0.109046 0.694967 -0.569142 0.439429 
-0.699394 -0.0382779 -0.245203 -0.204471 -0.0120488 0.978798 
-0.43478 -0.431109 0.208644 -0.388132 -0.386625 -0.836585 
-0.591039 0.593627 0.233795 0.242374 -0.25387 -0.936379 
-0.622246 0.437046 0.249457 0.0291533 -0.0209926 -0.999354 
-0.479386 -0.144585 0.015348 -0.955009 -0.290425 -0.0601005 
-0.60681 -0.0769806 -0.208568 -0.554982 -0.0677958 0.829095 
-0.849984 0.44548 0.135334 0.74275 -0.390108 -0.544185 
-0.527899 0.0738481 -0.124764 -0.858138 0.122424 0.498609 
0.249123 -0.966455 -0.0157273 -0.22371 0.971211 0.0818746 
-0.954386 0.124624 -0.129491 0.846633 -0.105241 0.521668 
-0.0950709 -0.767026 -0.24884 0.00391808 0.0929822 0.99566 
-0.5432 0.500757 0.249492 -0.0385309 0.036622 -0.998586 
-0.944262 -0.324042 -0.0115054 0.945108 0.323534 0.0457949 
-0.252065 0.941868 -0.106043 0.233411 -0.87458 0.425005 
-0.974909 -0.190434 0.0555603 0.956158 0.188417 -0.224188 
-0.0694586 0.962479 -0.125505 0.0723812 -0.858607 0.507499 
-0.890424 -0.251739 -0.177461 0.681316 0.19029 0.706823 
-0.217007 -0.865332 0.20467 0.148548 0.558146 -0.816337 
-0.421339 -0.761204 0.218852 0.231659 0.422463 -0.876276 
-0.532591 -0.65503 -0.231422 0.233737 0.288875 0.928396 
-0.772435 -0.56578 0.137646 0.675055 0.494956 -0.5471 
-0.622559 0.751932 0.10532 0.576942 -0.698761 -0.422931 
-0.882493 0.297419 0.170763 0.69146 -0.233602 -0.683603 
-0.39839 -0.63877 0.249823 0.00470204 0.006161 -0.99997 
-0.404963 0.293528 -0.0147977 -0.807066 0.586645 0.0670222 
-0.0619374 -0.569587 -0.176752 -0.082356 -0.701863 0.707535 
-0.0724926 -0.903497 -0.194395 0.0369378 0.622647 0.781631 
-0.138829 0.660258 -0.238372 -0.0589432 0.299109 0.952397 
-0.433819 0.890389 0.0632167 0.424555 -0.870385 -0.249365 
-0.197388 0.462715 0.0385674 -0.385646 0.908118 -0.163092 
-0.0850187 -0.518527 0.110457 -0.149553 -0.885984 -0.438937 
-0.557121 -0.172328 0.185921 -0.639596 -0.205259 -0.740801 
-0.62877 -0.408714 0.249983 1.18654e-16 3.03141e-17 -1 
-0.401799 0.574756 -0.245288 -0.114052 0.163206 0.979978 
-0.982256 0.180061 0.0152988 0.981961 -0.179391 -0.0597579 
