ply
format ascii 1.0
element vertex 50
property float x
property float y
property float z
property float nx
property float ny
property float nz
end_header
-0.152945 -0.813124 0.237378 0.0439571 0.259121 -0.964844 
-0.255387 -0.447786 0.0871892 -0.437799 -0.8187 -0.371567 
-0.270748 0.42036 0.00711631 -0.544576 0.838707 -0.00278214 
-0.464248 -0.883138 0.0295921 0.4778 0.87084 -0.115517 
0.534273 0.645807 -0.233601 -0.194754 -0.142504 0.970445 
-0.600283 -0.103088 0.206784 -0.593467 -0.103118 -0.798225 
0.635311 -0.443989 -0.248618 0.0105634 -0.026313 0.999598 
0.874768 0.478155 0.0343471 -0.858478 -0.496615 -0.128018 
-0.0203024 -0.812189 -0.241586 0.0156863 0.18589 0.982445 
0.711551 0.284684 0.249175 -0.00961599 -0.00419219 -0.999945 
-0.925116 0.342081 0.0775029 0.886064 -0.33121 -0.32433 
-0.812014 0.170478 -0.236541 0.26546 0.00340357 0.964116 
-0.662652 0.272458 0.247472 -0.164961 0.0622423 -0.984334 
0.751976 -0.63498 0.0849935 -0.682193 0.621803 -0.384672 
0.989059 0.0983004 0.0536481 -0.969755 -0.0967157 -0.224103 
-0.708243 -0.675748 -0.0982322 0.680947 0.633415 0.367554 
0.51961 0.845233 0.0563046 -0.477793 -0.827707 -0.294304 
0.365487 -0.599877 -0.2455 0.133192 -0.242848 0.960877 
-0.784092 0.61835 0.0133768 0.788721 -0.606197 -0.102192 
0.449054 -0.220041 0.0126803 0.91369 -0.400354 -0.0699054 
-0.438277 -0.652932 0.247021 0.0703986 0.0764221 -0.994587 
-0.445856 -0.246051 -0.0676526 -0.849672 -0.475105 0.228762 
0.223679 0.606567 -0.227619 0.131404 0.437549 0.889541 
-0.618374 0.427775 -0.249881 -0.0782774 0.047726 0.995789 
0.33247 0.522781 0.213242 0.277175 0.428524 -0.859966 
0.0927198 -0.518024 -0.111795 0.161424 -0.846648 0.507079 
-0.999023 0.0124489 0.00743087 0.999993 -0.00256469 -0.00282114 
0.227023 0.950237 0.10174 -0.252312 -0.854166 -0.454686 
0.820299 0.225896 -0.228151 -0.366139 -0.0949193 0.925706 
-0.131969 0.964774 0.108568 0.157273 -0.871362 -0.464751 
-0.465599 0.718528 -0.225754 0.177668 -0.345044 0.921617 
0.460194 0.286623 -0.139697 0.674751 0.411566 0.612638 
0.0355582 0.728401 0.249025 0.00158998 0.105459 -0.994422 
-0.0046456 -0.999148 0.0126894 -0.0319655 0.996513 -0.0770722 
0.637003 -0.393158 0.249971 0.0972945 -0.0268112 -0.994894 
-0.100987 0.859039 -0.221543 0.0927041 -0.405644 0.909318 
0.831422 -0.0862866 -0.234397 -0.297415 0.0213642 0.954509 
0.105606 -0.597217 0.204807 0.0949812 -0.541721 -0.835175 
-0.510068 0.644839 0.239161 0.202284 -0.220978 -0.95407 
0.0500732 0.498423 0.0199338 0.113772 0.989077 -0.0937206 
0.390286 -0.919973 -0.00572716 -0.350983 0.936336 -0.00921276 
-0.859623 -0.474853 0.091031 0.796102 0.473111 -0.377342 
0.954717 -0.280953 0.0462485 -0.936827 0.285925 -0.201498 
-0.43916 -0.60326 -0.249855 -0.0794236 -0.0619646 0.994913 
-0.451125 0.887029 0.0437271 0.413307 -0.89138 -0.186062 
0.591402 6.10348e-11 0.193252 0.614076 0.00905495 -0.789195 
0.783475 -0.0814389 0.24681 -0.127303 0.00843237 -0.991828 
0.472568 -0.722052 0.222626 -0.22646 0.343718 -0.911358 
-0.502545 0.159082 -0.113361 -0.831054 0.234233 0.504465 
-0.892161 -0.275734 -0.168778 0.698344 0.177689 0.693356 
