ply
format ascii 1.0
element vertex 241
property float x
property float y
property float z
property float nx
property float ny
property float nz
end_header
-0.212845 0.84949 0.215112 0.122201 -0.489269 -0.86353 
-0.669255 0.693293 -0.128158 0.596037 -0.617255 0.513552 
-0.0444338 -0.971016 0.112102 0.0459429 0.895914 -0.441846 
-0.456827 0.239128 -0.0867228 -0.838036 0.430736 0.334906 
-0.722571 -0.300893 0.247568 0.115746 0.0423819 -0.992374 
-0.86695 0.00328886 0.220829 0.468212 -0.0029256 -0.883612 
-0.151761 0.981936 -0.0504593 0.148709 -0.967331 0.205319 
-0.101443 0.794942 -0.24434 0.0213078 -0.207825 0.977934 
-0.0643074 -0.513116 -0.0917357 -0.146805 -0.920856 0.361209 
-0.452231 -0.232039 -0.064064 -0.860599 -0.44613 0.245637 
-0.894883 0.197718 -0.185447 0.651824 -0.14606 0.744172 
-0.446454 0.88524 -0.0602311 0.436645 -0.867045 0.239946 
-0.272251 -0.55904 -0.214707 -0.221093 -0.465015 0.857251 
-0.772023 -0.399178 0.21942 0.422505 0.225459 -0.877871 
-0.719346 0.126406 -0.249066 -0.0901883 0.0165648 0.995787 
-0.695978 -0.65048 0.144552 0.595017 0.553374 -0.582865 
-0.612159 0.164159 -0.221574 -0.445776 0.12041 0.887009 
-0.782405 0.369358 0.221236 0.419642 -0.197166 -0.886017 
-0.423938 0.799637 0.195765 0.290249 -0.548133 -0.784414 
-0.984508 0.0626568 0.0771802 0.949616 -0.0542155 -0.308692 
-0.856737 -0.166892 0.217391 0.488506 0.0914006 -0.86776 
-0.476724 0.416149 0.2211 -0.347462 0.299554 -0.888559 
-0.983939 -0.109148 -0.0675292 0.955306 0.101553 0.277629 
-0.61206 -0.304266 0.240934 -0.241213 -0.122418 -0.96272 
-0.822116 0.140197 -0.234861 0.336774 -0.0541588 0.940027 
-0.537284 0.800159 0.128803 0.479123 -0.713015 -0.511909 
-0.753498 -0.644782 -0.0594955 0.73791 0.62957 0.243167 
-0.704739 -0.509945 0.218667 0.388039 0.29015 -0.874779 
-0.477727 0.196357 0.0888071 -0.868658 0.348758 -0.351854 
-0.302724 -0.459085 0.149587 -0.438492 -0.662376 -0.60744 
-0.935717 -0.165942 0.148039 0.791877 0.134995 -0.595573 
-0.21325 -0.454547 -0.0345077 -0.414561 -0.900279 0.132803 
-0.512702 0.347888 -0.213071 -0.432291 0.291289 0.85339 
-0.175694 -0.562886 0.191875 -0.184755 -0.615507 -0.76617 
-0.249007 -0.936047 -0.119208 0.225501 0.851865 0.472731 
0.725289 0.290727 0.247717 0.0807127 0.0495347 -0.995506 
-0.844293 0.528602 -0.0357297 0.840889 -0.521609 0.144326 
-0.655696 -0.719962 -0.108358 0.605688 0.667082 0.433756 
-0.632323 0.328143 -0.246909 -0.134503 0.0661231 0.988705 
-0.741601 -0.00197411 0.249592 -0.0421521 0.00183119 -0.99911 
-0.40896 -0.291367 0.0342721 -0.805888 -0.576113 -0.136524 
-0.0513267 0.49834 0.021994 -0.138251 0.985643 -0.0969215 
-0.199885 -0.471438 0.0767332 -0.379302 -0.873332 -0.305647 
-0.106341 -0.48834 -0.00297744 -0.229276 -0.97335 0.00476316 
-0.0324333 -0.997707 0.0142332 0.0188071 0.997721 -0.0647931 
-0.735633 0.567102 0.173432 0.566438 -0.439188 -0.697325 
-0.362972 -0.888178 -0.135841 0.313857 0.779604 0.541951 
-0.443592 0.53455 0.243589 -0.144688 0.172867 -0.97426 
-0.346143 -0.932794 -0.042825 0.340367 0.924827 0.16984 
-0.00434519 0.748617 0.249943 -0.0200248 0.0501448 -0.998541 
-0.959799 -0.0380458 0.132552 0.848539 0.0358167 -0.52792 
-0.366514 -0.385728 0.12296 -0.59601 -0.630831 -0.496813 
-0.253162 -0.688473 0.249234 -0.0322968 -0.0718985 -0.996889 
-0.626761 -0.740253 0.117666 0.571601 0.671992 -0.470849 
-0.664411 0.0779756 0.236386 -0.317992 0.0360095 -0.947409 
-0.206461 0.801595 -0.237029 0.0804117 -0.298854 0.950905 
0.739095 -0.0825549 -0.24971 0.187664 -0.0545589 0.980717 
-0.19713 0.597606 0.219097 -0.14681 0.46391 -0.873633 
-0.290003 -0.407862 0.0194624 -0.580241 -0.810706 -0.0779525 
-0.678502 0.436781 -0.243012 0.187699 -0.125508 0.974175 
-0.92279 0.384417 0.00496409 0.922802 -0.384866 -0.0177481 
-0.187736 0.972255 0.0676335 0.176838 -0.946988 -0.26822 
-0.645464 -0.647582 -0.187999 0.469412 0.470261 0.747333 
-0.614639 -0.186189 -0.225249 -0.418582 -0.124383 0.899621 
-0.0263908 -0.650656 -0.229846 -0.0248766 -0.407309 0.912951 
0.51413 -0.12378 0.117672 0.815008 -0.213316 -0.538756 
-0.896284 0.100261 0.197863 0.607776 -0.0639528 -0.791529 
-0.940833 -0.161751 -0.142038 0.810098 0.135744 0.570364 
-0.549131 -0.515159 0.249816 0.00923081 0.00670959 -0.999935 
-0.946974 0.297715 0.0570964 0.928864 -0.287428 -0.233659 
-0.288243 0.942228 0.0831717 0.27912 -0.90185 -0.329784 
-0.875019 0.0126204 -0.215811 0.507512 -0.0113006 0.861571 
-0.13128 -0.748288 0.249491 0.00843285 0.0207287 -0.99975 
-0.155346 0.514367 -0.130905 -0.253673 0.809073 0.530143 
-0.371534 -0.91133 0.0860586 0.355342 0.870126 -0.341488 
-0.40519 0.352254 -0.131051 -0.645947 0.550032 0.529355 
-0.779148 -0.555628 -0.138741 0.679792 0.477767 0.556437 
-0.897187 0.30504 -0.151322 0.749689 -0.256415 0.610096 
-0.297661 0.539715 0.21122 -0.257148 0.468692 -0.845105 
-0.770079 0.243293 -0.242885 0.221222 -0.075161 0.972323 
-0.955346 -0.243524 -0.0786063 0.91823 0.239336 0.315549 
-0.759462 0.635897 0.0656836 0.738218 -0.61981 -0.266215 
-0.285877 0.644698 0.245886 -0.075519 0.170395 -0.982478 
-0.53329 0.577067 -0.246993 0.0932703 -0.110231 0.98952 
-0.131747 0.783812 0.245664 0.0313588 -0.181297 -0.982928 
-0.00364166 -0.573636 0.177313 -0.030779 -0.708709 -0.704829 
-0.31866 0.794441 0.225902 0.153807 -0.393352 -0.906431 
-0.835788 -0.338302 -0.198155 0.567037 0.23376 0.789826 
-0.92596 0.193733 0.154323 0.770742 -0.163598 -0.615786 
-0.139927 0.931505 0.158777 0.10037 -0.761603 -0.640224 
-0.461807 0.760689 -0.206338 0.292116 -0.478216 0.828238 
-0.992986 0.0695025 -0.0406551 0.984398 -0.0671472 0.162638 
-0.472884 -0.216765 0.0993872 -0.835392 -0.384458 -0.392826 
-0.416802 -0.587024 -0.248079 -0.0739325 -0.0988328 0.992354 
-0.306398 0.87499 -0.175226 0.2334 -0.671775 0.703024 
-0.266313 -0.951138 0.0745322 0.251893 0.919997 -0.300258 
-0.0245678 0.933345 0.168198 0.0312912 -0.735471 -0.676834 
-0.516687 -0.0559507 -0.0975739 -0.915691 -0.105246 0.387858 
0.205705 -0.557831 -0.196099 0.206904 -0.604992 0.768879 
-0.83855 0.523936 0.0703271 0.813049 -0.510303 -0.280254 
-0.461461 0.660977 -0.243194 0.136456 -0.183631 0.973478 
0.685828 -0.725299 -0.0165173 -0.693362 0.709596 0.12539 
-0.285057 0.410491 0.00244728 -0.568596 0.822394 -0.019118 
0.200144 0.731236 -0.249564 -0.00853923 0.0620575 0.998036 
-0.490002 0.717714 0.219542 0.267828 -0.390779 -0.880659 
-0.498058 -0.518858 -0.24795 -0.0834169 -0.0881335 0.99261 
-0.35145 0.93503 -0.000488851 0.357121 -0.934058 0.000655993 
-0.173635 -0.84244 -0.223995 0.0927472 0.432625 0.896791 
-0.560241 0.697616 -0.203231 0.358215 -0.447313 0.819508 
-0.896048 -0.440611 -0.00798332 0.89534 0.443919 0.036085 
-0.420696 0.450904 -0.211618 -0.368365 0.390784 0.843561 
-0.765336 -0.472921 -0.199136 0.518482 0.319791 0.793039 
0.22619 0.738707 0.248887 0.00547277 0.00356644 -0.999979 
-0.359856 0.885751 0.140928 0.315217 -0.765256 -0.561267 
-0.433815 0.304831 0.119769 -0.715339 0.510003 -0.47769 
-0.49811 0.0786248 0.0490133 -0.970772 0.149804 -0.187509 
-0.742563 -0.353983 -0.238864 0.264251 0.116022 0.95745 
-0.804827 0.25973 0.230673 0.362569 -0.123411 -0.92375 
-0.551071 -0.785623 -0.134588 0.488001 0.685167 0.540741 
-0.455997 -0.880875 -0.0596945 0.444094 0.864206 0.236492 
-0.763631 -0.633552 0.0596318 0.748894 0.617768 -0.239834 
0.513488 0.292444 -0.19332 0.495607 0.276804 0.823258 
-0.063528 0.664921 0.235877 -0.0579733 0.335488 -0.940259 
-0.299629 0.43399 -0.114019 -0.504601 0.727649 0.464655 
-0.881178 -0.41146 -0.111104 0.809264 0.384987 0.443708 
-0.508076 -0.255426 -0.172326 -0.648655 -0.328745 0.686421 
-0.391537 -0.465362 -0.205922 -0.36701 -0.439654 0.819761 
-0.638825 0.0422613 -0.224619 -0.434679 0.0306944 0.900062 
-0.952813 -0.0493117 -0.142441 0.819164 0.0444255 0.571836 
-0.155825 -0.974972 -0.0746965 0.151723 0.943051 0.296031 
-0.134212 -0.930773 0.160503 0.107059 0.769679 -0.629391 
-0.558543 0.332306 0.229254 -0.341399 0.205325 -0.917218 
-0.700156 -0.710592 0.0304633 0.69387 0.709909 -0.120718 
-0.53283 0.844258 0.0146958 0.531393 -0.845028 -0.0595771 
-0.0739039 0.567647 0.176572 -0.117535 0.703305 -0.701104 
-0.32594 -0.827315 -0.207171 0.201389 0.520083 0.830034 
-0.636743 -0.399852 -0.249871 -0.00378216 -0.00112202 0.999992 
-0.601339 0.00813219 0.200919 -0.588599 0.00842915 -0.808381 
-0.663787 -0.0744246 0.235979 -0.328991 -0.0335011 -0.943739 
-0.175841 -0.516944 -0.144947 -0.259746 -0.771283 0.58108 
-0.499456 -0.0430445 0.0269754 -0.991574 -0.0821307 -0.100176 
-0.621208 -0.590534 0.225188 0.31717 0.295955 -0.901007 
-0.141209 -0.663453 -0.239553 -0.065737 -0.289879 0.954803 
-0.0770338 0.980504 0.086397 0.0713488 -0.933204 -0.352193 
-0.163024 -0.98271 0.0352934 0.162734 0.976004 -0.144683 
0.780164 0.620784 -0.0323283 -0.78428 -0.481575 0.39114 
-0.357957 0.792555 -0.218858 0.197726 -0.44313 0.87438 
-0.794369 -0.0774645 -0.245285 0.188091 0.0223752 0.981897 
-0.816971 -0.574439 -0.00825144 0.82202 0.568334 0.0357766 
-0.516423 0.246025 -0.176221 -0.648552 0.3049 0.697435 
-0.489073 -0.863054 0.0579574 0.478629 0.846454 -0.233304 
-0.42242 -0.773287 -0.212299 0.257722 0.460765 0.849279 
-0.322117 -0.557692 0.226428 -0.217789 -0.376035 -0.900647 
-0.779881 0.112184 0.246668 0.145507 -0.0243772 -0.989057 
-0.0510042 -0.97811 -0.0964188 0.0393657 0.922534 0.383903 
-0.554817 -0.827651 -0.0401176 0.550257 0.820249 0.156231 
-0.954369 0.25606 -0.072734 0.923608 -0.248533 0.291856 
-0.660389 0.201449 0.242505 -0.225805 0.0705141 -0.971617 
-0.808644 0.478479 -0.161395 0.655539 -0.387895 0.647925 
-0.161234 0.518483 0.14026 -0.23426 0.791075 -0.565087 
-0.997248 -0.0383576 0.0176642 0.996719 0.0326446 -0.074059 
-0.418095 -0.327172 -0.120909 -0.689014 -0.53732 0.48636 
-0.913064 -0.27277 0.145285 0.779131 0.234766 -0.581239 
-0.708601 -0.187828 0.249208 -0.0717539 -0.0213254 -0.997194 
-0.914013 -0.361808 0.08816 0.871648 0.34294 -0.350173 
-0.29218 0.597785 -0.235188 -0.148383 0.30365 0.941158 
-0.846498 -0.506141 -0.0775219 0.817922 0.483608 0.311651 
-0.361273 0.669261 -0.249475 0.0128995 -0.0327215 0.999381 
-0.859165 -0.160857 -0.216481 0.494473 0.0928879 0.864216 
-0.307375 -0.671517 -0.249477 -0.0243977 -0.0457871 0.998653 
-0.682397 0.354215 0.249054 0.0652202 -0.0345553 -0.997272 
-0.0254703 0.887831 -0.207727 0.0310892 -0.55088 0.834005 
-0.609316 -0.49848 -0.246898 0.110269 0.0917469 0.989658 
-0.535833 -0.80262 0.126882 0.476135 0.720489 -0.504173 
-0.831008 -0.46104 0.148224 0.704325 0.392242 -0.591669 
-0.881106 0.406235 -0.115972 0.802171 -0.367365 0.470706 
-0.308338 -0.882538 0.166654 0.239152 0.701837 -0.670993 
0.925558 -0.291439 0.117162 -0.822076 0.263857 -0.50455 
-0.319063 -0.794723 0.225712 0.15851 0.401743 -0.901929 
-0.311624 -0.42073 -0.1066 -0.533788 -0.725517 0.43439 
-0.695135 0.716564 0.0210306 0.694718 -0.714379 -0.0838458 
0.386764 -0.533282 0.232829 0.269765 -0.421705 -0.865674 
-0.340989 0.392303 0.0983524 -0.608381 0.689284 -0.393395 
-0.028648 0.644223 -0.226856 -0.0380964 0.419225 0.907083 
-0.395169 0.675976 0.247402 0.0676888 -0.107707 -0.991876 
-0.268302 0.470473 0.138881 -0.423368 0.718732 -0.551528 
-0.695739 -0.559445 -0.204702 0.448718 0.357502 0.819051 
-0.189557 0.899086 -0.183547 0.136819 -0.664835 0.734353 
-0.722435 0.52327 -0.204782 0.461579 -0.335174 0.821342 
-0.761602 0.357941 -0.232092 0.333255 -0.155562 0.929915 
-0.620509 -0.781858 0.0237204 0.619143 0.779926 -0.0915326 
-0.437939 -0.839711 0.152906 0.364096 0.704639 -0.609031 
-0.531613 0.820915 -0.100672 0.493817 -0.770672 0.402752 
-0.218727 0.726527 0.249567 0.0108107 -0.0389868 -0.999181 
-0.539993 -0.653525 0.229921 0.249641 0.299815 -0.920755 
-0.459702 -0.302926 0.150442 -0.668128 -0.435172 -0.603515 
-0.748232 0.470337 0.210412 0.452668 -0.28448 -0.845081 
-0.476795 0.152464 -0.0181267 -0.948909 0.307917 0.0689816 
-0.523495 0.476677 -0.246328 -0.124555 0.124201 0.984408 
-0.00795111 -0.696097 0.244009 -0.0040673 -0.242343 -0.970182 
-0.818686 -0.2818 0.220972 0.440392 0.146884 -0.885709 
-0.596756 0.691969 0.187837 0.427813 -0.497153 -0.754861 
-0.492706 -0.373083 -0.21244 -0.420322 -0.320055 0.849055 
-0.552717 0.178506 0.184047 -0.646728 0.214196 -0.732027 
-0.0922366 0.572539 -0.18344 -0.121639 0.674384 0.728292 
-0.756328 0.614373 -0.109046 0.695989 -0.568965 0.438039 
-0.699394 -0.0382779 -0.245203 -0.205401 -0.0125616 0.978597 
-0.43478 -0.431109 0.208644 -0.387708 -0.385196 -0.83744 
-0.591039 0.593627 0.233795 0.24297 -0.253386 -0.936355 
-0.622246 0.437046 0.249457 0.0281816 -0.0212188 -0.999378 
-0.479386 -0.144585 0.015348 -0.953729 -0.295061 -0.0577881 
-0.60681 -0.0769806 -0.208568 -0.555174 -0.0664174 0.829078 
-0.849984 0.44548 0.135334 0.742127 -0.390452 -0.544788 
-0.527899 0.0738481 -0.124764 -0.858376 0.121321 0.498469 
0.249123 -0.966455 -0.0157273 -0.227465 0.971381 0.0684057 
-0.954386 0.124624 -0.129491 0.846419 -0.105803 0.521902 
-0.0950709 -0.767026 -0.24884 0.00439265 0.0934963 0.99561 
-0.5432 0.500757 0.249492 -0.0378314 0.0354418 -0.998655 
-0.944262 -0.324042 -0.0115054 0.945227 0.323199 0.0457008 
-0.252065 0.941868 -0.106043 0.234227 -0.874555 0.424607 
-0.974909 -0.190434 0.0555603 0.956168 0.188694 -0.223912 
-0.0694586 0.962479 -0.125505 0.0625512 -0.860135 0.506216 
-0.890424 -0.251739 -0.177461 0.682036 0.190761 0.706001 
-0.217007 -0.865332 0.20467 0.145062 0.557451 -0.817438 
-0.421339 -0.761204 0.218852 0.233074 0.42204 -0.876104 
-0.532591 -0.65503 -0.231422 0.234109 0.289126 0.928223 
-0.772435 -0.56578 0.137646 0.674714 0.494454 -0.547975 
-0.622559 0.751932 0.10532 0.577864 -0.697166 -0.424303 
-0.882493 0.297419 0.170763 0.690654 -0.2335 -0.684452 
-0.39839 -0.63877 0.249823 0.00757286 0.0029408 -0.999967 
-0.404963 0.293528 -0.0147977 -0.809571 0.583143 0.0673781 
-0.0619374 -0.569587 -0.176752 -0.0884505 -0.702281 0.706383 
-0.0724926 -0.903497 -0.194395 0.0371434 0.622729 0.781556 
-0.138829 0.660258 -0.238372 -0.0563299 0.297394 0.953092 
-0.433819 0.890389 0.0632167 0.424533 -0.870462 -0.249135 
-0.197388 0.462715 0.0385674 -0.379868 0.91057 -0.16298 
-0.0850187 -0.518527 0.110457 -0.15543 -0.88797 -0.43284 
-0.557121 -0.172328 0.185921 -0.641892 -0.204252 -0.739091 
-0.62877 -0.408714 0.249983 -0.0155536 -0.000402343 -0.999879 
-0.401799 0.574756 -0.245288 -0.113117 0.162981 0.980123 
-0.982256 0.180061 0.0152988 0.982175 -0.178168 -0.0599026 
