ply
format ascii 1.0
element vertex 50
property float x
property float y
property float z
property float nx
property float ny
property float nz
end_header
-0.152945 -0.813124 0.237378 0.0361595 0.256854 -0.965774 
-0.255387 -0.447786 0.0871892 -0.430841 -0.820311 -0.376119 
-0.270748 0.42036 0.00711631 -0.55473 0.829142 0.0692717 
-0.464248 -0.883138 0.0295921 0.481968 0.869102 -0.111216 
0.534273 0.645807 -0.233601 -0.20107 -0.133115 0.97049 
-0.600283 -0.103088 0.206784 -0.553665 6.78044e-17 -0.832739 
0.635311 -0.443989 -0.248618 0.0286209 -0.046499 0.998508 
0.874768 0.478155 0.0343471 -0.854557 -0.501399 -0.135393 
-0.0203024 -0.812189 -0.241586 0.0147174 0.181273 0.983323 
0.711551 0.284684 0.249175 -0.0117959 -0.00518476 -0.999917 
-0.925116 0.342081 0.0775029 0.853976 -0.325115 -0.406234 
-0.812014 0.170478 -0.236541 0.229538 0.0194249 0.973106 
-0.662652 0.272458 0.247472 1.2246e-16 -1.10918e-18 -1 
0.751976 -0.63498 0.0849935 -0.685909 0.596996 -0.416083 
0.989059 0.0983004 0.0536481 -0.96694 -0.0946026 -0.236808 
-0.708243 -0.675748 -0.0982322 0.6762 0.63784 0.368665 
0.51961 0.845233 0.0563046 -0.484596 -0.813121 -0.322491 
0.365487 -0.599877 -0.2455 0.142518 -0.254221 0.956588 
-0.784092 0.61835 0.0133768 0.778117 -0.608973 -0.153901 
0.449054 -0.220041 0.0126803 0.910002 -0.413399 -0.0315757 
-0.438277 -0.652932 0.247021 0.0792698 0.0630166 -0.994859 
-0.445856 -0.246051 -0.0676526 -0.853464 -0.464857 0.235598 
0.223679 0.606567 -0.227619 0.146437 0.441356 0.885303 
-0.618374 0.427775 -0.249881 -0.108596 0.0676397 0.991782 
0.33247 0.522781 0.213242 0.249714 0.417577 -0.873654 
0.0927198 -0.518024 -0.111795 0.158674 -0.845062 0.510581 
-0.999023 0.0124489 0.00743087 0.999098 0.0119397 -0.0407392 
0.227023 0.950237 0.10174 -0.239633 -0.836079 -0.493506 
0.820299 0.225896 -0.228151 -0.353106 -0.0926533 0.930984 
-0.131969 0.964774 0.108568 0.14378 -0.853469 -0.500918 
-0.465599 0.718528 -0.225754 0.15099 -0.326081 0.933206 
0.460194 0.286623 -0.139697 0.670607 0.411491 0.617221 
0.0355582 0.728401 0.249025 4.09791e-17 -1.15405e-16 -1 
-0.0046456 -0.999148 0.0126894 -0.0381438 0.995769 -0.083606 
0.637003 -0.393158 0.249971 -1.02686e-16 6.67327e-17 -1 
-0.100987 0.859039 -0.221543 0.0999256 -0.370134 0.923588 
0.831422 -0.0862866 -0.234397 -0.275815 0.0178901 0.961044 
0.105606 -0.597217 0.204807 0.0994098 -0.528895 -0.842845 
-0.510068 0.644839 0.239161 0.244928 -0.250805 -0.93654 
0.0500732 0.498423 0.0199338 0.12461 0.991151 -0.045735 
0.390286 -0.919973 -0.00572716 -0.343586 0.938865 -0.0219266 
-0.859623 -0.474853 0.091031 0.792476 0.457508 -0.403322 
0.954717 -0.280953 0.0462485 -0.928503 0.292108 -0.229248 
-0.43916 -0.60326 -0.249855 -0.0797861 -0.0644689 0.994725 
-0.451125 0.887029 0.0437271 0.4234 -0.882271 -0.205743 
0.591402 6.10348e-11 0.193252 0.614233 -0.00271616 -0.78912 
0.783475 -0.0814389 0.24681 -0.14057 -1.72149e-17 -0.990071 
0.472568 -0.722052 0.222626 -0.23229 0.352836 -0.906393 
-0.502545 0.159082 -0.113361 -0.8081 0.22262 0.545358 
-0.892161 -0.275734 -0.168778 0.696046 0.175714 0.696164 
