ply
format ascii 1.0
element vertex 499
property float x
property float y
property float z
property float nx
property float ny
property float nz
end_header
0.204188 0.981237 -0.0938497 -0.154532 -0.916327 0.369411 
-0.204188 -0.661902 -0.244413 -0.156571 -0.266198 0.951117 
-0.816751 0.584098 -0.0869659 0.76174 -0.552737 0.337984 
-0.816751 0.42586 -0.201729 0.491865 -0.282301 0.823635 
0.204188 0.470789 -0.0362993 0.488188 0.862266 0.134796 
0.816751 -4.09978e-05 -0.250017 0.0240864 0.00239241 0.999707 
-0.561516 0.343477 -0.231487 -0.275628 0.224434 0.934697 
-0.561516 0.20142 0.191076 -0.505072 0.244385 -0.827755 
0.561516 -0.506916 0.254825 0.0283201 -0.0251566 -0.999282 
-0.816751 -0.342966 -0.225096 0.349549 0.181634 0.919143 
-0.204188 0.884754 -0.210676 0.0784359 -0.551502 0.830478 
-0.816751 -0.47561 0.180478 0.580768 0.378982 -0.720473 
-0.816751 0.0889649 -0.248493 0.0127028 -0.0262705 0.999574 
0.561516 -0.0430554 -0.15548 0.682064 -0.0772258 0.727204 
0.561516 -0.246993 0.205198 0.451455 -0.254613 -0.855196 
-0.561516 -0.0367703 -0.155064 -0.684281 -0.0618406 0.726592 
-0.561516 0.810995 0.126325 0.502101 -0.703385 -0.503134 
0.816751 -0.59894 0.0578923 -0.77997 0.583828 -0.225371 
0.561516 0.463758 0.252245 0.0855698 0.0918233 -0.992092 
0.816751 0.0283684 0.249601 0.0123521 -0.0125177 -0.999845 
-0.204188 -0.988944 -0.0728202 0.163617 0.943913 0.286807 
-0.561516 0.578196 0.251307 0.106054 -0.121293 -0.986935 
-0.816751 -0.483781 -0.175839 0.596122 0.381189 0.706635 
0.561516 0.68509 0.225171 -0.295731 -0.362551 -0.883799 
-0.204188 -0.959058 0.136489 0.143915 0.833374 -0.533645 
0.204188 0.820948 -0.241371 -0.0208677 -0.311472 0.950026 
0.816751 0.247717 -0.23934 -0.187707 -0.108451 0.976219 
0.204188 0.537278 0.169382 0.354798 0.680727 -0.640881 
-0.561516 0.699068 -0.218446 0.319188 -0.408344 0.855204 
0.204188 0.477984 -0.0682932 0.47481 0.842424 0.25471 
0.204188 0.90142 0.198642 -0.0996111 -0.6134 -0.783466 
0.561516 0.733582 0.198978 -0.378751 -0.507489 -0.773953 
0.561516 0.300096 -0.219888 0.350401 0.258375 0.900256 
0.561516 -0.844831 0.0558676 -0.546117 0.808917 -0.217738 
0.204188 -0.735645 0.254698 0.0640401 -0.00758107 -0.997919 
-0.561516 0.548435 -0.254215 0.051464 -0.0505504 0.997395 
-0.561516 0.773361 -0.168424 0.443834 -0.604107 0.661866 
-0.561516 -0.317062 0.225097 -0.335115 -0.237549 -0.911739 
-0.561516 -0.706739 -0.214795 0.328175 0.424685 0.843768 
0.816751 0.562508 -0.117092 -0.725532 -0.521105 0.449503 
-0.816751 -0.055496 -0.248939 0.00539406 0.0221093 0.999741 
-0.561516 0.0917499 0.162869 -0.638282 0.155667 -0.7539 
0.204188 -0.769122 0.25293 0.0286728 0.118152 -0.992582 
0.204188 0.998728 -0.0232382 -0.165083 -0.98166 0.0953451 
-0.816751 0.162421 0.246008 0.0746843 -0.0572022 -0.995565 
-0.561516 -0.402536 -0.244244 -0.188604 -0.173331 0.966636 
0.561516 -0.522419 -0.255132 0.0012635 -0.000623963 0.999999 
-0.561516 -0.590396 -0.25033 0.116706 0.139432 0.98333 
-0.816751 0.0546601 0.249343 -0.0116056 -0.0147289 -0.999824 
0.816751 -0.478334 -0.178932 -0.58394 0.37631 0.719308 
0.816751 0.328566 -0.227458 -0.313622 -0.167301 0.934693 
0.204188 0.926626 0.176648 -0.118073 -0.699758 -0.704555 
0.561516 0.198308 -0.190157 0.514345 0.237412 0.824066 
-0.204188 -0.801895 0.24709 0.00502135 0.23381 -0.972269 
-0.816751 0.244437 0.239596 0.181061 -0.10906 -0.977406 
0.816751 0.538695 0.140513 -0.691688 -0.458594 -0.557906 
-0.204188 -0.979709 0.0980212 0.155942 0.905373 -0.394945 
-0.561516 0.832504 0.089256 0.532514 -0.769697 -0.35213 
-0.561516 0.0552632 0.156294 -0.669334 0.0965195 -0.736666 
0.204188 -0.957652 -0.138827 -0.136501 0.820436 0.555205 
0.561516 0.078482 -0.160479 0.656152 0.112608 0.74618 
-0.561516 -0.68425 0.225521 0.287451 0.369597 -0.883612 
0.204188 -0.545364 0.177211 0.342852 -0.653434 -0.67489 
-0.561516 -0.118264 0.168209 -0.614918 -0.165781 -0.770968 
0.204188 -0.630983 0.233734 0.202641 -0.37752 -0.903557 
0.204188 -0.878304 0.214905 -0.0744123 0.519626 -0.851147 
0.816751 -0.361787 0.220268 -0.37753 0.214754 -0.900751 
0.561516 0.0651817 0.158259 0.662365 0.10763 -0.74141 
-0.561516 0.846833 -0.047586 0.550969 -0.815327 0.177975 
0.561516 0.804835 -0.134161 -0.496298 -0.685278 0.532994 
0.816751 -0.277078 -0.235806 -0.237056 0.137028 0.961784 
0.561516 0.663263 -0.232419 -0.261436 -0.3018 0.916825 
0.204188 -0.512223 -0.138817 0.405805 -0.755416 0.51446 
0.816751 0.609514 -0.011751 -0.795372 -0.603746 0.0536104 
-0.816751 0.393605 -0.211586 0.432717 -0.247154 0.866989 
0.816751 -0.577989 -0.0976742 -0.748928 0.548407 0.371963 
-0.204188 -0.898192 -0.2015 0.0961795 0.594895 0.798028 
0.204188 -0.880266 -0.213523 -0.0818303 0.533916 0.841568 
0.204188 -0.761657 -0.253648 0.0358586 0.0955005 0.994783 
-0.561516 0.697307 0.219057 0.319639 -0.402406 -0.857846 
0.204188 0.467933 -0.00356714 0.492329 0.87031 0.0131565 
-0.561516 -0.848223 0.0405022 0.546151 0.822048 -0.161107 
-0.204188 0.639181 -0.237031 -0.193254 0.353613 0.915211 
0.204188 -0.671683 -0.246885 0.143368 -0.232771 0.961906 
0.204188 0.738399 -0.254768 0.0684328 0.00117283 0.997655 
-0.561516 0.824102 -0.105633 0.520813 -0.74372 0.419088 
-0.561516 -0.506916 0.254825 -0.035598 -0.0266242 -0.999011 
-0.816751 -0.0907362 0.248649 0.0150478 0.0278508 -0.999499 
-0.816751 -0.584277 -0.0871925 0.760864 0.55529 0.335766 
-0.561516 0.0337732 -0.155244 -0.679414 0.0494211 0.732089 
0.816751 -0.381345 -0.215249 -0.411997 0.249466 0.876371 
-0.204188 -0.960489 -0.13387 0.147216 0.840937 0.520724 
0.204188 0.851714 -0.229411 -0.0498321 -0.422287 0.905091 
0.204188 -0.510521 0.135674 0.407524 -0.757793 -0.509582 
-0.816751 -0.433368 -0.199289 0.508031 0.301326 0.806912 
0.204188 -0.810386 0.244492 -0.013655 0.273102 -0.961888 
0.561516 0.699021 -0.218195 -0.323461 -0.407752 0.85388 
-0.816751 -0.407637 0.207621 0.45907 0.247239 -0.853304 
-0.561516 -0.843938 -0.0589053 0.54246 0.808295 0.228905 
-0.816751 0.498571 -0.167108 0.621086 -0.392043 0.678642 
-0.561516 -0.208922 0.193673 -0.502853 -0.249121 -0.827694 
0.816751 -0.045089 -0.249462 0.00586184 0.0114622 0.999917 
-0.204188 -0.658627 0.243458 -0.159848 -0.27965 -0.946702 
-0.561516 -0.623148 -0.244244 0.17701 0.217968 0.959769 
0.561516 -0.559913 0.253638 -0.0658558 0.0755171 -0.994967 
0.561516 -0.117172 0.169652 0.625732 -0.17353 -0.760491 
0.204188 -0.703216 0.252579 0.102887 -0.122645 -0.987103 
-0.561516 0.544492 0.25415 0.0464885 -0.0459008 -0.997864 
-0.561516 0.804778 -0.134731 0.49254 -0.68768 0.533386 
0.561516 0.247899 -0.204722 0.438825 0.254349 0.861823 
0.816751 -0.547621 0.132035 -0.706089 0.48004 -0.520577 
0.816751 -0.510926 0.16009 -0.642803 0.414962 -0.643902 
-0.561516 -0.828979 0.0976742 0.520799 0.763419 -0.382048 
0.204188 0.992947 -0.0574643 -0.161024 -0.959628 0.230621 
0.204188 0.587274 -0.21051 0.276398 0.519666 0.808425 
-0.816751 -0.172153 0.24542 0.0910267 0.0580781 -0.994153 
-0.561516 -0.546379 -0.254341 0.0381841 0.0490553 0.998066 
0.204188 0.472159 0.0443288 0.48438 0.860188 -0.159538 
0.204188 -0.999413 -0.0125737 -0.167071 0.984876 0.0458932 
0.204188 -0.569329 -0.198017 0.302103 -0.578829 0.757424 
0.816751 -0.47561 0.180478 -0.579825 0.37745 -0.722035 
0.561516 -0.402536 0.244244 0.19334 -0.171209 -0.966078 
0.816751 0.449623 -0.192274 -0.531479 -0.333213 0.778781 
-0.204188 0.578879 0.205326 -0.284539 0.549742 -0.785379 
-0.816751 0.602633 0.0453969 0.789301 -0.586147 -0.182857 
0.561516 0.496704 0.254399 0.0342495 0.0405295 -0.998591 
-0.561516 0.167428 -0.181257 -0.551997 0.228299 0.801984 
-0.204188 -0.509835 -0.134629 -0.409731 -0.760037 0.504445 
-0.204188 -0.477638 0.0664131 -0.471871 -0.845089 -0.251321 
-0.816751 -0.560033 -0.120317 0.723628 0.509728 0.465338 
-0.816751 -0.610564 2.0232e-08 0.798012 0.602641 0.000253261 
0.561516 -0.331725 -0.228666 0.302108 -0.240528 0.92243 
0.561516 -0.476041 -0.2534 0.0731589 -0.0739476 0.994575 
-0.561516 0.729015 -0.202071 0.371436 -0.491273 0.787836 
-0.204188 0.526155 -0.157201 -0.382855 0.70906 0.592162 
-0.816751 -0.5886 0.0799865 0.769091 0.556018 -0.315187 
0.204188 -0.93216 -0.170598 -0.119449 0.730021 0.672905 
0.561516 0.507545 -0.254368 0.00945128 0.027065 0.999589 
0.561516 0.60923 0.246815 -0.158371 -0.190262 -0.968875 
0.561516 -0.799648 0.1418 -0.483771 0.669758 -0.563374 
-0.204188 -0.926708 0.176648 0.119453 0.699192 -0.704884 
-0.204188 0.475121 0.0572605 -0.481069 0.849443 -0.216839 
-0.561516 -0.317062 -0.225096 -0.334262 -0.239624 0.911509 
-0.561516 -0.513118 -0.25503 -0.0192381 -0.011833 0.999745 
-0.561516 -0.797587 -0.144036 0.477224 0.664778 0.574741 
0.561516 0.76889 0.172674 -0.436811 -0.588453 -0.680381 
0.561516 0.594916 -0.249111 -0.138596 -0.169245 0.97578 
0.816751 -0.0833429 0.248379 -0.0189243 0.0136693 -0.999727 
-0.561516 -0.852329 2.0232e-08 0.550121 0.835085 0.000293341 
0.816751 -0.0804838 -0.249026 -0.0146641 0.0218485 0.999654 
-0.561516 0.851362 -0.0140389 0.554524 -0.830413 0.0540062 
0.561516 -0.208158 0.193561 0.511643 -0.250306 -0.82193 
0.204188 0.673239 0.247278 0.133998 0.233715 -0.963027 
0.204188 0.925561 -0.17726 -0.115511 -0.701475 0.703271 
0.561516 -0.685366 0.225097 -0.293407 0.371526 -0.880841 
0.561516 0.85156 0.0109404 -0.555831 -0.829953 -0.0472231 
-0.204188 0.998552 0.0263729 0.164861 -0.979934 -0.112029 
-0.561516 -0.282764 -0.215654 -0.392116 -0.252609 0.884553 
-0.816751 0.0940717 0.248523 0.0141198 -0.0316643 -0.999399 
0.816751 0.263869 0.237391 -0.210818 -0.118475 -0.970319 
-0.204188 0.731232 -0.254949 -0.0730984 0.0196234 0.997132 
0.816751 0.585389 -0.0845164 -0.761265 -0.563559 0.320744 
0.204188 0.707798 0.253478 0.088222 0.106621 -0.990378 
-0.816751 0.393857 0.210646 0.438292 -0.238969 -0.866483 
-0.561516 0.290446 0.217084 -0.362448 0.254334 -0.89663 
-0.561516 -0.828979 -0.0976742 0.523104 0.76191 0.38191 
-0.204188 -0.70788 0.253478 -0.0959218 -0.108336 -0.989476 
0.561516 -0.840409 -0.0710808 -0.543049 0.793623 0.274334 
-0.561516 -0.737099 -0.197299 0.379796 0.511179 0.771007 
-0.816751 0.51868 0.153917 0.667282 -0.397236 -0.63003 
-0.816751 -0.208025 0.242802 0.133699 0.0760358 -0.988101 
0.204188 -0.90876 -0.193131 -0.102889 0.637242 0.763765 
0.561516 -0.00925837 -0.153241 0.695833 -0.0136615 0.718073 
-0.561516 -0.0837426 0.161919 -0.645258 -0.122651 -0.754055 
0.561516 0.843962 -0.0584156 -0.550048 -0.802385 0.231573 
0.561516 -0.626327 0.2434 -0.187538 0.218218 -0.957711 
-0.561516 0.746925 0.190078 0.403288 -0.536871 -0.741032 
-0.204188 -0.541809 0.174255 -0.351687 -0.664127 -0.659736 
-0.204188 -0.469551 0.0294173 -0.487331 -0.866246 -0.110121 
0.816751 -0.237558 0.239701 -0.184422 0.097127 -0.978036 
-0.816751 -0.226337 -0.240806 0.171438 0.0999262 0.980114 
0.561516 0.472265 -0.252738 0.0650259 0.0710144 0.995354 
0.204188 -0.983588 0.087864 -0.159735 0.924729 -0.345486 
0.204188 -0.495329 -0.110217 0.436664 -0.799568 0.41233 
0.561516 -0.826019 -0.102706 -0.522953 0.744669 0.414715 
-0.816751 -0.439555 0.197298 0.51535 0.305606 -0.800637 
-0.561516 0.486618 0.253803 -0.0437276 0.0519955 -0.99769 
-0.204188 0.484157 -0.0857027 -0.464939 0.824372 0.322865 
-0.816751 -0.128328 0.247266 0.0457409 0.036718 -0.998278 
-0.816751 -0.191453 -0.244244 0.127311 0.0703806 0.989363 
-0.816751 -0.602342 -0.0497942 0.787483 0.582742 0.200703 
-0.561516 -0.772728 -0.169343 0.437767 0.604891 0.665182 
0.816751 -0.191453 0.244244 -0.123821 0.0672 -0.990027 
-0.816751 -0.261222 -0.237369 0.21828 0.107406 0.969958 
0.561516 0.823423 0.106807 -0.520811 -0.740696 -0.424413 
0.816751 -0.244485 -0.239628 -0.189343 0.0954829 0.977257 
-0.816751 -0.508291 0.161919 0.63843 0.403254 -0.655586 
0.816751 0.214911 -0.241905 -0.142896 -0.0700249 0.987257 
-0.816751 -0.125781 -0.247269 0.0583951 0.040168 0.997485 
0.204188 0.999331 0.0125733 -0.167877 -0.984599 -0.0487994 
0.204188 -0.474742 0.055481 0.476825 -0.853126 -0.211694 
0.816751 -0.342966 -0.225096 -0.345775 0.185882 0.919721 
-0.816751 0.472584 0.18079 0.583413 -0.39311 -0.710699 
0.204188 0.703134 -0.252579 0.107935 0.121747 0.986675 
-0.561516 -0.623148 0.244244 0.174426 0.21251 -0.961465 
-0.816751 0.263869 -0.237391 0.209581 -0.118586 0.970574 
0.816751 -0.0377213 0.249297 0.00770401 0.0255669 -0.999643 
-0.561516 -0.361052 -0.235806 -0.256009 -0.211793 0.943188 
0.204188 0.495817 0.111336 0.435766 0.795567 -0.420929 
0.561516 -0.0837426 0.161919 0.656227 -0.153553 -0.738775 
-0.204188 -0.489257 0.0982847 -0.449395 -0.815769 -0.364095 
-0.816751 0.0518203 -0.249354 -0.00830689 -0.0167818 0.999825 
-0.204188 0.961788 -0.131813 0.143054 -0.844831 0.515554 
-0.561516 -0.170375 0.181889 -0.553957 -0.238668 -0.797602 
0.561516 -0.771798 0.170168 -0.440606 0.597704 -0.669789 
-0.816751 -0.0185642 -0.249683 -0.0128293 0.011345 0.999853 
-0.204188 -0.999103 -0.0180134 0.169207 0.982171 0.0819048 
0.204188 0.509753 -0.134629 0.41471 0.758543 0.502622 
0.561516 -0.590396 -0.25033 -0.116981 0.144635 0.982546 
-0.561516 -0.280254 0.214776 -0.392754 -0.26088 -0.881865 
0.204188 0.561046 0.191684 0.309673 0.604947 -0.733582 
0.561516 0.75623 -0.18258 -0.420168 -0.558991 0.714834 
0.204188 0.965845 -0.125338 -0.145609 -0.853515 0.500311 
-0.816751 -0.0201517 0.249769 -0.0209411 0.00655847 -0.999759 
0.816751 -0.416327 -0.204863 -0.474078 0.266701 0.839119 
-0.561516 0.232546 0.200262 -0.456977 0.25186 -0.853076 
-0.561516 0.420522 -0.246944 -0.144483 0.151082 0.977905 
0.816751 -0.545776 -0.134502 -0.698963 0.476269 0.533496 
0.561516 -0.440141 0.249862 0.133498 -0.121209 -0.983609 
0.561516 0.727565 -0.202499 -0.372186 -0.488763 0.789043 
0.204188 -0.925644 0.17726 -0.118376 0.707543 -0.696686 
0.561516 -0.170286 0.182347 0.565107 -0.217129 -0.795933 
-0.561516 0.323771 0.226279 -0.309817 0.243858 -0.918992 
-0.204188 0.910921 -0.191071 0.10213 -0.644846 0.757458 
0.816751 -0.607819 -0.0277701 -0.793076 0.598416 0.113704 
0.816751 0.563669 0.115254 -0.732073 -0.523102 -0.436386 
-0.816751 0.220837 -0.24168 0.149224 -0.082599 0.985348 
0.204188 0.834392 0.236537 -0.0382116 -0.366597 -0.929595 
-0.204188 0.995207 -0.0482812 0.162069 -0.970108 0.180621 
0.816751 0.605353 0.0373582 -0.791737 -0.592215 -0.149777 
0.204188 0.620169 0.228899 0.210837 0.413692 -0.885668 
-0.204188 0.55875 -0.189911 -0.323791 0.608276 0.724679 
-0.204188 0.978967 0.0998355 0.155888 -0.903188 -0.399938 
-0.204188 -0.475572 -0.058684 -0.474748 -0.852937 0.217055 
-0.816751 -0.308454 -0.230706 0.291435 0.140793 0.946173 
0.816751 0.534281 -0.143824 -0.680669 -0.447748 0.579838 
0.561516 -0.0461647 0.156435 0.681786 -0.0639103 -0.728754 
0.561516 -0.706145 -0.215081 -0.329003 0.426049 0.842757 
-0.561516 0.431216 0.248434 -0.131069 0.146537 -0.980483 
-0.204188 -0.617535 0.227738 -0.22184 -0.423712 -0.878212 
-0.561516 -0.475638 -0.253393 -0.0759802 -0.0717024 0.994528 
-0.204188 0.820948 0.241371 0.0262595 -0.315097 -0.948696 
-0.816751 0.195227 0.243443 0.113955 -0.0768683 -0.990508 
-0.204188 0.999205 -0.0153474 0.164603 -0.984125 0.0663608 
0.816751 -0.609019 0.0187628 -0.793182 0.603984 -0.0778799 
0.816751 0.132894 -0.247095 -0.0501847 -0.0382486 0.998007 
-0.561516 0.375158 -0.238596 -0.219689 0.199898 0.95487 
0.561516 -0.473148 0.253157 0.0821508 -0.0748479 -0.993805 
0.204188 0.995207 0.0482812 -0.164539 -0.969144 -0.183541 
0.816751 0.145873 0.24648 -0.0638607 -0.0388595 -0.997202 
-0.204188 0.980802 -0.0955506 0.154185 -0.908899 0.387467 
-0.204188 0.992403 0.0595119 0.162504 -0.957834 -0.236954 
0.204188 -0.846141 0.231722 -0.048922 0.403951 -0.913472 
0.816751 0.398545 -0.209303 -0.438395 -0.251631 0.862839 
-0.816751 0.590097 0.0756427 0.771475 -0.563174 -0.296077 
0.816751 0.584098 0.0869659 -0.762335 -0.552143 -0.337614 
-0.816751 0.609514 0.011751 0.797663 -0.600759 -0.0531347 
0.561516 -0.676256 -0.228326 -0.27684 0.345418 0.896686 
-0.816751 0.57238 0.103763 0.745971 -0.539844 -0.389995 
0.816751 -0.11593 0.247723 -0.0456737 0.0345188 -0.99836 
0.204188 -0.849662 -0.230287 -0.0527881 0.417985 0.906919 
-0.561516 0.394944 0.24203 -0.188213 0.18368 -0.964799 
0.561516 0.135213 0.172781 0.593914 0.19626 -0.780223 
0.204188 0.480393 0.0762662 0.466568 0.836547 -0.287233 
-0.561516 0.628426 -0.242546 0.195186 -0.224558 0.954713 
-0.204188 0.763682 -0.253414 -0.0358683 -0.107854 0.993519 
0.816751 0.438648 0.197614 -0.513723 -0.314506 -0.798232 
-0.816751 -0.374334 0.217048 0.398253 0.242293 -0.884697 
0.561516 -0.851076 0.02189 -0.552102 0.82983 -0.081026 
0.561516 -0.300177 -0.219888 0.355041 -0.247763 0.901421 
-0.561516 0.6602 -0.233931 0.25219 -0.295277 0.921527 
-0.204188 0.528779 0.159768 -0.373385 0.707094 -0.600501 
-0.204188 0.621955 0.229448 -0.214802 0.404455 -0.888975 
-0.204188 0.942982 -0.1585 0.127761 -0.769897 0.625248 
0.816751 0.59995 -0.0532879 -0.78285 -0.584627 0.212973 
0.816751 -0.00513446 0.249953 0.0212234 0.00320575 -0.99977 
-0.561516 0.111195 -0.167066 -0.617692 0.168469 0.768163 
0.204188 0.670731 -0.246618 0.151078 0.238731 0.959262 
0.204188 -0.543937 -0.176212 0.347351 -0.653576 0.672448 
0.561516 0.244952 0.204341 0.440052 0.256308 -0.860617 
0.561516 0.629723 -0.241867 -0.20204 -0.230433 0.951883 
-0.561516 -0.242443 -0.203827 -0.457486 -0.253694 0.852259 
0.204188 0.801813 0.24709 -0.00571248 -0.237676 -0.971328 
-0.561516 -0.248322 0.205244 -0.442875 -0.254502 -0.859704 
-0.204188 0.659006 0.243717 -0.163237 0.287298 -0.943829 
0.561516 0.341528 -0.231073 0.281593 0.225477 0.932666 
0.561516 0.147488 -0.175887 0.585091 0.217426 0.781278 
0.816751 -0.150258 0.246141 -0.0790326 0.0436868 -0.995914 
-0.561516 -0.0215482 0.154055 -0.683274 -0.047642 -0.728606 
-0.204188 -0.510681 0.136361 -0.408909 -0.755548 -0.511802 
-0.204188 -0.976479 -0.104961 0.157542 0.893198 0.421163 
0.816751 -0.447875 -0.193418 -0.530457 0.327015 0.782098 
0.816751 -0.204711 -0.24309 -0.13462 0.0781617 0.98781 
0.816751 0.172263 -0.245239 -0.0908304 -0.0646567 0.993765 
-0.204188 0.508037 0.132017 -0.414198 0.76076 -0.499685 
0.816751 0.302523 0.231734 -0.27164 -0.152098 -0.950304 
-0.204188 -0.799742 -0.247613 0.00293152 0.227217 0.97384 
0.816751 -0.168936 -0.245616 -0.0920126 0.0531874 0.994336 
0.204188 0.516145 0.14407 0.395658 0.742553 -0.540434 
0.816751 0.0968056 -0.248423 -0.020827 -0.0286839 0.999372 
-0.204188 -0.534942 -0.167113 -0.363084 -0.687577 0.628815 
-0.561516 -0.799648 0.1418 0.477446 0.672009 -0.566082 
0.816751 -0.396248 0.211225 -0.437611 0.241112 -0.866234 
0.816751 0.360875 0.220444 -0.372445 -0.220243 -0.901542 
0.816751 0.113274 0.247755 -0.0350023 -0.0374641 -0.998685 
0.561516 0.529941 0.254881 -0.0152687 -0.0140756 -0.999784 
-0.816751 0.0149672 -0.249742 -0.0229544 -0.00469344 0.999725 
0.204188 -0.468138 -0.0102875 0.487974 -0.871877 0.0413846 
-0.816751 -0.33835 0.226032 0.33513 0.192969 -0.922199 
-0.816751 -0.532447 -0.145154 0.679222 0.443569 0.584726 
-0.204188 0.84958 -0.230287 0.0455241 -0.41499 0.908686 
-0.561516 -0.714862 0.210562 0.34131 0.458391 -0.820601 
-0.204188 0.684705 -0.250027 -0.129126 0.187183 0.973801 
-0.204188 -0.76288 -0.253425 -0.0324433 0.0918595 0.995243 
-0.816751 -0.283206 0.234829 0.243466 0.129588 -0.961213 
-0.816751 0.564775 -0.113902 0.731164 -0.526117 0.434282 
-0.561516 -0.437007 0.249394 -0.143358 -0.124334 -0.98183 
-0.561516 0.50265 -0.254686 -0.0203695 0.0319788 0.999281 
0.561516 0.823482 -0.106608 -0.522767 -0.738711 0.425465 
-0.561516 -0.676238 -0.228309 0.274901 0.345407 0.897287 
-0.561516 0.016225 0.153708 -0.688893 0.0221929 -0.724523 
-0.561516 0.645344 0.238331 0.227347 -0.259059 -0.938723 
0.204188 -0.596806 -0.216732 0.256201 -0.49655 0.829337 
-0.561516 0.583578 -0.251071 0.113728 -0.131754 0.984737 
-0.561516 -0.351626 0.233511 -0.278556 -0.218244 -0.935295 
0.561516 0.643283 0.238726 -0.22046 -0.253965 -0.941753 
0.204188 0.886923 -0.20904 -0.0823629 -0.565108 0.820896 
0.561516 0.276236 0.21355 0.391571 0.254842 -0.884153 
-0.204188 0.473772 -0.0532756 -0.486299 0.850558 0.200159 
0.816751 0.360569 -0.220181 -0.370107 -0.237901 0.898011 
0.204188 -0.993847 0.0543929 -0.165519 0.961443 -0.219614 
-0.561516 0.843962 0.0584165 0.547713 -0.803745 -0.232387 
-0.816751 -0.545776 0.134503 0.701253 0.481417 -0.525815 
0.204188 0.545282 -0.17721 0.348564 0.653588 0.671808 
-0.816751 0.280057 0.234587 0.23574 -0.14112 -0.961515 
-0.561516 -0.443274 -0.25033 -0.126195 -0.117179 0.98506 
-0.816751 0.122884 -0.247463 0.0392426 -0.0356487 0.998594 
-0.816751 0.302523 -0.231734 0.271436 -0.152589 0.950284 
0.204188 -0.472898 -0.0479738 0.47997 -0.859018 0.178092 
-0.204188 0.468258 -0.0130203 -0.496283 0.866633 0.0514914 
-0.816751 0.128246 0.247266 0.0410531 -0.0324461 -0.99863 
-0.204188 0.586922 -0.210413 -0.275599 0.516636 0.810637 
0.561516 0.428942 0.248103 0.13831 0.138937 -0.980595 
-0.561516 -0.163974 -0.180478 -0.572585 -0.205524 0.793667 
-0.204188 -0.582802 0.207706 -0.279106 -0.535868 -0.796834 
0.204188 -0.967481 0.122901 -0.149918 0.860274 -0.487292 
0.561516 0.205497 0.192558 0.499667 0.249862 -0.829398 
0.204188 -0.639263 -0.237031 0.188645 -0.34217 0.920507 
-0.816751 0.545694 0.134504 0.708431 -0.46776 -0.528512 
0.561516 -0.848995 -0.0360291 -0.552916 0.822498 0.133349 
-0.561516 0.248058 -0.20528 -0.432691 0.257342 0.864033 
-0.561516 0.0786384 -0.160682 -0.648973 0.127495 0.750053 
0.204188 0.591123 0.213122 0.257708 0.509163 -0.821182 
-0.204188 -0.901502 0.198642 0.10004 0.615324 -0.7819 
-0.204188 0.925562 0.17726 0.120333 -0.707581 -0.696311 
0.816751 -0.439554 0.197298 -0.514252 0.312812 -0.798557 
-0.204188 0.960407 0.13387 0.144912 -0.834061 -0.5323 
0.561516 -0.556526 -0.254005 -0.0558848 0.0685204 0.996083 
0.204188 -0.670812 0.246618 0.145506 -0.232745 -0.961591 
0.204188 0.772161 -0.252683 0.0317364 -0.12831 0.991226 
-0.561516 -0.556526 0.254005 0.0495549 0.0663111 -0.996568 
-0.816751 0.361039 0.220047 0.378962 -0.23772 -0.894358 
0.561516 0.375152 -0.238418 0.22287 0.194374 0.955274 
0.561516 -0.43309 -0.248809 0.135272 -0.139227 0.980978 
-0.816751 -0.0570213 0.249315 -0.00523017 0.0147999 -0.999877 
0.561516 -0.170374 -0.181889 0.556817 -0.222635 0.800243 
-0.561516 -0.131882 -0.173055 -0.608502 -0.175842 0.773825 
-0.816751 0.465422 -0.185193 0.561494 -0.366349 0.741965 
0.561516 0.804778 0.134731 -0.492964 -0.689948 -0.530055 
0.204188 -0.987158 -0.0781232 -0.157152 0.936124 0.314604 
-0.816751 -0.393154 -0.212219 0.436428 0.250369 0.864203 
0.561516 -0.313944 0.224238 0.340209 -0.239864 -0.909243 
0.816751 -0.277078 0.235806 -0.239116 0.112111 -0.964497 
0.561516 0.167428 0.181257 0.553996 0.225501 -0.801397 
0.561516 0.307823 0.222363 0.338859 0.24465 -0.908472 
0.816751 -0.309327 -0.230662 -0.288707 0.149024 0.945748 
-0.204188 -0.838871 0.234803 0.0450276 0.38129 -0.923358 
0.561516 -0.623148 -0.244244 -0.178525 0.216092 0.959913 
0.816751 -0.327278 0.227646 -0.318881 0.179238 -0.930693 
0.561516 0.577104 0.251774 -0.0996217 -0.114927 -0.988366 
0.561516 -0.714584 0.210727 -0.345026 0.456967 -0.81984 
-0.204188 -0.468015 -0.00356714 -0.488469 -0.87232 0.0213662 
0.561516 -0.137854 -0.173467 0.597561 -0.197337 0.777161 
0.561516 0.433904 -0.248748 0.12549 0.133897 0.983018 
0.816751 0.0652215 0.249213 -0.00340845 -0.0156636 -0.999872 
0.204188 0.492912 -0.105434 0.445982 0.801466 0.398438 
0.816751 -0.129695 -0.247216 -0.0530968 0.0375877 0.997882 
0.561516 0.0259845 -0.154355 0.685914 0.0563312 0.725499 
-0.561516 0.790159 0.151667 0.470589 -0.646866 -0.600092 
0.204188 -0.995741 -0.0452046 -0.162869 0.969704 0.182064 
-0.204188 0.738399 0.254768 -0.0633843 0.00387058 -0.997982 
0.561516 -0.830144 0.0950538 -0.527777 0.764055 -0.371041 
0.816751 0.393605 0.211586 -0.43022 -0.242701 -0.869486 
-0.204188 -0.87048 -0.219431 0.073337 0.488922 0.869239 
-0.204188 -0.768398 0.252901 -0.0269272 0.116588 -0.992815 
-0.561516 0.210094 -0.193915 -0.490242 0.251285 0.834577 
0.816751 0.214783 0.242151 -0.141253 -0.0833879 -0.986455 
0.816751 0.283291 -0.234111 -0.24147 -0.143494 0.95974 
0.204188 -0.998986 0.0201033 -0.16766 0.982971 -0.0752258 
-0.816751 0.359086 -0.220898 0.368269 -0.214761 0.904575 
-0.816751 0.188403 -0.244206 0.107954 -0.0666883 0.991917 
-0.816751 0.155725 -0.246059 0.0706947 -0.0478303 0.996351 
0.204188 -0.469035 0.0235361 0.48767 -0.868204 -0.0916461 
0.204188 0.960734 0.133566 -0.143368 -0.840273 -0.522864 
-0.204188 -0.999035 0.0208948 0.169038 0.98126 -0.0924913 
-0.204188 0.488553 0.0969044 -0.453692 0.814502 -0.361594 
-0.561516 0.167036 0.181032 -0.554945 0.226856 -0.800358 
-0.816751 -0.602342 0.0497932 0.788237 0.582452 -0.198577 
-0.816751 0.436521 0.198426 0.516297 -0.299854 -0.8022 
-0.204188 -0.630983 -0.233734 -0.201934 -0.376784 0.904022 
-0.561516 -0.590396 0.25033 0.11319 0.146524 -0.98271 
0.816751 -0.579561 0.0950538 -0.753081 0.545926 -0.367196 
0.561516 0.0212098 0.154038 0.686748 0.0249524 -0.726467 
-0.816751 -0.569011 0.108995 0.739003 0.531069 -0.414536 
-0.561516 -0.074349 -0.160548 -0.661119 -0.136538 0.737752 
0.561516 0.393328 0.242296 0.194444 0.180459 -0.964171 
-0.816751 0.605352 -0.0373582 0.792743 -0.590956 0.149433 
-0.561516 -0.402536 0.244244 -0.196609 -0.170572 -0.965531 
0.204188 -0.811747 -0.244189 -0.0158647 0.274599 0.961428 
0.816751 0.0482247 -0.249422 0.00734812 -0.0168319 0.999831 
-0.561516 0.610352 0.246252 0.164334 -0.181908 -0.969486 
-0.204188 -0.568661 -0.197318 -0.302143 -0.577504 0.758418 
0.204188 -0.48173 -0.0794116 0.462606 -0.833672 0.301642 
-0.204188 -0.86884 0.220642 0.0706208 0.483539 -0.87247 
0.561516 -0.267153 -0.211224 0.411565 -0.237928 0.879775 
0.561516 0.357599 0.234774 0.254001 0.216438 -0.942676 
0.204188 -0.711228 -0.253688 0.0941438 -0.0980718 0.990716 
-0.561516 -0.205002 -0.192627 -0.516804 -0.249217 0.819027 
0.816751 0.178457 0.244979 -0.0966949 -0.0592561 -0.993549 
0.561516 0.8509 -0.0235489 -0.557745 -0.825345 0.0878998 
-0.204188 0.772161 0.252683 -0.0272074 -0.127675 -0.991443 
0.561516 -0.279646 0.214795 0.399166 -0.252784 -0.881344 
-0.816751 -0.158617 -0.245757 0.0904527 0.0403676 0.995082 
-0.561516 -0.76715 0.174292 0.42773 0.587409 -0.687021 
-0.204188 -0.992604 0.058963 0.165589 0.959995 -0.22581 
-0.561516 -0.00133799 -0.154437 -0.692496 0.00220757 0.721418 
-0.204188 0.553388 0.185064 -0.327316 0.631855 -0.702584 
-0.561516 0.462241 -0.252101 -0.0796925 0.0928456 0.992486 
0.816751 -0.598515 -0.0589053 -0.780157 0.581043 0.231829 
-0.204188 -0.727137 -0.254488 -0.0731903 -0.0340106 0.996738 
0.561516 -0.0128961 0.154642 0.694909 -0.0294752 -0.718494 
0.561516 -0.375234 -0.238418 0.225322 -0.194602 0.954652 
-0.816751 -0.2478 0.23934 0.189888 0.105146 -0.976159 
0.561516 0.78254 -0.15935 -0.461872 -0.626767 0.627565 
-0.561516 -0.474144 0.253211 -0.0869959 -0.0749625 -0.993384 
0.561516 -0.217817 -0.196393 0.48856 -0.264917 0.831341 
-0.816751 -0.0924277 -0.248196 0.0293907 0.019446 0.999379 
0.204188 -0.973834 -0.110374 -0.149496 0.890727 0.429251 
-0.561516 0.310636 -0.223139 -0.328612 0.244152 0.912362 
-0.204188 0.851714 0.229411 0.0526792 -0.41592 -0.907874 
0.204188 0.863964 0.223053 -0.064969 -0.467466 -0.881621 
-0.561516 0.8509 0.023549 0.555836 -0.826693 -0.0873213 
0.816751 0.473158 0.181106 -0.577094 -0.384247 -0.720636 
0.561516 -0.804986 -0.13464 -0.492067 0.692246 0.527888 
-0.204188 -0.601627 -0.219323 -0.246889 -0.480388 0.84159 
0.204188 0.947302 -0.152552 -0.133665 -0.785962 0.603653 
-0.204188 0.696846 0.251764 -0.109871 0.13644 -0.984537 
0.561516 0.102188 0.164922 0.630477 0.164737 -0.758525 
0.204188 0.620166 -0.228591 0.224292 0.412454 0.882935 
0.561516 -0.781095 -0.161919 -0.454548 0.627116 0.632544 
0.561516 0.844581 0.0564482 -0.54937 -0.807234 -0.215791 
-0.816751 0.538696 -0.140514 0.688917 -0.462735 0.557916 
0.816751 -0.508291 -0.161919 -0.636555 0.405385 0.656095 
-0.816751 0.0160476 0.249819 -0.0291926 -0.00475598 -0.999562 
-0.561516 0.131199 0.1716 -0.598043 0.188273 -0.779036 
0.561516 0.561475 -0.253504 -0.0791463 -0.0800447 0.993644 
-0.816751 0.318865 0.228883 0.30114 -0.151508 -0.941467 
0.204188 -0.591553 0.213103 0.264124 -0.512783 -0.816879 
-0.204188 -0.693784 -0.251356 -0.113322 -0.153168 0.981681 
0.204188 0.741348 0.254711 0.0482742 -0.0261955 -0.998491 
-0.561516 0.356812 0.234412 -0.254225 0.209173 -0.944254 
-0.204188 -0.489724 -0.0990371 -0.447965 -0.812479 0.373102 
-0.204188 0.813306 -0.243705 0.0125916 -0.278674 0.960303 
0.561516 -0.734598 -0.198791 -0.378479 0.500611 0.778551 
0.204188 -0.949422 0.149981 -0.137706 0.789245 -0.59844 
0.204188 -0.492994 0.105434 0.440951 -0.805621 -0.395647 
0.816751 0.481194 -0.176483 -0.588417 -0.384487 0.711291 
0.204188 0.979627 0.0980212 -0.154787 -0.90456 -0.397256 
0.561516 -0.742228 0.193561 -0.391163 0.52506 -0.755847 
-0.204188 0.90039 0.199596 0.0985757 -0.612261 -0.784486 
0.561516 -0.105513 -0.165448 0.631443 -0.172181 0.756064 
-0.204188 -0.937197 -0.165408 0.126486 0.747384 0.652241 
0.561516 -0.361052 0.235806 0.261164 -0.213088 -0.941481 
0.816751 0.508382 0.161155 -0.640486 -0.396008 -0.657994 
0.561516 0.111652 -0.166456 0.626647 0.171989 0.760088 
0.561516 -0.593671 0.249721 -0.127905 0.153232 -0.979878 
-0.204188 0.468494 0.0203453 -0.495833 0.864991 -0.0770738 
-0.204188 0.499801 -0.119167 -0.433779 0.78667 0.439302 
-0.204188 -0.839074 -0.234611 0.0450024 0.385225 0.921725 
